<?xml version="1.0" encoding="UTF-8" standalone="no"?>
<!DOCTYPE svg PUBLIC "-//W3C//DTD SVG 1.1//EN"
 "http://www.w3.org/Graphics/SVG/1.1/DTD/svg11.dtd">
<!-- Generated by graphviz version 2.40.1 (20161225.0304)
 -->
<!-- Title: G Pages: 1 -->
<svg width="134pt" height="188pt"
 viewBox="0.00 0.00 134.00 188.00" xmlns="http://www.w3.org/2000/svg" xmlns:xlink="http://www.w3.org/1999/xlink">
<g id="graph0" class="graph" transform="scale(1 1) rotate(0) translate(4 184)">
<title>G</title>
<polygon fill="#ffffff" stroke="transparent" points="-4,4 -4,-184 130,-184 130,4 -4,4"/>
<!-- nd0 -->
<g id="node1" class="node">
<ellipse fill="none" stroke="#000000" cx="63" cy="-162" rx="1" ry="1"/>
</g>
<!-- nd1 -->
<g id="node2" class="node">
<ellipse fill="none" stroke="#000000" cx="63" cy="-90" rx="1" ry="1"/>
</g>
<!-- nd0&#45;&gt;nd1 -->
<g id="edge3" class="edge">
<path fill="none" stroke="#000000" d="M63,-143.8314C63,-162 63,-162 63,-90"/>
</g>
<!-- nd2 -->
<g id="node3" class="node">
<title>nd2</title>
<ellipse fill="none" stroke="#000000" cx="27" cy="-18" rx="27" ry="18"/>
<text text-anchor="middle" x="27" y="-13.8" font-family="Times,serif" font-size="14.00" fill="#000000">nd2</text>
</g>
<!-- nd1&#45;&gt;nd2 -->
<g id="edge1" class="edge">
<title>nd1&#45;&gt;nd2</title>
<path fill="none" stroke="#000000" d="M54.2854,-72.5708C50.0403,-64.0807 44.8464,-53.6929 40.1337,-44.2674"/>
<polygon fill="#000000" stroke="#000000" points="43.237,-42.6477 35.6343,-35.2687 36.976,-45.7782 43.237,-42.6477"/>
</g>
<!-- nd3 -->
<g id="node4" class="node">
<title>nd3</title>
<ellipse fill="none" stroke="#000000" cx="99" cy="-18" rx="27" ry="18"/>
<text text-anchor="middle" x="99" y="-13.8" font-family="Times,serif" font-size="14.00" fill="#000000">nd3</text>
</g>
<!-- nd1&#45;&gt;nd3 -->
<g id="edge2" class="edge">
<title>nd1&#45;&gt;nd3</title>
<path fill="none" stroke="#000000" d="M71.7146,-72.5708C75.9597,-64.0807 81.1536,-53.6929 85.8663,-44.2674"/>
<polygon fill="#000000" stroke="#000000" points="89.024,-45.7782 90.3657,-35.2687 82.763,-42.6477 89.024,-45.7782"/>
</g>
</g>
</svg>
