<?xml version="1.0" encoding="UTF-8" standalone="no"?>
<!DOCTYPE svg PUBLIC "-//W3C//DTD SVG 1.1//EN"
 "http://www.w3.org/Graphics/SVG/1.1/DTD/svg11.dtd">
<!-- Generated by graphviz version 2.38.0 (20140413.2041)
 -->
<!-- Title: G Pages: 1 -->
<svg width="608pt" height="272pt"
 viewBox="0.00 0.00 608.20 272.00" xmlns="http://www.w3.org/2000/svg" xmlns:xlink="http://www.w3.org/1999/xlink">
<g id="graph0" class="graph" transform="scale(1 1) rotate(0) translate(4 268)">
<title>G</title>
<polygon fill="white" stroke="none" points="-4,4 -4,-268 604.2,-268 604.2,4 -4,4"/>
<g id="clust1" class="cluster"><title>cluster_nd162</title>
<polygon fill="none" stroke="orange" points="551.8,-61 551.8,-81 571.4,-81 571.4,-61 551.8,-61"/>
</g>
<!-- nd1 -->
<g id="node1" class="node"><title>nd1</title>
<ellipse fill="black" stroke="black" cx="1.8" cy="-221" rx="1.8" ry="1.8"/>
</g>
<!-- nd42 -->
<g id="node3" class="node"><title>nd42</title>
<g id="a_node3"><a xlink:title="nd42&#45;BinOpGraph">
<ellipse fill="none" stroke="#000000" cx="38.6" cy="-221" rx="18" ry="18"/>
<text text-anchor="middle" x="38.6" y="-217.3" font-family="Times,serif" font-size="14.00">::</text>
</a>
</g>
</g>
<!-- nd1&#45;&gt;nd42 -->
<g id="edge2" class="edge"><title>nd1:e&#45;&gt;nd42:w</title>
<path fill="none" stroke="#b70000" d="M3.6,-221C11.1556,-221 13.0444,-221 20.6,-221"/>
</g>
<!-- nd14 -->
<g id="node2" class="node"><title>nd14</title>
<g id="a_node2"><a xlink:title="nd14&#45;ConstGraph">
<path fill="none" stroke="#000000" d="M153.6,-264C153.6,-264 165.6,-264 165.6,-264 171.6,-264 177.6,-258 177.6,-252 177.6,-252 177.6,-240 177.6,-240 177.6,-234 171.6,-228 165.6,-228 165.6,-228 153.6,-228 153.6,-228 147.6,-228 141.6,-234 141.6,-240 141.6,-240 141.6,-252 141.6,-252 141.6,-258 147.6,-264 153.6,-264"/>
<text text-anchor="middle" x="159.6" y="-242.3" font-family="Times,serif" font-size="14.00">1000</text>
</a>
</g>
</g>
<!-- nd59 -->
<g id="node4" class="node"><title>nd59</title>
<g id="a_node4"><a xlink:title="nd59&#45;ContractGraph">
<ellipse fill="black" stroke="black" cx="91.6" cy="-245" rx="1.8" ry="1.8"/>
</a>
</g>
</g>
<!-- nd42&#45;&gt;nd59 -->
<g id="edge1" class="edge"><title>nd42:n&#45;&gt;nd59:w</title>
<path fill="none" stroke="black" d="M38.6,-240C38.6,-262.333 66.2669,-245 88.6,-245"/>
</g>
<!-- nd84 -->
<g id="node6" class="node"><title>nd84</title>
<g id="a_node6"><a xlink:title="nd84&#45;BinOpGraph">
<ellipse fill="none" stroke="#000000" cx="91.6" cy="-195" rx="18" ry="18"/>
<text text-anchor="middle" x="91.6" y="-191.3" font-family="Times,serif" font-size="14.00">::</text>
</a>
</g>
</g>
<!-- nd42&#45;&gt;nd84 -->
<g id="edge8" class="edge"><title>nd42:s&#45;&gt;nd84:w</title>
<path fill="none" stroke="#b70000" d="M38.6,-202C38.6,-186.136 57.7364,-195 73.6,-195"/>
</g>
<!-- nd59&#45;&gt;nd14 -->
<g id="edge3" class="edge"><title>nd59:e&#45;&gt;nd14:w</title>
<path fill="none" stroke="black" d="M94.6,-245C115.049,-245 120.151,-246 140.6,-246"/>
<text text-anchor="middle" x="121.1" y="-248.8" font-family="Times,serif" font-size="14.00">x</text>
</g>
<!-- nd111 -->
<g id="node5" class="node"><title>nd111</title>
<g id="a_node5"><a xlink:title="nd111&#45;ConstGraph">
<path fill="none" stroke="#000000" d="M221.6,-239C221.6,-239 233.6,-239 233.6,-239 239.6,-239 245.6,-233 245.6,-227 245.6,-227 245.6,-215 245.6,-215 245.6,-209 239.6,-203 233.6,-203 233.6,-203 221.6,-203 221.6,-203 215.6,-203 209.6,-209 209.6,-215 209.6,-215 209.6,-227 209.6,-227 209.6,-233 215.6,-239 221.6,-239"/>
<text text-anchor="middle" x="227.6" y="-217.3" font-family="Times,serif" font-size="14.00">999</text>
</a>
</g>
</g>
<!-- nd85 -->
<g id="node7" class="node"><title>nd85</title>
<g id="a_node7"><a xlink:title="nd85&#45;AppGraph">
<path fill="none" stroke="#000000" d="M145.038,-166C145.038,-166 138.819,-160 138.819,-160 135.709,-157 135.709,-151 138.819,-148 138.819,-148 145.038,-142 145.038,-142 148.147,-139 155.577,-136.002 159.898,-136.005 159.898,-136.005 172.802,-136.012 172.802,-136.012 177.123,-136.014 181.443,-140.338 181.443,-144.658 181.443,-144.658 181.443,-163.342 181.443,-163.342 181.443,-167.662 177.123,-171.986 172.802,-171.988 172.802,-171.988 159.898,-171.995 159.898,-171.995 155.577,-171.998 148.147,-169 145.038,-166"/>
<text text-anchor="middle" x="159.6" y="-150.3" font-family="Times,serif" font-size="14.00">@</text>
</a>
</g>
</g>
<!-- nd84&#45;&gt;nd85 -->
<g id="edge6" class="edge"><title>nd84:s&#45;&gt;nd85:w</title>
<path fill="none" stroke="#b70000" d="M91.6,-176C91.6,-155.32 111.92,-154 132.6,-154"/>
</g>
<!-- nd92 -->
<g id="node8" class="node"><title>nd92</title>
<g id="a_node8"><a xlink:title="nd92&#45;ContractGraph">
<ellipse fill="black" stroke="black" cx="159.6" cy="-213" rx="1.8" ry="1.8"/>
</a>
</g>
</g>
<!-- nd84&#45;&gt;nd92 -->
<g id="edge7" class="edge"><title>nd84:n&#45;&gt;nd92:w</title>
<path fill="none" stroke="black" d="M91.6,-214C91.6,-242.892 127.708,-213 156.6,-213"/>
</g>
<!-- nd156 -->
<g id="node9" class="node"><title>nd156</title>
<g id="a_node9"><a xlink:title="nd156&#45;ConstGraph">
<path fill="none" stroke="#000000" d="M221.6,-141C221.6,-141 233.6,-141 233.6,-141 239.6,-141 245.6,-135 245.6,-129 245.6,-129 245.6,-117 245.6,-117 245.6,-111 239.6,-105 233.6,-105 233.6,-105 221.6,-105 221.6,-105 215.6,-105 209.6,-111 209.6,-117 209.6,-117 209.6,-129 209.6,-129 209.6,-135 215.6,-141 221.6,-141"/>
<text text-anchor="middle" x="227.6" y="-119.3" font-family="Times,serif" font-size="14.00">998</text>
</a>
</g>
</g>
<!-- nd85&#45;&gt;nd156 -->
<g id="edge5" class="edge"><title>nd85:s&#45;&gt;nd156:w</title>
<path fill="none" stroke="black" d="M159.6,-135C159.6,-112.147 186.747,-123 209.6,-123"/>
</g>
<!-- nd118 -->
<g id="node12" class="node"><title>nd118</title>
<g id="a_node12"><a xlink:title="nd118&#45;AbsGraph">
<ellipse fill="none" stroke="#000000" cx="227.6" cy="-172" rx="18" ry="18"/>
<text text-anchor="middle" x="227.6" y="-168.3" font-family="Times,serif" font-size="14.00">λ</text>
</a>
</g>
</g>
<!-- nd85&#45;&gt;nd118 -->
<g id="edge4" class="edge"><title>nd85:n&#45;&gt;nd118:w</title>
<path fill="none" stroke="red" d="M159.6,-173C159.6,-191.927 179.74,-177.894 199.445,-173.311"/>
<polygon fill="red" stroke="red" points="200.13,-176.751 209.6,-172 199.234,-169.809 200.13,-176.751"/>
</g>
<!-- nd92&#45;&gt;nd111 -->
<g id="edge9" class="edge"><title>nd92:e&#45;&gt;nd111:w</title>
<path fill="none" stroke="black" d="M162.6,-213C183.789,-213 188.411,-221 209.6,-221"/>
<text text-anchor="middle" x="198.1" y="-223.8" font-family="Times,serif" font-size="14.00">x</text>
</g>
<!-- nd158 -->
<g id="node10" class="node"><title>nd158</title>
<g id="a_node10"><a xlink:title="nd158&#45;RecurGraph">
<ellipse fill="none" stroke="#000000" cx="508.6" cy="-78" rx="11" ry="11"/>
<text text-anchor="middle" x="508.6" y="-74.3" font-family="Times,serif" font-size="14.00">rec</text>
</a>
</g>
</g>
<!-- ndcluster_nd162 -->
<g id="node11" class="node"><title>ndcluster_nd162</title>
<g id="a_node11"><a xlink:title="nd162">
<ellipse fill="orange" stroke="orange" cx="561.6" cy="-71" rx="1.8" ry="1.8"/>
</a>
</g>
</g>
<!-- nd158&#45;&gt;ndcluster_nd162 -->
<g id="edge24" class="edge"><title>nd158:n&#45;&gt;ndcluster_nd162:n</title>
<path fill="none" stroke="black" d="M508.6,-90C508.6,-102.303 561.6,-86.3028 561.6,-74"/>
</g>
<!-- nd158&#45;&gt;ndcluster_nd162 -->
<g id="edge25" class="edge"><title>nd158:s&#45;&gt;ndcluster_nd162:w</title>
<path fill="none" stroke="black" d="M508.6,-66C508.6,-54.8335 547.433,-71 558.6,-71"/>
</g>
<!-- nd119 -->
<g id="node13" class="node"><title>nd119</title>
<g id="a_node13"><a xlink:title="nd119&#45;IfGraph">
<ellipse fill="none" stroke="#000000" cx="280.6" cy="-131" rx="18" ry="18"/>
<text text-anchor="middle" x="280.6" y="-127.3" font-family="Times,serif" font-size="14.00">if</text>
</a>
</g>
</g>
<!-- nd118&#45;&gt;nd119 -->
<g id="edge22" class="edge"><title>nd118:s&#45;&gt;nd119:w</title>
<path fill="none" stroke="black" d="M227.6,-153C227.6,-144.697 238.429,-152.184 245.6,-148 254.829,-142.615 251.915,-131 262.6,-131"/>
</g>
<!-- nd138 -->
<g id="node22" class="node"><title>nd138</title>
<g id="a_node22"><a xlink:title="nd138&#45;ContractGraph">
<ellipse fill="black" stroke="black" cx="598.4" cy="-187" rx="1.8" ry="1.8"/>
</a>
</g>
</g>
<!-- nd118&#45;&gt;nd138 -->
<g id="edge23" class="edge"><title>nd118:n&#45;&gt;nd138:ne</title>
<path fill="none" stroke="grey" d="M227.6,-191C227.6,-199.433 238.037,-193.269 245.6,-197 261.962,-205.071 261.356,-220 279.6,-220 279.6,-220 279.6,-220 562.6,-220 573.27,-220 605.945,-195.545 598.4,-188"/>
<text text-anchor="middle" x="446.6" y="-223.8" font-family="Times,serif" font-size="14.00">x</text>
</g>
<!-- nd120 -->
<g id="node14" class="node"><title>nd120</title>
<g id="a_node14"><a xlink:title="nd120&#45;BinOpGraph">
<ellipse fill="none" stroke="#000000" cx="384.6" cy="-172" rx="18" ry="18"/>
<text text-anchor="middle" x="384.6" y="-168.3" font-family="Times,serif" font-size="14.00">&lt;=</text>
</a>
</g>
</g>
<!-- nd119&#45;&gt;nd120 -->
<g id="edge17" class="edge"><title>nd119:n&#45;&gt;nd120:w</title>
<path fill="none" stroke="black" d="M280.6,-150C280.6,-189.453 327.147,-172 366.6,-172"/>
<text text-anchor="middle" x="332.6" y="-178.8" font-family="Times,serif" font-size="14.00">condition</text>
</g>
<!-- nd128 -->
<g id="node16" class="node"><title>nd128</title>
<g id="a_node16"><a xlink:title="nd128&#45;ConstListGraph">
<path fill="none" stroke="#000000" d="M378.6,-141C378.6,-141 390.6,-141 390.6,-141 396.6,-141 402.6,-135 402.6,-129 402.6,-129 402.6,-117 402.6,-117 402.6,-111 396.6,-105 390.6,-105 390.6,-105 378.6,-105 378.6,-105 372.6,-105 366.6,-111 366.6,-117 366.6,-117 366.6,-129 366.6,-129 366.6,-135 372.6,-141 378.6,-141"/>
<text text-anchor="middle" x="384.6" y="-119.3" font-family="Times,serif" font-size="14.00">[]</text>
</a>
</g>
</g>
<!-- nd119&#45;&gt;nd128 -->
<g id="edge18" class="edge"><title>nd119:e&#45;&gt;nd128:w</title>
<path fill="none" stroke="grey" d="M298.6,-131C329.031,-131 336.169,-123 366.6,-123"/>
<text text-anchor="middle" x="332.6" y="-134.8" font-family="Times,serif" font-size="14.00">is true</text>
</g>
<!-- nd129 -->
<g id="node17" class="node"><title>nd129</title>
<g id="a_node17"><a xlink:title="nd129&#45;BinOpGraph">
<ellipse fill="none" stroke="#000000" cx="384.6" cy="-74" rx="18" ry="18"/>
<text text-anchor="middle" x="384.6" y="-70.3" font-family="Times,serif" font-size="14.00">::</text>
</a>
</g>
</g>
<!-- nd119&#45;&gt;nd129 -->
<g id="edge19" class="edge"><title>nd119:s&#45;&gt;nd129:w</title>
<path fill="none" stroke="grey" d="M280.6,-112C280.6,-70.2128 324.813,-74 366.6,-74"/>
<text text-anchor="middle" x="332.6" y="-81.8" font-family="Times,serif" font-size="14.00">is false</text>
</g>
<!-- nd124 -->
<g id="node15" class="node"><title>nd124</title>
<g id="a_node15"><a xlink:title="nd124&#45;ConstGraph">
<path fill="none" stroke="#000000" d="M440.6,-167C440.6,-167 452.6,-167 452.6,-167 458.6,-167 464.6,-161 464.6,-155 464.6,-155 464.6,-143 464.6,-143 464.6,-137 458.6,-131 452.6,-131 452.6,-131 440.6,-131 440.6,-131 434.6,-131 428.6,-137 428.6,-143 428.6,-143 428.6,-155 428.6,-155 428.6,-161 434.6,-167 440.6,-167"/>
<text text-anchor="middle" x="446.6" y="-145.3" font-family="Times,serif" font-size="14.00">0</text>
</a>
</g>
</g>
<!-- nd120&#45;&gt;nd124 -->
<g id="edge10" class="edge"><title>nd120:s&#45;&gt;nd124:w</title>
<path fill="none" stroke="black" d="M384.6,-153C384.6,-148.202 422.802,-149 427.6,-149"/>
</g>
<!-- nd120&#45;&gt;nd138 -->
<g id="edge20" class="edge"><title>nd120:n&#45;&gt;nd138:w</title>
<path fill="none" stroke="black" d="M384.6,-191C384.6,-218.169 418.431,-187 445.6,-187 445.6,-187 445.6,-187 562.6,-187 577.711,-187 581.489,-187 596.6,-187"/>
</g>
<!-- nd130 -->
<g id="node18" class="node"><title>nd130</title>
<g id="a_node18"><a xlink:title="nd130&#45;AppGraph">
<path fill="none" stroke="#000000" d="M432.038,-68C432.038,-68 425.819,-62 425.819,-62 422.709,-59 422.709,-53 425.819,-50 425.819,-50 432.038,-44 432.038,-44 435.147,-41 442.577,-38.0024 446.898,-38.0048 446.898,-38.0048 459.802,-38.012 459.802,-38.012 464.123,-38.0144 468.443,-42.3375 468.443,-46.6582 468.443,-46.6582 468.443,-65.3418 468.443,-65.3418 468.443,-69.6625 464.123,-73.9856 459.802,-73.988 459.802,-73.988 446.898,-73.9952 446.898,-73.9952 442.577,-73.9976 435.147,-71 432.038,-68"/>
<text text-anchor="middle" x="446.6" y="-52.3" font-family="Times,serif" font-size="14.00">@</text>
</a>
</g>
</g>
<!-- nd129&#45;&gt;nd130 -->
<g id="edge14" class="edge"><title>nd129:s&#45;&gt;nd130:w</title>
<path fill="none" stroke="black" d="M384.6,-55C384.6,-39.4381 404.038,-56 419.6,-56"/>
</g>
<!-- nd137 -->
<g id="node21" class="node"><title>nd137</title>
<g id="a_node21"><a xlink:title="nd137&#45;ContractGraph">
<ellipse fill="black" stroke="black" cx="561.6" cy="-109" rx="1.8" ry="1.8"/>
</a>
</g>
</g>
<!-- nd129&#45;&gt;nd137 -->
<g id="edge16" class="edge"><title>nd129:n&#45;&gt;nd137:w</title>
<path fill="none" stroke="black" d="M384.6,-93C384.6,-97.8537 553.746,-109 558.6,-109"/>
</g>
<!-- nd130&#45;&gt;nd158 -->
<g id="edge12" class="edge"><title>nd130:n&#45;&gt;nd158:w</title>
<path fill="none" stroke="black" d="M446.6,-75C446.6,-97.2622 474.338,-78 496.6,-78"/>
</g>
<!-- nd132 -->
<g id="node19" class="node"><title>nd132</title>
<g id="a_node19"><a xlink:title="nd132&#45;BinOpGraph">
<ellipse fill="none" stroke="#000000" cx="508.6" cy="-36" rx="18" ry="18"/>
<text text-anchor="middle" x="508.6" y="-32.3" font-family="Times,serif" font-size="14.00">&#45;</text>
</a>
</g>
</g>
<!-- nd130&#45;&gt;nd132 -->
<g id="edge13" class="edge"><title>nd130:s&#45;&gt;nd132:w</title>
<path fill="none" stroke="black" d="M446.6,-37C446.6,-17.4394 471.039,-36 490.6,-36"/>
</g>
<!-- nd136 -->
<g id="node20" class="node"><title>nd136</title>
<g id="a_node20"><a xlink:title="nd136&#45;ConstGraph">
<path fill="none" stroke="#000000" d="M555.6,-36C555.6,-36 567.6,-36 567.6,-36 573.6,-36 579.6,-30 579.6,-24 579.6,-24 579.6,-12 579.6,-12 579.6,-6 573.6,-0 567.6,-0 567.6,-0 555.6,-0 555.6,-0 549.6,-0 543.6,-6 543.6,-12 543.6,-12 543.6,-24 543.6,-24 543.6,-30 549.6,-36 555.6,-36"/>
<text text-anchor="middle" x="561.6" y="-14.3" font-family="Times,serif" font-size="14.00">1</text>
</a>
</g>
</g>
<!-- nd132&#45;&gt;nd136 -->
<g id="edge11" class="edge"><title>nd132:s&#45;&gt;nd136:w</title>
<path fill="none" stroke="black" d="M508.6,-17C508.6,-1.4381 528.038,-18 543.6,-18"/>
</g>
<!-- nd132&#45;&gt;nd137 -->
<g id="edge15" class="edge"><title>nd132:n&#45;&gt;nd137:w</title>
<path fill="none" stroke="black" d="M508.6,-55C508.6,-63.3029 519.899,-55.0976 526.6,-60 547.592,-75.3577 532.59,-109 558.6,-109"/>
</g>
<!-- nd137&#45;&gt;nd138 -->
<g id="edge21" class="edge"><title>nd137:e&#45;&gt;nd138:w</title>
<path fill="none" stroke="black" d="M564.6,-109C573.968,-109 587.232,-187 596.6,-187"/>
</g>
</g>
</svg>
