<?xml version="1.0" encoding="UTF-8" standalone="no"?>
<!DOCTYPE svg PUBLIC "-//W3C//DTD SVG 1.1//EN"
 "http://www.w3.org/Graphics/SVG/1.1/DTD/svg11.dtd">
<!-- Generated by graphviz version 2.38.0 (20140413.2041)
 -->
<!-- Title: G Pages: 1 -->
<svg width="445pt" height="169pt"
 viewBox="0.00 0.00 445.20 169.00" xmlns="http://www.w3.org/2000/svg" xmlns:xlink="http://www.w3.org/1999/xlink">
<g id="graph0" class="graph" transform="scale(1 1) rotate(0) translate(4 165)">
<title>G</title>
<polygon fill="white" stroke="none" points="-4,4 -4,-165 441.2,-165 441.2,4 -4,4"/>
<g id="clust1" class="cluster"><title>cluster_nd162</title>
<polygon fill="none" stroke="orange" points="329.8,-96 329.8,-116 349.4,-116 349.4,-96 329.8,-96"/>
</g>
<!-- nd1 -->
<g id="node1" class="node"><title>nd1</title>
<ellipse fill="black" stroke="black" cx="1.8" cy="-118" rx="1.8" ry="1.8"/>
</g>
<!-- nd42 -->
<g id="node3" class="node"><title>nd42</title>
<g id="a_node3"><a xlink:title="nd42&#45;BinOpGraph">
<ellipse fill="none" stroke="#000000" cx="38.6" cy="-118" rx="18" ry="18"/>
<text text-anchor="middle" x="38.6" y="-114.3" font-family="Times,serif" font-size="14.00">::</text>
</a>
</g>
</g>
<!-- nd1&#45;&gt;nd42 -->
<g id="edge2" class="edge"><title>nd1:e&#45;&gt;nd42:w</title>
<path fill="none" stroke="#b70000" d="M3.6,-118C11.1556,-118 13.0444,-118 20.6,-118"/>
</g>
<!-- nd14 -->
<g id="node2" class="node"><title>nd14</title>
<g id="a_node2"><a xlink:title="nd14&#45;ConstGraph">
<path fill="none" stroke="#000000" d="M144.6,-161C144.6,-161 156.6,-161 156.6,-161 162.6,-161 168.6,-155 168.6,-149 168.6,-149 168.6,-137 168.6,-137 168.6,-131 162.6,-125 156.6,-125 156.6,-125 144.6,-125 144.6,-125 138.6,-125 132.6,-131 132.6,-137 132.6,-137 132.6,-149 132.6,-149 132.6,-155 138.6,-161 144.6,-161"/>
<text text-anchor="middle" x="150.6" y="-139.3" font-family="Times,serif" font-size="14.00">1000</text>
</a>
</g>
</g>
<!-- nd59 -->
<g id="node4" class="node"><title>nd59</title>
<g id="a_node4"><a xlink:title="nd59&#45;ContractGraph">
<ellipse fill="black" stroke="black" cx="91.6" cy="-142" rx="1.8" ry="1.8"/>
</a>
</g>
</g>
<!-- nd42&#45;&gt;nd59 -->
<g id="edge1" class="edge"><title>nd42:n&#45;&gt;nd59:w</title>
<path fill="none" stroke="black" d="M38.6,-137C38.6,-159.333 66.2669,-142 88.6,-142"/>
</g>
<!-- nd84 -->
<g id="node6" class="node"><title>nd84</title>
<g id="a_node6"><a xlink:title="nd84&#45;BinOpGraph">
<ellipse fill="none" stroke="#000000" cx="91.6" cy="-92" rx="18" ry="18"/>
<text text-anchor="middle" x="91.6" y="-88.3" font-family="Times,serif" font-size="14.00">::</text>
</a>
</g>
</g>
<!-- nd42&#45;&gt;nd84 -->
<g id="edge5" class="edge"><title>nd42:s&#45;&gt;nd84:w</title>
<path fill="none" stroke="#b70000" d="M38.6,-99C38.6,-83.1364 57.7364,-92 73.6,-92"/>
</g>
<!-- nd59&#45;&gt;nd14 -->
<g id="edge3" class="edge"><title>nd59:e&#45;&gt;nd14:w</title>
<path fill="none" stroke="black" d="M94.6,-142C111.495,-142 115.705,-143 132.6,-143"/>
<text text-anchor="middle" x="121.1" y="-146.8" font-family="Times,serif" font-size="14.00">x</text>
</g>
<!-- nd111 -->
<g id="node5" class="node"><title>nd111</title>
<g id="a_node5"><a xlink:title="nd111&#45;ConstGraph">
<path fill="none" stroke="#000000" d="M212.6,-133C212.6,-133 224.6,-133 224.6,-133 230.6,-133 236.6,-127 236.6,-121 236.6,-121 236.6,-109 236.6,-109 236.6,-103 230.6,-97 224.6,-97 224.6,-97 212.6,-97 212.6,-97 206.6,-97 200.6,-103 200.6,-109 200.6,-109 200.6,-121 200.6,-121 200.6,-127 206.6,-133 212.6,-133"/>
<text text-anchor="middle" x="218.6" y="-111.3" font-family="Times,serif" font-size="14.00">999</text>
</a>
</g>
</g>
<!-- nd92 -->
<g id="node7" class="node"><title>nd92</title>
<g id="a_node7"><a xlink:title="nd92&#45;ContractGraph">
<ellipse fill="black" stroke="black" cx="150.6" cy="-110" rx="1.8" ry="1.8"/>
</a>
</g>
</g>
<!-- nd84&#45;&gt;nd92 -->
<g id="edge4" class="edge"><title>nd84:n&#45;&gt;nd92:w</title>
<path fill="none" stroke="black" d="M91.6,-111C91.6,-135.893 122.707,-110 147.6,-110"/>
</g>
<!-- nd129 -->
<g id="node11" class="node"><title>nd129</title>
<g id="a_node11"><a xlink:title="nd129&#45;BinOpGraph">
<ellipse fill="none" stroke="#000000" cx="150.6" cy="-59" rx="18" ry="18"/>
<text text-anchor="middle" x="150.6" y="-55.3" font-family="Times,serif" font-size="14.00">a :: b</text>
</a>
</g>
</g>
<!-- nd84&#45;&gt;nd129 -->
<g id="edge13" class="edge"><title>nd84:s&#45;&gt;nd129:w</title>
<path fill="none" stroke="red" d="M91.6,-73C91.6,-57.0542 106.512,-57.9176 122.574,-58.6854"/>
<polygon fill="red" stroke="red" points="122.495,-62.1845 132.6,-59 122.715,-55.188 122.495,-62.1845"/>
</g>
<!-- nd92&#45;&gt;nd111 -->
<g id="edge6" class="edge"><title>nd92:e&#45;&gt;nd111:w</title>
<path fill="none" stroke="black" d="M153.6,-110C174.165,-110 179.035,-115 199.6,-115"/>
<text text-anchor="middle" x="180.1" y="-117.8" font-family="Times,serif" font-size="14.00">x</text>
</g>
<!-- nd156 -->
<g id="node8" class="node"><title>nd156</title>
<g id="a_node8"><a xlink:title="nd156&#45;ConstGraph">
<path fill="none" stroke="#000000" d="M413.2,-85C413.2,-85 425.2,-85 425.2,-85 431.2,-85 437.2,-79 437.2,-73 437.2,-73 437.2,-61 437.2,-61 437.2,-55 431.2,-49 425.2,-49 425.2,-49 413.2,-49 413.2,-49 407.2,-49 401.2,-55 401.2,-61 401.2,-61 401.2,-73 401.2,-73 401.2,-79 407.2,-85 413.2,-85"/>
<text text-anchor="middle" x="419.2" y="-63.3" font-family="Times,serif" font-size="14.00">998</text>
</a>
</g>
</g>
<!-- nd158 -->
<g id="node9" class="node"><title>nd158</title>
<g id="a_node9"><a xlink:title="nd158&#45;RecurGraph">
<ellipse fill="none" stroke="#000000" cx="286.6" cy="-108" rx="11" ry="11"/>
<text text-anchor="middle" x="286.6" y="-104.3" font-family="Times,serif" font-size="14.00">rec</text>
</a>
</g>
</g>
<!-- ndcluster_nd162 -->
<g id="node10" class="node"><title>ndcluster_nd162</title>
<g id="a_node10"><a xlink:title="nd162">
<ellipse fill="orange" stroke="orange" cx="339.6" cy="-106" rx="1.8" ry="1.8"/>
</a>
</g>
</g>
<!-- nd158&#45;&gt;ndcluster_nd162 -->
<g id="edge16" class="edge"><title>nd158:n&#45;&gt;ndcluster_nd162:n</title>
<path fill="none" stroke="black" d="M286.6,-120C286.6,-144.058 339.6,-133.058 339.6,-109"/>
</g>
<!-- nd158&#45;&gt;ndcluster_nd162 -->
<g id="edge17" class="edge"><title>nd158:s&#45;&gt;ndcluster_nd162:w</title>
<path fill="none" stroke="black" d="M286.6,-96C286.6,-91.091 292.753,-96.2241 297.6,-97 315.165,-99.8118 318.811,-106 336.6,-106"/>
</g>
<!-- nd130 -->
<g id="node12" class="node"><title>nd130</title>
<g id="a_node12"><a xlink:title="nd130&#45;AppGraph">
<path fill="none" stroke="#000000" d="M204.038,-51C204.038,-51 197.819,-45 197.819,-45 194.709,-42 194.709,-36 197.819,-33 197.819,-33 204.038,-27 204.038,-27 207.147,-24 214.577,-21.0024 218.898,-21.0048 218.898,-21.0048 231.802,-21.012 231.802,-21.012 236.123,-21.0144 240.443,-25.3375 240.443,-29.6582 240.443,-29.6582 240.443,-48.3418 240.443,-48.3418 240.443,-52.6625 236.123,-56.9856 231.802,-56.988 231.802,-56.988 218.898,-56.9952 218.898,-56.9952 214.577,-56.9976 207.147,-54 204.038,-51"/>
<text text-anchor="middle" x="218.6" y="-35.3" font-family="Times,serif" font-size="14.00">@</text>
</a>
</g>
</g>
<!-- nd129&#45;&gt;nd130 -->
<g id="edge10" class="edge"><title>nd129:s&#45;&gt;nd130:w</title>
<path fill="none" stroke="black" d="M150.6,-40C150.6,-21.7724 173.372,-39 191.6,-39"/>
<text text-anchor="middle" x="180.1" y="-42.8" font-family="Times,serif" font-size="14.00">b</text>
</g>
<!-- nd137 -->
<g id="node15" class="node"><title>nd137</title>
<g id="a_node15"><a xlink:title="nd137&#45;ContractGraph">
<ellipse fill="black" stroke="black" cx="339.6" cy="-67" rx="1.8" ry="1.8"/>
</a>
</g>
</g>
<!-- nd129&#45;&gt;nd137 -->
<g id="edge12" class="edge"><title>nd129:n&#45;&gt;nd137:w</title>
<path fill="none" stroke="black" d="M150.6,-78C150.6,-98.7028 315.897,-67 336.6,-67"/>
<text text-anchor="middle" x="257.1" y="-81.8" font-family="Times,serif" font-size="14.00">a</text>
</g>
<!-- nd130&#45;&gt;nd158 -->
<g id="edge8" class="edge"><title>nd130:n&#45;&gt;nd158:w</title>
<path fill="none" stroke="black" d="M218.6,-58C218.6,-76.7985 246.148,-50.9786 260.6,-63 276.703,-76.3945 253.654,-108 274.6,-108"/>
</g>
<!-- nd132 -->
<g id="node13" class="node"><title>nd132</title>
<g id="a_node13"><a xlink:title="nd132&#45;BinOpGraph">
<ellipse fill="none" stroke="#000000" cx="286.6" cy="-36" rx="18" ry="18"/>
<text text-anchor="middle" x="286.6" y="-32.3" font-family="Times,serif" font-size="14.00">&#45;</text>
</a>
</g>
</g>
<!-- nd130&#45;&gt;nd132 -->
<g id="edge9" class="edge"><title>nd130:s&#45;&gt;nd132:w</title>
<path fill="none" stroke="black" d="M218.6,-20C218.6,-7.99177 234.155,-17.3658 245.6,-21 257.232,-24.6934 256.396,-36 268.6,-36"/>
</g>
<!-- nd136 -->
<g id="node14" class="node"><title>nd136</title>
<g id="a_node14"><a xlink:title="nd136&#45;ConstGraph">
<path fill="none" stroke="#000000" d="M333.6,-36C333.6,-36 345.6,-36 345.6,-36 351.6,-36 357.6,-30 357.6,-24 357.6,-24 357.6,-12 357.6,-12 357.6,-6 351.6,-0 345.6,-0 345.6,-0 333.6,-0 333.6,-0 327.6,-0 321.6,-6 321.6,-12 321.6,-12 321.6,-24 321.6,-24 321.6,-30 327.6,-36 333.6,-36"/>
<text text-anchor="middle" x="339.6" y="-14.3" font-family="Times,serif" font-size="14.00">1</text>
</a>
</g>
</g>
<!-- nd132&#45;&gt;nd136 -->
<g id="edge7" class="edge"><title>nd132:s&#45;&gt;nd136:w</title>
<path fill="none" stroke="black" d="M286.6,-17C286.6,-1.4381 306.038,-18 321.6,-18"/>
</g>
<!-- nd132&#45;&gt;nd137 -->
<g id="edge11" class="edge"><title>nd132:n&#45;&gt;nd137:w</title>
<path fill="none" stroke="black" d="M286.6,-55C286.6,-66.4266 325.173,-67 336.6,-67"/>
</g>
<!-- nd138 -->
<g id="node16" class="node"><title>nd138</title>
<g id="a_node16"><a xlink:title="nd138&#45;ContractGraph">
<ellipse fill="black" stroke="black" cx="376.4" cy="-67" rx="1.8" ry="1.8"/>
</a>
</g>
</g>
<!-- nd137&#45;&gt;nd138 -->
<g id="edge14" class="edge"><title>nd137:e&#45;&gt;nd138:w</title>
<path fill="none" stroke="black" d="M342.6,-67C356.822,-67 360.378,-67 374.6,-67"/>
</g>
<!-- nd138&#45;&gt;nd156 -->
<g id="edge15" class="edge"><title>nd138:e&#45;&gt;nd156:w</title>
<path fill="none" stroke="black" d="M378.2,-67C388.422,-67 390.978,-67 401.2,-67"/>
<text text-anchor="middle" x="389.7" y="-70.8" font-family="Times,serif" font-size="14.00">x</text>
</g>
</g>
</svg>
