<?xml version="1.0" encoding="UTF-8" standalone="no"?>
<!DOCTYPE svg PUBLIC "-//W3C//DTD SVG 1.1//EN"
 "http://www.w3.org/Graphics/SVG/1.1/DTD/svg11.dtd">
<!-- Generated by graphviz version 2.38.0 (20140413.2041)
 -->
<!-- Title: G Pages: 1 -->
<svg width="396pt" height="173pt"
 viewBox="0.00 0.00 396.20 173.00" xmlns="http://www.w3.org/2000/svg" xmlns:xlink="http://www.w3.org/1999/xlink">
<g id="graph0" class="graph" transform="scale(1 1) rotate(0) translate(4 169)">
<title>G</title>
<polygon fill="white" stroke="none" points="-4,4 -4,-169 392.2,-169 392.2,4 -4,4"/>
<g id="clust1" class="cluster"><title>cluster_nd162</title>
<polygon fill="none" stroke="orange" points="276.8,-44 276.8,-64 296.4,-64 296.4,-44 276.8,-44"/>
</g>
<g id="clust2" class="cluster"><title>cluster_nd207</title>
<polygon fill="none" stroke="orange" points="360.6,-40 360.6,-60 380.2,-60 380.2,-40 360.6,-40"/>
</g>
<!-- nd1 -->
<g id="node1" class="node"><title>nd1</title>
<ellipse fill="black" stroke="black" cx="1.8" cy="-122" rx="1.8" ry="1.8"/>
</g>
<!-- nd42 -->
<g id="node3" class="node"><title>nd42</title>
<g id="a_node3"><a xlink:title="nd42&#45;BinOpGraph">
<ellipse fill="none" stroke="#000000" cx="38.6" cy="-122" rx="18" ry="18"/>
<text text-anchor="middle" x="38.6" y="-118.3" font-family="Times,serif" font-size="14.00">::</text>
</a>
</g>
</g>
<!-- nd1&#45;&gt;nd42 -->
<g id="edge2" class="edge"><title>nd1:e&#45;&gt;nd42:w</title>
<path fill="none" stroke="#b70000" d="M3.6,-122C11.1556,-122 13.0444,-122 20.6,-122"/>
</g>
<!-- nd14 -->
<g id="node2" class="node"><title>nd14</title>
<g id="a_node2"><a xlink:title="nd14&#45;ConstGraph">
<path fill="none" stroke="#000000" d="M144.6,-165C144.6,-165 156.6,-165 156.6,-165 162.6,-165 168.6,-159 168.6,-153 168.6,-153 168.6,-141 168.6,-141 168.6,-135 162.6,-129 156.6,-129 156.6,-129 144.6,-129 144.6,-129 138.6,-129 132.6,-135 132.6,-141 132.6,-141 132.6,-153 132.6,-153 132.6,-159 138.6,-165 144.6,-165"/>
<text text-anchor="middle" x="150.6" y="-143.3" font-family="Times,serif" font-size="14.00">1000</text>
</a>
</g>
</g>
<!-- nd59 -->
<g id="node4" class="node"><title>nd59</title>
<g id="a_node4"><a xlink:title="nd59&#45;ContractGraph">
<ellipse fill="black" stroke="black" cx="91.6" cy="-146" rx="1.8" ry="1.8"/>
</a>
</g>
</g>
<!-- nd42&#45;&gt;nd59 -->
<g id="edge1" class="edge"><title>nd42:n&#45;&gt;nd59:w</title>
<path fill="none" stroke="black" d="M38.6,-141C38.6,-163.333 66.2669,-146 88.6,-146"/>
</g>
<!-- nd84 -->
<g id="node6" class="node"><title>nd84</title>
<g id="a_node6"><a xlink:title="nd84&#45;BinOpGraph">
<ellipse fill="none" stroke="#000000" cx="91.6" cy="-96" rx="18" ry="18"/>
<text text-anchor="middle" x="91.6" y="-92.3" font-family="Times,serif" font-size="14.00">::</text>
</a>
</g>
</g>
<!-- nd42&#45;&gt;nd84 -->
<g id="edge5" class="edge"><title>nd42:s&#45;&gt;nd84:w</title>
<path fill="none" stroke="#b70000" d="M38.6,-103C38.6,-87.1364 57.7364,-96 73.6,-96"/>
</g>
<!-- nd59&#45;&gt;nd14 -->
<g id="edge3" class="edge"><title>nd59:e&#45;&gt;nd14:w</title>
<path fill="none" stroke="black" d="M94.6,-146C111.495,-146 115.705,-147 132.6,-147"/>
<text text-anchor="middle" x="121.1" y="-149.8" font-family="Times,serif" font-size="14.00">x</text>
</g>
<!-- nd111 -->
<g id="node5" class="node"><title>nd111</title>
<g id="a_node5"><a xlink:title="nd111&#45;ConstGraph">
<path fill="none" stroke="#000000" d="M212.6,-136C212.6,-136 224.6,-136 224.6,-136 230.6,-136 236.6,-130 236.6,-124 236.6,-124 236.6,-112 236.6,-112 236.6,-106 230.6,-100 224.6,-100 224.6,-100 212.6,-100 212.6,-100 206.6,-100 200.6,-106 200.6,-112 200.6,-112 200.6,-124 200.6,-124 200.6,-130 206.6,-136 212.6,-136"/>
<text text-anchor="middle" x="218.6" y="-114.3" font-family="Times,serif" font-size="14.00">999</text>
</a>
</g>
</g>
<!-- nd92 -->
<g id="node7" class="node"><title>nd92</title>
<g id="a_node7"><a xlink:title="nd92&#45;ContractGraph">
<ellipse fill="black" stroke="black" cx="150.6" cy="-114" rx="1.8" ry="1.8"/>
</a>
</g>
</g>
<!-- nd84&#45;&gt;nd92 -->
<g id="edge4" class="edge"><title>nd84:n&#45;&gt;nd92:w</title>
<path fill="none" stroke="black" d="M91.6,-115C91.6,-139.893 122.707,-114 147.6,-114"/>
</g>
<!-- nd129 -->
<g id="node9" class="node"><title>nd129</title>
<g id="a_node9"><a xlink:title="nd129&#45;BinOpGraph">
<ellipse fill="none" stroke="#000000" cx="150.6" cy="-67" rx="18" ry="18"/>
<text text-anchor="middle" x="150.6" y="-63.3" font-family="Times,serif" font-size="14.00">::</text>
</a>
</g>
</g>
<!-- nd84&#45;&gt;nd129 -->
<g id="edge11" class="edge"><title>nd84:s&#45;&gt;nd129:w</title>
<path fill="none" stroke="#b70000" d="M91.6,-77C91.6,-58.2436 113.844,-67 132.6,-67"/>
</g>
<!-- nd92&#45;&gt;nd111 -->
<g id="edge6" class="edge"><title>nd92:e&#45;&gt;nd111:w</title>
<path fill="none" stroke="black" d="M153.6,-114C174.122,-114 179.078,-118 199.6,-118"/>
<text text-anchor="middle" x="180.1" y="-120.8" font-family="Times,serif" font-size="14.00">x</text>
</g>
<!-- nd156 -->
<g id="node8" class="node"><title>nd156</title>
<g id="a_node8"><a xlink:title="nd156&#45;ConstGraph">
<path fill="none" stroke="#000000" d="M280.6,-108C280.6,-108 292.6,-108 292.6,-108 298.6,-108 304.6,-102 304.6,-96 304.6,-96 304.6,-84 304.6,-84 304.6,-78 298.6,-72 292.6,-72 292.6,-72 280.6,-72 280.6,-72 274.6,-72 268.6,-78 268.6,-84 268.6,-84 268.6,-96 268.6,-96 268.6,-102 274.6,-108 280.6,-108"/>
<text text-anchor="middle" x="286.6" y="-86.3" font-family="Times,serif" font-size="14.00">998</text>
</a>
</g>
</g>
<!-- nd130 -->
<g id="node10" class="node"><title>nd130</title>
<g id="a_node10"><a xlink:title="nd130&#45;AppGraph">
<path fill="none" stroke="#000000" d="M204.038,-48C204.038,-48 197.819,-42 197.819,-42 194.709,-39 194.709,-33 197.819,-30 197.819,-30 204.038,-24 204.038,-24 207.147,-21 214.577,-18.0024 218.898,-18.0048 218.898,-18.0048 231.802,-18.012 231.802,-18.012 236.123,-18.0144 240.443,-22.3375 240.443,-26.6582 240.443,-26.6582 240.443,-45.3418 240.443,-45.3418 240.443,-49.6625 236.123,-53.9856 231.802,-53.988 231.802,-53.988 218.898,-53.9952 218.898,-53.9952 214.577,-53.9976 207.147,-51 204.038,-48"/>
<text text-anchor="middle" x="218.6" y="-32.3" font-family="Times,serif" font-size="14.00">@</text>
</a>
</g>
</g>
<!-- nd129&#45;&gt;nd130 -->
<g id="edge9" class="edge"><title>nd129:s&#45;&gt;nd130:w</title>
<path fill="none" stroke="#b70000" d="M150.6,-48C150.6,-29.0133 172.613,-36 191.6,-36"/>
</g>
<!-- nd137 -->
<g id="node11" class="node"><title>nd137</title>
<g id="a_node11"><a xlink:title="nd137&#45;ContractGraph">
<ellipse fill="black" stroke="black" cx="218.6" cy="-85" rx="1.8" ry="1.8"/>
</a>
</g>
</g>
<!-- nd129&#45;&gt;nd137 -->
<g id="edge10" class="edge"><title>nd129:n&#45;&gt;nd137:w</title>
<path fill="none" stroke="black" d="M150.6,-86C150.6,-114.892 186.708,-85 215.6,-85"/>
</g>
<!-- nd201 -->
<g id="node12" class="node"><title>nd201</title>
<g id="a_node12"><a xlink:title="nd201&#45;ConstGraph">
<path fill="none" stroke="#000000" d="M280.6,-36C280.6,-36 292.6,-36 292.6,-36 298.6,-36 304.6,-30 304.6,-24 304.6,-24 304.6,-12 304.6,-12 304.6,-6 298.6,-0 292.6,-0 292.6,-0 280.6,-0 280.6,-0 274.6,-0 268.6,-6 268.6,-12 268.6,-12 268.6,-24 268.6,-24 268.6,-30 274.6,-36 280.6,-36"/>
<text text-anchor="middle" x="286.6" y="-14.3" font-family="Times,serif" font-size="14.00">997</text>
</a>
</g>
</g>
<!-- nd130&#45;&gt;nd201 -->
<g id="edge8" class="edge"><title>nd130:s&#45;&gt;nd201:w</title>
<path fill="none" stroke="black" d="M218.6,-17C218.6,5.22667 246.373,-18 268.6,-18"/>
</g>
<!-- ndcluster_nd162 -->
<g id="node13" class="node"><title>ndcluster_nd162</title>
<g id="a_node13"><a xlink:title="nd162">
<ellipse fill="orange" stroke="orange" cx="286.6" cy="-54" rx="1.8" ry="1.8"/>
</a>
</g>
</g>
<!-- nd130&#45;&gt;ndcluster_nd162 -->
<g id="edge7" class="edge"><title>nd130:n&#45;&gt;ndcluster_nd162:w</title>
<path fill="none" stroke="red" d="M218.6,-55C218.6,-80.6194 246.99,-60.0181 273.566,-55.0219"/>
<polygon fill="red" stroke="red" points="274.006,-58.4953 283.6,-54 273.297,-51.5313 274.006,-58.4953"/>
</g>
<!-- nd137&#45;&gt;nd156 -->
<g id="edge12" class="edge"><title>nd137:e&#45;&gt;nd156:w</title>
<path fill="none" stroke="black" d="M221.6,-85C242.607,-85 247.593,-90 268.6,-90"/>
<text text-anchor="middle" x="257.1" y="-93.8" font-family="Times,serif" font-size="14.00">x</text>
</g>
<!-- nd203 -->
<g id="node14" class="node"><title>nd203</title>
<g id="a_node14"><a xlink:title="nd203&#45;RecurGraph">
<ellipse fill="none" stroke="#000000" cx="332.6" cy="-56" rx="11" ry="11"/>
<text text-anchor="middle" x="332.6" y="-52.3" font-family="Times,serif" font-size="14.00">rec</text>
</a>
</g>
</g>
<!-- ndcluster_nd162&#45;&gt;nd203 -->
<g id="edge13" class="edge"><title>ndcluster_nd162:n&#45;&gt;nd203:w</title>
<path fill="none" stroke="black" d="M286.6,-57C286.6,-72.5619 306.038,-56 321.6,-56"/>
</g>
<!-- ndcluster_nd207 -->
<g id="node15" class="node"><title>ndcluster_nd207</title>
<g id="a_node15"><a xlink:title="nd207">
<ellipse fill="orange" stroke="orange" cx="370.4" cy="-50" rx="1.8" ry="1.8"/>
</a>
</g>
</g>
<!-- nd203&#45;&gt;ndcluster_nd207 -->
<g id="edge14" class="edge"><title>nd203:n&#45;&gt;ndcluster_nd207:n</title>
<path fill="none" stroke="black" d="M332.6,-68C332.6,-86.0744 370.4,-71.0744 370.4,-53"/>
</g>
<!-- nd203&#45;&gt;ndcluster_nd207 -->
<g id="edge15" class="edge"><title>nd203:s&#45;&gt;ndcluster_nd207:w</title>
<path fill="none" stroke="black" d="M332.6,-44C332.6,-39.091 338.745,-44.2719 343.6,-45 354.289,-46.6031 356.591,-50 367.4,-50"/>
</g>
</g>
</svg>
