<?xml version="1.0" encoding="UTF-8" standalone="no"?>
<!DOCTYPE svg PUBLIC "-//W3C//DTD SVG 1.1//EN"
 "http://www.w3.org/Graphics/SVG/1.1/DTD/svg11.dtd">
<!-- Generated by graphviz version 2.38.0 (20140413.2041)
 -->
<!-- Title: G Pages: 1 -->
<svg width="149pt" height="81pt"
 viewBox="0.00 0.00 149.20 81.00" xmlns="http://www.w3.org/2000/svg" xmlns:xlink="http://www.w3.org/1999/xlink">
<g id="graph0" class="graph" transform="scale(1 1) rotate(0) translate(4 77)">
<title>G</title>
<polygon fill="white" stroke="none" points="-4,4 -4,-77 145.2,-77 145.2,4 -4,4"/>
<g id="clust1" class="cluster"><title>cluster_nd4</title>
<polygon fill="none" stroke="orange" points="84.8,-45 84.8,-65 104.4,-65 104.4,-45 84.8,-45"/>
</g>
<g id="clust2" class="cluster"><title>cluster_nd24</title>
<polygon fill="none" stroke="orange" points="113.6,-8 113.6,-28 133.2,-28 133.2,-8 113.6,-8"/>
</g>
<!-- nd1 -->
<g id="node1" class="node"><title>nd1</title>
<ellipse fill="black" stroke="black" cx="1.8" cy="-37" rx="1.8" ry="1.8"/>
</g>
<!-- nd2 -->
<g id="node2" class="node"><title>nd2</title>
<g id="a_node2"><a xlink:title="nd2&#45;AppGraph">
<path fill="none" stroke="#000000" d="M29.0377,-49C29.0377,-49 22.8188,-43 22.8188,-43 19.7094,-40 19.7094,-34 22.8188,-31 22.8188,-31 29.0377,-25 29.0377,-25 32.1471,-22 39.5772,-19.0024 43.898,-19.0048 43.898,-19.0048 56.802,-19.012 56.802,-19.012 61.1228,-19.0144 65.4435,-23.3375 65.4435,-27.6582 65.4435,-27.6582 65.4435,-46.3418 65.4435,-46.3418 65.4435,-50.6625 61.1228,-54.9856 56.802,-54.988 56.802,-54.988 43.898,-54.9952 43.898,-54.9952 39.5772,-54.9976 32.1471,-52 29.0377,-49"/>
<text text-anchor="middle" x="43.6" y="-33.3" font-family="Times,serif" font-size="14.00">@</text>
</a>
</g>
</g>
<!-- nd1&#45;&gt;nd2 -->
<g id="edge5" class="edge"><title>nd1:e&#45;&gt;nd2:w</title>
<path fill="none" stroke="#b70000" d="M3.6,-37C9.37778,-37 10.8222,-37 16.6,-37"/>
</g>
<!-- ndcluster_nd4 -->
<g id="node3" class="node"><title>ndcluster_nd4</title>
<g id="a_node3"><a xlink:title="nd4">
<ellipse fill="orange" stroke="orange" cx="94.6" cy="-55" rx="1.8" ry="1.8"/>
</a>
</g>
</g>
<!-- nd2&#45;&gt;ndcluster_nd4 -->
<g id="edge3" class="edge"><title>nd2:n&#45;&gt;ndcluster_nd4:w</title>
<path fill="none" stroke="black" d="M43.6,-56C43.6,-77.338 70.262,-55 91.6,-55"/>
</g>
<!-- nd22 -->
<g id="node5" class="node"><title>nd22</title>
<g id="a_node5"><a xlink:title="nd22&#45;RecurGraph">
<ellipse fill="none" stroke="#000000" cx="94.6" cy="-19" rx="11" ry="11"/>
<text text-anchor="middle" x="94.6" y="-15.3" font-family="Times,serif" font-size="14.00">rec</text>
</a>
</g>
</g>
<!-- nd2&#45;&gt;nd22 -->
<g id="edge4" class="edge"><title>nd2:s&#45;&gt;nd22:w</title>
<path fill="none" stroke="#b70000" d="M43.6,-18C43.6,-0.216668 65.8167,-19 83.6,-19"/>
</g>
<!-- ndcluster_nd24 -->
<g id="node4" class="node"><title>ndcluster_nd24</title>
<g id="a_node4"><a xlink:title="nd24">
<ellipse fill="orange" stroke="orange" cx="123.4" cy="-18" rx="1.8" ry="1.8"/>
</a>
</g>
</g>
<!-- nd22&#45;&gt;ndcluster_nd24 -->
<g id="edge1" class="edge"><title>nd22:n&#45;&gt;ndcluster_nd24:n</title>
<path fill="none" stroke="black" d="M94.6,-31C94.6,-44.5497 123.4,-34.5497 123.4,-21"/>
</g>
<!-- nd22&#45;&gt;ndcluster_nd24 -->
<g id="edge2" class="edge"><title>nd22:s&#45;&gt;ndcluster_nd24:w</title>
<path fill="none" stroke="red" d="M94.6,-7C94.6,-2.09095 100.976,-6.35162 105.6,-8 108.638,-9.08291 110.34,-10.9363 111.822,-12.7555"/>
<polygon fill="red" stroke="red" points="110.043,-15.7698 120.4,-18 113.694,-9.79755 110.043,-15.7698"/>
</g>
</g>
</svg>
