<?xml version="1.0" encoding="UTF-8" standalone="no"?>
<!DOCTYPE svg PUBLIC "-//W3C//DTD SVG 1.1//EN"
 "http://www.w3.org/Graphics/SVG/1.1/DTD/svg11.dtd">
<!-- Generated by graphviz version 2.38.0 (20140413.2041)
 -->
<!-- Title: G Pages: 1 -->
<svg width="372pt" height="226pt"
 viewBox="0.00 0.00 371.60 226.00" xmlns="http://www.w3.org/2000/svg" xmlns:xlink="http://www.w3.org/1999/xlink">
<g id="graph0" class="graph" transform="scale(1 1) rotate(0) translate(4 222)">
<title>G</title>
<polygon fill="white" stroke="none" points="-4,4 -4,-222 367.6,-222 367.6,4 -4,4"/>
<g id="clust1" class="cluster"><title>cluster_nd162</title>
<polygon fill="none" stroke="orange" points="335.8,-97 335.8,-117 355.4,-117 355.4,-97 335.8,-97"/>
</g>
<!-- nd1 -->
<g id="node1" class="node"><title>nd1</title>
<ellipse fill="black" stroke="black" cx="1.8" cy="-175" rx="1.8" ry="1.8"/>
</g>
<!-- nd42 -->
<g id="node3" class="node"><title>nd42</title>
<g id="a_node3"><a xlink:title="nd42&#45;BinOpGraph">
<ellipse fill="none" stroke="#000000" cx="38.6" cy="-175" rx="18" ry="18"/>
<text text-anchor="middle" x="38.6" y="-171.3" font-family="Times,serif" font-size="14.00">::</text>
</a>
</g>
</g>
<!-- nd1&#45;&gt;nd42 -->
<g id="edge2" class="edge"><title>nd1:e&#45;&gt;nd42:w</title>
<path fill="none" stroke="#b70000" d="M3.6,-175C11.1556,-175 13.0444,-175 20.6,-175"/>
</g>
<!-- nd14 -->
<g id="node2" class="node"><title>nd14</title>
<g id="a_node2"><a xlink:title="nd14&#45;ConstGraph">
<path fill="none" stroke="#000000" d="M144.6,-218C144.6,-218 156.6,-218 156.6,-218 162.6,-218 168.6,-212 168.6,-206 168.6,-206 168.6,-194 168.6,-194 168.6,-188 162.6,-182 156.6,-182 156.6,-182 144.6,-182 144.6,-182 138.6,-182 132.6,-188 132.6,-194 132.6,-194 132.6,-206 132.6,-206 132.6,-212 138.6,-218 144.6,-218"/>
<text text-anchor="middle" x="150.6" y="-196.3" font-family="Times,serif" font-size="14.00">1000</text>
</a>
</g>
</g>
<!-- nd59 -->
<g id="node4" class="node"><title>nd59</title>
<g id="a_node4"><a xlink:title="nd59&#45;ContractGraph">
<ellipse fill="black" stroke="black" cx="91.6" cy="-199" rx="1.8" ry="1.8"/>
</a>
</g>
</g>
<!-- nd42&#45;&gt;nd59 -->
<g id="edge1" class="edge"><title>nd42:n&#45;&gt;nd59:w</title>
<path fill="none" stroke="black" d="M38.6,-194C38.6,-216.333 66.2669,-199 88.6,-199"/>
</g>
<!-- nd84 -->
<g id="node6" class="node"><title>nd84</title>
<g id="a_node6"><a xlink:title="nd84&#45;BinOpGraph">
<ellipse fill="none" stroke="#000000" cx="91.6" cy="-149" rx="18" ry="18"/>
<text text-anchor="middle" x="91.6" y="-145.3" font-family="Times,serif" font-size="14.00">::</text>
</a>
</g>
</g>
<!-- nd42&#45;&gt;nd84 -->
<g id="edge5" class="edge"><title>nd42:s&#45;&gt;nd84:w</title>
<path fill="none" stroke="#b70000" d="M38.6,-156C38.6,-140.136 57.7364,-149 73.6,-149"/>
</g>
<!-- nd59&#45;&gt;nd14 -->
<g id="edge3" class="edge"><title>nd59:e&#45;&gt;nd14:w</title>
<path fill="none" stroke="black" d="M94.6,-199C111.495,-199 115.705,-200 132.6,-200"/>
<text text-anchor="middle" x="121.1" y="-202.8" font-family="Times,serif" font-size="14.00">x</text>
</g>
<!-- nd111 -->
<g id="node5" class="node"><title>nd111</title>
<g id="a_node5"><a xlink:title="nd111&#45;ConstGraph">
<path fill="none" stroke="#000000" d="M212.6,-189C212.6,-189 224.6,-189 224.6,-189 230.6,-189 236.6,-183 236.6,-177 236.6,-177 236.6,-165 236.6,-165 236.6,-159 230.6,-153 224.6,-153 224.6,-153 212.6,-153 212.6,-153 206.6,-153 200.6,-159 200.6,-165 200.6,-165 200.6,-177 200.6,-177 200.6,-183 206.6,-189 212.6,-189"/>
<text text-anchor="middle" x="218.6" y="-167.3" font-family="Times,serif" font-size="14.00">999</text>
</a>
</g>
</g>
<!-- nd92 -->
<g id="node7" class="node"><title>nd92</title>
<g id="a_node7"><a xlink:title="nd92&#45;ContractGraph">
<ellipse fill="black" stroke="black" cx="150.6" cy="-167" rx="1.8" ry="1.8"/>
</a>
</g>
</g>
<!-- nd84&#45;&gt;nd92 -->
<g id="edge4" class="edge"><title>nd84:n&#45;&gt;nd92:w</title>
<path fill="none" stroke="black" d="M91.6,-168C91.6,-192.893 122.707,-167 147.6,-167"/>
</g>
<!-- nd129 -->
<g id="node11" class="node"><title>nd129</title>
<g id="a_node11"><a xlink:title="nd129&#45;BinOpGraph">
<ellipse fill="none" stroke="#000000" cx="150.6" cy="-120" rx="18" ry="18"/>
<text text-anchor="middle" x="150.6" y="-116.3" font-family="Times,serif" font-size="14.00">::</text>
</a>
</g>
</g>
<!-- nd84&#45;&gt;nd129 -->
<g id="edge13" class="edge"><title>nd84:s&#45;&gt;nd129:w</title>
<path fill="none" stroke="#b70000" d="M91.6,-130C91.6,-111.244 113.844,-120 132.6,-120"/>
</g>
<!-- nd92&#45;&gt;nd111 -->
<g id="edge6" class="edge"><title>nd92:e&#45;&gt;nd111:w</title>
<path fill="none" stroke="black" d="M153.6,-167C174.122,-167 179.078,-171 199.6,-171"/>
<text text-anchor="middle" x="180.1" y="-172.8" font-family="Times,serif" font-size="14.00">x</text>
</g>
<!-- nd156 -->
<g id="node8" class="node"><title>nd156</title>
<g id="a_node8"><a xlink:title="nd156&#45;ConstGraph">
<path fill="none" stroke="#000000" d="M280.6,-162C280.6,-162 292.6,-162 292.6,-162 298.6,-162 304.6,-156 304.6,-150 304.6,-150 304.6,-138 304.6,-138 304.6,-132 298.6,-126 292.6,-126 292.6,-126 280.6,-126 280.6,-126 274.6,-126 268.6,-132 268.6,-138 268.6,-138 268.6,-150 268.6,-150 268.6,-156 274.6,-162 280.6,-162"/>
<text text-anchor="middle" x="286.6" y="-140.3" font-family="Times,serif" font-size="14.00">998</text>
</a>
</g>
</g>
<!-- nd158 -->
<g id="node9" class="node"><title>nd158</title>
<g id="a_node9"><a xlink:title="nd158&#45;RecurGraph">
<ellipse fill="none" stroke="#000000" cx="286.6" cy="-102" rx="11" ry="11"/>
<text text-anchor="middle" x="286.6" y="-98.3" font-family="Times,serif" font-size="14.00">rec</text>
</a>
</g>
</g>
<!-- ndcluster_nd162 -->
<g id="node10" class="node"><title>ndcluster_nd162</title>
<g id="a_node10"><a xlink:title="nd162">
<ellipse fill="orange" stroke="orange" cx="345.6" cy="-107" rx="1.8" ry="1.8"/>
</a>
</g>
</g>
<!-- nd158&#45;&gt;ndcluster_nd162 -->
<g id="edge15" class="edge"><title>nd158:n&#45;&gt;ndcluster_nd162:n</title>
<path fill="none" stroke="black" d="M286.6,-114C286.6,-120.571 345.6,-116.571 345.6,-110"/>
</g>
<!-- nd158&#45;&gt;ndcluster_nd162 -->
<g id="edge16" class="edge"><title>nd158:s&#45;&gt;ndcluster_nd162:w</title>
<path fill="none" stroke="black" d="M286.6,-90C286.6,-85.091 292.805,-89.9472 297.6,-91 318.333,-95.5522 321.373,-107 342.6,-107"/>
</g>
<!-- nd130 -->
<g id="node12" class="node"><title>nd130</title>
<g id="a_node12"><a xlink:title="nd130&#45;AppGraph">
<path fill="none" stroke="#000000" d="M204.038,-96C204.038,-96 197.819,-90 197.819,-90 194.709,-87 194.709,-81 197.819,-78 197.819,-78 204.038,-72 204.038,-72 207.147,-69 214.577,-66.0024 218.898,-66.0048 218.898,-66.0048 231.802,-66.012 231.802,-66.012 236.123,-66.0144 240.443,-70.3375 240.443,-74.6582 240.443,-74.6582 240.443,-93.3418 240.443,-93.3418 240.443,-97.6625 236.123,-101.986 231.802,-101.988 231.802,-101.988 218.898,-101.995 218.898,-101.995 214.577,-101.998 207.147,-99 204.038,-96"/>
<text text-anchor="middle" x="218.6" y="-80.3" font-family="Times,serif" font-size="14.00">@</text>
</a>
</g>
</g>
<!-- nd129&#45;&gt;nd130 -->
<g id="edge10" class="edge"><title>nd129:s&#45;&gt;nd130:w</title>
<path fill="none" stroke="#b70000" d="M150.6,-101C150.6,-81.2735 171.873,-84 191.6,-84"/>
</g>
<!-- nd137 -->
<g id="node15" class="node"><title>nd137</title>
<g id="a_node15"><a xlink:title="nd137&#45;ContractGraph">
<ellipse fill="black" stroke="black" cx="218.6" cy="-138" rx="1.8" ry="1.8"/>
</a>
</g>
</g>
<!-- nd129&#45;&gt;nd137 -->
<g id="edge12" class="edge"><title>nd129:n&#45;&gt;nd137:w</title>
<path fill="none" stroke="black" d="M150.6,-139C150.6,-167.892 186.708,-138 215.6,-138"/>
</g>
<!-- nd130&#45;&gt;nd158 -->
<g id="edge8" class="edge"><title>nd130:n&#45;&gt;nd158:w</title>
<path fill="none" stroke="black" d="M218.6,-103C218.6,-127.893 249.707,-102 274.6,-102"/>
</g>
<!-- nd132 -->
<g id="node13" class="node"><title>nd132</title>
<g id="a_node13"><a xlink:title="nd132&#45;BinOpGraph">
<ellipse fill="none" stroke="#000000" cx="286.6" cy="-49" rx="18" ry="18"/>
<text text-anchor="middle" x="286.6" y="-45.3" font-family="Times,serif" font-size="14.00">&#45;</text>
</a>
</g>
</g>
<!-- nd130&#45;&gt;nd132 -->
<g id="edge9" class="edge"><title>nd130:s&#45;&gt;nd132:w</title>
<path fill="none" stroke="#b70000" d="M218.6,-65C218.6,-41.6677 245.268,-49 268.6,-49"/>
</g>
<!-- nd136 -->
<g id="node14" class="node"><title>nd136</title>
<g id="a_node14"><a xlink:title="nd136&#45;ConstGraph">
<path fill="none" stroke="#000000" d="M339.6,-36C339.6,-36 351.6,-36 351.6,-36 357.6,-36 363.6,-30 363.6,-24 363.6,-24 363.6,-12 363.6,-12 363.6,-6 357.6,-0 351.6,-0 351.6,-0 339.6,-0 339.6,-0 333.6,-0 327.6,-6 327.6,-12 327.6,-12 327.6,-24 327.6,-24 327.6,-30 333.6,-36 339.6,-36"/>
<text text-anchor="middle" x="345.6" y="-14.3" font-family="Times,serif" font-size="14.00">1</text>
</a>
</g>
</g>
<!-- nd132&#45;&gt;nd136 -->
<g id="edge7" class="edge"><title>nd132:s&#45;&gt;nd136:w</title>
<path fill="none" stroke="black" d="M286.6,-30C286.6,-11.0133 308.613,-18 327.6,-18"/>
</g>
<!-- nd197 -->
<g id="node16" class="node"><title>nd197</title>
<g id="a_node16"><a xlink:title="nd197&#45;ConstGraph">
<path fill="none" stroke="#000000" d="M339.6,-85C339.6,-85 351.6,-85 351.6,-85 357.6,-85 363.6,-79 363.6,-73 363.6,-73 363.6,-61 363.6,-61 363.6,-55 357.6,-49 351.6,-49 351.6,-49 339.6,-49 339.6,-49 333.6,-49 327.6,-55 327.6,-61 327.6,-61 327.6,-73 327.6,-73 327.6,-79 333.6,-85 339.6,-85"/>
<text text-anchor="middle" x="345.6" y="-63.3" font-family="Times,serif" font-size="14.00">998</text>
</a>
</g>
</g>
<!-- nd132&#45;&gt;nd197 -->
<g id="edge11" class="edge"><title>nd132:n&#45;&gt;nd197:w</title>
<path fill="none" stroke="red" d="M286.6,-68C286.6,-82.9524 301.924,-72.7006 317.492,-68.5336"/>
<polygon fill="red" stroke="red" points="318.238,-71.9606 327.6,-67 317.188,-65.0398 318.238,-71.9606"/>
<text text-anchor="middle" x="316.1" y="-73.8" font-family="Times,serif" font-size="14.00">x</text>
</g>
<!-- nd137&#45;&gt;nd156 -->
<g id="edge14" class="edge"><title>nd137:e&#45;&gt;nd156:w</title>
<path fill="none" stroke="black" d="M221.6,-138C242.658,-138 247.542,-144 268.6,-144"/>
<text text-anchor="middle" x="257.1" y="-146.8" font-family="Times,serif" font-size="14.00">x</text>
</g>
</g>
</svg>
