<?xml version="1.0" encoding="UTF-8" standalone="no"?>
<!DOCTYPE svg PUBLIC "-//W3C//DTD SVG 1.1//EN"
 "http://www.w3.org/Graphics/SVG/1.1/DTD/svg11.dtd">
<!-- Generated by graphviz version 2.38.0 (20140413.2041)
 -->
<!-- Title: G Pages: 1 -->
<svg width="268pt" height="128pt"
 viewBox="0.00 0.00 268.20 128.00" xmlns="http://www.w3.org/2000/svg" xmlns:xlink="http://www.w3.org/1999/xlink">
<g id="graph0" class="graph" transform="scale(1 1) rotate(0) translate(4 124)">
<title>G</title>
<polygon fill="white" stroke="none" points="-4,4 -4,-124 264.2,-124 264.2,4 -4,4"/>
<g id="clust1" class="cluster"><title>cluster_nd72</title>
<polygon fill="none" stroke="orange" points="232.6,-48 232.6,-68 252.2,-68 252.2,-48 232.6,-48"/>
</g>
<!-- nd1 -->
<g id="node1" class="node"><title>nd1</title>
<ellipse fill="black" stroke="black" cx="1.8" cy="-73" rx="1.8" ry="1.8"/>
</g>
<!-- nd42 -->
<g id="node5" class="node"><title>nd42</title>
<g id="a_node5"><a xlink:title="nd42&#45;BinOpGraph">
<ellipse fill="none" stroke="#000000" cx="38.6" cy="-73" rx="18" ry="18"/>
<text text-anchor="middle" x="38.6" y="-69.3" font-family="Times,serif" font-size="14.00">::</text>
</a>
</g>
</g>
<!-- nd1&#45;&gt;nd42 -->
<g id="edge5" class="edge"><title>nd1:e&#45;&gt;nd42:w</title>
<path fill="none" stroke="#b70000" d="M3.6,-73C11.1556,-73 13.0444,-73 20.6,-73"/>
</g>
<!-- nd68 -->
<g id="node2" class="node"><title>nd68</title>
<g id="a_node2"><a xlink:title="nd68&#45;RecurGraph">
<ellipse fill="none" stroke="#000000" cx="168.6" cy="-60" rx="11" ry="11"/>
<text text-anchor="middle" x="168.6" y="-56.3" font-family="Times,serif" font-size="14.00">rec</text>
</a>
</g>
</g>
<!-- ndcluster_nd72 -->
<g id="node3" class="node"><title>ndcluster_nd72</title>
<g id="a_node3"><a xlink:title="nd72">
<ellipse fill="orange" stroke="orange" cx="242.4" cy="-58" rx="1.8" ry="1.8"/>
</a>
</g>
</g>
<!-- nd68&#45;&gt;ndcluster_nd72 -->
<g id="edge7" class="edge"><title>nd68:n&#45;&gt;ndcluster_nd72:n</title>
<path fill="none" stroke="black" d="M168.6,-72C168.6,-80.2906 242.4,-69.2906 242.4,-61"/>
<text text-anchor="middle" x="209.6" y="-77.8" font-family="Times,serif" font-size="14.00">refλ</text>
</g>
<!-- nd68&#45;&gt;ndcluster_nd72 -->
<g id="edge8" class="edge"><title>nd68:s&#45;&gt;ndcluster_nd72:w</title>
<path fill="none" stroke="black" d="M168.6,-48C168.6,-35.5377 212.518,-47.9451 224.6,-51 231.654,-52.7837 232.124,-58 239.4,-58"/>
<text text-anchor="middle" x="209.6" y="-55.8" font-family="Times,serif" font-size="14.00">evalλ</text>
</g>
<!-- nd14 -->
<g id="node4" class="node"><title>nd14</title>
<g id="a_node4"><a xlink:title="nd14&#45;ConstGraph">
<path fill="none" stroke="#000000" d="M162.6,-120C162.6,-120 174.6,-120 174.6,-120 180.6,-120 186.6,-114 186.6,-108 186.6,-108 186.6,-96 186.6,-96 186.6,-90 180.6,-84 174.6,-84 174.6,-84 162.6,-84 162.6,-84 156.6,-84 150.6,-90 150.6,-96 150.6,-96 150.6,-108 150.6,-108 150.6,-114 156.6,-120 162.6,-120"/>
<text text-anchor="middle" x="168.6" y="-98.3" font-family="Times,serif" font-size="14.00">1000</text>
</a>
</g>
</g>
<!-- nd45 -->
<g id="node6" class="node"><title>nd45</title>
<g id="a_node6"><a xlink:title="nd45&#45;AppGraph">
<path fill="none" stroke="#000000" d="M86.0377,-54C86.0377,-54 79.8188,-48 79.8188,-48 76.7094,-45 76.7094,-39 79.8188,-36 79.8188,-36 86.0377,-30 86.0377,-30 89.1471,-27 96.5772,-24.0024 100.898,-24.0048 100.898,-24.0048 113.802,-24.012 113.802,-24.012 118.123,-24.0144 122.443,-28.3375 122.443,-32.6582 122.443,-32.6582 122.443,-51.3418 122.443,-51.3418 122.443,-55.6625 118.123,-59.9856 113.802,-59.988 113.802,-59.988 100.898,-59.9952 100.898,-59.9952 96.5772,-59.9976 89.1471,-57 86.0377,-54"/>
<text text-anchor="middle" x="100.6" y="-38.3" font-family="Times,serif" font-size="14.00">@</text>
</a>
</g>
</g>
<!-- nd42&#45;&gt;nd45 -->
<g id="edge3" class="edge"><title>nd42:s&#45;&gt;nd45:w</title>
<path fill="none" stroke="#b70000" d="M38.6,-54C38.6,-37.5556 57.1556,-42 73.6,-42"/>
</g>
<!-- nd59 -->
<g id="node7" class="node"><title>nd59</title>
<g id="a_node7"><a xlink:title="nd59&#45;ContractGraph">
<ellipse fill="black" stroke="black" cx="100.6" cy="-100" rx="1.8" ry="1.8"/>
</a>
</g>
</g>
<!-- nd42&#45;&gt;nd59 -->
<g id="edge4" class="edge"><title>nd42:n&#45;&gt;nd59:w</title>
<path fill="none" stroke="black" d="M38.6,-92C38.6,-118.462 71.1378,-100 97.6,-100"/>
</g>
<!-- nd45&#45;&gt;nd68 -->
<g id="edge1" class="edge"><title>nd45:n&#45;&gt;nd68:w</title>
<path fill="none" stroke="red" d="M100.6,-61C100.6,-82.5868 123.993,-65.982 146.44,-61.1905"/>
<polygon fill="red" stroke="red" points="147.075,-64.6402 156.6,-60 146.261,-57.6877 147.075,-64.6402"/>
</g>
<!-- nd111 -->
<g id="node8" class="node"><title>nd111</title>
<g id="a_node8"><a xlink:title="nd111&#45;ConstGraph">
<path fill="none" stroke="#000000" d="M162.6,-36C162.6,-36 174.6,-36 174.6,-36 180.6,-36 186.6,-30 186.6,-24 186.6,-24 186.6,-12 186.6,-12 186.6,-6 180.6,-0 174.6,-0 174.6,-0 162.6,-0 162.6,-0 156.6,-0 150.6,-6 150.6,-12 150.6,-12 150.6,-24 150.6,-24 150.6,-30 156.6,-36 162.6,-36"/>
<text text-anchor="middle" x="168.6" y="-14.3" font-family="Times,serif" font-size="14.00">999</text>
</a>
</g>
</g>
<!-- nd45&#45;&gt;nd111 -->
<g id="edge2" class="edge"><title>nd45:s&#45;&gt;nd111:w</title>
<path fill="none" stroke="black" d="M100.6,-23C100.6,-0.666943 128.267,-18 150.6,-18"/>
</g>
<!-- nd59&#45;&gt;nd14 -->
<g id="edge6" class="edge"><title>nd59:e&#45;&gt;nd14:w</title>
<path fill="none" stroke="black" d="M103.6,-100C124.508,-100 129.692,-102 150.6,-102"/>
<text text-anchor="middle" x="139.1" y="-104.8" font-family="Times,serif" font-size="14.00">x</text>
</g>
</g>
</svg>
