<?xml version="1.0" encoding="UTF-8" standalone="no"?>
<!DOCTYPE svg PUBLIC "-//W3C//DTD SVG 1.1//EN"
 "http://www.w3.org/Graphics/SVG/1.1/DTD/svg11.dtd">
<!-- Generated by graphviz version 2.38.0 (20140413.2041)
 -->
<!-- Title: G Pages: 1 -->
<svg width="278pt" height="116pt"
 viewBox="0.00 0.00 278.20 116.00" xmlns="http://www.w3.org/2000/svg" xmlns:xlink="http://www.w3.org/1999/xlink">
<g id="graph0" class="graph" transform="scale(1 1) rotate(0) translate(4 112)">
<title>G</title>
<polygon fill="white" stroke="none" points="-4,4 -4,-112 274.2,-112 274.2,4 -4,4"/>
<g id="clust1" class="cluster"><title>cluster_nd72</title>
<polygon fill="none" stroke="orange" points="158.8,-44 158.8,-64 178.4,-64 178.4,-44 158.8,-44"/>
</g>
<g id="clust2" class="cluster"><title>cluster_nd117</title>
<polygon fill="none" stroke="orange" points="242.6,-40 242.6,-60 262.2,-60 262.2,-40 242.6,-40"/>
</g>
<!-- nd1 -->
<g id="node1" class="node"><title>nd1</title>
<ellipse fill="black" stroke="black" cx="1.8" cy="-64" rx="1.8" ry="1.8"/>
</g>
<!-- nd42 -->
<g id="node3" class="node"><title>nd42</title>
<g id="a_node3"><a xlink:title="nd42&#45;BinOpGraph">
<ellipse fill="none" stroke="#000000" cx="38.6" cy="-64" rx="18" ry="18"/>
<text text-anchor="middle" x="38.6" y="-60.3" font-family="Times,serif" font-size="14.00">::</text>
</a>
</g>
</g>
<!-- nd1&#45;&gt;nd42 -->
<g id="edge5" class="edge"><title>nd1:e&#45;&gt;nd42:w</title>
<path fill="none" stroke="#b70000" d="M3.6,-64C11.1556,-64 13.0444,-64 20.6,-64"/>
</g>
<!-- nd14 -->
<g id="node2" class="node"><title>nd14</title>
<g id="a_node2"><a xlink:title="nd14&#45;ConstGraph">
<path fill="none" stroke="#000000" d="M162.6,-108C162.6,-108 174.6,-108 174.6,-108 180.6,-108 186.6,-102 186.6,-96 186.6,-96 186.6,-84 186.6,-84 186.6,-78 180.6,-72 174.6,-72 174.6,-72 162.6,-72 162.6,-72 156.6,-72 150.6,-78 150.6,-84 150.6,-84 150.6,-96 150.6,-96 150.6,-102 156.6,-108 162.6,-108"/>
<text text-anchor="middle" x="168.6" y="-86.3" font-family="Times,serif" font-size="14.00">1000</text>
</a>
</g>
</g>
<!-- nd45 -->
<g id="node4" class="node"><title>nd45</title>
<g id="a_node4"><a xlink:title="nd45&#45;AppGraph">
<path fill="none" stroke="#000000" d="M86.0377,-48C86.0377,-48 79.8188,-42 79.8188,-42 76.7094,-39 76.7094,-33 79.8188,-30 79.8188,-30 86.0377,-24 86.0377,-24 89.1471,-21 96.5772,-18.0024 100.898,-18.0048 100.898,-18.0048 113.802,-18.012 113.802,-18.012 118.123,-18.0144 122.443,-22.3375 122.443,-26.6582 122.443,-26.6582 122.443,-45.3418 122.443,-45.3418 122.443,-49.6625 118.123,-53.9856 113.802,-53.988 113.802,-53.988 100.898,-53.9952 100.898,-53.9952 96.5772,-53.9976 89.1471,-51 86.0377,-48"/>
<text text-anchor="middle" x="100.6" y="-32.3" font-family="Times,serif" font-size="14.00">@</text>
</a>
</g>
</g>
<!-- nd42&#45;&gt;nd45 -->
<g id="edge3" class="edge"><title>nd42:s&#45;&gt;nd45:w</title>
<path fill="none" stroke="#b70000" d="M38.6,-45C38.6,-28.9384 57.5384,-36 73.6,-36"/>
</g>
<!-- nd59 -->
<g id="node5" class="node"><title>nd59</title>
<g id="a_node5"><a xlink:title="nd59&#45;ContractGraph">
<ellipse fill="black" stroke="black" cx="100.6" cy="-88" rx="1.8" ry="1.8"/>
</a>
</g>
</g>
<!-- nd42&#45;&gt;nd59 -->
<g id="edge4" class="edge"><title>nd42:n&#45;&gt;nd59:w</title>
<path fill="none" stroke="black" d="M38.6,-83C38.6,-109.316 71.2838,-88 97.6,-88"/>
</g>
<!-- nd111 -->
<g id="node6" class="node"><title>nd111</title>
<g id="a_node6"><a xlink:title="nd111&#45;ConstGraph">
<path fill="none" stroke="#000000" d="M162.6,-36C162.6,-36 174.6,-36 174.6,-36 180.6,-36 186.6,-30 186.6,-24 186.6,-24 186.6,-12 186.6,-12 186.6,-6 180.6,-0 174.6,-0 174.6,-0 162.6,-0 162.6,-0 156.6,-0 150.6,-6 150.6,-12 150.6,-12 150.6,-24 150.6,-24 150.6,-30 156.6,-36 162.6,-36"/>
<text text-anchor="middle" x="168.6" y="-14.3" font-family="Times,serif" font-size="14.00">999</text>
</a>
</g>
</g>
<!-- nd45&#45;&gt;nd111 -->
<g id="edge2" class="edge"><title>nd45:s&#45;&gt;nd111:w</title>
<path fill="none" stroke="black" d="M100.6,-17C100.6,5.22667 128.373,-18 150.6,-18"/>
</g>
<!-- ndcluster_nd72 -->
<g id="node7" class="node"><title>ndcluster_nd72</title>
<g id="a_node7"><a xlink:title="nd72">
<ellipse fill="orange" stroke="orange" cx="168.6" cy="-54" rx="1.8" ry="1.8"/>
</a>
</g>
</g>
<!-- nd45&#45;&gt;ndcluster_nd72 -->
<g id="edge1" class="edge"><title>nd45:n&#45;&gt;ndcluster_nd72:w</title>
<path fill="none" stroke="red" d="M100.6,-55C100.6,-80.6194 128.99,-60.0181 155.566,-55.0219"/>
<polygon fill="red" stroke="red" points="156.006,-58.4953 165.6,-54 155.297,-51.5313 156.006,-58.4953"/>
</g>
<!-- nd59&#45;&gt;nd14 -->
<g id="edge6" class="edge"><title>nd59:e&#45;&gt;nd14:w</title>
<path fill="none" stroke="black" d="M103.6,-88C124.508,-88 129.692,-90 150.6,-90"/>
<text text-anchor="middle" x="139.1" y="-92.8" font-family="Times,serif" font-size="14.00">x</text>
</g>
<!-- nd113 -->
<g id="node8" class="node"><title>nd113</title>
<g id="a_node8"><a xlink:title="nd113&#45;RecurGraph">
<ellipse fill="none" stroke="#000000" cx="214.6" cy="-56" rx="11" ry="11"/>
<text text-anchor="middle" x="214.6" y="-52.3" font-family="Times,serif" font-size="14.00">rec</text>
</a>
</g>
</g>
<!-- ndcluster_nd72&#45;&gt;nd113 -->
<g id="edge7" class="edge"><title>ndcluster_nd72:n&#45;&gt;nd113:w</title>
<path fill="none" stroke="black" d="M168.6,-57C168.6,-72.5619 188.038,-56 203.6,-56"/>
</g>
<!-- ndcluster_nd117 -->
<g id="node9" class="node"><title>ndcluster_nd117</title>
<g id="a_node9"><a xlink:title="nd117">
<ellipse fill="orange" stroke="orange" cx="252.4" cy="-50" rx="1.8" ry="1.8"/>
</a>
</g>
</g>
<!-- nd113&#45;&gt;ndcluster_nd117 -->
<g id="edge8" class="edge"><title>nd113:n&#45;&gt;ndcluster_nd117:n</title>
<path fill="none" stroke="black" d="M214.6,-68C214.6,-86.0744 252.4,-71.0744 252.4,-53"/>
</g>
<!-- nd113&#45;&gt;ndcluster_nd117 -->
<g id="edge9" class="edge"><title>nd113:s&#45;&gt;ndcluster_nd117:w</title>
<path fill="none" stroke="black" d="M214.6,-44C214.6,-39.091 220.745,-44.2719 225.6,-45 236.289,-46.6031 238.591,-50 249.4,-50"/>
</g>
</g>
</svg>
