<?xml version="1.0" encoding="UTF-8" standalone="no"?>
<!DOCTYPE svg PUBLIC "-//W3C//DTD SVG 1.1//EN"
 "http://www.w3.org/Graphics/SVG/1.1/DTD/svg11.dtd">
<!-- Generated by graphviz version 2.38.0 (20140413.2041)
 -->
<!-- Title: G Pages: 1 -->
<svg width="478pt" height="237pt"
 viewBox="0.00 0.00 478.20 237.00" xmlns="http://www.w3.org/2000/svg" xmlns:xlink="http://www.w3.org/1999/xlink">
<g id="graph0" class="graph" transform="scale(1 1) rotate(0) translate(4 233)">
<title>G</title>
<polygon fill="white" stroke="none" points="-4,4 -4,-233 474.2,-233 474.2,4 -4,4"/>
<g id="clust1" class="cluster"><title>cluster_nd117</title>
<polygon fill="none" stroke="orange" points="362.8,-102 362.8,-122 382.4,-122 382.4,-102 362.8,-102"/>
</g>
<!-- nd1 -->
<g id="node1" class="node"><title>nd1</title>
<ellipse fill="black" stroke="black" cx="1.8" cy="-168" rx="1.8" ry="1.8"/>
</g>
<!-- nd42 -->
<g id="node3" class="node"><title>nd42</title>
<g id="a_node3"><a xlink:title="nd42&#45;BinOpGraph">
<ellipse fill="none" stroke="#000000" cx="38.6" cy="-168" rx="18" ry="18"/>
<text text-anchor="middle" x="38.6" y="-164.3" font-family="Times,serif" font-size="14.00">::</text>
</a>
</g>
</g>
<!-- nd1&#45;&gt;nd42 -->
<g id="edge2" class="edge"><title>nd1:e&#45;&gt;nd42:w</title>
<path fill="none" stroke="#b70000" d="M3.6,-168C11.1556,-168 13.0444,-168 20.6,-168"/>
</g>
<!-- nd14 -->
<g id="node2" class="node"><title>nd14</title>
<g id="a_node2"><a xlink:title="nd14&#45;ConstGraph">
<path fill="none" stroke="#000000" d="M189.6,-229C189.6,-229 201.6,-229 201.6,-229 207.6,-229 213.6,-223 213.6,-217 213.6,-217 213.6,-205 213.6,-205 213.6,-199 207.6,-193 201.6,-193 201.6,-193 189.6,-193 189.6,-193 183.6,-193 177.6,-199 177.6,-205 177.6,-205 177.6,-217 177.6,-217 177.6,-223 183.6,-229 189.6,-229"/>
<text text-anchor="middle" x="195.6" y="-207.3" font-family="Times,serif" font-size="14.00">1000</text>
</a>
</g>
</g>
<!-- nd59 -->
<g id="node4" class="node"><title>nd59</title>
<g id="a_node4"><a xlink:title="nd59&#45;ContractGraph">
<ellipse fill="black" stroke="black" cx="91.6" cy="-209" rx="1.8" ry="1.8"/>
</a>
</g>
</g>
<!-- nd42&#45;&gt;nd59 -->
<g id="edge1" class="edge"><title>nd42:n&#45;&gt;nd59:w</title>
<path fill="none" stroke="black" d="M38.6,-187C38.6,-211.278 64.3218,-209 88.6,-209"/>
</g>
<!-- nd74 -->
<g id="node8" class="node"><title>nd74</title>
<g id="a_node8"><a xlink:title="nd74&#45;IfGraph">
<ellipse fill="none" stroke="#000000" cx="91.6" cy="-115" rx="18" ry="18"/>
<text text-anchor="middle" x="91.6" y="-111.3" font-family="Times,serif" font-size="14.00">if</text>
</a>
</g>
</g>
<!-- nd42&#45;&gt;nd74 -->
<g id="edge14" class="edge"><title>nd42:s&#45;&gt;nd74:w</title>
<path fill="none" stroke="#b70000" d="M38.6,-149C38.6,-127.313 51.9131,-115 73.6,-115"/>
</g>
<!-- nd59&#45;&gt;nd14 -->
<g id="edge3" class="edge"><title>nd59:e&#45;&gt;nd14:w</title>
<path fill="none" stroke="black" d="M94.6,-209C131.5,-209 140.7,-211 177.6,-211"/>
<text text-anchor="middle" x="143.6" y="-214.8" font-family="Times,serif" font-size="14.00">x</text>
</g>
<!-- nd111 -->
<g id="node5" class="node"><title>nd111</title>
<g id="a_node5"><a xlink:title="nd111&#45;ConstGraph">
<path fill="none" stroke="#000000" d="M446.2,-91C446.2,-91 458.2,-91 458.2,-91 464.2,-91 470.2,-85 470.2,-79 470.2,-79 470.2,-67 470.2,-67 470.2,-61 464.2,-55 458.2,-55 458.2,-55 446.2,-55 446.2,-55 440.2,-55 434.2,-61 434.2,-67 434.2,-67 434.2,-79 434.2,-79 434.2,-85 440.2,-91 446.2,-91"/>
<text text-anchor="middle" x="452.2" y="-69.3" font-family="Times,serif" font-size="14.00">999</text>
</a>
</g>
</g>
<!-- nd113 -->
<g id="node6" class="node"><title>nd113</title>
<g id="a_node6"><a xlink:title="nd113&#45;RecurGraph">
<ellipse fill="none" stroke="#000000" cx="319.6" cy="-114" rx="11" ry="11"/>
<text text-anchor="middle" x="319.6" y="-110.3" font-family="Times,serif" font-size="14.00">rec</text>
</a>
</g>
</g>
<!-- ndcluster_nd117 -->
<g id="node7" class="node"><title>ndcluster_nd117</title>
<g id="a_node7"><a xlink:title="nd117">
<ellipse fill="orange" stroke="orange" cx="372.6" cy="-112" rx="1.8" ry="1.8"/>
</a>
</g>
</g>
<!-- nd113&#45;&gt;ndcluster_nd117 -->
<g id="edge16" class="edge"><title>nd113:n&#45;&gt;ndcluster_nd117:n</title>
<path fill="none" stroke="black" d="M319.6,-126C319.6,-150.058 372.6,-139.058 372.6,-115"/>
</g>
<!-- nd113&#45;&gt;ndcluster_nd117 -->
<g id="edge17" class="edge"><title>nd113:s&#45;&gt;ndcluster_nd117:w</title>
<path fill="none" stroke="black" d="M319.6,-102C319.6,-97.091 325.753,-102.224 330.6,-103 348.165,-105.812 351.811,-112 369.6,-112"/>
</g>
<!-- nd83 -->
<g id="node9" class="node"><title>nd83</title>
<g id="a_node9"><a xlink:title="nd83&#45;ConstListGraph">
<path fill="none" stroke="#000000" d="M189.6,-131C189.6,-131 201.6,-131 201.6,-131 207.6,-131 213.6,-125 213.6,-119 213.6,-119 213.6,-107 213.6,-107 213.6,-101 207.6,-95 201.6,-95 201.6,-95 189.6,-95 189.6,-95 183.6,-95 177.6,-101 177.6,-107 177.6,-107 177.6,-119 177.6,-119 177.6,-125 183.6,-131 189.6,-131"/>
<text text-anchor="middle" x="195.6" y="-109.3" font-family="Times,serif" font-size="14.00">[]</text>
</a>
</g>
</g>
<!-- nd74&#45;&gt;nd83 -->
<g id="edge11" class="edge"><title>nd74:e&#45;&gt;nd83:w</title>
<path fill="none" stroke="grey" d="M109.6,-115C139.835,-115 147.365,-113 177.6,-113"/>
<text text-anchor="middle" x="143.6" y="-118.8" font-family="Times,serif" font-size="14.00">is true</text>
</g>
<!-- nd84 -->
<g id="node10" class="node"><title>nd84</title>
<g id="a_node10"><a xlink:title="nd84&#45;BinOpGraph">
<ellipse fill="none" stroke="#000000" cx="195.6" cy="-64" rx="18" ry="18"/>
<text text-anchor="middle" x="195.6" y="-60.3" font-family="Times,serif" font-size="14.00">::</text>
</a>
</g>
</g>
<!-- nd74&#45;&gt;nd84 -->
<g id="edge12" class="edge"><title>nd74:s&#45;&gt;nd84:w</title>
<path fill="none" stroke="grey" d="M91.6,-96C91.6,-55.2175 136.818,-64 177.6,-64"/>
<text text-anchor="middle" x="143.6" y="-68.8" font-family="Times,serif" font-size="14.00">is false</text>
</g>
<!-- nd147 -->
<g id="node16" class="node"><title>nd147</title>
<g id="a_node16"><a xlink:title="nd147&#45;ConstGraph">
<path fill="none" stroke="#000000" d="M189.6,-180C189.6,-180 201.6,-180 201.6,-180 207.6,-180 213.6,-174 213.6,-168 213.6,-168 213.6,-156 213.6,-156 213.6,-150 207.6,-144 201.6,-144 201.6,-144 189.6,-144 189.6,-144 183.6,-144 177.6,-150 177.6,-156 177.6,-156 177.6,-168 177.6,-168 177.6,-174 183.6,-180 189.6,-180"/>
<text text-anchor="middle" x="195.6" y="-158.3" font-family="Times,serif" font-size="14.00">false</text>
</a>
</g>
</g>
<!-- nd74&#45;&gt;nd147 -->
<g id="edge10" class="edge"><title>nd74:n&#45;&gt;nd147:w</title>
<path fill="none" stroke="red" d="M92.7653,-143.977C100.139,-172.017 141.171,-162 177.6,-162"/>
<polygon fill="red" stroke="red" points="96.2366,-143.526 91.6,-134 89.2838,-144.339 96.2366,-143.526"/>
<text text-anchor="middle" x="143.6" y="-167.8" font-family="Times,serif" font-size="14.00">condition</text>
</g>
<!-- nd85 -->
<g id="node11" class="node"><title>nd85</title>
<g id="a_node11"><a xlink:title="nd85&#45;AppGraph">
<path fill="none" stroke="#000000" d="M243.038,-57C243.038,-57 236.819,-51 236.819,-51 233.709,-48 233.709,-42 236.819,-39 236.819,-39 243.038,-33 243.038,-33 246.147,-30 253.577,-27.0024 257.898,-27.0048 257.898,-27.0048 270.802,-27.012 270.802,-27.012 275.123,-27.0144 279.443,-31.3375 279.443,-35.6582 279.443,-35.6582 279.443,-54.3418 279.443,-54.3418 279.443,-58.6625 275.123,-62.9856 270.802,-62.988 270.802,-62.988 257.898,-62.9952 257.898,-62.9952 253.577,-62.9976 246.147,-60 243.038,-57"/>
<text text-anchor="middle" x="257.6" y="-41.3" font-family="Times,serif" font-size="14.00">@</text>
</a>
</g>
</g>
<!-- nd84&#45;&gt;nd85 -->
<g id="edge7" class="edge"><title>nd84:s&#45;&gt;nd85:w</title>
<path fill="none" stroke="black" d="M195.6,-45C195.6,-29.4444 215.044,-45 230.6,-45"/>
</g>
<!-- nd92 -->
<g id="node14" class="node"><title>nd92</title>
<g id="a_node14"><a xlink:title="nd92&#45;ContractGraph">
<ellipse fill="black" stroke="black" cx="372.6" cy="-73" rx="1.8" ry="1.8"/>
</a>
</g>
</g>
<!-- nd84&#45;&gt;nd92 -->
<g id="edge9" class="edge"><title>nd84:n&#45;&gt;nd92:w</title>
<path fill="none" stroke="black" d="M195.6,-83C195.6,-92.6826 359.917,-73 369.6,-73"/>
</g>
<!-- nd85&#45;&gt;nd113 -->
<g id="edge5" class="edge"><title>nd85:n&#45;&gt;nd113:w</title>
<path fill="none" stroke="black" d="M257.6,-64C257.6,-95.427 276.173,-114 307.6,-114"/>
</g>
<!-- nd87 -->
<g id="node12" class="node"><title>nd87</title>
<g id="a_node12"><a xlink:title="nd87&#45;BinOpGraph">
<ellipse fill="none" stroke="#000000" cx="319.6" cy="-36" rx="18" ry="18"/>
<text text-anchor="middle" x="319.6" y="-32.3" font-family="Times,serif" font-size="14.00">&#45;</text>
</a>
</g>
</g>
<!-- nd85&#45;&gt;nd87 -->
<g id="edge6" class="edge"><title>nd85:s&#45;&gt;nd87:w</title>
<path fill="none" stroke="black" d="M257.6,-26C257.6,-13.9918 273.001,-23.8902 284.6,-27 292.857,-29.214 293.051,-36 301.6,-36"/>
</g>
<!-- nd91 -->
<g id="node13" class="node"><title>nd91</title>
<g id="a_node13"><a xlink:title="nd91&#45;ConstGraph">
<path fill="none" stroke="#000000" d="M366.6,-36C366.6,-36 378.6,-36 378.6,-36 384.6,-36 390.6,-30 390.6,-24 390.6,-24 390.6,-12 390.6,-12 390.6,-6 384.6,-0 378.6,-0 378.6,-0 366.6,-0 366.6,-0 360.6,-0 354.6,-6 354.6,-12 354.6,-12 354.6,-24 354.6,-24 354.6,-30 360.6,-36 366.6,-36"/>
<text text-anchor="middle" x="372.6" y="-14.3" font-family="Times,serif" font-size="14.00">1</text>
</a>
</g>
</g>
<!-- nd87&#45;&gt;nd91 -->
<g id="edge4" class="edge"><title>nd87:s&#45;&gt;nd91:w</title>
<path fill="none" stroke="black" d="M319.6,-17C319.6,-1.4381 339.038,-18 354.6,-18"/>
</g>
<!-- nd87&#45;&gt;nd92 -->
<g id="edge8" class="edge"><title>nd87:n&#45;&gt;nd92:w</title>
<path fill="none" stroke="black" d="M319.6,-55C319.6,-66.8092 357.791,-73 369.6,-73"/>
</g>
<!-- nd93 -->
<g id="node15" class="node"><title>nd93</title>
<g id="a_node15"><a xlink:title="nd93&#45;ContractGraph">
<ellipse fill="black" stroke="black" cx="409.4" cy="-73" rx="1.8" ry="1.8"/>
</a>
</g>
</g>
<!-- nd92&#45;&gt;nd93 -->
<g id="edge13" class="edge"><title>nd92:e&#45;&gt;nd93:w</title>
<path fill="none" stroke="black" d="M375.6,-73C389.822,-73 393.378,-73 407.6,-73"/>
</g>
<!-- nd93&#45;&gt;nd111 -->
<g id="edge15" class="edge"><title>nd93:e&#45;&gt;nd111:w</title>
<path fill="none" stroke="black" d="M411.2,-73C421.422,-73 423.978,-73 434.2,-73"/>
<text text-anchor="middle" x="422.7" y="-76.8" font-family="Times,serif" font-size="14.00">x</text>
</g>
</g>
</svg>
