<?xml version="1.0" encoding="UTF-8" standalone="no"?>
<!DOCTYPE svg PUBLIC "-//W3C//DTD SVG 1.1//EN"
 "http://www.w3.org/Graphics/SVG/1.1/DTD/svg11.dtd">
<!-- Generated by graphviz version 2.38.0 (20140413.2041)
 -->
<!-- Title: G Pages: 1 -->
<svg width="246pt" height="89pt"
 viewBox="0.00 0.00 246.20 89.00" xmlns="http://www.w3.org/2000/svg" xmlns:xlink="http://www.w3.org/1999/xlink">
<g id="graph0" class="graph" transform="scale(1 1) rotate(0) translate(4 85)">
<title>G</title>
<polygon fill="white" stroke="none" points="-4,4 -4,-85 242.2,-85 242.2,4 -4,4"/>
<g id="clust1" class="cluster"><title>cluster_nd24</title>
<polygon fill="none" stroke="orange" points="126.8,-44 126.8,-64 146.4,-64 146.4,-44 126.8,-44"/>
</g>
<g id="clust2" class="cluster"><title>cluster_nd72</title>
<polygon fill="none" stroke="orange" points="210.6,-40 210.6,-60 230.2,-60 230.2,-40 210.6,-40"/>
</g>
<!-- nd1 -->
<g id="node1" class="node"><title>nd1</title>
<ellipse fill="black" stroke="black" cx="1.8" cy="-36" rx="1.8" ry="1.8"/>
</g>
<!-- nd7 -->
<g id="node5" class="node"><title>nd7</title>
<g id="a_node5"><a xlink:title="nd7&#45;AppGraph">
<path fill="none" stroke="#000000" d="M33.0377,-48C33.0377,-48 26.8188,-42 26.8188,-42 23.7094,-39 23.7094,-33 26.8188,-30 26.8188,-30 33.0377,-24 33.0377,-24 36.1471,-21 43.5772,-18.0024 47.898,-18.0048 47.898,-18.0048 60.802,-18.012 60.802,-18.012 65.1228,-18.0144 69.4435,-22.3375 69.4435,-26.6582 69.4435,-26.6582 69.4435,-45.3418 69.4435,-45.3418 69.4435,-49.6625 65.1228,-53.9856 60.802,-53.988 60.802,-53.988 47.898,-53.9952 47.898,-53.9952 43.5772,-53.9976 36.1471,-51 33.0377,-48"/>
<text text-anchor="middle" x="47.6" y="-32.3" font-family="Times,serif" font-size="14.00">@</text>
</a>
</g>
</g>
<!-- nd1&#45;&gt;nd7 -->
<g id="edge3" class="edge"><title>nd1:e&#45;&gt;nd7:w</title>
<path fill="none" stroke="#b70000" d="M3.6,-36C11.1556,-36 13.0444,-36 20.6,-36"/>
</g>
<!-- ndcluster_nd24 -->
<g id="node2" class="node"><title>ndcluster_nd24</title>
<g id="a_node2"><a xlink:title="nd24">
<ellipse fill="orange" stroke="orange" cx="136.6" cy="-54" rx="1.8" ry="1.8"/>
</a>
</g>
</g>
<!-- nd68 -->
<g id="node3" class="node"><title>nd68</title>
<g id="a_node3"><a xlink:title="nd68&#45;RecurGraph">
<ellipse fill="none" stroke="#000000" cx="182.6" cy="-56" rx="11" ry="11"/>
<text text-anchor="middle" x="182.6" y="-52.3" font-family="Times,serif" font-size="14.00">rec</text>
</a>
</g>
</g>
<!-- ndcluster_nd24&#45;&gt;nd68 -->
<g id="edge4" class="edge"><title>ndcluster_nd24:n&#45;&gt;nd68:w</title>
<path fill="none" stroke="black" d="M136.6,-57C136.6,-72.5619 156.038,-56 171.6,-56"/>
</g>
<!-- ndcluster_nd72 -->
<g id="node4" class="node"><title>ndcluster_nd72</title>
<g id="a_node4"><a xlink:title="nd72">
<ellipse fill="orange" stroke="orange" cx="220.4" cy="-50" rx="1.8" ry="1.8"/>
</a>
</g>
</g>
<!-- nd68&#45;&gt;ndcluster_nd72 -->
<g id="edge5" class="edge"><title>nd68:n&#45;&gt;ndcluster_nd72:n</title>
<path fill="none" stroke="black" d="M182.6,-68C182.6,-86.0744 220.4,-71.0744 220.4,-53"/>
</g>
<!-- nd68&#45;&gt;ndcluster_nd72 -->
<g id="edge6" class="edge"><title>nd68:s&#45;&gt;ndcluster_nd72:w</title>
<path fill="none" stroke="black" d="M182.6,-44C182.6,-39.091 188.745,-44.2719 193.6,-45 204.289,-46.6031 206.591,-50 217.4,-50"/>
</g>
<!-- nd7&#45;&gt;ndcluster_nd24 -->
<g id="edge1" class="edge"><title>nd7:n&#45;&gt;ndcluster_nd24:w</title>
<path fill="none" stroke="black" d="M47.6,-55C47.6,-93.2248 95.3752,-54 133.6,-54"/>
<text text-anchor="middle" x="96.6" y="-69.8" font-family="Times,serif" font-size="14.00">build</text>
</g>
<!-- nd14 -->
<g id="node6" class="node"><title>nd14</title>
<g id="a_node6"><a xlink:title="nd14&#45;ConstGraph">
<path fill="none" stroke="#000000" d="M130.6,-36C130.6,-36 142.6,-36 142.6,-36 148.6,-36 154.6,-30 154.6,-24 154.6,-24 154.6,-12 154.6,-12 154.6,-6 148.6,-0 142.6,-0 142.6,-0 130.6,-0 130.6,-0 124.6,-0 118.6,-6 118.6,-12 118.6,-12 118.6,-24 118.6,-24 118.6,-30 124.6,-36 130.6,-36"/>
<text text-anchor="middle" x="136.6" y="-14.3" font-family="Times,serif" font-size="14.00">1000</text>
</a>
</g>
</g>
<!-- nd7&#45;&gt;nd14 -->
<g id="edge2" class="edge"><title>nd7:s&#45;&gt;nd14:w</title>
<path fill="none" stroke="red" d="M47.6,-17C47.6,11.2302 79.1604,-11.8454 108.407,-17.0269"/>
<polygon fill="red" stroke="red" points="108.313,-20.5337 118.6,-18 108.978,-13.5654 108.313,-20.5337"/>
</g>
</g>
</svg>
