<?xml version="1.0" encoding="UTF-8" standalone="no"?>
<!DOCTYPE svg PUBLIC "-//W3C//DTD SVG 1.1//EN"
 "http://www.w3.org/Graphics/SVG/1.1/DTD/svg11.dtd">
<!-- Generated by graphviz version 2.38.0 (20140413.2041)
 -->
<!-- Title: G Pages: 1 -->
<svg width="445pt" height="179pt"
 viewBox="0.00 0.00 445.20 179.00" xmlns="http://www.w3.org/2000/svg" xmlns:xlink="http://www.w3.org/1999/xlink">
<g id="graph0" class="graph" transform="scale(1 1) rotate(0) translate(4 175)">
<title>G</title>
<polygon fill="white" stroke="none" points="-4,4 -4,-175 441.2,-175 441.2,4 -4,4"/>
<g id="clust1" class="cluster"><title>cluster_nd162</title>
<polygon fill="none" stroke="orange" points="329.8,-108 329.8,-128 349.4,-128 349.4,-108 329.8,-108"/>
</g>
<!-- nd1 -->
<g id="node1" class="node"><title>nd1</title>
<ellipse fill="black" stroke="black" cx="1.8" cy="-128" rx="1.8" ry="1.8"/>
</g>
<!-- nd42 -->
<g id="node3" class="node"><title>nd42</title>
<g id="a_node3"><a xlink:title="nd42&#45;BinOpGraph">
<ellipse fill="none" stroke="#000000" cx="38.6" cy="-128" rx="18" ry="18"/>
<text text-anchor="middle" x="38.6" y="-124.3" font-family="Times,serif" font-size="14.00">::</text>
</a>
</g>
</g>
<!-- nd1&#45;&gt;nd42 -->
<g id="edge2" class="edge"><title>nd1:e&#45;&gt;nd42:w</title>
<path fill="none" stroke="#b70000" d="M3.6,-128C11.1556,-128 13.0444,-128 20.6,-128"/>
</g>
<!-- nd14 -->
<g id="node2" class="node"><title>nd14</title>
<g id="a_node2"><a xlink:title="nd14&#45;ConstGraph">
<path fill="none" stroke="#000000" d="M144.6,-171C144.6,-171 156.6,-171 156.6,-171 162.6,-171 168.6,-165 168.6,-159 168.6,-159 168.6,-147 168.6,-147 168.6,-141 162.6,-135 156.6,-135 156.6,-135 144.6,-135 144.6,-135 138.6,-135 132.6,-141 132.6,-147 132.6,-147 132.6,-159 132.6,-159 132.6,-165 138.6,-171 144.6,-171"/>
<text text-anchor="middle" x="150.6" y="-149.3" font-family="Times,serif" font-size="14.00">1000</text>
</a>
</g>
</g>
<!-- nd59 -->
<g id="node4" class="node"><title>nd59</title>
<g id="a_node4"><a xlink:title="nd59&#45;ContractGraph">
<ellipse fill="black" stroke="black" cx="91.6" cy="-152" rx="1.8" ry="1.8"/>
</a>
</g>
</g>
<!-- nd42&#45;&gt;nd59 -->
<g id="edge1" class="edge"><title>nd42:n&#45;&gt;nd59:w</title>
<path fill="none" stroke="black" d="M38.6,-147C38.6,-169.333 66.2669,-152 88.6,-152"/>
</g>
<!-- nd84 -->
<g id="node6" class="node"><title>nd84</title>
<g id="a_node6"><a xlink:title="nd84&#45;BinOpGraph">
<ellipse fill="none" stroke="#000000" cx="91.6" cy="-102" rx="18" ry="18"/>
<text text-anchor="middle" x="91.6" y="-98.3" font-family="Times,serif" font-size="14.00">::</text>
</a>
</g>
</g>
<!-- nd42&#45;&gt;nd84 -->
<g id="edge5" class="edge"><title>nd42:s&#45;&gt;nd84:w</title>
<path fill="none" stroke="#b70000" d="M38.6,-109C38.6,-93.1364 57.7364,-102 73.6,-102"/>
</g>
<!-- nd59&#45;&gt;nd14 -->
<g id="edge3" class="edge"><title>nd59:e&#45;&gt;nd14:w</title>
<path fill="none" stroke="black" d="M94.6,-152C111.495,-152 115.705,-153 132.6,-153"/>
<text text-anchor="middle" x="121.1" y="-156.8" font-family="Times,serif" font-size="14.00">x</text>
</g>
<!-- nd111 -->
<g id="node5" class="node"><title>nd111</title>
<g id="a_node5"><a xlink:title="nd111&#45;ConstGraph">
<path fill="none" stroke="#000000" d="M212.6,-143C212.6,-143 224.6,-143 224.6,-143 230.6,-143 236.6,-137 236.6,-131 236.6,-131 236.6,-119 236.6,-119 236.6,-113 230.6,-107 224.6,-107 224.6,-107 212.6,-107 212.6,-107 206.6,-107 200.6,-113 200.6,-119 200.6,-119 200.6,-131 200.6,-131 200.6,-137 206.6,-143 212.6,-143"/>
<text text-anchor="middle" x="218.6" y="-121.3" font-family="Times,serif" font-size="14.00">999</text>
</a>
</g>
</g>
<!-- nd92 -->
<g id="node7" class="node"><title>nd92</title>
<g id="a_node7"><a xlink:title="nd92&#45;ContractGraph">
<ellipse fill="black" stroke="black" cx="150.6" cy="-120" rx="1.8" ry="1.8"/>
</a>
</g>
</g>
<!-- nd84&#45;&gt;nd92 -->
<g id="edge4" class="edge"><title>nd84:n&#45;&gt;nd92:w</title>
<path fill="none" stroke="black" d="M91.6,-121C91.6,-145.893 122.707,-120 147.6,-120"/>
</g>
<!-- nd129 -->
<g id="node11" class="node"><title>nd129</title>
<g id="a_node11"><a xlink:title="nd129&#45;BinOpGraph">
<ellipse fill="none" stroke="#000000" cx="150.6" cy="-69" rx="18" ry="18"/>
<text text-anchor="middle" x="150.6" y="-65.3" font-family="Times,serif" font-size="14.00">::</text>
</a>
</g>
</g>
<!-- nd84&#45;&gt;nd129 -->
<g id="edge13" class="edge"><title>nd84:s&#45;&gt;nd129:w</title>
<path fill="none" stroke="#b70000" d="M91.6,-83C91.6,-63.7447 113.345,-69 132.6,-69"/>
</g>
<!-- nd92&#45;&gt;nd111 -->
<g id="edge6" class="edge"><title>nd92:e&#45;&gt;nd111:w</title>
<path fill="none" stroke="black" d="M153.6,-120C174.165,-120 179.035,-125 199.6,-125"/>
<text text-anchor="middle" x="180.1" y="-127.8" font-family="Times,serif" font-size="14.00">x</text>
</g>
<!-- nd156 -->
<g id="node8" class="node"><title>nd156</title>
<g id="a_node8"><a xlink:title="nd156&#45;ConstGraph">
<path fill="none" stroke="#000000" d="M413.2,-86C413.2,-86 425.2,-86 425.2,-86 431.2,-86 437.2,-80 437.2,-74 437.2,-74 437.2,-62 437.2,-62 437.2,-56 431.2,-50 425.2,-50 425.2,-50 413.2,-50 413.2,-50 407.2,-50 401.2,-56 401.2,-62 401.2,-62 401.2,-74 401.2,-74 401.2,-80 407.2,-86 413.2,-86"/>
<text text-anchor="middle" x="419.2" y="-64.3" font-family="Times,serif" font-size="14.00">998</text>
</a>
</g>
</g>
<!-- nd158 -->
<g id="node9" class="node"><title>nd158</title>
<g id="a_node9"><a xlink:title="nd158&#45;RecurGraph">
<ellipse fill="none" stroke="#000000" cx="280.6" cy="-118" rx="11" ry="11"/>
<text text-anchor="middle" x="280.6" y="-114.3" font-family="Times,serif" font-size="14.00">rec</text>
</a>
</g>
</g>
<!-- ndcluster_nd162 -->
<g id="node10" class="node"><title>ndcluster_nd162</title>
<g id="a_node10"><a xlink:title="nd162">
<ellipse fill="orange" stroke="orange" cx="339.6" cy="-118" rx="1.8" ry="1.8"/>
</a>
</g>
</g>
<!-- nd158&#45;&gt;ndcluster_nd162 -->
<g id="edge16" class="edge"><title>nd158:n&#45;&gt;ndcluster_nd162:n</title>
<path fill="none" stroke="black" d="M280.6,-130C280.6,-156.526 339.6,-147.526 339.6,-121"/>
</g>
<!-- nd158&#45;&gt;ndcluster_nd162 -->
<g id="edge17" class="edge"><title>nd158:s&#45;&gt;ndcluster_nd162:w</title>
<path fill="none" stroke="black" d="M280.6,-106C280.6,-101.091 286.758,-106.193 291.6,-107 311.909,-110.386 316.011,-118 336.6,-118"/>
</g>
<!-- nd130 -->
<g id="node12" class="node"><title>nd130</title>
<g id="a_node12"><a xlink:title="nd130&#45;AppGraph">
<path fill="none" stroke="#000000" d="M204.038,-61C204.038,-61 197.819,-55 197.819,-55 194.709,-52 194.709,-46 197.819,-43 197.819,-43 204.038,-37 204.038,-37 207.147,-34 214.577,-31.0024 218.898,-31.0048 218.898,-31.0048 231.802,-31.012 231.802,-31.012 236.123,-31.0144 240.443,-35.3375 240.443,-39.6582 240.443,-39.6582 240.443,-58.3418 240.443,-58.3418 240.443,-62.6625 236.123,-66.9856 231.802,-66.988 231.802,-66.988 218.898,-66.9952 218.898,-66.9952 214.577,-66.9976 207.147,-64 204.038,-61"/>
<text text-anchor="middle" x="218.6" y="-45.3" font-family="Times,serif" font-size="14.00">@</text>
</a>
</g>
</g>
<!-- nd129&#45;&gt;nd130 -->
<g id="edge10" class="edge"><title>nd129:s&#45;&gt;nd130:w</title>
<path fill="none" stroke="#b70000" d="M150.6,-50C150.6,-31.7724 173.372,-49 191.6,-49"/>
</g>
<!-- nd137 -->
<g id="node15" class="node"><title>nd137</title>
<g id="a_node15"><a xlink:title="nd137&#45;ContractGraph">
<ellipse fill="black" stroke="black" cx="339.6" cy="-68" rx="1.8" ry="1.8"/>
</a>
</g>
</g>
<!-- nd129&#45;&gt;nd137 -->
<g id="edge12" class="edge"><title>nd129:n&#45;&gt;nd137:w</title>
<path fill="none" stroke="black" d="M150.6,-88C150.6,-96.0123 160.605,-87.5253 168.6,-87 233.091,-82.7628 250.327,-89.1708 313.6,-76 324.196,-73.7944 325.777,-68 336.6,-68"/>
</g>
<!-- nd130&#45;&gt;nd158 -->
<g id="edge8" class="edge"><title>nd130:n&#45;&gt;nd158:w</title>
<path fill="none" stroke="black" d="M218.6,-68C218.6,-71.9284 264.672,-118 268.6,-118"/>
</g>
<!-- nd132 -->
<g id="node13" class="node"><title>nd132</title>
<g id="a_node13"><a xlink:title="nd132&#45;BinOpGraph">
<ellipse fill="none" stroke="#000000" cx="280.6" cy="-36" rx="18" ry="18"/>
<text text-anchor="middle" x="280.6" y="-32.3" font-family="Times,serif" font-size="14.00">a &#45; b</text>
</a>
</g>
</g>
<!-- nd130&#45;&gt;nd132 -->
<g id="edge9" class="edge"><title>nd130:s&#45;&gt;nd132:w</title>
<path fill="none" stroke="red" d="M218.6,-30C218.6,-17.9918 233.748,-29.0687 245.6,-31 248.758,-31.5146 250.856,-32.4363 252.762,-33.3493"/>
<polygon fill="red" stroke="red" points="252.034,-36.7779 262.6,-36 253.855,-30.0189 252.034,-36.7779"/>
</g>
<!-- nd136 -->
<g id="node14" class="node"><title>nd136</title>
<g id="a_node14"><a xlink:title="nd136&#45;ConstGraph">
<path fill="none" stroke="#000000" d="M333.6,-36C333.6,-36 345.6,-36 345.6,-36 351.6,-36 357.6,-30 357.6,-24 357.6,-24 357.6,-12 357.6,-12 357.6,-6 351.6,-0 345.6,-0 345.6,-0 333.6,-0 333.6,-0 327.6,-0 321.6,-6 321.6,-12 321.6,-12 321.6,-24 321.6,-24 321.6,-30 327.6,-36 333.6,-36"/>
<text text-anchor="middle" x="339.6" y="-14.3" font-family="Times,serif" font-size="14.00">1</text>
</a>
</g>
</g>
<!-- nd132&#45;&gt;nd136 -->
<g id="edge7" class="edge"><title>nd132:s&#45;&gt;nd136:w</title>
<path fill="none" stroke="black" d="M280.6,-17C280.6,1.22764 303.372,-18 321.6,-18"/>
<text text-anchor="middle" x="310.1" y="-21.8" font-family="Times,serif" font-size="14.00">b</text>
</g>
<!-- nd132&#45;&gt;nd137 -->
<g id="edge11" class="edge"><title>nd132:n&#45;&gt;nd137:w</title>
<path fill="none" stroke="black" d="M280.6,-55C280.6,-69.993 299.009,-58.5512 313.6,-62 323.881,-64.4301 326.036,-68 336.6,-68"/>
<text text-anchor="middle" x="310.1" y="-65.8" font-family="Times,serif" font-size="14.00">a</text>
</g>
<!-- nd138 -->
<g id="node16" class="node"><title>nd138</title>
<g id="a_node16"><a xlink:title="nd138&#45;ContractGraph">
<ellipse fill="black" stroke="black" cx="376.4" cy="-68" rx="1.8" ry="1.8"/>
</a>
</g>
</g>
<!-- nd137&#45;&gt;nd138 -->
<g id="edge14" class="edge"><title>nd137:e&#45;&gt;nd138:w</title>
<path fill="none" stroke="black" d="M342.6,-68C356.822,-68 360.378,-68 374.6,-68"/>
</g>
<!-- nd138&#45;&gt;nd156 -->
<g id="edge15" class="edge"><title>nd138:e&#45;&gt;nd156:w</title>
<path fill="none" stroke="black" d="M378.2,-68C388.422,-68 390.978,-68 401.2,-68"/>
<text text-anchor="middle" x="389.7" y="-71.8" font-family="Times,serif" font-size="14.00">x</text>
</g>
</g>
</svg>
