<?xml version="1.0" encoding="UTF-8" standalone="no"?>
<!DOCTYPE svg PUBLIC "-//W3C//DTD SVG 1.1//EN"
 "http://www.w3.org/Graphics/SVG/1.1/DTD/svg11.dtd">
<!-- Generated by graphviz version 2.38.0 (20140413.2041)
 -->
<!-- Title: G Pages: 1 -->
<svg width="439pt" height="175pt"
 viewBox="0.00 0.00 439.20 175.00" xmlns="http://www.w3.org/2000/svg" xmlns:xlink="http://www.w3.org/1999/xlink">
<g id="graph0" class="graph" transform="scale(1 1) rotate(0) translate(4 171)">
<title>G</title>
<polygon fill="white" stroke="none" points="-4,4 -4,-171 435.2,-171 435.2,4 -4,4"/>
<g id="clust1" class="cluster"><title>cluster_nd162</title>
<polygon fill="none" stroke="orange" points="323.8,-102 323.8,-122 343.4,-122 343.4,-102 323.8,-102"/>
</g>
<!-- nd1 -->
<g id="node1" class="node"><title>nd1</title>
<ellipse fill="black" stroke="black" cx="1.8" cy="-124" rx="1.8" ry="1.8"/>
</g>
<!-- nd42 -->
<g id="node3" class="node"><title>nd42</title>
<g id="a_node3"><a xlink:title="nd42&#45;BinOpGraph">
<ellipse fill="none" stroke="#000000" cx="38.6" cy="-124" rx="18" ry="18"/>
<text text-anchor="middle" x="38.6" y="-120.3" font-family="Times,serif" font-size="14.00">::</text>
</a>
</g>
</g>
<!-- nd1&#45;&gt;nd42 -->
<g id="edge2" class="edge"><title>nd1:e&#45;&gt;nd42:w</title>
<path fill="none" stroke="#b70000" d="M3.6,-124C11.1556,-124 13.0444,-124 20.6,-124"/>
</g>
<!-- nd14 -->
<g id="node2" class="node"><title>nd14</title>
<g id="a_node2"><a xlink:title="nd14&#45;ConstGraph">
<path fill="none" stroke="#000000" d="M144.6,-167C144.6,-167 156.6,-167 156.6,-167 162.6,-167 168.6,-161 168.6,-155 168.6,-155 168.6,-143 168.6,-143 168.6,-137 162.6,-131 156.6,-131 156.6,-131 144.6,-131 144.6,-131 138.6,-131 132.6,-137 132.6,-143 132.6,-143 132.6,-155 132.6,-155 132.6,-161 138.6,-167 144.6,-167"/>
<text text-anchor="middle" x="150.6" y="-145.3" font-family="Times,serif" font-size="14.00">1000</text>
</a>
</g>
</g>
<!-- nd59 -->
<g id="node4" class="node"><title>nd59</title>
<g id="a_node4"><a xlink:title="nd59&#45;ContractGraph">
<ellipse fill="black" stroke="black" cx="91.6" cy="-148" rx="1.8" ry="1.8"/>
</a>
</g>
</g>
<!-- nd42&#45;&gt;nd59 -->
<g id="edge1" class="edge"><title>nd42:n&#45;&gt;nd59:w</title>
<path fill="none" stroke="black" d="M38.6,-143C38.6,-165.333 66.2669,-148 88.6,-148"/>
</g>
<!-- nd84 -->
<g id="node6" class="node"><title>nd84</title>
<g id="a_node6"><a xlink:title="nd84&#45;BinOpGraph">
<ellipse fill="none" stroke="#000000" cx="91.6" cy="-98" rx="18" ry="18"/>
<text text-anchor="middle" x="91.6" y="-94.3" font-family="Times,serif" font-size="14.00">::</text>
</a>
</g>
</g>
<!-- nd42&#45;&gt;nd84 -->
<g id="edge5" class="edge"><title>nd42:s&#45;&gt;nd84:w</title>
<path fill="none" stroke="#b70000" d="M38.6,-105C38.6,-89.1364 57.7364,-98 73.6,-98"/>
</g>
<!-- nd59&#45;&gt;nd14 -->
<g id="edge3" class="edge"><title>nd59:e&#45;&gt;nd14:w</title>
<path fill="none" stroke="black" d="M94.6,-148C111.495,-148 115.705,-149 132.6,-149"/>
<text text-anchor="middle" x="121.1" y="-152.8" font-family="Times,serif" font-size="14.00">x</text>
</g>
<!-- nd111 -->
<g id="node5" class="node"><title>nd111</title>
<g id="a_node5"><a xlink:title="nd111&#45;ConstGraph">
<path fill="none" stroke="#000000" d="M212.6,-139C212.6,-139 224.6,-139 224.6,-139 230.6,-139 236.6,-133 236.6,-127 236.6,-127 236.6,-115 236.6,-115 236.6,-109 230.6,-103 224.6,-103 224.6,-103 212.6,-103 212.6,-103 206.6,-103 200.6,-109 200.6,-115 200.6,-115 200.6,-127 200.6,-127 200.6,-133 206.6,-139 212.6,-139"/>
<text text-anchor="middle" x="218.6" y="-117.3" font-family="Times,serif" font-size="14.00">999</text>
</a>
</g>
</g>
<!-- nd92 -->
<g id="node7" class="node"><title>nd92</title>
<g id="a_node7"><a xlink:title="nd92&#45;ContractGraph">
<ellipse fill="black" stroke="black" cx="150.6" cy="-116" rx="1.8" ry="1.8"/>
</a>
</g>
</g>
<!-- nd84&#45;&gt;nd92 -->
<g id="edge4" class="edge"><title>nd84:n&#45;&gt;nd92:w</title>
<path fill="none" stroke="black" d="M91.6,-117C91.6,-141.893 122.707,-116 147.6,-116"/>
</g>
<!-- nd129 -->
<g id="node11" class="node"><title>nd129</title>
<g id="a_node11"><a xlink:title="nd129&#45;BinOpGraph">
<ellipse fill="none" stroke="#000000" cx="150.6" cy="-65" rx="18" ry="18"/>
<text text-anchor="middle" x="150.6" y="-61.3" font-family="Times,serif" font-size="14.00">::</text>
</a>
</g>
</g>
<!-- nd84&#45;&gt;nd129 -->
<g id="edge13" class="edge"><title>nd84:s&#45;&gt;nd129:w</title>
<path fill="none" stroke="#b70000" d="M91.6,-79C91.6,-59.7447 113.345,-65 132.6,-65"/>
</g>
<!-- nd92&#45;&gt;nd111 -->
<g id="edge6" class="edge"><title>nd92:e&#45;&gt;nd111:w</title>
<path fill="none" stroke="black" d="M153.6,-116C174.165,-116 179.035,-121 199.6,-121"/>
<text text-anchor="middle" x="180.1" y="-123.8" font-family="Times,serif" font-size="14.00">x</text>
</g>
<!-- nd156 -->
<g id="node8" class="node"><title>nd156</title>
<g id="a_node8"><a xlink:title="nd156&#45;ConstGraph">
<path fill="none" stroke="#000000" d="M407.2,-91C407.2,-91 419.2,-91 419.2,-91 425.2,-91 431.2,-85 431.2,-79 431.2,-79 431.2,-67 431.2,-67 431.2,-61 425.2,-55 419.2,-55 419.2,-55 407.2,-55 407.2,-55 401.2,-55 395.2,-61 395.2,-67 395.2,-67 395.2,-79 395.2,-79 395.2,-85 401.2,-91 407.2,-91"/>
<text text-anchor="middle" x="413.2" y="-69.3" font-family="Times,serif" font-size="14.00">998</text>
</a>
</g>
</g>
<!-- nd158 -->
<g id="node9" class="node"><title>nd158</title>
<g id="a_node9"><a xlink:title="nd158&#45;RecurGraph">
<ellipse fill="none" stroke="#000000" cx="280.6" cy="-114" rx="11" ry="11"/>
<text text-anchor="middle" x="280.6" y="-110.3" font-family="Times,serif" font-size="14.00">rec</text>
</a>
</g>
</g>
<!-- ndcluster_nd162 -->
<g id="node10" class="node"><title>ndcluster_nd162</title>
<g id="a_node10"><a xlink:title="nd162">
<ellipse fill="orange" stroke="orange" cx="333.6" cy="-112" rx="1.8" ry="1.8"/>
</a>
</g>
</g>
<!-- nd158&#45;&gt;ndcluster_nd162 -->
<g id="edge16" class="edge"><title>nd158:n&#45;&gt;ndcluster_nd162:n</title>
<path fill="none" stroke="black" d="M280.6,-126C280.6,-150.058 333.6,-139.058 333.6,-115"/>
</g>
<!-- nd158&#45;&gt;ndcluster_nd162 -->
<g id="edge17" class="edge"><title>nd158:s&#45;&gt;ndcluster_nd162:w</title>
<path fill="none" stroke="black" d="M280.6,-102C280.6,-97.091 286.753,-102.224 291.6,-103 309.165,-105.812 312.811,-112 330.6,-112"/>
</g>
<!-- nd130 -->
<g id="node12" class="node"><title>nd130</title>
<g id="a_node12"><a xlink:title="nd130&#45;AppGraph">
<path fill="none" stroke="#000000" d="M204.038,-57C204.038,-57 197.819,-51 197.819,-51 194.709,-48 194.709,-42 197.819,-39 197.819,-39 204.038,-33 204.038,-33 207.147,-30 214.577,-27.0024 218.898,-27.0048 218.898,-27.0048 231.802,-27.012 231.802,-27.012 236.123,-27.0144 240.443,-31.3375 240.443,-35.6582 240.443,-35.6582 240.443,-54.3418 240.443,-54.3418 240.443,-58.6625 236.123,-62.9856 231.802,-62.988 231.802,-62.988 218.898,-62.9952 218.898,-62.9952 214.577,-62.9976 207.147,-60 204.038,-57"/>
<text text-anchor="middle" x="218.6" y="-41.3" font-family="Times,serif" font-size="14.00">@</text>
</a>
</g>
</g>
<!-- nd129&#45;&gt;nd130 -->
<g id="edge10" class="edge"><title>nd129:s&#45;&gt;nd130:w</title>
<path fill="none" stroke="#b70000" d="M150.6,-46C150.6,-27.7724 173.372,-45 191.6,-45"/>
</g>
<!-- nd137 -->
<g id="node15" class="node"><title>nd137</title>
<g id="a_node15"><a xlink:title="nd137&#45;ContractGraph">
<ellipse fill="black" stroke="black" cx="333.6" cy="-73" rx="1.8" ry="1.8"/>
</a>
</g>
</g>
<!-- nd129&#45;&gt;nd137 -->
<g id="edge12" class="edge"><title>nd129:n&#45;&gt;nd137:w</title>
<path fill="none" stroke="black" d="M150.6,-84C150.6,-104.037 310.563,-73 330.6,-73"/>
</g>
<!-- nd130&#45;&gt;nd158 -->
<g id="edge8" class="edge"><title>nd130:n&#45;&gt;nd158:w</title>
<path fill="none" stroke="black" d="M218.6,-64C218.6,-67.9284 264.672,-114 268.6,-114"/>
</g>
<!-- nd132 -->
<g id="node13" class="node"><title>nd132</title>
<g id="a_node13"><a xlink:title="nd132&#45;BinOpGraph">
<ellipse fill="none" stroke="#000000" cx="280.6" cy="-36" rx="18" ry="18"/>
<text text-anchor="middle" x="280.6" y="-32.3" font-family="Times,serif" font-size="14.00">&#45;</text>
</a>
</g>
</g>
<!-- nd130&#45;&gt;nd132 -->
<g id="edge9" class="edge"><title>nd130:s&#45;&gt;nd132:w</title>
<path fill="none" stroke="#b70000" d="M218.6,-26C218.6,-13.9918 234.001,-23.8902 245.6,-27 253.857,-29.214 254.051,-36 262.6,-36"/>
</g>
<!-- nd136 -->
<g id="node14" class="node"><title>nd136</title>
<g id="a_node14"><a xlink:title="nd136&#45;ConstGraph">
<path fill="none" stroke="#000000" d="M327.6,-36C327.6,-36 339.6,-36 339.6,-36 345.6,-36 351.6,-30 351.6,-24 351.6,-24 351.6,-12 351.6,-12 351.6,-6 345.6,-0 339.6,-0 339.6,-0 327.6,-0 327.6,-0 321.6,-0 315.6,-6 315.6,-12 315.6,-12 315.6,-24 315.6,-24 315.6,-30 321.6,-36 327.6,-36"/>
<text text-anchor="middle" x="333.6" y="-14.3" font-family="Times,serif" font-size="14.00">1</text>
</a>
</g>
</g>
<!-- nd132&#45;&gt;nd136 -->
<g id="edge7" class="edge"><title>nd132:s&#45;&gt;nd136:w</title>
<path fill="none" stroke="black" d="M280.6,-17C280.6,-1.4381 300.038,-18 315.6,-18"/>
</g>
<!-- nd132&#45;&gt;nd137 -->
<g id="edge11" class="edge"><title>nd132:n&#45;&gt;nd137:w</title>
<path fill="none" stroke="red" d="M280.6,-55C280.6,-64.3182 304.378,-70.1383 320.212,-72.179"/>
<polygon fill="red" stroke="red" points="320.355,-75.7012 330.6,-73 320.907,-68.7229 320.355,-75.7012"/>
</g>
<!-- nd138 -->
<g id="node16" class="node"><title>nd138</title>
<g id="a_node16"><a xlink:title="nd138&#45;ContractGraph">
<ellipse fill="black" stroke="black" cx="370.4" cy="-73" rx="1.8" ry="1.8"/>
</a>
</g>
</g>
<!-- nd137&#45;&gt;nd138 -->
<g id="edge14" class="edge"><title>nd137:e&#45;&gt;nd138:w</title>
<path fill="none" stroke="black" d="M336.6,-73C350.822,-73 354.378,-73 368.6,-73"/>
</g>
<!-- nd138&#45;&gt;nd156 -->
<g id="edge15" class="edge"><title>nd138:e&#45;&gt;nd156:w</title>
<path fill="none" stroke="black" d="M372.2,-73C382.422,-73 384.978,-73 395.2,-73"/>
<text text-anchor="middle" x="383.7" y="-76.8" font-family="Times,serif" font-size="14.00">x</text>
</g>
</g>
</svg>
