<?xml version="1.0" encoding="UTF-8" standalone="no"?>
<!DOCTYPE svg PUBLIC "-//W3C//DTD SVG 1.1//EN"
 "http://www.w3.org/Graphics/SVG/1.1/DTD/svg11.dtd">
<!-- Generated by graphviz version 2.38.0 (20140413.2041)
 -->
<!-- Title: G Pages: 1 -->
<svg width="537pt" height="261pt"
 viewBox="0.00 0.00 537.20 261.00" xmlns="http://www.w3.org/2000/svg" xmlns:xlink="http://www.w3.org/1999/xlink">
<g id="graph0" class="graph" transform="scale(1 1) rotate(0) translate(4 257)">
<title>G</title>
<polygon fill="white" stroke="none" points="-4,4 -4,-257 533.2,-257 533.2,4 -4,4"/>
<g id="clust1" class="cluster"><title>cluster_nd162</title>
<polygon fill="none" stroke="orange" points="421.8,-104 421.8,-124 441.4,-124 441.4,-104 421.8,-104"/>
</g>
<!-- nd1 -->
<g id="node1" class="node"><title>nd1</title>
<ellipse fill="black" stroke="black" cx="1.8" cy="-210" rx="1.8" ry="1.8"/>
</g>
<!-- nd42 -->
<g id="node3" class="node"><title>nd42</title>
<g id="a_node3"><a xlink:title="nd42&#45;BinOpGraph">
<ellipse fill="none" stroke="#000000" cx="38.6" cy="-210" rx="18" ry="18"/>
<text text-anchor="middle" x="38.6" y="-206.3" font-family="Times,serif" font-size="14.00">::</text>
</a>
</g>
</g>
<!-- nd1&#45;&gt;nd42 -->
<g id="edge2" class="edge"><title>nd1:e&#45;&gt;nd42:w</title>
<path fill="none" stroke="#b70000" d="M3.6,-210C11.1556,-210 13.0444,-210 20.6,-210"/>
</g>
<!-- nd14 -->
<g id="node2" class="node"><title>nd14</title>
<g id="a_node2"><a xlink:title="nd14&#45;ConstGraph">
<path fill="none" stroke="#000000" d="M144.6,-253C144.6,-253 156.6,-253 156.6,-253 162.6,-253 168.6,-247 168.6,-241 168.6,-241 168.6,-229 168.6,-229 168.6,-223 162.6,-217 156.6,-217 156.6,-217 144.6,-217 144.6,-217 138.6,-217 132.6,-223 132.6,-229 132.6,-229 132.6,-241 132.6,-241 132.6,-247 138.6,-253 144.6,-253"/>
<text text-anchor="middle" x="150.6" y="-231.3" font-family="Times,serif" font-size="14.00">1000</text>
</a>
</g>
</g>
<!-- nd59 -->
<g id="node4" class="node"><title>nd59</title>
<g id="a_node4"><a xlink:title="nd59&#45;ContractGraph">
<ellipse fill="black" stroke="black" cx="91.6" cy="-234" rx="1.8" ry="1.8"/>
</a>
</g>
</g>
<!-- nd42&#45;&gt;nd59 -->
<g id="edge1" class="edge"><title>nd42:n&#45;&gt;nd59:w</title>
<path fill="none" stroke="black" d="M38.6,-229C38.6,-251.333 66.2669,-234 88.6,-234"/>
</g>
<!-- nd84 -->
<g id="node6" class="node"><title>nd84</title>
<g id="a_node6"><a xlink:title="nd84&#45;BinOpGraph">
<ellipse fill="none" stroke="#000000" cx="91.6" cy="-184" rx="18" ry="18"/>
<text text-anchor="middle" x="91.6" y="-180.3" font-family="Times,serif" font-size="14.00">::</text>
</a>
</g>
</g>
<!-- nd42&#45;&gt;nd84 -->
<g id="edge5" class="edge"><title>nd42:s&#45;&gt;nd84:w</title>
<path fill="none" stroke="#b70000" d="M38.6,-191C38.6,-175.136 57.7364,-184 73.6,-184"/>
</g>
<!-- nd59&#45;&gt;nd14 -->
<g id="edge3" class="edge"><title>nd59:e&#45;&gt;nd14:w</title>
<path fill="none" stroke="black" d="M94.6,-234C111.495,-234 115.705,-235 132.6,-235"/>
<text text-anchor="middle" x="121.1" y="-237.8" font-family="Times,serif" font-size="14.00">x</text>
</g>
<!-- nd111 -->
<g id="node5" class="node"><title>nd111</title>
<g id="a_node5"><a xlink:title="nd111&#45;ConstGraph">
<path fill="none" stroke="#000000" d="M248.6,-228C248.6,-228 260.6,-228 260.6,-228 266.6,-228 272.6,-222 272.6,-216 272.6,-216 272.6,-204 272.6,-204 272.6,-198 266.6,-192 260.6,-192 260.6,-192 248.6,-192 248.6,-192 242.6,-192 236.6,-198 236.6,-204 236.6,-204 236.6,-216 236.6,-216 236.6,-222 242.6,-228 248.6,-228"/>
<text text-anchor="middle" x="254.6" y="-206.3" font-family="Times,serif" font-size="14.00">999</text>
</a>
</g>
</g>
<!-- nd92 -->
<g id="node7" class="node"><title>nd92</title>
<g id="a_node7"><a xlink:title="nd92&#45;ContractGraph">
<ellipse fill="black" stroke="black" cx="150.6" cy="-202" rx="1.8" ry="1.8"/>
</a>
</g>
</g>
<!-- nd84&#45;&gt;nd92 -->
<g id="edge4" class="edge"><title>nd84:n&#45;&gt;nd92:w</title>
<path fill="none" stroke="black" d="M91.6,-203C91.6,-227.893 122.707,-202 147.6,-202"/>
</g>
<!-- nd119 -->
<g id="node11" class="node"><title>nd119</title>
<g id="a_node11"><a xlink:title="nd119&#45;IfGraph">
<ellipse fill="none" stroke="#000000" cx="150.6" cy="-120" rx="18" ry="18"/>
<text text-anchor="middle" x="150.6" y="-116.3" font-family="Times,serif" font-size="14.00">if</text>
</a>
</g>
</g>
<!-- nd84&#45;&gt;nd119 -->
<g id="edge19" class="edge"><title>nd84:s&#45;&gt;nd119:w</title>
<path fill="none" stroke="#b70000" d="M91.6,-165C91.6,-137.944 105.544,-120 132.6,-120"/>
</g>
<!-- nd92&#45;&gt;nd111 -->
<g id="edge6" class="edge"><title>nd92:e&#45;&gt;nd111:w</title>
<path fill="none" stroke="black" d="M153.6,-202C190.66,-202 199.54,-210 236.6,-210"/>
<text text-anchor="middle" x="202.6" y="-213.8" font-family="Times,serif" font-size="14.00">x</text>
</g>
<!-- nd156 -->
<g id="node8" class="node"><title>nd156</title>
<g id="a_node8"><a xlink:title="nd156&#45;ConstGraph">
<path fill="none" stroke="#000000" d="M505.2,-168C505.2,-168 517.2,-168 517.2,-168 523.2,-168 529.2,-162 529.2,-156 529.2,-156 529.2,-144 529.2,-144 529.2,-138 523.2,-132 517.2,-132 517.2,-132 505.2,-132 505.2,-132 499.2,-132 493.2,-138 493.2,-144 493.2,-144 493.2,-156 493.2,-156 493.2,-162 499.2,-168 505.2,-168"/>
<text text-anchor="middle" x="511.2" y="-146.3" font-family="Times,serif" font-size="14.00">998</text>
</a>
</g>
</g>
<!-- nd158 -->
<g id="node9" class="node"><title>nd158</title>
<g id="a_node9"><a xlink:title="nd158&#45;RecurGraph">
<ellipse fill="none" stroke="#000000" cx="378.6" cy="-114" rx="11" ry="11"/>
<text text-anchor="middle" x="378.6" y="-110.3" font-family="Times,serif" font-size="14.00">rec</text>
</a>
</g>
</g>
<!-- ndcluster_nd162 -->
<g id="node10" class="node"><title>ndcluster_nd162</title>
<g id="a_node10"><a xlink:title="nd162">
<ellipse fill="orange" stroke="orange" cx="431.6" cy="-114" rx="1.8" ry="1.8"/>
</a>
</g>
</g>
<!-- nd158&#45;&gt;ndcluster_nd162 -->
<g id="edge21" class="edge"><title>nd158:n&#45;&gt;ndcluster_nd162:n</title>
<path fill="none" stroke="black" d="M378.6,-126C378.6,-149.893 431.6,-140.893 431.6,-117"/>
</g>
<!-- nd158&#45;&gt;ndcluster_nd162 -->
<g id="edge22" class="edge"><title>nd158:s&#45;&gt;ndcluster_nd162:w</title>
<path fill="none" stroke="black" d="M378.6,-102C378.6,-97.091 384.773,-102.108 389.6,-103 407.31,-106.274 410.59,-114 428.6,-114"/>
</g>
<!-- nd120 -->
<g id="node12" class="node"><title>nd120</title>
<g id="a_node12"><a xlink:title="nd120&#45;BinOpGraph">
<ellipse fill="none" stroke="#000000" cx="254.6" cy="-161" rx="18" ry="18"/>
<text text-anchor="middle" x="254.6" y="-157.3" font-family="Times,serif" font-size="14.00">&lt;=</text>
</a>
</g>
</g>
<!-- nd119&#45;&gt;nd120 -->
<g id="edge14" class="edge"><title>nd119:n&#45;&gt;nd120:w</title>
<path fill="none" stroke="#b70000" d="M150.6,-139C150.6,-178.453 197.147,-161 236.6,-161"/>
<text text-anchor="middle" x="202.6" y="-168.8" font-family="Times,serif" font-size="14.00">condition</text>
</g>
<!-- nd128 -->
<g id="node14" class="node"><title>nd128</title>
<g id="a_node14"><a xlink:title="nd128&#45;ConstListGraph">
<path fill="none" stroke="#000000" d="M248.6,-130C248.6,-130 260.6,-130 260.6,-130 266.6,-130 272.6,-124 272.6,-118 272.6,-118 272.6,-106 272.6,-106 272.6,-100 266.6,-94 260.6,-94 260.6,-94 248.6,-94 248.6,-94 242.6,-94 236.6,-100 236.6,-106 236.6,-106 236.6,-118 236.6,-118 236.6,-124 242.6,-130 248.6,-130"/>
<text text-anchor="middle" x="254.6" y="-108.3" font-family="Times,serif" font-size="14.00">[]</text>
</a>
</g>
</g>
<!-- nd119&#45;&gt;nd128 -->
<g id="edge15" class="edge"><title>nd119:e&#45;&gt;nd128:w</title>
<path fill="none" stroke="grey" d="M168.6,-120C199.031,-120 206.169,-112 236.6,-112"/>
<text text-anchor="middle" x="202.6" y="-123.8" font-family="Times,serif" font-size="14.00">is true</text>
</g>
<!-- nd129 -->
<g id="node15" class="node"><title>nd129</title>
<g id="a_node15"><a xlink:title="nd129&#45;BinOpGraph">
<ellipse fill="none" stroke="#000000" cx="254.6" cy="-63" rx="18" ry="18"/>
<text text-anchor="middle" x="254.6" y="-59.3" font-family="Times,serif" font-size="14.00">::</text>
</a>
</g>
</g>
<!-- nd119&#45;&gt;nd129 -->
<g id="edge16" class="edge"><title>nd119:s&#45;&gt;nd129:w</title>
<path fill="none" stroke="grey" d="M150.6,-101C150.6,-59.2128 194.813,-63 236.6,-63"/>
<text text-anchor="middle" x="202.6" y="-70.8" font-family="Times,serif" font-size="14.00">is false</text>
</g>
<!-- nd124 -->
<g id="node13" class="node"><title>nd124</title>
<g id="a_node13"><a xlink:title="nd124&#45;ConstGraph">
<path fill="none" stroke="#000000" d="M310.6,-159C310.6,-159 322.6,-159 322.6,-159 328.6,-159 334.6,-153 334.6,-147 334.6,-147 334.6,-135 334.6,-135 334.6,-129 328.6,-123 322.6,-123 322.6,-123 310.6,-123 310.6,-123 304.6,-123 298.6,-129 298.6,-135 298.6,-135 298.6,-147 298.6,-147 298.6,-153 304.6,-159 310.6,-159"/>
<text text-anchor="middle" x="316.6" y="-137.3" font-family="Times,serif" font-size="14.00">0</text>
</a>
</g>
</g>
<!-- nd120&#45;&gt;nd124 -->
<g id="edge7" class="edge"><title>nd120:s&#45;&gt;nd124:w</title>
<path fill="none" stroke="black" d="M254.6,-142C254.6,-132.442 288.042,-141 297.6,-141"/>
</g>
<!-- nd138 -->
<g id="node20" class="node"><title>nd138</title>
<g id="a_node20"><a xlink:title="nd138&#45;ContractGraph">
<ellipse fill="black" stroke="black" cx="468.4" cy="-150" rx="1.8" ry="1.8"/>
</a>
</g>
</g>
<!-- nd120&#45;&gt;nd138 -->
<g id="edge17" class="edge"><title>nd120:n&#45;&gt;nd138:w</title>
<path fill="none" stroke="red" d="M254.6,-180C254.6,-186.779 308.821,-179 315.6,-179 315.6,-179 315.6,-179 432.6,-179 448.272,-179 448.015,-160.944 456.966,-153.327"/>
<polygon fill="red" stroke="red" points="458.29,-156.572 466.6,-150 456.005,-149.956 458.29,-156.572"/>
</g>
<!-- nd130 -->
<g id="node16" class="node"><title>nd130</title>
<g id="a_node16"><a xlink:title="nd130&#45;AppGraph">
<path fill="none" stroke="#000000" d="M302.038,-57C302.038,-57 295.819,-51 295.819,-51 292.709,-48 292.709,-42 295.819,-39 295.819,-39 302.038,-33 302.038,-33 305.147,-30 312.577,-27.0024 316.898,-27.0048 316.898,-27.0048 329.802,-27.012 329.802,-27.012 334.123,-27.0144 338.443,-31.3375 338.443,-35.6582 338.443,-35.6582 338.443,-54.3418 338.443,-54.3418 338.443,-58.6625 334.123,-62.9856 329.802,-62.988 329.802,-62.988 316.898,-62.9952 316.898,-62.9952 312.577,-62.9976 305.147,-60 302.038,-57"/>
<text text-anchor="middle" x="316.6" y="-41.3" font-family="Times,serif" font-size="14.00">@</text>
</a>
</g>
</g>
<!-- nd129&#45;&gt;nd130 -->
<g id="edge11" class="edge"><title>nd129:s&#45;&gt;nd130:w</title>
<path fill="none" stroke="black" d="M254.6,-44C254.6,-28.4381 274.038,-45 289.6,-45"/>
</g>
<!-- nd137 -->
<g id="node19" class="node"><title>nd137</title>
<g id="a_node19"><a xlink:title="nd137&#45;ContractGraph">
<ellipse fill="black" stroke="black" cx="431.6" cy="-83" rx="1.8" ry="1.8"/>
</a>
</g>
</g>
<!-- nd129&#45;&gt;nd137 -->
<g id="edge13" class="edge"><title>nd129:n&#45;&gt;nd137:w</title>
<path fill="none" stroke="black" d="M254.6,-82C254.6,-91.6668 418.933,-83 428.6,-83"/>
</g>
<!-- nd130&#45;&gt;nd158 -->
<g id="edge9" class="edge"><title>nd130:n&#45;&gt;nd158:w</title>
<path fill="none" stroke="black" d="M316.6,-64C316.6,-95.427 335.173,-114 366.6,-114"/>
</g>
<!-- nd132 -->
<g id="node17" class="node"><title>nd132</title>
<g id="a_node17"><a xlink:title="nd132&#45;BinOpGraph">
<ellipse fill="none" stroke="#000000" cx="378.6" cy="-36" rx="18" ry="18"/>
<text text-anchor="middle" x="378.6" y="-32.3" font-family="Times,serif" font-size="14.00">&#45;</text>
</a>
</g>
</g>
<!-- nd130&#45;&gt;nd132 -->
<g id="edge10" class="edge"><title>nd130:s&#45;&gt;nd132:w</title>
<path fill="none" stroke="black" d="M316.6,-26C316.6,-13.9918 332.001,-23.8902 343.6,-27 351.857,-29.214 352.051,-36 360.6,-36"/>
</g>
<!-- nd136 -->
<g id="node18" class="node"><title>nd136</title>
<g id="a_node18"><a xlink:title="nd136&#45;ConstGraph">
<path fill="none" stroke="#000000" d="M425.6,-36C425.6,-36 437.6,-36 437.6,-36 443.6,-36 449.6,-30 449.6,-24 449.6,-24 449.6,-12 449.6,-12 449.6,-6 443.6,-0 437.6,-0 437.6,-0 425.6,-0 425.6,-0 419.6,-0 413.6,-6 413.6,-12 413.6,-12 413.6,-24 413.6,-24 413.6,-30 419.6,-36 425.6,-36"/>
<text text-anchor="middle" x="431.6" y="-14.3" font-family="Times,serif" font-size="14.00">1</text>
</a>
</g>
</g>
<!-- nd132&#45;&gt;nd136 -->
<g id="edge8" class="edge"><title>nd132:s&#45;&gt;nd136:w</title>
<path fill="none" stroke="black" d="M378.6,-17C378.6,-1.4381 398.038,-18 413.6,-18"/>
</g>
<!-- nd132&#45;&gt;nd137 -->
<g id="edge12" class="edge"><title>nd132:n&#45;&gt;nd137:w</title>
<path fill="none" stroke="black" d="M378.6,-55C378.6,-61.3674 422.233,-83 428.6,-83"/>
</g>
<!-- nd137&#45;&gt;nd138 -->
<g id="edge18" class="edge"><title>nd137:e&#45;&gt;nd138:w</title>
<path fill="none" stroke="black" d="M434.6,-83C467.6,-83 433.6,-150 466.6,-150"/>
</g>
<!-- nd138&#45;&gt;nd156 -->
<g id="edge20" class="edge"><title>nd138:e&#45;&gt;nd156:w</title>
<path fill="none" stroke="black" d="M470.2,-150C480.422,-150 482.978,-150 493.2,-150"/>
<text text-anchor="middle" x="481.7" y="-153.8" font-family="Times,serif" font-size="14.00">x</text>
</g>
</g>
</svg>
