<?xml version="1.0" encoding="UTF-8" standalone="no"?>
<!DOCTYPE svg PUBLIC "-//W3C//DTD SVG 1.1//EN"
 "http://www.w3.org/Graphics/SVG/1.1/DTD/svg11.dtd">
<!-- Generated by graphviz version 2.38.0 (20140413.2041)
 -->
<!-- Title: G Pages: 1 -->
<svg width="667pt" height="310pt"
 viewBox="0.00 0.00 667.20 310.00" xmlns="http://www.w3.org/2000/svg" xmlns:xlink="http://www.w3.org/1999/xlink">
<g id="graph0" class="graph" transform="scale(1 1) rotate(0) translate(4 306)">
<title>G</title>
<polygon fill="white" stroke="none" points="-4,4 -4,-306 663.2,-306 663.2,4 -4,4"/>
<g id="clust1" class="cluster"><title>cluster_nd207</title>
<polygon fill="none" stroke="orange" points="610.8,-61 610.8,-81 630.4,-81 630.4,-61 610.8,-61"/>
</g>
<!-- nd1 -->
<g id="node1" class="node"><title>nd1</title>
<ellipse fill="black" stroke="black" cx="1.8" cy="-259" rx="1.8" ry="1.8"/>
</g>
<!-- nd42 -->
<g id="node3" class="node"><title>nd42</title>
<g id="a_node3"><a xlink:title="nd42&#45;BinOpGraph">
<ellipse fill="none" stroke="#000000" cx="38.6" cy="-259" rx="18" ry="18"/>
<text text-anchor="middle" x="38.6" y="-255.3" font-family="Times,serif" font-size="14.00">::</text>
</a>
</g>
</g>
<!-- nd1&#45;&gt;nd42 -->
<g id="edge2" class="edge"><title>nd1:e&#45;&gt;nd42:w</title>
<path fill="none" stroke="#b70000" d="M3.6,-259C11.1556,-259 13.0444,-259 20.6,-259"/>
</g>
<!-- nd14 -->
<g id="node2" class="node"><title>nd14</title>
<g id="a_node2"><a xlink:title="nd14&#45;ConstGraph">
<path fill="none" stroke="#000000" d="M144.6,-302C144.6,-302 156.6,-302 156.6,-302 162.6,-302 168.6,-296 168.6,-290 168.6,-290 168.6,-278 168.6,-278 168.6,-272 162.6,-266 156.6,-266 156.6,-266 144.6,-266 144.6,-266 138.6,-266 132.6,-272 132.6,-278 132.6,-278 132.6,-290 132.6,-290 132.6,-296 138.6,-302 144.6,-302"/>
<text text-anchor="middle" x="150.6" y="-280.3" font-family="Times,serif" font-size="14.00">1000</text>
</a>
</g>
</g>
<!-- nd59 -->
<g id="node4" class="node"><title>nd59</title>
<g id="a_node4"><a xlink:title="nd59&#45;ContractGraph">
<ellipse fill="black" stroke="black" cx="91.6" cy="-283" rx="1.8" ry="1.8"/>
</a>
</g>
</g>
<!-- nd42&#45;&gt;nd59 -->
<g id="edge1" class="edge"><title>nd42:n&#45;&gt;nd59:w</title>
<path fill="none" stroke="black" d="M38.6,-278C38.6,-300.333 66.2669,-283 88.6,-283"/>
</g>
<!-- nd84 -->
<g id="node6" class="node"><title>nd84</title>
<g id="a_node6"><a xlink:title="nd84&#45;BinOpGraph">
<ellipse fill="none" stroke="#000000" cx="91.6" cy="-233" rx="18" ry="18"/>
<text text-anchor="middle" x="91.6" y="-229.3" font-family="Times,serif" font-size="14.00">::</text>
</a>
</g>
</g>
<!-- nd42&#45;&gt;nd84 -->
<g id="edge5" class="edge"><title>nd42:s&#45;&gt;nd84:w</title>
<path fill="none" stroke="#b70000" d="M38.6,-240C38.6,-224.136 57.7364,-233 73.6,-233"/>
</g>
<!-- nd59&#45;&gt;nd14 -->
<g id="edge3" class="edge"><title>nd59:e&#45;&gt;nd14:w</title>
<path fill="none" stroke="black" d="M94.6,-283C111.495,-283 115.705,-284 132.6,-284"/>
<text text-anchor="middle" x="121.1" y="-286.8" font-family="Times,serif" font-size="14.00">x</text>
</g>
<!-- nd111 -->
<g id="node5" class="node"><title>nd111</title>
<g id="a_node5"><a xlink:title="nd111&#45;ConstGraph">
<path fill="none" stroke="#000000" d="M212.6,-273C212.6,-273 224.6,-273 224.6,-273 230.6,-273 236.6,-267 236.6,-261 236.6,-261 236.6,-249 236.6,-249 236.6,-243 230.6,-237 224.6,-237 224.6,-237 212.6,-237 212.6,-237 206.6,-237 200.6,-243 200.6,-249 200.6,-249 200.6,-261 200.6,-261 200.6,-267 206.6,-273 212.6,-273"/>
<text text-anchor="middle" x="218.6" y="-251.3" font-family="Times,serif" font-size="14.00">999</text>
</a>
</g>
</g>
<!-- nd92 -->
<g id="node7" class="node"><title>nd92</title>
<g id="a_node7"><a xlink:title="nd92&#45;ContractGraph">
<ellipse fill="black" stroke="black" cx="150.6" cy="-251" rx="1.8" ry="1.8"/>
</a>
</g>
</g>
<!-- nd84&#45;&gt;nd92 -->
<g id="edge4" class="edge"><title>nd84:n&#45;&gt;nd92:w</title>
<path fill="none" stroke="black" d="M91.6,-252C91.6,-276.893 122.707,-251 147.6,-251"/>
</g>
<!-- nd129 -->
<g id="node9" class="node"><title>nd129</title>
<g id="a_node9"><a xlink:title="nd129&#45;BinOpGraph">
<ellipse fill="none" stroke="#000000" cx="150.6" cy="-204" rx="18" ry="18"/>
<text text-anchor="middle" x="150.6" y="-200.3" font-family="Times,serif" font-size="14.00">::</text>
</a>
</g>
</g>
<!-- nd84&#45;&gt;nd129 -->
<g id="edge11" class="edge"><title>nd84:s&#45;&gt;nd129:w</title>
<path fill="none" stroke="#b70000" d="M91.6,-214C91.6,-195.244 113.844,-204 132.6,-204"/>
</g>
<!-- nd92&#45;&gt;nd111 -->
<g id="edge6" class="edge"><title>nd92:e&#45;&gt;nd111:w</title>
<path fill="none" stroke="black" d="M153.6,-251C174.122,-251 179.078,-255 199.6,-255"/>
<text text-anchor="middle" x="180.1" y="-257.8" font-family="Times,serif" font-size="14.00">x</text>
</g>
<!-- nd156 -->
<g id="node8" class="node"><title>nd156</title>
<g id="a_node8"><a xlink:title="nd156&#45;ConstGraph">
<path fill="none" stroke="#000000" d="M280.6,-248C280.6,-248 292.6,-248 292.6,-248 298.6,-248 304.6,-242 304.6,-236 304.6,-236 304.6,-224 304.6,-224 304.6,-218 298.6,-212 292.6,-212 292.6,-212 280.6,-212 280.6,-212 274.6,-212 268.6,-218 268.6,-224 268.6,-224 268.6,-236 268.6,-236 268.6,-242 274.6,-248 280.6,-248"/>
<text text-anchor="middle" x="286.6" y="-226.3" font-family="Times,serif" font-size="14.00">998</text>
</a>
</g>
</g>
<!-- nd130 -->
<g id="node10" class="node"><title>nd130</title>
<g id="a_node10"><a xlink:title="nd130&#45;AppGraph">
<path fill="none" stroke="#000000" d="M204.038,-175C204.038,-175 197.819,-169 197.819,-169 194.709,-166 194.709,-160 197.819,-157 197.819,-157 204.038,-151 204.038,-151 207.147,-148 214.577,-145.002 218.898,-145.005 218.898,-145.005 231.802,-145.012 231.802,-145.012 236.123,-145.014 240.443,-149.338 240.443,-153.658 240.443,-153.658 240.443,-172.342 240.443,-172.342 240.443,-176.662 236.123,-180.986 231.802,-180.988 231.802,-180.988 218.898,-180.995 218.898,-180.995 214.577,-180.998 207.147,-178 204.038,-175"/>
<text text-anchor="middle" x="218.6" y="-159.3" font-family="Times,serif" font-size="14.00">@</text>
</a>
</g>
</g>
<!-- nd129&#45;&gt;nd130 -->
<g id="edge9" class="edge"><title>nd129:s&#45;&gt;nd130:w</title>
<path fill="none" stroke="#b70000" d="M150.6,-185C150.6,-164.32 170.92,-163 191.6,-163"/>
</g>
<!-- nd137 -->
<g id="node11" class="node"><title>nd137</title>
<g id="a_node11"><a xlink:title="nd137&#45;ContractGraph">
<ellipse fill="black" stroke="black" cx="218.6" cy="-222" rx="1.8" ry="1.8"/>
</a>
</g>
</g>
<!-- nd129&#45;&gt;nd137 -->
<g id="edge10" class="edge"><title>nd129:n&#45;&gt;nd137:w</title>
<path fill="none" stroke="black" d="M150.6,-223C150.6,-251.892 186.708,-222 215.6,-222"/>
</g>
<!-- nd201 -->
<g id="node12" class="node"><title>nd201</title>
<g id="a_node12"><a xlink:title="nd201&#45;ConstGraph">
<path fill="none" stroke="#000000" d="M280.6,-150C280.6,-150 292.6,-150 292.6,-150 298.6,-150 304.6,-144 304.6,-138 304.6,-138 304.6,-126 304.6,-126 304.6,-120 298.6,-114 292.6,-114 292.6,-114 280.6,-114 280.6,-114 274.6,-114 268.6,-120 268.6,-126 268.6,-126 268.6,-138 268.6,-138 268.6,-144 274.6,-150 280.6,-150"/>
<text text-anchor="middle" x="286.6" y="-128.3" font-family="Times,serif" font-size="14.00">997</text>
</a>
</g>
</g>
<!-- nd130&#45;&gt;nd201 -->
<g id="edge8" class="edge"><title>nd130:s&#45;&gt;nd201:w</title>
<path fill="none" stroke="black" d="M218.6,-144C218.6,-121.147 245.747,-132 268.6,-132"/>
</g>
<!-- nd163 -->
<g id="node15" class="node"><title>nd163</title>
<g id="a_node15"><a xlink:title="nd163&#45;AbsGraph">
<ellipse fill="none" stroke="#000000" cx="286.6" cy="-181" rx="18" ry="18"/>
<text text-anchor="middle" x="286.6" y="-177.3" font-family="Times,serif" font-size="14.00">λ</text>
</a>
</g>
</g>
<!-- nd130&#45;&gt;nd163 -->
<g id="edge7" class="edge"><title>nd130:n&#45;&gt;nd163:w</title>
<path fill="none" stroke="red" d="M218.6,-182C218.6,-200.927 238.74,-186.894 258.445,-182.311"/>
<polygon fill="red" stroke="red" points="259.13,-185.751 268.6,-181 258.234,-178.809 259.13,-185.751"/>
</g>
<!-- nd137&#45;&gt;nd156 -->
<g id="edge12" class="edge"><title>nd137:e&#45;&gt;nd156:w</title>
<path fill="none" stroke="black" d="M221.6,-222C242.789,-222 247.411,-230 268.6,-230"/>
<text text-anchor="middle" x="257.1" y="-232.8" font-family="Times,serif" font-size="14.00">x</text>
</g>
<!-- nd203 -->
<g id="node13" class="node"><title>nd203</title>
<g id="a_node13"><a xlink:title="nd203&#45;RecurGraph">
<ellipse fill="none" stroke="#000000" cx="567.6" cy="-78" rx="11" ry="11"/>
<text text-anchor="middle" x="567.6" y="-74.3" font-family="Times,serif" font-size="14.00">rec</text>
</a>
</g>
</g>
<!-- ndcluster_nd207 -->
<g id="node14" class="node"><title>ndcluster_nd207</title>
<g id="a_node14"><a xlink:title="nd207">
<ellipse fill="orange" stroke="orange" cx="620.6" cy="-71" rx="1.8" ry="1.8"/>
</a>
</g>
</g>
<!-- nd203&#45;&gt;ndcluster_nd207 -->
<g id="edge27" class="edge"><title>nd203:n&#45;&gt;ndcluster_nd207:n</title>
<path fill="none" stroke="black" d="M567.6,-90C567.6,-102.303 620.6,-86.3028 620.6,-74"/>
</g>
<!-- nd203&#45;&gt;ndcluster_nd207 -->
<g id="edge28" class="edge"><title>nd203:s&#45;&gt;ndcluster_nd207:w</title>
<path fill="none" stroke="black" d="M567.6,-66C567.6,-54.8335 606.433,-71 617.6,-71"/>
</g>
<!-- nd164 -->
<g id="node16" class="node"><title>nd164</title>
<g id="a_node16"><a xlink:title="nd164&#45;IfGraph">
<ellipse fill="none" stroke="#000000" cx="339.6" cy="-135" rx="18" ry="18"/>
<text text-anchor="middle" x="339.6" y="-131.3" font-family="Times,serif" font-size="14.00">if</text>
</a>
</g>
</g>
<!-- nd163&#45;&gt;nd164 -->
<g id="edge25" class="edge"><title>nd163:s&#45;&gt;nd164:w</title>
<path fill="none" stroke="black" d="M286.6,-162C286.6,-153.697 297.71,-161.633 304.6,-157 314.855,-150.105 309.243,-135 321.6,-135"/>
</g>
<!-- nd183 -->
<g id="node25" class="node"><title>nd183</title>
<g id="a_node25"><a xlink:title="nd183&#45;ContractGraph">
<ellipse fill="black" stroke="black" cx="657.4" cy="-187" rx="1.8" ry="1.8"/>
</a>
</g>
</g>
<!-- nd163&#45;&gt;nd183 -->
<g id="edge26" class="edge"><title>nd163:n&#45;&gt;nd183:ne</title>
<path fill="none" stroke="grey" d="M286.6,-200C286.6,-208.433 296.697,-203.06 304.6,-206 319.916,-211.698 322.258,-220 338.6,-220 338.6,-220 338.6,-220 621.6,-220 632.27,-220 664.945,-195.545 657.4,-188"/>
<text text-anchor="middle" x="505.6" y="-223.8" font-family="Times,serif" font-size="14.00">x</text>
</g>
<!-- nd165 -->
<g id="node17" class="node"><title>nd165</title>
<g id="a_node17"><a xlink:title="nd165&#45;BinOpGraph">
<ellipse fill="none" stroke="#000000" cx="443.6" cy="-172" rx="18" ry="18"/>
<text text-anchor="middle" x="443.6" y="-168.3" font-family="Times,serif" font-size="14.00">&lt;=</text>
</a>
</g>
</g>
<!-- nd164&#45;&gt;nd165 -->
<g id="edge20" class="edge"><title>nd164:n&#45;&gt;nd165:w</title>
<path fill="none" stroke="black" d="M339.6,-154C339.6,-193.05 386.55,-172 425.6,-172"/>
<text text-anchor="middle" x="391.6" y="-180.8" font-family="Times,serif" font-size="14.00">condition</text>
</g>
<!-- nd173 -->
<g id="node19" class="node"><title>nd173</title>
<g id="a_node19"><a xlink:title="nd173&#45;ConstListGraph">
<path fill="none" stroke="#000000" d="M437.6,-141C437.6,-141 449.6,-141 449.6,-141 455.6,-141 461.6,-135 461.6,-129 461.6,-129 461.6,-117 461.6,-117 461.6,-111 455.6,-105 449.6,-105 449.6,-105 437.6,-105 437.6,-105 431.6,-105 425.6,-111 425.6,-117 425.6,-117 425.6,-129 425.6,-129 425.6,-135 431.6,-141 437.6,-141"/>
<text text-anchor="middle" x="443.6" y="-119.3" font-family="Times,serif" font-size="14.00">[]</text>
</a>
</g>
</g>
<!-- nd164&#45;&gt;nd173 -->
<g id="edge21" class="edge"><title>nd164:e&#45;&gt;nd173:w</title>
<path fill="none" stroke="grey" d="M357.6,-135C361.265,-135 362.012,-133.746 365.6,-133 392.068,-127.495 398.565,-123 425.6,-123"/>
<text text-anchor="middle" x="391.6" y="-136.8" font-family="Times,serif" font-size="14.00">is true</text>
</g>
<!-- nd174 -->
<g id="node20" class="node"><title>nd174</title>
<g id="a_node20"><a xlink:title="nd174&#45;BinOpGraph">
<ellipse fill="none" stroke="#000000" cx="443.6" cy="-74" rx="18" ry="18"/>
<text text-anchor="middle" x="443.6" y="-70.3" font-family="Times,serif" font-size="14.00">::</text>
</a>
</g>
</g>
<!-- nd164&#45;&gt;nd174 -->
<g id="edge22" class="edge"><title>nd164:s&#45;&gt;nd174:w</title>
<path fill="none" stroke="grey" d="M339.6,-116C339.6,-73.4632 383.063,-74 425.6,-74"/>
<text text-anchor="middle" x="391.6" y="-83.8" font-family="Times,serif" font-size="14.00">is false</text>
</g>
<!-- nd169 -->
<g id="node18" class="node"><title>nd169</title>
<g id="a_node18"><a xlink:title="nd169&#45;ConstGraph">
<path fill="none" stroke="#000000" d="M499.6,-167C499.6,-167 511.6,-167 511.6,-167 517.6,-167 523.6,-161 523.6,-155 523.6,-155 523.6,-143 523.6,-143 523.6,-137 517.6,-131 511.6,-131 511.6,-131 499.6,-131 499.6,-131 493.6,-131 487.6,-137 487.6,-143 487.6,-143 487.6,-155 487.6,-155 487.6,-161 493.6,-167 499.6,-167"/>
<text text-anchor="middle" x="505.6" y="-145.3" font-family="Times,serif" font-size="14.00">0</text>
</a>
</g>
</g>
<!-- nd165&#45;&gt;nd169 -->
<g id="edge13" class="edge"><title>nd165:s&#45;&gt;nd169:w</title>
<path fill="none" stroke="black" d="M443.6,-153C443.6,-143.403 477.003,-149 486.6,-149"/>
</g>
<!-- nd165&#45;&gt;nd183 -->
<g id="edge23" class="edge"><title>nd165:n&#45;&gt;nd183:w</title>
<path fill="none" stroke="black" d="M443.6,-191C443.6,-218.169 477.431,-187 504.6,-187 504.6,-187 504.6,-187 621.6,-187 636.711,-187 640.489,-187 655.6,-187"/>
</g>
<!-- nd175 -->
<g id="node21" class="node"><title>nd175</title>
<g id="a_node21"><a xlink:title="nd175&#45;AppGraph">
<path fill="none" stroke="#000000" d="M491.038,-68C491.038,-68 484.819,-62 484.819,-62 481.709,-59 481.709,-53 484.819,-50 484.819,-50 491.038,-44 491.038,-44 494.147,-41 501.577,-38.0024 505.898,-38.0048 505.898,-38.0048 518.802,-38.012 518.802,-38.012 523.123,-38.0144 527.443,-42.3375 527.443,-46.6582 527.443,-46.6582 527.443,-65.3418 527.443,-65.3418 527.443,-69.6625 523.123,-73.9856 518.802,-73.988 518.802,-73.988 505.898,-73.9952 505.898,-73.9952 501.577,-73.9976 494.147,-71 491.038,-68"/>
<text text-anchor="middle" x="505.6" y="-52.3" font-family="Times,serif" font-size="14.00">@</text>
</a>
</g>
</g>
<!-- nd174&#45;&gt;nd175 -->
<g id="edge17" class="edge"><title>nd174:s&#45;&gt;nd175:w</title>
<path fill="none" stroke="black" d="M443.6,-55C443.6,-39.4381 463.038,-56 478.6,-56"/>
</g>
<!-- nd182 -->
<g id="node24" class="node"><title>nd182</title>
<g id="a_node24"><a xlink:title="nd182&#45;ContractGraph">
<ellipse fill="black" stroke="black" cx="620.6" cy="-109" rx="1.8" ry="1.8"/>
</a>
</g>
</g>
<!-- nd174&#45;&gt;nd182 -->
<g id="edge19" class="edge"><title>nd174:n&#45;&gt;nd182:w</title>
<path fill="none" stroke="black" d="M443.6,-93C443.6,-97.8537 612.746,-109 617.6,-109"/>
</g>
<!-- nd175&#45;&gt;nd203 -->
<g id="edge15" class="edge"><title>nd175:n&#45;&gt;nd203:w</title>
<path fill="none" stroke="black" d="M505.6,-75C505.6,-97.2622 533.338,-78 555.6,-78"/>
</g>
<!-- nd177 -->
<g id="node22" class="node"><title>nd177</title>
<g id="a_node22"><a xlink:title="nd177&#45;BinOpGraph">
<ellipse fill="none" stroke="#000000" cx="567.6" cy="-36" rx="18" ry="18"/>
<text text-anchor="middle" x="567.6" y="-32.3" font-family="Times,serif" font-size="14.00">&#45;</text>
</a>
</g>
</g>
<!-- nd175&#45;&gt;nd177 -->
<g id="edge16" class="edge"><title>nd175:s&#45;&gt;nd177:w</title>
<path fill="none" stroke="black" d="M505.6,-37C505.6,-17.4394 530.039,-36 549.6,-36"/>
</g>
<!-- nd181 -->
<g id="node23" class="node"><title>nd181</title>
<g id="a_node23"><a xlink:title="nd181&#45;ConstGraph">
<path fill="none" stroke="#000000" d="M614.6,-36C614.6,-36 626.6,-36 626.6,-36 632.6,-36 638.6,-30 638.6,-24 638.6,-24 638.6,-12 638.6,-12 638.6,-6 632.6,-0 626.6,-0 626.6,-0 614.6,-0 614.6,-0 608.6,-0 602.6,-6 602.6,-12 602.6,-12 602.6,-24 602.6,-24 602.6,-30 608.6,-36 614.6,-36"/>
<text text-anchor="middle" x="620.6" y="-14.3" font-family="Times,serif" font-size="14.00">1</text>
</a>
</g>
</g>
<!-- nd177&#45;&gt;nd181 -->
<g id="edge14" class="edge"><title>nd177:s&#45;&gt;nd181:w</title>
<path fill="none" stroke="black" d="M567.6,-17C567.6,-1.4381 587.038,-18 602.6,-18"/>
</g>
<!-- nd177&#45;&gt;nd182 -->
<g id="edge18" class="edge"><title>nd177:n&#45;&gt;nd182:w</title>
<path fill="none" stroke="black" d="M567.6,-55C567.6,-63.3029 578.899,-55.0976 585.6,-60 606.592,-75.3577 591.59,-109 617.6,-109"/>
</g>
<!-- nd182&#45;&gt;nd183 -->
<g id="edge24" class="edge"><title>nd182:e&#45;&gt;nd183:w</title>
<path fill="none" stroke="black" d="M623.6,-109C632.968,-109 646.232,-187 655.6,-187"/>
</g>
</g>
</svg>
