<?xml version="1.0" encoding="UTF-8" standalone="no"?>
<!DOCTYPE svg PUBLIC "-//W3C//DTD SVG 1.1//EN"
 "http://www.w3.org/Graphics/SVG/1.1/DTD/svg11.dtd">
<!-- Generated by graphviz version 2.38.0 (20140413.2041)
 -->
<!-- Title: G Pages: 1 -->
<svg width="287pt" height="142pt"
 viewBox="0.00 0.00 286.60 142.00" xmlns="http://www.w3.org/2000/svg" xmlns:xlink="http://www.w3.org/1999/xlink">
<g id="graph0" class="graph" transform="scale(1 1) rotate(0) translate(4 138)">
<title>G</title>
<polygon fill="white" stroke="none" points="-4,4 -4,-138 282.6,-138 282.6,4 -4,4"/>
<g id="clust1" class="cluster"><title>cluster_nd24</title>
<polygon fill="none" stroke="orange" points="99.8,-22 99.8,-42 119.4,-42 119.4,-22 99.8,-22"/>
</g>
<g id="clust2" class="cluster"><title>cluster_nd72</title>
<polygon fill="none" stroke="orange" points="250.8,-8 250.8,-28 270.4,-28 270.4,-8 250.8,-8"/>
</g>
<!-- nd1 -->
<g id="node1" class="node"><title>nd1</title>
<ellipse fill="black" stroke="black" cx="1.8" cy="-51" rx="1.8" ry="1.8"/>
</g>
<!-- nd2 -->
<g id="node2" class="node"><title>nd2</title>
<g id="a_node2"><a xlink:title="nd2&#45;AppGraph">
<path fill="none" stroke="#000000" d="M33.0377,-63C33.0377,-63 26.8188,-57 26.8188,-57 23.7094,-54 23.7094,-48 26.8188,-45 26.8188,-45 33.0377,-39 33.0377,-39 36.1471,-36 43.5772,-33.0024 47.898,-33.0048 47.898,-33.0048 60.802,-33.012 60.802,-33.012 65.1228,-33.0144 69.4435,-37.3375 69.4435,-41.6582 69.4435,-41.6582 69.4435,-60.3418 69.4435,-60.3418 69.4435,-64.6625 65.1228,-68.9856 60.802,-68.988 60.802,-68.988 47.898,-68.9952 47.898,-68.9952 43.5772,-68.9976 36.1471,-66 33.0377,-63"/>
<text text-anchor="middle" x="47.6" y="-47.3" font-family="Times,serif" font-size="14.00">@</text>
</a>
</g>
</g>
<!-- nd1&#45;&gt;nd2 -->
<g id="edge7" class="edge"><title>nd1:e&#45;&gt;nd2:w</title>
<path fill="none" stroke="#b70000" d="M3.6,-51C11.1556,-51 13.0444,-51 20.6,-51"/>
</g>
<!-- ndcluster_nd24 -->
<g id="node3" class="node"><title>ndcluster_nd24</title>
<g id="a_node3"><a xlink:title="nd24">
<ellipse fill="orange" stroke="orange" cx="109.6" cy="-32" rx="1.8" ry="1.8"/>
</a>
</g>
</g>
<!-- nd2&#45;&gt;ndcluster_nd24 -->
<g id="edge5" class="edge"><title>nd2:s&#45;&gt;ndcluster_nd24:w</title>
<path fill="none" stroke="black" d="M47.6,-32C47.6,-5.77778 80.3778,-32 106.6,-32"/>
</g>
<!-- nd6 -->
<g id="node6" class="node"><title>nd6</title>
<g id="a_node6"><a xlink:title="nd6&#45;AbsGraph">
<ellipse fill="none" stroke="#000000" cx="109.6" cy="-71" rx="18" ry="18"/>
<text text-anchor="middle" x="109.6" y="-67.3" font-family="Times,serif" font-size="14.00">λ</text>
</a>
</g>
</g>
<!-- nd2&#45;&gt;nd6 -->
<g id="edge6" class="edge"><title>nd2:n&#45;&gt;nd6:w</title>
<path fill="none" stroke="red" d="M47.6,-70C47.6,-86.1986 64.3603,-76.2541 81.2305,-72.3571"/>
<polygon fill="red" stroke="red" points="82.1388,-75.7682 91.6,-71 81.2303,-68.8274 82.1388,-75.7682"/>
</g>
<!-- nd68 -->
<g id="node4" class="node"><title>nd68</title>
<g id="a_node4"><a xlink:title="nd68&#45;RecurGraph">
<ellipse fill="none" stroke="#000000" cx="198.6" cy="-28" rx="11" ry="11"/>
<text text-anchor="middle" x="198.6" y="-24.3" font-family="Times,serif" font-size="14.00">rec</text>
</a>
</g>
</g>
<!-- ndcluster_nd24&#45;&gt;nd68 -->
<g id="edge4" class="edge"><title>ndcluster_nd24:n&#45;&gt;nd68:w</title>
<path fill="none" stroke="black" d="M109.6,-35C109.6,-52.1817 169.418,-28 186.6,-28"/>
</g>
<!-- ndcluster_nd72 -->
<g id="node5" class="node"><title>ndcluster_nd72</title>
<g id="a_node5"><a xlink:title="nd72">
<ellipse fill="orange" stroke="orange" cx="260.6" cy="-18" rx="1.8" ry="1.8"/>
</a>
</g>
</g>
<!-- nd68&#45;&gt;ndcluster_nd72 -->
<g id="edge8" class="edge"><title>nd68:n&#45;&gt;ndcluster_nd72:n</title>
<path fill="none" stroke="black" d="M198.6,-40C198.6,-44.909 204.804,-40.0472 209.6,-39 212.535,-38.359 260.6,-24.0046 260.6,-21"/>
</g>
<!-- nd68&#45;&gt;ndcluster_nd72 -->
<g id="edge9" class="edge"><title>nd68:s&#45;&gt;ndcluster_nd72:w</title>
<path fill="none" stroke="black" d="M198.6,-16C198.6,10.2373 231.363,-18 257.6,-18"/>
</g>
<!-- nd7 -->
<g id="node7" class="node"><title>nd7</title>
<g id="a_node7"><a xlink:title="nd7&#45;AppGraph">
<path fill="none" stroke="#000000" d="M184.038,-83C184.038,-83 177.819,-77 177.819,-77 174.709,-74 174.709,-68 177.819,-65 177.819,-65 184.038,-59 184.038,-59 187.147,-56 194.577,-53.0024 198.898,-53.0048 198.898,-53.0048 211.802,-53.012 211.802,-53.012 216.123,-53.0144 220.443,-57.3375 220.443,-61.6582 220.443,-61.6582 220.443,-80.3418 220.443,-80.3418 220.443,-84.6625 216.123,-88.9856 211.802,-88.988 211.802,-88.988 198.898,-88.9952 198.898,-88.9952 194.577,-88.9976 187.147,-86 184.038,-83"/>
<text text-anchor="middle" x="198.6" y="-67.3" font-family="Times,serif" font-size="14.00">@</text>
</a>
</g>
</g>
<!-- nd6&#45;&gt;nd7 -->
<g id="edge1" class="edge"><title>nd6:n&#45;&gt;nd7:n</title>
<path fill="none" stroke="grey" d="M109.6,-90C109.6,-129.556 198.6,-129.556 198.6,-90"/>
<text text-anchor="middle" x="149.6" y="-122.8" font-family="Times,serif" font-size="14.00">build</text>
</g>
<!-- nd6&#45;&gt;nd7 -->
<g id="edge3" class="edge"><title>nd6:s&#45;&gt;nd7:w</title>
<path fill="none" stroke="black" d="M109.6,-52C109.6,-43.9877 119.784,-51.2366 127.6,-53 148.211,-57.6502 150.471,-71 171.6,-71"/>
</g>
<!-- nd14 -->
<g id="node8" class="node"><title>nd14</title>
<g id="a_node8"><a xlink:title="nd14&#45;ConstGraph">
<path fill="none" stroke="#000000" d="M254.6,-73C254.6,-73 266.6,-73 266.6,-73 272.6,-73 278.6,-67 278.6,-61 278.6,-61 278.6,-49 278.6,-49 278.6,-43 272.6,-37 266.6,-37 266.6,-37 254.6,-37 254.6,-37 248.6,-37 242.6,-43 242.6,-49 242.6,-49 242.6,-61 242.6,-61 242.6,-67 248.6,-73 254.6,-73"/>
<text text-anchor="middle" x="260.6" y="-51.3" font-family="Times,serif" font-size="14.00">1000</text>
</a>
</g>
</g>
<!-- nd7&#45;&gt;nd14 -->
<g id="edge2" class="edge"><title>nd7:s&#45;&gt;nd14:w</title>
<path fill="none" stroke="black" d="M198.6,-52C198.6,-42.1995 232.8,-55 242.6,-55"/>
</g>
</g>
</svg>
