<?xml version="1.0" encoding="UTF-8" standalone="no"?>
<!DOCTYPE svg PUBLIC "-//W3C//DTD SVG 1.1//EN"
 "http://www.w3.org/Graphics/SVG/1.1/DTD/svg11.dtd">
<!-- Generated by graphviz version 2.38.0 (20140413.2041)
 -->
<!-- Title: G Pages: 1 -->
<svg width="498pt" height="237pt"
 viewBox="0.00 0.00 498.20 237.00" xmlns="http://www.w3.org/2000/svg" xmlns:xlink="http://www.w3.org/1999/xlink">
<g id="graph0" class="graph" transform="scale(1 1) rotate(0) translate(4 233)">
<title>G</title>
<polygon fill="white" stroke="none" points="-4,4 -4,-233 494.2,-233 494.2,4 -4,4"/>
<g id="clust1" class="cluster"><title>cluster_nd117</title>
<polygon fill="none" stroke="orange" points="382.8,-102 382.8,-122 402.4,-122 402.4,-102 382.8,-102"/>
</g>
<!-- nd1 -->
<g id="node1" class="node"><title>nd1</title>
<ellipse fill="black" stroke="black" cx="1.8" cy="-168" rx="1.8" ry="1.8"/>
</g>
<!-- nd42 -->
<g id="node3" class="node"><title>nd42</title>
<g id="a_node3"><a xlink:title="nd42&#45;BinOpGraph">
<ellipse fill="none" stroke="#000000" cx="38.6" cy="-168" rx="18" ry="18"/>
<text text-anchor="middle" x="38.6" y="-164.3" font-family="Times,serif" font-size="14.00">::</text>
</a>
</g>
</g>
<!-- nd1&#45;&gt;nd42 -->
<g id="edge2" class="edge"><title>nd1:e&#45;&gt;nd42:w</title>
<path fill="none" stroke="#b70000" d="M3.6,-168C11.1556,-168 13.0444,-168 20.6,-168"/>
</g>
<!-- nd14 -->
<g id="node2" class="node"><title>nd14</title>
<g id="a_node2"><a xlink:title="nd14&#45;ConstGraph">
<path fill="none" stroke="#000000" d="M189.6,-229C189.6,-229 201.6,-229 201.6,-229 207.6,-229 213.6,-223 213.6,-217 213.6,-217 213.6,-205 213.6,-205 213.6,-199 207.6,-193 201.6,-193 201.6,-193 189.6,-193 189.6,-193 183.6,-193 177.6,-199 177.6,-205 177.6,-205 177.6,-217 177.6,-217 177.6,-223 183.6,-229 189.6,-229"/>
<text text-anchor="middle" x="195.6" y="-207.3" font-family="Times,serif" font-size="14.00">1000</text>
</a>
</g>
</g>
<!-- nd59 -->
<g id="node4" class="node"><title>nd59</title>
<g id="a_node4"><a xlink:title="nd59&#45;ContractGraph">
<ellipse fill="black" stroke="black" cx="91.6" cy="-209" rx="1.8" ry="1.8"/>
</a>
</g>
</g>
<!-- nd42&#45;&gt;nd59 -->
<g id="edge1" class="edge"><title>nd42:n&#45;&gt;nd59:w</title>
<path fill="none" stroke="black" d="M38.6,-187C38.6,-211.278 64.3218,-209 88.6,-209"/>
</g>
<!-- nd74 -->
<g id="node8" class="node"><title>nd74</title>
<g id="a_node8"><a xlink:title="nd74&#45;IfGraph">
<ellipse fill="none" stroke="#000000" cx="91.6" cy="-115" rx="18" ry="18"/>
<text text-anchor="middle" x="91.6" y="-111.3" font-family="Times,serif" font-size="14.00">if</text>
</a>
</g>
</g>
<!-- nd42&#45;&gt;nd74 -->
<g id="edge16" class="edge"><title>nd42:s&#45;&gt;nd74:w</title>
<path fill="none" stroke="#b70000" d="M38.6,-149C38.6,-127.313 51.9131,-115 73.6,-115"/>
</g>
<!-- nd59&#45;&gt;nd14 -->
<g id="edge3" class="edge"><title>nd59:e&#45;&gt;nd14:w</title>
<path fill="none" stroke="black" d="M94.6,-209C131.5,-209 140.7,-211 177.6,-211"/>
<text text-anchor="middle" x="143.6" y="-214.8" font-family="Times,serif" font-size="14.00">x</text>
</g>
<!-- nd111 -->
<g id="node5" class="node"><title>nd111</title>
<g id="a_node5"><a xlink:title="nd111&#45;ConstGraph">
<path fill="none" stroke="#000000" d="M466.2,-91C466.2,-91 478.2,-91 478.2,-91 484.2,-91 490.2,-85 490.2,-79 490.2,-79 490.2,-67 490.2,-67 490.2,-61 484.2,-55 478.2,-55 478.2,-55 466.2,-55 466.2,-55 460.2,-55 454.2,-61 454.2,-67 454.2,-67 454.2,-79 454.2,-79 454.2,-85 460.2,-91 466.2,-91"/>
<text text-anchor="middle" x="472.2" y="-69.3" font-family="Times,serif" font-size="14.00">999</text>
</a>
</g>
</g>
<!-- nd113 -->
<g id="node6" class="node"><title>nd113</title>
<g id="a_node6"><a xlink:title="nd113&#45;RecurGraph">
<ellipse fill="none" stroke="#000000" cx="339.6" cy="-114" rx="11" ry="11"/>
<text text-anchor="middle" x="339.6" y="-110.3" font-family="Times,serif" font-size="14.00">rec</text>
</a>
</g>
</g>
<!-- ndcluster_nd117 -->
<g id="node7" class="node"><title>ndcluster_nd117</title>
<g id="a_node7"><a xlink:title="nd117">
<ellipse fill="orange" stroke="orange" cx="392.6" cy="-112" rx="1.8" ry="1.8"/>
</a>
</g>
</g>
<!-- nd113&#45;&gt;ndcluster_nd117 -->
<g id="edge18" class="edge"><title>nd113:n&#45;&gt;ndcluster_nd117:n</title>
<path fill="none" stroke="black" d="M339.6,-126C339.6,-150.058 392.6,-139.058 392.6,-115"/>
</g>
<!-- nd113&#45;&gt;ndcluster_nd117 -->
<g id="edge19" class="edge"><title>nd113:s&#45;&gt;ndcluster_nd117:w</title>
<path fill="none" stroke="black" d="M339.6,-102C339.6,-97.091 345.753,-102.224 350.6,-103 368.165,-105.812 371.811,-112 389.6,-112"/>
</g>
<!-- nd75 -->
<g id="node9" class="node"><title>nd75</title>
<g id="a_node9"><a xlink:title="nd75&#45;BinOpGraph">
<ellipse fill="none" stroke="#000000" cx="195.6" cy="-162" rx="18" ry="18"/>
<text text-anchor="middle" x="195.6" y="-158.3" font-family="Times,serif" font-size="14.00">a &lt;= b</text>
</a>
</g>
</g>
<!-- nd74&#45;&gt;nd75 -->
<g id="edge11" class="edge"><title>nd74:n&#45;&gt;nd75:w</title>
<path fill="none" stroke="#b70000" d="M91.6,-134C91.6,-174.197 137.403,-162 177.6,-162"/>
<text text-anchor="middle" x="143.6" y="-167.8" font-family="Times,serif" font-size="14.00">condition</text>
</g>
<!-- nd83 -->
<g id="node11" class="node"><title>nd83</title>
<g id="a_node11"><a xlink:title="nd83&#45;ConstListGraph">
<path fill="none" stroke="#000000" d="M189.6,-131C189.6,-131 201.6,-131 201.6,-131 207.6,-131 213.6,-125 213.6,-119 213.6,-119 213.6,-107 213.6,-107 213.6,-101 207.6,-95 201.6,-95 201.6,-95 189.6,-95 189.6,-95 183.6,-95 177.6,-101 177.6,-107 177.6,-107 177.6,-119 177.6,-119 177.6,-125 183.6,-131 189.6,-131"/>
<text text-anchor="middle" x="195.6" y="-109.3" font-family="Times,serif" font-size="14.00">[]</text>
</a>
</g>
</g>
<!-- nd74&#45;&gt;nd83 -->
<g id="edge12" class="edge"><title>nd74:e&#45;&gt;nd83:w</title>
<path fill="none" stroke="grey" d="M109.6,-115C139.835,-115 147.365,-113 177.6,-113"/>
<text text-anchor="middle" x="143.6" y="-118.8" font-family="Times,serif" font-size="14.00">is true</text>
</g>
<!-- nd84 -->
<g id="node12" class="node"><title>nd84</title>
<g id="a_node12"><a xlink:title="nd84&#45;BinOpGraph">
<ellipse fill="none" stroke="#000000" cx="195.6" cy="-64" rx="18" ry="18"/>
<text text-anchor="middle" x="195.6" y="-60.3" font-family="Times,serif" font-size="14.00">::</text>
</a>
</g>
</g>
<!-- nd74&#45;&gt;nd84 -->
<g id="edge13" class="edge"><title>nd74:s&#45;&gt;nd84:w</title>
<path fill="none" stroke="grey" d="M91.6,-96C91.6,-55.2175 136.818,-64 177.6,-64"/>
<text text-anchor="middle" x="143.6" y="-68.8" font-family="Times,serif" font-size="14.00">is false</text>
</g>
<!-- nd79 -->
<g id="node10" class="node"><title>nd79</title>
<g id="a_node10"><a xlink:title="nd79&#45;ConstGraph">
<path fill="none" stroke="#000000" d="M271.6,-155C271.6,-155 283.6,-155 283.6,-155 289.6,-155 295.6,-149 295.6,-143 295.6,-143 295.6,-131 295.6,-131 295.6,-125 289.6,-119 283.6,-119 283.6,-119 271.6,-119 271.6,-119 265.6,-119 259.6,-125 259.6,-131 259.6,-131 259.6,-143 259.6,-143 259.6,-149 265.6,-155 271.6,-155"/>
<text text-anchor="middle" x="277.6" y="-133.3" font-family="Times,serif" font-size="14.00">0</text>
</a>
</g>
</g>
<!-- nd75&#45;&gt;nd79 -->
<g id="edge4" class="edge"><title>nd75:s&#45;&gt;nd79:w</title>
<path fill="none" stroke="black" d="M195.6,-143C195.6,-135.968 251.568,-137 258.6,-137"/>
<text text-anchor="middle" x="232.1" y="-141.8" font-family="Times,serif" font-size="14.00">b</text>
</g>
<!-- nd143 -->
<g id="node18" class="node"><title>nd143</title>
<g id="a_node18"><a xlink:title="nd143&#45;ConstGraph">
<path fill="none" stroke="#000000" d="M271.6,-204C271.6,-204 283.6,-204 283.6,-204 289.6,-204 295.6,-198 295.6,-192 295.6,-192 295.6,-180 295.6,-180 295.6,-174 289.6,-168 283.6,-168 283.6,-168 271.6,-168 271.6,-168 265.6,-168 259.6,-174 259.6,-180 259.6,-180 259.6,-192 259.6,-192 259.6,-198 265.6,-204 271.6,-204"/>
<text text-anchor="middle" x="277.6" y="-182.3" font-family="Times,serif" font-size="14.00">999</text>
</a>
</g>
</g>
<!-- nd75&#45;&gt;nd143 -->
<g id="edge14" class="edge"><title>nd75:n&#45;&gt;nd143:w</title>
<path fill="none" stroke="red" d="M204.964,-184.817C221.21,-187.114 253.388,-186 258.6,-186"/>
<polygon fill="red" stroke="red" points="206.181,-181.534 195.6,-181 203.539,-188.016 206.181,-181.534"/>
<text text-anchor="middle" x="232.1" y="-190.8" font-family="Times,serif" font-size="14.00">a, x</text>
</g>
<!-- nd85 -->
<g id="node13" class="node"><title>nd85</title>
<g id="a_node13"><a xlink:title="nd85&#45;AppGraph">
<path fill="none" stroke="#000000" d="M263.038,-57C263.038,-57 256.819,-51 256.819,-51 253.709,-48 253.709,-42 256.819,-39 256.819,-39 263.038,-33 263.038,-33 266.147,-30 273.577,-27.0024 277.898,-27.0048 277.898,-27.0048 290.802,-27.012 290.802,-27.012 295.123,-27.0144 299.443,-31.3375 299.443,-35.6582 299.443,-35.6582 299.443,-54.3418 299.443,-54.3418 299.443,-58.6625 295.123,-62.9856 290.802,-62.988 290.802,-62.988 277.898,-62.9952 277.898,-62.9952 273.577,-62.9976 266.147,-60 263.038,-57"/>
<text text-anchor="middle" x="277.6" y="-41.3" font-family="Times,serif" font-size="14.00">@</text>
</a>
</g>
</g>
<!-- nd84&#45;&gt;nd85 -->
<g id="edge8" class="edge"><title>nd84:s&#45;&gt;nd85:w</title>
<path fill="none" stroke="black" d="M195.6,-45C195.6,-20.5556 226.156,-45 250.6,-45"/>
</g>
<!-- nd92 -->
<g id="node16" class="node"><title>nd92</title>
<g id="a_node16"><a xlink:title="nd92&#45;ContractGraph">
<ellipse fill="black" stroke="black" cx="392.6" cy="-73" rx="1.8" ry="1.8"/>
</a>
</g>
</g>
<!-- nd84&#45;&gt;nd92 -->
<g id="edge10" class="edge"><title>nd84:n&#45;&gt;nd92:w</title>
<path fill="none" stroke="black" d="M195.6,-83C195.6,-93.7921 378.808,-73 389.6,-73"/>
</g>
<!-- nd85&#45;&gt;nd113 -->
<g id="edge6" class="edge"><title>nd85:n&#45;&gt;nd113:w</title>
<path fill="none" stroke="black" d="M277.6,-64C277.6,-95.427 296.173,-114 327.6,-114"/>
</g>
<!-- nd87 -->
<g id="node14" class="node"><title>nd87</title>
<g id="a_node14"><a xlink:title="nd87&#45;BinOpGraph">
<ellipse fill="none" stroke="#000000" cx="339.6" cy="-36" rx="18" ry="18"/>
<text text-anchor="middle" x="339.6" y="-32.3" font-family="Times,serif" font-size="14.00">&#45;</text>
</a>
</g>
</g>
<!-- nd85&#45;&gt;nd87 -->
<g id="edge7" class="edge"><title>nd85:s&#45;&gt;nd87:w</title>
<path fill="none" stroke="black" d="M277.6,-26C277.6,-13.9918 293.001,-23.8902 304.6,-27 312.857,-29.214 313.051,-36 321.6,-36"/>
</g>
<!-- nd91 -->
<g id="node15" class="node"><title>nd91</title>
<g id="a_node15"><a xlink:title="nd91&#45;ConstGraph">
<path fill="none" stroke="#000000" d="M386.6,-36C386.6,-36 398.6,-36 398.6,-36 404.6,-36 410.6,-30 410.6,-24 410.6,-24 410.6,-12 410.6,-12 410.6,-6 404.6,-0 398.6,-0 398.6,-0 386.6,-0 386.6,-0 380.6,-0 374.6,-6 374.6,-12 374.6,-12 374.6,-24 374.6,-24 374.6,-30 380.6,-36 386.6,-36"/>
<text text-anchor="middle" x="392.6" y="-14.3" font-family="Times,serif" font-size="14.00">1</text>
</a>
</g>
</g>
<!-- nd87&#45;&gt;nd91 -->
<g id="edge5" class="edge"><title>nd87:s&#45;&gt;nd91:w</title>
<path fill="none" stroke="black" d="M339.6,-17C339.6,-1.4381 359.038,-18 374.6,-18"/>
</g>
<!-- nd87&#45;&gt;nd92 -->
<g id="edge9" class="edge"><title>nd87:n&#45;&gt;nd92:w</title>
<path fill="none" stroke="black" d="M339.6,-55C339.6,-66.8092 377.791,-73 389.6,-73"/>
</g>
<!-- nd93 -->
<g id="node17" class="node"><title>nd93</title>
<g id="a_node17"><a xlink:title="nd93&#45;ContractGraph">
<ellipse fill="black" stroke="black" cx="429.4" cy="-73" rx="1.8" ry="1.8"/>
</a>
</g>
</g>
<!-- nd92&#45;&gt;nd93 -->
<g id="edge15" class="edge"><title>nd92:e&#45;&gt;nd93:w</title>
<path fill="none" stroke="black" d="M395.6,-73C409.822,-73 413.378,-73 427.6,-73"/>
</g>
<!-- nd93&#45;&gt;nd111 -->
<g id="edge17" class="edge"><title>nd93:e&#45;&gt;nd111:w</title>
<path fill="none" stroke="black" d="M431.2,-73C441.422,-73 443.978,-73 454.2,-73"/>
<text text-anchor="middle" x="442.7" y="-76.8" font-family="Times,serif" font-size="14.00">x</text>
</g>
</g>
</svg>
