<?xml version="1.0" encoding="UTF-8" standalone="no"?>
<!DOCTYPE svg PUBLIC "-//W3C//DTD SVG 1.1//EN"
 "http://www.w3.org/Graphics/SVG/1.1/DTD/svg11.dtd">
<!-- Generated by graphviz version 2.38.0 (20140413.2041)
 -->
<!-- Title: G Pages: 1 -->
<svg width="549pt" height="256pt"
 viewBox="0.00 0.00 549.20 256.00" xmlns="http://www.w3.org/2000/svg" xmlns:xlink="http://www.w3.org/1999/xlink">
<g id="graph0" class="graph" transform="scale(1 1) rotate(0) translate(4 252)">
<title>G</title>
<polygon fill="white" stroke="none" points="-4,4 -4,-252 545.2,-252 545.2,4 -4,4"/>
<g id="clust1" class="cluster"><title>cluster_nd162</title>
<polygon fill="none" stroke="orange" points="433.8,-96 433.8,-116 453.4,-116 453.4,-96 433.8,-96"/>
</g>
<!-- nd1 -->
<g id="node1" class="node"><title>nd1</title>
<ellipse fill="black" stroke="black" cx="1.8" cy="-205" rx="1.8" ry="1.8"/>
</g>
<!-- nd42 -->
<g id="node3" class="node"><title>nd42</title>
<g id="a_node3"><a xlink:title="nd42&#45;BinOpGraph">
<ellipse fill="none" stroke="#000000" cx="38.6" cy="-205" rx="18" ry="18"/>
<text text-anchor="middle" x="38.6" y="-201.3" font-family="Times,serif" font-size="14.00">::</text>
</a>
</g>
</g>
<!-- nd1&#45;&gt;nd42 -->
<g id="edge2" class="edge"><title>nd1:e&#45;&gt;nd42:w</title>
<path fill="none" stroke="#b70000" d="M3.6,-205C11.1556,-205 13.0444,-205 20.6,-205"/>
</g>
<!-- nd14 -->
<g id="node2" class="node"><title>nd14</title>
<g id="a_node2"><a xlink:title="nd14&#45;ConstGraph">
<path fill="none" stroke="#000000" d="M144.6,-248C144.6,-248 156.6,-248 156.6,-248 162.6,-248 168.6,-242 168.6,-236 168.6,-236 168.6,-224 168.6,-224 168.6,-218 162.6,-212 156.6,-212 156.6,-212 144.6,-212 144.6,-212 138.6,-212 132.6,-218 132.6,-224 132.6,-224 132.6,-236 132.6,-236 132.6,-242 138.6,-248 144.6,-248"/>
<text text-anchor="middle" x="150.6" y="-226.3" font-family="Times,serif" font-size="14.00">1000</text>
</a>
</g>
</g>
<!-- nd59 -->
<g id="node4" class="node"><title>nd59</title>
<g id="a_node4"><a xlink:title="nd59&#45;ContractGraph">
<ellipse fill="black" stroke="black" cx="91.6" cy="-229" rx="1.8" ry="1.8"/>
</a>
</g>
</g>
<!-- nd42&#45;&gt;nd59 -->
<g id="edge1" class="edge"><title>nd42:n&#45;&gt;nd59:w</title>
<path fill="none" stroke="black" d="M38.6,-224C38.6,-246.333 66.2669,-229 88.6,-229"/>
</g>
<!-- nd84 -->
<g id="node6" class="node"><title>nd84</title>
<g id="a_node6"><a xlink:title="nd84&#45;BinOpGraph">
<ellipse fill="none" stroke="#000000" cx="91.6" cy="-179" rx="18" ry="18"/>
<text text-anchor="middle" x="91.6" y="-175.3" font-family="Times,serif" font-size="14.00">::</text>
</a>
</g>
</g>
<!-- nd42&#45;&gt;nd84 -->
<g id="edge5" class="edge"><title>nd42:s&#45;&gt;nd84:w</title>
<path fill="none" stroke="#b70000" d="M38.6,-186C38.6,-170.136 57.7364,-179 73.6,-179"/>
</g>
<!-- nd59&#45;&gt;nd14 -->
<g id="edge3" class="edge"><title>nd59:e&#45;&gt;nd14:w</title>
<path fill="none" stroke="black" d="M94.6,-229C111.495,-229 115.705,-230 132.6,-230"/>
<text text-anchor="middle" x="121.1" y="-232.8" font-family="Times,serif" font-size="14.00">x</text>
</g>
<!-- nd111 -->
<g id="node5" class="node"><title>nd111</title>
<g id="a_node5"><a xlink:title="nd111&#45;ConstGraph">
<path fill="none" stroke="#000000" d="M248.6,-223C248.6,-223 260.6,-223 260.6,-223 266.6,-223 272.6,-217 272.6,-211 272.6,-211 272.6,-199 272.6,-199 272.6,-193 266.6,-187 260.6,-187 260.6,-187 248.6,-187 248.6,-187 242.6,-187 236.6,-193 236.6,-199 236.6,-199 236.6,-211 236.6,-211 236.6,-217 242.6,-223 248.6,-223"/>
<text text-anchor="middle" x="254.6" y="-201.3" font-family="Times,serif" font-size="14.00">999</text>
</a>
</g>
</g>
<!-- nd92 -->
<g id="node7" class="node"><title>nd92</title>
<g id="a_node7"><a xlink:title="nd92&#45;ContractGraph">
<ellipse fill="black" stroke="black" cx="150.6" cy="-197" rx="1.8" ry="1.8"/>
</a>
</g>
</g>
<!-- nd84&#45;&gt;nd92 -->
<g id="edge4" class="edge"><title>nd84:n&#45;&gt;nd92:w</title>
<path fill="none" stroke="black" d="M91.6,-198C91.6,-222.893 122.707,-197 147.6,-197"/>
</g>
<!-- nd119 -->
<g id="node11" class="node"><title>nd119</title>
<g id="a_node11"><a xlink:title="nd119&#45;IfGraph">
<ellipse fill="none" stroke="#000000" cx="150.6" cy="-115" rx="18" ry="18"/>
<text text-anchor="middle" x="150.6" y="-111.3" font-family="Times,serif" font-size="14.00">if</text>
</a>
</g>
</g>
<!-- nd84&#45;&gt;nd119 -->
<g id="edge17" class="edge"><title>nd84:s&#45;&gt;nd119:w</title>
<path fill="none" stroke="#b70000" d="M91.6,-160C91.6,-132.944 105.544,-115 132.6,-115"/>
</g>
<!-- nd92&#45;&gt;nd111 -->
<g id="edge6" class="edge"><title>nd92:e&#45;&gt;nd111:w</title>
<path fill="none" stroke="black" d="M153.6,-197C190.66,-197 199.54,-205 236.6,-205"/>
<text text-anchor="middle" x="202.6" y="-208.8" font-family="Times,serif" font-size="14.00">x</text>
</g>
<!-- nd156 -->
<g id="node8" class="node"><title>nd156</title>
<g id="a_node8"><a xlink:title="nd156&#45;ConstGraph">
<path fill="none" stroke="#000000" d="M517.2,-85C517.2,-85 529.2,-85 529.2,-85 535.2,-85 541.2,-79 541.2,-73 541.2,-73 541.2,-61 541.2,-61 541.2,-55 535.2,-49 529.2,-49 529.2,-49 517.2,-49 517.2,-49 511.2,-49 505.2,-55 505.2,-61 505.2,-61 505.2,-73 505.2,-73 505.2,-79 511.2,-85 517.2,-85"/>
<text text-anchor="middle" x="523.2" y="-63.3" font-family="Times,serif" font-size="14.00">998</text>
</a>
</g>
</g>
<!-- nd158 -->
<g id="node9" class="node"><title>nd158</title>
<g id="a_node9"><a xlink:title="nd158&#45;RecurGraph">
<ellipse fill="none" stroke="#000000" cx="390.6" cy="-108" rx="11" ry="11"/>
<text text-anchor="middle" x="390.6" y="-104.3" font-family="Times,serif" font-size="14.00">rec</text>
</a>
</g>
</g>
<!-- ndcluster_nd162 -->
<g id="node10" class="node"><title>ndcluster_nd162</title>
<g id="a_node10"><a xlink:title="nd162">
<ellipse fill="orange" stroke="orange" cx="443.6" cy="-106" rx="1.8" ry="1.8"/>
</a>
</g>
</g>
<!-- nd158&#45;&gt;ndcluster_nd162 -->
<g id="edge19" class="edge"><title>nd158:n&#45;&gt;ndcluster_nd162:n</title>
<path fill="none" stroke="black" d="M390.6,-120C390.6,-144.058 443.6,-133.058 443.6,-109"/>
</g>
<!-- nd158&#45;&gt;ndcluster_nd162 -->
<g id="edge20" class="edge"><title>nd158:s&#45;&gt;ndcluster_nd162:w</title>
<path fill="none" stroke="black" d="M390.6,-96C390.6,-91.091 396.753,-96.2241 401.6,-97 419.165,-99.8118 422.811,-106 440.6,-106"/>
</g>
<!-- nd128 -->
<g id="node12" class="node"><title>nd128</title>
<g id="a_node12"><a xlink:title="nd128&#45;ConstListGraph">
<path fill="none" stroke="#000000" d="M248.6,-125C248.6,-125 260.6,-125 260.6,-125 266.6,-125 272.6,-119 272.6,-113 272.6,-113 272.6,-101 272.6,-101 272.6,-95 266.6,-89 260.6,-89 260.6,-89 248.6,-89 248.6,-89 242.6,-89 236.6,-95 236.6,-101 236.6,-101 236.6,-113 236.6,-113 236.6,-119 242.6,-125 248.6,-125"/>
<text text-anchor="middle" x="254.6" y="-103.3" font-family="Times,serif" font-size="14.00">[]</text>
</a>
</g>
</g>
<!-- nd119&#45;&gt;nd128 -->
<g id="edge14" class="edge"><title>nd119:e&#45;&gt;nd128:w</title>
<path fill="none" stroke="grey" d="M168.6,-115C199.031,-115 206.169,-107 236.6,-107"/>
<text text-anchor="middle" x="202.6" y="-118.8" font-family="Times,serif" font-size="14.00">is true</text>
</g>
<!-- nd129 -->
<g id="node13" class="node"><title>nd129</title>
<g id="a_node13"><a xlink:title="nd129&#45;BinOpGraph">
<ellipse fill="none" stroke="#000000" cx="254.6" cy="-58" rx="18" ry="18"/>
<text text-anchor="middle" x="254.6" y="-54.3" font-family="Times,serif" font-size="14.00">a :: b</text>
</a>
</g>
</g>
<!-- nd119&#45;&gt;nd129 -->
<g id="edge15" class="edge"><title>nd119:s&#45;&gt;nd129:w</title>
<path fill="none" stroke="red" d="M150.6,-96C150.6,-57.6406 187.857,-57.6853 226.293,-57.9508"/>
<polygon fill="red" stroke="red" points="226.583,-61.4521 236.6,-58 226.617,-54.4522 226.583,-61.4521"/>
<text text-anchor="middle" x="202.6" y="-65.8" font-family="Times,serif" font-size="14.00">is false</text>
</g>
<!-- nd192 -->
<g id="node19" class="node"><title>nd192</title>
<g id="a_node19"><a xlink:title="nd192&#45;ConstGraph">
<path fill="none" stroke="#000000" d="M248.6,-174C248.6,-174 260.6,-174 260.6,-174 266.6,-174 272.6,-168 272.6,-162 272.6,-162 272.6,-150 272.6,-150 272.6,-144 266.6,-138 260.6,-138 260.6,-138 248.6,-138 248.6,-138 242.6,-138 236.6,-144 236.6,-150 236.6,-150 236.6,-162 236.6,-162 236.6,-168 242.6,-174 248.6,-174"/>
<text text-anchor="middle" x="254.6" y="-152.3" font-family="Times,serif" font-size="14.00">false</text>
</a>
</g>
</g>
<!-- nd119&#45;&gt;nd192 -->
<g id="edge13" class="edge"><title>nd119:n&#45;&gt;nd192:w</title>
<path fill="none" stroke="black" d="M150.6,-134C150.6,-173.453 197.147,-156 236.6,-156"/>
<text text-anchor="middle" x="202.6" y="-163.8" font-family="Times,serif" font-size="14.00">condition</text>
</g>
<!-- nd130 -->
<g id="node14" class="node"><title>nd130</title>
<g id="a_node14"><a xlink:title="nd130&#45;AppGraph">
<path fill="none" stroke="#000000" d="M308.038,-51C308.038,-51 301.819,-45 301.819,-45 298.709,-42 298.709,-36 301.819,-33 301.819,-33 308.038,-27 308.038,-27 311.147,-24 318.577,-21.0024 322.898,-21.0048 322.898,-21.0048 335.802,-21.012 335.802,-21.012 340.123,-21.0144 344.443,-25.3375 344.443,-29.6582 344.443,-29.6582 344.443,-48.3418 344.443,-48.3418 344.443,-52.6625 340.123,-56.9856 335.802,-56.988 335.802,-56.988 322.898,-56.9952 322.898,-56.9952 318.577,-56.9976 311.147,-54 308.038,-51"/>
<text text-anchor="middle" x="322.6" y="-35.3" font-family="Times,serif" font-size="14.00">@</text>
</a>
</g>
</g>
<!-- nd129&#45;&gt;nd130 -->
<g id="edge10" class="edge"><title>nd129:s&#45;&gt;nd130:w</title>
<path fill="none" stroke="black" d="M254.6,-39C254.6,-20.7778 277.378,-39 295.6,-39"/>
<text text-anchor="middle" x="284.1" y="-42.8" font-family="Times,serif" font-size="14.00">b</text>
</g>
<!-- nd137 -->
<g id="node17" class="node"><title>nd137</title>
<g id="a_node17"><a xlink:title="nd137&#45;ContractGraph">
<ellipse fill="black" stroke="black" cx="443.6" cy="-67" rx="1.8" ry="1.8"/>
</a>
</g>
</g>
<!-- nd129&#45;&gt;nd137 -->
<g id="edge12" class="edge"><title>nd129:n&#45;&gt;nd137:w</title>
<path fill="none" stroke="black" d="M254.6,-77C254.6,-87.3483 430.252,-67 440.6,-67"/>
<text text-anchor="middle" x="361.1" y="-78.8" font-family="Times,serif" font-size="14.00">a</text>
</g>
<!-- nd130&#45;&gt;nd158 -->
<g id="edge8" class="edge"><title>nd130:n&#45;&gt;nd158:w</title>
<path fill="none" stroke="black" d="M322.6,-58C322.6,-76.7985 350.148,-50.9786 364.6,-63 380.703,-76.3945 357.654,-108 378.6,-108"/>
</g>
<!-- nd132 -->
<g id="node15" class="node"><title>nd132</title>
<g id="a_node15"><a xlink:title="nd132&#45;BinOpGraph">
<ellipse fill="none" stroke="#000000" cx="390.6" cy="-36" rx="18" ry="18"/>
<text text-anchor="middle" x="390.6" y="-32.3" font-family="Times,serif" font-size="14.00">&#45;</text>
</a>
</g>
</g>
<!-- nd130&#45;&gt;nd132 -->
<g id="edge9" class="edge"><title>nd130:s&#45;&gt;nd132:w</title>
<path fill="none" stroke="black" d="M322.6,-20C322.6,-7.99177 338.155,-17.3658 349.6,-21 361.232,-24.6934 360.396,-36 372.6,-36"/>
</g>
<!-- nd136 -->
<g id="node16" class="node"><title>nd136</title>
<g id="a_node16"><a xlink:title="nd136&#45;ConstGraph">
<path fill="none" stroke="#000000" d="M437.6,-36C437.6,-36 449.6,-36 449.6,-36 455.6,-36 461.6,-30 461.6,-24 461.6,-24 461.6,-12 461.6,-12 461.6,-6 455.6,-0 449.6,-0 449.6,-0 437.6,-0 437.6,-0 431.6,-0 425.6,-6 425.6,-12 425.6,-12 425.6,-24 425.6,-24 425.6,-30 431.6,-36 437.6,-36"/>
<text text-anchor="middle" x="443.6" y="-14.3" font-family="Times,serif" font-size="14.00">1</text>
</a>
</g>
</g>
<!-- nd132&#45;&gt;nd136 -->
<g id="edge7" class="edge"><title>nd132:s&#45;&gt;nd136:w</title>
<path fill="none" stroke="black" d="M390.6,-17C390.6,-1.4381 410.038,-18 425.6,-18"/>
</g>
<!-- nd132&#45;&gt;nd137 -->
<g id="edge11" class="edge"><title>nd132:n&#45;&gt;nd137:w</title>
<path fill="none" stroke="black" d="M390.6,-55C390.6,-66.4266 429.173,-67 440.6,-67"/>
</g>
<!-- nd138 -->
<g id="node18" class="node"><title>nd138</title>
<g id="a_node18"><a xlink:title="nd138&#45;ContractGraph">
<ellipse fill="black" stroke="black" cx="480.4" cy="-67" rx="1.8" ry="1.8"/>
</a>
</g>
</g>
<!-- nd137&#45;&gt;nd138 -->
<g id="edge16" class="edge"><title>nd137:e&#45;&gt;nd138:w</title>
<path fill="none" stroke="black" d="M446.6,-67C460.822,-67 464.378,-67 478.6,-67"/>
</g>
<!-- nd138&#45;&gt;nd156 -->
<g id="edge18" class="edge"><title>nd138:e&#45;&gt;nd156:w</title>
<path fill="none" stroke="black" d="M482.2,-67C492.422,-67 494.978,-67 505.2,-67"/>
<text text-anchor="middle" x="493.7" y="-70.8" font-family="Times,serif" font-size="14.00">x</text>
</g>
</g>
</svg>
