<?xml version="1.0" encoding="UTF-8" standalone="no"?>
<!DOCTYPE svg PUBLIC "-//W3C//DTD SVG 1.1//EN"
 "http://www.w3.org/Graphics/SVG/1.1/DTD/svg11.dtd">
<!-- Generated by graphviz version 2.38.0 (20140413.2041)
 -->
<!-- Title: G Pages: 1 -->
<svg width="172pt" height="82pt"
 viewBox="0.00 0.00 172.20 82.00" xmlns="http://www.w3.org/2000/svg" xmlns:xlink="http://www.w3.org/1999/xlink">
<g id="graph0" class="graph" transform="scale(1 1) rotate(0) translate(4 78)">
<title>G</title>
<polygon fill="white" stroke="none" points="-4,4 -4,-78 168.2,-78 168.2,4 -4,4"/>
<g id="clust1" class="cluster"><title>cluster_nd4</title>
<polygon fill="none" stroke="orange" points="98.8,-45 98.8,-65 118.4,-65 118.4,-45 98.8,-45"/>
</g>
<g id="clust2" class="cluster"><title>cluster_nd24</title>
<polygon fill="none" stroke="orange" points="136.6,-8 136.6,-28 156.2,-28 156.2,-8 136.6,-8"/>
</g>
<!-- nd1 -->
<g id="node1" class="node"><title>nd1</title>
<ellipse fill="black" stroke="black" cx="1.8" cy="-37" rx="1.8" ry="1.8"/>
</g>
<!-- nd2 -->
<g id="node2" class="node"><title>nd2</title>
<g id="a_node2"><a xlink:title="nd2&#45;AppGraph">
<path fill="none" stroke="#000000" d="M33.0377,-49C33.0377,-49 26.8188,-43 26.8188,-43 23.7094,-40 23.7094,-34 26.8188,-31 26.8188,-31 33.0377,-25 33.0377,-25 36.1471,-22 43.5772,-19.0024 47.898,-19.0048 47.898,-19.0048 60.802,-19.012 60.802,-19.012 65.1228,-19.0144 69.4435,-23.3375 69.4435,-27.6582 69.4435,-27.6582 69.4435,-46.3418 69.4435,-46.3418 69.4435,-50.6625 65.1228,-54.9856 60.802,-54.988 60.802,-54.988 47.898,-54.9952 47.898,-54.9952 43.5772,-54.9976 36.1471,-52 33.0377,-49"/>
<text text-anchor="middle" x="47.6" y="-33.3" font-family="Times,serif" font-size="14.00">b@a</text>
</a>
</g>
</g>
<!-- nd1&#45;&gt;nd2 -->
<g id="edge5" class="edge"><title>nd1:e&#45;&gt;nd2:w</title>
<path fill="none" stroke="red" d="M3.6,-37C6.43333,-37 8.46979,-37 10.307,-37"/>
<polygon fill="red" stroke="red" points="10.6,-40.5001 20.6,-37 10.6,-33.5001 10.6,-40.5001"/>
</g>
<!-- ndcluster_nd4 -->
<g id="node3" class="node"><title>ndcluster_nd4</title>
<g id="a_node3"><a xlink:title="nd4">
<ellipse fill="orange" stroke="orange" cx="108.6" cy="-55" rx="1.8" ry="1.8"/>
</a>
</g>
</g>
<!-- nd2&#45;&gt;ndcluster_nd4 -->
<g id="edge3" class="edge"><title>nd2:n&#45;&gt;ndcluster_nd4:w</title>
<path fill="none" stroke="black" d="M47.6,-56C47.6,-81.7816 79.8184,-55 105.6,-55"/>
<text text-anchor="middle" x="86.1" y="-62.8" font-family="Times,serif" font-size="14.00">a</text>
</g>
<!-- nd22 -->
<g id="node5" class="node"><title>nd22</title>
<g id="a_node5"><a xlink:title="nd22&#45;RecurGraph">
<ellipse fill="none" stroke="#000000" cx="108.6" cy="-19" rx="11" ry="11"/>
<text text-anchor="middle" x="108.6" y="-15.3" font-family="Times,serif" font-size="14.00">rec</text>
</a>
</g>
</g>
<!-- nd2&#45;&gt;nd22 -->
<g id="edge4" class="edge"><title>nd2:s&#45;&gt;nd22:w</title>
<path fill="none" stroke="black" d="M47.6,-18C47.6,4.22667 75.3733,-19 97.6,-19"/>
<text text-anchor="middle" x="86.1" y="-22.8" font-family="Times,serif" font-size="14.00">b</text>
</g>
<!-- ndcluster_nd24 -->
<g id="node4" class="node"><title>ndcluster_nd24</title>
<g id="a_node4"><a xlink:title="nd24">
<ellipse fill="orange" stroke="orange" cx="146.4" cy="-18" rx="1.8" ry="1.8"/>
</a>
</g>
</g>
<!-- nd22&#45;&gt;ndcluster_nd24 -->
<g id="edge1" class="edge"><title>nd22:n&#45;&gt;ndcluster_nd24:n</title>
<path fill="none" stroke="black" d="M108.6,-31C108.6,-48.3779 146.4,-38.3779 146.4,-21"/>
</g>
<!-- nd22&#45;&gt;ndcluster_nd24 -->
<g id="edge2" class="edge"><title>nd22:s&#45;&gt;ndcluster_nd24:w</title>
<path fill="none" stroke="black" d="M108.6,-7C108.6,-2.09095 114.837,-6.81302 119.6,-8 130.733,-10.7742 131.926,-18 143.4,-18"/>
</g>
</g>
</svg>
