<?xml version="1.0" encoding="UTF-8" standalone="no"?>
<!DOCTYPE svg PUBLIC "-//W3C//DTD SVG 1.1//EN"
 "http://www.w3.org/Graphics/SVG/1.1/DTD/svg11.dtd">
<!-- Generated by graphviz version 2.38.0 (20140413.2041)
 -->
<!-- Title: G Pages: 1 -->
<svg width="209pt" height="84pt"
 viewBox="0.00 0.00 208.80 84.00" xmlns="http://www.w3.org/2000/svg" xmlns:xlink="http://www.w3.org/1999/xlink">
<g id="graph0" class="graph" transform="scale(1 1) rotate(0) translate(4 80)">
<title>G</title>
<polygon fill="white" stroke="none" points="-4,4 -4,-80 204.8,-80 204.8,4 -4,4"/>
<g id="clust1" class="cluster"><title>cluster_nd4</title>
<polygon fill="none" stroke="orange" points="97.6,-48 97.6,-68 117.2,-68 117.2,-48 97.6,-48"/>
</g>
<g id="clust2" class="cluster"><title>cluster_nd24</title>
<polygon fill="none" stroke="orange" points="97.6,-12 97.6,-32 117.2,-32 117.2,-12 97.6,-12"/>
</g>
<g id="clust3" class="cluster"><title>cluster_nd72</title>
<polygon fill="none" stroke="orange" points="173.2,-8 173.2,-28 192.8,-28 192.8,-8 173.2,-8"/>
</g>
<!-- nd1 -->
<g id="node1" class="node"><title>nd1</title>
<ellipse fill="black" stroke="black" cx="1.8" cy="-40" rx="1.8" ry="1.8"/>
</g>
<!-- nd2 -->
<g id="node2" class="node"><title>nd2</title>
<g id="a_node2"><a xlink:title="nd2&#45;AppGraph">
<path fill="none" stroke="#000000" d="M33.0377,-52C33.0377,-52 26.8188,-46 26.8188,-46 23.7094,-43 23.7094,-37 26.8188,-34 26.8188,-34 33.0377,-28 33.0377,-28 36.1471,-25 43.5772,-22.0024 47.898,-22.0048 47.898,-22.0048 60.802,-22.012 60.802,-22.012 65.1228,-22.0144 69.4435,-26.3375 69.4435,-30.6582 69.4435,-30.6582 69.4435,-49.3418 69.4435,-49.3418 69.4435,-53.6625 65.1228,-57.9856 60.802,-57.988 60.802,-57.988 47.898,-57.9952 47.898,-57.9952 43.5772,-57.9976 36.1471,-55 33.0377,-52"/>
<text text-anchor="middle" x="47.6" y="-36.3" font-family="Times,serif" font-size="14.00">b@a</text>
</a>
</g>
</g>
<!-- nd1&#45;&gt;nd2 -->
<g id="edge4" class="edge"><title>nd1:e&#45;&gt;nd2:w</title>
<path fill="none" stroke="#b70000" d="M3.6,-40C11.1556,-40 13.0444,-40 20.6,-40"/>
</g>
<!-- ndcluster_nd4 -->
<g id="node3" class="node"><title>ndcluster_nd4</title>
<g id="a_node3"><a xlink:title="nd4">
<ellipse fill="orange" stroke="orange" cx="107.4" cy="-58" rx="1.8" ry="1.8"/>
</a>
</g>
</g>
<!-- nd2&#45;&gt;ndcluster_nd4 -->
<g id="edge3" class="edge"><title>nd2:n&#45;&gt;ndcluster_nd4:w</title>
<path fill="none" stroke="black" d="M47.6,-59C47.6,-84.2484 79.1516,-58 104.4,-58"/>
<text text-anchor="middle" x="86.1" y="-64.8" font-family="Times,serif" font-size="14.00">a</text>
</g>
<!-- ndcluster_nd24 -->
<g id="node4" class="node"><title>ndcluster_nd24</title>
<g id="a_node4"><a xlink:title="nd24">
<ellipse fill="orange" stroke="orange" cx="107.4" cy="-22" rx="1.8" ry="1.8"/>
</a>
</g>
</g>
<!-- nd2&#45;&gt;ndcluster_nd24 -->
<g id="edge2" class="edge"><title>nd2:s&#45;&gt;ndcluster_nd24:w</title>
<path fill="none" stroke="red" d="M50.9288,-11.5201C59.6844,-5.00361 84.083,-22 104.4,-22"/>
<polygon fill="red" stroke="red" points="47.6108,-10.4052 47.6,-21 54.2155,-12.7244 47.6108,-10.4052"/>
<text text-anchor="middle" x="86.1" y="-23.8" font-family="Times,serif" font-size="14.00">b</text>
</g>
<!-- nd68 -->
<g id="node5" class="node"><title>nd68</title>
<g id="a_node5"><a xlink:title="nd68&#45;RecurGraph">
<ellipse fill="none" stroke="#000000" cx="145.2" cy="-24" rx="11" ry="11"/>
<text text-anchor="middle" x="145.2" y="-20.3" font-family="Times,serif" font-size="14.00">rec</text>
</a>
</g>
</g>
<!-- ndcluster_nd24&#45;&gt;nd68 -->
<g id="edge1" class="edge"><title>ndcluster_nd24:n&#45;&gt;nd68:w</title>
<path fill="none" stroke="black" d="M107.4,-25C107.4,-36.9194 122.281,-24 134.2,-24"/>
</g>
<!-- ndcluster_nd72 -->
<g id="node6" class="node"><title>ndcluster_nd72</title>
<g id="a_node6"><a xlink:title="nd72">
<ellipse fill="orange" stroke="orange" cx="183" cy="-18" rx="1.8" ry="1.8"/>
</a>
</g>
</g>
<!-- nd68&#45;&gt;ndcluster_nd72 -->
<g id="edge5" class="edge"><title>nd68:n&#45;&gt;ndcluster_nd72:n</title>
<path fill="none" stroke="black" d="M145.2,-36C145.2,-54.0744 183,-39.0744 183,-21"/>
</g>
<!-- nd68&#45;&gt;ndcluster_nd72 -->
<g id="edge6" class="edge"><title>nd68:s&#45;&gt;ndcluster_nd72:w</title>
<path fill="none" stroke="black" d="M145.2,-12C145.2,-7.09095 151.345,-12.2719 156.2,-13 166.889,-14.6031 169.191,-18 180,-18"/>
</g>
</g>
</svg>
