<?xml version="1.0" encoding="UTF-8" standalone="no"?>
<!DOCTYPE svg PUBLIC "-//W3C//DTD SVG 1.1//EN"
 "http://www.w3.org/Graphics/SVG/1.1/DTD/svg11.dtd">
<!-- Generated by graphviz version 2.38.0 (20140413.2041)
 -->
<!-- Title: G Pages: 1 -->
<svg width="490pt" height="243pt"
 viewBox="0.00 0.00 490.20 243.00" xmlns="http://www.w3.org/2000/svg" xmlns:xlink="http://www.w3.org/1999/xlink">
<g id="graph0" class="graph" transform="scale(1 1) rotate(0) translate(4 239)">
<title>G</title>
<polygon fill="white" stroke="none" points="-4,4 -4,-239 486.2,-239 486.2,4 -4,4"/>
<g id="clust1" class="cluster"><title>cluster_nd72</title>
<polygon fill="none" stroke="orange" points="433.8,-61 433.8,-81 453.4,-81 453.4,-61 433.8,-61"/>
</g>
<!-- nd1 -->
<g id="node1" class="node"><title>nd1</title>
<ellipse fill="black" stroke="black" cx="1.8" cy="-155" rx="1.8" ry="1.8"/>
</g>
<!-- nd7 -->
<g id="node4" class="node"><title>nd7</title>
<g id="a_node4"><a xlink:title="nd7&#45;AppGraph">
<path fill="none" stroke="#000000" d="M33.0377,-167C33.0377,-167 26.8188,-161 26.8188,-161 23.7094,-158 23.7094,-152 26.8188,-149 26.8188,-149 33.0377,-143 33.0377,-143 36.1471,-140 43.5772,-137.002 47.898,-137.005 47.898,-137.005 60.802,-137.012 60.802,-137.012 65.1228,-137.014 69.4435,-141.338 69.4435,-145.658 69.4435,-145.658 69.4435,-164.342 69.4435,-164.342 69.4435,-168.662 65.1228,-172.986 60.802,-172.988 60.802,-172.988 47.898,-172.995 47.898,-172.995 43.5772,-172.998 36.1471,-170 33.0377,-167"/>
<text text-anchor="middle" x="47.6" y="-151.3" font-family="Times,serif" font-size="14.00">@</text>
</a>
</g>
</g>
<!-- nd1&#45;&gt;nd7 -->
<g id="edge3" class="edge"><title>nd1:e&#45;&gt;nd7:w</title>
<path fill="none" stroke="#b70000" d="M3.6,-155C11.1556,-155 13.0444,-155 20.6,-155"/>
</g>
<!-- nd68 -->
<g id="node2" class="node"><title>nd68</title>
<g id="a_node2"><a xlink:title="nd68&#45;RecurGraph">
<ellipse fill="none" stroke="#000000" cx="390.6" cy="-78" rx="11" ry="11"/>
<text text-anchor="middle" x="390.6" y="-74.3" font-family="Times,serif" font-size="14.00">rec</text>
</a>
</g>
</g>
<!-- ndcluster_nd72 -->
<g id="node3" class="node"><title>ndcluster_nd72</title>
<g id="a_node3"><a xlink:title="nd72">
<ellipse fill="orange" stroke="orange" cx="443.6" cy="-71" rx="1.8" ry="1.8"/>
</a>
</g>
</g>
<!-- nd68&#45;&gt;ndcluster_nd72 -->
<g id="edge18" class="edge"><title>nd68:n&#45;&gt;ndcluster_nd72:n</title>
<path fill="none" stroke="black" d="M390.6,-90C390.6,-102.303 443.6,-86.3028 443.6,-74"/>
</g>
<!-- nd68&#45;&gt;ndcluster_nd72 -->
<g id="edge19" class="edge"><title>nd68:s&#45;&gt;ndcluster_nd72:w</title>
<path fill="none" stroke="black" d="M390.6,-66C390.6,-54.8335 429.433,-71 440.6,-71"/>
</g>
<!-- nd14 -->
<g id="node5" class="node"><title>nd14</title>
<g id="a_node5"><a xlink:title="nd14&#45;ConstGraph">
<path fill="none" stroke="#000000" d="M103.6,-152C103.6,-152 115.6,-152 115.6,-152 121.6,-152 127.6,-146 127.6,-140 127.6,-140 127.6,-128 127.6,-128 127.6,-122 121.6,-116 115.6,-116 115.6,-116 103.6,-116 103.6,-116 97.6,-116 91.6,-122 91.6,-128 91.6,-128 91.6,-140 91.6,-140 91.6,-146 97.6,-152 103.6,-152"/>
<text text-anchor="middle" x="109.6" y="-130.3" font-family="Times,serif" font-size="14.00">1000</text>
</a>
</g>
</g>
<!-- nd7&#45;&gt;nd14 -->
<g id="edge2" class="edge"><title>nd7:s&#45;&gt;nd14:w</title>
<path fill="none" stroke="black" d="M47.6,-136C47.6,-116.424 72.0243,-134 91.6,-134"/>
</g>
<!-- nd26 -->
<g id="node6" class="node"><title>nd26</title>
<g id="a_node6"><a xlink:title="nd26&#45;AbsGraph">
<ellipse fill="none" stroke="#000000" cx="109.6" cy="-183" rx="18" ry="18"/>
<text text-anchor="middle" x="109.6" y="-179.3" font-family="Times,serif" font-size="14.00">λ</text>
</a>
</g>
</g>
<!-- nd7&#45;&gt;nd26 -->
<g id="edge1" class="edge"><title>nd7:n&#45;&gt;nd26:w</title>
<path fill="none" stroke="red" d="M47.6,-174C47.6,-190.686 64.3986,-185.764 81.5705,-183.7"/>
<polygon fill="red" stroke="red" points="81.868,-187.188 91.6,-183 81.3805,-180.205 81.868,-187.188"/>
</g>
<!-- nd27 -->
<g id="node7" class="node"><title>nd27</title>
<g id="a_node7"><a xlink:title="nd27&#45;IfGraph">
<ellipse fill="none" stroke="#000000" cx="162.6" cy="-135" rx="18" ry="18"/>
<text text-anchor="middle" x="162.6" y="-131.3" font-family="Times,serif" font-size="14.00">if</text>
</a>
</g>
</g>
<!-- nd26&#45;&gt;nd27 -->
<g id="edge16" class="edge"><title>nd26:s&#45;&gt;nd27:w</title>
<path fill="none" stroke="black" d="M109.6,-164C109.6,-155.697 120.808,-163.775 127.6,-159 138.294,-151.483 131.528,-135 144.6,-135"/>
</g>
<!-- nd61 -->
<g id="node16" class="node"><title>nd61</title>
<g id="a_node16"><a xlink:title="nd61&#45;ContractGraph">
<ellipse fill="black" stroke="black" cx="480.4" cy="-187" rx="1.8" ry="1.8"/>
</a>
</g>
</g>
<!-- nd26&#45;&gt;nd61 -->
<g id="edge17" class="edge"><title>nd26:n&#45;&gt;nd61:ne</title>
<path fill="none" stroke="grey" d="M109.6,-202C109.6,-226.457 137.143,-220 161.6,-220 161.6,-220 161.6,-220 444.6,-220 455.27,-220 487.945,-195.545 480.4,-188"/>
<text text-anchor="middle" x="328.6" y="-223.8" font-family="Times,serif" font-size="14.00">x</text>
</g>
<!-- nd28 -->
<g id="node8" class="node"><title>nd28</title>
<g id="a_node8"><a xlink:title="nd28&#45;BinOpGraph">
<ellipse fill="none" stroke="#000000" cx="266.6" cy="-172" rx="18" ry="18"/>
<text text-anchor="middle" x="266.6" y="-168.3" font-family="Times,serif" font-size="14.00">&lt;=</text>
</a>
</g>
</g>
<!-- nd27&#45;&gt;nd28 -->
<g id="edge11" class="edge"><title>nd27:n&#45;&gt;nd28:w</title>
<path fill="none" stroke="black" d="M162.6,-154C162.6,-193.05 209.55,-172 248.6,-172"/>
<text text-anchor="middle" x="214.6" y="-180.8" font-family="Times,serif" font-size="14.00">condition</text>
</g>
<!-- nd40 -->
<g id="node10" class="node"><title>nd40</title>
<g id="a_node10"><a xlink:title="nd40&#45;ConstListGraph">
<path fill="none" stroke="#000000" d="M260.6,-141C260.6,-141 272.6,-141 272.6,-141 278.6,-141 284.6,-135 284.6,-129 284.6,-129 284.6,-117 284.6,-117 284.6,-111 278.6,-105 272.6,-105 272.6,-105 260.6,-105 260.6,-105 254.6,-105 248.6,-111 248.6,-117 248.6,-117 248.6,-129 248.6,-129 248.6,-135 254.6,-141 260.6,-141"/>
<text text-anchor="middle" x="266.6" y="-119.3" font-family="Times,serif" font-size="14.00">[]</text>
</a>
</g>
</g>
<!-- nd27&#45;&gt;nd40 -->
<g id="edge12" class="edge"><title>nd27:e&#45;&gt;nd40:w</title>
<path fill="none" stroke="grey" d="M180.6,-135C184.265,-135 185.012,-133.746 188.6,-133 215.068,-127.495 221.565,-123 248.6,-123"/>
<text text-anchor="middle" x="214.6" y="-136.8" font-family="Times,serif" font-size="14.00">is true</text>
</g>
<!-- nd42 -->
<g id="node11" class="node"><title>nd42</title>
<g id="a_node11"><a xlink:title="nd42&#45;BinOpGraph">
<ellipse fill="none" stroke="#000000" cx="266.6" cy="-74" rx="18" ry="18"/>
<text text-anchor="middle" x="266.6" y="-70.3" font-family="Times,serif" font-size="14.00">::</text>
</a>
</g>
</g>
<!-- nd27&#45;&gt;nd42 -->
<g id="edge13" class="edge"><title>nd27:s&#45;&gt;nd42:w</title>
<path fill="none" stroke="grey" d="M162.6,-116C162.6,-73.4632 206.063,-74 248.6,-74"/>
<text text-anchor="middle" x="214.6" y="-83.8" font-family="Times,serif" font-size="14.00">is false</text>
</g>
<!-- nd34 -->
<g id="node9" class="node"><title>nd34</title>
<g id="a_node9"><a xlink:title="nd34&#45;ConstGraph">
<path fill="none" stroke="#000000" d="M322.6,-167C322.6,-167 334.6,-167 334.6,-167 340.6,-167 346.6,-161 346.6,-155 346.6,-155 346.6,-143 346.6,-143 346.6,-137 340.6,-131 334.6,-131 334.6,-131 322.6,-131 322.6,-131 316.6,-131 310.6,-137 310.6,-143 310.6,-143 310.6,-155 310.6,-155 310.6,-161 316.6,-167 322.6,-167"/>
<text text-anchor="middle" x="328.6" y="-145.3" font-family="Times,serif" font-size="14.00">0</text>
</a>
</g>
</g>
<!-- nd28&#45;&gt;nd34 -->
<g id="edge4" class="edge"><title>nd28:s&#45;&gt;nd34:w</title>
<path fill="none" stroke="black" d="M266.6,-153C266.6,-148.202 304.802,-149 309.6,-149"/>
</g>
<!-- nd28&#45;&gt;nd61 -->
<g id="edge14" class="edge"><title>nd28:n&#45;&gt;nd61:w</title>
<path fill="none" stroke="black" d="M266.6,-191C266.6,-218.169 300.431,-187 327.6,-187 327.6,-187 327.6,-187 444.6,-187 459.711,-187 463.489,-187 478.6,-187"/>
</g>
<!-- nd45 -->
<g id="node12" class="node"><title>nd45</title>
<g id="a_node12"><a xlink:title="nd45&#45;AppGraph">
<path fill="none" stroke="#000000" d="M314.038,-68C314.038,-68 307.819,-62 307.819,-62 304.709,-59 304.709,-53 307.819,-50 307.819,-50 314.038,-44 314.038,-44 317.147,-41 324.577,-38.0024 328.898,-38.0048 328.898,-38.0048 341.802,-38.012 341.802,-38.012 346.123,-38.0144 350.443,-42.3375 350.443,-46.6582 350.443,-46.6582 350.443,-65.3418 350.443,-65.3418 350.443,-69.6625 346.123,-73.9856 341.802,-73.988 341.802,-73.988 328.898,-73.9952 328.898,-73.9952 324.577,-73.9976 317.147,-71 314.038,-68"/>
<text text-anchor="middle" x="328.6" y="-52.3" font-family="Times,serif" font-size="14.00">@</text>
</a>
</g>
</g>
<!-- nd42&#45;&gt;nd45 -->
<g id="edge8" class="edge"><title>nd42:s&#45;&gt;nd45:w</title>
<path fill="none" stroke="black" d="M266.6,-55C266.6,-39.4381 286.038,-56 301.6,-56"/>
</g>
<!-- nd59 -->
<g id="node15" class="node"><title>nd59</title>
<g id="a_node15"><a xlink:title="nd59&#45;ContractGraph">
<ellipse fill="black" stroke="black" cx="443.6" cy="-109" rx="1.8" ry="1.8"/>
</a>
</g>
</g>
<!-- nd42&#45;&gt;nd59 -->
<g id="edge10" class="edge"><title>nd42:n&#45;&gt;nd59:w</title>
<path fill="none" stroke="black" d="M266.6,-93C266.6,-102.707 430.893,-109 440.6,-109"/>
</g>
<!-- nd45&#45;&gt;nd68 -->
<g id="edge6" class="edge"><title>nd45:n&#45;&gt;nd68:w</title>
<path fill="none" stroke="black" d="M328.6,-75C328.6,-97.2622 356.338,-78 378.6,-78"/>
</g>
<!-- nd49 -->
<g id="node13" class="node"><title>nd49</title>
<g id="a_node13"><a xlink:title="nd49&#45;BinOpGraph">
<ellipse fill="none" stroke="#000000" cx="390.6" cy="-36" rx="18" ry="18"/>
<text text-anchor="middle" x="390.6" y="-32.3" font-family="Times,serif" font-size="14.00">&#45;</text>
</a>
</g>
</g>
<!-- nd45&#45;&gt;nd49 -->
<g id="edge7" class="edge"><title>nd45:s&#45;&gt;nd49:w</title>
<path fill="none" stroke="black" d="M328.6,-37C328.6,-17.4394 353.039,-36 372.6,-36"/>
</g>
<!-- nd55 -->
<g id="node14" class="node"><title>nd55</title>
<g id="a_node14"><a xlink:title="nd55&#45;ConstGraph">
<path fill="none" stroke="#000000" d="M437.6,-36C437.6,-36 449.6,-36 449.6,-36 455.6,-36 461.6,-30 461.6,-24 461.6,-24 461.6,-12 461.6,-12 461.6,-6 455.6,-0 449.6,-0 449.6,-0 437.6,-0 437.6,-0 431.6,-0 425.6,-6 425.6,-12 425.6,-12 425.6,-24 425.6,-24 425.6,-30 431.6,-36 437.6,-36"/>
<text text-anchor="middle" x="443.6" y="-14.3" font-family="Times,serif" font-size="14.00">1</text>
</a>
</g>
</g>
<!-- nd49&#45;&gt;nd55 -->
<g id="edge5" class="edge"><title>nd49:s&#45;&gt;nd55:w</title>
<path fill="none" stroke="black" d="M390.6,-17C390.6,-1.4381 410.038,-18 425.6,-18"/>
</g>
<!-- nd49&#45;&gt;nd59 -->
<g id="edge9" class="edge"><title>nd49:n&#45;&gt;nd59:w</title>
<path fill="none" stroke="black" d="M390.6,-55C390.6,-63.3029 401.899,-55.0976 408.6,-60 429.592,-75.3577 414.59,-109 440.6,-109"/>
</g>
<!-- nd59&#45;&gt;nd61 -->
<g id="edge15" class="edge"><title>nd59:e&#45;&gt;nd61:w</title>
<path fill="none" stroke="black" d="M446.6,-109C455.968,-109 469.232,-187 478.6,-187"/>
</g>
</g>
</svg>
