<?xml version="1.0" encoding="UTF-8" standalone="no"?>
<!DOCTYPE svg PUBLIC "-//W3C//DTD SVG 1.1//EN"
 "http://www.w3.org/Graphics/SVG/1.1/DTD/svg11.dtd">
<!-- Generated by graphviz version 2.38.0 (20140413.2041)
 -->
<!-- Title: G Pages: 1 -->
<svg width="543pt" height="262pt"
 viewBox="0.00 0.00 543.20 262.00" xmlns="http://www.w3.org/2000/svg" xmlns:xlink="http://www.w3.org/1999/xlink">
<g id="graph0" class="graph" transform="scale(1 1) rotate(0) translate(4 258)">
<title>G</title>
<polygon fill="white" stroke="none" points="-4,4 -4,-258 539.2,-258 539.2,4 -4,4"/>
<g id="clust1" class="cluster"><title>cluster_nd162</title>
<polygon fill="none" stroke="orange" points="427.8,-102 427.8,-122 447.4,-122 447.4,-102 427.8,-102"/>
</g>
<!-- nd1 -->
<g id="node1" class="node"><title>nd1</title>
<ellipse fill="black" stroke="black" cx="1.8" cy="-211" rx="1.8" ry="1.8"/>
</g>
<!-- nd42 -->
<g id="node3" class="node"><title>nd42</title>
<g id="a_node3"><a xlink:title="nd42&#45;BinOpGraph">
<ellipse fill="none" stroke="#000000" cx="38.6" cy="-211" rx="18" ry="18"/>
<text text-anchor="middle" x="38.6" y="-207.3" font-family="Times,serif" font-size="14.00">::</text>
</a>
</g>
</g>
<!-- nd1&#45;&gt;nd42 -->
<g id="edge2" class="edge"><title>nd1:e&#45;&gt;nd42:w</title>
<path fill="none" stroke="#b70000" d="M3.6,-211C11.1556,-211 13.0444,-211 20.6,-211"/>
</g>
<!-- nd14 -->
<g id="node2" class="node"><title>nd14</title>
<g id="a_node2"><a xlink:title="nd14&#45;ConstGraph">
<path fill="none" stroke="#000000" d="M144.6,-254C144.6,-254 156.6,-254 156.6,-254 162.6,-254 168.6,-248 168.6,-242 168.6,-242 168.6,-230 168.6,-230 168.6,-224 162.6,-218 156.6,-218 156.6,-218 144.6,-218 144.6,-218 138.6,-218 132.6,-224 132.6,-230 132.6,-230 132.6,-242 132.6,-242 132.6,-248 138.6,-254 144.6,-254"/>
<text text-anchor="middle" x="150.6" y="-232.3" font-family="Times,serif" font-size="14.00">1000</text>
</a>
</g>
</g>
<!-- nd59 -->
<g id="node4" class="node"><title>nd59</title>
<g id="a_node4"><a xlink:title="nd59&#45;ContractGraph">
<ellipse fill="black" stroke="black" cx="91.6" cy="-235" rx="1.8" ry="1.8"/>
</a>
</g>
</g>
<!-- nd42&#45;&gt;nd59 -->
<g id="edge1" class="edge"><title>nd42:n&#45;&gt;nd59:w</title>
<path fill="none" stroke="black" d="M38.6,-230C38.6,-252.333 66.2669,-235 88.6,-235"/>
</g>
<!-- nd84 -->
<g id="node6" class="node"><title>nd84</title>
<g id="a_node6"><a xlink:title="nd84&#45;BinOpGraph">
<ellipse fill="none" stroke="#000000" cx="91.6" cy="-185" rx="18" ry="18"/>
<text text-anchor="middle" x="91.6" y="-181.3" font-family="Times,serif" font-size="14.00">::</text>
</a>
</g>
</g>
<!-- nd42&#45;&gt;nd84 -->
<g id="edge5" class="edge"><title>nd42:s&#45;&gt;nd84:w</title>
<path fill="none" stroke="#b70000" d="M38.6,-192C38.6,-176.136 57.7364,-185 73.6,-185"/>
</g>
<!-- nd59&#45;&gt;nd14 -->
<g id="edge3" class="edge"><title>nd59:e&#45;&gt;nd14:w</title>
<path fill="none" stroke="black" d="M94.6,-235C111.495,-235 115.705,-236 132.6,-236"/>
<text text-anchor="middle" x="121.1" y="-238.8" font-family="Times,serif" font-size="14.00">x</text>
</g>
<!-- nd111 -->
<g id="node5" class="node"><title>nd111</title>
<g id="a_node5"><a xlink:title="nd111&#45;ConstGraph">
<path fill="none" stroke="#000000" d="M248.6,-229C248.6,-229 260.6,-229 260.6,-229 266.6,-229 272.6,-223 272.6,-217 272.6,-217 272.6,-205 272.6,-205 272.6,-199 266.6,-193 260.6,-193 260.6,-193 248.6,-193 248.6,-193 242.6,-193 236.6,-199 236.6,-205 236.6,-205 236.6,-217 236.6,-217 236.6,-223 242.6,-229 248.6,-229"/>
<text text-anchor="middle" x="254.6" y="-207.3" font-family="Times,serif" font-size="14.00">999</text>
</a>
</g>
</g>
<!-- nd92 -->
<g id="node7" class="node"><title>nd92</title>
<g id="a_node7"><a xlink:title="nd92&#45;ContractGraph">
<ellipse fill="black" stroke="black" cx="150.6" cy="-203" rx="1.8" ry="1.8"/>
</a>
</g>
</g>
<!-- nd84&#45;&gt;nd92 -->
<g id="edge4" class="edge"><title>nd84:n&#45;&gt;nd92:w</title>
<path fill="none" stroke="black" d="M91.6,-204C91.6,-228.893 122.707,-203 147.6,-203"/>
</g>
<!-- nd119 -->
<g id="node11" class="node"><title>nd119</title>
<g id="a_node11"><a xlink:title="nd119&#45;IfGraph">
<ellipse fill="none" stroke="#000000" cx="150.6" cy="-121" rx="18" ry="18"/>
<text text-anchor="middle" x="150.6" y="-117.3" font-family="Times,serif" font-size="14.00">if</text>
</a>
</g>
</g>
<!-- nd84&#45;&gt;nd119 -->
<g id="edge19" class="edge"><title>nd84:s&#45;&gt;nd119:w</title>
<path fill="none" stroke="#b70000" d="M91.6,-166C91.6,-138.944 105.544,-121 132.6,-121"/>
</g>
<!-- nd92&#45;&gt;nd111 -->
<g id="edge6" class="edge"><title>nd92:e&#45;&gt;nd111:w</title>
<path fill="none" stroke="black" d="M153.6,-203C190.66,-203 199.54,-211 236.6,-211"/>
<text text-anchor="middle" x="202.6" y="-214.8" font-family="Times,serif" font-size="14.00">x</text>
</g>
<!-- nd156 -->
<g id="node8" class="node"><title>nd156</title>
<g id="a_node8"><a xlink:title="nd156&#45;ConstGraph">
<path fill="none" stroke="#000000" d="M511.2,-91C511.2,-91 523.2,-91 523.2,-91 529.2,-91 535.2,-85 535.2,-79 535.2,-79 535.2,-67 535.2,-67 535.2,-61 529.2,-55 523.2,-55 523.2,-55 511.2,-55 511.2,-55 505.2,-55 499.2,-61 499.2,-67 499.2,-67 499.2,-79 499.2,-79 499.2,-85 505.2,-91 511.2,-91"/>
<text text-anchor="middle" x="517.2" y="-69.3" font-family="Times,serif" font-size="14.00">998</text>
</a>
</g>
</g>
<!-- nd158 -->
<g id="node9" class="node"><title>nd158</title>
<g id="a_node9"><a xlink:title="nd158&#45;RecurGraph">
<ellipse fill="none" stroke="#000000" cx="384.6" cy="-114" rx="11" ry="11"/>
<text text-anchor="middle" x="384.6" y="-110.3" font-family="Times,serif" font-size="14.00">rec</text>
</a>
</g>
</g>
<!-- ndcluster_nd162 -->
<g id="node10" class="node"><title>ndcluster_nd162</title>
<g id="a_node10"><a xlink:title="nd162">
<ellipse fill="orange" stroke="orange" cx="437.6" cy="-112" rx="1.8" ry="1.8"/>
</a>
</g>
</g>
<!-- nd158&#45;&gt;ndcluster_nd162 -->
<g id="edge21" class="edge"><title>nd158:n&#45;&gt;ndcluster_nd162:n</title>
<path fill="none" stroke="black" d="M384.6,-126C384.6,-150.058 437.6,-139.058 437.6,-115"/>
</g>
<!-- nd158&#45;&gt;ndcluster_nd162 -->
<g id="edge22" class="edge"><title>nd158:s&#45;&gt;ndcluster_nd162:w</title>
<path fill="none" stroke="black" d="M384.6,-102C384.6,-97.091 390.753,-102.224 395.6,-103 413.165,-105.812 416.811,-112 434.6,-112"/>
</g>
<!-- nd120 -->
<g id="node12" class="node"><title>nd120</title>
<g id="a_node12"><a xlink:title="nd120&#45;BinOpGraph">
<ellipse fill="none" stroke="#000000" cx="254.6" cy="-162" rx="18" ry="18"/>
<text text-anchor="middle" x="254.6" y="-158.3" font-family="Times,serif" font-size="14.00">&lt;=</text>
</a>
</g>
</g>
<!-- nd119&#45;&gt;nd120 -->
<g id="edge14" class="edge"><title>nd119:n&#45;&gt;nd120:w</title>
<path fill="none" stroke="red" d="M151.882,-150C159.624,-176.211 201,-162 236.6,-162"/>
<polygon fill="red" stroke="red" points="155.343,-149.474 150.6,-140 148.4,-150.364 155.343,-149.474"/>
<text text-anchor="middle" x="202.6" y="-169.8" font-family="Times,serif" font-size="14.00">condition</text>
</g>
<!-- nd128 -->
<g id="node14" class="node"><title>nd128</title>
<g id="a_node14"><a xlink:title="nd128&#45;ConstListGraph">
<path fill="none" stroke="#000000" d="M248.6,-131C248.6,-131 260.6,-131 260.6,-131 266.6,-131 272.6,-125 272.6,-119 272.6,-119 272.6,-107 272.6,-107 272.6,-101 266.6,-95 260.6,-95 260.6,-95 248.6,-95 248.6,-95 242.6,-95 236.6,-101 236.6,-107 236.6,-107 236.6,-119 236.6,-119 236.6,-125 242.6,-131 248.6,-131"/>
<text text-anchor="middle" x="254.6" y="-109.3" font-family="Times,serif" font-size="14.00">[]</text>
</a>
</g>
</g>
<!-- nd119&#45;&gt;nd128 -->
<g id="edge15" class="edge"><title>nd119:e&#45;&gt;nd128:w</title>
<path fill="none" stroke="grey" d="M168.6,-121C199.031,-121 206.169,-113 236.6,-113"/>
<text text-anchor="middle" x="202.6" y="-124.8" font-family="Times,serif" font-size="14.00">is true</text>
</g>
<!-- nd129 -->
<g id="node15" class="node"><title>nd129</title>
<g id="a_node15"><a xlink:title="nd129&#45;BinOpGraph">
<ellipse fill="none" stroke="#000000" cx="254.6" cy="-64" rx="18" ry="18"/>
<text text-anchor="middle" x="254.6" y="-60.3" font-family="Times,serif" font-size="14.00">::</text>
</a>
</g>
</g>
<!-- nd119&#45;&gt;nd129 -->
<g id="edge16" class="edge"><title>nd119:s&#45;&gt;nd129:w</title>
<path fill="none" stroke="grey" d="M150.6,-102C150.6,-60.2128 194.813,-64 236.6,-64"/>
<text text-anchor="middle" x="202.6" y="-71.8" font-family="Times,serif" font-size="14.00">is false</text>
</g>
<!-- nd124 -->
<g id="node13" class="node"><title>nd124</title>
<g id="a_node13"><a xlink:title="nd124&#45;ConstGraph">
<path fill="none" stroke="#000000" d="M316.6,-155C316.6,-155 328.6,-155 328.6,-155 334.6,-155 340.6,-149 340.6,-143 340.6,-143 340.6,-131 340.6,-131 340.6,-125 334.6,-119 328.6,-119 328.6,-119 316.6,-119 316.6,-119 310.6,-119 304.6,-125 304.6,-131 304.6,-131 304.6,-143 304.6,-143 304.6,-149 310.6,-155 316.6,-155"/>
<text text-anchor="middle" x="322.6" y="-133.3" font-family="Times,serif" font-size="14.00">0</text>
</a>
</g>
</g>
<!-- nd120&#45;&gt;nd124 -->
<g id="edge7" class="edge"><title>nd120:s&#45;&gt;nd124:w</title>
<path fill="none" stroke="black" d="M254.6,-143C254.6,-137.515 298.115,-137 303.6,-137"/>
</g>
<!-- nd188 -->
<g id="node21" class="node"><title>nd188</title>
<g id="a_node21"><a xlink:title="nd188&#45;ConstGraph">
<path fill="none" stroke="#000000" d="M316.6,-204C316.6,-204 328.6,-204 328.6,-204 334.6,-204 340.6,-198 340.6,-192 340.6,-192 340.6,-180 340.6,-180 340.6,-174 334.6,-168 328.6,-168 328.6,-168 316.6,-168 316.6,-168 310.6,-168 304.6,-174 304.6,-180 304.6,-180 304.6,-192 304.6,-192 304.6,-198 310.6,-204 316.6,-204"/>
<text text-anchor="middle" x="322.6" y="-182.3" font-family="Times,serif" font-size="14.00">998</text>
</a>
</g>
</g>
<!-- nd120&#45;&gt;nd188 -->
<g id="edge17" class="edge"><title>nd120:n&#45;&gt;nd188:w</title>
<path fill="none" stroke="black" d="M254.6,-181C254.6,-186.473 298.127,-186 303.6,-186"/>
<text text-anchor="middle" x="284.1" y="-189.8" font-family="Times,serif" font-size="14.00">x</text>
</g>
<!-- nd130 -->
<g id="node16" class="node"><title>nd130</title>
<g id="a_node16"><a xlink:title="nd130&#45;AppGraph">
<path fill="none" stroke="#000000" d="M308.038,-57C308.038,-57 301.819,-51 301.819,-51 298.709,-48 298.709,-42 301.819,-39 301.819,-39 308.038,-33 308.038,-33 311.147,-30 318.577,-27.0024 322.898,-27.0048 322.898,-27.0048 335.802,-27.012 335.802,-27.012 340.123,-27.0144 344.443,-31.3375 344.443,-35.6582 344.443,-35.6582 344.443,-54.3418 344.443,-54.3418 344.443,-58.6625 340.123,-62.9856 335.802,-62.988 335.802,-62.988 322.898,-62.9952 322.898,-62.9952 318.577,-62.9976 311.147,-60 308.038,-57"/>
<text text-anchor="middle" x="322.6" y="-41.3" font-family="Times,serif" font-size="14.00">@</text>
</a>
</g>
</g>
<!-- nd129&#45;&gt;nd130 -->
<g id="edge11" class="edge"><title>nd129:s&#45;&gt;nd130:w</title>
<path fill="none" stroke="black" d="M254.6,-45C254.6,-26.7778 277.378,-45 295.6,-45"/>
</g>
<!-- nd137 -->
<g id="node19" class="node"><title>nd137</title>
<g id="a_node19"><a xlink:title="nd137&#45;ContractGraph">
<ellipse fill="black" stroke="black" cx="437.6" cy="-73" rx="1.8" ry="1.8"/>
</a>
</g>
</g>
<!-- nd129&#45;&gt;nd137 -->
<g id="edge13" class="edge"><title>nd129:n&#45;&gt;nd137:w</title>
<path fill="none" stroke="black" d="M254.6,-83C254.6,-93.0154 424.585,-73 434.6,-73"/>
</g>
<!-- nd130&#45;&gt;nd158 -->
<g id="edge9" class="edge"><title>nd130:n&#45;&gt;nd158:w</title>
<path fill="none" stroke="black" d="M322.6,-64C322.6,-95.427 341.173,-114 372.6,-114"/>
</g>
<!-- nd132 -->
<g id="node17" class="node"><title>nd132</title>
<g id="a_node17"><a xlink:title="nd132&#45;BinOpGraph">
<ellipse fill="none" stroke="#000000" cx="384.6" cy="-36" rx="18" ry="18"/>
<text text-anchor="middle" x="384.6" y="-32.3" font-family="Times,serif" font-size="14.00">&#45;</text>
</a>
</g>
</g>
<!-- nd130&#45;&gt;nd132 -->
<g id="edge10" class="edge"><title>nd130:s&#45;&gt;nd132:w</title>
<path fill="none" stroke="black" d="M322.6,-26C322.6,-13.9918 338.001,-23.8902 349.6,-27 357.857,-29.214 358.051,-36 366.6,-36"/>
</g>
<!-- nd136 -->
<g id="node18" class="node"><title>nd136</title>
<g id="a_node18"><a xlink:title="nd136&#45;ConstGraph">
<path fill="none" stroke="#000000" d="M431.6,-36C431.6,-36 443.6,-36 443.6,-36 449.6,-36 455.6,-30 455.6,-24 455.6,-24 455.6,-12 455.6,-12 455.6,-6 449.6,-0 443.6,-0 443.6,-0 431.6,-0 431.6,-0 425.6,-0 419.6,-6 419.6,-12 419.6,-12 419.6,-24 419.6,-24 419.6,-30 425.6,-36 431.6,-36"/>
<text text-anchor="middle" x="437.6" y="-14.3" font-family="Times,serif" font-size="14.00">1</text>
</a>
</g>
</g>
<!-- nd132&#45;&gt;nd136 -->
<g id="edge8" class="edge"><title>nd132:s&#45;&gt;nd136:w</title>
<path fill="none" stroke="black" d="M384.6,-17C384.6,-1.4381 404.038,-18 419.6,-18"/>
</g>
<!-- nd132&#45;&gt;nd137 -->
<g id="edge12" class="edge"><title>nd132:n&#45;&gt;nd137:w</title>
<path fill="none" stroke="black" d="M384.6,-55C384.6,-66.8092 422.791,-73 434.6,-73"/>
</g>
<!-- nd138 -->
<g id="node20" class="node"><title>nd138</title>
<g id="a_node20"><a xlink:title="nd138&#45;ContractGraph">
<ellipse fill="black" stroke="black" cx="474.4" cy="-73" rx="1.8" ry="1.8"/>
</a>
</g>
</g>
<!-- nd137&#45;&gt;nd138 -->
<g id="edge18" class="edge"><title>nd137:e&#45;&gt;nd138:w</title>
<path fill="none" stroke="black" d="M440.6,-73C454.822,-73 458.378,-73 472.6,-73"/>
</g>
<!-- nd138&#45;&gt;nd156 -->
<g id="edge20" class="edge"><title>nd138:e&#45;&gt;nd156:w</title>
<path fill="none" stroke="black" d="M476.2,-73C486.422,-73 488.978,-73 499.2,-73"/>
<text text-anchor="middle" x="487.7" y="-76.8" font-family="Times,serif" font-size="14.00">x</text>
</g>
</g>
</svg>
