<?xml version="1.0" encoding="UTF-8" standalone="no"?>
<!DOCTYPE svg PUBLIC "-//W3C//DTD SVG 1.1//EN"
 "http://www.w3.org/Graphics/SVG/1.1/DTD/svg11.dtd">
<!-- Generated by graphviz version 2.38.0 (20140413.2041)
 -->
<!-- Title: G Pages: 1 -->
<svg width="327pt" height="150pt"
 viewBox="0.00 0.00 327.20 149.92" xmlns="http://www.w3.org/2000/svg" xmlns:xlink="http://www.w3.org/1999/xlink">
<g id="graph0" class="graph" transform="scale(1 1) rotate(0) translate(4 145.918)">
<title>G</title>
<polygon fill="white" stroke="none" points="-4,4 -4,-145.918 323.2,-145.918 323.2,4 -4,4"/>
<g id="clust1" class="cluster"><title>cluster_nd72</title>
<polygon fill="none" stroke="orange" points="211.8,-104 211.8,-124 231.4,-124 231.4,-104 211.8,-104"/>
</g>
<!-- nd1 -->
<g id="node1" class="node"><title>nd1</title>
<ellipse fill="black" stroke="black" cx="1.8" cy="-64" rx="1.8" ry="1.8"/>
</g>
<!-- nd42 -->
<g id="node5" class="node"><title>nd42</title>
<g id="a_node5"><a xlink:title="nd42&#45;BinOpGraph">
<ellipse fill="none" stroke="#000000" cx="38.6" cy="-64" rx="18" ry="18"/>
<text text-anchor="middle" x="38.6" y="-60.3" font-family="Times,serif" font-size="14.00">::</text>
</a>
</g>
</g>
<!-- nd1&#45;&gt;nd42 -->
<g id="edge7" class="edge"><title>nd1:e&#45;&gt;nd42:w</title>
<path fill="none" stroke="#b70000" d="M3.6,-64C11.1556,-64 13.0444,-64 20.6,-64"/>
</g>
<!-- nd68 -->
<g id="node2" class="node"><title>nd68</title>
<g id="a_node2"><a xlink:title="nd68&#45;RecurGraph">
<ellipse fill="none" stroke="#000000" cx="168.6" cy="-116" rx="11" ry="11"/>
<text text-anchor="middle" x="168.6" y="-112.3" font-family="Times,serif" font-size="14.00">rec</text>
</a>
</g>
</g>
<!-- ndcluster_nd72 -->
<g id="node3" class="node"><title>ndcluster_nd72</title>
<g id="a_node3"><a xlink:title="nd72">
<ellipse fill="orange" stroke="orange" cx="221.6" cy="-114" rx="1.8" ry="1.8"/>
</a>
</g>
</g>
<!-- nd68&#45;&gt;ndcluster_nd72 -->
<g id="edge10" class="edge"><title>nd68:n&#45;&gt;ndcluster_nd72:n</title>
<path fill="none" stroke="black" d="M168.6,-128C168.6,-152.058 221.6,-141.058 221.6,-117"/>
</g>
<!-- nd68&#45;&gt;ndcluster_nd72 -->
<g id="edge11" class="edge"><title>nd68:s&#45;&gt;ndcluster_nd72:w</title>
<path fill="none" stroke="black" d="M168.6,-104C168.6,-99.091 174.753,-104.224 179.6,-105 197.165,-107.812 200.811,-114 218.6,-114"/>
</g>
<!-- nd14 -->
<g id="node4" class="node"><title>nd14</title>
<g id="a_node4"><a xlink:title="nd14&#45;ConstGraph">
<path fill="none" stroke="#000000" d="M295.2,-93C295.2,-93 307.2,-93 307.2,-93 313.2,-93 319.2,-87 319.2,-81 319.2,-81 319.2,-69 319.2,-69 319.2,-63 313.2,-57 307.2,-57 307.2,-57 295.2,-57 295.2,-57 289.2,-57 283.2,-63 283.2,-69 283.2,-69 283.2,-81 283.2,-81 283.2,-87 289.2,-93 295.2,-93"/>
<text text-anchor="middle" x="301.2" y="-71.3" font-family="Times,serif" font-size="14.00">1000</text>
</a>
</g>
</g>
<!-- nd45 -->
<g id="node6" class="node"><title>nd45</title>
<g id="a_node6"><a xlink:title="nd45&#45;AppGraph">
<path fill="none" stroke="#000000" d="M86.0377,-55C86.0377,-55 79.8188,-49 79.8188,-49 76.7094,-46 76.7094,-40 79.8188,-37 79.8188,-37 86.0377,-31 86.0377,-31 89.1471,-28 96.5772,-25.0024 100.898,-25.0048 100.898,-25.0048 113.802,-25.012 113.802,-25.012 118.123,-25.0144 122.443,-29.3375 122.443,-33.6582 122.443,-33.6582 122.443,-52.3418 122.443,-52.3418 122.443,-56.6625 118.123,-60.9856 113.802,-60.988 113.802,-60.988 100.898,-60.9952 100.898,-60.9952 96.5772,-60.9976 89.1471,-58 86.0377,-55"/>
<text text-anchor="middle" x="100.6" y="-39.3" font-family="Times,serif" font-size="14.00">b@a</text>
</a>
</g>
</g>
<!-- nd42&#45;&gt;nd45 -->
<g id="edge4" class="edge"><title>nd42:s&#45;&gt;nd45:w</title>
<path fill="none" stroke="red" d="M38.6,-45C38.6,-32.7057 50.6907,-38.5681 63.4461,-41.5883"/>
<polygon fill="red" stroke="red" points="63.2133,-45.0895 73.6,-43 64.1773,-38.1562 63.2133,-45.0895"/>
</g>
<!-- nd59 -->
<g id="node9" class="node"><title>nd59</title>
<g id="a_node9"><a xlink:title="nd59&#45;ContractGraph">
<ellipse fill="black" stroke="black" cx="221.6" cy="-75" rx="1.8" ry="1.8"/>
</a>
</g>
</g>
<!-- nd42&#45;&gt;nd59 -->
<g id="edge6" class="edge"><title>nd42:n&#45;&gt;nd59:w</title>
<path fill="none" stroke="black" d="M38.6,-83C38.6,-163.079 138.521,-75 218.6,-75"/>
</g>
<!-- nd45&#45;&gt;nd68 -->
<g id="edge2" class="edge"><title>nd45:n&#45;&gt;nd68:w</title>
<path fill="none" stroke="black" d="M100.6,-62C100.6,-96.5754 122.025,-116 156.6,-116"/>
<text text-anchor="middle" x="139.1" y="-118.8" font-family="Times,serif" font-size="14.00">a</text>
</g>
<!-- nd49 -->
<g id="node7" class="node"><title>nd49</title>
<g id="a_node7"><a xlink:title="nd49&#45;BinOpGraph">
<ellipse fill="none" stroke="#000000" cx="168.6" cy="-36" rx="18" ry="18"/>
<text text-anchor="middle" x="168.6" y="-32.3" font-family="Times,serif" font-size="14.00">&#45;</text>
</a>
</g>
</g>
<!-- nd45&#45;&gt;nd49 -->
<g id="edge3" class="edge"><title>nd45:s&#45;&gt;nd49:w</title>
<path fill="none" stroke="black" d="M100.6,-24C100.6,-5.28577 126.073,-18.2198 142.6,-27 147.326,-29.5109 145.248,-36 150.6,-36"/>
<text text-anchor="middle" x="139.1" y="-31.8" font-family="Times,serif" font-size="14.00">b</text>
</g>
<!-- nd55 -->
<g id="node8" class="node"><title>nd55</title>
<g id="a_node8"><a xlink:title="nd55&#45;ConstGraph">
<path fill="none" stroke="#000000" d="M215.6,-36C215.6,-36 227.6,-36 227.6,-36 233.6,-36 239.6,-30 239.6,-24 239.6,-24 239.6,-12 239.6,-12 239.6,-6 233.6,-0 227.6,-0 227.6,-0 215.6,-0 215.6,-0 209.6,-0 203.6,-6 203.6,-12 203.6,-12 203.6,-24 203.6,-24 203.6,-30 209.6,-36 215.6,-36"/>
<text text-anchor="middle" x="221.6" y="-14.3" font-family="Times,serif" font-size="14.00">1</text>
</a>
</g>
</g>
<!-- nd49&#45;&gt;nd55 -->
<g id="edge1" class="edge"><title>nd49:s&#45;&gt;nd55:w</title>
<path fill="none" stroke="black" d="M168.6,-17C168.6,-1.4381 188.038,-18 203.6,-18"/>
</g>
<!-- nd49&#45;&gt;nd59 -->
<g id="edge5" class="edge"><title>nd49:n&#45;&gt;nd59:w</title>
<path fill="none" stroke="black" d="M168.6,-55C168.6,-78.9341 194.666,-75 218.6,-75"/>
</g>
<!-- nd61 -->
<g id="node10" class="node"><title>nd61</title>
<g id="a_node10"><a xlink:title="nd61&#45;ContractGraph">
<ellipse fill="black" stroke="black" cx="258.4" cy="-75" rx="1.8" ry="1.8"/>
</a>
</g>
</g>
<!-- nd59&#45;&gt;nd61 -->
<g id="edge8" class="edge"><title>nd59:e&#45;&gt;nd61:w</title>
<path fill="none" stroke="black" d="M224.6,-75C238.822,-75 242.378,-75 256.6,-75"/>
</g>
<!-- nd61&#45;&gt;nd14 -->
<g id="edge9" class="edge"><title>nd61:e&#45;&gt;nd14:w</title>
<path fill="none" stroke="black" d="M260.2,-75C270.422,-75 272.978,-75 283.2,-75"/>
<text text-anchor="middle" x="271.7" y="-78.8" font-family="Times,serif" font-size="14.00">x</text>
</g>
</g>
</svg>
