<?xml version="1.0" encoding="UTF-8" standalone="no"?>
<!DOCTYPE svg PUBLIC "-//W3C//DTD SVG 1.1//EN"
 "http://www.w3.org/Graphics/SVG/1.1/DTD/svg11.dtd">
<!-- Generated by graphviz version 2.38.0 (20140413.2041)
 -->
<!-- Title: G Pages: 1 -->
<svg width="425pt" height="200pt"
 viewBox="0.00 0.00 425.20 200.46" xmlns="http://www.w3.org/2000/svg" xmlns:xlink="http://www.w3.org/1999/xlink">
<g id="graph0" class="graph" transform="scale(1 1) rotate(0) translate(4 196.46)">
<title>G</title>
<polygon fill="white" stroke="none" points="-4,4 -4,-196.46 421.2,-196.46 421.2,4 -4,4"/>
<g id="clust1" class="cluster"><title>cluster_nd72</title>
<polygon fill="none" stroke="orange" points="309.8,-104 309.8,-124 329.4,-124 329.4,-104 309.8,-104"/>
</g>
<!-- nd1 -->
<g id="node1" class="node"><title>nd1</title>
<ellipse fill="black" stroke="black" cx="1.8" cy="-112" rx="1.8" ry="1.8"/>
</g>
<!-- nd27 -->
<g id="node5" class="node"><title>nd27</title>
<g id="a_node5"><a xlink:title="nd27&#45;IfGraph">
<ellipse fill="none" stroke="#000000" cx="38.6" cy="-112" rx="18" ry="18"/>
<text text-anchor="middle" x="38.6" y="-108.3" font-family="Times,serif" font-size="14.00">if</text>
</a>
</g>
</g>
<!-- nd1&#45;&gt;nd27 -->
<g id="edge13" class="edge"><title>nd1:e&#45;&gt;nd27:w</title>
<path fill="none" stroke="red" d="M3.6,-112C6.43333,-112 8.46979,-112 10.307,-112"/>
<polygon fill="red" stroke="red" points="10.6,-115.5 20.6,-112 10.6,-108.5 10.6,-115.5"/>
</g>
<!-- nd68 -->
<g id="node2" class="node"><title>nd68</title>
<g id="a_node2"><a xlink:title="nd68&#45;RecurGraph">
<ellipse fill="none" stroke="#000000" cx="266.6" cy="-114" rx="11" ry="11"/>
<text text-anchor="middle" x="266.6" y="-110.3" font-family="Times,serif" font-size="14.00">rec</text>
</a>
</g>
</g>
<!-- ndcluster_nd72 -->
<g id="node3" class="node"><title>ndcluster_nd72</title>
<g id="a_node3"><a xlink:title="nd72">
<ellipse fill="orange" stroke="orange" cx="319.6" cy="-114" rx="1.8" ry="1.8"/>
</a>
</g>
</g>
<!-- nd68&#45;&gt;ndcluster_nd72 -->
<g id="edge15" class="edge"><title>nd68:n&#45;&gt;ndcluster_nd72:n</title>
<path fill="none" stroke="black" d="M266.6,-126C266.6,-149.893 319.6,-140.893 319.6,-117"/>
</g>
<!-- nd68&#45;&gt;ndcluster_nd72 -->
<g id="edge16" class="edge"><title>nd68:s&#45;&gt;ndcluster_nd72:w</title>
<path fill="none" stroke="black" d="M266.6,-102C266.6,-97.091 272.773,-102.108 277.6,-103 295.31,-106.274 298.59,-114 316.6,-114"/>
</g>
<!-- nd14 -->
<g id="node4" class="node"><title>nd14</title>
<g id="a_node4"><a xlink:title="nd14&#45;ConstGraph">
<path fill="none" stroke="#000000" d="M393.2,-168C393.2,-168 405.2,-168 405.2,-168 411.2,-168 417.2,-162 417.2,-156 417.2,-156 417.2,-144 417.2,-144 417.2,-138 411.2,-132 405.2,-132 405.2,-132 393.2,-132 393.2,-132 387.2,-132 381.2,-138 381.2,-144 381.2,-144 381.2,-156 381.2,-156 381.2,-162 387.2,-168 393.2,-168"/>
<text text-anchor="middle" x="399.2" y="-146.3" font-family="Times,serif" font-size="14.00">1000</text>
</a>
</g>
</g>
<!-- nd28 -->
<g id="node6" class="node"><title>nd28</title>
<g id="a_node6"><a xlink:title="nd28&#45;BinOpGraph">
<ellipse fill="none" stroke="#000000" cx="142.6" cy="-161" rx="18" ry="18"/>
<text text-anchor="middle" x="142.6" y="-157.3" font-family="Times,serif" font-size="14.00">&lt;=</text>
</a>
</g>
</g>
<!-- nd27&#45;&gt;nd28 -->
<g id="edge8" class="edge"><title>nd27:n&#45;&gt;nd28:w</title>
<path fill="none" stroke="black" d="M38.6,-131C38.6,-171.481 84.1189,-161 124.6,-161"/>
<text text-anchor="middle" x="90.6" y="-166.8" font-family="Times,serif" font-size="14.00">condition</text>
</g>
<!-- nd40 -->
<g id="node8" class="node"><title>nd40</title>
<g id="a_node8"><a xlink:title="nd40&#45;ConstListGraph">
<path fill="none" stroke="#000000" d="M136.6,-130C136.6,-130 148.6,-130 148.6,-130 154.6,-130 160.6,-124 160.6,-118 160.6,-118 160.6,-106 160.6,-106 160.6,-100 154.6,-94 148.6,-94 148.6,-94 136.6,-94 136.6,-94 130.6,-94 124.6,-100 124.6,-106 124.6,-106 124.6,-118 124.6,-118 124.6,-124 130.6,-130 136.6,-130"/>
<text text-anchor="middle" x="142.6" y="-108.3" font-family="Times,serif" font-size="14.00">[]</text>
</a>
</g>
</g>
<!-- nd27&#45;&gt;nd40 -->
<g id="edge9" class="edge"><title>nd27:e&#45;&gt;nd40:w</title>
<path fill="none" stroke="grey" d="M56.6,-112C86.8222,-112 94.3778,-112 124.6,-112"/>
<text text-anchor="middle" x="90.6" y="-115.8" font-family="Times,serif" font-size="14.00">is true</text>
</g>
<!-- nd42 -->
<g id="node9" class="node"><title>nd42</title>
<g id="a_node9"><a xlink:title="nd42&#45;BinOpGraph">
<ellipse fill="none" stroke="#000000" cx="142.6" cy="-63" rx="18" ry="18"/>
<text text-anchor="middle" x="142.6" y="-59.3" font-family="Times,serif" font-size="14.00">::</text>
</a>
</g>
</g>
<!-- nd27&#45;&gt;nd42 -->
<g id="edge10" class="edge"><title>nd27:s&#45;&gt;nd42:w</title>
<path fill="none" stroke="grey" d="M38.6,-93C38.6,-52.5189 84.1189,-63 124.6,-63"/>
<text text-anchor="middle" x="90.6" y="-66.8" font-family="Times,serif" font-size="14.00">is false</text>
</g>
<!-- nd34 -->
<g id="node7" class="node"><title>nd34</title>
<g id="a_node7"><a xlink:title="nd34&#45;ConstGraph">
<path fill="none" stroke="#000000" d="M198.6,-159C198.6,-159 210.6,-159 210.6,-159 216.6,-159 222.6,-153 222.6,-147 222.6,-147 222.6,-135 222.6,-135 222.6,-129 216.6,-123 210.6,-123 210.6,-123 198.6,-123 198.6,-123 192.6,-123 186.6,-129 186.6,-135 186.6,-135 186.6,-147 186.6,-147 186.6,-153 192.6,-159 198.6,-159"/>
<text text-anchor="middle" x="204.6" y="-137.3" font-family="Times,serif" font-size="14.00">0</text>
</a>
</g>
</g>
<!-- nd28&#45;&gt;nd34 -->
<g id="edge1" class="edge"><title>nd28:s&#45;&gt;nd34:w</title>
<path fill="none" stroke="black" d="M142.6,-142C142.6,-132.442 176.042,-141 185.6,-141"/>
</g>
<!-- nd61 -->
<g id="node14" class="node"><title>nd61</title>
<g id="a_node14"><a xlink:title="nd61&#45;ContractGraph">
<ellipse fill="black" stroke="black" cx="356.4" cy="-150" rx="1.8" ry="1.8"/>
</a>
</g>
</g>
<!-- nd28&#45;&gt;nd61 -->
<g id="edge11" class="edge"><title>nd28:n&#45;&gt;nd61:w</title>
<path fill="none" stroke="black" d="M142.6,-180C142.6,-207.115 176.485,-179 203.6,-179 203.6,-179 203.6,-179 320.6,-179 340.461,-179 334.739,-150 354.6,-150"/>
</g>
<!-- nd45 -->
<g id="node10" class="node"><title>nd45</title>
<g id="a_node10"><a xlink:title="nd45&#45;AppGraph">
<path fill="none" stroke="#000000" d="M190.038,-57C190.038,-57 183.819,-51 183.819,-51 180.709,-48 180.709,-42 183.819,-39 183.819,-39 190.038,-33 190.038,-33 193.147,-30 200.577,-27.0024 204.898,-27.0048 204.898,-27.0048 217.802,-27.012 217.802,-27.012 222.123,-27.0144 226.443,-31.3375 226.443,-35.6582 226.443,-35.6582 226.443,-54.3418 226.443,-54.3418 226.443,-58.6625 222.123,-62.9856 217.802,-62.988 217.802,-62.988 204.898,-62.9952 204.898,-62.9952 200.577,-62.9976 193.147,-60 190.038,-57"/>
<text text-anchor="middle" x="204.6" y="-41.3" font-family="Times,serif" font-size="14.00">@</text>
</a>
</g>
</g>
<!-- nd42&#45;&gt;nd45 -->
<g id="edge5" class="edge"><title>nd42:s&#45;&gt;nd45:w</title>
<path fill="none" stroke="black" d="M142.6,-44C142.6,-28.4381 162.038,-45 177.6,-45"/>
</g>
<!-- nd59 -->
<g id="node13" class="node"><title>nd59</title>
<g id="a_node13"><a xlink:title="nd59&#45;ContractGraph">
<ellipse fill="black" stroke="black" cx="319.6" cy="-83" rx="1.8" ry="1.8"/>
</a>
</g>
</g>
<!-- nd42&#45;&gt;nd59 -->
<g id="edge7" class="edge"><title>nd42:n&#45;&gt;nd59:w</title>
<path fill="none" stroke="black" d="M142.6,-82C142.6,-91.6668 306.933,-83 316.6,-83"/>
</g>
<!-- nd45&#45;&gt;nd68 -->
<g id="edge3" class="edge"><title>nd45:n&#45;&gt;nd68:w</title>
<path fill="none" stroke="black" d="M204.6,-64C204.6,-95.427 223.173,-114 254.6,-114"/>
</g>
<!-- nd49 -->
<g id="node11" class="node"><title>nd49</title>
<g id="a_node11"><a xlink:title="nd49&#45;BinOpGraph">
<ellipse fill="none" stroke="#000000" cx="266.6" cy="-36" rx="18" ry="18"/>
<text text-anchor="middle" x="266.6" y="-32.3" font-family="Times,serif" font-size="14.00">&#45;</text>
</a>
</g>
</g>
<!-- nd45&#45;&gt;nd49 -->
<g id="edge4" class="edge"><title>nd45:s&#45;&gt;nd49:w</title>
<path fill="none" stroke="black" d="M204.6,-26C204.6,-13.9918 220.001,-23.8902 231.6,-27 239.857,-29.214 240.051,-36 248.6,-36"/>
</g>
<!-- nd55 -->
<g id="node12" class="node"><title>nd55</title>
<g id="a_node12"><a xlink:title="nd55&#45;ConstGraph">
<path fill="none" stroke="#000000" d="M313.6,-36C313.6,-36 325.6,-36 325.6,-36 331.6,-36 337.6,-30 337.6,-24 337.6,-24 337.6,-12 337.6,-12 337.6,-6 331.6,-0 325.6,-0 325.6,-0 313.6,-0 313.6,-0 307.6,-0 301.6,-6 301.6,-12 301.6,-12 301.6,-24 301.6,-24 301.6,-30 307.6,-36 313.6,-36"/>
<text text-anchor="middle" x="319.6" y="-14.3" font-family="Times,serif" font-size="14.00">1</text>
</a>
</g>
</g>
<!-- nd49&#45;&gt;nd55 -->
<g id="edge2" class="edge"><title>nd49:s&#45;&gt;nd55:w</title>
<path fill="none" stroke="black" d="M266.6,-17C266.6,-1.4381 286.038,-18 301.6,-18"/>
</g>
<!-- nd49&#45;&gt;nd59 -->
<g id="edge6" class="edge"><title>nd49:n&#45;&gt;nd59:w</title>
<path fill="none" stroke="black" d="M266.6,-55C266.6,-61.3674 310.233,-83 316.6,-83"/>
</g>
<!-- nd59&#45;&gt;nd61 -->
<g id="edge12" class="edge"><title>nd59:e&#45;&gt;nd61:w</title>
<path fill="none" stroke="black" d="M322.6,-83C355.6,-83 321.6,-150 354.6,-150"/>
</g>
<!-- nd61&#45;&gt;nd14 -->
<g id="edge14" class="edge"><title>nd61:e&#45;&gt;nd14:w</title>
<path fill="none" stroke="black" d="M358.2,-150C368.422,-150 370.978,-150 381.2,-150"/>
<text text-anchor="middle" x="369.7" y="-153.8" font-family="Times,serif" font-size="14.00">x</text>
</g>
</g>
</svg>
