<?xml version="1.0" encoding="UTF-8" standalone="no"?>
<!DOCTYPE svg PUBLIC "-//W3C//DTD SVG 1.1//EN"
 "http://www.w3.org/Graphics/SVG/1.1/DTD/svg11.dtd">
<!-- Generated by graphviz version 2.38.0 (20140413.2041)
 -->
<!-- Title: G Pages: 1 -->
<svg width="557pt" height="262pt"
 viewBox="0.00 0.00 557.20 262.00" xmlns="http://www.w3.org/2000/svg" xmlns:xlink="http://www.w3.org/1999/xlink">
<g id="graph0" class="graph" transform="scale(1 1) rotate(0) translate(4 258)">
<title>G</title>
<polygon fill="white" stroke="none" points="-4,4 -4,-258 553.2,-258 553.2,4 -4,4"/>
<g id="clust1" class="cluster"><title>cluster_nd162</title>
<polygon fill="none" stroke="orange" points="441.8,-102 441.8,-122 461.4,-122 461.4,-102 441.8,-102"/>
</g>
<!-- nd1 -->
<g id="node1" class="node"><title>nd1</title>
<ellipse fill="black" stroke="black" cx="1.8" cy="-211" rx="1.8" ry="1.8"/>
</g>
<!-- nd42 -->
<g id="node3" class="node"><title>nd42</title>
<g id="a_node3"><a xlink:title="nd42&#45;BinOpGraph">
<ellipse fill="none" stroke="#000000" cx="38.6" cy="-211" rx="18" ry="18"/>
<text text-anchor="middle" x="38.6" y="-207.3" font-family="Times,serif" font-size="14.00">::</text>
</a>
</g>
</g>
<!-- nd1&#45;&gt;nd42 -->
<g id="edge2" class="edge"><title>nd1:e&#45;&gt;nd42:w</title>
<path fill="none" stroke="#b70000" d="M3.6,-211C11.1556,-211 13.0444,-211 20.6,-211"/>
</g>
<!-- nd14 -->
<g id="node2" class="node"><title>nd14</title>
<g id="a_node2"><a xlink:title="nd14&#45;ConstGraph">
<path fill="none" stroke="#000000" d="M144.6,-254C144.6,-254 156.6,-254 156.6,-254 162.6,-254 168.6,-248 168.6,-242 168.6,-242 168.6,-230 168.6,-230 168.6,-224 162.6,-218 156.6,-218 156.6,-218 144.6,-218 144.6,-218 138.6,-218 132.6,-224 132.6,-230 132.6,-230 132.6,-242 132.6,-242 132.6,-248 138.6,-254 144.6,-254"/>
<text text-anchor="middle" x="150.6" y="-232.3" font-family="Times,serif" font-size="14.00">1000</text>
</a>
</g>
</g>
<!-- nd59 -->
<g id="node4" class="node"><title>nd59</title>
<g id="a_node4"><a xlink:title="nd59&#45;ContractGraph">
<ellipse fill="black" stroke="black" cx="91.6" cy="-235" rx="1.8" ry="1.8"/>
</a>
</g>
</g>
<!-- nd42&#45;&gt;nd59 -->
<g id="edge1" class="edge"><title>nd42:n&#45;&gt;nd59:w</title>
<path fill="none" stroke="black" d="M38.6,-230C38.6,-252.333 66.2669,-235 88.6,-235"/>
</g>
<!-- nd84 -->
<g id="node6" class="node"><title>nd84</title>
<g id="a_node6"><a xlink:title="nd84&#45;BinOpGraph">
<ellipse fill="none" stroke="#000000" cx="91.6" cy="-185" rx="18" ry="18"/>
<text text-anchor="middle" x="91.6" y="-181.3" font-family="Times,serif" font-size="14.00">::</text>
</a>
</g>
</g>
<!-- nd42&#45;&gt;nd84 -->
<g id="edge5" class="edge"><title>nd42:s&#45;&gt;nd84:w</title>
<path fill="none" stroke="#b70000" d="M38.6,-192C38.6,-176.136 57.7364,-185 73.6,-185"/>
</g>
<!-- nd59&#45;&gt;nd14 -->
<g id="edge3" class="edge"><title>nd59:e&#45;&gt;nd14:w</title>
<path fill="none" stroke="black" d="M94.6,-235C111.495,-235 115.705,-236 132.6,-236"/>
<text text-anchor="middle" x="121.1" y="-238.8" font-family="Times,serif" font-size="14.00">x</text>
</g>
<!-- nd111 -->
<g id="node5" class="node"><title>nd111</title>
<g id="a_node5"><a xlink:title="nd111&#45;ConstGraph">
<path fill="none" stroke="#000000" d="M248.6,-229C248.6,-229 260.6,-229 260.6,-229 266.6,-229 272.6,-223 272.6,-217 272.6,-217 272.6,-205 272.6,-205 272.6,-199 266.6,-193 260.6,-193 260.6,-193 248.6,-193 248.6,-193 242.6,-193 236.6,-199 236.6,-205 236.6,-205 236.6,-217 236.6,-217 236.6,-223 242.6,-229 248.6,-229"/>
<text text-anchor="middle" x="254.6" y="-207.3" font-family="Times,serif" font-size="14.00">999</text>
</a>
</g>
</g>
<!-- nd92 -->
<g id="node7" class="node"><title>nd92</title>
<g id="a_node7"><a xlink:title="nd92&#45;ContractGraph">
<ellipse fill="black" stroke="black" cx="150.6" cy="-203" rx="1.8" ry="1.8"/>
</a>
</g>
</g>
<!-- nd84&#45;&gt;nd92 -->
<g id="edge4" class="edge"><title>nd84:n&#45;&gt;nd92:w</title>
<path fill="none" stroke="black" d="M91.6,-204C91.6,-228.893 122.707,-203 147.6,-203"/>
</g>
<!-- nd119 -->
<g id="node11" class="node"><title>nd119</title>
<g id="a_node11"><a xlink:title="nd119&#45;IfGraph">
<ellipse fill="none" stroke="#000000" cx="150.6" cy="-121" rx="18" ry="18"/>
<text text-anchor="middle" x="150.6" y="-117.3" font-family="Times,serif" font-size="14.00">if</text>
</a>
</g>
</g>
<!-- nd84&#45;&gt;nd119 -->
<g id="edge19" class="edge"><title>nd84:s&#45;&gt;nd119:w</title>
<path fill="none" stroke="#b70000" d="M91.6,-166C91.6,-138.944 105.544,-121 132.6,-121"/>
</g>
<!-- nd92&#45;&gt;nd111 -->
<g id="edge6" class="edge"><title>nd92:e&#45;&gt;nd111:w</title>
<path fill="none" stroke="black" d="M153.6,-203C190.66,-203 199.54,-211 236.6,-211"/>
<text text-anchor="middle" x="202.6" y="-214.8" font-family="Times,serif" font-size="14.00">x</text>
</g>
<!-- nd156 -->
<g id="node8" class="node"><title>nd156</title>
<g id="a_node8"><a xlink:title="nd156&#45;ConstGraph">
<path fill="none" stroke="#000000" d="M525.2,-91C525.2,-91 537.2,-91 537.2,-91 543.2,-91 549.2,-85 549.2,-79 549.2,-79 549.2,-67 549.2,-67 549.2,-61 543.2,-55 537.2,-55 537.2,-55 525.2,-55 525.2,-55 519.2,-55 513.2,-61 513.2,-67 513.2,-67 513.2,-79 513.2,-79 513.2,-85 519.2,-91 525.2,-91"/>
<text text-anchor="middle" x="531.2" y="-69.3" font-family="Times,serif" font-size="14.00">998</text>
</a>
</g>
</g>
<!-- nd158 -->
<g id="node9" class="node"><title>nd158</title>
<g id="a_node9"><a xlink:title="nd158&#45;RecurGraph">
<ellipse fill="none" stroke="#000000" cx="398.6" cy="-114" rx="11" ry="11"/>
<text text-anchor="middle" x="398.6" y="-110.3" font-family="Times,serif" font-size="14.00">rec</text>
</a>
</g>
</g>
<!-- ndcluster_nd162 -->
<g id="node10" class="node"><title>ndcluster_nd162</title>
<g id="a_node10"><a xlink:title="nd162">
<ellipse fill="orange" stroke="orange" cx="451.6" cy="-112" rx="1.8" ry="1.8"/>
</a>
</g>
</g>
<!-- nd158&#45;&gt;ndcluster_nd162 -->
<g id="edge21" class="edge"><title>nd158:n&#45;&gt;ndcluster_nd162:n</title>
<path fill="none" stroke="black" d="M398.6,-126C398.6,-150.058 451.6,-139.058 451.6,-115"/>
</g>
<!-- nd158&#45;&gt;ndcluster_nd162 -->
<g id="edge22" class="edge"><title>nd158:s&#45;&gt;ndcluster_nd162:w</title>
<path fill="none" stroke="black" d="M398.6,-102C398.6,-97.091 404.753,-102.224 409.6,-103 427.165,-105.812 430.811,-112 448.6,-112"/>
</g>
<!-- nd120 -->
<g id="node12" class="node"><title>nd120</title>
<g id="a_node12"><a xlink:title="nd120&#45;BinOpGraph">
<ellipse fill="none" stroke="#000000" cx="254.6" cy="-162" rx="18" ry="18"/>
<text text-anchor="middle" x="254.6" y="-158.3" font-family="Times,serif" font-size="14.00">a &lt;= b</text>
</a>
</g>
</g>
<!-- nd119&#45;&gt;nd120 -->
<g id="edge14" class="edge"><title>nd119:n&#45;&gt;nd120:w</title>
<path fill="none" stroke="#b70000" d="M150.6,-140C150.6,-179.453 197.147,-162 236.6,-162"/>
<text text-anchor="middle" x="202.6" y="-169.8" font-family="Times,serif" font-size="14.00">condition</text>
</g>
<!-- nd128 -->
<g id="node14" class="node"><title>nd128</title>
<g id="a_node14"><a xlink:title="nd128&#45;ConstListGraph">
<path fill="none" stroke="#000000" d="M248.6,-131C248.6,-131 260.6,-131 260.6,-131 266.6,-131 272.6,-125 272.6,-119 272.6,-119 272.6,-107 272.6,-107 272.6,-101 266.6,-95 260.6,-95 260.6,-95 248.6,-95 248.6,-95 242.6,-95 236.6,-101 236.6,-107 236.6,-107 236.6,-119 236.6,-119 236.6,-125 242.6,-131 248.6,-131"/>
<text text-anchor="middle" x="254.6" y="-109.3" font-family="Times,serif" font-size="14.00">[]</text>
</a>
</g>
</g>
<!-- nd119&#45;&gt;nd128 -->
<g id="edge15" class="edge"><title>nd119:e&#45;&gt;nd128:w</title>
<path fill="none" stroke="grey" d="M168.6,-121C199.031,-121 206.169,-113 236.6,-113"/>
<text text-anchor="middle" x="202.6" y="-124.8" font-family="Times,serif" font-size="14.00">is true</text>
</g>
<!-- nd129 -->
<g id="node15" class="node"><title>nd129</title>
<g id="a_node15"><a xlink:title="nd129&#45;BinOpGraph">
<ellipse fill="none" stroke="#000000" cx="254.6" cy="-64" rx="18" ry="18"/>
<text text-anchor="middle" x="254.6" y="-60.3" font-family="Times,serif" font-size="14.00">::</text>
</a>
</g>
</g>
<!-- nd119&#45;&gt;nd129 -->
<g id="edge16" class="edge"><title>nd119:s&#45;&gt;nd129:w</title>
<path fill="none" stroke="grey" d="M150.6,-102C150.6,-60.2128 194.813,-64 236.6,-64"/>
<text text-anchor="middle" x="202.6" y="-71.8" font-family="Times,serif" font-size="14.00">is false</text>
</g>
<!-- nd124 -->
<g id="node13" class="node"><title>nd124</title>
<g id="a_node13"><a xlink:title="nd124&#45;ConstGraph">
<path fill="none" stroke="#000000" d="M330.6,-155C330.6,-155 342.6,-155 342.6,-155 348.6,-155 354.6,-149 354.6,-143 354.6,-143 354.6,-131 354.6,-131 354.6,-125 348.6,-119 342.6,-119 342.6,-119 330.6,-119 330.6,-119 324.6,-119 318.6,-125 318.6,-131 318.6,-131 318.6,-143 318.6,-143 318.6,-149 324.6,-155 330.6,-155"/>
<text text-anchor="middle" x="336.6" y="-133.3" font-family="Times,serif" font-size="14.00">0</text>
</a>
</g>
</g>
<!-- nd120&#45;&gt;nd124 -->
<g id="edge7" class="edge"><title>nd120:s&#45;&gt;nd124:w</title>
<path fill="none" stroke="black" d="M254.6,-143C254.6,-135.968 310.568,-137 317.6,-137"/>
<text text-anchor="middle" x="291.1" y="-141.8" font-family="Times,serif" font-size="14.00">b</text>
</g>
<!-- nd188 -->
<g id="node21" class="node"><title>nd188</title>
<g id="a_node21"><a xlink:title="nd188&#45;ConstGraph">
<path fill="none" stroke="#000000" d="M330.6,-204C330.6,-204 342.6,-204 342.6,-204 348.6,-204 354.6,-198 354.6,-192 354.6,-192 354.6,-180 354.6,-180 354.6,-174 348.6,-168 342.6,-168 342.6,-168 330.6,-168 330.6,-168 324.6,-168 318.6,-174 318.6,-180 318.6,-180 318.6,-192 318.6,-192 318.6,-198 324.6,-204 330.6,-204"/>
<text text-anchor="middle" x="336.6" y="-182.3" font-family="Times,serif" font-size="14.00">998</text>
</a>
</g>
</g>
<!-- nd120&#45;&gt;nd188 -->
<g id="edge17" class="edge"><title>nd120:n&#45;&gt;nd188:w</title>
<path fill="none" stroke="red" d="M263.964,-184.817C280.21,-187.114 312.388,-186 317.6,-186"/>
<polygon fill="red" stroke="red" points="265.181,-181.534 254.6,-181 262.539,-188.016 265.181,-181.534"/>
<text text-anchor="middle" x="291.1" y="-190.8" font-family="Times,serif" font-size="14.00">a, x</text>
</g>
<!-- nd130 -->
<g id="node16" class="node"><title>nd130</title>
<g id="a_node16"><a xlink:title="nd130&#45;AppGraph">
<path fill="none" stroke="#000000" d="M322.038,-57C322.038,-57 315.819,-51 315.819,-51 312.709,-48 312.709,-42 315.819,-39 315.819,-39 322.038,-33 322.038,-33 325.147,-30 332.577,-27.0024 336.898,-27.0048 336.898,-27.0048 349.802,-27.012 349.802,-27.012 354.123,-27.0144 358.443,-31.3375 358.443,-35.6582 358.443,-35.6582 358.443,-54.3418 358.443,-54.3418 358.443,-58.6625 354.123,-62.9856 349.802,-62.988 349.802,-62.988 336.898,-62.9952 336.898,-62.9952 332.577,-62.9976 325.147,-60 322.038,-57"/>
<text text-anchor="middle" x="336.6" y="-41.3" font-family="Times,serif" font-size="14.00">@</text>
</a>
</g>
</g>
<!-- nd129&#45;&gt;nd130 -->
<g id="edge11" class="edge"><title>nd129:s&#45;&gt;nd130:w</title>
<path fill="none" stroke="black" d="M254.6,-45C254.6,-20.5556 285.156,-45 309.6,-45"/>
</g>
<!-- nd137 -->
<g id="node19" class="node"><title>nd137</title>
<g id="a_node19"><a xlink:title="nd137&#45;ContractGraph">
<ellipse fill="black" stroke="black" cx="451.6" cy="-73" rx="1.8" ry="1.8"/>
</a>
</g>
</g>
<!-- nd129&#45;&gt;nd137 -->
<g id="edge13" class="edge"><title>nd129:n&#45;&gt;nd137:w</title>
<path fill="none" stroke="black" d="M254.6,-83C254.6,-93.7921 437.808,-73 448.6,-73"/>
</g>
<!-- nd130&#45;&gt;nd158 -->
<g id="edge9" class="edge"><title>nd130:n&#45;&gt;nd158:w</title>
<path fill="none" stroke="black" d="M336.6,-64C336.6,-95.427 355.173,-114 386.6,-114"/>
</g>
<!-- nd132 -->
<g id="node17" class="node"><title>nd132</title>
<g id="a_node17"><a xlink:title="nd132&#45;BinOpGraph">
<ellipse fill="none" stroke="#000000" cx="398.6" cy="-36" rx="18" ry="18"/>
<text text-anchor="middle" x="398.6" y="-32.3" font-family="Times,serif" font-size="14.00">&#45;</text>
</a>
</g>
</g>
<!-- nd130&#45;&gt;nd132 -->
<g id="edge10" class="edge"><title>nd130:s&#45;&gt;nd132:w</title>
<path fill="none" stroke="black" d="M336.6,-26C336.6,-13.9918 352.001,-23.8902 363.6,-27 371.857,-29.214 372.051,-36 380.6,-36"/>
</g>
<!-- nd136 -->
<g id="node18" class="node"><title>nd136</title>
<g id="a_node18"><a xlink:title="nd136&#45;ConstGraph">
<path fill="none" stroke="#000000" d="M445.6,-36C445.6,-36 457.6,-36 457.6,-36 463.6,-36 469.6,-30 469.6,-24 469.6,-24 469.6,-12 469.6,-12 469.6,-6 463.6,-0 457.6,-0 457.6,-0 445.6,-0 445.6,-0 439.6,-0 433.6,-6 433.6,-12 433.6,-12 433.6,-24 433.6,-24 433.6,-30 439.6,-36 445.6,-36"/>
<text text-anchor="middle" x="451.6" y="-14.3" font-family="Times,serif" font-size="14.00">1</text>
</a>
</g>
</g>
<!-- nd132&#45;&gt;nd136 -->
<g id="edge8" class="edge"><title>nd132:s&#45;&gt;nd136:w</title>
<path fill="none" stroke="black" d="M398.6,-17C398.6,-1.4381 418.038,-18 433.6,-18"/>
</g>
<!-- nd132&#45;&gt;nd137 -->
<g id="edge12" class="edge"><title>nd132:n&#45;&gt;nd137:w</title>
<path fill="none" stroke="black" d="M398.6,-55C398.6,-66.8092 436.791,-73 448.6,-73"/>
</g>
<!-- nd138 -->
<g id="node20" class="node"><title>nd138</title>
<g id="a_node20"><a xlink:title="nd138&#45;ContractGraph">
<ellipse fill="black" stroke="black" cx="488.4" cy="-73" rx="1.8" ry="1.8"/>
</a>
</g>
</g>
<!-- nd137&#45;&gt;nd138 -->
<g id="edge18" class="edge"><title>nd137:e&#45;&gt;nd138:w</title>
<path fill="none" stroke="black" d="M454.6,-73C468.822,-73 472.378,-73 486.6,-73"/>
</g>
<!-- nd138&#45;&gt;nd156 -->
<g id="edge20" class="edge"><title>nd138:e&#45;&gt;nd156:w</title>
<path fill="none" stroke="black" d="M490.2,-73C500.422,-73 502.978,-73 513.2,-73"/>
<text text-anchor="middle" x="501.7" y="-76.8" font-family="Times,serif" font-size="14.00">x</text>
</g>
</g>
</svg>
