<?xml version="1.0" encoding="UTF-8" standalone="no"?>
<!DOCTYPE svg PUBLIC "-//W3C//DTD SVG 1.1//EN"
 "http://www.w3.org/Graphics/SVG/1.1/DTD/svg11.dtd">
<!-- Generated by graphviz version 2.38.0 (20140413.2041)
 -->
<!-- Title: G Pages: 1 -->
<svg width="437pt" height="182pt"
 viewBox="0.00 0.00 437.20 182.00" xmlns="http://www.w3.org/2000/svg" xmlns:xlink="http://www.w3.org/1999/xlink">
<g id="graph0" class="graph" transform="scale(1 1) rotate(0) translate(4 178)">
<title>G</title>
<polygon fill="white" stroke="none" points="-4,4 -4,-178 433.2,-178 433.2,4 -4,4"/>
<g id="clust1" class="cluster"><title>cluster_nd72</title>
<polygon fill="none" stroke="orange" points="321.8,-96 321.8,-116 341.4,-116 341.4,-96 321.8,-96"/>
</g>
<!-- nd1 -->
<g id="node1" class="node"><title>nd1</title>
<ellipse fill="black" stroke="black" cx="1.8" cy="-107" rx="1.8" ry="1.8"/>
</g>
<!-- nd27 -->
<g id="node5" class="node"><title>nd27</title>
<g id="a_node5"><a xlink:title="nd27&#45;IfGraph">
<ellipse fill="none" stroke="#000000" cx="38.6" cy="-107" rx="18" ry="18"/>
<text text-anchor="middle" x="38.6" y="-103.3" font-family="Times,serif" font-size="14.00">if</text>
</a>
</g>
</g>
<!-- nd1&#45;&gt;nd27 -->
<g id="edge11" class="edge"><title>nd1:e&#45;&gt;nd27:w</title>
<path fill="none" stroke="#b70000" d="M3.6,-107C11.1556,-107 13.0444,-107 20.6,-107"/>
</g>
<!-- nd68 -->
<g id="node2" class="node"><title>nd68</title>
<g id="a_node2"><a xlink:title="nd68&#45;RecurGraph">
<ellipse fill="none" stroke="#000000" cx="278.6" cy="-108" rx="11" ry="11"/>
<text text-anchor="middle" x="278.6" y="-104.3" font-family="Times,serif" font-size="14.00">rec</text>
</a>
</g>
</g>
<!-- ndcluster_nd72 -->
<g id="node3" class="node"><title>ndcluster_nd72</title>
<g id="a_node3"><a xlink:title="nd72">
<ellipse fill="orange" stroke="orange" cx="331.6" cy="-106" rx="1.8" ry="1.8"/>
</a>
</g>
</g>
<!-- nd68&#45;&gt;ndcluster_nd72 -->
<g id="edge13" class="edge"><title>nd68:n&#45;&gt;ndcluster_nd72:n</title>
<path fill="none" stroke="black" d="M278.6,-120C278.6,-144.058 331.6,-133.058 331.6,-109"/>
</g>
<!-- nd68&#45;&gt;ndcluster_nd72 -->
<g id="edge14" class="edge"><title>nd68:s&#45;&gt;ndcluster_nd72:w</title>
<path fill="none" stroke="black" d="M278.6,-96C278.6,-91.091 284.753,-96.2241 289.6,-97 307.165,-99.8118 310.811,-106 328.6,-106"/>
</g>
<!-- nd14 -->
<g id="node4" class="node"><title>nd14</title>
<g id="a_node4"><a xlink:title="nd14&#45;ConstGraph">
<path fill="none" stroke="#000000" d="M405.2,-85C405.2,-85 417.2,-85 417.2,-85 423.2,-85 429.2,-79 429.2,-73 429.2,-73 429.2,-61 429.2,-61 429.2,-55 423.2,-49 417.2,-49 417.2,-49 405.2,-49 405.2,-49 399.2,-49 393.2,-55 393.2,-61 393.2,-61 393.2,-73 393.2,-73 393.2,-79 399.2,-85 405.2,-85"/>
<text text-anchor="middle" x="411.2" y="-63.3" font-family="Times,serif" font-size="14.00">1000</text>
</a>
</g>
</g>
<!-- nd40 -->
<g id="node6" class="node"><title>nd40</title>
<g id="a_node6"><a xlink:title="nd40&#45;ConstListGraph">
<path fill="none" stroke="#000000" d="M136.6,-125C136.6,-125 148.6,-125 148.6,-125 154.6,-125 160.6,-119 160.6,-113 160.6,-113 160.6,-101 160.6,-101 160.6,-95 154.6,-89 148.6,-89 148.6,-89 136.6,-89 136.6,-89 130.6,-89 124.6,-95 124.6,-101 124.6,-101 124.6,-113 124.6,-113 124.6,-119 130.6,-125 136.6,-125"/>
<text text-anchor="middle" x="142.6" y="-103.3" font-family="Times,serif" font-size="14.00">[]</text>
</a>
</g>
</g>
<!-- nd27&#45;&gt;nd40 -->
<g id="edge8" class="edge"><title>nd27:e&#45;&gt;nd40:w</title>
<path fill="none" stroke="grey" d="M56.6,-107C86.8222,-107 94.3778,-107 124.6,-107"/>
<text text-anchor="middle" x="90.6" y="-110.8" font-family="Times,serif" font-size="14.00">is true</text>
</g>
<!-- nd42 -->
<g id="node7" class="node"><title>nd42</title>
<g id="a_node7"><a xlink:title="nd42&#45;BinOpGraph">
<ellipse fill="none" stroke="#000000" cx="142.6" cy="-58" rx="18" ry="18"/>
<text text-anchor="middle" x="142.6" y="-54.3" font-family="Times,serif" font-size="14.00">a :: b</text>
</a>
</g>
</g>
<!-- nd27&#45;&gt;nd42 -->
<g id="edge9" class="edge"><title>nd27:s&#45;&gt;nd42:w</title>
<path fill="none" stroke="red" d="M38.6,-88C38.6,-50.8397 76.9573,-56.6234 114.564,-57.8223"/>
<polygon fill="red" stroke="red" points="114.54,-61.3223 124.6,-58 114.664,-54.3234 114.54,-61.3223"/>
<text text-anchor="middle" x="90.6" y="-61.8" font-family="Times,serif" font-size="14.00">is false</text>
</g>
<!-- nd102 -->
<g id="node13" class="node"><title>nd102</title>
<g id="a_node13"><a xlink:title="nd102&#45;ConstGraph">
<path fill="none" stroke="#000000" d="M136.6,-174C136.6,-174 148.6,-174 148.6,-174 154.6,-174 160.6,-168 160.6,-162 160.6,-162 160.6,-150 160.6,-150 160.6,-144 154.6,-138 148.6,-138 148.6,-138 136.6,-138 136.6,-138 130.6,-138 124.6,-144 124.6,-150 124.6,-150 124.6,-162 124.6,-162 124.6,-168 130.6,-174 136.6,-174"/>
<text text-anchor="middle" x="142.6" y="-152.3" font-family="Times,serif" font-size="14.00">false</text>
</a>
</g>
</g>
<!-- nd27&#45;&gt;nd102 -->
<g id="edge7" class="edge"><title>nd27:n&#45;&gt;nd102:w</title>
<path fill="none" stroke="black" d="M38.6,-126C38.6,-166.481 84.1189,-156 124.6,-156"/>
<text text-anchor="middle" x="90.6" y="-161.8" font-family="Times,serif" font-size="14.00">condition</text>
</g>
<!-- nd45 -->
<g id="node8" class="node"><title>nd45</title>
<g id="a_node8"><a xlink:title="nd45&#45;AppGraph">
<path fill="none" stroke="#000000" d="M196.038,-51C196.038,-51 189.819,-45 189.819,-45 186.709,-42 186.709,-36 189.819,-33 189.819,-33 196.038,-27 196.038,-27 199.147,-24 206.577,-21.0024 210.898,-21.0048 210.898,-21.0048 223.802,-21.012 223.802,-21.012 228.123,-21.0144 232.443,-25.3375 232.443,-29.6582 232.443,-29.6582 232.443,-48.3418 232.443,-48.3418 232.443,-52.6625 228.123,-56.9856 223.802,-56.988 223.802,-56.988 210.898,-56.9952 210.898,-56.9952 206.577,-56.9976 199.147,-54 196.038,-51"/>
<text text-anchor="middle" x="210.6" y="-35.3" font-family="Times,serif" font-size="14.00">@</text>
</a>
</g>
</g>
<!-- nd42&#45;&gt;nd45 -->
<g id="edge4" class="edge"><title>nd42:s&#45;&gt;nd45:w</title>
<path fill="none" stroke="black" d="M142.6,-39C142.6,-20.7778 165.378,-39 183.6,-39"/>
<text text-anchor="middle" x="172.1" y="-42.8" font-family="Times,serif" font-size="14.00">b</text>
</g>
<!-- nd59 -->
<g id="node11" class="node"><title>nd59</title>
<g id="a_node11"><a xlink:title="nd59&#45;ContractGraph">
<ellipse fill="black" stroke="black" cx="331.6" cy="-67" rx="1.8" ry="1.8"/>
</a>
</g>
</g>
<!-- nd42&#45;&gt;nd59 -->
<g id="edge6" class="edge"><title>nd42:n&#45;&gt;nd59:w</title>
<path fill="none" stroke="black" d="M142.6,-77C142.6,-87.3483 318.252,-67 328.6,-67"/>
<text text-anchor="middle" x="249.1" y="-78.8" font-family="Times,serif" font-size="14.00">a</text>
</g>
<!-- nd45&#45;&gt;nd68 -->
<g id="edge2" class="edge"><title>nd45:n&#45;&gt;nd68:w</title>
<path fill="none" stroke="black" d="M210.6,-58C210.6,-76.7985 238.148,-50.9786 252.6,-63 268.703,-76.3945 245.654,-108 266.6,-108"/>
</g>
<!-- nd49 -->
<g id="node9" class="node"><title>nd49</title>
<g id="a_node9"><a xlink:title="nd49&#45;BinOpGraph">
<ellipse fill="none" stroke="#000000" cx="278.6" cy="-36" rx="18" ry="18"/>
<text text-anchor="middle" x="278.6" y="-32.3" font-family="Times,serif" font-size="14.00">&#45;</text>
</a>
</g>
</g>
<!-- nd45&#45;&gt;nd49 -->
<g id="edge3" class="edge"><title>nd45:s&#45;&gt;nd49:w</title>
<path fill="none" stroke="black" d="M210.6,-20C210.6,-7.99177 226.155,-17.3658 237.6,-21 249.232,-24.6934 248.396,-36 260.6,-36"/>
</g>
<!-- nd55 -->
<g id="node10" class="node"><title>nd55</title>
<g id="a_node10"><a xlink:title="nd55&#45;ConstGraph">
<path fill="none" stroke="#000000" d="M325.6,-36C325.6,-36 337.6,-36 337.6,-36 343.6,-36 349.6,-30 349.6,-24 349.6,-24 349.6,-12 349.6,-12 349.6,-6 343.6,-0 337.6,-0 337.6,-0 325.6,-0 325.6,-0 319.6,-0 313.6,-6 313.6,-12 313.6,-12 313.6,-24 313.6,-24 313.6,-30 319.6,-36 325.6,-36"/>
<text text-anchor="middle" x="331.6" y="-14.3" font-family="Times,serif" font-size="14.00">1</text>
</a>
</g>
</g>
<!-- nd49&#45;&gt;nd55 -->
<g id="edge1" class="edge"><title>nd49:s&#45;&gt;nd55:w</title>
<path fill="none" stroke="black" d="M278.6,-17C278.6,-1.4381 298.038,-18 313.6,-18"/>
</g>
<!-- nd49&#45;&gt;nd59 -->
<g id="edge5" class="edge"><title>nd49:n&#45;&gt;nd59:w</title>
<path fill="none" stroke="black" d="M278.6,-55C278.6,-66.4266 317.173,-67 328.6,-67"/>
</g>
<!-- nd61 -->
<g id="node12" class="node"><title>nd61</title>
<g id="a_node12"><a xlink:title="nd61&#45;ContractGraph">
<ellipse fill="black" stroke="black" cx="368.4" cy="-67" rx="1.8" ry="1.8"/>
</a>
</g>
</g>
<!-- nd59&#45;&gt;nd61 -->
<g id="edge10" class="edge"><title>nd59:e&#45;&gt;nd61:w</title>
<path fill="none" stroke="black" d="M334.6,-67C348.822,-67 352.378,-67 366.6,-67"/>
</g>
<!-- nd61&#45;&gt;nd14 -->
<g id="edge12" class="edge"><title>nd61:e&#45;&gt;nd14:w</title>
<path fill="none" stroke="black" d="M370.2,-67C380.422,-67 382.978,-67 393.2,-67"/>
<text text-anchor="middle" x="381.7" y="-70.8" font-family="Times,serif" font-size="14.00">x</text>
</g>
</g>
</svg>
