<?xml version="1.0" encoding="UTF-8" standalone="no"?>
<!DOCTYPE svg PUBLIC "-//W3C//DTD SVG 1.1//EN"
 "http://www.w3.org/Graphics/SVG/1.1/DTD/svg11.dtd">
<!-- Generated by graphviz version 2.38.0 (20140413.2041)
 -->
<!-- Title: G Pages: 1 -->
<svg width="380pt" height="148pt"
 viewBox="0.00 0.00 380.20 147.92" xmlns="http://www.w3.org/2000/svg" xmlns:xlink="http://www.w3.org/1999/xlink">
<g id="graph0" class="graph" transform="scale(1 1) rotate(0) translate(4 143.918)">
<title>G</title>
<polygon fill="white" stroke="none" points="-4,4 -4,-143.918 376.2,-143.918 376.2,4 -4,4"/>
<g id="clust1" class="cluster"><title>cluster_nd117</title>
<polygon fill="none" stroke="orange" points="264.8,-102 264.8,-122 284.4,-122 284.4,-102 264.8,-102"/>
</g>
<!-- nd1 -->
<g id="node1" class="node"><title>nd1</title>
<ellipse fill="black" stroke="black" cx="1.8" cy="-94" rx="1.8" ry="1.8"/>
</g>
<!-- nd42 -->
<g id="node3" class="node"><title>nd42</title>
<g id="a_node3"><a xlink:title="nd42&#45;BinOpGraph">
<ellipse fill="none" stroke="#000000" cx="38.6" cy="-94" rx="18" ry="18"/>
<text text-anchor="middle" x="38.6" y="-90.3" font-family="Times,serif" font-size="14.00">::</text>
</a>
</g>
</g>
<!-- nd1&#45;&gt;nd42 -->
<g id="edge2" class="edge"><title>nd1:e&#45;&gt;nd42:w</title>
<path fill="none" stroke="#b70000" d="M3.6,-94C11.1556,-94 13.0444,-94 20.6,-94"/>
</g>
<!-- nd14 -->
<g id="node2" class="node"><title>nd14</title>
<g id="a_node2"><a xlink:title="nd14&#45;ConstGraph">
<path fill="none" stroke="#000000" d="M153.6,-139C153.6,-139 165.6,-139 165.6,-139 171.6,-139 177.6,-133 177.6,-127 177.6,-127 177.6,-115 177.6,-115 177.6,-109 171.6,-103 165.6,-103 165.6,-103 153.6,-103 153.6,-103 147.6,-103 141.6,-109 141.6,-115 141.6,-115 141.6,-127 141.6,-127 141.6,-133 147.6,-139 153.6,-139"/>
<text text-anchor="middle" x="159.6" y="-117.3" font-family="Times,serif" font-size="14.00">1000</text>
</a>
</g>
</g>
<!-- nd59 -->
<g id="node4" class="node"><title>nd59</title>
<g id="a_node4"><a xlink:title="nd59&#45;ContractGraph">
<ellipse fill="black" stroke="black" cx="91.6" cy="-119" rx="1.8" ry="1.8"/>
</a>
</g>
</g>
<!-- nd42&#45;&gt;nd59 -->
<g id="edge1" class="edge"><title>nd42:n&#45;&gt;nd59:w</title>
<path fill="none" stroke="black" d="M38.6,-113C38.6,-135.382 66.2183,-119 88.6,-119"/>
</g>
<!-- nd84 -->
<g id="node8" class="node"><title>nd84</title>
<g id="a_node8"><a xlink:title="nd84&#45;BinOpGraph">
<ellipse fill="none" stroke="#000000" cx="91.6" cy="-65" rx="18" ry="18"/>
<text text-anchor="middle" x="91.6" y="-61.3" font-family="Times,serif" font-size="14.00">::</text>
</a>
</g>
</g>
<!-- nd42&#45;&gt;nd84 -->
<g id="edge10" class="edge"><title>nd42:s&#45;&gt;nd84:w</title>
<path fill="none" stroke="#b70000" d="M38.6,-75C38.6,-58.822 57.422,-65 73.6,-65"/>
</g>
<!-- nd59&#45;&gt;nd14 -->
<g id="edge3" class="edge"><title>nd59:e&#45;&gt;nd14:w</title>
<path fill="none" stroke="black" d="M94.6,-119C115.064,-119 120.136,-121 140.6,-121"/>
<text text-anchor="middle" x="121.1" y="-124.8" font-family="Times,serif" font-size="14.00">x</text>
</g>
<!-- nd111 -->
<g id="node5" class="node"><title>nd111</title>
<g id="a_node5"><a xlink:title="nd111&#45;ConstGraph">
<path fill="none" stroke="#000000" d="M348.2,-91C348.2,-91 360.2,-91 360.2,-91 366.2,-91 372.2,-85 372.2,-79 372.2,-79 372.2,-67 372.2,-67 372.2,-61 366.2,-55 360.2,-55 360.2,-55 348.2,-55 348.2,-55 342.2,-55 336.2,-61 336.2,-67 336.2,-67 336.2,-79 336.2,-79 336.2,-85 342.2,-91 348.2,-91"/>
<text text-anchor="middle" x="354.2" y="-69.3" font-family="Times,serif" font-size="14.00">999</text>
</a>
</g>
</g>
<!-- nd113 -->
<g id="node6" class="node"><title>nd113</title>
<g id="a_node6"><a xlink:title="nd113&#45;RecurGraph">
<ellipse fill="none" stroke="#000000" cx="221.6" cy="-114" rx="11" ry="11"/>
<text text-anchor="middle" x="221.6" y="-110.3" font-family="Times,serif" font-size="14.00">rec</text>
</a>
</g>
</g>
<!-- ndcluster_nd117 -->
<g id="node7" class="node"><title>ndcluster_nd117</title>
<g id="a_node7"><a xlink:title="nd117">
<ellipse fill="orange" stroke="orange" cx="274.6" cy="-112" rx="1.8" ry="1.8"/>
</a>
</g>
</g>
<!-- nd113&#45;&gt;ndcluster_nd117 -->
<g id="edge13" class="edge"><title>nd113:n&#45;&gt;ndcluster_nd117:n</title>
<path fill="none" stroke="black" d="M221.6,-126C221.6,-150.058 274.6,-139.058 274.6,-115"/>
</g>
<!-- nd113&#45;&gt;ndcluster_nd117 -->
<g id="edge14" class="edge"><title>nd113:s&#45;&gt;ndcluster_nd117:w</title>
<path fill="none" stroke="black" d="M221.6,-102C221.6,-97.091 227.753,-102.224 232.6,-103 250.165,-105.812 253.811,-112 271.6,-112"/>
</g>
<!-- nd85 -->
<g id="node9" class="node"><title>nd85</title>
<g id="a_node9"><a xlink:title="nd85&#45;AppGraph">
<path fill="none" stroke="#000000" d="M145.038,-57C145.038,-57 138.819,-51 138.819,-51 135.709,-48 135.709,-42 138.819,-39 138.819,-39 145.038,-33 145.038,-33 148.147,-30 155.577,-27.0024 159.898,-27.0048 159.898,-27.0048 172.802,-27.012 172.802,-27.012 177.123,-27.0144 181.443,-31.3375 181.443,-35.6582 181.443,-35.6582 181.443,-54.3418 181.443,-54.3418 181.443,-58.6625 177.123,-62.9856 172.802,-62.988 172.802,-62.988 159.898,-62.9952 159.898,-62.9952 155.577,-62.9976 148.147,-60 145.038,-57"/>
<text text-anchor="middle" x="159.6" y="-41.3" font-family="Times,serif" font-size="14.00">@</text>
</a>
</g>
</g>
<!-- nd84&#45;&gt;nd85 -->
<g id="edge7" class="edge"><title>nd84:s&#45;&gt;nd85:w</title>
<path fill="none" stroke="#b70000" d="M91.6,-46C91.6,-27.7724 114.372,-45 132.6,-45"/>
</g>
<!-- nd92 -->
<g id="node12" class="node"><title>nd92</title>
<g id="a_node12"><a xlink:title="nd92&#45;ContractGraph">
<ellipse fill="black" stroke="black" cx="274.6" cy="-73" rx="1.8" ry="1.8"/>
</a>
</g>
</g>
<!-- nd84&#45;&gt;nd92 -->
<g id="edge9" class="edge"><title>nd84:n&#45;&gt;nd92:w</title>
<path fill="none" stroke="black" d="M91.6,-84C91.6,-104.037 251.563,-73 271.6,-73"/>
</g>
<!-- nd85&#45;&gt;nd113 -->
<g id="edge5" class="edge"><title>nd85:n&#45;&gt;nd113:w</title>
<path fill="none" stroke="black" d="M159.6,-64C159.6,-67.9284 205.672,-114 209.6,-114"/>
</g>
<!-- nd87 -->
<g id="node10" class="node"><title>nd87</title>
<g id="a_node10"><a xlink:title="nd87&#45;BinOpGraph">
<ellipse fill="none" stroke="#000000" cx="221.6" cy="-36" rx="18" ry="18"/>
<text text-anchor="middle" x="221.6" y="-32.3" font-family="Times,serif" font-size="14.00">&#45;</text>
</a>
</g>
</g>
<!-- nd85&#45;&gt;nd87 -->
<g id="edge6" class="edge"><title>nd85:s&#45;&gt;nd87:w</title>
<path fill="none" stroke="#b70000" d="M159.6,-26C159.6,-13.9918 175.001,-23.8902 186.6,-27 194.857,-29.214 195.051,-36 203.6,-36"/>
</g>
<!-- nd91 -->
<g id="node11" class="node"><title>nd91</title>
<g id="a_node11"><a xlink:title="nd91&#45;ConstGraph">
<path fill="none" stroke="#000000" d="M268.6,-36C268.6,-36 280.6,-36 280.6,-36 286.6,-36 292.6,-30 292.6,-24 292.6,-24 292.6,-12 292.6,-12 292.6,-6 286.6,-0 280.6,-0 280.6,-0 268.6,-0 268.6,-0 262.6,-0 256.6,-6 256.6,-12 256.6,-12 256.6,-24 256.6,-24 256.6,-30 262.6,-36 268.6,-36"/>
<text text-anchor="middle" x="274.6" y="-14.3" font-family="Times,serif" font-size="14.00">1</text>
</a>
</g>
</g>
<!-- nd87&#45;&gt;nd91 -->
<g id="edge4" class="edge"><title>nd87:s&#45;&gt;nd91:w</title>
<path fill="none" stroke="black" d="M221.6,-17C221.6,-1.4381 241.038,-18 256.6,-18"/>
</g>
<!-- nd87&#45;&gt;nd92 -->
<g id="edge8" class="edge"><title>nd87:n&#45;&gt;nd92:w</title>
<path fill="none" stroke="#b70000" d="M221.6,-55C221.6,-66.8092 259.791,-73 271.6,-73"/>
</g>
<!-- nd93 -->
<g id="node13" class="node"><title>nd93</title>
<g id="a_node13"><a xlink:title="nd93&#45;ContractGraph">
<ellipse fill="black" stroke="black" cx="311.4" cy="-73" rx="1.8" ry="1.8"/>
</a>
</g>
</g>
<!-- nd92&#45;&gt;nd93 -->
<g id="edge11" class="edge"><title>nd92:e&#45;&gt;nd93:w</title>
<path fill="none" stroke="#b70000" d="M277.6,-73C291.822,-73 295.378,-73 309.6,-73"/>
</g>
<!-- nd93&#45;&gt;nd111 -->
<g id="edge12" class="edge"><title>nd93:e&#45;&gt;nd111:w</title>
<path fill="none" stroke="red" d="M313.2,-73C318.95,-73 322.274,-73 325.902,-73"/>
<polygon fill="red" stroke="red" points="326.2,-76.5001 336.2,-73 326.2,-69.5001 326.2,-76.5001"/>
<text text-anchor="middle" x="324.7" y="-76.8" font-family="Times,serif" font-size="14.00">x</text>
</g>
</g>
</svg>
