<?xml version="1.0" encoding="UTF-8" standalone="no"?>
<!DOCTYPE svg PUBLIC "-//W3C//DTD SVG 1.1//EN"
 "http://www.w3.org/Graphics/SVG/1.1/DTD/svg11.dtd">
<!-- Generated by graphviz version 2.38.0 (20140413.2041)
 -->
<!-- Title: G Pages: 1 -->
<svg width="333pt" height="142pt"
 viewBox="0.00 0.00 333.20 141.92" xmlns="http://www.w3.org/2000/svg" xmlns:xlink="http://www.w3.org/1999/xlink">
<g id="graph0" class="graph" transform="scale(1 1) rotate(0) translate(4 137.918)">
<title>G</title>
<polygon fill="white" stroke="none" points="-4,4 -4,-137.918 329.2,-137.918 329.2,4 -4,4"/>
<g id="clust1" class="cluster"><title>cluster_nd72</title>
<polygon fill="none" stroke="orange" points="217.8,-96 217.8,-116 237.4,-116 237.4,-96 217.8,-96"/>
</g>
<!-- nd1 -->
<g id="node1" class="node"><title>nd1</title>
<ellipse fill="black" stroke="black" cx="1.8" cy="-58" rx="1.8" ry="1.8"/>
</g>
<!-- nd42 -->
<g id="node5" class="node"><title>nd42</title>
<g id="a_node5"><a xlink:title="nd42&#45;BinOpGraph">
<ellipse fill="none" stroke="#000000" cx="38.6" cy="-58" rx="18" ry="18"/>
<text text-anchor="middle" x="38.6" y="-54.3" font-family="Times,serif" font-size="14.00">a :: b</text>
</a>
</g>
</g>
<!-- nd1&#45;&gt;nd42 -->
<g id="edge7" class="edge"><title>nd1:e&#45;&gt;nd42:w</title>
<path fill="none" stroke="red" d="M3.6,-58C6.43333,-58 8.46979,-58 10.307,-58"/>
<polygon fill="red" stroke="red" points="10.6,-61.5001 20.6,-58 10.6,-54.5001 10.6,-61.5001"/>
</g>
<!-- nd68 -->
<g id="node2" class="node"><title>nd68</title>
<g id="a_node2"><a xlink:title="nd68&#45;RecurGraph">
<ellipse fill="none" stroke="#000000" cx="174.6" cy="-108" rx="11" ry="11"/>
<text text-anchor="middle" x="174.6" y="-104.3" font-family="Times,serif" font-size="14.00">rec</text>
</a>
</g>
</g>
<!-- ndcluster_nd72 -->
<g id="node3" class="node"><title>ndcluster_nd72</title>
<g id="a_node3"><a xlink:title="nd72">
<ellipse fill="orange" stroke="orange" cx="227.6" cy="-106" rx="1.8" ry="1.8"/>
</a>
</g>
</g>
<!-- nd68&#45;&gt;ndcluster_nd72 -->
<g id="edge10" class="edge"><title>nd68:n&#45;&gt;ndcluster_nd72:n</title>
<path fill="none" stroke="black" d="M174.6,-120C174.6,-144.058 227.6,-133.058 227.6,-109"/>
</g>
<!-- nd68&#45;&gt;ndcluster_nd72 -->
<g id="edge11" class="edge"><title>nd68:s&#45;&gt;ndcluster_nd72:w</title>
<path fill="none" stroke="black" d="M174.6,-96C174.6,-91.091 180.753,-96.2241 185.6,-97 203.165,-99.8118 206.811,-106 224.6,-106"/>
</g>
<!-- nd14 -->
<g id="node4" class="node"><title>nd14</title>
<g id="a_node4"><a xlink:title="nd14&#45;ConstGraph">
<path fill="none" stroke="#000000" d="M301.2,-85C301.2,-85 313.2,-85 313.2,-85 319.2,-85 325.2,-79 325.2,-73 325.2,-73 325.2,-61 325.2,-61 325.2,-55 319.2,-49 313.2,-49 313.2,-49 301.2,-49 301.2,-49 295.2,-49 289.2,-55 289.2,-61 289.2,-61 289.2,-73 289.2,-73 289.2,-79 295.2,-85 301.2,-85"/>
<text text-anchor="middle" x="307.2" y="-63.3" font-family="Times,serif" font-size="14.00">1000</text>
</a>
</g>
</g>
<!-- nd45 -->
<g id="node6" class="node"><title>nd45</title>
<g id="a_node6"><a xlink:title="nd45&#45;AppGraph">
<path fill="none" stroke="#000000" d="M92.0377,-51C92.0377,-51 85.8188,-45 85.8188,-45 82.7094,-42 82.7094,-36 85.8188,-33 85.8188,-33 92.0377,-27 92.0377,-27 95.1471,-24 102.577,-21.0024 106.898,-21.0048 106.898,-21.0048 119.802,-21.012 119.802,-21.012 124.123,-21.0144 128.443,-25.3375 128.443,-29.6582 128.443,-29.6582 128.443,-48.3418 128.443,-48.3418 128.443,-52.6625 124.123,-56.9856 119.802,-56.988 119.802,-56.988 106.898,-56.9952 106.898,-56.9952 102.577,-56.9976 95.1471,-54 92.0377,-51"/>
<text text-anchor="middle" x="106.6" y="-35.3" font-family="Times,serif" font-size="14.00">@</text>
</a>
</g>
</g>
<!-- nd42&#45;&gt;nd45 -->
<g id="edge4" class="edge"><title>nd42:s&#45;&gt;nd45:w</title>
<path fill="none" stroke="black" d="M38.6,-39C38.6,-20.7778 61.3778,-39 79.6,-39"/>
<text text-anchor="middle" x="68.1" y="-42.8" font-family="Times,serif" font-size="14.00">b</text>
</g>
<!-- nd59 -->
<g id="node9" class="node"><title>nd59</title>
<g id="a_node9"><a xlink:title="nd59&#45;ContractGraph">
<ellipse fill="black" stroke="black" cx="227.6" cy="-67" rx="1.8" ry="1.8"/>
</a>
</g>
</g>
<!-- nd42&#45;&gt;nd59 -->
<g id="edge6" class="edge"><title>nd42:n&#45;&gt;nd59:w</title>
<path fill="none" stroke="black" d="M38.6,-77C38.6,-159.786 141.814,-67 224.6,-67"/>
<text text-anchor="middle" x="145.1" y="-91.8" font-family="Times,serif" font-size="14.00">a</text>
</g>
<!-- nd45&#45;&gt;nd68 -->
<g id="edge2" class="edge"><title>nd45:n&#45;&gt;nd68:w</title>
<path fill="none" stroke="black" d="M106.6,-58C106.6,-76.7985 134.148,-50.9786 148.6,-63 164.703,-76.3945 141.654,-108 162.6,-108"/>
</g>
<!-- nd49 -->
<g id="node7" class="node"><title>nd49</title>
<g id="a_node7"><a xlink:title="nd49&#45;BinOpGraph">
<ellipse fill="none" stroke="#000000" cx="174.6" cy="-36" rx="18" ry="18"/>
<text text-anchor="middle" x="174.6" y="-32.3" font-family="Times,serif" font-size="14.00">&#45;</text>
</a>
</g>
</g>
<!-- nd45&#45;&gt;nd49 -->
<g id="edge3" class="edge"><title>nd45:s&#45;&gt;nd49:w</title>
<path fill="none" stroke="black" d="M106.6,-20C106.6,-7.99177 122.155,-17.3658 133.6,-21 145.232,-24.6934 144.396,-36 156.6,-36"/>
</g>
<!-- nd55 -->
<g id="node8" class="node"><title>nd55</title>
<g id="a_node8"><a xlink:title="nd55&#45;ConstGraph">
<path fill="none" stroke="#000000" d="M221.6,-36C221.6,-36 233.6,-36 233.6,-36 239.6,-36 245.6,-30 245.6,-24 245.6,-24 245.6,-12 245.6,-12 245.6,-6 239.6,-0 233.6,-0 233.6,-0 221.6,-0 221.6,-0 215.6,-0 209.6,-6 209.6,-12 209.6,-12 209.6,-24 209.6,-24 209.6,-30 215.6,-36 221.6,-36"/>
<text text-anchor="middle" x="227.6" y="-14.3" font-family="Times,serif" font-size="14.00">1</text>
</a>
</g>
</g>
<!-- nd49&#45;&gt;nd55 -->
<g id="edge1" class="edge"><title>nd49:s&#45;&gt;nd55:w</title>
<path fill="none" stroke="black" d="M174.6,-17C174.6,-1.4381 194.038,-18 209.6,-18"/>
</g>
<!-- nd49&#45;&gt;nd59 -->
<g id="edge5" class="edge"><title>nd49:n&#45;&gt;nd59:w</title>
<path fill="none" stroke="black" d="M174.6,-55C174.6,-66.4266 213.173,-67 224.6,-67"/>
</g>
<!-- nd61 -->
<g id="node10" class="node"><title>nd61</title>
<g id="a_node10"><a xlink:title="nd61&#45;ContractGraph">
<ellipse fill="black" stroke="black" cx="264.4" cy="-67" rx="1.8" ry="1.8"/>
</a>
</g>
</g>
<!-- nd59&#45;&gt;nd61 -->
<g id="edge8" class="edge"><title>nd59:e&#45;&gt;nd61:w</title>
<path fill="none" stroke="black" d="M230.6,-67C244.822,-67 248.378,-67 262.6,-67"/>
</g>
<!-- nd61&#45;&gt;nd14 -->
<g id="edge9" class="edge"><title>nd61:e&#45;&gt;nd14:w</title>
<path fill="none" stroke="black" d="M266.2,-67C276.422,-67 278.978,-67 289.2,-67"/>
<text text-anchor="middle" x="277.7" y="-70.8" font-family="Times,serif" font-size="14.00">x</text>
</g>
</g>
</svg>
