<?xml version="1.0" encoding="UTF-8" standalone="no"?>
<!DOCTYPE svg PUBLIC "-//W3C//DTD SVG 1.1//EN"
 "http://www.w3.org/Graphics/SVG/1.1/DTD/svg11.dtd">
<!-- Generated by graphviz version 2.38.0 (20140413.2041)
 -->
<!-- Title: G Pages: 1 -->
<svg width="490pt" height="231pt"
 viewBox="0.00 0.00 490.20 231.00" xmlns="http://www.w3.org/2000/svg" xmlns:xlink="http://www.w3.org/1999/xlink">
<g id="graph0" class="graph" transform="scale(1 1) rotate(0) translate(4 227)">
<title>G</title>
<polygon fill="white" stroke="none" points="-4,4 -4,-227 486.2,-227 486.2,4 -4,4"/>
<g id="clust1" class="cluster"><title>cluster_nd117</title>
<polygon fill="none" stroke="orange" points="374.8,-96 374.8,-116 394.4,-116 394.4,-96 374.8,-96"/>
</g>
<!-- nd1 -->
<g id="node1" class="node"><title>nd1</title>
<ellipse fill="black" stroke="black" cx="1.8" cy="-162" rx="1.8" ry="1.8"/>
</g>
<!-- nd42 -->
<g id="node3" class="node"><title>nd42</title>
<g id="a_node3"><a xlink:title="nd42&#45;BinOpGraph">
<ellipse fill="none" stroke="#000000" cx="38.6" cy="-162" rx="18" ry="18"/>
<text text-anchor="middle" x="38.6" y="-158.3" font-family="Times,serif" font-size="14.00">::</text>
</a>
</g>
</g>
<!-- nd1&#45;&gt;nd42 -->
<g id="edge2" class="edge"><title>nd1:e&#45;&gt;nd42:w</title>
<path fill="none" stroke="#b70000" d="M3.6,-162C11.1556,-162 13.0444,-162 20.6,-162"/>
</g>
<!-- nd14 -->
<g id="node2" class="node"><title>nd14</title>
<g id="a_node2"><a xlink:title="nd14&#45;ConstGraph">
<path fill="none" stroke="#000000" d="M189.6,-223C189.6,-223 201.6,-223 201.6,-223 207.6,-223 213.6,-217 213.6,-211 213.6,-211 213.6,-199 213.6,-199 213.6,-193 207.6,-187 201.6,-187 201.6,-187 189.6,-187 189.6,-187 183.6,-187 177.6,-193 177.6,-199 177.6,-199 177.6,-211 177.6,-211 177.6,-217 183.6,-223 189.6,-223"/>
<text text-anchor="middle" x="195.6" y="-201.3" font-family="Times,serif" font-size="14.00">1000</text>
</a>
</g>
</g>
<!-- nd59 -->
<g id="node4" class="node"><title>nd59</title>
<g id="a_node4"><a xlink:title="nd59&#45;ContractGraph">
<ellipse fill="black" stroke="black" cx="91.6" cy="-203" rx="1.8" ry="1.8"/>
</a>
</g>
</g>
<!-- nd42&#45;&gt;nd59 -->
<g id="edge1" class="edge"><title>nd42:n&#45;&gt;nd59:w</title>
<path fill="none" stroke="black" d="M38.6,-181C38.6,-205.278 64.3218,-203 88.6,-203"/>
</g>
<!-- nd74 -->
<g id="node8" class="node"><title>nd74</title>
<g id="a_node8"><a xlink:title="nd74&#45;IfGraph">
<ellipse fill="none" stroke="#000000" cx="91.6" cy="-109" rx="18" ry="18"/>
<text text-anchor="middle" x="91.6" y="-105.3" font-family="Times,serif" font-size="14.00">if</text>
</a>
</g>
</g>
<!-- nd42&#45;&gt;nd74 -->
<g id="edge14" class="edge"><title>nd42:s&#45;&gt;nd74:w</title>
<path fill="none" stroke="#b70000" d="M38.6,-143C38.6,-121.313 51.9131,-109 73.6,-109"/>
</g>
<!-- nd59&#45;&gt;nd14 -->
<g id="edge3" class="edge"><title>nd59:e&#45;&gt;nd14:w</title>
<path fill="none" stroke="black" d="M94.6,-203C131.5,-203 140.7,-205 177.6,-205"/>
<text text-anchor="middle" x="143.6" y="-208.8" font-family="Times,serif" font-size="14.00">x</text>
</g>
<!-- nd111 -->
<g id="node5" class="node"><title>nd111</title>
<g id="a_node5"><a xlink:title="nd111&#45;ConstGraph">
<path fill="none" stroke="#000000" d="M458.2,-85C458.2,-85 470.2,-85 470.2,-85 476.2,-85 482.2,-79 482.2,-73 482.2,-73 482.2,-61 482.2,-61 482.2,-55 476.2,-49 470.2,-49 470.2,-49 458.2,-49 458.2,-49 452.2,-49 446.2,-55 446.2,-61 446.2,-61 446.2,-73 446.2,-73 446.2,-79 452.2,-85 458.2,-85"/>
<text text-anchor="middle" x="464.2" y="-63.3" font-family="Times,serif" font-size="14.00">999</text>
</a>
</g>
</g>
<!-- nd113 -->
<g id="node6" class="node"><title>nd113</title>
<g id="a_node6"><a xlink:title="nd113&#45;RecurGraph">
<ellipse fill="none" stroke="#000000" cx="331.6" cy="-108" rx="11" ry="11"/>
<text text-anchor="middle" x="331.6" y="-104.3" font-family="Times,serif" font-size="14.00">rec</text>
</a>
</g>
</g>
<!-- ndcluster_nd117 -->
<g id="node7" class="node"><title>ndcluster_nd117</title>
<g id="a_node7"><a xlink:title="nd117">
<ellipse fill="orange" stroke="orange" cx="384.6" cy="-106" rx="1.8" ry="1.8"/>
</a>
</g>
</g>
<!-- nd113&#45;&gt;ndcluster_nd117 -->
<g id="edge16" class="edge"><title>nd113:n&#45;&gt;ndcluster_nd117:n</title>
<path fill="none" stroke="black" d="M331.6,-120C331.6,-144.058 384.6,-133.058 384.6,-109"/>
</g>
<!-- nd113&#45;&gt;ndcluster_nd117 -->
<g id="edge17" class="edge"><title>nd113:s&#45;&gt;ndcluster_nd117:w</title>
<path fill="none" stroke="black" d="M331.6,-96C331.6,-91.091 337.753,-96.2241 342.6,-97 360.165,-99.8118 363.811,-106 381.6,-106"/>
</g>
<!-- nd83 -->
<g id="node9" class="node"><title>nd83</title>
<g id="a_node9"><a xlink:title="nd83&#45;ConstListGraph">
<path fill="none" stroke="#000000" d="M189.6,-125C189.6,-125 201.6,-125 201.6,-125 207.6,-125 213.6,-119 213.6,-113 213.6,-113 213.6,-101 213.6,-101 213.6,-95 207.6,-89 201.6,-89 201.6,-89 189.6,-89 189.6,-89 183.6,-89 177.6,-95 177.6,-101 177.6,-101 177.6,-113 177.6,-113 177.6,-119 183.6,-125 189.6,-125"/>
<text text-anchor="middle" x="195.6" y="-103.3" font-family="Times,serif" font-size="14.00">[]</text>
</a>
</g>
</g>
<!-- nd74&#45;&gt;nd83 -->
<g id="edge11" class="edge"><title>nd74:e&#45;&gt;nd83:w</title>
<path fill="none" stroke="grey" d="M109.6,-109C139.835,-109 147.365,-107 177.6,-107"/>
<text text-anchor="middle" x="143.6" y="-112.8" font-family="Times,serif" font-size="14.00">is true</text>
</g>
<!-- nd84 -->
<g id="node10" class="node"><title>nd84</title>
<g id="a_node10"><a xlink:title="nd84&#45;BinOpGraph">
<ellipse fill="none" stroke="#000000" cx="195.6" cy="-58" rx="18" ry="18"/>
<text text-anchor="middle" x="195.6" y="-54.3" font-family="Times,serif" font-size="14.00">a :: b</text>
</a>
</g>
</g>
<!-- nd74&#45;&gt;nd84 -->
<g id="edge12" class="edge"><title>nd74:s&#45;&gt;nd84:w</title>
<path fill="none" stroke="red" d="M91.6,-90C91.6,-52.563 129.703,-56.8927 167.502,-57.8549"/>
<polygon fill="red" stroke="red" points="167.551,-61.3559 177.6,-58 167.651,-54.3566 167.551,-61.3559"/>
<text text-anchor="middle" x="143.6" y="-62.8" font-family="Times,serif" font-size="14.00">is false</text>
</g>
<!-- nd147 -->
<g id="node16" class="node"><title>nd147</title>
<g id="a_node16"><a xlink:title="nd147&#45;ConstGraph">
<path fill="none" stroke="#000000" d="M189.6,-174C189.6,-174 201.6,-174 201.6,-174 207.6,-174 213.6,-168 213.6,-162 213.6,-162 213.6,-150 213.6,-150 213.6,-144 207.6,-138 201.6,-138 201.6,-138 189.6,-138 189.6,-138 183.6,-138 177.6,-144 177.6,-150 177.6,-150 177.6,-162 177.6,-162 177.6,-168 183.6,-174 189.6,-174"/>
<text text-anchor="middle" x="195.6" y="-152.3" font-family="Times,serif" font-size="14.00">false</text>
</a>
</g>
</g>
<!-- nd74&#45;&gt;nd147 -->
<g id="edge10" class="edge"><title>nd74:n&#45;&gt;nd147:w</title>
<path fill="none" stroke="black" d="M91.6,-128C91.6,-168.197 137.403,-156 177.6,-156"/>
<text text-anchor="middle" x="143.6" y="-161.8" font-family="Times,serif" font-size="14.00">condition</text>
</g>
<!-- nd85 -->
<g id="node11" class="node"><title>nd85</title>
<g id="a_node11"><a xlink:title="nd85&#45;AppGraph">
<path fill="none" stroke="#000000" d="M249.038,-51C249.038,-51 242.819,-45 242.819,-45 239.709,-42 239.709,-36 242.819,-33 242.819,-33 249.038,-27 249.038,-27 252.147,-24 259.577,-21.0024 263.898,-21.0048 263.898,-21.0048 276.802,-21.012 276.802,-21.012 281.123,-21.0144 285.443,-25.3375 285.443,-29.6582 285.443,-29.6582 285.443,-48.3418 285.443,-48.3418 285.443,-52.6625 281.123,-56.9856 276.802,-56.988 276.802,-56.988 263.898,-56.9952 263.898,-56.9952 259.577,-56.9976 252.147,-54 249.038,-51"/>
<text text-anchor="middle" x="263.6" y="-35.3" font-family="Times,serif" font-size="14.00">@</text>
</a>
</g>
</g>
<!-- nd84&#45;&gt;nd85 -->
<g id="edge7" class="edge"><title>nd84:s&#45;&gt;nd85:w</title>
<path fill="none" stroke="black" d="M195.6,-39C195.6,-20.7778 218.378,-39 236.6,-39"/>
<text text-anchor="middle" x="225.1" y="-42.8" font-family="Times,serif" font-size="14.00">b</text>
</g>
<!-- nd92 -->
<g id="node14" class="node"><title>nd92</title>
<g id="a_node14"><a xlink:title="nd92&#45;ContractGraph">
<ellipse fill="black" stroke="black" cx="384.6" cy="-67" rx="1.8" ry="1.8"/>
</a>
</g>
</g>
<!-- nd84&#45;&gt;nd92 -->
<g id="edge9" class="edge"><title>nd84:n&#45;&gt;nd92:w</title>
<path fill="none" stroke="black" d="M195.6,-77C195.6,-87.3483 371.252,-67 381.6,-67"/>
<text text-anchor="middle" x="302.1" y="-78.8" font-family="Times,serif" font-size="14.00">a</text>
</g>
<!-- nd85&#45;&gt;nd113 -->
<g id="edge5" class="edge"><title>nd85:n&#45;&gt;nd113:w</title>
<path fill="none" stroke="black" d="M263.6,-58C263.6,-76.7985 291.148,-50.9786 305.6,-63 321.703,-76.3945 298.654,-108 319.6,-108"/>
</g>
<!-- nd87 -->
<g id="node12" class="node"><title>nd87</title>
<g id="a_node12"><a xlink:title="nd87&#45;BinOpGraph">
<ellipse fill="none" stroke="#000000" cx="331.6" cy="-36" rx="18" ry="18"/>
<text text-anchor="middle" x="331.6" y="-32.3" font-family="Times,serif" font-size="14.00">&#45;</text>
</a>
</g>
</g>
<!-- nd85&#45;&gt;nd87 -->
<g id="edge6" class="edge"><title>nd85:s&#45;&gt;nd87:w</title>
<path fill="none" stroke="black" d="M263.6,-20C263.6,-7.99177 279.155,-17.3658 290.6,-21 302.232,-24.6934 301.396,-36 313.6,-36"/>
</g>
<!-- nd91 -->
<g id="node13" class="node"><title>nd91</title>
<g id="a_node13"><a xlink:title="nd91&#45;ConstGraph">
<path fill="none" stroke="#000000" d="M378.6,-36C378.6,-36 390.6,-36 390.6,-36 396.6,-36 402.6,-30 402.6,-24 402.6,-24 402.6,-12 402.6,-12 402.6,-6 396.6,-0 390.6,-0 390.6,-0 378.6,-0 378.6,-0 372.6,-0 366.6,-6 366.6,-12 366.6,-12 366.6,-24 366.6,-24 366.6,-30 372.6,-36 378.6,-36"/>
<text text-anchor="middle" x="384.6" y="-14.3" font-family="Times,serif" font-size="14.00">1</text>
</a>
</g>
</g>
<!-- nd87&#45;&gt;nd91 -->
<g id="edge4" class="edge"><title>nd87:s&#45;&gt;nd91:w</title>
<path fill="none" stroke="black" d="M331.6,-17C331.6,-1.4381 351.038,-18 366.6,-18"/>
</g>
<!-- nd87&#45;&gt;nd92 -->
<g id="edge8" class="edge"><title>nd87:n&#45;&gt;nd92:w</title>
<path fill="none" stroke="black" d="M331.6,-55C331.6,-66.4266 370.173,-67 381.6,-67"/>
</g>
<!-- nd93 -->
<g id="node15" class="node"><title>nd93</title>
<g id="a_node15"><a xlink:title="nd93&#45;ContractGraph">
<ellipse fill="black" stroke="black" cx="421.4" cy="-67" rx="1.8" ry="1.8"/>
</a>
</g>
</g>
<!-- nd92&#45;&gt;nd93 -->
<g id="edge13" class="edge"><title>nd92:e&#45;&gt;nd93:w</title>
<path fill="none" stroke="black" d="M387.6,-67C401.822,-67 405.378,-67 419.6,-67"/>
</g>
<!-- nd93&#45;&gt;nd111 -->
<g id="edge15" class="edge"><title>nd93:e&#45;&gt;nd111:w</title>
<path fill="none" stroke="black" d="M423.2,-67C433.422,-67 435.978,-67 446.2,-67"/>
<text text-anchor="middle" x="434.7" y="-70.8" font-family="Times,serif" font-size="14.00">x</text>
</g>
</g>
</svg>
