<?xml version="1.0" encoding="UTF-8" standalone="no"?>
<!DOCTYPE svg PUBLIC "-//W3C//DTD SVG 1.1//EN"
 "http://www.w3.org/Graphics/SVG/1.1/DTD/svg11.dtd">
<!-- Generated by graphviz version 2.38.0 (20140413.2041)
 -->
<!-- Title: G Pages: 1 -->
<svg width="327pt" height="155pt"
 viewBox="0.00 0.00 327.20 154.52" xmlns="http://www.w3.org/2000/svg" xmlns:xlink="http://www.w3.org/1999/xlink">
<g id="graph0" class="graph" transform="scale(1 1) rotate(0) translate(4 150.519)">
<title>G</title>
<polygon fill="white" stroke="none" points="-4,4 -4,-150.519 323.2,-150.519 323.2,4 -4,4"/>
<g id="clust1" class="cluster"><title>cluster_nd72</title>
<polygon fill="none" stroke="orange" points="211.8,-108 211.8,-128 231.4,-128 231.4,-108 211.8,-108"/>
</g>
<!-- nd1 -->
<g id="node1" class="node"><title>nd1</title>
<ellipse fill="black" stroke="black" cx="1.8" cy="-68" rx="1.8" ry="1.8"/>
</g>
<!-- nd42 -->
<g id="node5" class="node"><title>nd42</title>
<g id="a_node5"><a xlink:title="nd42&#45;BinOpGraph">
<ellipse fill="none" stroke="#000000" cx="38.6" cy="-68" rx="18" ry="18"/>
<text text-anchor="middle" x="38.6" y="-64.3" font-family="Times,serif" font-size="14.00">::</text>
</a>
</g>
</g>
<!-- nd1&#45;&gt;nd42 -->
<g id="edge7" class="edge"><title>nd1:e&#45;&gt;nd42:w</title>
<path fill="none" stroke="#b70000" d="M3.6,-68C11.1556,-68 13.0444,-68 20.6,-68"/>
</g>
<!-- nd68 -->
<g id="node2" class="node"><title>nd68</title>
<g id="a_node2"><a xlink:title="nd68&#45;RecurGraph">
<ellipse fill="none" stroke="#000000" cx="162.6" cy="-118" rx="11" ry="11"/>
<text text-anchor="middle" x="162.6" y="-114.3" font-family="Times,serif" font-size="14.00">rec</text>
</a>
</g>
</g>
<!-- ndcluster_nd72 -->
<g id="node3" class="node"><title>ndcluster_nd72</title>
<g id="a_node3"><a xlink:title="nd72">
<ellipse fill="orange" stroke="orange" cx="221.6" cy="-118" rx="1.8" ry="1.8"/>
</a>
</g>
</g>
<!-- nd68&#45;&gt;ndcluster_nd72 -->
<g id="edge10" class="edge"><title>nd68:n&#45;&gt;ndcluster_nd72:n</title>
<path fill="none" stroke="black" d="M162.6,-130C162.6,-156.526 221.6,-147.526 221.6,-121"/>
</g>
<!-- nd68&#45;&gt;ndcluster_nd72 -->
<g id="edge11" class="edge"><title>nd68:s&#45;&gt;ndcluster_nd72:w</title>
<path fill="none" stroke="black" d="M162.6,-106C162.6,-101.091 168.758,-106.193 173.6,-107 193.909,-110.386 198.011,-118 218.6,-118"/>
</g>
<!-- nd14 -->
<g id="node4" class="node"><title>nd14</title>
<g id="a_node4"><a xlink:title="nd14&#45;ConstGraph">
<path fill="none" stroke="#000000" d="M295.2,-86C295.2,-86 307.2,-86 307.2,-86 313.2,-86 319.2,-80 319.2,-74 319.2,-74 319.2,-62 319.2,-62 319.2,-56 313.2,-50 307.2,-50 307.2,-50 295.2,-50 295.2,-50 289.2,-50 283.2,-56 283.2,-62 283.2,-62 283.2,-74 283.2,-74 283.2,-80 289.2,-86 295.2,-86"/>
<text text-anchor="middle" x="301.2" y="-64.3" font-family="Times,serif" font-size="14.00">1000</text>
</a>
</g>
</g>
<!-- nd45 -->
<g id="node6" class="node"><title>nd45</title>
<g id="a_node6"><a xlink:title="nd45&#45;AppGraph">
<path fill="none" stroke="#000000" d="M86.0377,-61C86.0377,-61 79.8188,-55 79.8188,-55 76.7094,-52 76.7094,-46 79.8188,-43 79.8188,-43 86.0377,-37 86.0377,-37 89.1471,-34 96.5772,-31.0024 100.898,-31.0048 100.898,-31.0048 113.802,-31.012 113.802,-31.012 118.123,-31.0144 122.443,-35.3375 122.443,-39.6582 122.443,-39.6582 122.443,-58.3418 122.443,-58.3418 122.443,-62.6625 118.123,-66.9856 113.802,-66.988 113.802,-66.988 100.898,-66.9952 100.898,-66.9952 96.5772,-66.9976 89.1471,-64 86.0377,-61"/>
<text text-anchor="middle" x="100.6" y="-45.3" font-family="Times,serif" font-size="14.00">@</text>
</a>
</g>
</g>
<!-- nd42&#45;&gt;nd45 -->
<g id="edge4" class="edge"><title>nd42:s&#45;&gt;nd45:w</title>
<path fill="none" stroke="#b70000" d="M38.6,-49C38.6,-33.4444 58.0444,-49 73.6,-49"/>
</g>
<!-- nd59 -->
<g id="node9" class="node"><title>nd59</title>
<g id="a_node9"><a xlink:title="nd59&#45;ContractGraph">
<ellipse fill="black" stroke="black" cx="221.6" cy="-68" rx="1.8" ry="1.8"/>
</a>
</g>
</g>
<!-- nd42&#45;&gt;nd59 -->
<g id="edge6" class="edge"><title>nd42:n&#45;&gt;nd59:w</title>
<path fill="none" stroke="black" d="M38.6,-87C38.6,-95.0123 48.6039,-86.5097 56.6,-86 118.412,-82.0598 134.938,-88.504 195.6,-76 206.2,-73.8151 207.777,-68 218.6,-68"/>
</g>
<!-- nd45&#45;&gt;nd68 -->
<g id="edge2" class="edge"><title>nd45:n&#45;&gt;nd68:w</title>
<path fill="none" stroke="black" d="M100.6,-68C100.6,-99.427 119.173,-118 150.6,-118"/>
</g>
<!-- nd49 -->
<g id="node7" class="node"><title>nd49</title>
<g id="a_node7"><a xlink:title="nd49&#45;BinOpGraph">
<ellipse fill="none" stroke="#000000" cx="162.6" cy="-36" rx="18" ry="18"/>
<text text-anchor="middle" x="162.6" y="-32.3" font-family="Times,serif" font-size="14.00">a &#45; b</text>
</a>
</g>
</g>
<!-- nd45&#45;&gt;nd49 -->
<g id="edge3" class="edge"><title>nd45:s&#45;&gt;nd49:w</title>
<path fill="none" stroke="#b70000" d="M100.6,-30C100.6,-17.9918 115.748,-29.0687 127.6,-31 135.373,-32.2667 136.724,-36 144.6,-36"/>
</g>
<!-- nd55 -->
<g id="node8" class="node"><title>nd55</title>
<g id="a_node8"><a xlink:title="nd55&#45;ConstGraph">
<path fill="none" stroke="#000000" d="M215.6,-36C215.6,-36 227.6,-36 227.6,-36 233.6,-36 239.6,-30 239.6,-24 239.6,-24 239.6,-12 239.6,-12 239.6,-6 233.6,-0 227.6,-0 227.6,-0 215.6,-0 215.6,-0 209.6,-0 203.6,-6 203.6,-12 203.6,-12 203.6,-24 203.6,-24 203.6,-30 209.6,-36 215.6,-36"/>
<text text-anchor="middle" x="221.6" y="-14.3" font-family="Times,serif" font-size="14.00">1</text>
</a>
</g>
</g>
<!-- nd49&#45;&gt;nd55 -->
<g id="edge1" class="edge"><title>nd49:s&#45;&gt;nd55:w</title>
<path fill="none" stroke="red" d="M168.99,-9.15266C177.055,-9.32033 191.353,-18 203.6,-18"/>
<polygon fill="red" stroke="red" points="166.201,-7.03572 162.6,-17 171.629,-11.4559 166.201,-7.03572"/>
<text text-anchor="middle" x="192.1" y="-21.8" font-family="Times,serif" font-size="14.00">b</text>
</g>
<!-- nd49&#45;&gt;nd59 -->
<g id="edge5" class="edge"><title>nd49:n&#45;&gt;nd59:w</title>
<path fill="none" stroke="black" d="M162.6,-55C162.6,-69.993 181.009,-58.5512 195.6,-62 205.881,-64.4301 208.036,-68 218.6,-68"/>
<text text-anchor="middle" x="192.1" y="-65.8" font-family="Times,serif" font-size="14.00">a</text>
</g>
<!-- nd61 -->
<g id="node10" class="node"><title>nd61</title>
<g id="a_node10"><a xlink:title="nd61&#45;ContractGraph">
<ellipse fill="black" stroke="black" cx="258.4" cy="-68" rx="1.8" ry="1.8"/>
</a>
</g>
</g>
<!-- nd59&#45;&gt;nd61 -->
<g id="edge8" class="edge"><title>nd59:e&#45;&gt;nd61:w</title>
<path fill="none" stroke="black" d="M224.6,-68C238.822,-68 242.378,-68 256.6,-68"/>
</g>
<!-- nd61&#45;&gt;nd14 -->
<g id="edge9" class="edge"><title>nd61:e&#45;&gt;nd14:w</title>
<path fill="none" stroke="black" d="M260.2,-68C270.422,-68 272.978,-68 283.2,-68"/>
<text text-anchor="middle" x="271.7" y="-71.8" font-family="Times,serif" font-size="14.00">x</text>
</g>
</g>
</svg>
