<?xml version="1.0" encoding="UTF-8" standalone="no"?>
<!DOCTYPE svg PUBLIC "-//W3C//DTD SVG 1.1//EN"
 "http://www.w3.org/Graphics/SVG/1.1/DTD/svg11.dtd">
<!-- Generated by graphviz version 2.38.0 (20140413.2041)
 -->
<!-- Title: G Pages: 1 -->
<svg width="313pt" height="197pt"
 viewBox="0.00 0.00 312.60 197.00" xmlns="http://www.w3.org/2000/svg" xmlns:xlink="http://www.w3.org/1999/xlink">
<g id="graph0" class="graph" transform="scale(1 1) rotate(0) translate(4 193)">
<title>G</title>
<polygon fill="white" stroke="none" points="-4,4 -4,-193 308.6,-193 308.6,4 -4,4"/>
<g id="clust1" class="cluster"><title>cluster_nd117</title>
<polygon fill="none" stroke="orange" points="276.8,-97 276.8,-117 296.4,-117 296.4,-97 276.8,-97"/>
</g>
<!-- nd1 -->
<g id="node1" class="node"><title>nd1</title>
<ellipse fill="black" stroke="black" cx="1.8" cy="-146" rx="1.8" ry="1.8"/>
</g>
<!-- nd42 -->
<g id="node3" class="node"><title>nd42</title>
<g id="a_node3"><a xlink:title="nd42&#45;BinOpGraph">
<ellipse fill="none" stroke="#000000" cx="38.6" cy="-146" rx="18" ry="18"/>
<text text-anchor="middle" x="38.6" y="-142.3" font-family="Times,serif" font-size="14.00">::</text>
</a>
</g>
</g>
<!-- nd1&#45;&gt;nd42 -->
<g id="edge2" class="edge"><title>nd1:e&#45;&gt;nd42:w</title>
<path fill="none" stroke="#b70000" d="M3.6,-146C11.1556,-146 13.0444,-146 20.6,-146"/>
</g>
<!-- nd14 -->
<g id="node2" class="node"><title>nd14</title>
<g id="a_node2"><a xlink:title="nd14&#45;ConstGraph">
<path fill="none" stroke="#000000" d="M153.6,-189C153.6,-189 165.6,-189 165.6,-189 171.6,-189 177.6,-183 177.6,-177 177.6,-177 177.6,-165 177.6,-165 177.6,-159 171.6,-153 165.6,-153 165.6,-153 153.6,-153 153.6,-153 147.6,-153 141.6,-159 141.6,-165 141.6,-165 141.6,-177 141.6,-177 141.6,-183 147.6,-189 153.6,-189"/>
<text text-anchor="middle" x="159.6" y="-167.3" font-family="Times,serif" font-size="14.00">1000</text>
</a>
</g>
</g>
<!-- nd59 -->
<g id="node4" class="node"><title>nd59</title>
<g id="a_node4"><a xlink:title="nd59&#45;ContractGraph">
<ellipse fill="black" stroke="black" cx="91.6" cy="-170" rx="1.8" ry="1.8"/>
</a>
</g>
</g>
<!-- nd42&#45;&gt;nd59 -->
<g id="edge1" class="edge"><title>nd42:n&#45;&gt;nd59:w</title>
<path fill="none" stroke="black" d="M38.6,-165C38.6,-187.333 66.2669,-170 88.6,-170"/>
</g>
<!-- nd84 -->
<g id="node8" class="node"><title>nd84</title>
<g id="a_node8"><a xlink:title="nd84&#45;BinOpGraph">
<ellipse fill="none" stroke="#000000" cx="91.6" cy="-120" rx="18" ry="18"/>
<text text-anchor="middle" x="91.6" y="-116.3" font-family="Times,serif" font-size="14.00">::</text>
</a>
</g>
</g>
<!-- nd42&#45;&gt;nd84 -->
<g id="edge10" class="edge"><title>nd42:s&#45;&gt;nd84:w</title>
<path fill="none" stroke="#b70000" d="M38.6,-127C38.6,-111.136 57.7364,-120 73.6,-120"/>
</g>
<!-- nd59&#45;&gt;nd14 -->
<g id="edge3" class="edge"><title>nd59:e&#45;&gt;nd14:w</title>
<path fill="none" stroke="black" d="M94.6,-170C115.049,-170 120.151,-171 140.6,-171"/>
<text text-anchor="middle" x="121.1" y="-173.8" font-family="Times,serif" font-size="14.00">x</text>
</g>
<!-- nd111 -->
<g id="node5" class="node"><title>nd111</title>
<g id="a_node5"><a xlink:title="nd111&#45;ConstGraph">
<path fill="none" stroke="#000000" d="M221.6,-162C221.6,-162 233.6,-162 233.6,-162 239.6,-162 245.6,-156 245.6,-150 245.6,-150 245.6,-138 245.6,-138 245.6,-132 239.6,-126 233.6,-126 233.6,-126 221.6,-126 221.6,-126 215.6,-126 209.6,-132 209.6,-138 209.6,-138 209.6,-150 209.6,-150 209.6,-156 215.6,-162 221.6,-162"/>
<text text-anchor="middle" x="227.6" y="-140.3" font-family="Times,serif" font-size="14.00">999</text>
</a>
</g>
</g>
<!-- nd113 -->
<g id="node6" class="node"><title>nd113</title>
<g id="a_node6"><a xlink:title="nd113&#45;RecurGraph">
<ellipse fill="none" stroke="#000000" cx="227.6" cy="-102" rx="11" ry="11"/>
<text text-anchor="middle" x="227.6" y="-98.3" font-family="Times,serif" font-size="14.00">rec</text>
</a>
</g>
</g>
<!-- ndcluster_nd117 -->
<g id="node7" class="node"><title>ndcluster_nd117</title>
<g id="a_node7"><a xlink:title="nd117">
<ellipse fill="orange" stroke="orange" cx="286.6" cy="-107" rx="1.8" ry="1.8"/>
</a>
</g>
</g>
<!-- nd113&#45;&gt;ndcluster_nd117 -->
<g id="edge12" class="edge"><title>nd113:n&#45;&gt;ndcluster_nd117:n</title>
<path fill="none" stroke="black" d="M227.6,-114C227.6,-120.571 286.6,-116.571 286.6,-110"/>
</g>
<!-- nd113&#45;&gt;ndcluster_nd117 -->
<g id="edge13" class="edge"><title>nd113:s&#45;&gt;ndcluster_nd117:w</title>
<path fill="none" stroke="black" d="M227.6,-90C227.6,-85.091 233.805,-89.9472 238.6,-91 259.333,-95.5522 262.373,-107 283.6,-107"/>
</g>
<!-- nd85 -->
<g id="node9" class="node"><title>nd85</title>
<g id="a_node9"><a xlink:title="nd85&#45;AppGraph">
<path fill="none" stroke="#000000" d="M145.038,-96C145.038,-96 138.819,-90 138.819,-90 135.709,-87 135.709,-81 138.819,-78 138.819,-78 145.038,-72 145.038,-72 148.147,-69 155.577,-66.0024 159.898,-66.0048 159.898,-66.0048 172.802,-66.012 172.802,-66.012 177.123,-66.0144 181.443,-70.3375 181.443,-74.6582 181.443,-74.6582 181.443,-93.3418 181.443,-93.3418 181.443,-97.6625 177.123,-101.986 172.802,-101.988 172.802,-101.988 159.898,-101.995 159.898,-101.995 155.577,-101.998 148.147,-99 145.038,-96"/>
<text text-anchor="middle" x="159.6" y="-80.3" font-family="Times,serif" font-size="14.00">b@a</text>
</a>
</g>
</g>
<!-- nd84&#45;&gt;nd85 -->
<g id="edge7" class="edge"><title>nd84:s&#45;&gt;nd85:w</title>
<path fill="none" stroke="#b70000" d="M91.6,-101C91.6,-81.2735 112.873,-84 132.6,-84"/>
</g>
<!-- nd92 -->
<g id="node12" class="node"><title>nd92</title>
<g id="a_node12"><a xlink:title="nd92&#45;ContractGraph">
<ellipse fill="black" stroke="black" cx="159.6" cy="-138" rx="1.8" ry="1.8"/>
</a>
</g>
</g>
<!-- nd84&#45;&gt;nd92 -->
<g id="edge9" class="edge"><title>nd84:n&#45;&gt;nd92:w</title>
<path fill="none" stroke="black" d="M91.6,-139C91.6,-167.892 127.708,-138 156.6,-138"/>
</g>
<!-- nd85&#45;&gt;nd113 -->
<g id="edge5" class="edge"><title>nd85:n&#45;&gt;nd113:w</title>
<path fill="none" stroke="black" d="M159.6,-103C159.6,-127.893 190.707,-102 215.6,-102"/>
<text text-anchor="middle" x="198.1" y="-108.8" font-family="Times,serif" font-size="14.00">a</text>
</g>
<!-- nd87 -->
<g id="node10" class="node"><title>nd87</title>
<g id="a_node10"><a xlink:title="nd87&#45;BinOpGraph">
<ellipse fill="none" stroke="#000000" cx="227.6" cy="-49" rx="18" ry="18"/>
<text text-anchor="middle" x="227.6" y="-45.3" font-family="Times,serif" font-size="14.00">&#45;</text>
</a>
</g>
</g>
<!-- nd85&#45;&gt;nd87 -->
<g id="edge6" class="edge"><title>nd85:s&#45;&gt;nd87:w</title>
<path fill="none" stroke="red" d="M162.009,-55.1723C169.076,-44.066 190.46,-49 209.6,-49"/>
<polygon fill="red" stroke="red" points="158.581,-54.4542 159.6,-65 165.38,-56.1208 158.581,-54.4542"/>
<text text-anchor="middle" x="198.1" y="-52.8" font-family="Times,serif" font-size="14.00">b</text>
</g>
<!-- nd91 -->
<g id="node11" class="node"><title>nd91</title>
<g id="a_node11"><a xlink:title="nd91&#45;ConstGraph">
<path fill="none" stroke="#000000" d="M280.6,-36C280.6,-36 292.6,-36 292.6,-36 298.6,-36 304.6,-30 304.6,-24 304.6,-24 304.6,-12 304.6,-12 304.6,-6 298.6,-0 292.6,-0 292.6,-0 280.6,-0 280.6,-0 274.6,-0 268.6,-6 268.6,-12 268.6,-12 268.6,-24 268.6,-24 268.6,-30 274.6,-36 280.6,-36"/>
<text text-anchor="middle" x="286.6" y="-14.3" font-family="Times,serif" font-size="14.00">1</text>
</a>
</g>
</g>
<!-- nd87&#45;&gt;nd91 -->
<g id="edge4" class="edge"><title>nd87:s&#45;&gt;nd91:w</title>
<path fill="none" stroke="black" d="M227.6,-30C227.6,-11.0133 249.613,-18 268.6,-18"/>
</g>
<!-- nd152 -->
<g id="node13" class="node"><title>nd152</title>
<g id="a_node13"><a xlink:title="nd152&#45;ConstGraph">
<path fill="none" stroke="#000000" d="M280.6,-85C280.6,-85 292.6,-85 292.6,-85 298.6,-85 304.6,-79 304.6,-73 304.6,-73 304.6,-61 304.6,-61 304.6,-55 298.6,-49 292.6,-49 292.6,-49 280.6,-49 280.6,-49 274.6,-49 268.6,-55 268.6,-61 268.6,-61 268.6,-73 268.6,-73 268.6,-79 274.6,-85 280.6,-85"/>
<text text-anchor="middle" x="286.6" y="-63.3" font-family="Times,serif" font-size="14.00">999</text>
</a>
</g>
</g>
<!-- nd87&#45;&gt;nd152 -->
<g id="edge8" class="edge"><title>nd87:n&#45;&gt;nd152:w</title>
<path fill="none" stroke="black" d="M227.6,-68C227.6,-86.2276 250.372,-67 268.6,-67"/>
<text text-anchor="middle" x="257.1" y="-73.8" font-family="Times,serif" font-size="14.00">x</text>
</g>
<!-- nd92&#45;&gt;nd111 -->
<g id="edge11" class="edge"><title>nd92:e&#45;&gt;nd111:w</title>
<path fill="none" stroke="black" d="M162.6,-138C183.658,-138 188.542,-144 209.6,-144"/>
<text text-anchor="middle" x="198.1" y="-146.8" font-family="Times,serif" font-size="14.00">x</text>
</g>
</g>
</svg>
