<?xml version="1.0" encoding="UTF-8" standalone="no"?>
<!DOCTYPE svg PUBLIC "-//W3C//DTD SVG 1.1//EN"
 "http://www.w3.org/Graphics/SVG/1.1/DTD/svg11.dtd">
<!-- Generated by graphviz version 2.38.0 (20140413.2041)
 -->
<!-- Title: G Pages: 1 -->
<svg width="321pt" height="148pt"
 viewBox="0.00 0.00 321.20 147.92" xmlns="http://www.w3.org/2000/svg" xmlns:xlink="http://www.w3.org/1999/xlink">
<g id="graph0" class="graph" transform="scale(1 1) rotate(0) translate(4 143.918)">
<title>G</title>
<polygon fill="white" stroke="none" points="-4,4 -4,-143.918 317.2,-143.918 317.2,4 -4,4"/>
<g id="clust1" class="cluster"><title>cluster_nd72</title>
<polygon fill="none" stroke="orange" points="205.8,-102 205.8,-122 225.4,-122 225.4,-102 205.8,-102"/>
</g>
<!-- nd1 -->
<g id="node1" class="node"><title>nd1</title>
<ellipse fill="black" stroke="black" cx="1.8" cy="-64" rx="1.8" ry="1.8"/>
</g>
<!-- nd42 -->
<g id="node5" class="node"><title>nd42</title>
<g id="a_node5"><a xlink:title="nd42&#45;BinOpGraph">
<ellipse fill="none" stroke="#000000" cx="38.6" cy="-64" rx="18" ry="18"/>
<text text-anchor="middle" x="38.6" y="-60.3" font-family="Times,serif" font-size="14.00">::</text>
</a>
</g>
</g>
<!-- nd1&#45;&gt;nd42 -->
<g id="edge7" class="edge"><title>nd1:e&#45;&gt;nd42:w</title>
<path fill="none" stroke="#b70000" d="M3.6,-64C11.1556,-64 13.0444,-64 20.6,-64"/>
</g>
<!-- nd68 -->
<g id="node2" class="node"><title>nd68</title>
<g id="a_node2"><a xlink:title="nd68&#45;RecurGraph">
<ellipse fill="none" stroke="#000000" cx="162.6" cy="-114" rx="11" ry="11"/>
<text text-anchor="middle" x="162.6" y="-110.3" font-family="Times,serif" font-size="14.00">rec</text>
</a>
</g>
</g>
<!-- ndcluster_nd72 -->
<g id="node3" class="node"><title>ndcluster_nd72</title>
<g id="a_node3"><a xlink:title="nd72">
<ellipse fill="orange" stroke="orange" cx="215.6" cy="-112" rx="1.8" ry="1.8"/>
</a>
</g>
</g>
<!-- nd68&#45;&gt;ndcluster_nd72 -->
<g id="edge10" class="edge"><title>nd68:n&#45;&gt;ndcluster_nd72:n</title>
<path fill="none" stroke="black" d="M162.6,-126C162.6,-150.058 215.6,-139.058 215.6,-115"/>
</g>
<!-- nd68&#45;&gt;ndcluster_nd72 -->
<g id="edge11" class="edge"><title>nd68:s&#45;&gt;ndcluster_nd72:w</title>
<path fill="none" stroke="black" d="M162.6,-102C162.6,-97.091 168.753,-102.224 173.6,-103 191.165,-105.812 194.811,-112 212.6,-112"/>
</g>
<!-- nd14 -->
<g id="node4" class="node"><title>nd14</title>
<g id="a_node4"><a xlink:title="nd14&#45;ConstGraph">
<path fill="none" stroke="#000000" d="M289.2,-91C289.2,-91 301.2,-91 301.2,-91 307.2,-91 313.2,-85 313.2,-79 313.2,-79 313.2,-67 313.2,-67 313.2,-61 307.2,-55 301.2,-55 301.2,-55 289.2,-55 289.2,-55 283.2,-55 277.2,-61 277.2,-67 277.2,-67 277.2,-79 277.2,-79 277.2,-85 283.2,-91 289.2,-91"/>
<text text-anchor="middle" x="295.2" y="-69.3" font-family="Times,serif" font-size="14.00">1000</text>
</a>
</g>
</g>
<!-- nd45 -->
<g id="node6" class="node"><title>nd45</title>
<g id="a_node6"><a xlink:title="nd45&#45;AppGraph">
<path fill="none" stroke="#000000" d="M86.0377,-57C86.0377,-57 79.8188,-51 79.8188,-51 76.7094,-48 76.7094,-42 79.8188,-39 79.8188,-39 86.0377,-33 86.0377,-33 89.1471,-30 96.5772,-27.0024 100.898,-27.0048 100.898,-27.0048 113.802,-27.012 113.802,-27.012 118.123,-27.0144 122.443,-31.3375 122.443,-35.6582 122.443,-35.6582 122.443,-54.3418 122.443,-54.3418 122.443,-58.6625 118.123,-62.9856 113.802,-62.988 113.802,-62.988 100.898,-62.9952 100.898,-62.9952 96.5772,-62.9976 89.1471,-60 86.0377,-57"/>
<text text-anchor="middle" x="100.6" y="-41.3" font-family="Times,serif" font-size="14.00">@</text>
</a>
</g>
</g>
<!-- nd42&#45;&gt;nd45 -->
<g id="edge4" class="edge"><title>nd42:s&#45;&gt;nd45:w</title>
<path fill="none" stroke="#b70000" d="M38.6,-45C38.6,-29.4444 58.0444,-45 73.6,-45"/>
</g>
<!-- nd59 -->
<g id="node9" class="node"><title>nd59</title>
<g id="a_node9"><a xlink:title="nd59&#45;ContractGraph">
<ellipse fill="black" stroke="black" cx="215.6" cy="-73" rx="1.8" ry="1.8"/>
</a>
</g>
</g>
<!-- nd42&#45;&gt;nd59 -->
<g id="edge6" class="edge"><title>nd42:n&#45;&gt;nd59:w</title>
<path fill="none" stroke="black" d="M38.6,-83C38.6,-160.461 135.139,-73 212.6,-73"/>
</g>
<!-- nd45&#45;&gt;nd68 -->
<g id="edge2" class="edge"><title>nd45:n&#45;&gt;nd68:w</title>
<path fill="none" stroke="black" d="M100.6,-64C100.6,-95.427 119.173,-114 150.6,-114"/>
</g>
<!-- nd49 -->
<g id="node7" class="node"><title>nd49</title>
<g id="a_node7"><a xlink:title="nd49&#45;BinOpGraph">
<ellipse fill="none" stroke="#000000" cx="162.6" cy="-36" rx="18" ry="18"/>
<text text-anchor="middle" x="162.6" y="-32.3" font-family="Times,serif" font-size="14.00">&#45;</text>
</a>
</g>
</g>
<!-- nd45&#45;&gt;nd49 -->
<g id="edge3" class="edge"><title>nd45:s&#45;&gt;nd49:w</title>
<path fill="none" stroke="#b70000" d="M100.6,-26C100.6,-13.9918 116.001,-23.8902 127.6,-27 135.857,-29.214 136.051,-36 144.6,-36"/>
</g>
<!-- nd55 -->
<g id="node8" class="node"><title>nd55</title>
<g id="a_node8"><a xlink:title="nd55&#45;ConstGraph">
<path fill="none" stroke="#000000" d="M209.6,-36C209.6,-36 221.6,-36 221.6,-36 227.6,-36 233.6,-30 233.6,-24 233.6,-24 233.6,-12 233.6,-12 233.6,-6 227.6,-0 221.6,-0 221.6,-0 209.6,-0 209.6,-0 203.6,-0 197.6,-6 197.6,-12 197.6,-12 197.6,-24 197.6,-24 197.6,-30 203.6,-36 209.6,-36"/>
<text text-anchor="middle" x="215.6" y="-14.3" font-family="Times,serif" font-size="14.00">1</text>
</a>
</g>
</g>
<!-- nd49&#45;&gt;nd55 -->
<g id="edge1" class="edge"><title>nd49:s&#45;&gt;nd55:w</title>
<path fill="none" stroke="black" d="M162.6,-17C162.6,-1.4381 182.038,-18 197.6,-18"/>
</g>
<!-- nd49&#45;&gt;nd59 -->
<g id="edge5" class="edge"><title>nd49:n&#45;&gt;nd59:w</title>
<path fill="none" stroke="red" d="M162.6,-55C162.6,-64.3182 186.378,-70.1383 202.212,-72.179"/>
<polygon fill="red" stroke="red" points="202.355,-75.7012 212.6,-73 202.907,-68.7229 202.355,-75.7012"/>
</g>
<!-- nd61 -->
<g id="node10" class="node"><title>nd61</title>
<g id="a_node10"><a xlink:title="nd61&#45;ContractGraph">
<ellipse fill="black" stroke="black" cx="252.4" cy="-73" rx="1.8" ry="1.8"/>
</a>
</g>
</g>
<!-- nd59&#45;&gt;nd61 -->
<g id="edge8" class="edge"><title>nd59:e&#45;&gt;nd61:w</title>
<path fill="none" stroke="black" d="M218.6,-73C232.822,-73 236.378,-73 250.6,-73"/>
</g>
<!-- nd61&#45;&gt;nd14 -->
<g id="edge9" class="edge"><title>nd61:e&#45;&gt;nd14:w</title>
<path fill="none" stroke="black" d="M254.2,-73C264.422,-73 266.978,-73 277.2,-73"/>
<text text-anchor="middle" x="265.7" y="-76.8" font-family="Times,serif" font-size="14.00">x</text>
</g>
</g>
</svg>
