<?xml version="1.0" encoding="UTF-8" standalone="no"?>
<!DOCTYPE svg PUBLIC "-//W3C//DTD SVG 1.1//EN"
 "http://www.w3.org/Graphics/SVG/1.1/DTD/svg11.dtd">
<!-- Generated by graphviz version 2.38.0 (20140413.2041)
 -->
<!-- Title: G Pages: 1 -->
<svg width="445pt" height="177pt"
 viewBox="0.00 0.00 445.20 177.00" xmlns="http://www.w3.org/2000/svg" xmlns:xlink="http://www.w3.org/1999/xlink">
<g id="graph0" class="graph" transform="scale(1 1) rotate(0) translate(4 173)">
<title>G</title>
<polygon fill="white" stroke="none" points="-4,4 -4,-173 441.2,-173 441.2,4 -4,4"/>
<g id="clust1" class="cluster"><title>cluster_nd162</title>
<polygon fill="none" stroke="orange" points="329.8,-104 329.8,-124 349.4,-124 349.4,-104 329.8,-104"/>
</g>
<!-- nd1 -->
<g id="node1" class="node"><title>nd1</title>
<ellipse fill="black" stroke="black" cx="1.8" cy="-126" rx="1.8" ry="1.8"/>
</g>
<!-- nd42 -->
<g id="node3" class="node"><title>nd42</title>
<g id="a_node3"><a xlink:title="nd42&#45;BinOpGraph">
<ellipse fill="none" stroke="#000000" cx="38.6" cy="-126" rx="18" ry="18"/>
<text text-anchor="middle" x="38.6" y="-122.3" font-family="Times,serif" font-size="14.00">::</text>
</a>
</g>
</g>
<!-- nd1&#45;&gt;nd42 -->
<g id="edge2" class="edge"><title>nd1:e&#45;&gt;nd42:w</title>
<path fill="none" stroke="#b70000" d="M3.6,-126C11.1556,-126 13.0444,-126 20.6,-126"/>
</g>
<!-- nd14 -->
<g id="node2" class="node"><title>nd14</title>
<g id="a_node2"><a xlink:title="nd14&#45;ConstGraph">
<path fill="none" stroke="#000000" d="M144.6,-169C144.6,-169 156.6,-169 156.6,-169 162.6,-169 168.6,-163 168.6,-157 168.6,-157 168.6,-145 168.6,-145 168.6,-139 162.6,-133 156.6,-133 156.6,-133 144.6,-133 144.6,-133 138.6,-133 132.6,-139 132.6,-145 132.6,-145 132.6,-157 132.6,-157 132.6,-163 138.6,-169 144.6,-169"/>
<text text-anchor="middle" x="150.6" y="-147.3" font-family="Times,serif" font-size="14.00">1000</text>
</a>
</g>
</g>
<!-- nd59 -->
<g id="node4" class="node"><title>nd59</title>
<g id="a_node4"><a xlink:title="nd59&#45;ContractGraph">
<ellipse fill="black" stroke="black" cx="91.6" cy="-150" rx="1.8" ry="1.8"/>
</a>
</g>
</g>
<!-- nd42&#45;&gt;nd59 -->
<g id="edge1" class="edge"><title>nd42:n&#45;&gt;nd59:w</title>
<path fill="none" stroke="black" d="M38.6,-145C38.6,-167.333 66.2669,-150 88.6,-150"/>
</g>
<!-- nd84 -->
<g id="node6" class="node"><title>nd84</title>
<g id="a_node6"><a xlink:title="nd84&#45;BinOpGraph">
<ellipse fill="none" stroke="#000000" cx="91.6" cy="-100" rx="18" ry="18"/>
<text text-anchor="middle" x="91.6" y="-96.3" font-family="Times,serif" font-size="14.00">::</text>
</a>
</g>
</g>
<!-- nd42&#45;&gt;nd84 -->
<g id="edge5" class="edge"><title>nd42:s&#45;&gt;nd84:w</title>
<path fill="none" stroke="#b70000" d="M38.6,-107C38.6,-91.1364 57.7364,-100 73.6,-100"/>
</g>
<!-- nd59&#45;&gt;nd14 -->
<g id="edge3" class="edge"><title>nd59:e&#45;&gt;nd14:w</title>
<path fill="none" stroke="black" d="M94.6,-150C111.495,-150 115.705,-151 132.6,-151"/>
<text text-anchor="middle" x="121.1" y="-154.8" font-family="Times,serif" font-size="14.00">x</text>
</g>
<!-- nd111 -->
<g id="node5" class="node"><title>nd111</title>
<g id="a_node5"><a xlink:title="nd111&#45;ConstGraph">
<path fill="none" stroke="#000000" d="M212.6,-141C212.6,-141 224.6,-141 224.6,-141 230.6,-141 236.6,-135 236.6,-129 236.6,-129 236.6,-117 236.6,-117 236.6,-111 230.6,-105 224.6,-105 224.6,-105 212.6,-105 212.6,-105 206.6,-105 200.6,-111 200.6,-117 200.6,-117 200.6,-129 200.6,-129 200.6,-135 206.6,-141 212.6,-141"/>
<text text-anchor="middle" x="218.6" y="-119.3" font-family="Times,serif" font-size="14.00">999</text>
</a>
</g>
</g>
<!-- nd92 -->
<g id="node7" class="node"><title>nd92</title>
<g id="a_node7"><a xlink:title="nd92&#45;ContractGraph">
<ellipse fill="black" stroke="black" cx="150.6" cy="-118" rx="1.8" ry="1.8"/>
</a>
</g>
</g>
<!-- nd84&#45;&gt;nd92 -->
<g id="edge4" class="edge"><title>nd84:n&#45;&gt;nd92:w</title>
<path fill="none" stroke="black" d="M91.6,-119C91.6,-143.893 122.707,-118 147.6,-118"/>
</g>
<!-- nd129 -->
<g id="node11" class="node"><title>nd129</title>
<g id="a_node11"><a xlink:title="nd129&#45;BinOpGraph">
<ellipse fill="none" stroke="#000000" cx="150.6" cy="-67" rx="18" ry="18"/>
<text text-anchor="middle" x="150.6" y="-63.3" font-family="Times,serif" font-size="14.00">::</text>
</a>
</g>
</g>
<!-- nd84&#45;&gt;nd129 -->
<g id="edge13" class="edge"><title>nd84:s&#45;&gt;nd129:w</title>
<path fill="none" stroke="#b70000" d="M91.6,-81C91.6,-61.7447 113.345,-67 132.6,-67"/>
</g>
<!-- nd92&#45;&gt;nd111 -->
<g id="edge6" class="edge"><title>nd92:e&#45;&gt;nd111:w</title>
<path fill="none" stroke="black" d="M153.6,-118C174.165,-118 179.035,-123 199.6,-123"/>
<text text-anchor="middle" x="180.1" y="-125.8" font-family="Times,serif" font-size="14.00">x</text>
</g>
<!-- nd156 -->
<g id="node8" class="node"><title>nd156</title>
<g id="a_node8"><a xlink:title="nd156&#45;ConstGraph">
<path fill="none" stroke="#000000" d="M413.2,-93C413.2,-93 425.2,-93 425.2,-93 431.2,-93 437.2,-87 437.2,-81 437.2,-81 437.2,-69 437.2,-69 437.2,-63 431.2,-57 425.2,-57 425.2,-57 413.2,-57 413.2,-57 407.2,-57 401.2,-63 401.2,-69 401.2,-69 401.2,-81 401.2,-81 401.2,-87 407.2,-93 413.2,-93"/>
<text text-anchor="middle" x="419.2" y="-71.3" font-family="Times,serif" font-size="14.00">998</text>
</a>
</g>
</g>
<!-- nd158 -->
<g id="node9" class="node"><title>nd158</title>
<g id="a_node9"><a xlink:title="nd158&#45;RecurGraph">
<ellipse fill="none" stroke="#000000" cx="286.6" cy="-116" rx="11" ry="11"/>
<text text-anchor="middle" x="286.6" y="-112.3" font-family="Times,serif" font-size="14.00">rec</text>
</a>
</g>
</g>
<!-- ndcluster_nd162 -->
<g id="node10" class="node"><title>ndcluster_nd162</title>
<g id="a_node10"><a xlink:title="nd162">
<ellipse fill="orange" stroke="orange" cx="339.6" cy="-114" rx="1.8" ry="1.8"/>
</a>
</g>
</g>
<!-- nd158&#45;&gt;ndcluster_nd162 -->
<g id="edge16" class="edge"><title>nd158:n&#45;&gt;ndcluster_nd162:n</title>
<path fill="none" stroke="black" d="M286.6,-128C286.6,-152.058 339.6,-141.058 339.6,-117"/>
</g>
<!-- nd158&#45;&gt;ndcluster_nd162 -->
<g id="edge17" class="edge"><title>nd158:s&#45;&gt;ndcluster_nd162:w</title>
<path fill="none" stroke="black" d="M286.6,-104C286.6,-99.091 292.753,-104.224 297.6,-105 315.165,-107.812 318.811,-114 336.6,-114"/>
</g>
<!-- nd130 -->
<g id="node12" class="node"><title>nd130</title>
<g id="a_node12"><a xlink:title="nd130&#45;AppGraph">
<path fill="none" stroke="#000000" d="M204.038,-55C204.038,-55 197.819,-49 197.819,-49 194.709,-46 194.709,-40 197.819,-37 197.819,-37 204.038,-31 204.038,-31 207.147,-28 214.577,-25.0024 218.898,-25.0048 218.898,-25.0048 231.802,-25.012 231.802,-25.012 236.123,-25.0144 240.443,-29.3375 240.443,-33.6582 240.443,-33.6582 240.443,-52.3418 240.443,-52.3418 240.443,-56.6625 236.123,-60.9856 231.802,-60.988 231.802,-60.988 218.898,-60.9952 218.898,-60.9952 214.577,-60.9976 207.147,-58 204.038,-55"/>
<text text-anchor="middle" x="218.6" y="-39.3" font-family="Times,serif" font-size="14.00">b@a</text>
</a>
</g>
</g>
<!-- nd129&#45;&gt;nd130 -->
<g id="edge10" class="edge"><title>nd129:s&#45;&gt;nd130:w</title>
<path fill="none" stroke="red" d="M150.6,-48C150.6,-32.9413 165.837,-39.2237 181.445,-41.9677"/>
<polygon fill="red" stroke="red" points="181.297,-45.4706 191.6,-43 182.005,-38.5065 181.297,-45.4706"/>
</g>
<!-- nd137 -->
<g id="node15" class="node"><title>nd137</title>
<g id="a_node15"><a xlink:title="nd137&#45;ContractGraph">
<ellipse fill="black" stroke="black" cx="339.6" cy="-75" rx="1.8" ry="1.8"/>
</a>
</g>
</g>
<!-- nd129&#45;&gt;nd137 -->
<g id="edge12" class="edge"><title>nd129:n&#45;&gt;nd137:w</title>
<path fill="none" stroke="black" d="M150.6,-86C150.6,-106.703 315.897,-75 336.6,-75"/>
</g>
<!-- nd130&#45;&gt;nd158 -->
<g id="edge8" class="edge"><title>nd130:n&#45;&gt;nd158:w</title>
<path fill="none" stroke="black" d="M218.6,-62C218.6,-70.6438 265.956,-116 274.6,-116"/>
<text text-anchor="middle" x="257.1" y="-111.8" font-family="Times,serif" font-size="14.00">a</text>
</g>
<!-- nd132 -->
<g id="node13" class="node"><title>nd132</title>
<g id="a_node13"><a xlink:title="nd132&#45;BinOpGraph">
<ellipse fill="none" stroke="#000000" cx="286.6" cy="-36" rx="18" ry="18"/>
<text text-anchor="middle" x="286.6" y="-32.3" font-family="Times,serif" font-size="14.00">&#45;</text>
</a>
</g>
</g>
<!-- nd130&#45;&gt;nd132 -->
<g id="edge9" class="edge"><title>nd130:s&#45;&gt;nd132:w</title>
<path fill="none" stroke="black" d="M218.6,-24C218.6,-5.28577 244.073,-18.2198 260.6,-27 265.326,-29.5109 263.248,-36 268.6,-36"/>
<text text-anchor="middle" x="257.1" y="-31.8" font-family="Times,serif" font-size="14.00">b</text>
</g>
<!-- nd136 -->
<g id="node14" class="node"><title>nd136</title>
<g id="a_node14"><a xlink:title="nd136&#45;ConstGraph">
<path fill="none" stroke="#000000" d="M333.6,-36C333.6,-36 345.6,-36 345.6,-36 351.6,-36 357.6,-30 357.6,-24 357.6,-24 357.6,-12 357.6,-12 357.6,-6 351.6,-0 345.6,-0 345.6,-0 333.6,-0 333.6,-0 327.6,-0 321.6,-6 321.6,-12 321.6,-12 321.6,-24 321.6,-24 321.6,-30 327.6,-36 333.6,-36"/>
<text text-anchor="middle" x="339.6" y="-14.3" font-family="Times,serif" font-size="14.00">1</text>
</a>
</g>
</g>
<!-- nd132&#45;&gt;nd136 -->
<g id="edge7" class="edge"><title>nd132:s&#45;&gt;nd136:w</title>
<path fill="none" stroke="black" d="M286.6,-17C286.6,-1.4381 306.038,-18 321.6,-18"/>
</g>
<!-- nd132&#45;&gt;nd137 -->
<g id="edge11" class="edge"><title>nd132:n&#45;&gt;nd137:w</title>
<path fill="none" stroke="black" d="M286.6,-55C286.6,-78.9341 312.666,-75 336.6,-75"/>
</g>
<!-- nd138 -->
<g id="node16" class="node"><title>nd138</title>
<g id="a_node16"><a xlink:title="nd138&#45;ContractGraph">
<ellipse fill="black" stroke="black" cx="376.4" cy="-75" rx="1.8" ry="1.8"/>
</a>
</g>
</g>
<!-- nd137&#45;&gt;nd138 -->
<g id="edge14" class="edge"><title>nd137:e&#45;&gt;nd138:w</title>
<path fill="none" stroke="black" d="M342.6,-75C356.822,-75 360.378,-75 374.6,-75"/>
</g>
<!-- nd138&#45;&gt;nd156 -->
<g id="edge15" class="edge"><title>nd138:e&#45;&gt;nd156:w</title>
<path fill="none" stroke="black" d="M378.2,-75C388.422,-75 390.978,-75 401.2,-75"/>
<text text-anchor="middle" x="389.7" y="-78.8" font-family="Times,serif" font-size="14.00">x</text>
</g>
</g>
</svg>
