<?xml version="1.0" encoding="UTF-8" standalone="no"?>
<!DOCTYPE svg PUBLIC "-//W3C//DTD SVG 1.1//EN"
 "http://www.w3.org/Graphics/SVG/1.1/DTD/svg11.dtd">
<!-- Generated by graphviz version 2.38.0 (20140413.2041)
 -->
<!-- Title: G Pages: 1 -->
<svg width="172pt" height="85pt"
 viewBox="0.00 0.00 171.80 85.00" xmlns="http://www.w3.org/2000/svg" xmlns:xlink="http://www.w3.org/1999/xlink">
<g id="graph0" class="graph" transform="scale(1 1) rotate(0) translate(4 81)">
<title>G</title>
<polygon fill="white" stroke="none" points="-4,4 -4,-81 167.8,-81 167.8,4 -4,4"/>
<g id="clust1" class="cluster"><title>cluster_nd4</title>
<polygon fill="none" stroke="orange" points="78.6,-49 78.6,-69 98.2,-69 98.2,-49 78.6,-49"/>
</g>
<g id="clust2" class="cluster"><title>cluster_nd24</title>
<polygon fill="none" stroke="orange" points="78.6,-13 78.6,-33 98.2,-33 98.2,-13 78.6,-13"/>
</g>
<g id="clust3" class="cluster"><title>cluster_nd72</title>
<polygon fill="none" stroke="orange" points="136.2,-8 136.2,-28 155.8,-28 155.8,-8 136.2,-8"/>
</g>
<!-- nd1 -->
<g id="node1" class="node"><title>nd1</title>
<ellipse fill="black" stroke="black" cx="1.8" cy="-41" rx="1.8" ry="1.8"/>
</g>
<!-- nd2 -->
<g id="node2" class="node"><title>nd2</title>
<g id="a_node2"><a xlink:title="nd2&#45;AppGraph">
<path fill="none" stroke="#000000" d="M29.0377,-53C29.0377,-53 22.8188,-47 22.8188,-47 19.7094,-44 19.7094,-38 22.8188,-35 22.8188,-35 29.0377,-29 29.0377,-29 32.1471,-26 39.5772,-23.0024 43.898,-23.0048 43.898,-23.0048 56.802,-23.012 56.802,-23.012 61.1228,-23.0144 65.4435,-27.3375 65.4435,-31.6582 65.4435,-31.6582 65.4435,-50.3418 65.4435,-50.3418 65.4435,-54.6625 61.1228,-58.9856 56.802,-58.988 56.802,-58.988 43.898,-58.9952 43.898,-58.9952 39.5772,-58.9976 32.1471,-56 29.0377,-53"/>
<text text-anchor="middle" x="43.6" y="-37.3" font-family="Times,serif" font-size="14.00">@</text>
</a>
</g>
</g>
<!-- nd1&#45;&gt;nd2 -->
<g id="edge4" class="edge"><title>nd1:e&#45;&gt;nd2:w</title>
<path fill="none" stroke="#b70000" d="M3.6,-41C9.37778,-41 10.8222,-41 16.6,-41"/>
</g>
<!-- ndcluster_nd4 -->
<g id="node3" class="node"><title>ndcluster_nd4</title>
<g id="a_node3"><a xlink:title="nd4">
<ellipse fill="orange" stroke="orange" cx="88.4" cy="-59" rx="1.8" ry="1.8"/>
</a>
</g>
</g>
<!-- nd2&#45;&gt;ndcluster_nd4 -->
<g id="edge3" class="edge"><title>nd2:n&#45;&gt;ndcluster_nd4:w</title>
<path fill="none" stroke="red" d="M43.6,-60C43.6,-75.2439 59.2229,-64.8054 75.0953,-60.5618"/>
<polygon fill="red" stroke="red" points="76.0374,-63.9591 85.4,-59 74.9884,-57.0381 76.0374,-63.9591"/>
</g>
<!-- ndcluster_nd24 -->
<g id="node4" class="node"><title>ndcluster_nd24</title>
<g id="a_node4"><a xlink:title="nd24">
<ellipse fill="orange" stroke="orange" cx="88.4" cy="-23" rx="1.8" ry="1.8"/>
</a>
</g>
</g>
<!-- nd2&#45;&gt;ndcluster_nd24 -->
<g id="edge2" class="edge"><title>nd2:s&#45;&gt;ndcluster_nd24:w</title>
<path fill="none" stroke="black" d="M43.6,-22C43.6,-3.41691 66.8169,-23 85.4,-23"/>
</g>
<!-- nd68 -->
<g id="node5" class="node"><title>nd68</title>
<g id="a_node5"><a xlink:title="nd68&#45;RecurGraph">
<ellipse fill="none" stroke="#000000" cx="117.2" cy="-25" rx="11" ry="11"/>
<text text-anchor="middle" x="117.2" y="-21.3" font-family="Times,serif" font-size="14.00">rec</text>
</a>
</g>
</g>
<!-- ndcluster_nd24&#45;&gt;nd68 -->
<g id="edge1" class="edge"><title>ndcluster_nd24:n&#45;&gt;nd68:w</title>
<path fill="none" stroke="black" d="M88.4,-26C88.4,-33.9236 98.2764,-25 106.2,-25"/>
</g>
<!-- ndcluster_nd72 -->
<g id="node6" class="node"><title>ndcluster_nd72</title>
<g id="a_node6"><a xlink:title="nd72">
<ellipse fill="orange" stroke="orange" cx="146" cy="-18" rx="1.8" ry="1.8"/>
</a>
</g>
</g>
<!-- nd68&#45;&gt;ndcluster_nd72 -->
<g id="edge5" class="edge"><title>nd68:n&#45;&gt;ndcluster_nd72:n</title>
<path fill="none" stroke="black" d="M117.2,-37C117.2,-51.6427 146,-35.6427 146,-21"/>
</g>
<!-- nd68&#45;&gt;ndcluster_nd72 -->
<g id="edge6" class="edge"><title>nd68:s&#45;&gt;ndcluster_nd72:w</title>
<path fill="none" stroke="black" d="M117.2,-13C117.2,-8.09095 123.368,-13.1341 128.2,-14 134.907,-15.2018 136.186,-18 143,-18"/>
</g>
</g>
</svg>
