<?xml version="1.0" encoding="UTF-8" standalone="no"?>
<!DOCTYPE svg PUBLIC "-//W3C//DTD SVG 1.1//EN"
 "http://www.w3.org/Graphics/SVG/1.1/DTD/svg11.dtd">
<!-- Generated by graphviz version 2.38.0 (20140413.2041)
 -->
<!-- Title: G Pages: 1 -->
<svg width="386pt" height="142pt"
 viewBox="0.00 0.00 386.20 141.92" xmlns="http://www.w3.org/2000/svg" xmlns:xlink="http://www.w3.org/1999/xlink">
<g id="graph0" class="graph" transform="scale(1 1) rotate(0) translate(4 137.918)">
<title>G</title>
<polygon fill="white" stroke="none" points="-4,4 -4,-137.918 382.2,-137.918 382.2,4 -4,4"/>
<g id="clust1" class="cluster"><title>cluster_nd117</title>
<polygon fill="none" stroke="orange" points="270.8,-96 270.8,-116 290.4,-116 290.4,-96 270.8,-96"/>
</g>
<!-- nd1 -->
<g id="node1" class="node"><title>nd1</title>
<ellipse fill="black" stroke="black" cx="1.8" cy="-88" rx="1.8" ry="1.8"/>
</g>
<!-- nd42 -->
<g id="node3" class="node"><title>nd42</title>
<g id="a_node3"><a xlink:title="nd42&#45;BinOpGraph">
<ellipse fill="none" stroke="#000000" cx="38.6" cy="-88" rx="18" ry="18"/>
<text text-anchor="middle" x="38.6" y="-84.3" font-family="Times,serif" font-size="14.00">::</text>
</a>
</g>
</g>
<!-- nd1&#45;&gt;nd42 -->
<g id="edge2" class="edge"><title>nd1:e&#45;&gt;nd42:w</title>
<path fill="none" stroke="#b70000" d="M3.6,-88C11.1556,-88 13.0444,-88 20.6,-88"/>
</g>
<!-- nd14 -->
<g id="node2" class="node"><title>nd14</title>
<g id="a_node2"><a xlink:title="nd14&#45;ConstGraph">
<path fill="none" stroke="#000000" d="M153.6,-133C153.6,-133 165.6,-133 165.6,-133 171.6,-133 177.6,-127 177.6,-121 177.6,-121 177.6,-109 177.6,-109 177.6,-103 171.6,-97 165.6,-97 165.6,-97 153.6,-97 153.6,-97 147.6,-97 141.6,-103 141.6,-109 141.6,-109 141.6,-121 141.6,-121 141.6,-127 147.6,-133 153.6,-133"/>
<text text-anchor="middle" x="159.6" y="-111.3" font-family="Times,serif" font-size="14.00">1000</text>
</a>
</g>
</g>
<!-- nd59 -->
<g id="node4" class="node"><title>nd59</title>
<g id="a_node4"><a xlink:title="nd59&#45;ContractGraph">
<ellipse fill="black" stroke="black" cx="91.6" cy="-113" rx="1.8" ry="1.8"/>
</a>
</g>
</g>
<!-- nd42&#45;&gt;nd59 -->
<g id="edge1" class="edge"><title>nd42:n&#45;&gt;nd59:w</title>
<path fill="none" stroke="black" d="M38.6,-107C38.6,-129.382 66.2183,-113 88.6,-113"/>
</g>
<!-- nd84 -->
<g id="node8" class="node"><title>nd84</title>
<g id="a_node8"><a xlink:title="nd84&#45;BinOpGraph">
<ellipse fill="none" stroke="#000000" cx="91.6" cy="-59" rx="18" ry="18"/>
<text text-anchor="middle" x="91.6" y="-55.3" font-family="Times,serif" font-size="14.00">a :: b</text>
</a>
</g>
</g>
<!-- nd42&#45;&gt;nd84 -->
<g id="edge10" class="edge"><title>nd42:s&#45;&gt;nd84:w</title>
<path fill="none" stroke="red" d="M38.6,-69C38.6,-56.1081 50.5521,-57.4126 63.5942,-58.4744"/>
<polygon fill="red" stroke="red" points="63.4301,-61.9705 73.6,-59 63.7974,-54.9802 63.4301,-61.9705"/>
</g>
<!-- nd59&#45;&gt;nd14 -->
<g id="edge3" class="edge"><title>nd59:e&#45;&gt;nd14:w</title>
<path fill="none" stroke="black" d="M94.6,-113C115.064,-113 120.136,-115 140.6,-115"/>
<text text-anchor="middle" x="121.1" y="-118.8" font-family="Times,serif" font-size="14.00">x</text>
</g>
<!-- nd111 -->
<g id="node5" class="node"><title>nd111</title>
<g id="a_node5"><a xlink:title="nd111&#45;ConstGraph">
<path fill="none" stroke="#000000" d="M354.2,-85C354.2,-85 366.2,-85 366.2,-85 372.2,-85 378.2,-79 378.2,-73 378.2,-73 378.2,-61 378.2,-61 378.2,-55 372.2,-49 366.2,-49 366.2,-49 354.2,-49 354.2,-49 348.2,-49 342.2,-55 342.2,-61 342.2,-61 342.2,-73 342.2,-73 342.2,-79 348.2,-85 354.2,-85"/>
<text text-anchor="middle" x="360.2" y="-63.3" font-family="Times,serif" font-size="14.00">999</text>
</a>
</g>
</g>
<!-- nd113 -->
<g id="node6" class="node"><title>nd113</title>
<g id="a_node6"><a xlink:title="nd113&#45;RecurGraph">
<ellipse fill="none" stroke="#000000" cx="227.6" cy="-108" rx="11" ry="11"/>
<text text-anchor="middle" x="227.6" y="-104.3" font-family="Times,serif" font-size="14.00">rec</text>
</a>
</g>
</g>
<!-- ndcluster_nd117 -->
<g id="node7" class="node"><title>ndcluster_nd117</title>
<g id="a_node7"><a xlink:title="nd117">
<ellipse fill="orange" stroke="orange" cx="280.6" cy="-106" rx="1.8" ry="1.8"/>
</a>
</g>
</g>
<!-- nd113&#45;&gt;ndcluster_nd117 -->
<g id="edge13" class="edge"><title>nd113:n&#45;&gt;ndcluster_nd117:n</title>
<path fill="none" stroke="black" d="M227.6,-120C227.6,-144.058 280.6,-133.058 280.6,-109"/>
</g>
<!-- nd113&#45;&gt;ndcluster_nd117 -->
<g id="edge14" class="edge"><title>nd113:s&#45;&gt;ndcluster_nd117:w</title>
<path fill="none" stroke="black" d="M227.6,-96C227.6,-91.091 233.753,-96.2241 238.6,-97 256.165,-99.8118 259.811,-106 277.6,-106"/>
</g>
<!-- nd85 -->
<g id="node9" class="node"><title>nd85</title>
<g id="a_node9"><a xlink:title="nd85&#45;AppGraph">
<path fill="none" stroke="#000000" d="M145.038,-51C145.038,-51 138.819,-45 138.819,-45 135.709,-42 135.709,-36 138.819,-33 138.819,-33 145.038,-27 145.038,-27 148.147,-24 155.577,-21.0024 159.898,-21.0048 159.898,-21.0048 172.802,-21.012 172.802,-21.012 177.123,-21.0144 181.443,-25.3375 181.443,-29.6582 181.443,-29.6582 181.443,-48.3418 181.443,-48.3418 181.443,-52.6625 177.123,-56.9856 172.802,-56.988 172.802,-56.988 159.898,-56.9952 159.898,-56.9952 155.577,-56.9976 148.147,-54 145.038,-51"/>
<text text-anchor="middle" x="159.6" y="-35.3" font-family="Times,serif" font-size="14.00">@</text>
</a>
</g>
</g>
<!-- nd84&#45;&gt;nd85 -->
<g id="edge7" class="edge"><title>nd84:s&#45;&gt;nd85:w</title>
<path fill="none" stroke="black" d="M91.6,-40C91.6,-21.7724 114.372,-39 132.6,-39"/>
<text text-anchor="middle" x="121.1" y="-42.8" font-family="Times,serif" font-size="14.00">b</text>
</g>
<!-- nd92 -->
<g id="node12" class="node"><title>nd92</title>
<g id="a_node12"><a xlink:title="nd92&#45;ContractGraph">
<ellipse fill="black" stroke="black" cx="280.6" cy="-67" rx="1.8" ry="1.8"/>
</a>
</g>
</g>
<!-- nd84&#45;&gt;nd92 -->
<g id="edge9" class="edge"><title>nd84:n&#45;&gt;nd92:w</title>
<path fill="none" stroke="black" d="M91.6,-78C91.6,-98.7028 256.897,-67 277.6,-67"/>
<text text-anchor="middle" x="198.1" y="-81.8" font-family="Times,serif" font-size="14.00">a</text>
</g>
<!-- nd85&#45;&gt;nd113 -->
<g id="edge5" class="edge"><title>nd85:n&#45;&gt;nd113:w</title>
<path fill="none" stroke="black" d="M159.6,-58C159.6,-76.7985 187.148,-50.9786 201.6,-63 217.703,-76.3945 194.654,-108 215.6,-108"/>
</g>
<!-- nd87 -->
<g id="node10" class="node"><title>nd87</title>
<g id="a_node10"><a xlink:title="nd87&#45;BinOpGraph">
<ellipse fill="none" stroke="#000000" cx="227.6" cy="-36" rx="18" ry="18"/>
<text text-anchor="middle" x="227.6" y="-32.3" font-family="Times,serif" font-size="14.00">&#45;</text>
</a>
</g>
</g>
<!-- nd85&#45;&gt;nd87 -->
<g id="edge6" class="edge"><title>nd85:s&#45;&gt;nd87:w</title>
<path fill="none" stroke="black" d="M159.6,-20C159.6,-7.99177 175.155,-17.3658 186.6,-21 198.232,-24.6934 197.396,-36 209.6,-36"/>
</g>
<!-- nd91 -->
<g id="node11" class="node"><title>nd91</title>
<g id="a_node11"><a xlink:title="nd91&#45;ConstGraph">
<path fill="none" stroke="#000000" d="M274.6,-36C274.6,-36 286.6,-36 286.6,-36 292.6,-36 298.6,-30 298.6,-24 298.6,-24 298.6,-12 298.6,-12 298.6,-6 292.6,-0 286.6,-0 286.6,-0 274.6,-0 274.6,-0 268.6,-0 262.6,-6 262.6,-12 262.6,-12 262.6,-24 262.6,-24 262.6,-30 268.6,-36 274.6,-36"/>
<text text-anchor="middle" x="280.6" y="-14.3" font-family="Times,serif" font-size="14.00">1</text>
</a>
</g>
</g>
<!-- nd87&#45;&gt;nd91 -->
<g id="edge4" class="edge"><title>nd87:s&#45;&gt;nd91:w</title>
<path fill="none" stroke="black" d="M227.6,-17C227.6,-1.4381 247.038,-18 262.6,-18"/>
</g>
<!-- nd87&#45;&gt;nd92 -->
<g id="edge8" class="edge"><title>nd87:n&#45;&gt;nd92:w</title>
<path fill="none" stroke="black" d="M227.6,-55C227.6,-66.4266 266.173,-67 277.6,-67"/>
</g>
<!-- nd93 -->
<g id="node13" class="node"><title>nd93</title>
<g id="a_node13"><a xlink:title="nd93&#45;ContractGraph">
<ellipse fill="black" stroke="black" cx="317.4" cy="-67" rx="1.8" ry="1.8"/>
</a>
</g>
</g>
<!-- nd92&#45;&gt;nd93 -->
<g id="edge11" class="edge"><title>nd92:e&#45;&gt;nd93:w</title>
<path fill="none" stroke="black" d="M283.6,-67C297.822,-67 301.378,-67 315.6,-67"/>
</g>
<!-- nd93&#45;&gt;nd111 -->
<g id="edge12" class="edge"><title>nd93:e&#45;&gt;nd111:w</title>
<path fill="none" stroke="black" d="M319.2,-67C329.422,-67 331.978,-67 342.2,-67"/>
<text text-anchor="middle" x="330.7" y="-70.8" font-family="Times,serif" font-size="14.00">x</text>
</g>
</g>
</svg>
