<?xml version="1.0" encoding="UTF-8" standalone="no"?>
<!DOCTYPE svg PUBLIC "-//W3C//DTD SVG 1.1//EN"
 "http://www.w3.org/Graphics/SVG/1.1/DTD/svg11.dtd">
<!-- Generated by graphviz version 2.38.0 (20140413.2041)
 -->
<!-- Title: G Pages: 1 -->
<svg width="327pt" height="155pt"
 viewBox="0.00 0.00 327.20 155.00" xmlns="http://www.w3.org/2000/svg" xmlns:xlink="http://www.w3.org/1999/xlink">
<g id="graph0" class="graph" transform="scale(1 1) rotate(0) translate(4 151)">
<title>G</title>
<polygon fill="white" stroke="none" points="-4,4 -4,-151 323.2,-151 323.2,4 -4,4"/>
<g id="clust1" class="cluster"><title>cluster_nd117</title>
<polygon fill="none" stroke="orange" points="291.6,-48 291.6,-68 311.2,-68 311.2,-48 291.6,-48"/>
</g>
<!-- nd1 -->
<g id="node1" class="node"><title>nd1</title>
<ellipse fill="black" stroke="black" cx="1.8" cy="-104" rx="1.8" ry="1.8"/>
</g>
<!-- nd42 -->
<g id="node3" class="node"><title>nd42</title>
<g id="a_node3"><a xlink:title="nd42&#45;BinOpGraph">
<ellipse fill="none" stroke="#000000" cx="38.6" cy="-104" rx="18" ry="18"/>
<text text-anchor="middle" x="38.6" y="-100.3" font-family="Times,serif" font-size="14.00">::</text>
</a>
</g>
</g>
<!-- nd1&#45;&gt;nd42 -->
<g id="edge2" class="edge"><title>nd1:e&#45;&gt;nd42:w</title>
<path fill="none" stroke="#b70000" d="M3.6,-104C11.1556,-104 13.0444,-104 20.6,-104"/>
</g>
<!-- nd14 -->
<g id="node2" class="node"><title>nd14</title>
<g id="a_node2"><a xlink:title="nd14&#45;ConstGraph">
<path fill="none" stroke="#000000" d="M153.6,-147C153.6,-147 165.6,-147 165.6,-147 171.6,-147 177.6,-141 177.6,-135 177.6,-135 177.6,-123 177.6,-123 177.6,-117 171.6,-111 165.6,-111 165.6,-111 153.6,-111 153.6,-111 147.6,-111 141.6,-117 141.6,-123 141.6,-123 141.6,-135 141.6,-135 141.6,-141 147.6,-147 153.6,-147"/>
<text text-anchor="middle" x="159.6" y="-125.3" font-family="Times,serif" font-size="14.00">1000</text>
</a>
</g>
</g>
<!-- nd59 -->
<g id="node4" class="node"><title>nd59</title>
<g id="a_node4"><a xlink:title="nd59&#45;ContractGraph">
<ellipse fill="black" stroke="black" cx="91.6" cy="-128" rx="1.8" ry="1.8"/>
</a>
</g>
</g>
<!-- nd42&#45;&gt;nd59 -->
<g id="edge1" class="edge"><title>nd42:n&#45;&gt;nd59:w</title>
<path fill="none" stroke="black" d="M38.6,-123C38.6,-145.333 66.2669,-128 88.6,-128"/>
</g>
<!-- nd84 -->
<g id="node8" class="node"><title>nd84</title>
<g id="a_node8"><a xlink:title="nd84&#45;BinOpGraph">
<ellipse fill="none" stroke="#000000" cx="91.6" cy="-78" rx="18" ry="18"/>
<text text-anchor="middle" x="91.6" y="-74.3" font-family="Times,serif" font-size="14.00">::</text>
</a>
</g>
</g>
<!-- nd42&#45;&gt;nd84 -->
<g id="edge8" class="edge"><title>nd42:s&#45;&gt;nd84:w</title>
<path fill="none" stroke="#b70000" d="M38.6,-85C38.6,-69.1364 57.7364,-78 73.6,-78"/>
</g>
<!-- nd59&#45;&gt;nd14 -->
<g id="edge3" class="edge"><title>nd59:e&#45;&gt;nd14:w</title>
<path fill="none" stroke="black" d="M94.6,-128C115.049,-128 120.151,-129 140.6,-129"/>
<text text-anchor="middle" x="121.1" y="-131.8" font-family="Times,serif" font-size="14.00">x</text>
</g>
<!-- nd111 -->
<g id="node5" class="node"><title>nd111</title>
<g id="a_node5"><a xlink:title="nd111&#45;ConstGraph">
<path fill="none" stroke="#000000" d="M221.6,-120C221.6,-120 233.6,-120 233.6,-120 239.6,-120 245.6,-114 245.6,-108 245.6,-108 245.6,-96 245.6,-96 245.6,-90 239.6,-84 233.6,-84 233.6,-84 221.6,-84 221.6,-84 215.6,-84 209.6,-90 209.6,-96 209.6,-96 209.6,-108 209.6,-108 209.6,-114 215.6,-120 221.6,-120"/>
<text text-anchor="middle" x="227.6" y="-98.3" font-family="Times,serif" font-size="14.00">999</text>
</a>
</g>
</g>
<!-- nd113 -->
<g id="node6" class="node"><title>nd113</title>
<g id="a_node6"><a xlink:title="nd113&#45;RecurGraph">
<ellipse fill="none" stroke="#000000" cx="227.6" cy="-60" rx="11" ry="11"/>
<text text-anchor="middle" x="227.6" y="-56.3" font-family="Times,serif" font-size="14.00">rec</text>
</a>
</g>
</g>
<!-- ndcluster_nd117 -->
<g id="node7" class="node"><title>ndcluster_nd117</title>
<g id="a_node7"><a xlink:title="nd117">
<ellipse fill="orange" stroke="orange" cx="301.4" cy="-58" rx="1.8" ry="1.8"/>
</a>
</g>
</g>
<!-- nd113&#45;&gt;ndcluster_nd117 -->
<g id="edge10" class="edge"><title>nd113:n&#45;&gt;ndcluster_nd117:n</title>
<path fill="none" stroke="black" d="M227.6,-72C227.6,-80.2906 301.4,-69.2906 301.4,-61"/>
<text text-anchor="middle" x="268.6" y="-77.8" font-family="Times,serif" font-size="14.00">refλ</text>
</g>
<!-- nd113&#45;&gt;ndcluster_nd117 -->
<g id="edge11" class="edge"><title>nd113:s&#45;&gt;ndcluster_nd117:w</title>
<path fill="none" stroke="black" d="M227.6,-48C227.6,-35.5377 271.518,-47.9451 283.6,-51 290.654,-52.7837 291.124,-58 298.4,-58"/>
<text text-anchor="middle" x="268.6" y="-55.8" font-family="Times,serif" font-size="14.00">evalλ</text>
</g>
<!-- nd85 -->
<g id="node9" class="node"><title>nd85</title>
<g id="a_node9"><a xlink:title="nd85&#45;AppGraph">
<path fill="none" stroke="#000000" d="M145.038,-54C145.038,-54 138.819,-48 138.819,-48 135.709,-45 135.709,-39 138.819,-36 138.819,-36 145.038,-30 145.038,-30 148.147,-27 155.577,-24.0024 159.898,-24.0048 159.898,-24.0048 172.802,-24.012 172.802,-24.012 177.123,-24.0144 181.443,-28.3375 181.443,-32.6582 181.443,-32.6582 181.443,-51.3418 181.443,-51.3418 181.443,-55.6625 177.123,-59.9856 172.802,-59.988 172.802,-59.988 159.898,-59.9952 159.898,-59.9952 155.577,-59.9976 148.147,-57 145.038,-54"/>
<text text-anchor="middle" x="159.6" y="-38.3" font-family="Times,serif" font-size="14.00">@</text>
</a>
</g>
</g>
<!-- nd84&#45;&gt;nd85 -->
<g id="edge6" class="edge"><title>nd84:s&#45;&gt;nd85:w</title>
<path fill="none" stroke="#b70000" d="M91.6,-59C91.6,-39.2735 112.873,-42 132.6,-42"/>
</g>
<!-- nd92 -->
<g id="node10" class="node"><title>nd92</title>
<g id="a_node10"><a xlink:title="nd92&#45;ContractGraph">
<ellipse fill="black" stroke="black" cx="159.6" cy="-96" rx="1.8" ry="1.8"/>
</a>
</g>
</g>
<!-- nd84&#45;&gt;nd92 -->
<g id="edge7" class="edge"><title>nd84:n&#45;&gt;nd92:w</title>
<path fill="none" stroke="black" d="M91.6,-97C91.6,-125.892 127.708,-96 156.6,-96"/>
</g>
<!-- nd85&#45;&gt;nd113 -->
<g id="edge4" class="edge"><title>nd85:n&#45;&gt;nd113:w</title>
<path fill="none" stroke="red" d="M159.6,-61C159.6,-82.5868 182.993,-65.982 205.44,-61.1905"/>
<polygon fill="red" stroke="red" points="206.075,-64.6402 215.6,-60 205.261,-57.6877 206.075,-64.6402"/>
</g>
<!-- nd156 -->
<g id="node11" class="node"><title>nd156</title>
<g id="a_node11"><a xlink:title="nd156&#45;ConstGraph">
<path fill="none" stroke="#000000" d="M221.6,-36C221.6,-36 233.6,-36 233.6,-36 239.6,-36 245.6,-30 245.6,-24 245.6,-24 245.6,-12 245.6,-12 245.6,-6 239.6,-0 233.6,-0 233.6,-0 221.6,-0 221.6,-0 215.6,-0 209.6,-6 209.6,-12 209.6,-12 209.6,-24 209.6,-24 209.6,-30 215.6,-36 221.6,-36"/>
<text text-anchor="middle" x="227.6" y="-14.3" font-family="Times,serif" font-size="14.00">998</text>
</a>
</g>
</g>
<!-- nd85&#45;&gt;nd156 -->
<g id="edge5" class="edge"><title>nd85:s&#45;&gt;nd156:w</title>
<path fill="none" stroke="black" d="M159.6,-23C159.6,-0.666943 187.267,-18 209.6,-18"/>
</g>
<!-- nd92&#45;&gt;nd111 -->
<g id="edge9" class="edge"><title>nd92:e&#45;&gt;nd111:w</title>
<path fill="none" stroke="black" d="M162.6,-96C183.658,-96 188.542,-102 209.6,-102"/>
<text text-anchor="middle" x="198.1" y="-104.8" font-family="Times,serif" font-size="14.00">x</text>
</g>
</g>
</svg>
