<?xml version="1.0" encoding="UTF-8" standalone="no"?>
<!DOCTYPE svg PUBLIC "-//W3C//DTD SVG 1.1//EN"
 "http://www.w3.org/Graphics/SVG/1.1/DTD/svg11.dtd">
<!-- Generated by graphviz version 2.38.0 (20140413.2041)
 -->
<!-- Title: G Pages: 1 -->
<svg width="386pt" height="155pt"
 viewBox="0.00 0.00 386.20 154.52" xmlns="http://www.w3.org/2000/svg" xmlns:xlink="http://www.w3.org/1999/xlink">
<g id="graph0" class="graph" transform="scale(1 1) rotate(0) translate(4 150.519)">
<title>G</title>
<polygon fill="white" stroke="none" points="-4,4 -4,-150.519 382.2,-150.519 382.2,4 -4,4"/>
<g id="clust1" class="cluster"><title>cluster_nd117</title>
<polygon fill="none" stroke="orange" points="270.8,-108 270.8,-128 290.4,-128 290.4,-108 270.8,-108"/>
</g>
<!-- nd1 -->
<g id="node1" class="node"><title>nd1</title>
<ellipse fill="black" stroke="black" cx="1.8" cy="-98" rx="1.8" ry="1.8"/>
</g>
<!-- nd42 -->
<g id="node3" class="node"><title>nd42</title>
<g id="a_node3"><a xlink:title="nd42&#45;BinOpGraph">
<ellipse fill="none" stroke="#000000" cx="38.6" cy="-98" rx="18" ry="18"/>
<text text-anchor="middle" x="38.6" y="-94.3" font-family="Times,serif" font-size="14.00">::</text>
</a>
</g>
</g>
<!-- nd1&#45;&gt;nd42 -->
<g id="edge2" class="edge"><title>nd1:e&#45;&gt;nd42:w</title>
<path fill="none" stroke="#b70000" d="M3.6,-98C11.1556,-98 13.0444,-98 20.6,-98"/>
</g>
<!-- nd14 -->
<g id="node2" class="node"><title>nd14</title>
<g id="a_node2"><a xlink:title="nd14&#45;ConstGraph">
<path fill="none" stroke="#000000" d="M153.6,-143C153.6,-143 165.6,-143 165.6,-143 171.6,-143 177.6,-137 177.6,-131 177.6,-131 177.6,-119 177.6,-119 177.6,-113 171.6,-107 165.6,-107 165.6,-107 153.6,-107 153.6,-107 147.6,-107 141.6,-113 141.6,-119 141.6,-119 141.6,-131 141.6,-131 141.6,-137 147.6,-143 153.6,-143"/>
<text text-anchor="middle" x="159.6" y="-121.3" font-family="Times,serif" font-size="14.00">1000</text>
</a>
</g>
</g>
<!-- nd59 -->
<g id="node4" class="node"><title>nd59</title>
<g id="a_node4"><a xlink:title="nd59&#45;ContractGraph">
<ellipse fill="black" stroke="black" cx="91.6" cy="-123" rx="1.8" ry="1.8"/>
</a>
</g>
</g>
<!-- nd42&#45;&gt;nd59 -->
<g id="edge1" class="edge"><title>nd42:n&#45;&gt;nd59:w</title>
<path fill="none" stroke="black" d="M38.6,-117C38.6,-139.382 66.2183,-123 88.6,-123"/>
</g>
<!-- nd84 -->
<g id="node8" class="node"><title>nd84</title>
<g id="a_node8"><a xlink:title="nd84&#45;BinOpGraph">
<ellipse fill="none" stroke="#000000" cx="91.6" cy="-69" rx="18" ry="18"/>
<text text-anchor="middle" x="91.6" y="-65.3" font-family="Times,serif" font-size="14.00">::</text>
</a>
</g>
</g>
<!-- nd42&#45;&gt;nd84 -->
<g id="edge10" class="edge"><title>nd42:s&#45;&gt;nd84:w</title>
<path fill="none" stroke="#b70000" d="M38.6,-79C38.6,-62.822 57.422,-69 73.6,-69"/>
</g>
<!-- nd59&#45;&gt;nd14 -->
<g id="edge3" class="edge"><title>nd59:e&#45;&gt;nd14:w</title>
<path fill="none" stroke="black" d="M94.6,-123C115.064,-123 120.136,-125 140.6,-125"/>
<text text-anchor="middle" x="121.1" y="-128.8" font-family="Times,serif" font-size="14.00">x</text>
</g>
<!-- nd111 -->
<g id="node5" class="node"><title>nd111</title>
<g id="a_node5"><a xlink:title="nd111&#45;ConstGraph">
<path fill="none" stroke="#000000" d="M354.2,-86C354.2,-86 366.2,-86 366.2,-86 372.2,-86 378.2,-80 378.2,-74 378.2,-74 378.2,-62 378.2,-62 378.2,-56 372.2,-50 366.2,-50 366.2,-50 354.2,-50 354.2,-50 348.2,-50 342.2,-56 342.2,-62 342.2,-62 342.2,-74 342.2,-74 342.2,-80 348.2,-86 354.2,-86"/>
<text text-anchor="middle" x="360.2" y="-64.3" font-family="Times,serif" font-size="14.00">999</text>
</a>
</g>
</g>
<!-- nd113 -->
<g id="node6" class="node"><title>nd113</title>
<g id="a_node6"><a xlink:title="nd113&#45;RecurGraph">
<ellipse fill="none" stroke="#000000" cx="221.6" cy="-118" rx="11" ry="11"/>
<text text-anchor="middle" x="221.6" y="-114.3" font-family="Times,serif" font-size="14.00">rec</text>
</a>
</g>
</g>
<!-- ndcluster_nd117 -->
<g id="node7" class="node"><title>ndcluster_nd117</title>
<g id="a_node7"><a xlink:title="nd117">
<ellipse fill="orange" stroke="orange" cx="280.6" cy="-118" rx="1.8" ry="1.8"/>
</a>
</g>
</g>
<!-- nd113&#45;&gt;ndcluster_nd117 -->
<g id="edge13" class="edge"><title>nd113:n&#45;&gt;ndcluster_nd117:n</title>
<path fill="none" stroke="black" d="M221.6,-130C221.6,-156.526 280.6,-147.526 280.6,-121"/>
</g>
<!-- nd113&#45;&gt;ndcluster_nd117 -->
<g id="edge14" class="edge"><title>nd113:s&#45;&gt;ndcluster_nd117:w</title>
<path fill="none" stroke="black" d="M221.6,-106C221.6,-101.091 227.758,-106.193 232.6,-107 252.909,-110.386 257.011,-118 277.6,-118"/>
</g>
<!-- nd85 -->
<g id="node9" class="node"><title>nd85</title>
<g id="a_node9"><a xlink:title="nd85&#45;AppGraph">
<path fill="none" stroke="#000000" d="M145.038,-61C145.038,-61 138.819,-55 138.819,-55 135.709,-52 135.709,-46 138.819,-43 138.819,-43 145.038,-37 145.038,-37 148.147,-34 155.577,-31.0024 159.898,-31.0048 159.898,-31.0048 172.802,-31.012 172.802,-31.012 177.123,-31.0144 181.443,-35.3375 181.443,-39.6582 181.443,-39.6582 181.443,-58.3418 181.443,-58.3418 181.443,-62.6625 177.123,-66.9856 172.802,-66.988 172.802,-66.988 159.898,-66.9952 159.898,-66.9952 155.577,-66.9976 148.147,-64 145.038,-61"/>
<text text-anchor="middle" x="159.6" y="-45.3" font-family="Times,serif" font-size="14.00">@</text>
</a>
</g>
</g>
<!-- nd84&#45;&gt;nd85 -->
<g id="edge7" class="edge"><title>nd84:s&#45;&gt;nd85:w</title>
<path fill="none" stroke="#b70000" d="M91.6,-50C91.6,-31.7724 114.372,-49 132.6,-49"/>
</g>
<!-- nd92 -->
<g id="node12" class="node"><title>nd92</title>
<g id="a_node12"><a xlink:title="nd92&#45;ContractGraph">
<ellipse fill="black" stroke="black" cx="280.6" cy="-68" rx="1.8" ry="1.8"/>
</a>
</g>
</g>
<!-- nd84&#45;&gt;nd92 -->
<g id="edge9" class="edge"><title>nd84:n&#45;&gt;nd92:w</title>
<path fill="none" stroke="black" d="M91.6,-88C91.6,-96.0123 101.605,-87.5253 109.6,-87 174.091,-82.7628 191.327,-89.1708 254.6,-76 265.196,-73.7944 266.777,-68 277.6,-68"/>
</g>
<!-- nd85&#45;&gt;nd113 -->
<g id="edge5" class="edge"><title>nd85:n&#45;&gt;nd113:w</title>
<path fill="none" stroke="black" d="M159.6,-68C159.6,-71.9284 205.672,-118 209.6,-118"/>
</g>
<!-- nd87 -->
<g id="node10" class="node"><title>nd87</title>
<g id="a_node10"><a xlink:title="nd87&#45;BinOpGraph">
<ellipse fill="none" stroke="#000000" cx="221.6" cy="-36" rx="18" ry="18"/>
<text text-anchor="middle" x="221.6" y="-32.3" font-family="Times,serif" font-size="14.00">a &#45; b</text>
</a>
</g>
</g>
<!-- nd85&#45;&gt;nd87 -->
<g id="edge6" class="edge"><title>nd85:s&#45;&gt;nd87:w</title>
<path fill="none" stroke="#b70000" d="M159.6,-30C159.6,-17.9918 174.748,-29.0687 186.6,-31 194.373,-32.2667 195.724,-36 203.6,-36"/>
</g>
<!-- nd91 -->
<g id="node11" class="node"><title>nd91</title>
<g id="a_node11"><a xlink:title="nd91&#45;ConstGraph">
<path fill="none" stroke="#000000" d="M274.6,-36C274.6,-36 286.6,-36 286.6,-36 292.6,-36 298.6,-30 298.6,-24 298.6,-24 298.6,-12 298.6,-12 298.6,-6 292.6,-0 286.6,-0 286.6,-0 274.6,-0 274.6,-0 268.6,-0 262.6,-6 262.6,-12 262.6,-12 262.6,-24 262.6,-24 262.6,-30 268.6,-36 274.6,-36"/>
<text text-anchor="middle" x="280.6" y="-14.3" font-family="Times,serif" font-size="14.00">1</text>
</a>
</g>
</g>
<!-- nd87&#45;&gt;nd91 -->
<g id="edge4" class="edge"><title>nd87:s&#45;&gt;nd91:w</title>
<path fill="none" stroke="red" d="M227.99,-9.15266C236.055,-9.32033 250.353,-18 262.6,-18"/>
<polygon fill="red" stroke="red" points="225.201,-7.03572 221.6,-17 230.629,-11.4559 225.201,-7.03572"/>
<text text-anchor="middle" x="251.1" y="-21.8" font-family="Times,serif" font-size="14.00">b</text>
</g>
<!-- nd87&#45;&gt;nd92 -->
<g id="edge8" class="edge"><title>nd87:n&#45;&gt;nd92:w</title>
<path fill="none" stroke="black" d="M221.6,-55C221.6,-69.993 240.009,-58.5512 254.6,-62 264.881,-64.4301 267.036,-68 277.6,-68"/>
<text text-anchor="middle" x="251.1" y="-65.8" font-family="Times,serif" font-size="14.00">a</text>
</g>
<!-- nd93 -->
<g id="node13" class="node"><title>nd93</title>
<g id="a_node13"><a xlink:title="nd93&#45;ContractGraph">
<ellipse fill="black" stroke="black" cx="317.4" cy="-68" rx="1.8" ry="1.8"/>
</a>
</g>
</g>
<!-- nd92&#45;&gt;nd93 -->
<g id="edge11" class="edge"><title>nd92:e&#45;&gt;nd93:w</title>
<path fill="none" stroke="black" d="M283.6,-68C297.822,-68 301.378,-68 315.6,-68"/>
</g>
<!-- nd93&#45;&gt;nd111 -->
<g id="edge12" class="edge"><title>nd93:e&#45;&gt;nd111:w</title>
<path fill="none" stroke="black" d="M319.2,-68C329.422,-68 331.978,-68 342.2,-68"/>
<text text-anchor="middle" x="330.7" y="-71.8" font-family="Times,serif" font-size="14.00">x</text>
</g>
</g>
</svg>
