<?xml version="1.0" encoding="UTF-8" standalone="no"?>
<!DOCTYPE svg PUBLIC "-//W3C//DTD SVG 1.1//EN"
 "http://www.w3.org/Graphics/SVG/1.1/DTD/svg11.dtd">
<!-- Generated by graphviz version 2.38.0 (20140413.2041)
 -->
<!-- Title: G Pages: 1 -->
<svg width="254pt" height="170pt"
 viewBox="0.00 0.00 253.60 170.00" xmlns="http://www.w3.org/2000/svg" xmlns:xlink="http://www.w3.org/1999/xlink">
<g id="graph0" class="graph" transform="scale(1 1) rotate(0) translate(4 166)">
<title>G</title>
<polygon fill="white" stroke="none" points="-4,4 -4,-166 249.6,-166 249.6,4 -4,4"/>
<g id="clust1" class="cluster"><title>cluster_nd72</title>
<polygon fill="none" stroke="orange" points="217.8,-97 217.8,-117 237.4,-117 237.4,-97 217.8,-97"/>
</g>
<!-- nd1 -->
<g id="node1" class="node"><title>nd1</title>
<ellipse fill="black" stroke="black" cx="1.8" cy="-115" rx="1.8" ry="1.8"/>
</g>
<!-- nd42 -->
<g id="node5" class="node"><title>nd42</title>
<g id="a_node5"><a xlink:title="nd42&#45;BinOpGraph">
<ellipse fill="none" stroke="#000000" cx="38.6" cy="-115" rx="18" ry="18"/>
<text text-anchor="middle" x="38.6" y="-111.3" font-family="Times,serif" font-size="14.00">::</text>
</a>
</g>
</g>
<!-- nd1&#45;&gt;nd42 -->
<g id="edge7" class="edge"><title>nd1:e&#45;&gt;nd42:w</title>
<path fill="none" stroke="#b70000" d="M3.6,-115C11.1556,-115 13.0444,-115 20.6,-115"/>
</g>
<!-- nd68 -->
<g id="node2" class="node"><title>nd68</title>
<g id="a_node2"><a xlink:title="nd68&#45;RecurGraph">
<ellipse fill="none" stroke="#000000" cx="168.6" cy="-102" rx="11" ry="11"/>
<text text-anchor="middle" x="168.6" y="-98.3" font-family="Times,serif" font-size="14.00">rec</text>
</a>
</g>
</g>
<!-- ndcluster_nd72 -->
<g id="node3" class="node"><title>ndcluster_nd72</title>
<g id="a_node3"><a xlink:title="nd72">
<ellipse fill="orange" stroke="orange" cx="227.6" cy="-107" rx="1.8" ry="1.8"/>
</a>
</g>
</g>
<!-- nd68&#45;&gt;ndcluster_nd72 -->
<g id="edge9" class="edge"><title>nd68:n&#45;&gt;ndcluster_nd72:n</title>
<path fill="none" stroke="black" d="M168.6,-114C168.6,-120.571 227.6,-116.571 227.6,-110"/>
</g>
<!-- nd68&#45;&gt;ndcluster_nd72 -->
<g id="edge10" class="edge"><title>nd68:s&#45;&gt;ndcluster_nd72:w</title>
<path fill="none" stroke="black" d="M168.6,-90C168.6,-85.091 174.805,-89.9472 179.6,-91 200.333,-95.5522 203.373,-107 224.6,-107"/>
</g>
<!-- nd14 -->
<g id="node4" class="node"><title>nd14</title>
<g id="a_node4"><a xlink:title="nd14&#45;ConstGraph">
<path fill="none" stroke="#000000" d="M162.6,-162C162.6,-162 174.6,-162 174.6,-162 180.6,-162 186.6,-156 186.6,-150 186.6,-150 186.6,-138 186.6,-138 186.6,-132 180.6,-126 174.6,-126 174.6,-126 162.6,-126 162.6,-126 156.6,-126 150.6,-132 150.6,-138 150.6,-138 150.6,-150 150.6,-150 150.6,-156 156.6,-162 162.6,-162"/>
<text text-anchor="middle" x="168.6" y="-140.3" font-family="Times,serif" font-size="14.00">1000</text>
</a>
</g>
</g>
<!-- nd45 -->
<g id="node6" class="node"><title>nd45</title>
<g id="a_node6"><a xlink:title="nd45&#45;AppGraph">
<path fill="none" stroke="#000000" d="M86.0377,-96C86.0377,-96 79.8188,-90 79.8188,-90 76.7094,-87 76.7094,-81 79.8188,-78 79.8188,-78 86.0377,-72 86.0377,-72 89.1471,-69 96.5772,-66.0024 100.898,-66.0048 100.898,-66.0048 113.802,-66.012 113.802,-66.012 118.123,-66.0144 122.443,-70.3375 122.443,-74.6582 122.443,-74.6582 122.443,-93.3418 122.443,-93.3418 122.443,-97.6625 118.123,-101.986 113.802,-101.988 113.802,-101.988 100.898,-101.995 100.898,-101.995 96.5772,-101.998 89.1471,-99 86.0377,-96"/>
<text text-anchor="middle" x="100.6" y="-80.3" font-family="Times,serif" font-size="14.00">b@a</text>
</a>
</g>
</g>
<!-- nd42&#45;&gt;nd45 -->
<g id="edge4" class="edge"><title>nd42:s&#45;&gt;nd45:w</title>
<path fill="none" stroke="#b70000" d="M38.6,-96C38.6,-79.5556 57.1556,-84 73.6,-84"/>
</g>
<!-- nd59 -->
<g id="node9" class="node"><title>nd59</title>
<g id="a_node9"><a xlink:title="nd59&#45;ContractGraph">
<ellipse fill="black" stroke="black" cx="100.6" cy="-142" rx="1.8" ry="1.8"/>
</a>
</g>
</g>
<!-- nd42&#45;&gt;nd59 -->
<g id="edge6" class="edge"><title>nd42:n&#45;&gt;nd59:w</title>
<path fill="none" stroke="black" d="M38.6,-134C38.6,-160.462 71.1378,-142 97.6,-142"/>
</g>
<!-- nd45&#45;&gt;nd68 -->
<g id="edge2" class="edge"><title>nd45:n&#45;&gt;nd68:w</title>
<path fill="none" stroke="black" d="M100.6,-103C100.6,-127.893 131.707,-102 156.6,-102"/>
<text text-anchor="middle" x="139.1" y="-108.8" font-family="Times,serif" font-size="14.00">a</text>
</g>
<!-- nd49 -->
<g id="node7" class="node"><title>nd49</title>
<g id="a_node7"><a xlink:title="nd49&#45;BinOpGraph">
<ellipse fill="none" stroke="#000000" cx="168.6" cy="-49" rx="18" ry="18"/>
<text text-anchor="middle" x="168.6" y="-45.3" font-family="Times,serif" font-size="14.00">&#45;</text>
</a>
</g>
</g>
<!-- nd45&#45;&gt;nd49 -->
<g id="edge3" class="edge"><title>nd45:s&#45;&gt;nd49:w</title>
<path fill="none" stroke="red" d="M103.009,-55.1723C110.076,-44.066 131.46,-49 150.6,-49"/>
<polygon fill="red" stroke="red" points="99.5815,-54.4542 100.6,-65 106.38,-56.1208 99.5815,-54.4542"/>
<text text-anchor="middle" x="139.1" y="-52.8" font-family="Times,serif" font-size="14.00">b</text>
</g>
<!-- nd55 -->
<g id="node8" class="node"><title>nd55</title>
<g id="a_node8"><a xlink:title="nd55&#45;ConstGraph">
<path fill="none" stroke="#000000" d="M221.6,-36C221.6,-36 233.6,-36 233.6,-36 239.6,-36 245.6,-30 245.6,-24 245.6,-24 245.6,-12 245.6,-12 245.6,-6 239.6,-0 233.6,-0 233.6,-0 221.6,-0 221.6,-0 215.6,-0 209.6,-6 209.6,-12 209.6,-12 209.6,-24 209.6,-24 209.6,-30 215.6,-36 221.6,-36"/>
<text text-anchor="middle" x="227.6" y="-14.3" font-family="Times,serif" font-size="14.00">1</text>
</a>
</g>
</g>
<!-- nd49&#45;&gt;nd55 -->
<g id="edge1" class="edge"><title>nd49:s&#45;&gt;nd55:w</title>
<path fill="none" stroke="black" d="M168.6,-30C168.6,-11.0133 190.613,-18 209.6,-18"/>
</g>
<!-- nd107 -->
<g id="node10" class="node"><title>nd107</title>
<g id="a_node10"><a xlink:title="nd107&#45;ConstGraph">
<path fill="none" stroke="#000000" d="M221.6,-85C221.6,-85 233.6,-85 233.6,-85 239.6,-85 245.6,-79 245.6,-73 245.6,-73 245.6,-61 245.6,-61 245.6,-55 239.6,-49 233.6,-49 233.6,-49 221.6,-49 221.6,-49 215.6,-49 209.6,-55 209.6,-61 209.6,-61 209.6,-73 209.6,-73 209.6,-79 215.6,-85 221.6,-85"/>
<text text-anchor="middle" x="227.6" y="-63.3" font-family="Times,serif" font-size="14.00">1000</text>
</a>
</g>
</g>
<!-- nd49&#45;&gt;nd107 -->
<g id="edge5" class="edge"><title>nd49:n&#45;&gt;nd107:w</title>
<path fill="none" stroke="black" d="M168.6,-68C168.6,-86.2276 191.372,-67 209.6,-67"/>
<text text-anchor="middle" x="198.1" y="-73.8" font-family="Times,serif" font-size="14.00">x</text>
</g>
<!-- nd59&#45;&gt;nd14 -->
<g id="edge8" class="edge"><title>nd59:e&#45;&gt;nd14:w</title>
<path fill="none" stroke="black" d="M103.6,-142C124.508,-142 129.692,-144 150.6,-144"/>
<text text-anchor="middle" x="139.1" y="-146.8" font-family="Times,serif" font-size="14.00">x</text>
</g>
</g>
</svg>
