<?xml version="1.0" encoding="UTF-8" standalone="no"?>
<!DOCTYPE svg PUBLIC "-//W3C//DTD SVG 1.1//EN"
 "http://www.w3.org/Graphics/SVG/1.1/DTD/svg11.dtd">
<!-- Generated by graphviz version 2.38.0 (20140413.2041)
 -->
<!-- Title: G Pages: 1 -->
<svg width="431pt" height="202pt"
 viewBox="0.00 0.00 431.20 202.00" xmlns="http://www.w3.org/2000/svg" xmlns:xlink="http://www.w3.org/1999/xlink">
<g id="graph0" class="graph" transform="scale(1 1) rotate(0) translate(4 198)">
<title>G</title>
<polygon fill="white" stroke="none" points="-4,4 -4,-198 427.2,-198 427.2,4 -4,4"/>
<g id="clust1" class="cluster"><title>cluster_nd72</title>
<polygon fill="none" stroke="orange" points="315.8,-104 315.8,-124 335.4,-124 335.4,-104 315.8,-104"/>
</g>
<!-- nd1 -->
<g id="node1" class="node"><title>nd1</title>
<ellipse fill="black" stroke="black" cx="1.8" cy="-112" rx="1.8" ry="1.8"/>
</g>
<!-- nd27 -->
<g id="node5" class="node"><title>nd27</title>
<g id="a_node5"><a xlink:title="nd27&#45;IfGraph">
<ellipse fill="none" stroke="#000000" cx="38.6" cy="-112" rx="18" ry="18"/>
<text text-anchor="middle" x="38.6" y="-108.3" font-family="Times,serif" font-size="14.00">if</text>
</a>
</g>
</g>
<!-- nd1&#45;&gt;nd27 -->
<g id="edge13" class="edge"><title>nd1:e&#45;&gt;nd27:w</title>
<path fill="none" stroke="#b70000" d="M3.6,-112C11.1556,-112 13.0444,-112 20.6,-112"/>
</g>
<!-- nd68 -->
<g id="node2" class="node"><title>nd68</title>
<g id="a_node2"><a xlink:title="nd68&#45;RecurGraph">
<ellipse fill="none" stroke="#000000" cx="272.6" cy="-114" rx="11" ry="11"/>
<text text-anchor="middle" x="272.6" y="-110.3" font-family="Times,serif" font-size="14.00">rec</text>
</a>
</g>
</g>
<!-- ndcluster_nd72 -->
<g id="node3" class="node"><title>ndcluster_nd72</title>
<g id="a_node3"><a xlink:title="nd72">
<ellipse fill="orange" stroke="orange" cx="325.6" cy="-114" rx="1.8" ry="1.8"/>
</a>
</g>
</g>
<!-- nd68&#45;&gt;ndcluster_nd72 -->
<g id="edge15" class="edge"><title>nd68:n&#45;&gt;ndcluster_nd72:n</title>
<path fill="none" stroke="black" d="M272.6,-126C272.6,-149.893 325.6,-140.893 325.6,-117"/>
</g>
<!-- nd68&#45;&gt;ndcluster_nd72 -->
<g id="edge16" class="edge"><title>nd68:s&#45;&gt;ndcluster_nd72:w</title>
<path fill="none" stroke="black" d="M272.6,-102C272.6,-97.091 278.773,-102.108 283.6,-103 301.31,-106.274 304.59,-114 322.6,-114"/>
</g>
<!-- nd14 -->
<g id="node4" class="node"><title>nd14</title>
<g id="a_node4"><a xlink:title="nd14&#45;ConstGraph">
<path fill="none" stroke="#000000" d="M399.2,-168C399.2,-168 411.2,-168 411.2,-168 417.2,-168 423.2,-162 423.2,-156 423.2,-156 423.2,-144 423.2,-144 423.2,-138 417.2,-132 411.2,-132 411.2,-132 399.2,-132 399.2,-132 393.2,-132 387.2,-138 387.2,-144 387.2,-144 387.2,-156 387.2,-156 387.2,-162 393.2,-168 399.2,-168"/>
<text text-anchor="middle" x="405.2" y="-146.3" font-family="Times,serif" font-size="14.00">1000</text>
</a>
</g>
</g>
<!-- nd28 -->
<g id="node6" class="node"><title>nd28</title>
<g id="a_node6"><a xlink:title="nd28&#45;BinOpGraph">
<ellipse fill="none" stroke="#000000" cx="142.6" cy="-161" rx="18" ry="18"/>
<text text-anchor="middle" x="142.6" y="-157.3" font-family="Times,serif" font-size="14.00">a &lt;= b</text>
</a>
</g>
</g>
<!-- nd27&#45;&gt;nd28 -->
<g id="edge8" class="edge"><title>nd27:n&#45;&gt;nd28:w</title>
<path fill="none" stroke="red" d="M38.6,-131C38.6,-168.16 76.9573,-162.377 114.564,-161.178"/>
<polygon fill="red" stroke="red" points="114.664,-164.677 124.6,-161 114.54,-157.678 114.664,-164.677"/>
<text text-anchor="middle" x="90.6" y="-166.8" font-family="Times,serif" font-size="14.00">condition</text>
</g>
<!-- nd40 -->
<g id="node8" class="node"><title>nd40</title>
<g id="a_node8"><a xlink:title="nd40&#45;ConstListGraph">
<path fill="none" stroke="#000000" d="M136.6,-130C136.6,-130 148.6,-130 148.6,-130 154.6,-130 160.6,-124 160.6,-118 160.6,-118 160.6,-106 160.6,-106 160.6,-100 154.6,-94 148.6,-94 148.6,-94 136.6,-94 136.6,-94 130.6,-94 124.6,-100 124.6,-106 124.6,-106 124.6,-118 124.6,-118 124.6,-124 130.6,-130 136.6,-130"/>
<text text-anchor="middle" x="142.6" y="-108.3" font-family="Times,serif" font-size="14.00">[]</text>
</a>
</g>
</g>
<!-- nd27&#45;&gt;nd40 -->
<g id="edge9" class="edge"><title>nd27:e&#45;&gt;nd40:w</title>
<path fill="none" stroke="grey" d="M56.6,-112C86.8222,-112 94.3778,-112 124.6,-112"/>
<text text-anchor="middle" x="90.6" y="-115.8" font-family="Times,serif" font-size="14.00">is true</text>
</g>
<!-- nd42 -->
<g id="node9" class="node"><title>nd42</title>
<g id="a_node9"><a xlink:title="nd42&#45;BinOpGraph">
<ellipse fill="none" stroke="#000000" cx="142.6" cy="-63" rx="18" ry="18"/>
<text text-anchor="middle" x="142.6" y="-59.3" font-family="Times,serif" font-size="14.00">::</text>
</a>
</g>
</g>
<!-- nd27&#45;&gt;nd42 -->
<g id="edge10" class="edge"><title>nd27:s&#45;&gt;nd42:w</title>
<path fill="none" stroke="grey" d="M38.6,-93C38.6,-52.5189 84.1189,-63 124.6,-63"/>
<text text-anchor="middle" x="90.6" y="-66.8" font-family="Times,serif" font-size="14.00">is false</text>
</g>
<!-- nd34 -->
<g id="node7" class="node"><title>nd34</title>
<g id="a_node7"><a xlink:title="nd34&#45;ConstGraph">
<path fill="none" stroke="#000000" d="M204.6,-159C204.6,-159 216.6,-159 216.6,-159 222.6,-159 228.6,-153 228.6,-147 228.6,-147 228.6,-135 228.6,-135 228.6,-129 222.6,-123 216.6,-123 216.6,-123 204.6,-123 204.6,-123 198.6,-123 192.6,-129 192.6,-135 192.6,-135 192.6,-147 192.6,-147 192.6,-153 198.6,-159 204.6,-159"/>
<text text-anchor="middle" x="210.6" y="-137.3" font-family="Times,serif" font-size="14.00">0</text>
</a>
</g>
</g>
<!-- nd28&#45;&gt;nd34 -->
<g id="edge1" class="edge"><title>nd28:s&#45;&gt;nd34:w</title>
<path fill="none" stroke="black" d="M142.6,-142C142.6,-131.109 180.709,-141 191.6,-141"/>
<text text-anchor="middle" x="172.1" y="-142.8" font-family="Times,serif" font-size="14.00">b</text>
</g>
<!-- nd61 -->
<g id="node14" class="node"><title>nd61</title>
<g id="a_node14"><a xlink:title="nd61&#45;ContractGraph">
<ellipse fill="black" stroke="black" cx="362.4" cy="-150" rx="1.8" ry="1.8"/>
</a>
</g>
</g>
<!-- nd28&#45;&gt;nd61 -->
<g id="edge11" class="edge"><title>nd28:n&#45;&gt;nd61:w</title>
<path fill="none" stroke="black" d="M142.6,-180C142.6,-209.781 179.819,-179 209.6,-179 209.6,-179 209.6,-179 326.6,-179 346.461,-179 340.739,-150 360.6,-150"/>
<text text-anchor="middle" x="272.6" y="-182.8" font-family="Times,serif" font-size="14.00">a</text>
</g>
<!-- nd45 -->
<g id="node10" class="node"><title>nd45</title>
<g id="a_node10"><a xlink:title="nd45&#45;AppGraph">
<path fill="none" stroke="#000000" d="M196.038,-57C196.038,-57 189.819,-51 189.819,-51 186.709,-48 186.709,-42 189.819,-39 189.819,-39 196.038,-33 196.038,-33 199.147,-30 206.577,-27.0024 210.898,-27.0048 210.898,-27.0048 223.802,-27.012 223.802,-27.012 228.123,-27.0144 232.443,-31.3375 232.443,-35.6582 232.443,-35.6582 232.443,-54.3418 232.443,-54.3418 232.443,-58.6625 228.123,-62.9856 223.802,-62.988 223.802,-62.988 210.898,-62.9952 210.898,-62.9952 206.577,-62.9976 199.147,-60 196.038,-57"/>
<text text-anchor="middle" x="210.6" y="-41.3" font-family="Times,serif" font-size="14.00">@</text>
</a>
</g>
</g>
<!-- nd42&#45;&gt;nd45 -->
<g id="edge5" class="edge"><title>nd42:s&#45;&gt;nd45:w</title>
<path fill="none" stroke="black" d="M142.6,-44C142.6,-25.7724 165.372,-45 183.6,-45"/>
</g>
<!-- nd59 -->
<g id="node13" class="node"><title>nd59</title>
<g id="a_node13"><a xlink:title="nd59&#45;ContractGraph">
<ellipse fill="black" stroke="black" cx="325.6" cy="-83" rx="1.8" ry="1.8"/>
</a>
</g>
</g>
<!-- nd42&#45;&gt;nd59 -->
<g id="edge7" class="edge"><title>nd42:n&#45;&gt;nd59:w</title>
<path fill="none" stroke="black" d="M142.6,-82C142.6,-92.0002 312.6,-83 322.6,-83"/>
</g>
<!-- nd45&#45;&gt;nd68 -->
<g id="edge3" class="edge"><title>nd45:n&#45;&gt;nd68:w</title>
<path fill="none" stroke="black" d="M210.6,-64C210.6,-95.427 229.173,-114 260.6,-114"/>
</g>
<!-- nd49 -->
<g id="node11" class="node"><title>nd49</title>
<g id="a_node11"><a xlink:title="nd49&#45;BinOpGraph">
<ellipse fill="none" stroke="#000000" cx="272.6" cy="-36" rx="18" ry="18"/>
<text text-anchor="middle" x="272.6" y="-32.3" font-family="Times,serif" font-size="14.00">&#45;</text>
</a>
</g>
</g>
<!-- nd45&#45;&gt;nd49 -->
<g id="edge4" class="edge"><title>nd45:s&#45;&gt;nd49:w</title>
<path fill="none" stroke="black" d="M210.6,-26C210.6,-13.9918 226.001,-23.8902 237.6,-27 245.857,-29.214 246.051,-36 254.6,-36"/>
</g>
<!-- nd55 -->
<g id="node12" class="node"><title>nd55</title>
<g id="a_node12"><a xlink:title="nd55&#45;ConstGraph">
<path fill="none" stroke="#000000" d="M319.6,-36C319.6,-36 331.6,-36 331.6,-36 337.6,-36 343.6,-30 343.6,-24 343.6,-24 343.6,-12 343.6,-12 343.6,-6 337.6,-0 331.6,-0 331.6,-0 319.6,-0 319.6,-0 313.6,-0 307.6,-6 307.6,-12 307.6,-12 307.6,-24 307.6,-24 307.6,-30 313.6,-36 319.6,-36"/>
<text text-anchor="middle" x="325.6" y="-14.3" font-family="Times,serif" font-size="14.00">1</text>
</a>
</g>
</g>
<!-- nd49&#45;&gt;nd55 -->
<g id="edge2" class="edge"><title>nd49:s&#45;&gt;nd55:w</title>
<path fill="none" stroke="black" d="M272.6,-17C272.6,-1.4381 292.038,-18 307.6,-18"/>
</g>
<!-- nd49&#45;&gt;nd59 -->
<g id="edge6" class="edge"><title>nd49:n&#45;&gt;nd59:w</title>
<path fill="none" stroke="black" d="M272.6,-55C272.6,-61.3674 316.233,-83 322.6,-83"/>
</g>
<!-- nd59&#45;&gt;nd61 -->
<g id="edge12" class="edge"><title>nd59:e&#45;&gt;nd61:w</title>
<path fill="none" stroke="black" d="M328.6,-83C361.6,-83 327.6,-150 360.6,-150"/>
</g>
<!-- nd61&#45;&gt;nd14 -->
<g id="edge14" class="edge"><title>nd61:e&#45;&gt;nd14:w</title>
<path fill="none" stroke="black" d="M364.2,-150C374.422,-150 376.978,-150 387.2,-150"/>
<text text-anchor="middle" x="375.7" y="-153.8" font-family="Times,serif" font-size="14.00">x</text>
</g>
</g>
</svg>
