<?xml version="1.0" encoding="UTF-8" standalone="no"?>
<!DOCTYPE svg PUBLIC "-//W3C//DTD SVG 1.1//EN"
 "http://www.w3.org/Graphics/SVG/1.1/DTD/svg11.dtd">
<!-- Generated by graphviz version 2.38.0 (20140413.2041)
 -->
<!-- Title: G Pages: 1 -->
<svg width="386pt" height="150pt"
 viewBox="0.00 0.00 386.20 149.92" xmlns="http://www.w3.org/2000/svg" xmlns:xlink="http://www.w3.org/1999/xlink">
<g id="graph0" class="graph" transform="scale(1 1) rotate(0) translate(4 145.918)">
<title>G</title>
<polygon fill="white" stroke="none" points="-4,4 -4,-145.918 382.2,-145.918 382.2,4 -4,4"/>
<g id="clust1" class="cluster"><title>cluster_nd117</title>
<polygon fill="none" stroke="orange" points="270.8,-104 270.8,-124 290.4,-124 290.4,-104 270.8,-104"/>
</g>
<!-- nd1 -->
<g id="node1" class="node"><title>nd1</title>
<ellipse fill="black" stroke="black" cx="1.8" cy="-96" rx="1.8" ry="1.8"/>
</g>
<!-- nd42 -->
<g id="node3" class="node"><title>nd42</title>
<g id="a_node3"><a xlink:title="nd42&#45;BinOpGraph">
<ellipse fill="none" stroke="#000000" cx="38.6" cy="-96" rx="18" ry="18"/>
<text text-anchor="middle" x="38.6" y="-92.3" font-family="Times,serif" font-size="14.00">::</text>
</a>
</g>
</g>
<!-- nd1&#45;&gt;nd42 -->
<g id="edge2" class="edge"><title>nd1:e&#45;&gt;nd42:w</title>
<path fill="none" stroke="#b70000" d="M3.6,-96C11.1556,-96 13.0444,-96 20.6,-96"/>
</g>
<!-- nd14 -->
<g id="node2" class="node"><title>nd14</title>
<g id="a_node2"><a xlink:title="nd14&#45;ConstGraph">
<path fill="none" stroke="#000000" d="M153.6,-141C153.6,-141 165.6,-141 165.6,-141 171.6,-141 177.6,-135 177.6,-129 177.6,-129 177.6,-117 177.6,-117 177.6,-111 171.6,-105 165.6,-105 165.6,-105 153.6,-105 153.6,-105 147.6,-105 141.6,-111 141.6,-117 141.6,-117 141.6,-129 141.6,-129 141.6,-135 147.6,-141 153.6,-141"/>
<text text-anchor="middle" x="159.6" y="-119.3" font-family="Times,serif" font-size="14.00">1000</text>
</a>
</g>
</g>
<!-- nd59 -->
<g id="node4" class="node"><title>nd59</title>
<g id="a_node4"><a xlink:title="nd59&#45;ContractGraph">
<ellipse fill="black" stroke="black" cx="91.6" cy="-121" rx="1.8" ry="1.8"/>
</a>
</g>
</g>
<!-- nd42&#45;&gt;nd59 -->
<g id="edge1" class="edge"><title>nd42:n&#45;&gt;nd59:w</title>
<path fill="none" stroke="black" d="M38.6,-115C38.6,-137.382 66.2183,-121 88.6,-121"/>
</g>
<!-- nd84 -->
<g id="node8" class="node"><title>nd84</title>
<g id="a_node8"><a xlink:title="nd84&#45;BinOpGraph">
<ellipse fill="none" stroke="#000000" cx="91.6" cy="-67" rx="18" ry="18"/>
<text text-anchor="middle" x="91.6" y="-63.3" font-family="Times,serif" font-size="14.00">::</text>
</a>
</g>
</g>
<!-- nd42&#45;&gt;nd84 -->
<g id="edge10" class="edge"><title>nd42:s&#45;&gt;nd84:w</title>
<path fill="none" stroke="#b70000" d="M38.6,-77C38.6,-60.822 57.422,-67 73.6,-67"/>
</g>
<!-- nd59&#45;&gt;nd14 -->
<g id="edge3" class="edge"><title>nd59:e&#45;&gt;nd14:w</title>
<path fill="none" stroke="black" d="M94.6,-121C115.064,-121 120.136,-123 140.6,-123"/>
<text text-anchor="middle" x="121.1" y="-126.8" font-family="Times,serif" font-size="14.00">x</text>
</g>
<!-- nd111 -->
<g id="node5" class="node"><title>nd111</title>
<g id="a_node5"><a xlink:title="nd111&#45;ConstGraph">
<path fill="none" stroke="#000000" d="M354.2,-93C354.2,-93 366.2,-93 366.2,-93 372.2,-93 378.2,-87 378.2,-81 378.2,-81 378.2,-69 378.2,-69 378.2,-63 372.2,-57 366.2,-57 366.2,-57 354.2,-57 354.2,-57 348.2,-57 342.2,-63 342.2,-69 342.2,-69 342.2,-81 342.2,-81 342.2,-87 348.2,-93 354.2,-93"/>
<text text-anchor="middle" x="360.2" y="-71.3" font-family="Times,serif" font-size="14.00">999</text>
</a>
</g>
</g>
<!-- nd113 -->
<g id="node6" class="node"><title>nd113</title>
<g id="a_node6"><a xlink:title="nd113&#45;RecurGraph">
<ellipse fill="none" stroke="#000000" cx="227.6" cy="-116" rx="11" ry="11"/>
<text text-anchor="middle" x="227.6" y="-112.3" font-family="Times,serif" font-size="14.00">rec</text>
</a>
</g>
</g>
<!-- ndcluster_nd117 -->
<g id="node7" class="node"><title>ndcluster_nd117</title>
<g id="a_node7"><a xlink:title="nd117">
<ellipse fill="orange" stroke="orange" cx="280.6" cy="-114" rx="1.8" ry="1.8"/>
</a>
</g>
</g>
<!-- nd113&#45;&gt;ndcluster_nd117 -->
<g id="edge13" class="edge"><title>nd113:n&#45;&gt;ndcluster_nd117:n</title>
<path fill="none" stroke="black" d="M227.6,-128C227.6,-152.058 280.6,-141.058 280.6,-117"/>
</g>
<!-- nd113&#45;&gt;ndcluster_nd117 -->
<g id="edge14" class="edge"><title>nd113:s&#45;&gt;ndcluster_nd117:w</title>
<path fill="none" stroke="black" d="M227.6,-104C227.6,-99.091 233.753,-104.224 238.6,-105 256.165,-107.812 259.811,-114 277.6,-114"/>
</g>
<!-- nd85 -->
<g id="node9" class="node"><title>nd85</title>
<g id="a_node9"><a xlink:title="nd85&#45;AppGraph">
<path fill="none" stroke="#000000" d="M145.038,-55C145.038,-55 138.819,-49 138.819,-49 135.709,-46 135.709,-40 138.819,-37 138.819,-37 145.038,-31 145.038,-31 148.147,-28 155.577,-25.0024 159.898,-25.0048 159.898,-25.0048 172.802,-25.012 172.802,-25.012 177.123,-25.0144 181.443,-29.3375 181.443,-33.6582 181.443,-33.6582 181.443,-52.3418 181.443,-52.3418 181.443,-56.6625 177.123,-60.9856 172.802,-60.988 172.802,-60.988 159.898,-60.9952 159.898,-60.9952 155.577,-60.9976 148.147,-58 145.038,-55"/>
<text text-anchor="middle" x="159.6" y="-39.3" font-family="Times,serif" font-size="14.00">b@a</text>
</a>
</g>
</g>
<!-- nd84&#45;&gt;nd85 -->
<g id="edge7" class="edge"><title>nd84:s&#45;&gt;nd85:w</title>
<path fill="none" stroke="red" d="M91.6,-48C91.6,-32.9413 106.837,-39.2237 122.445,-41.9677"/>
<polygon fill="red" stroke="red" points="122.297,-45.4706 132.6,-43 123.005,-38.5065 122.297,-45.4706"/>
</g>
<!-- nd92 -->
<g id="node12" class="node"><title>nd92</title>
<g id="a_node12"><a xlink:title="nd92&#45;ContractGraph">
<ellipse fill="black" stroke="black" cx="280.6" cy="-75" rx="1.8" ry="1.8"/>
</a>
</g>
</g>
<!-- nd84&#45;&gt;nd92 -->
<g id="edge9" class="edge"><title>nd84:n&#45;&gt;nd92:w</title>
<path fill="none" stroke="black" d="M91.6,-86C91.6,-106.703 256.897,-75 277.6,-75"/>
</g>
<!-- nd85&#45;&gt;nd113 -->
<g id="edge5" class="edge"><title>nd85:n&#45;&gt;nd113:w</title>
<path fill="none" stroke="black" d="M159.6,-62C159.6,-70.6438 206.956,-116 215.6,-116"/>
<text text-anchor="middle" x="198.1" y="-111.8" font-family="Times,serif" font-size="14.00">a</text>
</g>
<!-- nd87 -->
<g id="node10" class="node"><title>nd87</title>
<g id="a_node10"><a xlink:title="nd87&#45;BinOpGraph">
<ellipse fill="none" stroke="#000000" cx="227.6" cy="-36" rx="18" ry="18"/>
<text text-anchor="middle" x="227.6" y="-32.3" font-family="Times,serif" font-size="14.00">&#45;</text>
</a>
</g>
</g>
<!-- nd85&#45;&gt;nd87 -->
<g id="edge6" class="edge"><title>nd85:s&#45;&gt;nd87:w</title>
<path fill="none" stroke="black" d="M159.6,-24C159.6,-5.28577 185.073,-18.2198 201.6,-27 206.326,-29.5109 204.248,-36 209.6,-36"/>
<text text-anchor="middle" x="198.1" y="-31.8" font-family="Times,serif" font-size="14.00">b</text>
</g>
<!-- nd91 -->
<g id="node11" class="node"><title>nd91</title>
<g id="a_node11"><a xlink:title="nd91&#45;ConstGraph">
<path fill="none" stroke="#000000" d="M274.6,-36C274.6,-36 286.6,-36 286.6,-36 292.6,-36 298.6,-30 298.6,-24 298.6,-24 298.6,-12 298.6,-12 298.6,-6 292.6,-0 286.6,-0 286.6,-0 274.6,-0 274.6,-0 268.6,-0 262.6,-6 262.6,-12 262.6,-12 262.6,-24 262.6,-24 262.6,-30 268.6,-36 274.6,-36"/>
<text text-anchor="middle" x="280.6" y="-14.3" font-family="Times,serif" font-size="14.00">1</text>
</a>
</g>
</g>
<!-- nd87&#45;&gt;nd91 -->
<g id="edge4" class="edge"><title>nd87:s&#45;&gt;nd91:w</title>
<path fill="none" stroke="black" d="M227.6,-17C227.6,-1.4381 247.038,-18 262.6,-18"/>
</g>
<!-- nd87&#45;&gt;nd92 -->
<g id="edge8" class="edge"><title>nd87:n&#45;&gt;nd92:w</title>
<path fill="none" stroke="black" d="M227.6,-55C227.6,-78.9341 253.666,-75 277.6,-75"/>
</g>
<!-- nd93 -->
<g id="node13" class="node"><title>nd93</title>
<g id="a_node13"><a xlink:title="nd93&#45;ContractGraph">
<ellipse fill="black" stroke="black" cx="317.4" cy="-75" rx="1.8" ry="1.8"/>
</a>
</g>
</g>
<!-- nd92&#45;&gt;nd93 -->
<g id="edge11" class="edge"><title>nd92:e&#45;&gt;nd93:w</title>
<path fill="none" stroke="black" d="M283.6,-75C297.822,-75 301.378,-75 315.6,-75"/>
</g>
<!-- nd93&#45;&gt;nd111 -->
<g id="edge12" class="edge"><title>nd93:e&#45;&gt;nd111:w</title>
<path fill="none" stroke="black" d="M319.2,-75C329.422,-75 331.978,-75 342.2,-75"/>
<text text-anchor="middle" x="330.7" y="-78.8" font-family="Times,serif" font-size="14.00">x</text>
</g>
</g>
</svg>
