<?xml version="1.0" encoding="UTF-8" standalone="no"?>
<!DOCTYPE svg PUBLIC "-//W3C//DTD SVG 1.1//EN"
 "http://www.w3.org/Graphics/SVG/1.1/DTD/svg11.dtd">
<!-- Generated by graphviz version 2.38.0 (20140413.2041)
 -->
<!-- Title: G Pages: 1 -->
<svg width="337pt" height="144pt"
 viewBox="0.00 0.00 337.20 144.00" xmlns="http://www.w3.org/2000/svg" xmlns:xlink="http://www.w3.org/1999/xlink">
<g id="graph0" class="graph" transform="scale(1 1) rotate(0) translate(4 140)">
<title>G</title>
<polygon fill="white" stroke="none" points="-4,4 -4,-140 333.2,-140 333.2,4 -4,4"/>
<g id="clust1" class="cluster"><title>cluster_nd117</title>
<polygon fill="none" stroke="orange" points="217.8,-44 217.8,-64 237.4,-64 237.4,-44 217.8,-44"/>
</g>
<g id="clust2" class="cluster"><title>cluster_nd162</title>
<polygon fill="none" stroke="orange" points="301.6,-40 301.6,-60 321.2,-60 321.2,-40 301.6,-40"/>
</g>
<!-- nd1 -->
<g id="node1" class="node"><title>nd1</title>
<ellipse fill="black" stroke="black" cx="1.8" cy="-93" rx="1.8" ry="1.8"/>
</g>
<!-- nd42 -->
<g id="node3" class="node"><title>nd42</title>
<g id="a_node3"><a xlink:title="nd42&#45;BinOpGraph">
<ellipse fill="none" stroke="#000000" cx="38.6" cy="-93" rx="18" ry="18"/>
<text text-anchor="middle" x="38.6" y="-89.3" font-family="Times,serif" font-size="14.00">::</text>
</a>
</g>
</g>
<!-- nd1&#45;&gt;nd42 -->
<g id="edge2" class="edge"><title>nd1:e&#45;&gt;nd42:w</title>
<path fill="none" stroke="#b70000" d="M3.6,-93C11.1556,-93 13.0444,-93 20.6,-93"/>
</g>
<!-- nd14 -->
<g id="node2" class="node"><title>nd14</title>
<g id="a_node2"><a xlink:title="nd14&#45;ConstGraph">
<path fill="none" stroke="#000000" d="M153.6,-136C153.6,-136 165.6,-136 165.6,-136 171.6,-136 177.6,-130 177.6,-124 177.6,-124 177.6,-112 177.6,-112 177.6,-106 171.6,-100 165.6,-100 165.6,-100 153.6,-100 153.6,-100 147.6,-100 141.6,-106 141.6,-112 141.6,-112 141.6,-124 141.6,-124 141.6,-130 147.6,-136 153.6,-136"/>
<text text-anchor="middle" x="159.6" y="-114.3" font-family="Times,serif" font-size="14.00">1000</text>
</a>
</g>
</g>
<!-- nd59 -->
<g id="node4" class="node"><title>nd59</title>
<g id="a_node4"><a xlink:title="nd59&#45;ContractGraph">
<ellipse fill="black" stroke="black" cx="91.6" cy="-117" rx="1.8" ry="1.8"/>
</a>
</g>
</g>
<!-- nd42&#45;&gt;nd59 -->
<g id="edge1" class="edge"><title>nd42:n&#45;&gt;nd59:w</title>
<path fill="none" stroke="black" d="M38.6,-112C38.6,-134.333 66.2669,-117 88.6,-117"/>
</g>
<!-- nd84 -->
<g id="node6" class="node"><title>nd84</title>
<g id="a_node6"><a xlink:title="nd84&#45;BinOpGraph">
<ellipse fill="none" stroke="#000000" cx="91.6" cy="-67" rx="18" ry="18"/>
<text text-anchor="middle" x="91.6" y="-63.3" font-family="Times,serif" font-size="14.00">::</text>
</a>
</g>
</g>
<!-- nd42&#45;&gt;nd84 -->
<g id="edge8" class="edge"><title>nd42:s&#45;&gt;nd84:w</title>
<path fill="none" stroke="#b70000" d="M38.6,-74C38.6,-58.1364 57.7364,-67 73.6,-67"/>
</g>
<!-- nd59&#45;&gt;nd14 -->
<g id="edge3" class="edge"><title>nd59:e&#45;&gt;nd14:w</title>
<path fill="none" stroke="black" d="M94.6,-117C115.049,-117 120.151,-118 140.6,-118"/>
<text text-anchor="middle" x="121.1" y="-120.8" font-family="Times,serif" font-size="14.00">x</text>
</g>
<!-- nd111 -->
<g id="node5" class="node"><title>nd111</title>
<g id="a_node5"><a xlink:title="nd111&#45;ConstGraph">
<path fill="none" stroke="#000000" d="M221.6,-108C221.6,-108 233.6,-108 233.6,-108 239.6,-108 245.6,-102 245.6,-96 245.6,-96 245.6,-84 245.6,-84 245.6,-78 239.6,-72 233.6,-72 233.6,-72 221.6,-72 221.6,-72 215.6,-72 209.6,-78 209.6,-84 209.6,-84 209.6,-96 209.6,-96 209.6,-102 215.6,-108 221.6,-108"/>
<text text-anchor="middle" x="227.6" y="-86.3" font-family="Times,serif" font-size="14.00">999</text>
</a>
</g>
</g>
<!-- nd85 -->
<g id="node7" class="node"><title>nd85</title>
<g id="a_node7"><a xlink:title="nd85&#45;AppGraph">
<path fill="none" stroke="#000000" d="M145.038,-48C145.038,-48 138.819,-42 138.819,-42 135.709,-39 135.709,-33 138.819,-30 138.819,-30 145.038,-24 145.038,-24 148.147,-21 155.577,-18.0024 159.898,-18.0048 159.898,-18.0048 172.802,-18.012 172.802,-18.012 177.123,-18.0144 181.443,-22.3375 181.443,-26.6582 181.443,-26.6582 181.443,-45.3418 181.443,-45.3418 181.443,-49.6625 177.123,-53.9856 172.802,-53.988 172.802,-53.988 159.898,-53.9952 159.898,-53.9952 155.577,-53.9976 148.147,-51 145.038,-48"/>
<text text-anchor="middle" x="159.6" y="-32.3" font-family="Times,serif" font-size="14.00">@</text>
</a>
</g>
</g>
<!-- nd84&#45;&gt;nd85 -->
<g id="edge6" class="edge"><title>nd84:s&#45;&gt;nd85:w</title>
<path fill="none" stroke="#b70000" d="M91.6,-48C91.6,-29.0133 113.613,-36 132.6,-36"/>
</g>
<!-- nd92 -->
<g id="node8" class="node"><title>nd92</title>
<g id="a_node8"><a xlink:title="nd92&#45;ContractGraph">
<ellipse fill="black" stroke="black" cx="159.6" cy="-85" rx="1.8" ry="1.8"/>
</a>
</g>
</g>
<!-- nd84&#45;&gt;nd92 -->
<g id="edge7" class="edge"><title>nd84:n&#45;&gt;nd92:w</title>
<path fill="none" stroke="black" d="M91.6,-86C91.6,-114.892 127.708,-85 156.6,-85"/>
</g>
<!-- nd156 -->
<g id="node9" class="node"><title>nd156</title>
<g id="a_node9"><a xlink:title="nd156&#45;ConstGraph">
<path fill="none" stroke="#000000" d="M221.6,-36C221.6,-36 233.6,-36 233.6,-36 239.6,-36 245.6,-30 245.6,-24 245.6,-24 245.6,-12 245.6,-12 245.6,-6 239.6,-0 233.6,-0 233.6,-0 221.6,-0 221.6,-0 215.6,-0 209.6,-6 209.6,-12 209.6,-12 209.6,-24 209.6,-24 209.6,-30 215.6,-36 221.6,-36"/>
<text text-anchor="middle" x="227.6" y="-14.3" font-family="Times,serif" font-size="14.00">998</text>
</a>
</g>
</g>
<!-- nd85&#45;&gt;nd156 -->
<g id="edge5" class="edge"><title>nd85:s&#45;&gt;nd156:w</title>
<path fill="none" stroke="black" d="M159.6,-17C159.6,5.22667 187.373,-18 209.6,-18"/>
</g>
<!-- ndcluster_nd117 -->
<g id="node10" class="node"><title>ndcluster_nd117</title>
<g id="a_node10"><a xlink:title="nd117">
<ellipse fill="orange" stroke="orange" cx="227.6" cy="-54" rx="1.8" ry="1.8"/>
</a>
</g>
</g>
<!-- nd85&#45;&gt;ndcluster_nd117 -->
<g id="edge4" class="edge"><title>nd85:n&#45;&gt;ndcluster_nd117:w</title>
<path fill="none" stroke="red" d="M159.6,-55C159.6,-80.6194 187.99,-60.0181 214.566,-55.0219"/>
<polygon fill="red" stroke="red" points="215.006,-58.4953 224.6,-54 214.297,-51.5313 215.006,-58.4953"/>
</g>
<!-- nd92&#45;&gt;nd111 -->
<g id="edge9" class="edge"><title>nd92:e&#45;&gt;nd111:w</title>
<path fill="none" stroke="black" d="M162.6,-85C183.607,-85 188.593,-90 209.6,-90"/>
<text text-anchor="middle" x="198.1" y="-92.8" font-family="Times,serif" font-size="14.00">x</text>
</g>
<!-- nd158 -->
<g id="node11" class="node"><title>nd158</title>
<g id="a_node11"><a xlink:title="nd158&#45;RecurGraph">
<ellipse fill="none" stroke="#000000" cx="273.6" cy="-56" rx="11" ry="11"/>
<text text-anchor="middle" x="273.6" y="-52.3" font-family="Times,serif" font-size="14.00">rec</text>
</a>
</g>
</g>
<!-- ndcluster_nd117&#45;&gt;nd158 -->
<g id="edge10" class="edge"><title>ndcluster_nd117:n&#45;&gt;nd158:w</title>
<path fill="none" stroke="black" d="M227.6,-57C227.6,-72.5619 247.038,-56 262.6,-56"/>
</g>
<!-- ndcluster_nd162 -->
<g id="node12" class="node"><title>ndcluster_nd162</title>
<g id="a_node12"><a xlink:title="nd162">
<ellipse fill="orange" stroke="orange" cx="311.4" cy="-50" rx="1.8" ry="1.8"/>
</a>
</g>
</g>
<!-- nd158&#45;&gt;ndcluster_nd162 -->
<g id="edge11" class="edge"><title>nd158:n&#45;&gt;ndcluster_nd162:n</title>
<path fill="none" stroke="black" d="M273.6,-68C273.6,-86.0744 311.4,-71.0744 311.4,-53"/>
</g>
<!-- nd158&#45;&gt;ndcluster_nd162 -->
<g id="edge12" class="edge"><title>nd158:s&#45;&gt;ndcluster_nd162:w</title>
<path fill="none" stroke="black" d="M273.6,-44C273.6,-39.091 279.745,-44.2719 284.6,-45 295.289,-46.6031 297.591,-50 308.4,-50"/>
</g>
</g>
</svg>
