<?xml version="1.0" encoding="UTF-8" standalone="no"?>
<!DOCTYPE svg PUBLIC "-//W3C//DTD SVG 1.1//EN"
 "http://www.w3.org/Graphics/SVG/1.1/DTD/svg11.dtd">
<!-- Generated by graphviz version 2.38.0 (20140413.2041)
 -->
<!-- Title: G Pages: 1 -->
<svg width="549pt" height="258pt"
 viewBox="0.00 0.00 549.20 258.00" xmlns="http://www.w3.org/2000/svg" xmlns:xlink="http://www.w3.org/1999/xlink">
<g id="graph0" class="graph" transform="scale(1 1) rotate(0) translate(4 254)">
<title>G</title>
<polygon fill="white" stroke="none" points="-4,4 -4,-254 545.2,-254 545.2,4 -4,4"/>
<g id="clust1" class="cluster"><title>cluster_nd117</title>
<polygon fill="none" stroke="orange" points="492.8,-61 492.8,-81 512.4,-81 512.4,-61 492.8,-61"/>
</g>
<!-- nd1 -->
<g id="node1" class="node"><title>nd1</title>
<ellipse fill="black" stroke="black" cx="1.8" cy="-200" rx="1.8" ry="1.8"/>
</g>
<!-- nd42 -->
<g id="node3" class="node"><title>nd42</title>
<g id="a_node3"><a xlink:title="nd42&#45;BinOpGraph">
<ellipse fill="none" stroke="#000000" cx="38.6" cy="-200" rx="18" ry="18"/>
<text text-anchor="middle" x="38.6" y="-196.3" font-family="Times,serif" font-size="14.00">::</text>
</a>
</g>
</g>
<!-- nd1&#45;&gt;nd42 -->
<g id="edge5" class="edge"><title>nd1:e&#45;&gt;nd42:w</title>
<path fill="none" stroke="#b70000" d="M3.6,-200C11.1556,-200 13.0444,-200 20.6,-200"/>
</g>
<!-- nd14 -->
<g id="node2" class="node"><title>nd14</title>
<g id="a_node2"><a xlink:title="nd14&#45;ConstGraph">
<path fill="none" stroke="#000000" d="M162.6,-250C162.6,-250 174.6,-250 174.6,-250 180.6,-250 186.6,-244 186.6,-238 186.6,-238 186.6,-226 186.6,-226 186.6,-220 180.6,-214 174.6,-214 174.6,-214 162.6,-214 162.6,-214 156.6,-214 150.6,-220 150.6,-226 150.6,-226 150.6,-238 150.6,-238 150.6,-244 156.6,-250 162.6,-250"/>
<text text-anchor="middle" x="168.6" y="-228.3" font-family="Times,serif" font-size="14.00">1000</text>
</a>
</g>
</g>
<!-- nd45 -->
<g id="node4" class="node"><title>nd45</title>
<g id="a_node4"><a xlink:title="nd45&#45;AppGraph">
<path fill="none" stroke="#000000" d="M86.0377,-177C86.0377,-177 79.8188,-171 79.8188,-171 76.7094,-168 76.7094,-162 79.8188,-159 79.8188,-159 86.0377,-153 86.0377,-153 89.1471,-150 96.5772,-147.002 100.898,-147.005 100.898,-147.005 113.802,-147.012 113.802,-147.012 118.123,-147.014 122.443,-151.338 122.443,-155.658 122.443,-155.658 122.443,-174.342 122.443,-174.342 122.443,-178.662 118.123,-182.986 113.802,-182.988 113.802,-182.988 100.898,-182.995 100.898,-182.995 96.5772,-182.998 89.1471,-180 86.0377,-177"/>
<text text-anchor="middle" x="100.6" y="-161.3" font-family="Times,serif" font-size="14.00">@</text>
</a>
</g>
</g>
<!-- nd42&#45;&gt;nd45 -->
<g id="edge3" class="edge"><title>nd42:s&#45;&gt;nd45:w</title>
<path fill="none" stroke="#b70000" d="M38.6,-181C38.6,-163.896 56.4961,-165 73.6,-165"/>
</g>
<!-- nd59 -->
<g id="node5" class="node"><title>nd59</title>
<g id="a_node5"><a xlink:title="nd59&#45;ContractGraph">
<ellipse fill="black" stroke="black" cx="100.6" cy="-230" rx="1.8" ry="1.8"/>
</a>
</g>
</g>
<!-- nd42&#45;&gt;nd59 -->
<g id="edge4" class="edge"><title>nd42:n&#45;&gt;nd59:w</title>
<path fill="none" stroke="black" d="M38.6,-219C38.6,-245.674 70.9259,-230 97.6,-230"/>
</g>
<!-- nd111 -->
<g id="node6" class="node"><title>nd111</title>
<g id="a_node6"><a xlink:title="nd111&#45;ConstGraph">
<path fill="none" stroke="#000000" d="M162.6,-152C162.6,-152 174.6,-152 174.6,-152 180.6,-152 186.6,-146 186.6,-140 186.6,-140 186.6,-128 186.6,-128 186.6,-122 180.6,-116 174.6,-116 174.6,-116 162.6,-116 162.6,-116 156.6,-116 150.6,-122 150.6,-128 150.6,-128 150.6,-140 150.6,-140 150.6,-146 156.6,-152 162.6,-152"/>
<text text-anchor="middle" x="168.6" y="-130.3" font-family="Times,serif" font-size="14.00">999</text>
</a>
</g>
</g>
<!-- nd45&#45;&gt;nd111 -->
<g id="edge2" class="edge"><title>nd45:s&#45;&gt;nd111:w</title>
<path fill="none" stroke="black" d="M100.6,-146C100.6,-123.147 127.747,-134 150.6,-134"/>
</g>
<!-- nd73 -->
<g id="node9" class="node"><title>nd73</title>
<g id="a_node9"><a xlink:title="nd73&#45;AbsGraph">
<ellipse fill="none" stroke="#000000" cx="168.6" cy="-183" rx="18" ry="18"/>
<text text-anchor="middle" x="168.6" y="-179.3" font-family="Times,serif" font-size="14.00">λ</text>
</a>
</g>
</g>
<!-- nd45&#45;&gt;nd73 -->
<g id="edge1" class="edge"><title>nd45:n&#45;&gt;nd73:w</title>
<path fill="none" stroke="red" d="M100.6,-184C100.6,-202.927 120.74,-188.894 140.445,-184.311"/>
<polygon fill="red" stroke="red" points="141.13,-187.751 150.6,-183 140.234,-180.809 141.13,-187.751"/>
</g>
<!-- nd59&#45;&gt;nd14 -->
<g id="edge6" class="edge"><title>nd59:e&#45;&gt;nd14:w</title>
<path fill="none" stroke="black" d="M103.6,-230C124.508,-230 129.692,-232 150.6,-232"/>
<text text-anchor="middle" x="139.1" y="-234.8" font-family="Times,serif" font-size="14.00">x</text>
</g>
<!-- nd113 -->
<g id="node7" class="node"><title>nd113</title>
<g id="a_node7"><a xlink:title="nd113&#45;RecurGraph">
<ellipse fill="none" stroke="#000000" cx="449.6" cy="-78" rx="11" ry="11"/>
<text text-anchor="middle" x="449.6" y="-74.3" font-family="Times,serif" font-size="14.00">rec</text>
</a>
</g>
</g>
<!-- ndcluster_nd117 -->
<g id="node8" class="node"><title>ndcluster_nd117</title>
<g id="a_node8"><a xlink:title="nd117">
<ellipse fill="orange" stroke="orange" cx="502.6" cy="-71" rx="1.8" ry="1.8"/>
</a>
</g>
</g>
<!-- nd113&#45;&gt;ndcluster_nd117 -->
<g id="edge21" class="edge"><title>nd113:n&#45;&gt;ndcluster_nd117:n</title>
<path fill="none" stroke="black" d="M449.6,-90C449.6,-102.303 502.6,-86.3028 502.6,-74"/>
</g>
<!-- nd113&#45;&gt;ndcluster_nd117 -->
<g id="edge22" class="edge"><title>nd113:s&#45;&gt;ndcluster_nd117:w</title>
<path fill="none" stroke="black" d="M449.6,-66C449.6,-54.8335 488.433,-71 499.6,-71"/>
</g>
<!-- nd74 -->
<g id="node10" class="node"><title>nd74</title>
<g id="a_node10"><a xlink:title="nd74&#45;IfGraph">
<ellipse fill="none" stroke="#000000" cx="221.6" cy="-135" rx="18" ry="18"/>
<text text-anchor="middle" x="221.6" y="-131.3" font-family="Times,serif" font-size="14.00">if</text>
</a>
</g>
</g>
<!-- nd73&#45;&gt;nd74 -->
<g id="edge19" class="edge"><title>nd73:s&#45;&gt;nd74:w</title>
<path fill="none" stroke="black" d="M168.6,-164C168.6,-155.697 179.808,-163.775 186.6,-159 197.294,-151.483 190.528,-135 203.6,-135"/>
</g>
<!-- nd93 -->
<g id="node19" class="node"><title>nd93</title>
<g id="a_node19"><a xlink:title="nd93&#45;ContractGraph">
<ellipse fill="black" stroke="black" cx="539.4" cy="-187" rx="1.8" ry="1.8"/>
</a>
</g>
</g>
<!-- nd73&#45;&gt;nd93 -->
<g id="edge20" class="edge"><title>nd73:n&#45;&gt;nd93:ne</title>
<path fill="none" stroke="grey" d="M168.6,-202C168.6,-210.433 178.624,-205.263 186.6,-208 201.757,-213.201 204.575,-220 220.6,-220 220.6,-220 220.6,-220 503.6,-220 514.27,-220 546.945,-195.545 539.4,-188"/>
<text text-anchor="middle" x="387.6" y="-223.8" font-family="Times,serif" font-size="14.00">x</text>
</g>
<!-- nd75 -->
<g id="node11" class="node"><title>nd75</title>
<g id="a_node11"><a xlink:title="nd75&#45;BinOpGraph">
<ellipse fill="none" stroke="#000000" cx="325.6" cy="-172" rx="18" ry="18"/>
<text text-anchor="middle" x="325.6" y="-168.3" font-family="Times,serif" font-size="14.00">&lt;=</text>
</a>
</g>
</g>
<!-- nd74&#45;&gt;nd75 -->
<g id="edge14" class="edge"><title>nd74:n&#45;&gt;nd75:w</title>
<path fill="none" stroke="black" d="M221.6,-154C221.6,-193.05 268.55,-172 307.6,-172"/>
<text text-anchor="middle" x="273.6" y="-180.8" font-family="Times,serif" font-size="14.00">condition</text>
</g>
<!-- nd83 -->
<g id="node13" class="node"><title>nd83</title>
<g id="a_node13"><a xlink:title="nd83&#45;ConstListGraph">
<path fill="none" stroke="#000000" d="M319.6,-141C319.6,-141 331.6,-141 331.6,-141 337.6,-141 343.6,-135 343.6,-129 343.6,-129 343.6,-117 343.6,-117 343.6,-111 337.6,-105 331.6,-105 331.6,-105 319.6,-105 319.6,-105 313.6,-105 307.6,-111 307.6,-117 307.6,-117 307.6,-129 307.6,-129 307.6,-135 313.6,-141 319.6,-141"/>
<text text-anchor="middle" x="325.6" y="-119.3" font-family="Times,serif" font-size="14.00">[]</text>
</a>
</g>
</g>
<!-- nd74&#45;&gt;nd83 -->
<g id="edge15" class="edge"><title>nd74:e&#45;&gt;nd83:w</title>
<path fill="none" stroke="grey" d="M239.6,-135C243.265,-135 244.012,-133.746 247.6,-133 274.068,-127.495 280.565,-123 307.6,-123"/>
<text text-anchor="middle" x="273.6" y="-136.8" font-family="Times,serif" font-size="14.00">is true</text>
</g>
<!-- nd84 -->
<g id="node14" class="node"><title>nd84</title>
<g id="a_node14"><a xlink:title="nd84&#45;BinOpGraph">
<ellipse fill="none" stroke="#000000" cx="325.6" cy="-74" rx="18" ry="18"/>
<text text-anchor="middle" x="325.6" y="-70.3" font-family="Times,serif" font-size="14.00">::</text>
</a>
</g>
</g>
<!-- nd74&#45;&gt;nd84 -->
<g id="edge16" class="edge"><title>nd74:s&#45;&gt;nd84:w</title>
<path fill="none" stroke="grey" d="M221.6,-116C221.6,-73.4632 265.063,-74 307.6,-74"/>
<text text-anchor="middle" x="273.6" y="-83.8" font-family="Times,serif" font-size="14.00">is false</text>
</g>
<!-- nd79 -->
<g id="node12" class="node"><title>nd79</title>
<g id="a_node12"><a xlink:title="nd79&#45;ConstGraph">
<path fill="none" stroke="#000000" d="M381.6,-167C381.6,-167 393.6,-167 393.6,-167 399.6,-167 405.6,-161 405.6,-155 405.6,-155 405.6,-143 405.6,-143 405.6,-137 399.6,-131 393.6,-131 393.6,-131 381.6,-131 381.6,-131 375.6,-131 369.6,-137 369.6,-143 369.6,-143 369.6,-155 369.6,-155 369.6,-161 375.6,-167 381.6,-167"/>
<text text-anchor="middle" x="387.6" y="-145.3" font-family="Times,serif" font-size="14.00">0</text>
</a>
</g>
</g>
<!-- nd75&#45;&gt;nd79 -->
<g id="edge7" class="edge"><title>nd75:s&#45;&gt;nd79:w</title>
<path fill="none" stroke="black" d="M325.6,-153C325.6,-148.202 363.802,-149 368.6,-149"/>
</g>
<!-- nd75&#45;&gt;nd93 -->
<g id="edge17" class="edge"><title>nd75:n&#45;&gt;nd93:w</title>
<path fill="none" stroke="black" d="M325.6,-191C325.6,-218.169 359.431,-187 386.6,-187 386.6,-187 386.6,-187 503.6,-187 518.711,-187 522.489,-187 537.6,-187"/>
</g>
<!-- nd85 -->
<g id="node15" class="node"><title>nd85</title>
<g id="a_node15"><a xlink:title="nd85&#45;AppGraph">
<path fill="none" stroke="#000000" d="M373.038,-68C373.038,-68 366.819,-62 366.819,-62 363.709,-59 363.709,-53 366.819,-50 366.819,-50 373.038,-44 373.038,-44 376.147,-41 383.577,-38.0024 387.898,-38.0048 387.898,-38.0048 400.802,-38.012 400.802,-38.012 405.123,-38.0144 409.443,-42.3375 409.443,-46.6582 409.443,-46.6582 409.443,-65.3418 409.443,-65.3418 409.443,-69.6625 405.123,-73.9856 400.802,-73.988 400.802,-73.988 387.898,-73.9952 387.898,-73.9952 383.577,-73.9976 376.147,-71 373.038,-68"/>
<text text-anchor="middle" x="387.6" y="-52.3" font-family="Times,serif" font-size="14.00">@</text>
</a>
</g>
</g>
<!-- nd84&#45;&gt;nd85 -->
<g id="edge11" class="edge"><title>nd84:s&#45;&gt;nd85:w</title>
<path fill="none" stroke="black" d="M325.6,-55C325.6,-39.4381 345.038,-56 360.6,-56"/>
</g>
<!-- nd92 -->
<g id="node18" class="node"><title>nd92</title>
<g id="a_node18"><a xlink:title="nd92&#45;ContractGraph">
<ellipse fill="black" stroke="black" cx="502.6" cy="-109" rx="1.8" ry="1.8"/>
</a>
</g>
</g>
<!-- nd84&#45;&gt;nd92 -->
<g id="edge13" class="edge"><title>nd84:n&#45;&gt;nd92:w</title>
<path fill="none" stroke="black" d="M325.6,-93C325.6,-97.8537 494.746,-109 499.6,-109"/>
</g>
<!-- nd85&#45;&gt;nd113 -->
<g id="edge9" class="edge"><title>nd85:n&#45;&gt;nd113:w</title>
<path fill="none" stroke="black" d="M387.6,-75C387.6,-97.2622 415.338,-78 437.6,-78"/>
</g>
<!-- nd87 -->
<g id="node16" class="node"><title>nd87</title>
<g id="a_node16"><a xlink:title="nd87&#45;BinOpGraph">
<ellipse fill="none" stroke="#000000" cx="449.6" cy="-36" rx="18" ry="18"/>
<text text-anchor="middle" x="449.6" y="-32.3" font-family="Times,serif" font-size="14.00">&#45;</text>
</a>
</g>
</g>
<!-- nd85&#45;&gt;nd87 -->
<g id="edge10" class="edge"><title>nd85:s&#45;&gt;nd87:w</title>
<path fill="none" stroke="black" d="M387.6,-37C387.6,-17.4394 412.039,-36 431.6,-36"/>
</g>
<!-- nd91 -->
<g id="node17" class="node"><title>nd91</title>
<g id="a_node17"><a xlink:title="nd91&#45;ConstGraph">
<path fill="none" stroke="#000000" d="M496.6,-36C496.6,-36 508.6,-36 508.6,-36 514.6,-36 520.6,-30 520.6,-24 520.6,-24 520.6,-12 520.6,-12 520.6,-6 514.6,-0 508.6,-0 508.6,-0 496.6,-0 496.6,-0 490.6,-0 484.6,-6 484.6,-12 484.6,-12 484.6,-24 484.6,-24 484.6,-30 490.6,-36 496.6,-36"/>
<text text-anchor="middle" x="502.6" y="-14.3" font-family="Times,serif" font-size="14.00">1</text>
</a>
</g>
</g>
<!-- nd87&#45;&gt;nd91 -->
<g id="edge8" class="edge"><title>nd87:s&#45;&gt;nd91:w</title>
<path fill="none" stroke="black" d="M449.6,-17C449.6,-1.4381 469.038,-18 484.6,-18"/>
</g>
<!-- nd87&#45;&gt;nd92 -->
<g id="edge12" class="edge"><title>nd87:n&#45;&gt;nd92:w</title>
<path fill="none" stroke="black" d="M449.6,-55C449.6,-63.3029 460.899,-55.0976 467.6,-60 488.592,-75.3577 473.59,-109 499.6,-109"/>
</g>
<!-- nd92&#45;&gt;nd93 -->
<g id="edge18" class="edge"><title>nd92:e&#45;&gt;nd93:w</title>
<path fill="none" stroke="black" d="M505.6,-109C514.968,-109 528.232,-187 537.6,-187"/>
</g>
</g>
</svg>
