<?xml version="1.0" encoding="UTF-8" standalone="no"?>
<!DOCTYPE svg PUBLIC "-//W3C//DTD SVG 1.1//EN"
 "http://www.w3.org/Graphics/SVG/1.1/DTD/svg11.dtd">
<!-- Generated by graphviz version 2.38.0 (20140413.2041)
 -->
<!-- Title: G Pages: 1 -->
<svg width="179pt" height="110pt"
 viewBox="0.00 0.00 178.60 110.00" xmlns="http://www.w3.org/2000/svg" xmlns:xlink="http://www.w3.org/1999/xlink">
<g id="graph0" class="graph" transform="scale(1 1) rotate(0) translate(4 106)">
<title>G</title>
<polygon fill="white" stroke="none" points="-4,4 -4,-106 174.6,-106 174.6,4 -4,4"/>
<g id="clust1" class="cluster"><title>cluster_nd4</title>
<polygon fill="none" stroke="orange" points="84.8,-42 84.8,-94 162.6,-94 162.6,-42 84.8,-42"/>
</g>
<g id="clust3" class="cluster"><title>cluster_nd24</title>
<polygon fill="none" stroke="orange" points="126.8,-8 126.8,-28 146.4,-28 146.4,-8 126.8,-8"/>
</g>
<!-- nd1 -->
<g id="node1" class="node"><title>nd1</title>
<ellipse fill="black" stroke="black" cx="1.8" cy="-43" rx="1.8" ry="1.8"/>
</g>
<!-- nd2 -->
<g id="node2" class="node"><title>nd2</title>
<g id="a_node2"><a xlink:title="nd2&#45;AppGraph">
<path fill="none" stroke="#000000" d="M29.0377,-55C29.0377,-55 22.8188,-49 22.8188,-49 19.7094,-46 19.7094,-40 22.8188,-37 22.8188,-37 29.0377,-31 29.0377,-31 32.1471,-28 39.5772,-25.0024 43.898,-25.0048 43.898,-25.0048 56.802,-25.012 56.802,-25.012 61.1228,-25.0144 65.4435,-29.3375 65.4435,-33.6582 65.4435,-33.6582 65.4435,-52.3418 65.4435,-52.3418 65.4435,-56.6625 61.1228,-60.9856 56.802,-60.988 56.802,-60.988 43.898,-60.9952 43.898,-60.9952 39.5772,-60.9976 32.1471,-58 29.0377,-55"/>
<text text-anchor="middle" x="43.6" y="-39.3" font-family="Times,serif" font-size="14.00">@</text>
</a>
</g>
</g>
<!-- nd1&#45;&gt;nd2 -->
<g id="edge5" class="edge"><title>nd1:e&#45;&gt;nd2:w</title>
<path fill="none" stroke="black" d="M3.6,-43C9.37778,-43 10.8222,-43 16.6,-43"/>
</g>
<!-- ndcluster_nd4 -->
<g id="node4" class="node"><title>ndcluster_nd4</title>
<g id="a_node4"><a xlink:title="nd4">
<ellipse fill="orange" stroke="orange" cx="94.6" cy="-65" rx="1.8" ry="1.8"/>
</a>
</g>
</g>
<!-- nd2&#45;&gt;ndcluster_nd4 -->
<g id="edge3" class="edge"><title>nd2:n&#45;&gt;ndcluster_nd4:w</title>
<path fill="none" stroke="black" d="M43.6,-62C43.6,-83.375 70.225,-65 91.6,-65"/>
</g>
<!-- nd22 -->
<g id="node6" class="node"><title>nd22</title>
<g id="a_node6"><a xlink:title="nd22&#45;RecurGraph">
<ellipse fill="none" stroke="#000000" cx="94.6" cy="-23" rx="11" ry="11"/>
<text text-anchor="middle" x="94.6" y="-19.3" font-family="Times,serif" font-size="14.00">rec</text>
</a>
</g>
</g>
<!-- nd2&#45;&gt;nd22 -->
<g id="edge4" class="edge"><title>nd2:s&#45;&gt;nd22:w</title>
<path fill="none" stroke="black" d="M43.6,-24C43.6,-6.21667 65.8167,-23 83.6,-23"/>
</g>
<!-- dooppoop -->
<g id="node3" class="node"><title>dooppoop</title>
<ellipse fill="none" stroke="blue" cx="136.6" cy="-68" rx="18" ry="18"/>
<text text-anchor="middle" x="136.6" y="-64.3" font-family="Times,serif" font-size="14.00">doop</text>
</g>
<!-- ndcluster_nd4&#45;&gt;dooppoop -->
<g id="edge6" class="edge"><title>ndcluster_nd4&#45;&gt;dooppoop</title>
<path fill="none" stroke="red" d="M96.5888,-65.0742C99.6686,-65.3051 109.421,-66.0366 118.404,-66.7103"/>
</g>
<!-- ndcluster_nd24 -->
<g id="node5" class="node"><title>ndcluster_nd24</title>
<g id="a_node5"><a xlink:title="nd24">
<ellipse fill="orange" stroke="orange" cx="136.6" cy="-18" rx="1.8" ry="1.8"/>
</a>
</g>
</g>
<!-- nd22&#45;&gt;ndcluster_nd24 -->
<g id="edge1" class="edge"><title>nd22:n&#45;&gt;ndcluster_nd24:n</title>
<path fill="none" stroke="black" d="M94.6,-35C94.6,-44.8382 136.6,-30.8382 136.6,-21"/>
</g>
<!-- nd22&#45;&gt;ndcluster_nd24 -->
<g id="edge2" class="edge"><title>nd22:s&#45;&gt;ndcluster_nd24:w</title>
<path fill="none" stroke="black" d="M94.6,-11C94.6,-6.09095 100.747,-11.2621 105.6,-12 118.182,-13.9129 120.873,-18 133.6,-18"/>
</g>
</g>
</svg>
