<?xml version="1.0" encoding="UTF-8" standalone="no"?>
<!DOCTYPE svg PUBLIC "-//W3C//DTD SVG 1.1//EN"
 "http://www.w3.org/Graphics/SVG/1.1/DTD/svg11.dtd">
<!-- Generated by graphviz version 2.38.0 (20140413.2041)
 -->
<!-- Title: G Pages: 1 -->
<svg width="445pt" height="215pt"
 viewBox="0.00 0.00 445.20 215.00" xmlns="http://www.w3.org/2000/svg" xmlns:xlink="http://www.w3.org/1999/xlink">
<g id="graph0" class="graph" transform="scale(1 1) rotate(0) translate(4 211)">
<title>G</title>
<polygon fill="white" stroke="none" points="-4,4 -4,-211 441.2,-211 441.2,4 -4,4"/>
<g id="clust1" class="cluster"><title>cluster_nd72</title>
<polygon fill="none" stroke="orange" points="329.8,-102 329.8,-122 349.4,-122 349.4,-102 329.8,-102"/>
</g>
<!-- nd1 -->
<g id="node1" class="node"><title>nd1</title>
<ellipse fill="black" stroke="black" cx="1.8" cy="-113" rx="1.8" ry="1.8"/>
</g>
<!-- nd27 -->
<g id="node5" class="node"><title>nd27</title>
<g id="a_node5"><a xlink:title="nd27&#45;IfGraph">
<ellipse fill="none" stroke="#000000" cx="38.6" cy="-113" rx="18" ry="18"/>
<text text-anchor="middle" x="38.6" y="-109.3" font-family="Times,serif" font-size="14.00">if</text>
</a>
</g>
</g>
<!-- nd1&#45;&gt;nd27 -->
<g id="edge13" class="edge"><title>nd1:e&#45;&gt;nd27:w</title>
<path fill="none" stroke="#b70000" d="M3.6,-113C11.1556,-113 13.0444,-113 20.6,-113"/>
</g>
<!-- nd68 -->
<g id="node2" class="node"><title>nd68</title>
<g id="a_node2"><a xlink:title="nd68&#45;RecurGraph">
<ellipse fill="none" stroke="#000000" cx="286.6" cy="-114" rx="11" ry="11"/>
<text text-anchor="middle" x="286.6" y="-110.3" font-family="Times,serif" font-size="14.00">rec</text>
</a>
</g>
</g>
<!-- ndcluster_nd72 -->
<g id="node3" class="node"><title>ndcluster_nd72</title>
<g id="a_node3"><a xlink:title="nd72">
<ellipse fill="orange" stroke="orange" cx="339.6" cy="-112" rx="1.8" ry="1.8"/>
</a>
</g>
</g>
<!-- nd68&#45;&gt;ndcluster_nd72 -->
<g id="edge15" class="edge"><title>nd68:n&#45;&gt;ndcluster_nd72:n</title>
<path fill="none" stroke="black" d="M286.6,-126C286.6,-150.058 339.6,-139.058 339.6,-115"/>
</g>
<!-- nd68&#45;&gt;ndcluster_nd72 -->
<g id="edge16" class="edge"><title>nd68:s&#45;&gt;ndcluster_nd72:w</title>
<path fill="none" stroke="black" d="M286.6,-102C286.6,-97.091 292.753,-102.224 297.6,-103 315.165,-105.812 318.811,-112 336.6,-112"/>
</g>
<!-- nd14 -->
<g id="node4" class="node"><title>nd14</title>
<g id="a_node4"><a xlink:title="nd14&#45;ConstGraph">
<path fill="none" stroke="#000000" d="M413.2,-91C413.2,-91 425.2,-91 425.2,-91 431.2,-91 437.2,-85 437.2,-79 437.2,-79 437.2,-67 437.2,-67 437.2,-61 431.2,-55 425.2,-55 425.2,-55 413.2,-55 413.2,-55 407.2,-55 401.2,-61 401.2,-67 401.2,-67 401.2,-79 401.2,-79 401.2,-85 407.2,-91 413.2,-91"/>
<text text-anchor="middle" x="419.2" y="-69.3" font-family="Times,serif" font-size="14.00">1000</text>
</a>
</g>
</g>
<!-- nd28 -->
<g id="node6" class="node"><title>nd28</title>
<g id="a_node6"><a xlink:title="nd28&#45;BinOpGraph">
<ellipse fill="none" stroke="#000000" cx="142.6" cy="-162" rx="18" ry="18"/>
<text text-anchor="middle" x="142.6" y="-158.3" font-family="Times,serif" font-size="14.00">a &lt;= b</text>
</a>
</g>
</g>
<!-- nd27&#45;&gt;nd28 -->
<g id="edge8" class="edge"><title>nd27:n&#45;&gt;nd28:w</title>
<path fill="none" stroke="#b70000" d="M38.6,-132C38.6,-172.481 84.1189,-162 124.6,-162"/>
<text text-anchor="middle" x="90.6" y="-167.8" font-family="Times,serif" font-size="14.00">condition</text>
</g>
<!-- nd40 -->
<g id="node8" class="node"><title>nd40</title>
<g id="a_node8"><a xlink:title="nd40&#45;ConstListGraph">
<path fill="none" stroke="#000000" d="M136.6,-131C136.6,-131 148.6,-131 148.6,-131 154.6,-131 160.6,-125 160.6,-119 160.6,-119 160.6,-107 160.6,-107 160.6,-101 154.6,-95 148.6,-95 148.6,-95 136.6,-95 136.6,-95 130.6,-95 124.6,-101 124.6,-107 124.6,-107 124.6,-119 124.6,-119 124.6,-125 130.6,-131 136.6,-131"/>
<text text-anchor="middle" x="142.6" y="-109.3" font-family="Times,serif" font-size="14.00">[]</text>
</a>
</g>
</g>
<!-- nd27&#45;&gt;nd40 -->
<g id="edge9" class="edge"><title>nd27:e&#45;&gt;nd40:w</title>
<path fill="none" stroke="grey" d="M56.6,-113C86.8222,-113 94.3778,-113 124.6,-113"/>
<text text-anchor="middle" x="90.6" y="-116.8" font-family="Times,serif" font-size="14.00">is true</text>
</g>
<!-- nd42 -->
<g id="node9" class="node"><title>nd42</title>
<g id="a_node9"><a xlink:title="nd42&#45;BinOpGraph">
<ellipse fill="none" stroke="#000000" cx="142.6" cy="-64" rx="18" ry="18"/>
<text text-anchor="middle" x="142.6" y="-60.3" font-family="Times,serif" font-size="14.00">::</text>
</a>
</g>
</g>
<!-- nd27&#45;&gt;nd42 -->
<g id="edge10" class="edge"><title>nd27:s&#45;&gt;nd42:w</title>
<path fill="none" stroke="grey" d="M38.6,-94C38.6,-53.5189 84.1189,-64 124.6,-64"/>
<text text-anchor="middle" x="90.6" y="-67.8" font-family="Times,serif" font-size="14.00">is false</text>
</g>
<!-- nd34 -->
<g id="node7" class="node"><title>nd34</title>
<g id="a_node7"><a xlink:title="nd34&#45;ConstGraph">
<path fill="none" stroke="#000000" d="M218.6,-155C218.6,-155 230.6,-155 230.6,-155 236.6,-155 242.6,-149 242.6,-143 242.6,-143 242.6,-131 242.6,-131 242.6,-125 236.6,-119 230.6,-119 230.6,-119 218.6,-119 218.6,-119 212.6,-119 206.6,-125 206.6,-131 206.6,-131 206.6,-143 206.6,-143 206.6,-149 212.6,-155 218.6,-155"/>
<text text-anchor="middle" x="224.6" y="-133.3" font-family="Times,serif" font-size="14.00">0</text>
</a>
</g>
</g>
<!-- nd28&#45;&gt;nd34 -->
<g id="edge1" class="edge"><title>nd28:s&#45;&gt;nd34:w</title>
<path fill="none" stroke="black" d="M142.6,-143C142.6,-135.968 198.568,-137 205.6,-137"/>
<text text-anchor="middle" x="179.1" y="-141.8" font-family="Times,serif" font-size="14.00">b</text>
</g>
<!-- nd98 -->
<g id="node15" class="node"><title>nd98</title>
<g id="a_node15"><a xlink:title="nd98&#45;ConstGraph">
<path fill="none" stroke="#000000" d="M218.6,-204C218.6,-204 230.6,-204 230.6,-204 236.6,-204 242.6,-198 242.6,-192 242.6,-192 242.6,-180 242.6,-180 242.6,-174 236.6,-168 230.6,-168 230.6,-168 218.6,-168 218.6,-168 212.6,-168 206.6,-174 206.6,-180 206.6,-180 206.6,-192 206.6,-192 206.6,-198 212.6,-204 218.6,-204"/>
<text text-anchor="middle" x="224.6" y="-182.3" font-family="Times,serif" font-size="14.00">1000</text>
</a>
</g>
</g>
<!-- nd28&#45;&gt;nd98 -->
<g id="edge11" class="edge"><title>nd28:n&#45;&gt;nd98:w</title>
<path fill="none" stroke="red" d="M145.235,-191.02C153.872,-202.134 182.12,-186 205.6,-186"/>
<polygon fill="red" stroke="red" points="148.528,-189.781 142.6,-181 141.758,-191.561 148.528,-189.781"/>
<text text-anchor="middle" x="179.1" y="-195.8" font-family="Times,serif" font-size="14.00">a, x</text>
</g>
<!-- nd45 -->
<g id="node10" class="node"><title>nd45</title>
<g id="a_node10"><a xlink:title="nd45&#45;AppGraph">
<path fill="none" stroke="#000000" d="M210.038,-57C210.038,-57 203.819,-51 203.819,-51 200.709,-48 200.709,-42 203.819,-39 203.819,-39 210.038,-33 210.038,-33 213.147,-30 220.577,-27.0024 224.898,-27.0048 224.898,-27.0048 237.802,-27.012 237.802,-27.012 242.123,-27.0144 246.443,-31.3375 246.443,-35.6582 246.443,-35.6582 246.443,-54.3418 246.443,-54.3418 246.443,-58.6625 242.123,-62.9856 237.802,-62.988 237.802,-62.988 224.898,-62.9952 224.898,-62.9952 220.577,-62.9976 213.147,-60 210.038,-57"/>
<text text-anchor="middle" x="224.6" y="-41.3" font-family="Times,serif" font-size="14.00">@</text>
</a>
</g>
</g>
<!-- nd42&#45;&gt;nd45 -->
<g id="edge5" class="edge"><title>nd42:s&#45;&gt;nd45:w</title>
<path fill="none" stroke="black" d="M142.6,-45C142.6,-20.5556 173.156,-45 197.6,-45"/>
</g>
<!-- nd59 -->
<g id="node13" class="node"><title>nd59</title>
<g id="a_node13"><a xlink:title="nd59&#45;ContractGraph">
<ellipse fill="black" stroke="black" cx="339.6" cy="-73" rx="1.8" ry="1.8"/>
</a>
</g>
</g>
<!-- nd42&#45;&gt;nd59 -->
<g id="edge7" class="edge"><title>nd42:n&#45;&gt;nd59:w</title>
<path fill="none" stroke="black" d="M142.6,-83C142.6,-93.7921 325.808,-73 336.6,-73"/>
</g>
<!-- nd45&#45;&gt;nd68 -->
<g id="edge3" class="edge"><title>nd45:n&#45;&gt;nd68:w</title>
<path fill="none" stroke="black" d="M224.6,-64C224.6,-95.427 243.173,-114 274.6,-114"/>
</g>
<!-- nd49 -->
<g id="node11" class="node"><title>nd49</title>
<g id="a_node11"><a xlink:title="nd49&#45;BinOpGraph">
<ellipse fill="none" stroke="#000000" cx="286.6" cy="-36" rx="18" ry="18"/>
<text text-anchor="middle" x="286.6" y="-32.3" font-family="Times,serif" font-size="14.00">&#45;</text>
</a>
</g>
</g>
<!-- nd45&#45;&gt;nd49 -->
<g id="edge4" class="edge"><title>nd45:s&#45;&gt;nd49:w</title>
<path fill="none" stroke="black" d="M224.6,-26C224.6,-13.9918 240.001,-23.8902 251.6,-27 259.857,-29.214 260.051,-36 268.6,-36"/>
</g>
<!-- nd55 -->
<g id="node12" class="node"><title>nd55</title>
<g id="a_node12"><a xlink:title="nd55&#45;ConstGraph">
<path fill="none" stroke="#000000" d="M333.6,-36C333.6,-36 345.6,-36 345.6,-36 351.6,-36 357.6,-30 357.6,-24 357.6,-24 357.6,-12 357.6,-12 357.6,-6 351.6,-0 345.6,-0 345.6,-0 333.6,-0 333.6,-0 327.6,-0 321.6,-6 321.6,-12 321.6,-12 321.6,-24 321.6,-24 321.6,-30 327.6,-36 333.6,-36"/>
<text text-anchor="middle" x="339.6" y="-14.3" font-family="Times,serif" font-size="14.00">1</text>
</a>
</g>
</g>
<!-- nd49&#45;&gt;nd55 -->
<g id="edge2" class="edge"><title>nd49:s&#45;&gt;nd55:w</title>
<path fill="none" stroke="black" d="M286.6,-17C286.6,-1.4381 306.038,-18 321.6,-18"/>
</g>
<!-- nd49&#45;&gt;nd59 -->
<g id="edge6" class="edge"><title>nd49:n&#45;&gt;nd59:w</title>
<path fill="none" stroke="black" d="M286.6,-55C286.6,-66.8092 324.791,-73 336.6,-73"/>
</g>
<!-- nd61 -->
<g id="node14" class="node"><title>nd61</title>
<g id="a_node14"><a xlink:title="nd61&#45;ContractGraph">
<ellipse fill="black" stroke="black" cx="376.4" cy="-73" rx="1.8" ry="1.8"/>
</a>
</g>
</g>
<!-- nd59&#45;&gt;nd61 -->
<g id="edge12" class="edge"><title>nd59:e&#45;&gt;nd61:w</title>
<path fill="none" stroke="black" d="M342.6,-73C356.822,-73 360.378,-73 374.6,-73"/>
</g>
<!-- nd61&#45;&gt;nd14 -->
<g id="edge14" class="edge"><title>nd61:e&#45;&gt;nd14:w</title>
<path fill="none" stroke="black" d="M378.2,-73C388.422,-73 390.978,-73 401.2,-73"/>
<text text-anchor="middle" x="389.7" y="-76.8" font-family="Times,serif" font-size="14.00">x</text>
</g>
</g>
</svg>
