<?xml version="1.0" encoding="UTF-8" standalone="no"?>
<!DOCTYPE svg PUBLIC "-//W3C//DTD SVG 1.1//EN"
 "http://www.w3.org/Graphics/SVG/1.1/DTD/svg11.dtd">
<!-- Generated by graphviz version 2.38.0 (20140413.2041)
 -->
<!-- Title: G Pages: 1 -->
<svg width="357pt" height="184pt"
 viewBox="0.00 0.00 357.20 184.00" xmlns="http://www.w3.org/2000/svg" xmlns:xlink="http://www.w3.org/1999/xlink">
<g id="graph0" class="graph" transform="scale(1 1) rotate(0) translate(4 180)">
<title>G</title>
<polygon fill="white" stroke="none" points="-4,4 -4,-180 353.2,-180 353.2,4 -4,4"/>
<g id="clust1" class="cluster"><title>cluster_nd162</title>
<polygon fill="none" stroke="orange" points="321.6,-48 321.6,-68 341.2,-68 341.2,-48 321.6,-48"/>
</g>
<!-- nd1 -->
<g id="node1" class="node"><title>nd1</title>
<ellipse fill="black" stroke="black" cx="1.8" cy="-133" rx="1.8" ry="1.8"/>
</g>
<!-- nd42 -->
<g id="node3" class="node"><title>nd42</title>
<g id="a_node3"><a xlink:title="nd42&#45;BinOpGraph">
<ellipse fill="none" stroke="#000000" cx="38.6" cy="-133" rx="18" ry="18"/>
<text text-anchor="middle" x="38.6" y="-129.3" font-family="Times,serif" font-size="14.00">::</text>
</a>
</g>
</g>
<!-- nd1&#45;&gt;nd42 -->
<g id="edge2" class="edge"><title>nd1:e&#45;&gt;nd42:w</title>
<path fill="none" stroke="#b70000" d="M3.6,-133C11.1556,-133 13.0444,-133 20.6,-133"/>
</g>
<!-- nd14 -->
<g id="node2" class="node"><title>nd14</title>
<g id="a_node2"><a xlink:title="nd14&#45;ConstGraph">
<path fill="none" stroke="#000000" d="M144.6,-176C144.6,-176 156.6,-176 156.6,-176 162.6,-176 168.6,-170 168.6,-164 168.6,-164 168.6,-152 168.6,-152 168.6,-146 162.6,-140 156.6,-140 156.6,-140 144.6,-140 144.6,-140 138.6,-140 132.6,-146 132.6,-152 132.6,-152 132.6,-164 132.6,-164 132.6,-170 138.6,-176 144.6,-176"/>
<text text-anchor="middle" x="150.6" y="-154.3" font-family="Times,serif" font-size="14.00">1000</text>
</a>
</g>
</g>
<!-- nd59 -->
<g id="node4" class="node"><title>nd59</title>
<g id="a_node4"><a xlink:title="nd59&#45;ContractGraph">
<ellipse fill="black" stroke="black" cx="91.6" cy="-157" rx="1.8" ry="1.8"/>
</a>
</g>
</g>
<!-- nd42&#45;&gt;nd59 -->
<g id="edge1" class="edge"><title>nd42:n&#45;&gt;nd59:w</title>
<path fill="none" stroke="black" d="M38.6,-152C38.6,-174.333 66.2669,-157 88.6,-157"/>
</g>
<!-- nd84 -->
<g id="node6" class="node"><title>nd84</title>
<g id="a_node6"><a xlink:title="nd84&#45;BinOpGraph">
<ellipse fill="none" stroke="#000000" cx="91.6" cy="-107" rx="18" ry="18"/>
<text text-anchor="middle" x="91.6" y="-103.3" font-family="Times,serif" font-size="14.00">::</text>
</a>
</g>
</g>
<!-- nd42&#45;&gt;nd84 -->
<g id="edge5" class="edge"><title>nd42:s&#45;&gt;nd84:w</title>
<path fill="none" stroke="#b70000" d="M38.6,-114C38.6,-98.1364 57.7364,-107 73.6,-107"/>
</g>
<!-- nd59&#45;&gt;nd14 -->
<g id="edge3" class="edge"><title>nd59:e&#45;&gt;nd14:w</title>
<path fill="none" stroke="black" d="M94.6,-157C111.495,-157 115.705,-158 132.6,-158"/>
<text text-anchor="middle" x="121.1" y="-160.8" font-family="Times,serif" font-size="14.00">x</text>
</g>
<!-- nd111 -->
<g id="node5" class="node"><title>nd111</title>
<g id="a_node5"><a xlink:title="nd111&#45;ConstGraph">
<path fill="none" stroke="#000000" d="M212.6,-147C212.6,-147 224.6,-147 224.6,-147 230.6,-147 236.6,-141 236.6,-135 236.6,-135 236.6,-123 236.6,-123 236.6,-117 230.6,-111 224.6,-111 224.6,-111 212.6,-111 212.6,-111 206.6,-111 200.6,-117 200.6,-123 200.6,-123 200.6,-135 200.6,-135 200.6,-141 206.6,-147 212.6,-147"/>
<text text-anchor="middle" x="218.6" y="-125.3" font-family="Times,serif" font-size="14.00">999</text>
</a>
</g>
</g>
<!-- nd92 -->
<g id="node7" class="node"><title>nd92</title>
<g id="a_node7"><a xlink:title="nd92&#45;ContractGraph">
<ellipse fill="black" stroke="black" cx="150.6" cy="-125" rx="1.8" ry="1.8"/>
</a>
</g>
</g>
<!-- nd84&#45;&gt;nd92 -->
<g id="edge4" class="edge"><title>nd84:n&#45;&gt;nd92:w</title>
<path fill="none" stroke="black" d="M91.6,-126C91.6,-150.893 122.707,-125 147.6,-125"/>
</g>
<!-- nd129 -->
<g id="node11" class="node"><title>nd129</title>
<g id="a_node11"><a xlink:title="nd129&#45;BinOpGraph">
<ellipse fill="none" stroke="#000000" cx="150.6" cy="-78" rx="18" ry="18"/>
<text text-anchor="middle" x="150.6" y="-74.3" font-family="Times,serif" font-size="14.00">::</text>
</a>
</g>
</g>
<!-- nd84&#45;&gt;nd129 -->
<g id="edge11" class="edge"><title>nd84:s&#45;&gt;nd129:w</title>
<path fill="none" stroke="#b70000" d="M91.6,-88C91.6,-69.2436 113.844,-78 132.6,-78"/>
</g>
<!-- nd92&#45;&gt;nd111 -->
<g id="edge6" class="edge"><title>nd92:e&#45;&gt;nd111:w</title>
<path fill="none" stroke="black" d="M153.6,-125C174.122,-125 179.078,-129 199.6,-129"/>
<text text-anchor="middle" x="180.1" y="-131.8" font-family="Times,serif" font-size="14.00">x</text>
</g>
<!-- nd156 -->
<g id="node8" class="node"><title>nd156</title>
<g id="a_node8"><a xlink:title="nd156&#45;ConstGraph">
<path fill="none" stroke="#000000" d="M280.6,-120C280.6,-120 292.6,-120 292.6,-120 298.6,-120 304.6,-114 304.6,-108 304.6,-108 304.6,-96 304.6,-96 304.6,-90 298.6,-84 292.6,-84 292.6,-84 280.6,-84 280.6,-84 274.6,-84 268.6,-90 268.6,-96 268.6,-96 268.6,-108 268.6,-108 268.6,-114 274.6,-120 280.6,-120"/>
<text text-anchor="middle" x="286.6" y="-98.3" font-family="Times,serif" font-size="14.00">998</text>
</a>
</g>
</g>
<!-- nd158 -->
<g id="node9" class="node"><title>nd158</title>
<g id="a_node9"><a xlink:title="nd158&#45;RecurGraph">
<ellipse fill="none" stroke="#000000" cx="286.6" cy="-60" rx="11" ry="11"/>
<text text-anchor="middle" x="286.6" y="-56.3" font-family="Times,serif" font-size="14.00">rec</text>
</a>
</g>
</g>
<!-- ndcluster_nd162 -->
<g id="node10" class="node"><title>ndcluster_nd162</title>
<g id="a_node10"><a xlink:title="nd162">
<ellipse fill="orange" stroke="orange" cx="331.4" cy="-58" rx="1.8" ry="1.8"/>
</a>
</g>
</g>
<!-- nd158&#45;&gt;ndcluster_nd162 -->
<g id="edge13" class="edge"><title>nd158:n&#45;&gt;ndcluster_nd162:n</title>
<path fill="none" stroke="black" d="M286.6,-72C286.6,-82.2513 331.4,-71.2513 331.4,-61"/>
</g>
<!-- nd158&#45;&gt;ndcluster_nd162 -->
<g id="edge14" class="edge"><title>nd158:s&#45;&gt;ndcluster_nd162:w</title>
<path fill="none" stroke="red" d="M286.6,-48C286.6,-43.091 292.777,-48.0851 297.6,-49 307.452,-50.8689 311.626,-54.5591 318.194,-56.5855"/>
<polygon fill="red" stroke="red" points="318.014,-60.094 328.4,-58 318.975,-53.1603 318.014,-60.094"/>
</g>
<!-- nd130 -->
<g id="node12" class="node"><title>nd130</title>
<g id="a_node12"><a xlink:title="nd130&#45;AppGraph">
<path fill="none" stroke="#000000" d="M204.038,-54C204.038,-54 197.819,-48 197.819,-48 194.709,-45 194.709,-39 197.819,-36 197.819,-36 204.038,-30 204.038,-30 207.147,-27 214.577,-24.0024 218.898,-24.0048 218.898,-24.0048 231.802,-24.012 231.802,-24.012 236.123,-24.0144 240.443,-28.3375 240.443,-32.6582 240.443,-32.6582 240.443,-51.3418 240.443,-51.3418 240.443,-55.6625 236.123,-59.9856 231.802,-59.988 231.802,-59.988 218.898,-59.9952 218.898,-59.9952 214.577,-59.9976 207.147,-57 204.038,-54"/>
<text text-anchor="middle" x="218.6" y="-38.3" font-family="Times,serif" font-size="14.00">@</text>
</a>
</g>
</g>
<!-- nd129&#45;&gt;nd130 -->
<g id="edge9" class="edge"><title>nd129:s&#45;&gt;nd130:w</title>
<path fill="none" stroke="#b70000" d="M150.6,-59C150.6,-39.2735 171.873,-42 191.6,-42"/>
</g>
<!-- nd137 -->
<g id="node13" class="node"><title>nd137</title>
<g id="a_node13"><a xlink:title="nd137&#45;ContractGraph">
<ellipse fill="black" stroke="black" cx="218.6" cy="-96" rx="1.8" ry="1.8"/>
</a>
</g>
</g>
<!-- nd129&#45;&gt;nd137 -->
<g id="edge10" class="edge"><title>nd129:n&#45;&gt;nd137:w</title>
<path fill="none" stroke="black" d="M150.6,-97C150.6,-125.892 186.708,-96 215.6,-96"/>
</g>
<!-- nd130&#45;&gt;nd158 -->
<g id="edge7" class="edge"><title>nd130:n&#45;&gt;nd158:w</title>
<path fill="none" stroke="#b70000" d="M218.6,-61C218.6,-85.8929 249.707,-60 274.6,-60"/>
</g>
<!-- nd201 -->
<g id="node14" class="node"><title>nd201</title>
<g id="a_node14"><a xlink:title="nd201&#45;ConstGraph">
<path fill="none" stroke="#000000" d="M280.6,-36C280.6,-36 292.6,-36 292.6,-36 298.6,-36 304.6,-30 304.6,-24 304.6,-24 304.6,-12 304.6,-12 304.6,-6 298.6,-0 292.6,-0 292.6,-0 280.6,-0 280.6,-0 274.6,-0 268.6,-6 268.6,-12 268.6,-12 268.6,-24 268.6,-24 268.6,-30 274.6,-36 280.6,-36"/>
<text text-anchor="middle" x="286.6" y="-14.3" font-family="Times,serif" font-size="14.00">997</text>
</a>
</g>
</g>
<!-- nd130&#45;&gt;nd201 -->
<g id="edge8" class="edge"><title>nd130:s&#45;&gt;nd201:w</title>
<path fill="none" stroke="black" d="M218.6,-23C218.6,-0.666943 246.267,-18 268.6,-18"/>
</g>
<!-- nd137&#45;&gt;nd156 -->
<g id="edge12" class="edge"><title>nd137:e&#45;&gt;nd156:w</title>
<path fill="none" stroke="black" d="M221.6,-96C242.658,-96 247.542,-102 268.6,-102"/>
<text text-anchor="middle" x="257.1" y="-105.8" font-family="Times,serif" font-size="14.00">x</text>
</g>
</g>
</svg>
