<?xml version="1.0" encoding="UTF-8" standalone="no"?>
<!DOCTYPE svg PUBLIC "-//W3C//DTD SVG 1.1//EN"
 "http://www.w3.org/Graphics/SVG/1.1/DTD/svg11.dtd">
<!-- Generated by graphviz version 2.38.0 (20140413.2041)
 -->
<!-- Title: G Pages: 1 -->
<svg width="478pt" height="236pt"
 viewBox="0.00 0.00 478.20 236.00" xmlns="http://www.w3.org/2000/svg" xmlns:xlink="http://www.w3.org/1999/xlink">
<g id="graph0" class="graph" transform="scale(1 1) rotate(0) translate(4 232)">
<title>G</title>
<polygon fill="white" stroke="none" points="-4,4 -4,-232 474.2,-232 474.2,4 -4,4"/>
<g id="clust1" class="cluster"><title>cluster_nd117</title>
<polygon fill="none" stroke="orange" points="362.8,-104 362.8,-124 382.4,-124 382.4,-104 362.8,-104"/>
</g>
<!-- nd1 -->
<g id="node1" class="node"><title>nd1</title>
<ellipse fill="black" stroke="black" cx="1.8" cy="-167" rx="1.8" ry="1.8"/>
</g>
<!-- nd42 -->
<g id="node3" class="node"><title>nd42</title>
<g id="a_node3"><a xlink:title="nd42&#45;BinOpGraph">
<ellipse fill="none" stroke="#000000" cx="38.6" cy="-167" rx="18" ry="18"/>
<text text-anchor="middle" x="38.6" y="-163.3" font-family="Times,serif" font-size="14.00">::</text>
</a>
</g>
</g>
<!-- nd1&#45;&gt;nd42 -->
<g id="edge2" class="edge"><title>nd1:e&#45;&gt;nd42:w</title>
<path fill="none" stroke="#b70000" d="M3.6,-167C11.1556,-167 13.0444,-167 20.6,-167"/>
</g>
<!-- nd14 -->
<g id="node2" class="node"><title>nd14</title>
<g id="a_node2"><a xlink:title="nd14&#45;ConstGraph">
<path fill="none" stroke="#000000" d="M189.6,-228C189.6,-228 201.6,-228 201.6,-228 207.6,-228 213.6,-222 213.6,-216 213.6,-216 213.6,-204 213.6,-204 213.6,-198 207.6,-192 201.6,-192 201.6,-192 189.6,-192 189.6,-192 183.6,-192 177.6,-198 177.6,-204 177.6,-204 177.6,-216 177.6,-216 177.6,-222 183.6,-228 189.6,-228"/>
<text text-anchor="middle" x="195.6" y="-206.3" font-family="Times,serif" font-size="14.00">1000</text>
</a>
</g>
</g>
<!-- nd59 -->
<g id="node4" class="node"><title>nd59</title>
<g id="a_node4"><a xlink:title="nd59&#45;ContractGraph">
<ellipse fill="black" stroke="black" cx="91.6" cy="-208" rx="1.8" ry="1.8"/>
</a>
</g>
</g>
<!-- nd42&#45;&gt;nd59 -->
<g id="edge1" class="edge"><title>nd42:n&#45;&gt;nd59:w</title>
<path fill="none" stroke="black" d="M38.6,-186C38.6,-210.278 64.3218,-208 88.6,-208"/>
</g>
<!-- nd74 -->
<g id="node8" class="node"><title>nd74</title>
<g id="a_node8"><a xlink:title="nd74&#45;IfGraph">
<ellipse fill="none" stroke="#000000" cx="91.6" cy="-114" rx="18" ry="18"/>
<text text-anchor="middle" x="91.6" y="-110.3" font-family="Times,serif" font-size="14.00">if</text>
</a>
</g>
</g>
<!-- nd42&#45;&gt;nd74 -->
<g id="edge16" class="edge"><title>nd42:s&#45;&gt;nd74:w</title>
<path fill="none" stroke="#b70000" d="M38.6,-148C38.6,-126.313 51.9131,-114 73.6,-114"/>
</g>
<!-- nd59&#45;&gt;nd14 -->
<g id="edge3" class="edge"><title>nd59:e&#45;&gt;nd14:w</title>
<path fill="none" stroke="black" d="M94.6,-208C131.5,-208 140.7,-210 177.6,-210"/>
<text text-anchor="middle" x="143.6" y="-213.8" font-family="Times,serif" font-size="14.00">x</text>
</g>
<!-- nd111 -->
<g id="node5" class="node"><title>nd111</title>
<g id="a_node5"><a xlink:title="nd111&#45;ConstGraph">
<path fill="none" stroke="#000000" d="M446.2,-168C446.2,-168 458.2,-168 458.2,-168 464.2,-168 470.2,-162 470.2,-156 470.2,-156 470.2,-144 470.2,-144 470.2,-138 464.2,-132 458.2,-132 458.2,-132 446.2,-132 446.2,-132 440.2,-132 434.2,-138 434.2,-144 434.2,-144 434.2,-156 434.2,-156 434.2,-162 440.2,-168 446.2,-168"/>
<text text-anchor="middle" x="452.2" y="-146.3" font-family="Times,serif" font-size="14.00">999</text>
</a>
</g>
</g>
<!-- nd113 -->
<g id="node6" class="node"><title>nd113</title>
<g id="a_node6"><a xlink:title="nd113&#45;RecurGraph">
<ellipse fill="none" stroke="#000000" cx="319.6" cy="-114" rx="11" ry="11"/>
<text text-anchor="middle" x="319.6" y="-110.3" font-family="Times,serif" font-size="14.00">rec</text>
</a>
</g>
</g>
<!-- ndcluster_nd117 -->
<g id="node7" class="node"><title>ndcluster_nd117</title>
<g id="a_node7"><a xlink:title="nd117">
<ellipse fill="orange" stroke="orange" cx="372.6" cy="-114" rx="1.8" ry="1.8"/>
</a>
</g>
</g>
<!-- nd113&#45;&gt;ndcluster_nd117 -->
<g id="edge18" class="edge"><title>nd113:n&#45;&gt;ndcluster_nd117:n</title>
<path fill="none" stroke="black" d="M319.6,-126C319.6,-149.893 372.6,-140.893 372.6,-117"/>
</g>
<!-- nd113&#45;&gt;ndcluster_nd117 -->
<g id="edge19" class="edge"><title>nd113:s&#45;&gt;ndcluster_nd117:w</title>
<path fill="none" stroke="black" d="M319.6,-102C319.6,-97.091 325.773,-102.108 330.6,-103 348.31,-106.274 351.59,-114 369.6,-114"/>
</g>
<!-- nd75 -->
<g id="node9" class="node"><title>nd75</title>
<g id="a_node9"><a xlink:title="nd75&#45;BinOpGraph">
<ellipse fill="none" stroke="#000000" cx="195.6" cy="-161" rx="18" ry="18"/>
<text text-anchor="middle" x="195.6" y="-157.3" font-family="Times,serif" font-size="14.00">&lt;=</text>
</a>
</g>
</g>
<!-- nd74&#45;&gt;nd75 -->
<g id="edge11" class="edge"><title>nd74:n&#45;&gt;nd75:w</title>
<path fill="none" stroke="#b70000" d="M91.6,-133C91.6,-173.197 137.403,-161 177.6,-161"/>
<text text-anchor="middle" x="143.6" y="-166.8" font-family="Times,serif" font-size="14.00">condition</text>
</g>
<!-- nd83 -->
<g id="node11" class="node"><title>nd83</title>
<g id="a_node11"><a xlink:title="nd83&#45;ConstListGraph">
<path fill="none" stroke="#000000" d="M189.6,-130C189.6,-130 201.6,-130 201.6,-130 207.6,-130 213.6,-124 213.6,-118 213.6,-118 213.6,-106 213.6,-106 213.6,-100 207.6,-94 201.6,-94 201.6,-94 189.6,-94 189.6,-94 183.6,-94 177.6,-100 177.6,-106 177.6,-106 177.6,-118 177.6,-118 177.6,-124 183.6,-130 189.6,-130"/>
<text text-anchor="middle" x="195.6" y="-108.3" font-family="Times,serif" font-size="14.00">[]</text>
</a>
</g>
</g>
<!-- nd74&#45;&gt;nd83 -->
<g id="edge12" class="edge"><title>nd74:e&#45;&gt;nd83:w</title>
<path fill="none" stroke="grey" d="M109.6,-114C139.835,-114 147.365,-112 177.6,-112"/>
<text text-anchor="middle" x="143.6" y="-117.8" font-family="Times,serif" font-size="14.00">is true</text>
</g>
<!-- nd84 -->
<g id="node12" class="node"><title>nd84</title>
<g id="a_node12"><a xlink:title="nd84&#45;BinOpGraph">
<ellipse fill="none" stroke="#000000" cx="195.6" cy="-63" rx="18" ry="18"/>
<text text-anchor="middle" x="195.6" y="-59.3" font-family="Times,serif" font-size="14.00">::</text>
</a>
</g>
</g>
<!-- nd74&#45;&gt;nd84 -->
<g id="edge13" class="edge"><title>nd74:s&#45;&gt;nd84:w</title>
<path fill="none" stroke="grey" d="M91.6,-95C91.6,-54.2175 136.818,-63 177.6,-63"/>
<text text-anchor="middle" x="143.6" y="-67.8" font-family="Times,serif" font-size="14.00">is false</text>
</g>
<!-- nd79 -->
<g id="node10" class="node"><title>nd79</title>
<g id="a_node10"><a xlink:title="nd79&#45;ConstGraph">
<path fill="none" stroke="#000000" d="M251.6,-159C251.6,-159 263.6,-159 263.6,-159 269.6,-159 275.6,-153 275.6,-147 275.6,-147 275.6,-135 275.6,-135 275.6,-129 269.6,-123 263.6,-123 263.6,-123 251.6,-123 251.6,-123 245.6,-123 239.6,-129 239.6,-135 239.6,-135 239.6,-147 239.6,-147 239.6,-153 245.6,-159 251.6,-159"/>
<text text-anchor="middle" x="257.6" y="-137.3" font-family="Times,serif" font-size="14.00">0</text>
</a>
</g>
</g>
<!-- nd75&#45;&gt;nd79 -->
<g id="edge4" class="edge"><title>nd75:s&#45;&gt;nd79:w</title>
<path fill="none" stroke="red" d="M195.6,-142C195.6,-134.757 214.805,-137.917 228.267,-139.873"/>
<polygon fill="red" stroke="red" points="228.279,-143.395 238.6,-141 229.038,-136.436 228.279,-143.395"/>
</g>
<!-- nd93 -->
<g id="node17" class="node"><title>nd93</title>
<g id="a_node17"><a xlink:title="nd93&#45;ContractGraph">
<ellipse fill="black" stroke="black" cx="409.4" cy="-150" rx="1.8" ry="1.8"/>
</a>
</g>
</g>
<!-- nd75&#45;&gt;nd93 -->
<g id="edge14" class="edge"><title>nd75:n&#45;&gt;nd93:w</title>
<path fill="none" stroke="black" d="M195.6,-180C195.6,-186.779 249.821,-179 256.6,-179 256.6,-179 256.6,-179 373.6,-179 393.461,-179 387.739,-150 407.6,-150"/>
</g>
<!-- nd85 -->
<g id="node13" class="node"><title>nd85</title>
<g id="a_node13"><a xlink:title="nd85&#45;AppGraph">
<path fill="none" stroke="#000000" d="M243.038,-57C243.038,-57 236.819,-51 236.819,-51 233.709,-48 233.709,-42 236.819,-39 236.819,-39 243.038,-33 243.038,-33 246.147,-30 253.577,-27.0024 257.898,-27.0048 257.898,-27.0048 270.802,-27.012 270.802,-27.012 275.123,-27.0144 279.443,-31.3375 279.443,-35.6582 279.443,-35.6582 279.443,-54.3418 279.443,-54.3418 279.443,-58.6625 275.123,-62.9856 270.802,-62.988 270.802,-62.988 257.898,-62.9952 257.898,-62.9952 253.577,-62.9976 246.147,-60 243.038,-57"/>
<text text-anchor="middle" x="257.6" y="-41.3" font-family="Times,serif" font-size="14.00">@</text>
</a>
</g>
</g>
<!-- nd84&#45;&gt;nd85 -->
<g id="edge8" class="edge"><title>nd84:s&#45;&gt;nd85:w</title>
<path fill="none" stroke="black" d="M195.6,-44C195.6,-28.4381 215.038,-45 230.6,-45"/>
</g>
<!-- nd92 -->
<g id="node16" class="node"><title>nd92</title>
<g id="a_node16"><a xlink:title="nd92&#45;ContractGraph">
<ellipse fill="black" stroke="black" cx="372.6" cy="-83" rx="1.8" ry="1.8"/>
</a>
</g>
</g>
<!-- nd84&#45;&gt;nd92 -->
<g id="edge10" class="edge"><title>nd84:n&#45;&gt;nd92:w</title>
<path fill="none" stroke="black" d="M195.6,-82C195.6,-91.6668 359.933,-83 369.6,-83"/>
</g>
<!-- nd85&#45;&gt;nd113 -->
<g id="edge6" class="edge"><title>nd85:n&#45;&gt;nd113:w</title>
<path fill="none" stroke="black" d="M257.6,-64C257.6,-95.427 276.173,-114 307.6,-114"/>
</g>
<!-- nd87 -->
<g id="node14" class="node"><title>nd87</title>
<g id="a_node14"><a xlink:title="nd87&#45;BinOpGraph">
<ellipse fill="none" stroke="#000000" cx="319.6" cy="-36" rx="18" ry="18"/>
<text text-anchor="middle" x="319.6" y="-32.3" font-family="Times,serif" font-size="14.00">&#45;</text>
</a>
</g>
</g>
<!-- nd85&#45;&gt;nd87 -->
<g id="edge7" class="edge"><title>nd85:s&#45;&gt;nd87:w</title>
<path fill="none" stroke="black" d="M257.6,-26C257.6,-13.9918 273.001,-23.8902 284.6,-27 292.857,-29.214 293.051,-36 301.6,-36"/>
</g>
<!-- nd91 -->
<g id="node15" class="node"><title>nd91</title>
<g id="a_node15"><a xlink:title="nd91&#45;ConstGraph">
<path fill="none" stroke="#000000" d="M366.6,-36C366.6,-36 378.6,-36 378.6,-36 384.6,-36 390.6,-30 390.6,-24 390.6,-24 390.6,-12 390.6,-12 390.6,-6 384.6,-0 378.6,-0 378.6,-0 366.6,-0 366.6,-0 360.6,-0 354.6,-6 354.6,-12 354.6,-12 354.6,-24 354.6,-24 354.6,-30 360.6,-36 366.6,-36"/>
<text text-anchor="middle" x="372.6" y="-14.3" font-family="Times,serif" font-size="14.00">1</text>
</a>
</g>
</g>
<!-- nd87&#45;&gt;nd91 -->
<g id="edge5" class="edge"><title>nd87:s&#45;&gt;nd91:w</title>
<path fill="none" stroke="black" d="M319.6,-17C319.6,-1.4381 339.038,-18 354.6,-18"/>
</g>
<!-- nd87&#45;&gt;nd92 -->
<g id="edge9" class="edge"><title>nd87:n&#45;&gt;nd92:w</title>
<path fill="none" stroke="black" d="M319.6,-55C319.6,-61.3674 363.233,-83 369.6,-83"/>
</g>
<!-- nd92&#45;&gt;nd93 -->
<g id="edge15" class="edge"><title>nd92:e&#45;&gt;nd93:w</title>
<path fill="none" stroke="black" d="M375.6,-83C408.6,-83 374.6,-150 407.6,-150"/>
</g>
<!-- nd93&#45;&gt;nd111 -->
<g id="edge17" class="edge"><title>nd93:e&#45;&gt;nd111:w</title>
<path fill="none" stroke="black" d="M411.2,-150C421.422,-150 423.978,-150 434.2,-150"/>
<text text-anchor="middle" x="422.7" y="-153.8" font-family="Times,serif" font-size="14.00">x</text>
</g>
</g>
</svg>
