<?xml version="1.0" encoding="UTF-8" standalone="no"?>
<!DOCTYPE svg PUBLIC "-//W3C//DTD SVG 1.1//EN"
 "http://www.w3.org/Graphics/SVG/1.1/DTD/svg11.dtd">
<!-- Generated by graphviz version 2.38.0 (20140413.2041)
 -->
<!-- Title: G Pages: 1 -->
<svg width="260pt" height="93pt"
 viewBox="0.00 0.00 260.20 93.00" xmlns="http://www.w3.org/2000/svg" xmlns:xlink="http://www.w3.org/1999/xlink">
<g id="graph0" class="graph" transform="scale(1 1) rotate(0) translate(4 89)">
<title>G</title>
<polygon fill="white" stroke="none" points="-4,4 -4,-89 256.2,-89 256.2,4 -4,4"/>
<g id="clust1" class="cluster"><title>cluster_nd24</title>
<polygon fill="none" stroke="orange" points="140.8,-44 140.8,-64 160.4,-64 160.4,-44 140.8,-44"/>
</g>
<g id="clust2" class="cluster"><title>cluster_nd72</title>
<polygon fill="none" stroke="orange" points="224.6,-40 224.6,-60 244.2,-60 244.2,-40 224.6,-40"/>
</g>
<!-- nd1 -->
<g id="node1" class="node"><title>nd1</title>
<ellipse fill="black" stroke="black" cx="1.8" cy="-36" rx="1.8" ry="1.8"/>
</g>
<!-- nd7 -->
<g id="node5" class="node"><title>nd7</title>
<g id="a_node5"><a xlink:title="nd7&#45;AppGraph">
<path fill="none" stroke="#000000" d="M33.0377,-48C33.0377,-48 26.8188,-42 26.8188,-42 23.7094,-39 23.7094,-33 26.8188,-30 26.8188,-30 33.0377,-24 33.0377,-24 36.1471,-21 43.5772,-18.0024 47.898,-18.0048 47.898,-18.0048 60.802,-18.012 60.802,-18.012 65.1228,-18.0144 69.4435,-22.3375 69.4435,-26.6582 69.4435,-26.6582 69.4435,-45.3418 69.4435,-45.3418 69.4435,-49.6625 65.1228,-53.9856 60.802,-53.988 60.802,-53.988 47.898,-53.9952 47.898,-53.9952 43.5772,-53.9976 36.1471,-51 33.0377,-48"/>
<text text-anchor="middle" x="47.6" y="-32.3" font-family="Times,serif" font-size="14.00">b@a</text>
</a>
</g>
</g>
<!-- nd1&#45;&gt;nd7 -->
<g id="edge3" class="edge"><title>nd1:e&#45;&gt;nd7:w</title>
<path fill="none" stroke="red" d="M3.6,-36C6.43333,-36 8.46979,-36 10.307,-36"/>
<polygon fill="red" stroke="red" points="10.6,-39.5001 20.6,-36 10.6,-32.5001 10.6,-39.5001"/>
</g>
<!-- ndcluster_nd24 -->
<g id="node2" class="node"><title>ndcluster_nd24</title>
<g id="a_node2"><a xlink:title="nd24">
<ellipse fill="orange" stroke="orange" cx="150.6" cy="-54" rx="1.8" ry="1.8"/>
</a>
</g>
</g>
<!-- nd68 -->
<g id="node3" class="node"><title>nd68</title>
<g id="a_node3"><a xlink:title="nd68&#45;RecurGraph">
<ellipse fill="none" stroke="#000000" cx="196.6" cy="-56" rx="11" ry="11"/>
<text text-anchor="middle" x="196.6" y="-52.3" font-family="Times,serif" font-size="14.00">rec</text>
</a>
</g>
</g>
<!-- ndcluster_nd24&#45;&gt;nd68 -->
<g id="edge4" class="edge"><title>ndcluster_nd24:n&#45;&gt;nd68:w</title>
<path fill="none" stroke="black" d="M150.6,-57C150.6,-72.5619 170.038,-56 185.6,-56"/>
</g>
<!-- ndcluster_nd72 -->
<g id="node4" class="node"><title>ndcluster_nd72</title>
<g id="a_node4"><a xlink:title="nd72">
<ellipse fill="orange" stroke="orange" cx="234.4" cy="-50" rx="1.8" ry="1.8"/>
</a>
</g>
</g>
<!-- nd68&#45;&gt;ndcluster_nd72 -->
<g id="edge5" class="edge"><title>nd68:n&#45;&gt;ndcluster_nd72:n</title>
<path fill="none" stroke="black" d="M196.6,-68C196.6,-86.0744 234.4,-71.0744 234.4,-53"/>
</g>
<!-- nd68&#45;&gt;ndcluster_nd72 -->
<g id="edge6" class="edge"><title>nd68:s&#45;&gt;ndcluster_nd72:w</title>
<path fill="none" stroke="black" d="M196.6,-44C196.6,-39.091 202.745,-44.2719 207.6,-45 218.289,-46.6031 220.591,-50 231.4,-50"/>
</g>
<!-- nd7&#45;&gt;ndcluster_nd24 -->
<g id="edge1" class="edge"><title>nd7:n&#45;&gt;ndcluster_nd24:w</title>
<path fill="none" stroke="black" d="M47.6,-55C47.6,-99.4467 103.153,-54 147.6,-54"/>
<text text-anchor="middle" x="103.6" y="-73.8" font-family="Times,serif" font-size="14.00">a, build</text>
</g>
<!-- nd14 -->
<g id="node6" class="node"><title>nd14</title>
<g id="a_node6"><a xlink:title="nd14&#45;ConstGraph">
<path fill="none" stroke="#000000" d="M144.6,-36C144.6,-36 156.6,-36 156.6,-36 162.6,-36 168.6,-30 168.6,-24 168.6,-24 168.6,-12 168.6,-12 168.6,-6 162.6,-0 156.6,-0 156.6,-0 144.6,-0 144.6,-0 138.6,-0 132.6,-6 132.6,-12 132.6,-12 132.6,-24 132.6,-24 132.6,-30 138.6,-36 144.6,-36"/>
<text text-anchor="middle" x="150.6" y="-14.3" font-family="Times,serif" font-size="14.00">1000</text>
</a>
</g>
</g>
<!-- nd7&#45;&gt;nd14 -->
<g id="edge2" class="edge"><title>nd7:s&#45;&gt;nd14:w</title>
<path fill="none" stroke="black" d="M47.6,-17C47.6,20.7804 94.8196,-18 132.6,-18"/>
<text text-anchor="middle" x="103.6" y="-21.8" font-family="Times,serif" font-size="14.00">b</text>
</g>
</g>
</svg>
