<?xml version="1.0" encoding="UTF-8" standalone="no"?>
<!DOCTYPE svg PUBLIC "-//W3C//DTD SVG 1.1//EN"
 "http://www.w3.org/Graphics/SVG/1.1/DTD/svg11.dtd">
<!-- Generated by graphviz version 2.38.0 (20140413.2041)
 -->
<!-- Title: G Pages: 1 -->
<svg width="307pt" height="147pt"
 viewBox="0.00 0.00 306.60 147.00" xmlns="http://www.w3.org/2000/svg" xmlns:xlink="http://www.w3.org/1999/xlink">
<g id="graph0" class="graph" transform="scale(1 1) rotate(0) translate(4 143)">
<title>G</title>
<polygon fill="white" stroke="none" points="-4,4 -4,-143 302.6,-143 302.6,4 -4,4"/>
<g id="clust1" class="cluster"><title>cluster_nd24</title>
<polygon fill="none" stroke="orange" points="99.8,-19 99.8,-39 119.4,-39 119.4,-19 99.8,-19"/>
</g>
<g id="clust2" class="cluster"><title>cluster_nd72</title>
<polygon fill="none" stroke="orange" points="270.8,-8 270.8,-28 290.4,-28 290.4,-8 270.8,-8"/>
</g>
<!-- nd1 -->
<g id="node1" class="node"><title>nd1</title>
<ellipse fill="black" stroke="black" cx="1.8" cy="-48" rx="1.8" ry="1.8"/>
</g>
<!-- nd2 -->
<g id="node2" class="node"><title>nd2</title>
<g id="a_node2"><a xlink:title="nd2&#45;AppGraph">
<path fill="none" stroke="#000000" d="M33.0377,-60C33.0377,-60 26.8188,-54 26.8188,-54 23.7094,-51 23.7094,-45 26.8188,-42 26.8188,-42 33.0377,-36 33.0377,-36 36.1471,-33 43.5772,-30.0024 47.898,-30.0048 47.898,-30.0048 60.802,-30.012 60.802,-30.012 65.1228,-30.0144 69.4435,-34.3375 69.4435,-38.6582 69.4435,-38.6582 69.4435,-57.3418 69.4435,-57.3418 69.4435,-61.6625 65.1228,-65.9856 60.802,-65.988 60.802,-65.988 47.898,-65.9952 47.898,-65.9952 43.5772,-65.9976 36.1471,-63 33.0377,-60"/>
<text text-anchor="middle" x="47.6" y="-44.3" font-family="Times,serif" font-size="14.00">@</text>
</a>
</g>
</g>
<!-- nd1&#45;&gt;nd2 -->
<g id="edge7" class="edge"><title>nd1:e&#45;&gt;nd2:w</title>
<path fill="none" stroke="#b70000" d="M3.6,-48C11.1556,-48 13.0444,-48 20.6,-48"/>
</g>
<!-- ndcluster_nd24 -->
<g id="node3" class="node"><title>ndcluster_nd24</title>
<g id="a_node3"><a xlink:title="nd24">
<ellipse fill="orange" stroke="orange" cx="109.6" cy="-29" rx="1.8" ry="1.8"/>
</a>
</g>
</g>
<!-- nd2&#45;&gt;ndcluster_nd24 -->
<g id="edge5" class="edge"><title>nd2:s&#45;&gt;ndcluster_nd24:w</title>
<path fill="none" stroke="black" d="M47.6,-29C47.6,-2.77778 80.3778,-29 106.6,-29"/>
</g>
<!-- nd6 -->
<g id="node6" class="node"><title>nd6</title>
<g id="a_node6"><a xlink:title="nd6&#45;AbsGraph">
<ellipse fill="none" stroke="#000000" cx="109.6" cy="-71" rx="18" ry="18"/>
<text text-anchor="middle" x="109.6" y="-67.3" font-family="Times,serif" font-size="14.00">λ</text>
</a>
</g>
</g>
<!-- nd2&#45;&gt;nd6 -->
<g id="edge6" class="edge"><title>nd2:n&#45;&gt;nd6:w</title>
<path fill="none" stroke="#b70000" d="M47.6,-67C47.6,-86.6362 71.9638,-71 91.6,-71"/>
</g>
<!-- nd68 -->
<g id="node4" class="node"><title>nd68</title>
<g id="a_node4"><a xlink:title="nd68&#45;RecurGraph">
<ellipse fill="none" stroke="#000000" cx="212.6" cy="-25" rx="11" ry="11"/>
<text text-anchor="middle" x="212.6" y="-21.3" font-family="Times,serif" font-size="14.00">rec</text>
</a>
</g>
</g>
<!-- ndcluster_nd24&#45;&gt;nd68 -->
<g id="edge4" class="edge"><title>ndcluster_nd24:n&#45;&gt;nd68:w</title>
<path fill="none" stroke="black" d="M109.6,-32C109.6,-52.282 180.318,-25 200.6,-25"/>
</g>
<!-- ndcluster_nd72 -->
<g id="node5" class="node"><title>ndcluster_nd72</title>
<g id="a_node5"><a xlink:title="nd72">
<ellipse fill="orange" stroke="orange" cx="280.6" cy="-18" rx="1.8" ry="1.8"/>
</a>
</g>
</g>
<!-- nd68&#45;&gt;ndcluster_nd72 -->
<g id="edge8" class="edge"><title>nd68:n&#45;&gt;ndcluster_nd72:n</title>
<path fill="none" stroke="black" d="M212.6,-37C212.6,-44.7619 280.6,-28.7619 280.6,-21"/>
</g>
<!-- nd68&#45;&gt;ndcluster_nd72 -->
<g id="edge9" class="edge"><title>nd68:s&#45;&gt;ndcluster_nd72:w</title>
<path fill="none" stroke="black" d="M212.6,-13C212.6,15.9742 248.626,-18 277.6,-18"/>
</g>
<!-- nd7 -->
<g id="node7" class="node"><title>nd7</title>
<g id="a_node7"><a xlink:title="nd7&#45;AppGraph">
<path fill="none" stroke="#000000" d="M198.038,-83C198.038,-83 191.819,-77 191.819,-77 188.709,-74 188.709,-68 191.819,-65 191.819,-65 198.038,-59 198.038,-59 201.147,-56 208.577,-53.0024 212.898,-53.0048 212.898,-53.0048 225.802,-53.012 225.802,-53.012 230.123,-53.0144 234.443,-57.3375 234.443,-61.6582 234.443,-61.6582 234.443,-80.3418 234.443,-80.3418 234.443,-84.6625 230.123,-88.9856 225.802,-88.988 225.802,-88.988 212.898,-88.9952 212.898,-88.9952 208.577,-88.9976 201.147,-86 198.038,-83"/>
<text text-anchor="middle" x="212.6" y="-67.3" font-family="Times,serif" font-size="14.00">b@a</text>
</a>
</g>
</g>
<!-- nd6&#45;&gt;nd7 -->
<g id="edge1" class="edge"><title>nd6:n&#45;&gt;nd7:n</title>
<path fill="none" stroke="grey" d="M109.6,-90C109.6,-135.778 212.6,-135.778 212.6,-90"/>
<text text-anchor="middle" x="156.6" y="-127.8" font-family="Times,serif" font-size="14.00">a, build</text>
</g>
<!-- nd6&#45;&gt;nd7 -->
<g id="edge3" class="edge"><title>nd6:s&#45;&gt;nd7:w</title>
<path fill="none" stroke="red" d="M109.6,-52C109.6,-43.9877 119.715,-51.5797 127.6,-53 150.428,-57.1117 156.922,-67.4499 175.427,-70.2762"/>
<polygon fill="red" stroke="red" points="175.377,-73.7814 185.6,-71 175.874,-66.799 175.377,-73.7814"/>
</g>
<!-- nd14 -->
<g id="node8" class="node"><title>nd14</title>
<g id="a_node8"><a xlink:title="nd14&#45;ConstGraph">
<path fill="none" stroke="#000000" d="M274.6,-76C274.6,-76 286.6,-76 286.6,-76 292.6,-76 298.6,-70 298.6,-64 298.6,-64 298.6,-52 298.6,-52 298.6,-46 292.6,-40 286.6,-40 286.6,-40 274.6,-40 274.6,-40 268.6,-40 262.6,-46 262.6,-52 262.6,-52 262.6,-64 262.6,-64 262.6,-70 268.6,-76 274.6,-76"/>
<text text-anchor="middle" x="280.6" y="-54.3" font-family="Times,serif" font-size="14.00">1000</text>
</a>
</g>
</g>
<!-- nd7&#45;&gt;nd14 -->
<g id="edge2" class="edge"><title>nd7:s&#45;&gt;nd14:w</title>
<path fill="none" stroke="black" d="M212.6,-52C212.6,-29.6183 240.218,-58 262.6,-58"/>
<text text-anchor="middle" x="251.1" y="-60.8" font-family="Times,serif" font-size="14.00">b</text>
</g>
</g>
</svg>
