<?xml version="1.0" encoding="UTF-8" standalone="no"?>
<!DOCTYPE svg PUBLIC "-//W3C//DTD SVG 1.1//EN"
 "http://www.w3.org/Graphics/SVG/1.1/DTD/svg11.dtd">
<!-- Generated by graphviz version 2.38.0 (20140413.2041)
 -->
<!-- Title: G Pages: 1 -->
<svg width="195pt" height="85pt"
 viewBox="0.00 0.00 195.20 84.52" xmlns="http://www.w3.org/2000/svg" xmlns:xlink="http://www.w3.org/1999/xlink">
<g id="graph0" class="graph" transform="scale(1 1) rotate(0) translate(4 80.5247)">
<title>G</title>
<polygon fill="white" stroke="none" points="-4,4 -4,-80.5247 191.2,-80.5247 191.2,4 -4,4"/>
<g id="clust1" class="cluster"><title>cluster_nd4</title>
<polygon fill="none" stroke="orange" points="92.8,-48.5247 92.8,-68.5247 112.4,-68.5247 112.4,-48.5247 92.8,-48.5247"/>
</g>
<g id="clust2" class="cluster"><title>cluster_nd24</title>
<polygon fill="none" stroke="orange" points="159.6,-12.5247 159.6,-32.5247 179.2,-32.5247 179.2,-12.5247 159.6,-12.5247"/>
</g>
<!-- nd1 -->
<g id="node1" class="node"><title>nd1</title>
<ellipse fill="black" stroke="black" cx="1.8" cy="-40.5247" rx="1.8" ry="1.8"/>
</g>
<!-- nd2 -->
<g id="node2" class="node"><title>nd2</title>
<g id="a_node2"><a xlink:title="nd2&#45;AppGraph">
<path fill="none" stroke="#000000" d="M33.0377,-52.5247C33.0377,-52.5247 26.8188,-46.5247 26.8188,-46.5247 23.7094,-43.5247 23.7094,-37.5247 26.8188,-34.5247 26.8188,-34.5247 33.0377,-28.5247 33.0377,-28.5247 36.1471,-25.5247 43.5772,-22.5271 47.898,-22.5295 47.898,-22.5295 60.802,-22.5367 60.802,-22.5367 65.1228,-22.5391 69.4435,-26.8622 69.4435,-31.1829 69.4435,-31.1829 69.4435,-49.8665 69.4435,-49.8665 69.4435,-54.1872 65.1228,-58.5103 60.802,-58.5127 60.802,-58.5127 47.898,-58.5199 47.898,-58.5199 43.5772,-58.5223 36.1471,-55.5247 33.0377,-52.5247"/>
<text text-anchor="middle" x="47.6" y="-36.8247" font-family="Times,serif" font-size="14.00">@</text>
</a>
</g>
</g>
<!-- nd1&#45;&gt;nd2 -->
<g id="edge5" class="edge"><title>nd1:e&#45;&gt;nd2:w</title>
<path fill="none" stroke="#b70000" d="M3.6,-40.5247C11.1556,-40.5247 13.0444,-40.5247 20.6,-40.5247"/>
</g>
<!-- ndcluster_nd4 -->
<g id="node3" class="node"><title>ndcluster_nd4</title>
<g id="a_node3"><a xlink:title="nd4">
<ellipse fill="orange" stroke="orange" cx="102.6" cy="-58.5247" rx="1.8" ry="1.8"/>
</a>
</g>
</g>
<!-- nd2&#45;&gt;ndcluster_nd4 -->
<g id="edge3" class="edge"><title>nd2:n&#45;&gt;ndcluster_nd4:w</title>
<path fill="none" stroke="black" d="M47.6,-59.5247C47.6,-82.6401 76.4846,-58.5247 99.6,-58.5247"/>
</g>
<!-- nd22 -->
<g id="node5" class="node"><title>nd22</title>
<g id="a_node5"><a xlink:title="nd22&#45;RecurGraph">
<ellipse fill="none" stroke="#000000" cx="102.6" cy="-22.5247" rx="11" ry="11"/>
<text text-anchor="middle" x="102.6" y="-18.8247" font-family="Times,serif" font-size="14.00">rec</text>
</a>
</g>
</g>
<!-- nd2&#45;&gt;nd22 -->
<g id="edge4" class="edge"><title>nd2:s&#45;&gt;nd22:w</title>
<path fill="none" stroke="red" d="M47.6,-21.5247C47.6,-5.32611 64.3603,-16.6422 81.2305,-21.0107"/>
<polygon fill="red" stroke="red" points="81.1992,-24.5432 91.6,-22.5247 82.2106,-17.6166 81.1992,-24.5432"/>
</g>
<!-- ndcluster_nd24 -->
<g id="node4" class="node"><title>ndcluster_nd24</title>
<g id="a_node4"><a xlink:title="nd24">
<ellipse fill="orange" stroke="orange" cx="169.4" cy="-22.5247" rx="1.8" ry="1.8"/>
</a>
</g>
</g>
<!-- nd22&#45;&gt;ndcluster_nd24 -->
<g id="edge1" class="edge"><title>nd22:n&#45;&gt;ndcluster_nd24:n</title>
<path fill="none" stroke="black" d="M102.6,-34.5247C102.6,-49.5033 169.4,-40.5033 169.4,-25.5247"/>
<text text-anchor="middle" x="136.6" y="-46.3247" font-family="Times,serif" font-size="14.00">refλ</text>
</g>
<!-- nd22&#45;&gt;ndcluster_nd24 -->
<g id="edge2" class="edge"><title>nd22:s&#45;&gt;ndcluster_nd24:w</title>
<path fill="none" stroke="black" d="M102.6,-10.5247C102.6,18.328 137.547,-22.5247 166.4,-22.5247"/>
<text text-anchor="middle" x="136.6" y="-23.3247" font-family="Times,serif" font-size="14.00">evalλ</text>
</g>
</g>
</svg>
