<?xml version="1.0" encoding="UTF-8" standalone="no"?>
<!DOCTYPE svg PUBLIC "-//W3C//DTD SVG 1.1//EN"
 "http://www.w3.org/Graphics/SVG/1.1/DTD/svg11.dtd">
<!-- Generated by graphviz version 2.38.0 (20140413.2041)
 -->
<!-- Title: G Pages: 1 -->
<svg width="237pt" height="93pt"
 viewBox="0.00 0.00 237.20 92.50" xmlns="http://www.w3.org/2000/svg" xmlns:xlink="http://www.w3.org/1999/xlink">
<g id="graph0" class="graph" transform="scale(1 1) rotate(0) translate(4 88.5)">
<title>G</title>
<polygon fill="white" stroke="none" points="-4,4 -4,-88.5 233.2,-88.5 233.2,4 -4,4"/>
<g id="clust1" class="cluster"><title>cluster_nd318</title>
<polygon fill="none" stroke="orange" points="130.6,-56.5 130.6,-76.5 150.2,-76.5 150.2,-56.5 130.6,-56.5"/>
</g>
<!-- nd1 -->
<g id="node1" class="node"><title>nd1</title>
<ellipse fill="black" stroke="black" cx="1.8" cy="-42.5" rx="1.8" ry="1.8"/>
</g>
<!-- nd255 -->
<g id="node7" class="node"><title>nd255</title>
<g id="a_node7"><a xlink:title="nd255&#45;AppGraph">
<path fill="none" stroke="#000000" d="M23.5473,-52.5543C23.5473,-52.5543 19.6719,-46.9457 19.6719,-46.9457 18.136,-44.7229 18.136,-40.2771 19.6719,-38.0543 19.6719,-38.0543 23.5473,-32.4457 23.5473,-32.4457 25.0833,-30.2229 29.3212,-28.0023 32.0231,-28.0045 32.0231,-28.0045 37.4269,-28.009 37.4269,-28.009 40.1288,-28.0113 42.8307,-30.7155 42.8307,-33.4174 42.8307,-33.4174 42.8307,-51.5826 42.8307,-51.5826 42.8307,-54.2845 40.1288,-56.9887 37.4269,-56.991 37.4269,-56.991 32.0231,-56.9955 32.0231,-56.9955 29.3212,-56.9977 25.0833,-54.7771 23.5473,-52.5543"/>
<text text-anchor="middle" x="31.1" y="-38.8" font-family="Times,serif" font-size="14.00">@</text>
</a>
</g>
</g>
<!-- nd1&#45;&gt;nd255 -->
<g id="edge8" class="edge"><title>nd1:e&#45;&gt;nd255:w</title>
<path fill="none" stroke="#b70000" d="M3.6,-42.5C9.37778,-42.5 10.8222,-42.5 16.6,-42.5"/>
</g>
<!-- nd34 -->
<g id="node2" class="node"><title>nd34</title>
<g id="a_node2"><a xlink:title="nd34&#45;ConstGraph">
<path fill="none" stroke="purple" d="M209.867,-71C209.867,-71 219.533,-71 219.533,-71 224.367,-71 229.2,-66.1667 229.2,-61.3333 229.2,-61.3333 229.2,-51.6667 229.2,-51.6667 229.2,-46.8333 224.367,-42 219.533,-42 219.533,-42 209.867,-42 209.867,-42 205.033,-42 200.2,-46.8333 200.2,-51.6667 200.2,-51.6667 200.2,-61.3333 200.2,-61.3333 200.2,-66.1667 205.033,-71 209.867,-71"/>
<text text-anchor="middle" x="214.7" y="-52.8" font-family="Times,serif" font-size="14.00">4</text>
</a>
</g>
</g>
<!-- nd39 -->
<g id="node3" class="node"><title>nd39</title>
<g id="a_node3"><a xlink:title="nd39&#45;ConstEmptyGraph">
<path fill="none" stroke="purple" d="M209.867,-29C209.867,-29 219.533,-29 219.533,-29 224.367,-29 229.2,-24.1667 229.2,-19.3333 229.2,-19.3333 229.2,-9.66667 229.2,-9.66667 229.2,-4.83333 224.367,-1.77636e-15 219.533,-1.77636e-15 219.533,-1.77636e-15 209.867,-1.77636e-15 209.867,-1.77636e-15 205.033,-1.77636e-15 200.2,-4.83333 200.2,-9.66667 200.2,-9.66667 200.2,-19.3333 200.2,-19.3333 200.2,-24.1667 205.033,-29 209.867,-29"/>
<text text-anchor="middle" x="214.7" y="-10.8" font-family="Times,serif" font-size="14.00">[]</text>
</a>
</g>
</g>
<!-- nd182 -->
<g id="node4" class="node"><title>nd182</title>
<g id="a_node4"><a xlink:title="nd182&#45;ConstListGraph">
<path fill="none" stroke="purple" d="M167.867,-50C167.867,-50 177.533,-50 177.533,-50 182.367,-50 187.2,-45.1667 187.2,-40.3333 187.2,-40.3333 187.2,-30.6667 187.2,-30.6667 187.2,-25.8333 182.367,-21 177.533,-21 177.533,-21 167.867,-21 167.867,-21 163.033,-21 158.2,-25.8333 158.2,-30.6667 158.2,-30.6667 158.2,-40.3333 158.2,-40.3333 158.2,-45.1667 163.033,-50 167.867,-50"/>
<text text-anchor="middle" x="172.7" y="-31.8" font-family="Times,serif" font-size="14.00">::</text>
</a>
</g>
</g>
<!-- nd182&#45;&gt;nd34 -->
<g id="edge1" class="edge"><title>nd182:n&#45;&gt;nd34:w</title>
<path fill="none" stroke="purple" d="M172.7,-51.5C172.7,-63.9226 187.777,-56.5 200.2,-56.5"/>
</g>
<!-- nd182&#45;&gt;nd39 -->
<g id="edge2" class="edge"><title>nd182:s&#45;&gt;nd39:w</title>
<path fill="none" stroke="purple" d="M172.7,-19.5C172.7,-7.0774 187.777,-14.5 200.2,-14.5"/>
</g>
<!-- nd314 -->
<g id="node5" class="node"><title>nd314</title>
<g id="a_node5"><a xlink:title="nd314&#45;RecurGraph">
<ellipse fill="none" stroke="#000000" cx="111.6" cy="-61.5" rx="11" ry="11"/>
<text text-anchor="middle" x="111.6" y="-57.8" font-family="Times,serif" font-size="14.00">rec</text>
</a>
</g>
</g>
<!-- ndcluster_nd318 -->
<g id="node6" class="node"><title>ndcluster_nd318</title>
<g id="a_node6"><a xlink:title="nd318">
<ellipse fill="orange" stroke="orange" cx="140.4" cy="-66.5" rx="1.8" ry="1.8"/>
</a>
</g>
</g>
<!-- nd314&#45;&gt;ndcluster_nd318 -->
<g id="edge9" class="edge"><title>nd314:n&#45;&gt;ndcluster_nd318:e</title>
<path fill="none" stroke="grey" d="M111.6,-73.5C111.6,-87.9717 157.872,-66.5 143.4,-66.5"/>
</g>
<!-- nd314&#45;&gt;ndcluster_nd318 -->
<g id="edge10" class="edge"><title>nd314:e&#45;&gt;ndcluster_nd318:w</title>
<path fill="none" stroke="black" d="M122.6,-61.5C129.543,-61.5 130.457,-66.5 137.4,-66.5"/>
</g>
<!-- nd256 -->
<g id="node8" class="node"><title>nd256</title>
<g id="a_node8"><a xlink:title="nd256&#45;AppGraph">
<path fill="none" stroke="#000000" d="M65.5473,-66.5543C65.5473,-66.5543 61.6719,-60.9457 61.6719,-60.9457 60.136,-58.7229 60.136,-54.2771 61.6719,-52.0543 61.6719,-52.0543 65.5473,-46.4457 65.5473,-46.4457 67.0833,-44.2229 71.3212,-42.0023 74.0231,-42.0045 74.0231,-42.0045 79.4269,-42.009 79.4269,-42.009 82.1288,-42.0113 84.8307,-44.7155 84.8307,-47.4174 84.8307,-47.4174 84.8307,-65.5826 84.8307,-65.5826 84.8307,-68.2845 82.1288,-70.9887 79.4269,-70.991 79.4269,-70.991 74.0231,-70.9955 74.0231,-70.9955 71.3212,-70.9977 67.0833,-68.7771 65.5473,-66.5543"/>
<text text-anchor="middle" x="73.1" y="-52.8" font-family="Times,serif" font-size="14.00">@</text>
</a>
</g>
</g>
<!-- nd255&#45;&gt;nd256 -->
<g id="edge6" class="edge"><title>nd255:e&#45;&gt;nd256:w</title>
<path fill="none" stroke="#b70000" d="M44.1,-42.5C53.0581,-42.5 49.6419,-56.5 58.6,-56.5"/>
</g>
<!-- nd386 -->
<g id="node11" class="node"><title>nd386</title>
<g id="a_node11"><a xlink:title="nd386&#45;ConstGraph">
<path fill="none" stroke="purple" d="M68.2667,-29C68.2667,-29 77.9333,-29 77.9333,-29 82.7667,-29 87.6,-24.1667 87.6,-19.3333 87.6,-19.3333 87.6,-9.66667 87.6,-9.66667 87.6,-4.83333 82.7667,-1.77636e-15 77.9333,-1.77636e-15 77.9333,-1.77636e-15 68.2667,-1.77636e-15 68.2667,-1.77636e-15 63.4333,-1.77636e-15 58.6,-4.83333 58.6,-9.66667 58.6,-9.66667 58.6,-19.3333 58.6,-19.3333 58.6,-24.1667 63.4333,-29 68.2667,-29"/>
<text text-anchor="middle" x="73.1" y="-10.8" font-family="Times,serif" font-size="14.00">6</text>
</a>
</g>
</g>
<!-- nd255&#45;&gt;nd386 -->
<g id="edge7" class="edge"><title>nd255:s&#45;&gt;nd386:w</title>
<path fill="none" stroke="black" d="M31.1,-26.5C31.1,-13.1648 45.2648,-14.5 58.6,-14.5"/>
</g>
<!-- nd256&#45;&gt;nd314 -->
<g id="edge5" class="edge"><title>nd256:e&#45;&gt;nd314:w</title>
<path fill="none" stroke="black" d="M86.1,-56.5C92.9168,-56.5 93.7832,-61.5 100.6,-61.5"/>
</g>
<!-- nd377 -->
<g id="node10" class="node"><title>nd377</title>
<g id="a_node10"><a xlink:title="nd377&#45;ContractGraph">
<ellipse fill="black" stroke="black" cx="111.6" cy="-35.5" rx="1.8" ry="1.8"/>
</a>
</g>
</g>
<!-- nd256&#45;&gt;nd377 -->
<g id="edge4" class="edge"><title>nd256:s&#45;&gt;nd377:w</title>
<path fill="none" stroke="#b70000" d="M73.1,-40.5C73.1,-36.5166 104.617,-35.5 108.6,-35.5"/>
</g>
<!-- nd364 -->
<g id="node9" class="node"><title>nd364</title>
<g id="a_node9"><a xlink:title="nd364&#45;ContractGraph">
<ellipse fill="black" stroke="black" cx="140.4" cy="-35.5" rx="1.8" ry="1.8"/>
</a>
</g>
</g>
<!-- nd364&#45;&gt;nd182 -->
<g id="edge3" class="edge"><title>nd364:e&#45;&gt;nd182:w</title>
<path fill="none" stroke="black" d="M143.4,-35.5C149.978,-35.5 151.622,-35.5 158.2,-35.5"/>
</g>
<!-- nd377&#45;&gt;nd364 -->
<g id="edge11" class="edge"><title>nd377:e&#45;&gt;nd364:w</title>
<path fill="none" stroke="red" d="M114.6,-35.5C120.3,-35.5 123.595,-35.5 127.191,-35.5"/>
<polygon fill="red" stroke="red" points="127.4,-39.0001 137.4,-35.5 127.4,-32.0001 127.4,-39.0001"/>
</g>
</g>
</svg>
