<?xml version="1.0" encoding="UTF-8" standalone="no"?>
<!DOCTYPE svg PUBLIC "-//W3C//DTD SVG 1.1//EN"
 "http://www.w3.org/Graphics/SVG/1.1/DTD/svg11.dtd">
<!-- Generated by graphviz version 2.38.0 (20140413.2041)
 -->
<!-- Title: G Pages: 1 -->
<svg width="391pt" height="209pt"
 viewBox="0.00 0.00 391.20 209.45" xmlns="http://www.w3.org/2000/svg" xmlns:xlink="http://www.w3.org/1999/xlink">
<g id="graph0" class="graph" transform="scale(1 1) rotate(0) translate(4 205.453)">
<title>G</title>
<polygon fill="white" stroke="none" points="-4,4 -4,-205.453 387.2,-205.453 387.2,4 -4,4"/>
<g id="clust1" class="cluster"><title>cluster_nd472</title>
<polygon fill="none" stroke="orange" points="286.3,-172.5 286.3,-192.5 305.9,-192.5 305.9,-172.5 286.3,-172.5"/>
</g>
<g id="clust2" class="cluster"><title>cluster_nd415</title>
<polygon fill="none" stroke="orange" points="284.3,-75.5 284.3,-118.5 307.9,-118.5 307.9,-75.5 284.3,-75.5"/>
<text text-anchor="middle" x="296.1" y="-103.3" font-family="Times,serif" font-size="14.00">tl</text>
</g>
<g id="clust3" class="cluster"><title>cluster_nd424</title>
<polygon fill="none" stroke="orange" points="281.3,-24.5 281.3,-67.5 310.9,-67.5 310.9,-24.5 281.3,-24.5"/>
<text text-anchor="middle" x="296.1" y="-52.3" font-family="Times,serif" font-size="14.00">hd</text>
</g>
<!-- nd1 -->
<g id="node1" class="node"><title>nd1</title>
<ellipse fill="black" stroke="black" cx="1.8" cy="-136.5" rx="1.8" ry="1.8"/>
</g>
<!-- nd401 -->
<g id="node6" class="node"><title>nd401</title>
<g id="a_node6"><a xlink:title="nd401&#45;IfGraph">
<ellipse fill="none" stroke="#000000" cx="35.1" cy="-136.5" rx="14.5" ry="14.5"/>
<text text-anchor="middle" x="35.1" y="-132.8" font-family="Times,serif" font-size="14.00">if</text>
</a>
</g>
</g>
<!-- nd1&#45;&gt;nd401 -->
<g id="edge15" class="edge"><title>nd1:e&#45;&gt;nd401:w</title>
<path fill="none" stroke="#b70000" d="M3.6,-136.5C11.1556,-136.5 13.0444,-136.5 20.6,-136.5"/>
</g>
<!-- nd39 -->
<g id="node2" class="node"><title>nd39</title>
<g id="a_node2"><a xlink:title="nd39&#45;ConstEmptyGraph">
<path fill="none" stroke="purple" d="M363.867,-29C363.867,-29 373.533,-29 373.533,-29 378.367,-29 383.2,-24.1667 383.2,-19.3333 383.2,-19.3333 383.2,-9.66667 383.2,-9.66667 383.2,-4.83333 378.367,-1.77636e-15 373.533,-1.77636e-15 373.533,-1.77636e-15 363.867,-1.77636e-15 363.867,-1.77636e-15 359.033,-1.77636e-15 354.2,-4.83333 354.2,-9.66667 354.2,-9.66667 354.2,-19.3333 354.2,-19.3333 354.2,-24.1667 359.033,-29 363.867,-29"/>
<text text-anchor="middle" x="368.7" y="-10.8" font-family="Times,serif" font-size="14.00">[]</text>
</a>
</g>
</g>
<!-- nd463 -->
<g id="node3" class="node"><title>nd463</title>
<g id="a_node3"><a xlink:title="nd463&#45;ConstGraph">
<path fill="none" stroke="purple" d="M291.267,-156C291.267,-156 300.933,-156 300.933,-156 305.767,-156 310.6,-151.167 310.6,-146.333 310.6,-146.333 310.6,-136.667 310.6,-136.667 310.6,-131.833 305.767,-127 300.933,-127 300.933,-127 291.267,-127 291.267,-127 286.433,-127 281.6,-131.833 281.6,-136.667 281.6,-136.667 281.6,-146.333 281.6,-146.333 281.6,-151.167 286.433,-156 291.267,-156"/>
<text text-anchor="middle" x="296.1" y="-137.8" font-family="Times,serif" font-size="14.00">10</text>
</a>
</g>
</g>
<!-- nd468 -->
<g id="node4" class="node"><title>nd468</title>
<g id="a_node4"><a xlink:title="nd468&#45;RecurGraph">
<ellipse fill="none" stroke="#000000" cx="244.1" cy="-166.5" rx="11" ry="11"/>
<text text-anchor="middle" x="244.1" y="-162.8" font-family="Times,serif" font-size="14.00">rec</text>
</a>
</g>
</g>
<!-- ndcluster_nd472 -->
<g id="node5" class="node"><title>ndcluster_nd472</title>
<g id="a_node5"><a xlink:title="nd472">
<ellipse fill="orange" stroke="orange" cx="296.1" cy="-182.5" rx="1.8" ry="1.8"/>
</a>
</g>
</g>
<!-- nd468&#45;&gt;ndcluster_nd472 -->
<g id="edge18" class="edge"><title>nd468:n&#45;&gt;ndcluster_nd472:e</title>
<path fill="none" stroke="grey" d="M244.1,-178.5C244.1,-227.299 307.013,-182.5 299.1,-182.5"/>
</g>
<!-- nd468&#45;&gt;ndcluster_nd472 -->
<g id="edge19" class="edge"><title>nd468:e&#45;&gt;ndcluster_nd472:w</title>
<path fill="none" stroke="black" d="M256.1,-166.5C274.016,-166.5 275.184,-182.5 293.1,-182.5"/>
</g>
<!-- nd409 -->
<g id="node7" class="node"><title>nd409</title>
<g id="a_node7"><a xlink:title="nd409&#45;AppGraph">
<path fill="none" stroke="#000000" d="M111.547,-111.554C111.547,-111.554 107.672,-105.946 107.672,-105.946 106.136,-103.723 106.136,-99.2771 107.672,-97.0543 107.672,-97.0543 111.547,-91.4457 111.547,-91.4457 113.083,-89.2229 117.321,-87.0023 120.023,-87.0045 120.023,-87.0045 125.427,-87.009 125.427,-87.009 128.129,-87.0113 130.831,-89.7155 130.831,-92.4174 130.831,-92.4174 130.831,-110.583 130.831,-110.583 130.831,-113.285 128.129,-115.989 125.427,-115.991 125.427,-115.991 120.023,-115.995 120.023,-115.995 117.321,-115.998 113.083,-113.777 111.547,-111.554"/>
<text text-anchor="middle" x="119.1" y="-97.8" font-family="Times,serif" font-size="14.00">@</text>
</a>
</g>
</g>
<!-- nd401&#45;&gt;nd409 -->
<g id="edge11" class="edge"><title>nd401:s&#45;&gt;nd409:w</title>
<path fill="none" stroke="grey" d="M35.1,-120.5C35.1,-108.423 78.9954,-101.5 104.6,-101.5"/>
<text text-anchor="middle" x="77.1" y="-111.3" font-family="Times,serif" font-size="14.00">is false</text>
</g>
<!-- nd429 -->
<g id="node15" class="node"><title>nd429</title>
<g id="a_node15"><a xlink:title="nd429&#45;ContractGraph">
<ellipse fill="black" stroke="black" cx="244.1" cy="-136.5" rx="1.8" ry="1.8"/>
</a>
</g>
</g>
<!-- nd401&#45;&gt;nd429 -->
<g id="edge13" class="edge"><title>nd401:e&#45;&gt;nd429:w</title>
<path fill="none" stroke="grey" d="M49.6,-136.5C134.711,-136.5 155.989,-136.5 241.1,-136.5"/>
<text text-anchor="middle" x="158.6" y="-141.3" font-family="Times,serif" font-size="14.00">is true</text>
</g>
<!-- nd518 -->
<g id="node17" class="node"><title>nd518</title>
<g id="a_node17"><a xlink:title="nd518&#45;ConstGraph">
<path fill="none" stroke="purple" d="M114.267,-186C114.267,-186 123.933,-186 123.933,-186 128.767,-186 133.6,-181.167 133.6,-176.333 133.6,-176.333 133.6,-166.667 133.6,-166.667 133.6,-161.833 128.767,-157 123.933,-157 123.933,-157 114.267,-157 114.267,-157 109.433,-157 104.6,-161.833 104.6,-166.667 104.6,-166.667 104.6,-176.333 104.6,-176.333 104.6,-181.167 109.433,-186 114.267,-186"/>
<text text-anchor="middle" x="119.1" y="-167.8" font-family="Times,serif" font-size="14.00">true</text>
</a>
</g>
</g>
<!-- nd401&#45;&gt;nd518 -->
<g id="edge1" class="edge"><title>nd401:n&#45;&gt;nd518:w</title>
<path fill="none" stroke="red" d="M36.7729,-162.51C44.3842,-181.47 76.5804,-171.5 104.6,-171.5"/>
<polygon fill="red" stroke="red" points="40.2005,-161.786 35.1,-152.5 33.2963,-162.94 40.2005,-161.786"/>
</g>
<!-- nd410 -->
<g id="node8" class="node"><title>nd410</title>
<g id="a_node8"><a xlink:title="nd410&#45;AppGraph">
<path fill="none" stroke="#000000" d="M190.547,-111.554C190.547,-111.554 186.672,-105.946 186.672,-105.946 185.136,-103.723 185.136,-99.2771 186.672,-97.0543 186.672,-97.0543 190.547,-91.4457 190.547,-91.4457 192.083,-89.2229 196.321,-87.0023 199.023,-87.0045 199.023,-87.0045 204.427,-87.009 204.427,-87.009 207.129,-87.0113 209.831,-89.7155 209.831,-92.4174 209.831,-92.4174 209.831,-110.583 209.831,-110.583 209.831,-113.285 207.129,-115.989 204.427,-115.991 204.427,-115.991 199.023,-115.995 199.023,-115.995 196.321,-115.998 192.083,-113.777 190.547,-111.554"/>
<text text-anchor="middle" x="198.1" y="-97.8" font-family="Times,serif" font-size="14.00">@</text>
</a>
</g>
</g>
<!-- nd409&#45;&gt;nd410 -->
<g id="edge7" class="edge"><title>nd409:e&#45;&gt;nd410:w</title>
<path fill="none" stroke="black" d="M132.1,-101.5C154.989,-101.5 160.711,-101.5 183.6,-101.5"/>
</g>
<!-- nd420 -->
<g id="node11" class="node"><title>nd420</title>
<g id="a_node11"><a xlink:title="nd420&#45;BinOpGraph">
<ellipse fill="none" stroke="#000000" cx="198.1" cy="-52.5" rx="14.5" ry="14.5"/>
<text text-anchor="middle" x="198.1" y="-48.8" font-family="Times,serif" font-size="14.00">+</text>
</a>
</g>
</g>
<!-- nd409&#45;&gt;nd420 -->
<g id="edge8" class="edge"><title>nd409:s&#45;&gt;nd420:w</title>
<path fill="none" stroke="black" d="M119.1,-85.5C119.1,-53.2992 151.399,-52.5 183.6,-52.5"/>
</g>
<!-- nd410&#45;&gt;nd468 -->
<g id="edge3" class="edge"><title>nd410:e&#45;&gt;nd468:w</title>
<path fill="none" stroke="black" d="M211.1,-101.5C241.459,-101.5 201.741,-166.5 232.1,-166.5"/>
</g>
<!-- nd412 -->
<g id="node9" class="node"><title>nd412</title>
<g id="a_node9"><a xlink:title="nd412&#45;AppGraph">
<path fill="none" stroke="#000000" d="M236.547,-95.5543C236.547,-95.5543 232.672,-89.9457 232.672,-89.9457 231.136,-87.7229 231.136,-83.2771 232.672,-81.0543 232.672,-81.0543 236.547,-75.4457 236.547,-75.4457 238.083,-73.2229 242.321,-71.0023 245.023,-71.0045 245.023,-71.0045 250.427,-71.009 250.427,-71.009 253.129,-71.0113 255.831,-73.7155 255.831,-76.4174 255.831,-76.4174 255.831,-94.5826 255.831,-94.5826 255.831,-97.2845 253.129,-99.9887 250.427,-99.991 250.427,-99.991 245.023,-99.9955 245.023,-99.9955 242.321,-99.9977 238.083,-97.7771 236.547,-95.5543"/>
<text text-anchor="middle" x="244.1" y="-81.8" font-family="Times,serif" font-size="14.00">@</text>
</a>
</g>
</g>
<!-- nd410&#45;&gt;nd412 -->
<g id="edge4" class="edge"><title>nd410:s&#45;&gt;nd412:w</title>
<path fill="none" stroke="black" d="M198.1,-85.5C198.1,-71.5 215.6,-85.5 229.6,-85.5"/>
</g>
<!-- ndcluster_nd415 -->
<g id="node10" class="node"><title>ndcluster_nd415</title>
<g id="a_node10"><a xlink:title="nd415">
<ellipse fill="orange" stroke="orange" cx="296.1" cy="-85.5" rx="1.8" ry="1.8"/>
</a>
</g>
</g>
<!-- nd412&#45;&gt;ndcluster_nd415 -->
<g id="edge2" class="edge"><title>nd412:e&#45;&gt;ndcluster_nd415:w</title>
<path fill="none" stroke="black" d="M257.1,-85.5C273.1,-85.5 277.1,-85.5 293.1,-85.5"/>
</g>
<!-- nd428 -->
<g id="node14" class="node"><title>nd428</title>
<g id="a_node14"><a xlink:title="nd428&#45;ContractGraph">
<ellipse fill="black" stroke="black" cx="296.1" cy="-14.5" rx="1.8" ry="1.8"/>
</a>
</g>
</g>
<!-- nd412&#45;&gt;nd428 -->
<g id="edge10" class="edge"><title>nd412:s&#45;&gt;nd428:w</title>
<path fill="none" stroke="black" d="M244.1,-69.5C244.1,-60.5419 252.858,-62.3756 258.6,-55.5 273.866,-37.2211 269.285,-14.5 293.1,-14.5"/>
</g>
<!-- nd421 -->
<g id="node12" class="node"><title>nd421</title>
<g id="a_node12"><a xlink:title="nd421&#45;AppGraph">
<path fill="none" stroke="#000000" d="M236.547,-44.5543C236.547,-44.5543 232.672,-38.9457 232.672,-38.9457 231.136,-36.7229 231.136,-32.2771 232.672,-30.0543 232.672,-30.0543 236.547,-24.4457 236.547,-24.4457 238.083,-22.2229 242.321,-20.0023 245.023,-20.0045 245.023,-20.0045 250.427,-20.009 250.427,-20.009 253.129,-20.0113 255.831,-22.7155 255.831,-25.4174 255.831,-25.4174 255.831,-43.5826 255.831,-43.5826 255.831,-46.2845 253.129,-48.9887 250.427,-48.991 250.427,-48.991 245.023,-48.9955 245.023,-48.9955 242.321,-48.9977 238.083,-46.7771 236.547,-44.5543"/>
<text text-anchor="middle" x="244.1" y="-30.8" font-family="Times,serif" font-size="14.00">@</text>
</a>
</g>
</g>
<!-- nd420&#45;&gt;nd421 -->
<g id="edge6" class="edge"><title>nd420:s&#45;&gt;nd421:w</title>
<path fill="none" stroke="black" d="M198.1,-36.5C198.1,-22.4718 215.572,-34.5 229.6,-34.5"/>
</g>
<!-- nd420&#45;&gt;nd429 -->
<g id="edge12" class="edge"><title>nd420:n&#45;&gt;nd429:w</title>
<path fill="none" stroke="black" d="M198.1,-68.5C198.1,-76.8651 207.372,-73.9699 212.6,-80.5 214.782,-83.2251 237.609,-136.5 241.1,-136.5"/>
</g>
<!-- ndcluster_nd424 -->
<g id="node13" class="node"><title>ndcluster_nd424</title>
<g id="a_node13"><a xlink:title="nd424">
<ellipse fill="orange" stroke="orange" cx="296.1" cy="-34.5" rx="1.8" ry="1.8"/>
</a>
</g>
</g>
<!-- nd421&#45;&gt;ndcluster_nd424 -->
<g id="edge5" class="edge"><title>nd421:e&#45;&gt;ndcluster_nd424:w</title>
<path fill="none" stroke="black" d="M257.1,-34.5C273.1,-34.5 277.1,-34.5 293.1,-34.5"/>
</g>
<!-- nd421&#45;&gt;nd428 -->
<g id="edge9" class="edge"><title>nd421:s&#45;&gt;nd428:w</title>
<path fill="none" stroke="black" d="M244.1,-18.5C244.1,3.35022 271.25,-14.5 293.1,-14.5"/>
</g>
<!-- nd430 -->
<g id="node16" class="node"><title>nd430</title>
<g id="a_node16"><a xlink:title="nd430&#45;ContractGraph">
<ellipse fill="black" stroke="black" cx="329.4" cy="-14.5" rx="1.8" ry="1.8"/>
</a>
</g>
</g>
<!-- nd428&#45;&gt;nd430 -->
<g id="edge14" class="edge"><title>nd428:e&#45;&gt;nd430:w</title>
<path fill="none" stroke="black" d="M299.1,-14.5C311.767,-14.5 314.933,-14.5 327.6,-14.5"/>
</g>
<!-- nd429&#45;&gt;nd463 -->
<g id="edge16" class="edge"><title>nd429:e&#45;&gt;nd463:w</title>
<path fill="none" stroke="black" d="M247.1,-136.5C262.462,-136.5 265.938,-141.5 281.3,-141.5"/>
<text text-anchor="middle" x="270.1" y="-145.3" font-family="Times,serif" font-size="14.00">y</text>
</g>
<!-- nd430&#45;&gt;nd39 -->
<g id="edge17" class="edge"><title>nd430:e&#45;&gt;nd39:w</title>
<path fill="none" stroke="black" d="M331.2,-14.5C341.422,-14.5 343.978,-14.5 354.2,-14.5"/>
<text text-anchor="middle" x="342.7" y="-18.3" font-family="Times,serif" font-size="14.00">x</text>
</g>
</g>
</svg>
