<?xml version="1.0" encoding="UTF-8" standalone="no"?>
<!DOCTYPE svg PUBLIC "-//W3C//DTD SVG 1.1//EN"
 "http://www.w3.org/Graphics/SVG/1.1/DTD/svg11.dtd">
<!-- Generated by graphviz version 2.38.0 (20140413.2041)
 -->
<!-- Title: G Pages: 1 -->
<svg width="472pt" height="227pt"
 viewBox="0.00 0.00 471.80 226.50" xmlns="http://www.w3.org/2000/svg" xmlns:xlink="http://www.w3.org/1999/xlink">
<g id="graph0" class="graph" transform="scale(1 1) rotate(0) translate(4 222.5)">
<title>G</title>
<polygon fill="white" stroke="none" points="-4,4 -4,-222.5 467.8,-222.5 467.8,4 -4,4"/>
<g id="clust1" class="cluster"><title>cluster_nd241</title>
<polygon fill="none" stroke="orange" points="163.3,-190.5 163.3,-210.5 182.9,-210.5 182.9,-190.5 163.3,-190.5"/>
</g>
<g id="clust2" class="cluster"><title>cluster_nd160</title>
<polygon fill="none" stroke="orange" points="161.3,-138.5 161.3,-181.5 184.9,-181.5 184.9,-138.5 161.3,-138.5"/>
<text text-anchor="middle" x="173.1" y="-166.3" font-family="Times,serif" font-size="14.00">tl</text>
</g>
<!-- nd1 -->
<g id="node1" class="node"><title>nd1</title>
<ellipse fill="black" stroke="black" cx="1.8" cy="-129.5" rx="1.8" ry="1.8"/>
</g>
<!-- nd154 -->
<g id="node12" class="node"><title>nd154</title>
<g id="a_node12"><a xlink:title="nd154&#45;AppGraph">
<path fill="none" stroke="#000000" d="M27.5473,-139.554C27.5473,-139.554 23.6719,-133.946 23.6719,-133.946 22.136,-131.723 22.136,-127.277 23.6719,-125.054 23.6719,-125.054 27.5473,-119.446 27.5473,-119.446 29.0833,-117.223 33.3212,-115.002 36.0231,-115.005 36.0231,-115.005 41.4269,-115.009 41.4269,-115.009 44.1288,-115.011 46.8307,-117.715 46.8307,-120.417 46.8307,-120.417 46.8307,-138.583 46.8307,-138.583 46.8307,-141.285 44.1288,-143.989 41.4269,-143.991 41.4269,-143.991 36.0231,-143.995 36.0231,-143.995 33.3212,-143.998 29.0833,-141.777 27.5473,-139.554"/>
<text text-anchor="middle" x="35.1" y="-125.8" font-family="Times,serif" font-size="14.00">@</text>
</a>
</g>
</g>
<!-- nd1&#45;&gt;nd154 -->
<g id="edge15" class="edge"><title>nd1:e&#45;&gt;nd154:w</title>
<path fill="none" stroke="#b70000" d="M3.6,-129.5C11.1556,-129.5 13.0444,-129.5 20.6,-129.5"/>
</g>
<!-- nd22 -->
<g id="node2" class="node"><title>nd22</title>
<g id="a_node2"><a xlink:title="nd22&#45;ConstGraph">
<path fill="none" stroke="purple" d="M352.467,-115C352.467,-115 362.133,-115 362.133,-115 366.967,-115 371.8,-110.167 371.8,-105.333 371.8,-105.333 371.8,-95.6667 371.8,-95.6667 371.8,-90.8333 366.967,-86 362.133,-86 362.133,-86 352.467,-86 352.467,-86 347.633,-86 342.8,-90.8333 342.8,-95.6667 342.8,-95.6667 342.8,-105.333 342.8,-105.333 342.8,-110.167 347.633,-115 352.467,-115"/>
<text text-anchor="middle" x="357.3" y="-96.8" font-family="Times,serif" font-size="14.00">2</text>
</a>
</g>
</g>
<!-- nd28 -->
<g id="node3" class="node"><title>nd28</title>
<g id="a_node3"><a xlink:title="nd28&#45;ConstGraph">
<path fill="none" stroke="purple" d="M398.467,-92C398.467,-92 408.133,-92 408.133,-92 412.967,-92 417.8,-87.1667 417.8,-82.3333 417.8,-82.3333 417.8,-72.6667 417.8,-72.6667 417.8,-67.8333 412.967,-63 408.133,-63 408.133,-63 398.467,-63 398.467,-63 393.633,-63 388.8,-67.8333 388.8,-72.6667 388.8,-72.6667 388.8,-82.3333 388.8,-82.3333 388.8,-87.1667 393.633,-92 398.467,-92"/>
<text text-anchor="middle" x="403.3" y="-73.8" font-family="Times,serif" font-size="14.00">3</text>
</a>
</g>
</g>
<!-- nd34 -->
<g id="node4" class="node"><title>nd34</title>
<g id="a_node4"><a xlink:title="nd34&#45;ConstGraph">
<path fill="none" stroke="purple" d="M444.467,-71C444.467,-71 454.133,-71 454.133,-71 458.967,-71 463.8,-66.1667 463.8,-61.3333 463.8,-61.3333 463.8,-51.6667 463.8,-51.6667 463.8,-46.8333 458.967,-42 454.133,-42 454.133,-42 444.467,-42 444.467,-42 439.633,-42 434.8,-46.8333 434.8,-51.6667 434.8,-51.6667 434.8,-61.3333 434.8,-61.3333 434.8,-66.1667 439.633,-71 444.467,-71"/>
<text text-anchor="middle" x="449.3" y="-52.8" font-family="Times,serif" font-size="14.00">4</text>
</a>
</g>
</g>
<!-- nd39 -->
<g id="node5" class="node"><title>nd39</title>
<g id="a_node5"><a xlink:title="nd39&#45;ConstEmptyGraph">
<path fill="none" stroke="purple" d="M444.467,-29C444.467,-29 454.133,-29 454.133,-29 458.967,-29 463.8,-24.1667 463.8,-19.3333 463.8,-19.3333 463.8,-9.66667 463.8,-9.66667 463.8,-4.83333 458.967,-1.77636e-15 454.133,-1.77636e-15 454.133,-1.77636e-15 444.467,-1.77636e-15 444.467,-1.77636e-15 439.633,-1.77636e-15 434.8,-4.83333 434.8,-9.66667 434.8,-9.66667 434.8,-19.3333 434.8,-19.3333 434.8,-24.1667 439.633,-29 444.467,-29"/>
<text text-anchor="middle" x="449.3" y="-10.8" font-family="Times,serif" font-size="14.00">[]</text>
</a>
</g>
</g>
<!-- nd182 -->
<g id="node6" class="node"><title>nd182</title>
<g id="a_node6"><a xlink:title="nd182&#45;ConstListGraph">
<path fill="none" stroke="purple" d="M398.467,-50C398.467,-50 408.133,-50 408.133,-50 412.967,-50 417.8,-45.1667 417.8,-40.3333 417.8,-40.3333 417.8,-30.6667 417.8,-30.6667 417.8,-25.8333 412.967,-21 408.133,-21 408.133,-21 398.467,-21 398.467,-21 393.633,-21 388.8,-25.8333 388.8,-30.6667 388.8,-30.6667 388.8,-40.3333 388.8,-40.3333 388.8,-45.1667 393.633,-50 398.467,-50"/>
<text text-anchor="middle" x="403.3" y="-31.8" font-family="Times,serif" font-size="14.00">::</text>
</a>
</g>
</g>
<!-- nd182&#45;&gt;nd34 -->
<g id="edge1" class="edge"><title>nd182:n&#45;&gt;nd34:w</title>
<path fill="none" stroke="purple" d="M403.3,-51.5C403.3,-55.0438 431.256,-56.5 434.8,-56.5"/>
</g>
<!-- nd182&#45;&gt;nd39 -->
<g id="edge2" class="edge"><title>nd182:s&#45;&gt;nd39:w</title>
<path fill="none" stroke="purple" d="M403.3,-19.5C403.3,-5.32473 420.625,-14.5 434.8,-14.5"/>
</g>
<!-- nd188 -->
<g id="node7" class="node"><title>nd188</title>
<g id="a_node7"><a xlink:title="nd188&#45;ConstListGraph">
<path fill="none" stroke="purple" d="M352.467,-71C352.467,-71 362.133,-71 362.133,-71 366.967,-71 371.8,-66.1667 371.8,-61.3333 371.8,-61.3333 371.8,-51.6667 371.8,-51.6667 371.8,-46.8333 366.967,-42 362.133,-42 362.133,-42 352.467,-42 352.467,-42 347.633,-42 342.8,-46.8333 342.8,-51.6667 342.8,-51.6667 342.8,-61.3333 342.8,-61.3333 342.8,-66.1667 347.633,-71 352.467,-71"/>
<text text-anchor="middle" x="357.3" y="-52.8" font-family="Times,serif" font-size="14.00">::</text>
</a>
</g>
</g>
<!-- nd188&#45;&gt;nd28 -->
<g id="edge3" class="edge"><title>nd188:n&#45;&gt;nd28:w</title>
<path fill="none" stroke="purple" d="M357.3,-72.5C357.3,-79.5876 381.712,-77.5 388.8,-77.5"/>
</g>
<!-- nd188&#45;&gt;nd182 -->
<g id="edge4" class="edge"><title>nd188:s&#45;&gt;nd182:w</title>
<path fill="none" stroke="purple" d="M357.3,-40.5C357.3,-26.3247 374.625,-35.5 388.8,-35.5"/>
</g>
<!-- nd194 -->
<g id="node8" class="node"><title>nd194</title>
<g id="a_node8"><a xlink:title="nd194&#45;ConstListGraph">
<path fill="none" stroke="purple" d="M265.267,-157C265.267,-157 274.933,-157 274.933,-157 279.767,-157 284.6,-152.167 284.6,-147.333 284.6,-147.333 284.6,-137.667 284.6,-137.667 284.6,-132.833 279.767,-128 274.933,-128 274.933,-128 265.267,-128 265.267,-128 260.433,-128 255.6,-132.833 255.6,-137.667 255.6,-137.667 255.6,-147.333 255.6,-147.333 255.6,-152.167 260.433,-157 265.267,-157"/>
<text text-anchor="middle" x="270.1" y="-138.8" font-family="Times,serif" font-size="14.00">::</text>
</a>
</g>
</g>
<!-- nd299 -->
<g id="node22" class="node"><title>nd299</title>
<g id="a_node22"><a xlink:title="nd299&#45;ContractGraph">
<ellipse fill="black" stroke="black" cx="303.4" cy="-100.5" rx="1.8" ry="1.8"/>
</a>
</g>
</g>
<!-- nd194&#45;&gt;nd299 -->
<g id="edge5" class="edge"><title>nd194:n&#45;&gt;nd299:w</title>
<path fill="none" stroke="black" d="M270.1,-158.5C270.1,-164.96 279.393,-161.323 284.6,-157.5 292.107,-151.988 300.427,-100.5 301.6,-100.5"/>
</g>
<!-- nd300 -->
<g id="node23" class="node"><title>nd300</title>
<g id="a_node23"><a xlink:title="nd300&#45;ContractGraph">
<ellipse fill="black" stroke="black" cx="303.4" cy="-56.5" rx="1.8" ry="1.8"/>
</a>
</g>
</g>
<!-- nd194&#45;&gt;nd300 -->
<g id="edge6" class="edge"><title>nd194:s&#45;&gt;nd300:w</title>
<path fill="none" stroke="black" d="M270.1,-126.5C270.1,-119.683 279.967,-126.5 284.6,-121.5 294.747,-110.548 286.67,-56.5 301.6,-56.5"/>
</g>
<!-- nd232 -->
<g id="node9" class="node"><title>nd232</title>
<g id="a_node9"><a xlink:title="nd232&#45;ConstGraph">
<path fill="none" stroke="purple" d="M265.267,-115C265.267,-115 274.933,-115 274.933,-115 279.767,-115 284.6,-110.167 284.6,-105.333 284.6,-105.333 284.6,-95.6667 284.6,-95.6667 284.6,-90.8333 279.767,-86 274.933,-86 274.933,-86 265.267,-86 265.267,-86 260.433,-86 255.6,-90.8333 255.6,-95.6667 255.6,-95.6667 255.6,-105.333 255.6,-105.333 255.6,-110.167 260.433,-115 265.267,-115"/>
<text text-anchor="middle" x="270.1" y="-96.8" font-family="Times,serif" font-size="14.00">1</text>
</a>
</g>
</g>
<!-- nd237 -->
<g id="node10" class="node"><title>nd237</title>
<g id="a_node10"><a xlink:title="nd237&#45;RecurGraph">
<ellipse fill="none" stroke="#000000" cx="127.1" cy="-182.5" rx="11" ry="11"/>
<text text-anchor="middle" x="127.1" y="-178.8" font-family="Times,serif" font-size="14.00">rec</text>
</a>
</g>
</g>
<!-- ndcluster_nd241 -->
<g id="node11" class="node"><title>ndcluster_nd241</title>
<g id="a_node11"><a xlink:title="nd241">
<ellipse fill="orange" stroke="orange" cx="173.1" cy="-200.5" rx="1.8" ry="1.8"/>
</a>
</g>
</g>
<!-- nd237&#45;&gt;ndcluster_nd241 -->
<g id="edge21" class="edge"><title>nd237:n&#45;&gt;ndcluster_nd241:e</title>
<path fill="none" stroke="grey" d="M127.1,-194.5C127.1,-236.455 183.047,-200.5 176.1,-200.5"/>
</g>
<!-- nd237&#45;&gt;ndcluster_nd241 -->
<g id="edge22" class="edge"><title>nd237:e&#45;&gt;ndcluster_nd241:w</title>
<path fill="none" stroke="black" d="M139.1,-182.5C155.032,-182.5 154.168,-200.5 170.1,-200.5"/>
</g>
<!-- nd155 -->
<g id="node13" class="node"><title>nd155</title>
<g id="a_node13"><a xlink:title="nd155&#45;AppGraph">
<path fill="none" stroke="#000000" d="M73.5473,-168.554C73.5473,-168.554 69.6719,-162.946 69.6719,-162.946 68.136,-160.723 68.136,-156.277 69.6719,-154.054 69.6719,-154.054 73.5473,-148.446 73.5473,-148.446 75.0833,-146.223 79.3212,-144.002 82.0231,-144.005 82.0231,-144.005 87.4269,-144.009 87.4269,-144.009 90.1288,-144.011 92.8307,-146.715 92.8307,-149.417 92.8307,-149.417 92.8307,-167.583 92.8307,-167.583 92.8307,-170.285 90.1288,-172.989 87.4269,-172.991 87.4269,-172.991 82.0231,-172.995 82.0231,-172.995 79.3212,-172.998 75.0833,-170.777 73.5473,-168.554"/>
<text text-anchor="middle" x="81.1" y="-154.8" font-family="Times,serif" font-size="14.00">@</text>
</a>
</g>
</g>
<!-- nd154&#45;&gt;nd155 -->
<g id="edge12" class="edge"><title>nd154:e&#45;&gt;nd155:w</title>
<path fill="none" stroke="black" d="M48.1,-129.5C63.3882,-129.5 51.3118,-158.5 66.6,-158.5"/>
</g>
<!-- nd165 -->
<g id="node16" class="node"><title>nd165</title>
<g id="a_node16"><a xlink:title="nd165&#45;BinOpGraph">
<ellipse fill="none" stroke="#000000" cx="127.1" cy="-85.5" rx="14.5" ry="14.5"/>
<text text-anchor="middle" x="127.1" y="-81.8" font-family="Times,serif" font-size="14.00">+</text>
</a>
</g>
</g>
<!-- nd154&#45;&gt;nd165 -->
<g id="edge13" class="edge"><title>nd154:s&#45;&gt;nd165:w</title>
<path fill="none" stroke="#b70000" d="M35.1,-113.5C35.1,-76.8765 75.9765,-85.5 112.6,-85.5"/>
</g>
<!-- nd155&#45;&gt;nd237 -->
<g id="edge10" class="edge"><title>nd155:e&#45;&gt;nd237:w</title>
<path fill="none" stroke="black" d="M94.1,-158.5C108.274,-158.5 100.926,-182.5 115.1,-182.5"/>
</g>
<!-- nd157 -->
<g id="node14" class="node"><title>nd157</title>
<g id="a_node14"><a xlink:title="nd157&#45;AppGraph">
<path fill="none" stroke="#000000" d="M119.547,-153.554C119.547,-153.554 115.672,-147.946 115.672,-147.946 114.136,-145.723 114.136,-141.277 115.672,-139.054 115.672,-139.054 119.547,-133.446 119.547,-133.446 121.083,-131.223 125.321,-129.002 128.023,-129.005 128.023,-129.005 133.427,-129.009 133.427,-129.009 136.129,-129.011 138.831,-131.715 138.831,-134.417 138.831,-134.417 138.831,-152.583 138.831,-152.583 138.831,-155.285 136.129,-157.989 133.427,-157.991 133.427,-157.991 128.023,-157.995 128.023,-157.995 125.321,-157.998 121.083,-155.777 119.547,-153.554"/>
<text text-anchor="middle" x="127.1" y="-139.8" font-family="Times,serif" font-size="14.00">@</text>
</a>
</g>
</g>
<!-- nd155&#45;&gt;nd157 -->
<g id="edge11" class="edge"><title>nd155:s&#45;&gt;nd157:w</title>
<path fill="none" stroke="black" d="M81.1,-142.5C81.1,-128.493 98.5929,-143.5 112.6,-143.5"/>
</g>
<!-- ndcluster_nd160 -->
<g id="node15" class="node"><title>ndcluster_nd160</title>
<g id="a_node15"><a xlink:title="nd160">
<ellipse fill="orange" stroke="orange" cx="173.1" cy="-148.5" rx="1.8" ry="1.8"/>
</a>
</g>
</g>
<!-- nd157&#45;&gt;ndcluster_nd160 -->
<g id="edge9" class="edge"><title>nd157:e&#45;&gt;ndcluster_nd160:w</title>
<path fill="none" stroke="black" d="M140.1,-143.5C153.617,-143.5 156.583,-148.5 170.1,-148.5"/>
</g>
<!-- nd173 -->
<g id="node17" class="node"><title>nd173</title>
<g id="a_node17"><a xlink:title="nd173&#45;ContractGraph">
<ellipse fill="black" stroke="black" cx="173.1" cy="-128.5" rx="1.8" ry="1.8"/>
</a>
</g>
</g>
<!-- nd157&#45;&gt;nd173 -->
<g id="edge14" class="edge"><title>nd157:s&#45;&gt;nd173:w</title>
<path fill="none" stroke="black" d="M127.1,-127.5C127.1,-108.384 150.984,-128.5 170.1,-128.5"/>
</g>
<!-- nd174 -->
<g id="node18" class="node"><title>nd174</title>
<g id="a_node18"><a xlink:title="nd174&#45;ContractGraph">
<ellipse fill="black" stroke="black" cx="173.1" cy="-100.5" rx="1.8" ry="1.8"/>
</a>
</g>
</g>
<!-- nd165&#45;&gt;nd174 -->
<g id="edge16" class="edge"><title>nd165:n&#45;&gt;nd174:w</title>
<path fill="none" stroke="black" d="M127.1,-101.5C127.1,-120.616 150.984,-100.5 170.1,-100.5"/>
</g>
<!-- nd171 -->
<g id="node24" class="node"><title>nd171</title>
<g id="a_node24"><a xlink:title="nd171&#45;UnOpGraph">
<ellipse fill="none" stroke="#000000" cx="173.1" cy="-64.5" rx="14.5" ry="14.5"/>
<text text-anchor="middle" x="173.1" y="-60.8" font-family="Times,serif" font-size="14.00">hd</text>
</a>
</g>
</g>
<!-- nd165&#45;&gt;nd171 -->
<g id="edge7" class="edge"><title>nd165:s&#45;&gt;nd171:w</title>
<path fill="none" stroke="red" d="M133.81,-61.6387C140.154,-61.0929 149.962,-64.5 158.6,-64.5"/>
<polygon fill="red" stroke="red" points="130.93,-59.6217 127.1,-69.5 136.254,-64.1664 130.93,-59.6217"/>
</g>
<!-- nd173&#45;&gt;nd194 -->
<g id="edge18" class="edge"><title>nd173:e&#45;&gt;nd194:w</title>
<path fill="none" stroke="black" d="M176.1,-128.5C211.977,-128.5 219.723,-142.5 255.6,-142.5"/>
<text text-anchor="middle" x="221.6" y="-145.3" font-family="Times,serif" font-size="14.00">x</text>
</g>
<!-- nd174&#45;&gt;nd232 -->
<g id="edge17" class="edge"><title>nd174:e&#45;&gt;nd232:w</title>
<path fill="none" stroke="black" d="M176.1,-100.5C211.433,-100.5 220.267,-100.5 255.6,-100.5"/>
<text text-anchor="middle" x="221.6" y="-104.3" font-family="Times,serif" font-size="14.00">y</text>
</g>
<!-- nd286 -->
<g id="node19" class="node"><title>nd286</title>
<g id="a_node19"><a xlink:title="nd286&#45;ContractGraph">
<ellipse fill="black" stroke="black" cx="324" cy="-100.5" rx="1.8" ry="1.8"/>
</a>
</g>
</g>
<!-- nd286&#45;&gt;nd22 -->
<g id="edge19" class="edge"><title>nd286:e&#45;&gt;nd22:w</title>
<path fill="none" stroke="black" d="M325.8,-100.5C333.356,-100.5 335.244,-100.5 342.8,-100.5"/>
</g>
<!-- nd287 -->
<g id="node20" class="node"><title>nd287</title>
<g id="a_node20"><a xlink:title="nd287&#45;ContractGraph">
<ellipse fill="black" stroke="black" cx="324" cy="-56.5" rx="1.8" ry="1.8"/>
</a>
</g>
</g>
<!-- nd287&#45;&gt;nd188 -->
<g id="edge20" class="edge"><title>nd287:e&#45;&gt;nd188:w</title>
<path fill="none" stroke="black" d="M325.8,-56.5C333.356,-56.5 335.244,-56.5 342.8,-56.5"/>
</g>
<!-- nd296 -->
<g id="node21" class="node"><title>nd296</title>
<g id="a_node21"><a xlink:title="nd296&#45;ConstListGraph">
<path fill="none" stroke="purple" d="M265.267,-73C265.267,-73 274.933,-73 274.933,-73 279.767,-73 284.6,-68.1667 284.6,-63.3333 284.6,-63.3333 284.6,-53.6667 284.6,-53.6667 284.6,-48.8333 279.767,-44 274.933,-44 274.933,-44 265.267,-44 265.267,-44 260.433,-44 255.6,-48.8333 255.6,-53.6667 255.6,-53.6667 255.6,-63.3333 255.6,-63.3333 255.6,-68.1667 260.433,-73 265.267,-73"/>
<text text-anchor="middle" x="270.1" y="-54.8" font-family="Times,serif" font-size="14.00">::</text>
</a>
</g>
</g>
<!-- nd296&#45;&gt;nd299 -->
<g id="edge25" class="edge"><title>nd296:n&#45;&gt;nd299:w</title>
<path fill="none" stroke="black" d="M270.1,-74.5C270.1,-81.3168 279.017,-75.5883 284.6,-79.5 294.434,-86.3906 289.592,-100.5 301.6,-100.5"/>
</g>
<!-- nd296&#45;&gt;nd300 -->
<g id="edge26" class="edge"><title>nd296:s&#45;&gt;nd300:w</title>
<path fill="none" stroke="black" d="M270.1,-42.5C270.1,-36.0402 278.556,-41.2192 284.6,-43.5 293.499,-46.8582 292.088,-56.5 301.6,-56.5"/>
</g>
<!-- nd299&#45;&gt;nd286 -->
<g id="edge23" class="edge"><title>nd299:e&#45;&gt;nd286:w</title>
<path fill="none" stroke="black" d="M305.2,-100.5C312.756,-100.5 314.644,-100.5 322.2,-100.5"/>
</g>
<!-- nd300&#45;&gt;nd287 -->
<g id="edge24" class="edge"><title>nd300:e&#45;&gt;nd287:w</title>
<path fill="none" stroke="black" d="M305.2,-56.5C312.756,-56.5 314.644,-56.5 322.2,-56.5"/>
</g>
<!-- nd171&#45;&gt;nd296 -->
<g id="edge8" class="edge"><title>nd171:e&#45;&gt;nd296:w</title>
<path fill="none" stroke="black" d="M187.6,-64.5C217.94,-64.5 225.26,-58.5 255.6,-58.5"/>
<text text-anchor="middle" x="221.6" y="-67.3" font-family="Times,serif" font-size="14.00">op_arg, x</text>
</g>
</g>
</svg>
