<?xml version="1.0" encoding="UTF-8" standalone="no"?>
<!DOCTYPE svg PUBLIC "-//W3C//DTD SVG 1.1//EN"
 "http://www.w3.org/Graphics/SVG/1.1/DTD/svg11.dtd">
<!-- Generated by graphviz version 2.38.0 (20140413.2041)
 -->
<!-- Title: G Pages: 1 -->
<svg width="597pt" height="215pt"
 viewBox="0.00 0.00 596.60 215.24" xmlns="http://www.w3.org/2000/svg" xmlns:xlink="http://www.w3.org/1999/xlink">
<g id="graph0" class="graph" transform="scale(1 1) rotate(0) translate(4 211.242)">
<title>G</title>
<polygon fill="white" stroke="none" points="-4,4 -4,-211.242 592.6,-211.242 592.6,4 -4,4"/>
<g id="clust1" class="cluster"><title>cluster_nd395</title>
<polygon fill="none" stroke="orange" points="337.3,-157.242 337.3,-177.242 356.9,-177.242 356.9,-157.242 337.3,-157.242"/>
</g>
<g id="clust2" class="cluster"><title>cluster_nd338</title>
<polygon fill="none" stroke="orange" points="335.3,-68.2423 335.3,-111.242 358.9,-111.242 358.9,-68.2423 335.3,-68.2423"/>
<text text-anchor="middle" x="347.1" y="-96.0423" font-family="Times,serif" font-size="14.00">tl</text>
</g>
<g id="clust3" class="cluster"><title>cluster_nd347</title>
<polygon fill="none" stroke="orange" points="332.3,-17.2423 332.3,-60.2423 361.9,-60.2423 361.9,-17.2423 332.3,-17.2423"/>
<text text-anchor="middle" x="347.1" y="-45.0423" font-family="Times,serif" font-size="14.00">hd</text>
</g>
<!-- nd1 -->
<g id="node1" class="node"><title>nd1</title>
<ellipse fill="black" stroke="black" cx="1.8" cy="-146.242" rx="1.8" ry="1.8"/>
</g>
<!-- nd324 -->
<g id="node8" class="node"><title>nd324</title>
<g id="a_node8"><a xlink:title="nd324&#45;IfGraph">
<ellipse fill="none" stroke="#000000" cx="35.1" cy="-146.242" rx="14.5" ry="14.5"/>
<text text-anchor="middle" x="35.1" y="-142.542" font-family="Times,serif" font-size="14.00">if</text>
</a>
</g>
</g>
<!-- nd1&#45;&gt;nd324 -->
<g id="edge23" class="edge"><title>nd1:e&#45;&gt;nd324:w</title>
<path fill="none" stroke="#b70000" d="M3.6,-146.242C11.1556,-146.242 13.0444,-146.242 20.6,-146.242"/>
</g>
<!-- nd34 -->
<g id="node2" class="node"><title>nd34</title>
<g id="a_node2"><a xlink:title="nd34&#45;ConstGraph">
<path fill="none" stroke="purple" d="M569.267,-120.742C569.267,-120.742 578.933,-120.742 578.933,-120.742 583.767,-120.742 588.6,-115.909 588.6,-111.076 588.6,-111.076 588.6,-101.409 588.6,-101.409 588.6,-96.5756 583.767,-91.7423 578.933,-91.7423 578.933,-91.7423 569.267,-91.7423 569.267,-91.7423 564.433,-91.7423 559.6,-96.5756 559.6,-101.409 559.6,-101.409 559.6,-111.076 559.6,-111.076 559.6,-115.909 564.433,-120.742 569.267,-120.742"/>
<text text-anchor="middle" x="574.1" y="-102.542" font-family="Times,serif" font-size="14.00">4</text>
</a>
</g>
</g>
<!-- nd39 -->
<g id="node3" class="node"><title>nd39</title>
<g id="a_node3"><a xlink:title="nd39&#45;ConstEmptyGraph">
<path fill="none" stroke="purple" d="M569.267,-68.7423C569.267,-68.7423 578.933,-68.7423 578.933,-68.7423 583.767,-68.7423 588.6,-63.909 588.6,-59.0756 588.6,-59.0756 588.6,-49.409 588.6,-49.409 588.6,-44.5756 583.767,-39.7423 578.933,-39.7423 578.933,-39.7423 569.267,-39.7423 569.267,-39.7423 564.433,-39.7423 559.6,-44.5756 559.6,-49.409 559.6,-49.409 559.6,-59.0756 559.6,-59.0756 559.6,-63.909 564.433,-68.7423 569.267,-68.7423"/>
<text text-anchor="middle" x="574.1" y="-50.5423" font-family="Times,serif" font-size="14.00">[]</text>
</a>
</g>
</g>
<!-- nd182 -->
<g id="node4" class="node"><title>nd182</title>
<g id="a_node4"><a xlink:title="nd182&#45;ConstListGraph">
<path fill="none" stroke="purple" d="M440.267,-67.7423C440.267,-67.7423 449.933,-67.7423 449.933,-67.7423 454.767,-67.7423 459.6,-62.909 459.6,-58.0756 459.6,-58.0756 459.6,-48.409 459.6,-48.409 459.6,-43.5756 454.767,-38.7423 449.933,-38.7423 449.933,-38.7423 440.267,-38.7423 440.267,-38.7423 435.433,-38.7423 430.6,-43.5756 430.6,-48.409 430.6,-48.409 430.6,-58.0756 430.6,-58.0756 430.6,-62.909 435.433,-67.7423 440.267,-67.7423"/>
<text text-anchor="middle" x="445.1" y="-49.5423" font-family="Times,serif" font-size="14.00">::</text>
</a>
</g>
</g>
<!-- nd440 -->
<g id="node21" class="node"><title>nd440</title>
<g id="a_node21"><a xlink:title="nd440&#45;ContractGraph">
<ellipse fill="black" stroke="black" cx="528.1" cy="-106.242" rx="1.8" ry="1.8"/>
</a>
</g>
</g>
<!-- nd182&#45;&gt;nd440 -->
<g id="edge1" class="edge"><title>nd182:n&#45;&gt;nd440:w</title>
<path fill="none" stroke="black" d="M445.1,-69.2423C445.1,-79.0358 515.306,-106.242 525.1,-106.242"/>
</g>
<!-- nd441 -->
<g id="node22" class="node"><title>nd441</title>
<g id="a_node22"><a xlink:title="nd441&#45;ContractGraph">
<ellipse fill="black" stroke="black" cx="528.1" cy="-54.2423" rx="1.8" ry="1.8"/>
</a>
</g>
</g>
<!-- nd182&#45;&gt;nd441 -->
<g id="edge2" class="edge"><title>nd182:s&#45;&gt;nd441:w</title>
<path fill="none" stroke="black" d="M445.1,-37.2423C445.1,-30.7825 453.217,-37.25 459.6,-38.2423 489.211,-42.8455 495.133,-54.2423 525.1,-54.2423"/>
</g>
<!-- nd386 -->
<g id="node5" class="node"><title>nd386</title>
<g id="a_node5"><a xlink:title="nd386&#45;ConstGraph">
<path fill="none" stroke="purple" d="M342.267,-148.742C342.267,-148.742 351.933,-148.742 351.933,-148.742 356.767,-148.742 361.6,-143.909 361.6,-139.076 361.6,-139.076 361.6,-129.409 361.6,-129.409 361.6,-124.576 356.767,-119.742 351.933,-119.742 351.933,-119.742 342.267,-119.742 342.267,-119.742 337.433,-119.742 332.6,-124.576 332.6,-129.409 332.6,-129.409 332.6,-139.076 332.6,-139.076 332.6,-143.909 337.433,-148.742 342.267,-148.742"/>
<text text-anchor="middle" x="347.1" y="-130.542" font-family="Times,serif" font-size="14.00">6</text>
</a>
</g>
</g>
<!-- nd391 -->
<g id="node6" class="node"><title>nd391</title>
<g id="a_node6"><a xlink:title="nd391&#45;RecurGraph">
<ellipse fill="none" stroke="#000000" cx="295.1" cy="-154.242" rx="11" ry="11"/>
<text text-anchor="middle" x="295.1" y="-150.542" font-family="Times,serif" font-size="14.00">rec</text>
</a>
</g>
</g>
<!-- ndcluster_nd395 -->
<g id="node7" class="node"><title>ndcluster_nd395</title>
<g id="a_node7"><a xlink:title="nd395">
<ellipse fill="orange" stroke="orange" cx="347.1" cy="-167.242" rx="1.8" ry="1.8"/>
</a>
</g>
</g>
<!-- nd391&#45;&gt;ndcluster_nd395 -->
<g id="edge26" class="edge"><title>nd391:n&#45;&gt;ndcluster_nd395:e</title>
<path fill="none" stroke="grey" d="M295.1,-166.242C295.1,-188.588 322.963,-168.42 345.3,-169.042 346.988,-169.089 347.644,-169.899 349.1,-169.042 349.889,-168.578 351.015,-167.242 350.1,-167.242"/>
</g>
<!-- nd391&#45;&gt;ndcluster_nd395 -->
<g id="edge27" class="edge"><title>nd391:e&#45;&gt;ndcluster_nd395:w</title>
<path fill="none" stroke="black" d="M307.1,-154.242C324.53,-154.242 326.67,-167.242 344.1,-167.242"/>
</g>
<!-- nd325 -->
<g id="node9" class="node"><title>nd325</title>
<g id="a_node9"><a xlink:title="nd325&#45;AppGraph">
<path fill="none" stroke="#000000" d="M385.547,-155.297C385.547,-155.297 381.672,-149.688 381.672,-149.688 380.136,-147.465 380.136,-143.019 381.672,-140.797 381.672,-140.797 385.547,-135.188 385.547,-135.188 387.083,-132.965 391.321,-130.745 394.023,-130.747 394.023,-130.747 399.427,-130.751 399.427,-130.751 402.129,-130.754 404.831,-133.458 404.831,-136.16 404.831,-136.16 404.831,-154.325 404.831,-154.325 404.831,-157.027 402.129,-159.731 399.427,-159.733 399.427,-159.733 394.023,-159.738 394.023,-159.738 391.321,-159.74 387.083,-157.519 385.547,-155.297"/>
<text text-anchor="middle" x="393.1" y="-141.542" font-family="Times,serif" font-size="14.00">@</text>
</a>
</g>
</g>
<!-- nd324&#45;&gt;nd325 -->
<g id="edge17" class="edge"><title>nd324:n&#45;&gt;nd325:w</title>
<path fill="none" stroke="#b70000" d="M35.1,-162.242C35.1,-201.467 78.8754,-192.242 118.1,-192.242 118.1,-192.242 118.1,-192.242 348.1,-192.242 356.228,-192.242 356.98,-186.712 361.9,-180.242 372.332,-166.523 361.364,-145.242 378.6,-145.242"/>
<text text-anchor="middle" x="246.6" y="-196.042" font-family="Times,serif" font-size="14.00">condition</text>
</g>
<!-- nd332 -->
<g id="node10" class="node"><title>nd332</title>
<g id="a_node10"><a xlink:title="nd332&#45;AppGraph">
<path fill="none" stroke="#000000" d="M111.547,-121.297C111.547,-121.297 107.672,-115.688 107.672,-115.688 106.136,-113.465 106.136,-109.019 107.672,-106.797 107.672,-106.797 111.547,-101.188 111.547,-101.188 113.083,-98.9652 117.321,-96.7445 120.023,-96.7468 120.023,-96.7468 125.427,-96.7513 125.427,-96.7513 128.129,-96.7536 130.831,-99.4577 130.831,-102.16 130.831,-102.16 130.831,-120.325 130.831,-120.325 130.831,-123.027 128.129,-125.731 125.427,-125.733 125.427,-125.733 120.023,-125.738 120.023,-125.738 117.321,-125.74 113.083,-123.519 111.547,-121.297"/>
<text text-anchor="middle" x="119.1" y="-107.542" font-family="Times,serif" font-size="14.00">@</text>
</a>
</g>
</g>
<!-- nd324&#45;&gt;nd332 -->
<g id="edge18" class="edge"><title>nd324:s&#45;&gt;nd332:w</title>
<path fill="none" stroke="grey" d="M35.1,-130.242C35.1,-118.165 78.9954,-111.242 104.6,-111.242"/>
<text text-anchor="middle" x="77.1" y="-120.042" font-family="Times,serif" font-size="14.00">is false</text>
</g>
<!-- nd352 -->
<g id="node18" class="node"><title>nd352</title>
<g id="a_node18"><a xlink:title="nd352&#45;ContractGraph">
<ellipse fill="black" stroke="black" cx="295.1" cy="-127.242" rx="1.8" ry="1.8"/>
</a>
</g>
</g>
<!-- nd324&#45;&gt;nd352 -->
<g id="edge20" class="edge"><title>nd324:e&#45;&gt;nd352:w</title>
<path fill="none" stroke="grey" d="M49.6,-146.242C103.654,-146.242 238.046,-127.242 292.1,-127.242"/>
<text text-anchor="middle" x="158.6" y="-143.042" font-family="Times,serif" font-size="14.00">is true</text>
</g>
<!-- nd437 -->
<g id="node20" class="node"><title>nd437</title>
<g id="a_node20"><a xlink:title="nd437&#45;ConstListGraph">
<path fill="none" stroke="purple" d="M440.267,-116.742C440.267,-116.742 449.933,-116.742 449.933,-116.742 454.767,-116.742 459.6,-111.909 459.6,-107.076 459.6,-107.076 459.6,-97.409 459.6,-97.409 459.6,-92.5756 454.767,-87.7423 449.933,-87.7423 449.933,-87.7423 440.267,-87.7423 440.267,-87.7423 435.433,-87.7423 430.6,-92.5756 430.6,-97.409 430.6,-97.409 430.6,-107.076 430.6,-107.076 430.6,-111.909 435.433,-116.742 440.267,-116.742"/>
<text text-anchor="middle" x="445.1" y="-98.5423" font-family="Times,serif" font-size="14.00">::</text>
</a>
</g>
</g>
<!-- nd325&#45;&gt;nd437 -->
<g id="edge21" class="edge"><title>nd325:s&#45;&gt;nd437:w</title>
<path fill="none" stroke="black" d="M393.1,-129.242C393.1,-108.705 410.063,-102.242 430.6,-102.242"/>
<text text-anchor="middle" x="419.1" y="-107.042" font-family="Times,serif" font-size="14.00">x</text>
</g>
<!-- nd329 -->
<g id="node23" class="node"><title>nd329</title>
<g id="a_node23"><a xlink:title="nd329&#45;AbsGraph">
<ellipse fill="none" stroke="#000000" cx="445.1" cy="-145.242" rx="14.5" ry="14.5"/>
<text text-anchor="middle" x="445.1" y="-141.542" font-family="Times,serif" font-size="14.00">fun</text>
</a>
</g>
</g>
<!-- nd325&#45;&gt;nd329 -->
<g id="edge7" class="edge"><title>nd325:e&#45;&gt;nd329:w</title>
<path fill="none" stroke="red" d="M406.1,-145.242C412.565,-145.242 416.151,-145.242 420.278,-145.242"/>
<polygon fill="red" stroke="red" points="420.6,-148.742 430.6,-145.242 420.6,-141.742 420.6,-148.742"/>
</g>
<!-- nd333 -->
<g id="node11" class="node"><title>nd333</title>
<g id="a_node11"><a xlink:title="nd333&#45;AppGraph">
<path fill="none" stroke="#000000" d="M190.547,-121.297C190.547,-121.297 186.672,-115.688 186.672,-115.688 185.136,-113.465 185.136,-109.019 186.672,-106.797 186.672,-106.797 190.547,-101.188 190.547,-101.188 192.083,-98.9652 196.321,-96.7445 199.023,-96.7468 199.023,-96.7468 204.427,-96.7513 204.427,-96.7513 207.129,-96.7536 209.831,-99.4577 209.831,-102.16 209.831,-102.16 209.831,-120.325 209.831,-120.325 209.831,-123.027 207.129,-125.731 204.427,-125.733 204.427,-125.733 199.023,-125.738 199.023,-125.738 196.321,-125.74 192.083,-123.519 190.547,-121.297"/>
<text text-anchor="middle" x="198.1" y="-107.542" font-family="Times,serif" font-size="14.00">@</text>
</a>
</g>
</g>
<!-- nd332&#45;&gt;nd333 -->
<g id="edge13" class="edge"><title>nd332:e&#45;&gt;nd333:w</title>
<path fill="none" stroke="black" d="M132.1,-111.242C154.989,-111.242 160.711,-111.242 183.6,-111.242"/>
</g>
<!-- nd343 -->
<g id="node14" class="node"><title>nd343</title>
<g id="a_node14"><a xlink:title="nd343&#45;BinOpGraph">
<ellipse fill="none" stroke="#000000" cx="198.1" cy="-62.2423" rx="14.5" ry="14.5"/>
<text text-anchor="middle" x="198.1" y="-58.5423" font-family="Times,serif" font-size="14.00">+</text>
</a>
</g>
</g>
<!-- nd332&#45;&gt;nd343 -->
<g id="edge14" class="edge"><title>nd332:s&#45;&gt;nd343:w</title>
<path fill="none" stroke="black" d="M119.1,-95.2423C119.1,-63.0415 151.399,-62.2423 183.6,-62.2423"/>
</g>
<!-- nd333&#45;&gt;nd391 -->
<g id="edge9" class="edge"><title>nd333:e&#45;&gt;nd391:w</title>
<path fill="none" stroke="black" d="M211.1,-111.242C248.372,-111.242 245.828,-154.242 283.1,-154.242"/>
</g>
<!-- nd335 -->
<g id="node12" class="node"><title>nd335</title>
<g id="a_node12"><a xlink:title="nd335&#45;AppGraph">
<path fill="none" stroke="#000000" d="M287.547,-88.2965C287.547,-88.2965 283.672,-82.688 283.672,-82.688 282.136,-80.4652 282.136,-76.0194 283.672,-73.7965 283.672,-73.7965 287.547,-68.188 287.547,-68.188 289.083,-65.9652 293.321,-63.7445 296.023,-63.7468 296.023,-63.7468 301.427,-63.7513 301.427,-63.7513 304.129,-63.7536 306.831,-66.4577 306.831,-69.1597 306.831,-69.1597 306.831,-87.3249 306.831,-87.3249 306.831,-90.0268 304.129,-92.731 301.427,-92.7333 301.427,-92.7333 296.023,-92.7378 296.023,-92.7378 293.321,-92.74 289.083,-90.5194 287.547,-88.2965"/>
<text text-anchor="middle" x="295.1" y="-74.5423" font-family="Times,serif" font-size="14.00">@</text>
</a>
</g>
</g>
<!-- nd333&#45;&gt;nd335 -->
<g id="edge10" class="edge"><title>nd333:s&#45;&gt;nd335:w</title>
<path fill="none" stroke="black" d="M198.1,-95.2423C198.1,-76.5238 261.881,-78.2423 280.6,-78.2423"/>
</g>
<!-- ndcluster_nd338 -->
<g id="node13" class="node"><title>ndcluster_nd338</title>
<g id="a_node13"><a xlink:title="nd338">
<ellipse fill="orange" stroke="orange" cx="347.1" cy="-78.2423" rx="1.8" ry="1.8"/>
</a>
</g>
</g>
<!-- nd335&#45;&gt;ndcluster_nd338 -->
<g id="edge8" class="edge"><title>nd335:e&#45;&gt;ndcluster_nd338:w</title>
<path fill="none" stroke="black" d="M308.1,-78.2423C324.1,-78.2423 328.1,-78.2423 344.1,-78.2423"/>
</g>
<!-- nd351 -->
<g id="node17" class="node"><title>nd351</title>
<g id="a_node17"><a xlink:title="nd351&#45;ContractGraph">
<ellipse fill="black" stroke="black" cx="347.1" cy="-7.24229" rx="1.8" ry="1.8"/>
</a>
</g>
</g>
<!-- nd335&#45;&gt;nd351 -->
<g id="edge16" class="edge"><title>nd335:s&#45;&gt;nd351:w</title>
<path fill="none" stroke="black" d="M295.1,-62.2423C295.1,-53.2842 303.858,-55.1179 309.6,-48.2423 324.866,-29.9634 320.285,-7.24229 344.1,-7.24229"/>
</g>
<!-- nd344 -->
<g id="node15" class="node"><title>nd344</title>
<g id="a_node15"><a xlink:title="nd344&#45;AppGraph">
<path fill="none" stroke="#000000" d="M287.547,-37.2965C287.547,-37.2965 283.672,-31.688 283.672,-31.688 282.136,-29.4652 282.136,-25.0194 283.672,-22.7965 283.672,-22.7965 287.547,-17.188 287.547,-17.188 289.083,-14.9652 293.321,-12.7445 296.023,-12.7468 296.023,-12.7468 301.427,-12.7513 301.427,-12.7513 304.129,-12.7536 306.831,-15.4577 306.831,-18.1597 306.831,-18.1597 306.831,-36.3249 306.831,-36.3249 306.831,-39.0268 304.129,-41.731 301.427,-41.7333 301.427,-41.7333 296.023,-41.7378 296.023,-41.7378 293.321,-41.74 289.083,-39.5194 287.547,-37.2965"/>
<text text-anchor="middle" x="295.1" y="-23.5423" font-family="Times,serif" font-size="14.00">@</text>
</a>
</g>
</g>
<!-- nd343&#45;&gt;nd344 -->
<g id="edge12" class="edge"><title>nd343:s&#45;&gt;nd344:w</title>
<path fill="none" stroke="black" d="M198.1,-46.2423C198.1,-8.6158 242.974,-27.2423 280.6,-27.2423"/>
</g>
<!-- nd343&#45;&gt;nd352 -->
<g id="edge19" class="edge"><title>nd343:n&#45;&gt;nd352:w</title>
<path fill="none" stroke="black" d="M198.1,-78.2423C198.1,-87.2081 265.051,-104.405 272.6,-109.242 282.531,-115.606 280.305,-127.242 292.1,-127.242"/>
</g>
<!-- ndcluster_nd347 -->
<g id="node16" class="node"><title>ndcluster_nd347</title>
<g id="a_node16"><a xlink:title="nd347">
<ellipse fill="orange" stroke="orange" cx="347.1" cy="-27.2423" rx="1.8" ry="1.8"/>
</a>
</g>
</g>
<!-- nd344&#45;&gt;ndcluster_nd347 -->
<g id="edge11" class="edge"><title>nd344:e&#45;&gt;ndcluster_nd347:w</title>
<path fill="none" stroke="black" d="M308.1,-27.2423C324.1,-27.2423 328.1,-27.2423 344.1,-27.2423"/>
</g>
<!-- nd344&#45;&gt;nd351 -->
<g id="edge15" class="edge"><title>nd344:s&#45;&gt;nd351:w</title>
<path fill="none" stroke="black" d="M295.1,-11.2423C295.1,10.6079 322.25,-7.24229 344.1,-7.24229"/>
</g>
<!-- nd353 -->
<g id="node19" class="node"><title>nd353</title>
<g id="a_node19"><a xlink:title="nd353&#45;ContractGraph">
<ellipse fill="black" stroke="black" cx="393.1" cy="-35.2423" rx="1.8" ry="1.8"/>
</a>
</g>
</g>
<!-- nd351&#45;&gt;nd353 -->
<g id="edge22" class="edge"><title>nd351:e&#45;&gt;nd353:w</title>
<path fill="none" stroke="black" d="M350.1,-7.24229C371.801,-7.24229 368.399,-35.2423 390.1,-35.2423"/>
</g>
<!-- nd352&#45;&gt;nd386 -->
<g id="edge24" class="edge"><title>nd352:e&#45;&gt;nd386:w</title>
<path fill="none" stroke="black" d="M298.1,-127.242C309.911,-127.242 313.409,-125.464 324.6,-129.242 328.466,-130.548 328.22,-134.242 332.3,-134.242"/>
<text text-anchor="middle" x="321.1" y="-133.042" font-family="Times,serif" font-size="14.00">y</text>
</g>
<!-- nd353&#45;&gt;nd182 -->
<g id="edge25" class="edge"><title>nd353:e&#45;&gt;nd182:w</title>
<path fill="none" stroke="black" d="M396.1,-35.2423C413.395,-35.2423 413.305,-53.2423 430.6,-53.2423"/>
<text text-anchor="middle" x="419.1" y="-56.0423" font-family="Times,serif" font-size="14.00">x</text>
</g>
<!-- nd437&#45;&gt;nd440 -->
<g id="edge28" class="edge"><title>nd437:n&#45;&gt;nd440:w</title>
<path fill="none" stroke="black" d="M445.1,-118.242C445.1,-124.702 453.185,-118 459.6,-117.242 488.915,-113.778 495.581,-106.242 525.1,-106.242"/>
</g>
<!-- nd437&#45;&gt;nd441 -->
<g id="edge29" class="edge"><title>nd437:s&#45;&gt;nd441:w</title>
<path fill="none" stroke="black" d="M445.1,-86.2423C445.1,-76.6687 515.526,-54.2423 525.1,-54.2423"/>
</g>
<!-- nd440&#45;&gt;nd34 -->
<g id="edge3" class="edge"><title>nd440:e&#45;&gt;nd34:w</title>
<path fill="none" stroke="black" d="M531.1,-106.242C543.767,-106.242 546.933,-106.242 559.6,-106.242"/>
</g>
<!-- nd441&#45;&gt;nd39 -->
<g id="edge4" class="edge"><title>nd441:e&#45;&gt;nd39:w</title>
<path fill="none" stroke="black" d="M531.1,-54.2423C543.767,-54.2423 546.933,-54.2423 559.6,-54.2423"/>
</g>
<!-- nd330 -->
<g id="node24" class="node"><title>nd330</title>
<g id="a_node24"><a xlink:title="nd330&#45;UnOpGraph">
<ellipse fill="none" stroke="#000000" cx="528.1" cy="-146.242" rx="14.5" ry="14.5"/>
<text text-anchor="middle" x="528.1" y="-142.542" font-family="Times,serif" font-size="14.00">empty</text>
</a>
</g>
</g>
<!-- nd329&#45;&gt;nd330 -->
<g id="edge5" class="edge"><title>nd329:e&#45;&gt;nd330:w</title>
<path fill="none" stroke="black" d="M459.6,-145.242C483.604,-145.242 489.596,-146.242 513.6,-146.242"/>
</g>
<!-- nd329&#45;&gt;nd330 -->
<g id="edge6" class="edge"><title>nd329:n&#45;&gt;nd330:e</title>
<path fill="none" stroke="grey" d="M445.1,-161.242C445.1,-204.798 511.335,-190.544 543.1,-160.742 544.278,-159.637 545.715,-146.242 544.1,-146.242"/>
<text text-anchor="middle" x="486.6" y="-192.042" font-family="Times,serif" font-size="14.00">op_arg</text>
</g>
</g>
</svg>
