<?xml version="1.0" encoding="UTF-8" standalone="no"?>
<!DOCTYPE svg PUBLIC "-//W3C//DTD SVG 1.1//EN"
 "http://www.w3.org/Graphics/SVG/1.1/DTD/svg11.dtd">
<!-- Generated by graphviz version 2.38.0 (20140413.2041)
 -->
<!-- Title: G Pages: 1 -->
<svg width="425pt" height="254pt"
 viewBox="0.00 0.00 425.20 253.50" xmlns="http://www.w3.org/2000/svg" xmlns:xlink="http://www.w3.org/1999/xlink">
<g id="graph0" class="graph" transform="scale(1 1) rotate(0) translate(4 249.5)">
<title>G</title>
<polygon fill="white" stroke="none" points="-4,4 -4,-249.5 421.2,-249.5 421.2,4 -4,4"/>
<g id="clust1" class="cluster"><title>cluster_nd472</title>
<polygon fill="none" stroke="orange" points="320.3,-172.5 320.3,-192.5 339.9,-192.5 339.9,-172.5 320.3,-172.5"/>
</g>
<g id="clust2" class="cluster"><title>cluster_nd405</title>
<polygon fill="none" stroke="orange" points="196.3,-194.5 196.3,-237.5 246.9,-237.5 246.9,-194.5 196.3,-194.5"/>
<text text-anchor="middle" x="221.6" y="-222.3" font-family="Times,serif" font-size="14.00">empty</text>
</g>
<g id="clust3" class="cluster"><title>cluster_nd415</title>
<polygon fill="none" stroke="orange" points="318.3,-75.5 318.3,-118.5 341.9,-118.5 341.9,-75.5 318.3,-75.5"/>
<text text-anchor="middle" x="330.1" y="-103.3" font-family="Times,serif" font-size="14.00">tl</text>
</g>
<g id="clust4" class="cluster"><title>cluster_nd424</title>
<polygon fill="none" stroke="orange" points="315.3,-24.5 315.3,-67.5 344.9,-67.5 344.9,-24.5 315.3,-24.5"/>
<text text-anchor="middle" x="330.1" y="-52.3" font-family="Times,serif" font-size="14.00">hd</text>
</g>
<!-- nd1 -->
<g id="node1" class="node"><title>nd1</title>
<ellipse fill="black" stroke="black" cx="1.8" cy="-136.5" rx="1.8" ry="1.8"/>
</g>
<!-- nd401 -->
<g id="node6" class="node"><title>nd401</title>
<g id="a_node6"><a xlink:title="nd401&#45;IfGraph">
<ellipse fill="none" stroke="#000000" cx="35.1" cy="-136.5" rx="14.5" ry="14.5"/>
<text text-anchor="middle" x="35.1" y="-132.8" font-family="Times,serif" font-size="14.00">if</text>
</a>
</g>
</g>
<!-- nd1&#45;&gt;nd401 -->
<g id="edge17" class="edge"><title>nd1:e&#45;&gt;nd401:w</title>
<path fill="none" stroke="#b70000" d="M3.6,-136.5C11.1556,-136.5 13.0444,-136.5 20.6,-136.5"/>
</g>
<!-- nd39 -->
<g id="node2" class="node"><title>nd39</title>
<g id="a_node2"><a xlink:title="nd39&#45;ConstEmptyGraph">
<path fill="none" stroke="purple" d="M397.867,-29C397.867,-29 407.533,-29 407.533,-29 412.367,-29 417.2,-24.1667 417.2,-19.3333 417.2,-19.3333 417.2,-9.66667 417.2,-9.66667 417.2,-4.83333 412.367,-1.77636e-15 407.533,-1.77636e-15 407.533,-1.77636e-15 397.867,-1.77636e-15 397.867,-1.77636e-15 393.033,-1.77636e-15 388.2,-4.83333 388.2,-9.66667 388.2,-9.66667 388.2,-19.3333 388.2,-19.3333 388.2,-24.1667 393.033,-29 397.867,-29"/>
<text text-anchor="middle" x="402.7" y="-10.8" font-family="Times,serif" font-size="14.00">[]</text>
</a>
</g>
</g>
<!-- nd463 -->
<g id="node3" class="node"><title>nd463</title>
<g id="a_node3"><a xlink:title="nd463&#45;ConstGraph">
<path fill="none" stroke="purple" d="M325.267,-156C325.267,-156 334.933,-156 334.933,-156 339.767,-156 344.6,-151.167 344.6,-146.333 344.6,-146.333 344.6,-136.667 344.6,-136.667 344.6,-131.833 339.767,-127 334.933,-127 334.933,-127 325.267,-127 325.267,-127 320.433,-127 315.6,-131.833 315.6,-136.667 315.6,-136.667 315.6,-146.333 315.6,-146.333 315.6,-151.167 320.433,-156 325.267,-156"/>
<text text-anchor="middle" x="330.1" y="-137.8" font-family="Times,serif" font-size="14.00">10</text>
</a>
</g>
</g>
<!-- nd468 -->
<g id="node4" class="node"><title>nd468</title>
<g id="a_node4"><a xlink:title="nd468&#45;RecurGraph">
<ellipse fill="none" stroke="#000000" cx="278.1" cy="-166.5" rx="11" ry="11"/>
<text text-anchor="middle" x="278.1" y="-162.8" font-family="Times,serif" font-size="14.00">rec</text>
</a>
</g>
</g>
<!-- ndcluster_nd472 -->
<g id="node5" class="node"><title>ndcluster_nd472</title>
<g id="a_node5"><a xlink:title="nd472">
<ellipse fill="orange" stroke="orange" cx="330.1" cy="-182.5" rx="1.8" ry="1.8"/>
</a>
</g>
</g>
<!-- nd468&#45;&gt;ndcluster_nd472 -->
<g id="edge20" class="edge"><title>nd468:n&#45;&gt;ndcluster_nd472:e</title>
<path fill="none" stroke="grey" d="M278.1,-178.5C278.1,-227.299 341.013,-182.5 333.1,-182.5"/>
</g>
<!-- nd468&#45;&gt;ndcluster_nd472 -->
<g id="edge21" class="edge"><title>nd468:e&#45;&gt;ndcluster_nd472:w</title>
<path fill="none" stroke="black" d="M290.1,-166.5C308.016,-166.5 309.184,-182.5 327.1,-182.5"/>
</g>
<!-- nd402 -->
<g id="node7" class="node"><title>nd402</title>
<g id="a_node7"><a xlink:title="nd402&#45;AppGraph">
<path fill="none" stroke="#000000" d="M124.547,-196.554C124.547,-196.554 120.672,-190.946 120.672,-190.946 119.136,-188.723 119.136,-184.277 120.672,-182.054 120.672,-182.054 124.547,-176.446 124.547,-176.446 126.083,-174.223 130.321,-172.002 133.023,-172.005 133.023,-172.005 138.427,-172.009 138.427,-172.009 141.129,-172.011 143.831,-174.715 143.831,-177.417 143.831,-177.417 143.831,-195.583 143.831,-195.583 143.831,-198.285 141.129,-200.989 138.427,-200.991 138.427,-200.991 133.023,-200.995 133.023,-200.995 130.321,-200.998 126.083,-198.777 124.547,-196.554"/>
<text text-anchor="middle" x="132.1" y="-182.8" font-family="Times,serif" font-size="14.00">@</text>
</a>
</g>
</g>
<!-- nd401&#45;&gt;nd402 -->
<g id="edge11" class="edge"><title>nd401:n&#45;&gt;nd402:w</title>
<path fill="none" stroke="#b70000" d="M35.1,-152.5C35.1,-192.158 77.9416,-186.5 117.6,-186.5"/>
<text text-anchor="middle" x="83.6" y="-191.3" font-family="Times,serif" font-size="14.00">condition</text>
</g>
<!-- nd409 -->
<g id="node9" class="node"><title>nd409</title>
<g id="a_node9"><a xlink:title="nd409&#45;AppGraph">
<path fill="none" stroke="#000000" d="M124.547,-111.554C124.547,-111.554 120.672,-105.946 120.672,-105.946 119.136,-103.723 119.136,-99.2771 120.672,-97.0543 120.672,-97.0543 124.547,-91.4457 124.547,-91.4457 126.083,-89.2229 130.321,-87.0023 133.023,-87.0045 133.023,-87.0045 138.427,-87.009 138.427,-87.009 141.129,-87.0113 143.831,-89.7155 143.831,-92.4174 143.831,-92.4174 143.831,-110.583 143.831,-110.583 143.831,-113.285 141.129,-115.989 138.427,-115.991 138.427,-115.991 133.023,-115.995 133.023,-115.995 130.321,-115.998 126.083,-113.777 124.547,-111.554"/>
<text text-anchor="middle" x="132.1" y="-97.8" font-family="Times,serif" font-size="14.00">@</text>
</a>
</g>
</g>
<!-- nd401&#45;&gt;nd409 -->
<g id="edge12" class="edge"><title>nd401:s&#45;&gt;nd409:w</title>
<path fill="none" stroke="grey" d="M35.1,-120.5C35.1,-104.477 69.9155,-101.5 117.6,-101.5"/>
<text text-anchor="middle" x="83.6" y="-109.3" font-family="Times,serif" font-size="14.00">is false</text>
</g>
<!-- nd429 -->
<g id="node17" class="node"><title>nd429</title>
<g id="a_node17"><a xlink:title="nd429&#45;ContractGraph">
<ellipse fill="black" stroke="black" cx="278.1" cy="-136.5" rx="1.8" ry="1.8"/>
</a>
</g>
</g>
<!-- nd401&#45;&gt;nd429 -->
<g id="edge14" class="edge"><title>nd401:e&#45;&gt;nd429:w</title>
<path fill="none" stroke="grey" d="M49.6,-136.5C149.822,-136.5 174.878,-136.5 275.1,-136.5"/>
<text text-anchor="middle" x="171.6" y="-140.3" font-family="Times,serif" font-size="14.00">is true</text>
</g>
<!-- ndcluster_nd405 -->
<g id="node8" class="node"><title>ndcluster_nd405</title>
<g id="a_node8"><a xlink:title="nd405">
<ellipse fill="orange" stroke="orange" cx="221.1" cy="-204.5" rx="1.8" ry="1.8"/>
</a>
</g>
</g>
<!-- nd402&#45;&gt;ndcluster_nd405 -->
<g id="edge1" class="edge"><title>nd402:e&#45;&gt;ndcluster_nd405:w</title>
<path fill="none" stroke="black" d="M145.1,-186.5C161.808,-186.5 201.392,-204.5 218.1,-204.5"/>
</g>
<!-- nd514 -->
<g id="node19" class="node"><title>nd514</title>
<g id="a_node19"><a xlink:title="nd514&#45;ConstEmptyGraph">
<path fill="none" stroke="purple" d="M216.267,-186C216.267,-186 225.933,-186 225.933,-186 230.767,-186 235.6,-181.167 235.6,-176.333 235.6,-176.333 235.6,-166.667 235.6,-166.667 235.6,-161.833 230.767,-157 225.933,-157 225.933,-157 216.267,-157 216.267,-157 211.433,-157 206.6,-161.833 206.6,-166.667 206.6,-166.667 206.6,-176.333 206.6,-176.333 206.6,-181.167 211.433,-186 216.267,-186"/>
<text text-anchor="middle" x="221.1" y="-167.8" font-family="Times,serif" font-size="14.00">[]</text>
</a>
</g>
</g>
<!-- nd402&#45;&gt;nd514 -->
<g id="edge15" class="edge"><title>nd402:s&#45;&gt;nd514:w</title>
<path fill="none" stroke="red" d="M132.1,-170.5C132.1,-141.348 164.834,-165.386 195.014,-170.569"/>
<polygon fill="red" stroke="red" points="194.821,-174.066 205.1,-171.5 195.464,-167.096 194.821,-174.066"/>
<text text-anchor="middle" x="171.6" y="-173.3" font-family="Times,serif" font-size="14.00">x</text>
</g>
<!-- nd410 -->
<g id="node10" class="node"><title>nd410</title>
<g id="a_node10"><a xlink:title="nd410&#45;AppGraph">
<path fill="none" stroke="#000000" d="M213.547,-111.554C213.547,-111.554 209.672,-105.946 209.672,-105.946 208.136,-103.723 208.136,-99.2771 209.672,-97.0543 209.672,-97.0543 213.547,-91.4457 213.547,-91.4457 215.083,-89.2229 219.321,-87.0023 222.023,-87.0045 222.023,-87.0045 227.427,-87.009 227.427,-87.009 230.129,-87.0113 232.831,-89.7155 232.831,-92.4174 232.831,-92.4174 232.831,-110.583 232.831,-110.583 232.831,-113.285 230.129,-115.989 227.427,-115.991 227.427,-115.991 222.023,-115.995 222.023,-115.995 219.321,-115.998 215.083,-113.777 213.547,-111.554"/>
<text text-anchor="middle" x="221.1" y="-97.8" font-family="Times,serif" font-size="14.00">@</text>
</a>
</g>
</g>
<!-- nd409&#45;&gt;nd410 -->
<g id="edge7" class="edge"><title>nd409:e&#45;&gt;nd410:w</title>
<path fill="none" stroke="black" d="M145.1,-101.5C171.767,-101.5 178.433,-101.5 205.1,-101.5"/>
</g>
<!-- nd420 -->
<g id="node13" class="node"><title>nd420</title>
<g id="a_node13"><a xlink:title="nd420&#45;BinOpGraph">
<ellipse fill="none" stroke="#000000" cx="221.1" cy="-52.5" rx="14.5" ry="14.5"/>
<text text-anchor="middle" x="221.1" y="-48.8" font-family="Times,serif" font-size="14.00">+</text>
</a>
</g>
</g>
<!-- nd409&#45;&gt;nd420 -->
<g id="edge8" class="edge"><title>nd409:s&#45;&gt;nd420:w</title>
<path fill="none" stroke="black" d="M132.1,-85.5C132.1,-49.8945 169.494,-52.5 205.1,-52.5"/>
</g>
<!-- nd410&#45;&gt;nd468 -->
<g id="edge3" class="edge"><title>nd410:e&#45;&gt;nd468:w</title>
<path fill="none" stroke="black" d="M234.1,-101.5C266.3,-101.5 233.9,-166.5 266.1,-166.5"/>
</g>
<!-- nd412 -->
<g id="node11" class="node"><title>nd412</title>
<g id="a_node11"><a xlink:title="nd412&#45;AppGraph">
<path fill="none" stroke="#000000" d="M270.547,-95.5543C270.547,-95.5543 266.672,-89.9457 266.672,-89.9457 265.136,-87.7229 265.136,-83.2771 266.672,-81.0543 266.672,-81.0543 270.547,-75.4457 270.547,-75.4457 272.083,-73.2229 276.321,-71.0023 279.023,-71.0045 279.023,-71.0045 284.427,-71.009 284.427,-71.009 287.129,-71.0113 289.831,-73.7155 289.831,-76.4174 289.831,-76.4174 289.831,-94.5826 289.831,-94.5826 289.831,-97.2845 287.129,-99.9887 284.427,-99.991 284.427,-99.991 279.023,-99.9955 279.023,-99.9955 276.321,-99.9977 272.083,-97.7771 270.547,-95.5543"/>
<text text-anchor="middle" x="278.1" y="-81.8" font-family="Times,serif" font-size="14.00">@</text>
</a>
</g>
</g>
<!-- nd410&#45;&gt;nd412 -->
<g id="edge4" class="edge"><title>nd410:s&#45;&gt;nd412:w</title>
<path fill="none" stroke="black" d="M221.1,-85.5C221.1,-66.6111 244.711,-85.5 263.6,-85.5"/>
</g>
<!-- ndcluster_nd415 -->
<g id="node12" class="node"><title>ndcluster_nd415</title>
<g id="a_node12"><a xlink:title="nd415">
<ellipse fill="orange" stroke="orange" cx="330.1" cy="-85.5" rx="1.8" ry="1.8"/>
</a>
</g>
</g>
<!-- nd412&#45;&gt;ndcluster_nd415 -->
<g id="edge2" class="edge"><title>nd412:e&#45;&gt;ndcluster_nd415:w</title>
<path fill="none" stroke="black" d="M291.1,-85.5C307.1,-85.5 311.1,-85.5 327.1,-85.5"/>
</g>
<!-- nd428 -->
<g id="node16" class="node"><title>nd428</title>
<g id="a_node16"><a xlink:title="nd428&#45;ContractGraph">
<ellipse fill="black" stroke="black" cx="330.1" cy="-14.5" rx="1.8" ry="1.8"/>
</a>
</g>
</g>
<!-- nd412&#45;&gt;nd428 -->
<g id="edge10" class="edge"><title>nd412:s&#45;&gt;nd428:w</title>
<path fill="none" stroke="black" d="M278.1,-69.5C278.1,-60.5419 286.858,-62.3756 292.6,-55.5 307.866,-37.2211 303.285,-14.5 327.1,-14.5"/>
</g>
<!-- nd421 -->
<g id="node14" class="node"><title>nd421</title>
<g id="a_node14"><a xlink:title="nd421&#45;AppGraph">
<path fill="none" stroke="#000000" d="M270.547,-44.5543C270.547,-44.5543 266.672,-38.9457 266.672,-38.9457 265.136,-36.7229 265.136,-32.2771 266.672,-30.0543 266.672,-30.0543 270.547,-24.4457 270.547,-24.4457 272.083,-22.2229 276.321,-20.0023 279.023,-20.0045 279.023,-20.0045 284.427,-20.009 284.427,-20.009 287.129,-20.0113 289.831,-22.7155 289.831,-25.4174 289.831,-25.4174 289.831,-43.5826 289.831,-43.5826 289.831,-46.2845 287.129,-48.9887 284.427,-48.991 284.427,-48.991 279.023,-48.9955 279.023,-48.9955 276.321,-48.9977 272.083,-46.7771 270.547,-44.5543"/>
<text text-anchor="middle" x="278.1" y="-30.8" font-family="Times,serif" font-size="14.00">@</text>
</a>
</g>
</g>
<!-- nd420&#45;&gt;nd421 -->
<g id="edge6" class="edge"><title>nd420:s&#45;&gt;nd421:w</title>
<path fill="none" stroke="black" d="M221.1,-36.5C221.1,-17.5902 244.69,-34.5 263.6,-34.5"/>
</g>
<!-- nd420&#45;&gt;nd429 -->
<g id="edge13" class="edge"><title>nd420:n&#45;&gt;nd429:w</title>
<path fill="none" stroke="black" d="M221.1,-68.5C221.1,-81.1463 237.82,-71.6981 246.9,-80.5 266.909,-99.8953 247.234,-136.5 275.1,-136.5"/>
</g>
<!-- ndcluster_nd424 -->
<g id="node15" class="node"><title>ndcluster_nd424</title>
<g id="a_node15"><a xlink:title="nd424">
<ellipse fill="orange" stroke="orange" cx="330.1" cy="-34.5" rx="1.8" ry="1.8"/>
</a>
</g>
</g>
<!-- nd421&#45;&gt;ndcluster_nd424 -->
<g id="edge5" class="edge"><title>nd421:e&#45;&gt;ndcluster_nd424:w</title>
<path fill="none" stroke="black" d="M291.1,-34.5C307.1,-34.5 311.1,-34.5 327.1,-34.5"/>
</g>
<!-- nd421&#45;&gt;nd428 -->
<g id="edge9" class="edge"><title>nd421:s&#45;&gt;nd428:w</title>
<path fill="none" stroke="black" d="M278.1,-18.5C278.1,3.35022 305.25,-14.5 327.1,-14.5"/>
</g>
<!-- nd430 -->
<g id="node18" class="node"><title>nd430</title>
<g id="a_node18"><a xlink:title="nd430&#45;ContractGraph">
<ellipse fill="black" stroke="black" cx="363.4" cy="-14.5" rx="1.8" ry="1.8"/>
</a>
</g>
</g>
<!-- nd428&#45;&gt;nd430 -->
<g id="edge16" class="edge"><title>nd428:e&#45;&gt;nd430:w</title>
<path fill="none" stroke="black" d="M333.1,-14.5C345.767,-14.5 348.933,-14.5 361.6,-14.5"/>
</g>
<!-- nd429&#45;&gt;nd463 -->
<g id="edge18" class="edge"><title>nd429:e&#45;&gt;nd463:w</title>
<path fill="none" stroke="black" d="M281.1,-136.5C296.462,-136.5 299.938,-141.5 315.3,-141.5"/>
<text text-anchor="middle" x="304.1" y="-145.3" font-family="Times,serif" font-size="14.00">y</text>
</g>
<!-- nd430&#45;&gt;nd39 -->
<g id="edge19" class="edge"><title>nd430:e&#45;&gt;nd39:w</title>
<path fill="none" stroke="black" d="M365.2,-14.5C375.422,-14.5 377.978,-14.5 388.2,-14.5"/>
<text text-anchor="middle" x="376.7" y="-18.3" font-family="Times,serif" font-size="14.00">x</text>
</g>
</g>
</svg>
