<?xml version="1.0" encoding="UTF-8" standalone="no"?>
<!DOCTYPE svg PUBLIC "-//W3C//DTD SVG 1.1//EN"
 "http://www.w3.org/Graphics/SVG/1.1/DTD/svg11.dtd">
<!-- Generated by graphviz version 2.38.0 (20140413.2041)
 -->
<!-- Title: G Pages: 1 -->
<svg width="447pt" height="181pt"
 viewBox="0.00 0.00 446.80 181.34" xmlns="http://www.w3.org/2000/svg" xmlns:xlink="http://www.w3.org/1999/xlink">
<g id="graph0" class="graph" transform="scale(1 1) rotate(0) translate(4 177.341)">
<title>G</title>
<polygon fill="white" stroke="none" points="-4,4 -4,-177.341 442.8,-177.341 442.8,4 -4,4"/>
<g id="clust1" class="cluster"><title>cluster_nd241</title>
<polygon fill="none" stroke="orange" points="160.6,-133.5 160.6,-153.5 180.2,-153.5 180.2,-133.5 160.6,-133.5"/>
</g>
<g id="clust2" class="cluster"><title>cluster_nd160</title>
<polygon fill="none" stroke="orange" points="158.6,-81.5 158.6,-124.5 182.2,-124.5 182.2,-81.5 158.6,-81.5"/>
<text text-anchor="middle" x="170.4" y="-109.3" font-family="Times,serif" font-size="14.00">tl</text>
</g>
<!-- nd1 -->
<g id="node1" class="node"><title>nd1</title>
<ellipse fill="black" stroke="black" cx="1.8" cy="-99.5" rx="1.8" ry="1.8"/>
</g>
<!-- nd154 -->
<g id="node11" class="node"><title>nd154</title>
<g id="a_node11"><a xlink:title="nd154&#45;AppGraph">
<path fill="none" stroke="#000000" d="M27.5473,-109.554C27.5473,-109.554 23.6719,-103.946 23.6719,-103.946 22.136,-101.723 22.136,-97.2771 23.6719,-95.0543 23.6719,-95.0543 27.5473,-89.4457 27.5473,-89.4457 29.0833,-87.2229 33.3212,-85.0023 36.0231,-85.0045 36.0231,-85.0045 41.4269,-85.009 41.4269,-85.009 44.1288,-85.0113 46.8307,-87.7155 46.8307,-90.4174 46.8307,-90.4174 46.8307,-108.583 46.8307,-108.583 46.8307,-111.285 44.1288,-113.989 41.4269,-113.991 41.4269,-113.991 36.0231,-113.995 36.0231,-113.995 33.3212,-113.998 29.0833,-111.777 27.5473,-109.554"/>
<text text-anchor="middle" x="35.1" y="-95.8" font-family="Times,serif" font-size="14.00">@</text>
</a>
</g>
</g>
<!-- nd1&#45;&gt;nd154 -->
<g id="edge13" class="edge"><title>nd1:e&#45;&gt;nd154:w</title>
<path fill="none" stroke="#b70000" d="M3.6,-99.5C11.1556,-99.5 13.0444,-99.5 20.6,-99.5"/>
</g>
<!-- nd22 -->
<g id="node2" class="node"><title>nd22</title>
<g id="a_node2"><a xlink:title="nd22&#45;ConstGraph">
<path fill="none" stroke="purple" d="M281.467,-101C281.467,-101 291.133,-101 291.133,-101 295.967,-101 300.8,-96.1667 300.8,-91.3333 300.8,-91.3333 300.8,-81.6667 300.8,-81.6667 300.8,-76.8333 295.967,-72 291.133,-72 291.133,-72 281.467,-72 281.467,-72 276.633,-72 271.8,-76.8333 271.8,-81.6667 271.8,-81.6667 271.8,-91.3333 271.8,-91.3333 271.8,-96.1667 276.633,-101 281.467,-101"/>
<text text-anchor="middle" x="286.3" y="-82.8" font-family="Times,serif" font-size="14.00">2</text>
</a>
</g>
</g>
<!-- nd28 -->
<g id="node3" class="node"><title>nd28</title>
<g id="a_node3"><a xlink:title="nd28&#45;ConstGraph">
<path fill="none" stroke="purple" d="M373.467,-92C373.467,-92 383.133,-92 383.133,-92 387.967,-92 392.8,-87.1667 392.8,-82.3333 392.8,-82.3333 392.8,-72.6667 392.8,-72.6667 392.8,-67.8333 387.967,-63 383.133,-63 383.133,-63 373.467,-63 373.467,-63 368.633,-63 363.8,-67.8333 363.8,-72.6667 363.8,-72.6667 363.8,-82.3333 363.8,-82.3333 363.8,-87.1667 368.633,-92 373.467,-92"/>
<text text-anchor="middle" x="378.3" y="-73.8" font-family="Times,serif" font-size="14.00">3</text>
</a>
</g>
</g>
<!-- nd34 -->
<g id="node4" class="node"><title>nd34</title>
<g id="a_node4"><a xlink:title="nd34&#45;ConstGraph">
<path fill="none" stroke="purple" d="M419.467,-71C419.467,-71 429.133,-71 429.133,-71 433.967,-71 438.8,-66.1667 438.8,-61.3333 438.8,-61.3333 438.8,-51.6667 438.8,-51.6667 438.8,-46.8333 433.967,-42 429.133,-42 429.133,-42 419.467,-42 419.467,-42 414.633,-42 409.8,-46.8333 409.8,-51.6667 409.8,-51.6667 409.8,-61.3333 409.8,-61.3333 409.8,-66.1667 414.633,-71 419.467,-71"/>
<text text-anchor="middle" x="424.3" y="-52.8" font-family="Times,serif" font-size="14.00">4</text>
</a>
</g>
</g>
<!-- nd39 -->
<g id="node5" class="node"><title>nd39</title>
<g id="a_node5"><a xlink:title="nd39&#45;ConstEmptyGraph">
<path fill="none" stroke="purple" d="M419.467,-29C419.467,-29 429.133,-29 429.133,-29 433.967,-29 438.8,-24.1667 438.8,-19.3333 438.8,-19.3333 438.8,-9.66667 438.8,-9.66667 438.8,-4.83333 433.967,-1.77636e-15 429.133,-1.77636e-15 429.133,-1.77636e-15 419.467,-1.77636e-15 419.467,-1.77636e-15 414.633,-1.77636e-15 409.8,-4.83333 409.8,-9.66667 409.8,-9.66667 409.8,-19.3333 409.8,-19.3333 409.8,-24.1667 414.633,-29 419.467,-29"/>
<text text-anchor="middle" x="424.3" y="-10.8" font-family="Times,serif" font-size="14.00">[]</text>
</a>
</g>
</g>
<!-- nd182 -->
<g id="node6" class="node"><title>nd182</title>
<g id="a_node6"><a xlink:title="nd182&#45;ConstListGraph">
<path fill="none" stroke="purple" d="M373.467,-50C373.467,-50 383.133,-50 383.133,-50 387.967,-50 392.8,-45.1667 392.8,-40.3333 392.8,-40.3333 392.8,-30.6667 392.8,-30.6667 392.8,-25.8333 387.967,-21 383.133,-21 383.133,-21 373.467,-21 373.467,-21 368.633,-21 363.8,-25.8333 363.8,-30.6667 363.8,-30.6667 363.8,-40.3333 363.8,-40.3333 363.8,-45.1667 368.633,-50 373.467,-50"/>
<text text-anchor="middle" x="378.3" y="-31.8" font-family="Times,serif" font-size="14.00">::</text>
</a>
</g>
</g>
<!-- nd182&#45;&gt;nd34 -->
<g id="edge1" class="edge"><title>nd182:n&#45;&gt;nd34:w</title>
<path fill="none" stroke="purple" d="M378.3,-51.5C378.3,-55.0438 406.256,-56.5 409.8,-56.5"/>
</g>
<!-- nd182&#45;&gt;nd39 -->
<g id="edge2" class="edge"><title>nd182:s&#45;&gt;nd39:w</title>
<path fill="none" stroke="purple" d="M378.3,-19.5C378.3,-5.32473 395.625,-14.5 409.8,-14.5"/>
</g>
<!-- nd188 -->
<g id="node7" class="node"><title>nd188</title>
<g id="a_node7"><a xlink:title="nd188&#45;ConstListGraph">
<path fill="none" stroke="purple" d="M327.467,-71C327.467,-71 337.133,-71 337.133,-71 341.967,-71 346.8,-66.1667 346.8,-61.3333 346.8,-61.3333 346.8,-51.6667 346.8,-51.6667 346.8,-46.8333 341.967,-42 337.133,-42 337.133,-42 327.467,-42 327.467,-42 322.633,-42 317.8,-46.8333 317.8,-51.6667 317.8,-51.6667 317.8,-61.3333 317.8,-61.3333 317.8,-66.1667 322.633,-71 327.467,-71"/>
<text text-anchor="middle" x="332.3" y="-52.8" font-family="Times,serif" font-size="14.00">::</text>
</a>
</g>
</g>
<!-- nd188&#45;&gt;nd28 -->
<g id="edge3" class="edge"><title>nd188:n&#45;&gt;nd28:w</title>
<path fill="none" stroke="purple" d="M332.3,-72.5C332.3,-86.6753 349.625,-77.5 363.8,-77.5"/>
</g>
<!-- nd188&#45;&gt;nd182 -->
<g id="edge4" class="edge"><title>nd188:s&#45;&gt;nd182:w</title>
<path fill="none" stroke="purple" d="M332.3,-40.5C332.3,-26.3247 349.625,-35.5 363.8,-35.5"/>
</g>
<!-- nd194 -->
<g id="node8" class="node"><title>nd194</title>
<g id="a_node8"><a xlink:title="nd194&#45;ConstListGraph">
<path fill="none" stroke="purple" d="M214.867,-86C214.867,-86 224.533,-86 224.533,-86 229.367,-86 234.2,-81.1667 234.2,-76.3333 234.2,-76.3333 234.2,-66.6667 234.2,-66.6667 234.2,-61.8333 229.367,-57 224.533,-57 224.533,-57 214.867,-57 214.867,-57 210.033,-57 205.2,-61.8333 205.2,-66.6667 205.2,-66.6667 205.2,-76.3333 205.2,-76.3333 205.2,-81.1667 210.033,-86 214.867,-86"/>
<text text-anchor="middle" x="219.7" y="-67.8" font-family="Times,serif" font-size="14.00">::</text>
</a>
</g>
</g>
<!-- nd299 -->
<g id="node17" class="node"><title>nd299</title>
<g id="a_node17"><a xlink:title="nd299&#45;ContractGraph">
<ellipse fill="black" stroke="black" cx="253" cy="-86.5" rx="1.8" ry="1.8"/>
</a>
</g>
</g>
<!-- nd194&#45;&gt;nd299 -->
<g id="edge5" class="edge"><title>nd194:n&#45;&gt;nd299:w</title>
<path fill="none" stroke="black" d="M219.7,-87.5C219.7,-101.507 237.193,-86.5 251.2,-86.5"/>
</g>
<!-- nd300 -->
<g id="node18" class="node"><title>nd300</title>
<g id="a_node18"><a xlink:title="nd300&#45;ContractGraph">
<ellipse fill="black" stroke="black" cx="253" cy="-56.5" rx="1.8" ry="1.8"/>
</a>
</g>
</g>
<!-- nd194&#45;&gt;nd300 -->
<g id="edge6" class="edge"><title>nd194:s&#45;&gt;nd300:w</title>
<path fill="none" stroke="black" d="M219.7,-55.5C219.7,-41.4929 237.193,-56.5 251.2,-56.5"/>
</g>
<!-- nd237 -->
<g id="node9" class="node"><title>nd237</title>
<g id="a_node9"><a xlink:title="nd237&#45;RecurGraph">
<ellipse fill="none" stroke="#000000" cx="127.1" cy="-128.5" rx="11" ry="11"/>
<text text-anchor="middle" x="127.1" y="-124.8" font-family="Times,serif" font-size="14.00">rec</text>
</a>
</g>
</g>
<!-- ndcluster_nd241 -->
<g id="node10" class="node"><title>ndcluster_nd241</title>
<g id="a_node10"><a xlink:title="nd241">
<ellipse fill="orange" stroke="orange" cx="170.4" cy="-143.5" rx="1.8" ry="1.8"/>
</a>
</g>
</g>
<!-- nd237&#45;&gt;ndcluster_nd241 -->
<g id="edge17" class="edge"><title>nd237:n&#45;&gt;ndcluster_nd241:e</title>
<path fill="none" stroke="grey" d="M127.1,-140.5C127.1,-211.886 186.13,-143.5 173.4,-143.5"/>
</g>
<!-- nd237&#45;&gt;ndcluster_nd241 -->
<g id="edge18" class="edge"><title>nd237:e&#45;&gt;ndcluster_nd241:w</title>
<path fill="none" stroke="black" d="M139.1,-128.5C153.335,-128.5 153.165,-143.5 167.4,-143.5"/>
</g>
<!-- nd155 -->
<g id="node12" class="node"><title>nd155</title>
<g id="a_node12"><a xlink:title="nd155&#45;AppGraph">
<path fill="none" stroke="#000000" d="M73.5473,-129.554C73.5473,-129.554 69.6719,-123.946 69.6719,-123.946 68.136,-121.723 68.136,-117.277 69.6719,-115.054 69.6719,-115.054 73.5473,-109.446 73.5473,-109.446 75.0833,-107.223 79.3212,-105.002 82.0231,-105.005 82.0231,-105.005 87.4269,-105.009 87.4269,-105.009 90.1288,-105.011 92.8307,-107.715 92.8307,-110.417 92.8307,-110.417 92.8307,-128.583 92.8307,-128.583 92.8307,-131.285 90.1288,-133.989 87.4269,-133.991 87.4269,-133.991 82.0231,-133.995 82.0231,-133.995 79.3212,-133.998 75.0833,-131.777 73.5473,-129.554"/>
<text text-anchor="middle" x="81.1" y="-115.8" font-family="Times,serif" font-size="14.00">@</text>
</a>
</g>
</g>
<!-- nd154&#45;&gt;nd155 -->
<g id="edge10" class="edge"><title>nd154:e&#45;&gt;nd155:w</title>
<path fill="none" stroke="#b70000" d="M48.1,-99.5C60.2086,-99.5 54.4914,-119.5 66.6,-119.5"/>
</g>
<!-- nd309 -->
<g id="node19" class="node"><title>nd309</title>
<g id="a_node19"><a xlink:title="nd309&#45;ConstGraph">
<path fill="none" stroke="purple" d="M76.2667,-92C76.2667,-92 85.9333,-92 85.9333,-92 90.7667,-92 95.6,-87.1667 95.6,-82.3333 95.6,-82.3333 95.6,-72.6667 95.6,-72.6667 95.6,-67.8333 90.7667,-63 85.9333,-63 85.9333,-63 76.2667,-63 76.2667,-63 71.4333,-63 66.6,-67.8333 66.6,-72.6667 66.6,-72.6667 66.6,-82.3333 66.6,-82.3333 66.6,-87.1667 71.4333,-92 76.2667,-92"/>
<text text-anchor="middle" x="81.1" y="-73.8" font-family="Times,serif" font-size="14.00">3</text>
</a>
</g>
</g>
<!-- nd154&#45;&gt;nd309 -->
<g id="edge11" class="edge"><title>nd154:s&#45;&gt;nd309:w</title>
<path fill="none" stroke="black" d="M35.1,-83.5C35.1,-69.2483 52.3483,-77.5 66.6,-77.5"/>
</g>
<!-- nd155&#45;&gt;nd237 -->
<g id="edge8" class="edge"><title>nd155:e&#45;&gt;nd237:w</title>
<path fill="none" stroke="black" d="M94.1,-119.5C104.254,-119.5 104.946,-128.5 115.1,-128.5"/>
</g>
<!-- nd157 -->
<g id="node13" class="node"><title>nd157</title>
<g id="a_node13"><a xlink:title="nd157&#45;AppGraph">
<path fill="none" stroke="#000000" d="M119.547,-99.5543C119.547,-99.5543 115.672,-93.9457 115.672,-93.9457 114.136,-91.7229 114.136,-87.2771 115.672,-85.0543 115.672,-85.0543 119.547,-79.4457 119.547,-79.4457 121.083,-77.2229 125.321,-75.0023 128.023,-75.0045 128.023,-75.0045 133.427,-75.009 133.427,-75.009 136.129,-75.0113 138.831,-77.7155 138.831,-80.4174 138.831,-80.4174 138.831,-98.5826 138.831,-98.5826 138.831,-101.285 136.129,-103.989 133.427,-103.991 133.427,-103.991 128.023,-103.995 128.023,-103.995 125.321,-103.998 121.083,-101.777 119.547,-99.5543"/>
<text text-anchor="middle" x="127.1" y="-85.8" font-family="Times,serif" font-size="14.00">@</text>
</a>
</g>
</g>
<!-- nd155&#45;&gt;nd157 -->
<g id="edge9" class="edge"><title>nd155:s&#45;&gt;nd157:w</title>
<path fill="none" stroke="#b70000" d="M81.1,-103.5C81.1,-96.6832 89.3467,-101.214 95.6,-98.5 103.442,-95.0963 104.051,-89.5 112.6,-89.5"/>
</g>
<!-- ndcluster_nd160 -->
<g id="node14" class="node"><title>ndcluster_nd160</title>
<g id="a_node14"><a xlink:title="nd160">
<ellipse fill="orange" stroke="orange" cx="170.4" cy="-91.5" rx="1.8" ry="1.8"/>
</a>
</g>
</g>
<!-- nd157&#45;&gt;ndcluster_nd160 -->
<g id="edge7" class="edge"><title>nd157:e&#45;&gt;ndcluster_nd160:w</title>
<path fill="none" stroke="black" d="M140.1,-89.5C152.266,-89.5 155.234,-91.5 167.4,-91.5"/>
</g>
<!-- nd173 -->
<g id="node15" class="node"><title>nd173</title>
<g id="a_node15"><a xlink:title="nd173&#45;ContractGraph">
<ellipse fill="black" stroke="black" cx="170.4" cy="-71.5" rx="1.8" ry="1.8"/>
</a>
</g>
</g>
<!-- nd157&#45;&gt;nd173 -->
<g id="edge12" class="edge"><title>nd157:s&#45;&gt;nd173:w</title>
<path fill="none" stroke="red" d="M127.1,-73.5C127.1,-58.7892 142.151,-66.8675 157.459,-70.2456"/>
<polygon fill="red" stroke="red" points="157.04,-73.7205 167.4,-71.5 157.917,-66.7755 157.04,-73.7205"/>
</g>
<!-- nd173&#45;&gt;nd194 -->
<g id="edge14" class="edge"><title>nd173:e&#45;&gt;nd194:w</title>
<path fill="none" stroke="black" d="M173.4,-71.5C187.533,-71.5 191.067,-71.5 205.2,-71.5"/>
<text text-anchor="middle" x="193.7" y="-75.3" font-family="Times,serif" font-size="14.00">x</text>
</g>
<!-- nd287 -->
<g id="node16" class="node"><title>nd287</title>
<g id="a_node16"><a xlink:title="nd287&#45;ContractGraph">
<ellipse fill="black" stroke="black" cx="286.3" cy="-56.5" rx="1.8" ry="1.8"/>
</a>
</g>
</g>
<!-- nd287&#45;&gt;nd188 -->
<g id="edge16" class="edge"><title>nd287:e&#45;&gt;nd188:w</title>
<path fill="none" stroke="black" d="M289.3,-56.5C301.967,-56.5 305.133,-56.5 317.8,-56.5"/>
</g>
<!-- nd299&#45;&gt;nd22 -->
<g id="edge15" class="edge"><title>nd299:e&#45;&gt;nd22:w</title>
<path fill="none" stroke="black" d="M254.8,-86.5C262.356,-86.5 264.244,-86.5 271.8,-86.5"/>
</g>
<!-- nd300&#45;&gt;nd287 -->
<g id="edge19" class="edge"><title>nd300:e&#45;&gt;nd287:w</title>
<path fill="none" stroke="black" d="M254.8,-56.5C267.467,-56.5 270.633,-56.5 283.3,-56.5"/>
</g>
</g>
</svg>
