<?xml version="1.0" encoding="UTF-8" standalone="no"?>
<!DOCTYPE svg PUBLIC "-//W3C//DTD SVG 1.1//EN"
 "http://www.w3.org/Graphics/SVG/1.1/DTD/svg11.dtd">
<!-- Generated by graphviz version 2.38.0 (20140413.2041)
 -->
<!-- Title: G Pages: 1 -->
<svg width="377pt" height="136pt"
 viewBox="0.00 0.00 376.60 136.40" xmlns="http://www.w3.org/2000/svg" xmlns:xlink="http://www.w3.org/1999/xlink">
<g id="graph0" class="graph" transform="scale(1 1) rotate(0) translate(4 132.4)">
<title>G</title>
<polygon fill="white" stroke="none" points="-4,4 -4,-132.4 372.6,-132.4 372.6,4 -4,4"/>
<g id="clust1" class="cluster"><title>cluster_nd395</title>
<polygon fill="none" stroke="orange" points="169.3,-98.7157 169.3,-118.716 188.9,-118.716 188.9,-98.7157 169.3,-98.7157"/>
</g>
<!-- nd1 -->
<g id="node1" class="node"><title>nd1</title>
<ellipse fill="black" stroke="black" cx="1.8" cy="-65.7157" rx="1.8" ry="1.8"/>
</g>
<!-- nd332 -->
<g id="node7" class="node"><title>nd332</title>
<g id="a_node7"><a xlink:title="nd332&#45;AppGraph">
<path fill="none" stroke="#000000" d="M27.5473,-75.7699C27.5473,-75.7699 23.6719,-70.1614 23.6719,-70.1614 22.136,-67.9385 22.136,-63.4928 23.6719,-61.2699 23.6719,-61.2699 27.5473,-55.6614 27.5473,-55.6614 29.0833,-53.4385 33.3212,-51.2179 36.0231,-51.2202 36.0231,-51.2202 41.4269,-51.2247 41.4269,-51.2247 44.1288,-51.2269 46.8307,-53.9311 46.8307,-56.633 46.8307,-56.633 46.8307,-74.7983 46.8307,-74.7983 46.8307,-77.5002 44.1288,-80.2044 41.4269,-80.2066 41.4269,-80.2066 36.0231,-80.2111 36.0231,-80.2111 33.3212,-80.2134 29.0833,-77.9928 27.5473,-75.7699"/>
<text text-anchor="middle" x="35.1" y="-62.0157" font-family="Times,serif" font-size="14.00">@</text>
</a>
</g>
</g>
<!-- nd1&#45;&gt;nd332 -->
<g id="edge12" class="edge"><title>nd1:e&#45;&gt;nd332:w</title>
<path fill="none" stroke="#b70000" d="M3.6,-65.7157C11.1556,-65.7157 13.0444,-65.7157 20.6,-65.7157"/>
</g>
<!-- nd34 -->
<g id="node2" class="node"><title>nd34</title>
<g id="a_node2"><a xlink:title="nd34&#45;ConstGraph">
<path fill="none" stroke="purple" d="M303.267,-61.2157C303.267,-61.2157 312.933,-61.2157 312.933,-61.2157 317.767,-61.2157 322.6,-56.3823 322.6,-51.549 322.6,-51.549 322.6,-41.8823 322.6,-41.8823 322.6,-37.049 317.767,-32.2157 312.933,-32.2157 312.933,-32.2157 303.267,-32.2157 303.267,-32.2157 298.433,-32.2157 293.6,-37.049 293.6,-41.8823 293.6,-41.8823 293.6,-51.549 293.6,-51.549 293.6,-56.3823 298.433,-61.2157 303.267,-61.2157"/>
<text text-anchor="middle" x="308.1" y="-43.0157" font-family="Times,serif" font-size="14.00">4</text>
</a>
</g>
</g>
<!-- nd39 -->
<g id="node3" class="node"><title>nd39</title>
<g id="a_node3"><a xlink:title="nd39&#45;ConstEmptyGraph">
<path fill="none" stroke="purple" d="M349.267,-31.2157C349.267,-31.2157 358.933,-31.2157 358.933,-31.2157 363.767,-31.2157 368.6,-26.3823 368.6,-21.549 368.6,-21.549 368.6,-11.8823 368.6,-11.8823 368.6,-7.04899 363.767,-2.21566 358.933,-2.21566 358.933,-2.21566 349.267,-2.21566 349.267,-2.21566 344.433,-2.21566 339.6,-7.04899 339.6,-11.8823 339.6,-11.8823 339.6,-21.549 339.6,-21.549 339.6,-26.3823 344.433,-31.2157 349.267,-31.2157"/>
<text text-anchor="middle" x="354.1" y="-13.0157" font-family="Times,serif" font-size="14.00">[]</text>
</a>
</g>
</g>
<!-- nd182 -->
<g id="node4" class="node"><title>nd182</title>
<g id="a_node4"><a xlink:title="nd182&#45;ConstListGraph">
<path fill="none" stroke="purple" d="M174.267,-46.2157C174.267,-46.2157 183.933,-46.2157 183.933,-46.2157 188.767,-46.2157 193.6,-41.3823 193.6,-36.549 193.6,-36.549 193.6,-26.8823 193.6,-26.8823 193.6,-22.049 188.767,-17.2157 183.933,-17.2157 183.933,-17.2157 174.267,-17.2157 174.267,-17.2157 169.433,-17.2157 164.6,-22.049 164.6,-26.8823 164.6,-26.8823 164.6,-36.549 164.6,-36.549 164.6,-41.3823 169.433,-46.2157 174.267,-46.2157"/>
<text text-anchor="middle" x="179.1" y="-28.0157" font-family="Times,serif" font-size="14.00">::</text>
</a>
</g>
</g>
<!-- nd453 -->
<g id="node11" class="node"><title>nd453</title>
<g id="a_node11"><a xlink:title="nd453&#45;ContractGraph">
<ellipse fill="black" stroke="black" cx="262.1" cy="-46.7157" rx="1.8" ry="1.8"/>
</a>
</g>
</g>
<!-- nd182&#45;&gt;nd453 -->
<g id="edge1" class="edge"><title>nd182:n&#45;&gt;nd453:w</title>
<path fill="none" stroke="black" d="M179.1,-47.7157C179.1,-56.6052 250.21,-46.7157 259.1,-46.7157"/>
</g>
<!-- nd454 -->
<g id="node12" class="node"><title>nd454</title>
<g id="a_node12"><a xlink:title="nd454&#45;ContractGraph">
<ellipse fill="black" stroke="black" cx="262.1" cy="-16.7157" rx="1.8" ry="1.8"/>
</a>
</g>
</g>
<!-- nd182&#45;&gt;nd454 -->
<g id="edge2" class="edge"><title>nd182:s&#45;&gt;nd454:w</title>
<path fill="none" stroke="black" d="M179.1,-15.7157C179.1,19.8427 223.542,-16.7157 259.1,-16.7157"/>
</g>
<!-- nd391 -->
<g id="node5" class="node"><title>nd391</title>
<g id="a_node5"><a xlink:title="nd391&#45;RecurGraph">
<ellipse fill="none" stroke="#000000" cx="127.1" cy="-94.7157" rx="11" ry="11"/>
<text text-anchor="middle" x="127.1" y="-91.0157" font-family="Times,serif" font-size="14.00">rec</text>
</a>
</g>
</g>
<!-- ndcluster_nd395 -->
<g id="node6" class="node"><title>ndcluster_nd395</title>
<g id="a_node6"><a xlink:title="nd395">
<ellipse fill="orange" stroke="orange" cx="179.1" cy="-108.716" rx="1.8" ry="1.8"/>
</a>
</g>
</g>
<!-- nd391&#45;&gt;ndcluster_nd395 -->
<g id="edge14" class="edge"><title>nd391:n&#45;&gt;ndcluster_nd395:e</title>
<path fill="none" stroke="grey" d="M127.1,-106.716C127.1,-153.84 189.966,-108.716 182.1,-108.716"/>
</g>
<!-- nd391&#45;&gt;ndcluster_nd395 -->
<g id="edge15" class="edge"><title>nd391:e&#45;&gt;ndcluster_nd395:w</title>
<path fill="none" stroke="black" d="M139.1,-94.7157C156.682,-94.7157 158.518,-108.716 176.1,-108.716"/>
</g>
<!-- nd333 -->
<g id="node8" class="node"><title>nd333</title>
<g id="a_node8"><a xlink:title="nd333&#45;AppGraph">
<path fill="none" stroke="#000000" d="M73.5473,-95.7699C73.5473,-95.7699 69.6719,-90.1614 69.6719,-90.1614 68.136,-87.9385 68.136,-83.4928 69.6719,-81.2699 69.6719,-81.2699 73.5473,-75.6614 73.5473,-75.6614 75.0833,-73.4385 79.3212,-71.2179 82.0231,-71.2202 82.0231,-71.2202 87.4269,-71.2247 87.4269,-71.2247 90.1288,-71.2269 92.8307,-73.9311 92.8307,-76.633 92.8307,-76.633 92.8307,-94.7983 92.8307,-94.7983 92.8307,-97.5002 90.1288,-100.204 87.4269,-100.207 87.4269,-100.207 82.0231,-100.211 82.0231,-100.211 79.3212,-100.213 75.0833,-97.9928 73.5473,-95.7699"/>
<text text-anchor="middle" x="81.1" y="-82.0157" font-family="Times,serif" font-size="14.00">@</text>
</a>
</g>
</g>
<!-- nd332&#45;&gt;nd333 -->
<g id="edge10" class="edge"><title>nd332:e&#45;&gt;nd333:w</title>
<path fill="none" stroke="#b70000" d="M48.1,-65.7157C60.2086,-65.7157 54.4914,-85.7157 66.6,-85.7157"/>
</g>
<!-- nd463 -->
<g id="node13" class="node"><title>nd463</title>
<g id="a_node13"><a xlink:title="nd463&#45;ConstGraph">
<path fill="none" stroke="purple" d="M76.2667,-58.2157C76.2667,-58.2157 85.9333,-58.2157 85.9333,-58.2157 90.7667,-58.2157 95.6,-53.3823 95.6,-48.549 95.6,-48.549 95.6,-38.8823 95.6,-38.8823 95.6,-34.049 90.7667,-29.2157 85.9333,-29.2157 85.9333,-29.2157 76.2667,-29.2157 76.2667,-29.2157 71.4333,-29.2157 66.6,-34.049 66.6,-38.8823 66.6,-38.8823 66.6,-48.549 66.6,-48.549 66.6,-53.3823 71.4333,-58.2157 76.2667,-58.2157"/>
<text text-anchor="middle" x="81.1" y="-40.0157" font-family="Times,serif" font-size="14.00">10</text>
</a>
</g>
</g>
<!-- nd332&#45;&gt;nd463 -->
<g id="edge11" class="edge"><title>nd332:s&#45;&gt;nd463:w</title>
<path fill="none" stroke="black" d="M35.1,-49.7157C35.1,-35.464 52.3483,-43.7157 66.6,-43.7157"/>
</g>
<!-- nd333&#45;&gt;nd391 -->
<g id="edge8" class="edge"><title>nd333:e&#45;&gt;nd391:w</title>
<path fill="none" stroke="black" d="M94.1,-85.7157C104.254,-85.7157 104.946,-94.7157 115.1,-94.7157"/>
</g>
<!-- nd335 -->
<g id="node9" class="node"><title>nd335</title>
<g id="a_node9"><a xlink:title="nd335&#45;AppGraph">
<path fill="none" stroke="#000000" d="M119.547,-65.7699C119.547,-65.7699 115.672,-60.1614 115.672,-60.1614 114.136,-57.9385 114.136,-53.4928 115.672,-51.2699 115.672,-51.2699 119.547,-45.6614 119.547,-45.6614 121.083,-43.4385 125.321,-41.2179 128.023,-41.2202 128.023,-41.2202 133.427,-41.2247 133.427,-41.2247 136.129,-41.2269 138.831,-43.9311 138.831,-46.633 138.831,-46.633 138.831,-64.7983 138.831,-64.7983 138.831,-67.5002 136.129,-70.2044 133.427,-70.2066 133.427,-70.2066 128.023,-70.2111 128.023,-70.2111 125.321,-70.2134 121.083,-67.9928 119.547,-65.7699"/>
<text text-anchor="middle" x="127.1" y="-52.0157" font-family="Times,serif" font-size="14.00">@</text>
</a>
</g>
</g>
<!-- nd333&#45;&gt;nd335 -->
<g id="edge9" class="edge"><title>nd333:s&#45;&gt;nd335:w</title>
<path fill="none" stroke="#b70000" d="M81.1,-69.7157C81.1,-62.8988 89.3467,-67.4297 95.6,-64.7157 103.442,-61.312 104.051,-55.7157 112.6,-55.7157"/>
</g>
<!-- nd335&#45;&gt;nd182 -->
<g id="edge13" class="edge"><title>nd335:s&#45;&gt;nd182:w</title>
<path fill="none" stroke="black" d="M127.1,-39.7157C127.1,-22.674 147.558,-31.7157 164.6,-31.7157"/>
<text text-anchor="middle" x="153.1" y="-35.5157" font-family="Times,serif" font-size="14.00">x</text>
</g>
<!-- nd339 -->
<g id="node14" class="node"><title>nd339</title>
<g id="a_node14"><a xlink:title="nd339&#45;AbsGraph">
<ellipse fill="none" stroke="#000000" cx="179.1" cy="-73.7157" rx="14.5" ry="14.5"/>
<text text-anchor="middle" x="179.1" y="-70.0157" font-family="Times,serif" font-size="14.00">fun</text>
</a>
</g>
</g>
<!-- nd335&#45;&gt;nd339 -->
<g id="edge7" class="edge"><title>nd335:e&#45;&gt;nd339:w</title>
<path fill="none" stroke="red" d="M140.1,-55.7157C149.178,-55.7157 151.018,-63.8411 155.346,-69.1735"/>
<polygon fill="red" stroke="red" points="154.081,-72.4515 164.6,-73.7157 157.165,-66.1676 154.081,-72.4515"/>
</g>
<!-- nd441 -->
<g id="node10" class="node"><title>nd441</title>
<g id="a_node10"><a xlink:title="nd441&#45;ContractGraph">
<ellipse fill="black" stroke="black" cx="308.1" cy="-16.7157" rx="1.8" ry="1.8"/>
</a>
</g>
</g>
<!-- nd441&#45;&gt;nd39 -->
<g id="edge4" class="edge"><title>nd441:e&#45;&gt;nd39:w</title>
<path fill="none" stroke="black" d="M311.1,-16.7157C323.767,-16.7157 326.933,-16.7157 339.6,-16.7157"/>
</g>
<!-- nd453&#45;&gt;nd34 -->
<g id="edge3" class="edge"><title>nd453:e&#45;&gt;nd34:w</title>
<path fill="none" stroke="black" d="M265.1,-46.7157C277.767,-46.7157 280.933,-46.7157 293.6,-46.7157"/>
</g>
<!-- nd454&#45;&gt;nd441 -->
<g id="edge16" class="edge"><title>nd454:e&#45;&gt;nd441:w</title>
<path fill="none" stroke="black" d="M265.1,-16.7157C282.878,-16.7157 287.322,-16.7157 305.1,-16.7157"/>
</g>
<!-- nd340 -->
<g id="node15" class="node"><title>nd340</title>
<g id="a_node15"><a xlink:title="nd340&#45;UnOpGraph">
<ellipse fill="none" stroke="#000000" cx="262.1" cy="-84.7157" rx="14.5" ry="14.5"/>
<text text-anchor="middle" x="262.1" y="-81.0157" font-family="Times,serif" font-size="14.00">tl</text>
</a>
</g>
</g>
<!-- nd339&#45;&gt;nd340 -->
<g id="edge5" class="edge"><title>nd339:e&#45;&gt;nd340:w</title>
<path fill="none" stroke="black" d="M193.6,-73.7157C214.28,-73.7157 219.889,-74.4597 239.6,-80.7157 243.389,-81.9182 243.625,-84.7157 247.6,-84.7157"/>
</g>
<!-- nd339&#45;&gt;nd340 -->
<g id="edge6" class="edge"><title>nd339:n&#45;&gt;nd340:e</title>
<path fill="none" stroke="grey" d="M179.1,-89.7157C179.1,-95.1856 273.101,-102.948 277.1,-99.2157 278.281,-98.1137 279.715,-84.7157 278.1,-84.7157"/>
<text text-anchor="middle" x="220.6" y="-102.516" font-family="Times,serif" font-size="14.00">op_arg</text>
</g>
</g>
</svg>
