<?xml version="1.0" encoding="UTF-8" standalone="no"?>
<!DOCTYPE svg PUBLIC "-//W3C//DTD SVG 1.1//EN"
 "http://www.w3.org/Graphics/SVG/1.1/DTD/svg11.dtd">
<!-- Generated by graphviz version 2.38.0 (20140413.2041)
 -->
<!-- Title: G Pages: 1 -->
<svg width="84pt" height="38pt"
 viewBox="0.00 0.00 84.20 37.50" xmlns="http://www.w3.org/2000/svg" xmlns:xlink="http://www.w3.org/1999/xlink">
<g id="graph0" class="graph" transform="scale(1 1) rotate(0) translate(4 33.5)">
<title>G</title>
<polygon fill="white" stroke="none" points="-4,4 -4,-33.5 80.2,-33.5 80.2,4 -4,4"/>
<!-- nd1 -->
<g id="node1" class="node"><title>nd1</title>
<ellipse fill="black" stroke="black" cx="1.8" cy="-14.5" rx="1.8" ry="1.8"/>
</g>
<!-- nd429 -->
<g id="node3" class="node"><title>nd429</title>
<g id="a_node3"><a xlink:title="nd429&#45;ContractGraph">
<ellipse fill="black" stroke="black" cx="22.4" cy="-14.5" rx="1.8" ry="1.8"/>
</a>
</g>
</g>
<!-- nd1&#45;&gt;nd429 -->
<g id="edge1" class="edge"><title>nd1:e&#45;&gt;nd429:w</title>
<path fill="none" stroke="red" d="M3.6,-14.5C6.43333,-14.5 8.46979,-14.5 10.307,-14.5"/>
<polygon fill="red" stroke="red" points="10.6,-18.0001 20.6,-14.5 10.6,-11.0001 10.6,-18.0001"/>
</g>
<!-- nd463 -->
<g id="node2" class="node"><title>nd463</title>
<g id="a_node2"><a xlink:title="nd463&#45;ConstGraph">
<path fill="none" stroke="purple" d="M56.8667,-29C56.8667,-29 66.5333,-29 66.5333,-29 71.3667,-29 76.2,-24.1667 76.2,-19.3333 76.2,-19.3333 76.2,-9.66667 76.2,-9.66667 76.2,-4.83333 71.3667,-0 66.5333,-0 66.5333,-0 56.8667,-0 56.8667,-0 52.0333,-0 47.2,-4.83333 47.2,-9.66667 47.2,-9.66667 47.2,-19.3333 47.2,-19.3333 47.2,-24.1667 52.0333,-29 56.8667,-29"/>
<text text-anchor="middle" x="61.7" y="-10.8" font-family="Times,serif" font-size="14.00">10</text>
</a>
</g>
</g>
<!-- nd429&#45;&gt;nd463 -->
<g id="edge2" class="edge"><title>nd429:e&#45;&gt;nd463:w</title>
<path fill="none" stroke="black" d="M24.2,-14.5C34.4222,-14.5 36.9778,-14.5 47.2,-14.5"/>
<text text-anchor="middle" x="35.7" y="-18.3" font-family="Times,serif" font-size="14.00">y</text>
</g>
</g>
</svg>
