<?xml version="1.0" encoding="UTF-8" standalone="no"?>
<!DOCTYPE svg PUBLIC "-//W3C//DTD SVG 1.1//EN"
 "http://www.w3.org/Graphics/SVG/1.1/DTD/svg11.dtd">
<!-- Generated by graphviz version 2.38.0 (20140413.2041)
 -->
<!-- Title: G Pages: 1 -->
<svg width="423pt" height="155pt"
 viewBox="0.00 0.00 422.60 155.18" xmlns="http://www.w3.org/2000/svg" xmlns:xlink="http://www.w3.org/1999/xlink">
<g id="graph0" class="graph" transform="scale(1 1) rotate(0) translate(4 151.185)">
<title>G</title>
<polygon fill="white" stroke="none" points="-4,4 -4,-151.185 418.6,-151.185 418.6,4 -4,4"/>
<g id="clust1" class="cluster"><title>cluster_nd318</title>
<polygon fill="none" stroke="orange" points="169.3,-117.5 169.3,-137.5 188.9,-137.5 188.9,-117.5 169.3,-117.5"/>
</g>
<!-- nd1 -->
<g id="node1" class="node"><title>nd1</title>
<ellipse fill="black" stroke="black" cx="1.8" cy="-84.5" rx="1.8" ry="1.8"/>
</g>
<!-- nd255 -->
<g id="node9" class="node"><title>nd255</title>
<g id="a_node9"><a xlink:title="nd255&#45;AppGraph">
<path fill="none" stroke="#000000" d="M27.5473,-94.5543C27.5473,-94.5543 23.6719,-88.9457 23.6719,-88.9457 22.136,-86.7229 22.136,-82.2771 23.6719,-80.0543 23.6719,-80.0543 27.5473,-74.4457 27.5473,-74.4457 29.0833,-72.2229 33.3212,-70.0023 36.0231,-70.0045 36.0231,-70.0045 41.4269,-70.009 41.4269,-70.009 44.1288,-70.0113 46.8307,-72.7155 46.8307,-75.4174 46.8307,-75.4174 46.8307,-93.5826 46.8307,-93.5826 46.8307,-96.2845 44.1288,-98.9887 41.4269,-98.991 41.4269,-98.991 36.0231,-98.9955 36.0231,-98.9955 33.3212,-98.9977 29.0833,-96.7771 27.5473,-94.5543"/>
<text text-anchor="middle" x="35.1" y="-80.8" font-family="Times,serif" font-size="14.00">@</text>
</a>
</g>
</g>
<!-- nd1&#45;&gt;nd255 -->
<g id="edge14" class="edge"><title>nd1:e&#45;&gt;nd255:w</title>
<path fill="none" stroke="#b70000" d="M3.6,-84.5C11.1556,-84.5 13.0444,-84.5 20.6,-84.5"/>
</g>
<!-- nd28 -->
<g id="node2" class="node"><title>nd28</title>
<g id="a_node2"><a xlink:title="nd28&#45;ConstGraph">
<path fill="none" stroke="purple" d="M303.267,-80C303.267,-80 312.933,-80 312.933,-80 317.767,-80 322.6,-75.1667 322.6,-70.3333 322.6,-70.3333 322.6,-60.6667 322.6,-60.6667 322.6,-55.8333 317.767,-51 312.933,-51 312.933,-51 303.267,-51 303.267,-51 298.433,-51 293.6,-55.8333 293.6,-60.6667 293.6,-60.6667 293.6,-70.3333 293.6,-70.3333 293.6,-75.1667 298.433,-80 303.267,-80"/>
<text text-anchor="middle" x="308.1" y="-61.8" font-family="Times,serif" font-size="14.00">3</text>
</a>
</g>
</g>
<!-- nd34 -->
<g id="node3" class="node"><title>nd34</title>
<g id="a_node3"><a xlink:title="nd34&#45;ConstGraph">
<path fill="none" stroke="purple" d="M395.267,-71C395.267,-71 404.933,-71 404.933,-71 409.767,-71 414.6,-66.1667 414.6,-61.3333 414.6,-61.3333 414.6,-51.6667 414.6,-51.6667 414.6,-46.8333 409.767,-42 404.933,-42 404.933,-42 395.267,-42 395.267,-42 390.433,-42 385.6,-46.8333 385.6,-51.6667 385.6,-51.6667 385.6,-61.3333 385.6,-61.3333 385.6,-66.1667 390.433,-71 395.267,-71"/>
<text text-anchor="middle" x="400.1" y="-52.8" font-family="Times,serif" font-size="14.00">4</text>
</a>
</g>
</g>
<!-- nd39 -->
<g id="node4" class="node"><title>nd39</title>
<g id="a_node4"><a xlink:title="nd39&#45;ConstEmptyGraph">
<path fill="none" stroke="purple" d="M395.267,-29C395.267,-29 404.933,-29 404.933,-29 409.767,-29 414.6,-24.1667 414.6,-19.3333 414.6,-19.3333 414.6,-9.66667 414.6,-9.66667 414.6,-4.83333 409.767,-1.77636e-15 404.933,-1.77636e-15 404.933,-1.77636e-15 395.267,-1.77636e-15 395.267,-1.77636e-15 390.433,-1.77636e-15 385.6,-4.83333 385.6,-9.66667 385.6,-9.66667 385.6,-19.3333 385.6,-19.3333 385.6,-24.1667 390.433,-29 395.267,-29"/>
<text text-anchor="middle" x="400.1" y="-10.8" font-family="Times,serif" font-size="14.00">[]</text>
</a>
</g>
</g>
<!-- nd182 -->
<g id="node5" class="node"><title>nd182</title>
<g id="a_node5"><a xlink:title="nd182&#45;ConstListGraph">
<path fill="none" stroke="purple" d="M349.267,-50C349.267,-50 358.933,-50 358.933,-50 363.767,-50 368.6,-45.1667 368.6,-40.3333 368.6,-40.3333 368.6,-30.6667 368.6,-30.6667 368.6,-25.8333 363.767,-21 358.933,-21 358.933,-21 349.267,-21 349.267,-21 344.433,-21 339.6,-25.8333 339.6,-30.6667 339.6,-30.6667 339.6,-40.3333 339.6,-40.3333 339.6,-45.1667 344.433,-50 349.267,-50"/>
<text text-anchor="middle" x="354.1" y="-31.8" font-family="Times,serif" font-size="14.00">::</text>
</a>
</g>
</g>
<!-- nd182&#45;&gt;nd34 -->
<g id="edge1" class="edge"><title>nd182:n&#45;&gt;nd34:w</title>
<path fill="none" stroke="purple" d="M354.1,-51.5C354.1,-65.6753 371.425,-56.5 385.6,-56.5"/>
</g>
<!-- nd182&#45;&gt;nd39 -->
<g id="edge2" class="edge"><title>nd182:s&#45;&gt;nd39:w</title>
<path fill="none" stroke="purple" d="M354.1,-19.5C354.1,-5.32473 371.425,-14.5 385.6,-14.5"/>
</g>
<!-- nd188 -->
<g id="node6" class="node"><title>nd188</title>
<g id="a_node6"><a xlink:title="nd188&#45;ConstListGraph">
<path fill="none" stroke="purple" d="M174.267,-65C174.267,-65 183.933,-65 183.933,-65 188.767,-65 193.6,-60.1667 193.6,-55.3333 193.6,-55.3333 193.6,-45.6667 193.6,-45.6667 193.6,-40.8333 188.767,-36 183.933,-36 183.933,-36 174.267,-36 174.267,-36 169.433,-36 164.6,-40.8333 164.6,-45.6667 164.6,-45.6667 164.6,-55.3333 164.6,-55.3333 164.6,-60.1667 169.433,-65 174.267,-65"/>
<text text-anchor="middle" x="179.1" y="-46.8" font-family="Times,serif" font-size="14.00">::</text>
</a>
</g>
</g>
<!-- nd376 -->
<g id="node13" class="node"><title>nd376</title>
<g id="a_node13"><a xlink:title="nd376&#45;ContractGraph">
<ellipse fill="black" stroke="black" cx="262.1" cy="-65.5" rx="1.8" ry="1.8"/>
</a>
</g>
</g>
<!-- nd188&#45;&gt;nd376 -->
<g id="edge3" class="edge"><title>nd188:n&#45;&gt;nd376:w</title>
<path fill="none" stroke="black" d="M179.1,-66.5C179.1,-75.3896 250.21,-65.5 259.1,-65.5"/>
</g>
<!-- nd377 -->
<g id="node14" class="node"><title>nd377</title>
<g id="a_node14"><a xlink:title="nd377&#45;ContractGraph">
<ellipse fill="black" stroke="black" cx="262.1" cy="-35.5" rx="1.8" ry="1.8"/>
</a>
</g>
</g>
<!-- nd188&#45;&gt;nd377 -->
<g id="edge4" class="edge"><title>nd188:s&#45;&gt;nd377:w</title>
<path fill="none" stroke="black" d="M179.1,-34.5C179.1,1.05833 223.542,-35.5 259.1,-35.5"/>
</g>
<!-- nd314 -->
<g id="node7" class="node"><title>nd314</title>
<g id="a_node7"><a xlink:title="nd314&#45;RecurGraph">
<ellipse fill="none" stroke="#000000" cx="127.1" cy="-113.5" rx="11" ry="11"/>
<text text-anchor="middle" x="127.1" y="-109.8" font-family="Times,serif" font-size="14.00">rec</text>
</a>
</g>
</g>
<!-- ndcluster_nd318 -->
<g id="node8" class="node"><title>ndcluster_nd318</title>
<g id="a_node8"><a xlink:title="nd318">
<ellipse fill="orange" stroke="orange" cx="179.1" cy="-127.5" rx="1.8" ry="1.8"/>
</a>
</g>
</g>
<!-- nd314&#45;&gt;ndcluster_nd318 -->
<g id="edge16" class="edge"><title>nd314:n&#45;&gt;ndcluster_nd318:e</title>
<path fill="none" stroke="grey" d="M127.1,-125.5C127.1,-172.624 189.966,-127.5 182.1,-127.5"/>
</g>
<!-- nd314&#45;&gt;ndcluster_nd318 -->
<g id="edge17" class="edge"><title>nd314:e&#45;&gt;ndcluster_nd318:w</title>
<path fill="none" stroke="black" d="M139.1,-113.5C156.682,-113.5 158.518,-127.5 176.1,-127.5"/>
</g>
<!-- nd256 -->
<g id="node10" class="node"><title>nd256</title>
<g id="a_node10"><a xlink:title="nd256&#45;AppGraph">
<path fill="none" stroke="#000000" d="M73.5473,-114.554C73.5473,-114.554 69.6719,-108.946 69.6719,-108.946 68.136,-106.723 68.136,-102.277 69.6719,-100.054 69.6719,-100.054 73.5473,-94.4457 73.5473,-94.4457 75.0833,-92.2229 79.3212,-90.0023 82.0231,-90.0045 82.0231,-90.0045 87.4269,-90.009 87.4269,-90.009 90.1288,-90.0113 92.8307,-92.7155 92.8307,-95.4174 92.8307,-95.4174 92.8307,-113.583 92.8307,-113.583 92.8307,-116.285 90.1288,-118.989 87.4269,-118.991 87.4269,-118.991 82.0231,-118.995 82.0231,-118.995 79.3212,-118.998 75.0833,-116.777 73.5473,-114.554"/>
<text text-anchor="middle" x="81.1" y="-100.8" font-family="Times,serif" font-size="14.00">@</text>
</a>
</g>
</g>
<!-- nd255&#45;&gt;nd256 -->
<g id="edge12" class="edge"><title>nd255:e&#45;&gt;nd256:w</title>
<path fill="none" stroke="#b70000" d="M48.1,-84.5C60.2086,-84.5 54.4914,-104.5 66.6,-104.5"/>
</g>
<!-- nd386 -->
<g id="node15" class="node"><title>nd386</title>
<g id="a_node15"><a xlink:title="nd386&#45;ConstGraph">
<path fill="none" stroke="purple" d="M76.2667,-77C76.2667,-77 85.9333,-77 85.9333,-77 90.7667,-77 95.6,-72.1667 95.6,-67.3333 95.6,-67.3333 95.6,-57.6667 95.6,-57.6667 95.6,-52.8333 90.7667,-48 85.9333,-48 85.9333,-48 76.2667,-48 76.2667,-48 71.4333,-48 66.6,-52.8333 66.6,-57.6667 66.6,-57.6667 66.6,-67.3333 66.6,-67.3333 66.6,-72.1667 71.4333,-77 76.2667,-77"/>
<text text-anchor="middle" x="81.1" y="-58.8" font-family="Times,serif" font-size="14.00">6</text>
</a>
</g>
</g>
<!-- nd255&#45;&gt;nd386 -->
<g id="edge13" class="edge"><title>nd255:s&#45;&gt;nd386:w</title>
<path fill="none" stroke="black" d="M35.1,-68.5C35.1,-54.2483 52.3483,-62.5 66.6,-62.5"/>
</g>
<!-- nd256&#45;&gt;nd314 -->
<g id="edge10" class="edge"><title>nd256:e&#45;&gt;nd314:w</title>
<path fill="none" stroke="black" d="M94.1,-104.5C104.254,-104.5 104.946,-113.5 115.1,-113.5"/>
</g>
<!-- nd258 -->
<g id="node11" class="node"><title>nd258</title>
<g id="a_node11"><a xlink:title="nd258&#45;AppGraph">
<path fill="none" stroke="#000000" d="M119.547,-84.5543C119.547,-84.5543 115.672,-78.9457 115.672,-78.9457 114.136,-76.7229 114.136,-72.2771 115.672,-70.0543 115.672,-70.0543 119.547,-64.4457 119.547,-64.4457 121.083,-62.2229 125.321,-60.0023 128.023,-60.0045 128.023,-60.0045 133.427,-60.009 133.427,-60.009 136.129,-60.0113 138.831,-62.7155 138.831,-65.4174 138.831,-65.4174 138.831,-83.5826 138.831,-83.5826 138.831,-86.2845 136.129,-88.9887 133.427,-88.991 133.427,-88.991 128.023,-88.9955 128.023,-88.9955 125.321,-88.9977 121.083,-86.7771 119.547,-84.5543"/>
<text text-anchor="middle" x="127.1" y="-70.8" font-family="Times,serif" font-size="14.00">@</text>
</a>
</g>
</g>
<!-- nd256&#45;&gt;nd258 -->
<g id="edge11" class="edge"><title>nd256:s&#45;&gt;nd258:w</title>
<path fill="none" stroke="#b70000" d="M81.1,-88.5C81.1,-81.6832 89.3467,-86.214 95.6,-83.5 103.442,-80.0963 104.051,-74.5 112.6,-74.5"/>
</g>
<!-- nd258&#45;&gt;nd188 -->
<g id="edge15" class="edge"><title>nd258:s&#45;&gt;nd188:w</title>
<path fill="none" stroke="black" d="M127.1,-58.5C127.1,-41.4583 147.558,-50.5 164.6,-50.5"/>
<text text-anchor="middle" x="153.1" y="-53.3" font-family="Times,serif" font-size="14.00">x</text>
</g>
<!-- nd262 -->
<g id="node16" class="node"><title>nd262</title>
<g id="a_node16"><a xlink:title="nd262&#45;AbsGraph">
<ellipse fill="none" stroke="#000000" cx="179.1" cy="-92.5" rx="14.5" ry="14.5"/>
<text text-anchor="middle" x="179.1" y="-88.8" font-family="Times,serif" font-size="14.00">fun</text>
</a>
</g>
</g>
<!-- nd258&#45;&gt;nd262 -->
<g id="edge9" class="edge"><title>nd258:e&#45;&gt;nd262:w</title>
<path fill="none" stroke="#b70000" d="M140.1,-74.5C153.612,-74.5 151.088,-92.5 164.6,-92.5"/>
</g>
<!-- nd364 -->
<g id="node12" class="node"><title>nd364</title>
<g id="a_node12"><a xlink:title="nd364&#45;ContractGraph">
<ellipse fill="black" stroke="black" cx="308.1" cy="-35.5" rx="1.8" ry="1.8"/>
</a>
</g>
</g>
<!-- nd364&#45;&gt;nd182 -->
<g id="edge6" class="edge"><title>nd364:e&#45;&gt;nd182:w</title>
<path fill="none" stroke="black" d="M311.1,-35.5C323.767,-35.5 326.933,-35.5 339.6,-35.5"/>
</g>
<!-- nd376&#45;&gt;nd28 -->
<g id="edge5" class="edge"><title>nd376:e&#45;&gt;nd28:w</title>
<path fill="none" stroke="black" d="M265.1,-65.5C277.767,-65.5 280.933,-65.5 293.6,-65.5"/>
</g>
<!-- nd377&#45;&gt;nd364 -->
<g id="edge18" class="edge"><title>nd377:e&#45;&gt;nd364:w</title>
<path fill="none" stroke="black" d="M265.1,-35.5C282.878,-35.5 287.322,-35.5 305.1,-35.5"/>
</g>
<!-- nd263 -->
<g id="node17" class="node"><title>nd263</title>
<g id="a_node17"><a xlink:title="nd263&#45;UnOpGraph">
<ellipse fill="none" stroke="#000000" cx="262.1" cy="-103.5" rx="14.5" ry="14.5"/>
<text text-anchor="middle" x="262.1" y="-99.8" font-family="Times,serif" font-size="14.00">tl</text>
</a>
</g>
</g>
<!-- nd262&#45;&gt;nd263 -->
<g id="edge7" class="edge"><title>nd262:e&#45;&gt;nd263:w</title>
<path fill="none" stroke="red" d="M193.6,-92.5C211.695,-92.5 218.251,-93.0696 238.172,-100.083"/>
<polygon fill="red" stroke="red" points="237.006,-103.383 247.6,-103.5 239.391,-96.8018 237.006,-103.383"/>
</g>
<!-- nd262&#45;&gt;nd263 -->
<g id="edge8" class="edge"><title>nd262:n&#45;&gt;nd263:e</title>
<path fill="none" stroke="grey" d="M179.1,-108.5C179.1,-113.97 273.101,-121.732 277.1,-118 278.281,-116.898 279.715,-103.5 278.1,-103.5"/>
<text text-anchor="middle" x="220.6" y="-121.3" font-family="Times,serif" font-size="14.00">op_arg</text>
</g>
</g>
</svg>
