<?xml version="1.0" encoding="UTF-8" standalone="no"?>
<!DOCTYPE svg PUBLIC "-//W3C//DTD SVG 1.1//EN"
 "http://www.w3.org/Graphics/SVG/1.1/DTD/svg11.dtd">
<!-- Generated by graphviz version 2.38.0 (20140413.2041)
 -->
<!-- Title: G Pages: 1 -->
<svg width="360pt" height="164pt"
 viewBox="0.00 0.00 360.20 163.78" xmlns="http://www.w3.org/2000/svg" xmlns:xlink="http://www.w3.org/1999/xlink">
<g id="graph0" class="graph" transform="scale(1 1) rotate(0) translate(4 159.775)">
<title>G</title>
<polygon fill="white" stroke="none" points="-4,4 -4,-159.775 356.2,-159.775 356.2,4 -4,4"/>
<g id="clust1" class="cluster"><title>cluster_nd318</title>
<polygon fill="none" stroke="orange" points="169.3,-127.5 169.3,-147.5 188.9,-147.5 188.9,-127.5 169.3,-127.5"/>
</g>
<g id="clust2" class="cluster"><title>cluster_nd261</title>
<polygon fill="none" stroke="orange" points="167.3,-73.5 167.3,-116.5 190.9,-116.5 190.9,-73.5 167.3,-73.5"/>
<text text-anchor="middle" x="179.1" y="-101.3" font-family="Times,serif" font-size="14.00">tl</text>
</g>
<!-- nd1 -->
<g id="node1" class="node"><title>nd1</title>
<ellipse fill="black" stroke="black" cx="1.8" cy="-90.5" rx="1.8" ry="1.8"/>
</g>
<!-- nd255 -->
<g id="node9" class="node"><title>nd255</title>
<g id="a_node9"><a xlink:title="nd255&#45;AppGraph">
<path fill="none" stroke="#000000" d="M27.5473,-100.554C27.5473,-100.554 23.6719,-94.9457 23.6719,-94.9457 22.136,-92.7229 22.136,-88.2771 23.6719,-86.0543 23.6719,-86.0543 27.5473,-80.4457 27.5473,-80.4457 29.0833,-78.2229 33.3212,-76.0023 36.0231,-76.0045 36.0231,-76.0045 41.4269,-76.009 41.4269,-76.009 44.1288,-76.0113 46.8307,-78.7155 46.8307,-81.4174 46.8307,-81.4174 46.8307,-99.5826 46.8307,-99.5826 46.8307,-102.285 44.1288,-104.989 41.4269,-104.991 41.4269,-104.991 36.0231,-104.995 36.0231,-104.995 33.3212,-104.998 29.0833,-102.777 27.5473,-100.554"/>
<text text-anchor="middle" x="35.1" y="-86.8" font-family="Times,serif" font-size="14.00">@</text>
</a>
</g>
</g>
<!-- nd1&#45;&gt;nd255 -->
<g id="edge12" class="edge"><title>nd1:e&#45;&gt;nd255:w</title>
<path fill="none" stroke="#b70000" d="M3.6,-90.5C11.1556,-90.5 13.0444,-90.5 20.6,-90.5"/>
</g>
<!-- nd28 -->
<g id="node2" class="node"><title>nd28</title>
<g id="a_node2"><a xlink:title="nd28&#45;ConstGraph">
<path fill="none" stroke="purple" d="M240.867,-80C240.867,-80 250.533,-80 250.533,-80 255.367,-80 260.2,-75.1667 260.2,-70.3333 260.2,-70.3333 260.2,-60.6667 260.2,-60.6667 260.2,-55.8333 255.367,-51 250.533,-51 250.533,-51 240.867,-51 240.867,-51 236.033,-51 231.2,-55.8333 231.2,-60.6667 231.2,-60.6667 231.2,-70.3333 231.2,-70.3333 231.2,-75.1667 236.033,-80 240.867,-80"/>
<text text-anchor="middle" x="245.7" y="-61.8" font-family="Times,serif" font-size="14.00">3</text>
</a>
</g>
</g>
<!-- nd34 -->
<g id="node3" class="node"><title>nd34</title>
<g id="a_node3"><a xlink:title="nd34&#45;ConstGraph">
<path fill="none" stroke="purple" d="M332.867,-71C332.867,-71 342.533,-71 342.533,-71 347.367,-71 352.2,-66.1667 352.2,-61.3333 352.2,-61.3333 352.2,-51.6667 352.2,-51.6667 352.2,-46.8333 347.367,-42 342.533,-42 342.533,-42 332.867,-42 332.867,-42 328.033,-42 323.2,-46.8333 323.2,-51.6667 323.2,-51.6667 323.2,-61.3333 323.2,-61.3333 323.2,-66.1667 328.033,-71 332.867,-71"/>
<text text-anchor="middle" x="337.7" y="-52.8" font-family="Times,serif" font-size="14.00">4</text>
</a>
</g>
</g>
<!-- nd39 -->
<g id="node4" class="node"><title>nd39</title>
<g id="a_node4"><a xlink:title="nd39&#45;ConstEmptyGraph">
<path fill="none" stroke="purple" d="M332.867,-29C332.867,-29 342.533,-29 342.533,-29 347.367,-29 352.2,-24.1667 352.2,-19.3333 352.2,-19.3333 352.2,-9.66667 352.2,-9.66667 352.2,-4.83333 347.367,-1.77636e-15 342.533,-1.77636e-15 342.533,-1.77636e-15 332.867,-1.77636e-15 332.867,-1.77636e-15 328.033,-1.77636e-15 323.2,-4.83333 323.2,-9.66667 323.2,-9.66667 323.2,-19.3333 323.2,-19.3333 323.2,-24.1667 328.033,-29 332.867,-29"/>
<text text-anchor="middle" x="337.7" y="-10.8" font-family="Times,serif" font-size="14.00">[]</text>
</a>
</g>
</g>
<!-- nd182 -->
<g id="node5" class="node"><title>nd182</title>
<g id="a_node5"><a xlink:title="nd182&#45;ConstListGraph">
<path fill="none" stroke="purple" d="M286.867,-50C286.867,-50 296.533,-50 296.533,-50 301.367,-50 306.2,-45.1667 306.2,-40.3333 306.2,-40.3333 306.2,-30.6667 306.2,-30.6667 306.2,-25.8333 301.367,-21 296.533,-21 296.533,-21 286.867,-21 286.867,-21 282.033,-21 277.2,-25.8333 277.2,-30.6667 277.2,-30.6667 277.2,-40.3333 277.2,-40.3333 277.2,-45.1667 282.033,-50 286.867,-50"/>
<text text-anchor="middle" x="291.7" y="-31.8" font-family="Times,serif" font-size="14.00">::</text>
</a>
</g>
</g>
<!-- nd182&#45;&gt;nd34 -->
<g id="edge1" class="edge"><title>nd182:n&#45;&gt;nd34:w</title>
<path fill="none" stroke="purple" d="M291.7,-51.5C291.7,-65.6753 309.025,-56.5 323.2,-56.5"/>
</g>
<!-- nd182&#45;&gt;nd39 -->
<g id="edge2" class="edge"><title>nd182:s&#45;&gt;nd39:w</title>
<path fill="none" stroke="purple" d="M291.7,-19.5C291.7,-5.32473 309.025,-14.5 323.2,-14.5"/>
</g>
<!-- nd188 -->
<g id="node6" class="node"><title>nd188</title>
<g id="a_node6"><a xlink:title="nd188&#45;ConstListGraph">
<path fill="none" stroke="purple" d="M174.267,-65C174.267,-65 183.933,-65 183.933,-65 188.767,-65 193.6,-60.1667 193.6,-55.3333 193.6,-55.3333 193.6,-45.6667 193.6,-45.6667 193.6,-40.8333 188.767,-36 183.933,-36 183.933,-36 174.267,-36 174.267,-36 169.433,-36 164.6,-40.8333 164.6,-45.6667 164.6,-45.6667 164.6,-55.3333 164.6,-55.3333 164.6,-60.1667 169.433,-65 174.267,-65"/>
<text text-anchor="middle" x="179.1" y="-46.8" font-family="Times,serif" font-size="14.00">::</text>
</a>
</g>
</g>
<!-- nd376 -->
<g id="node14" class="node"><title>nd376</title>
<g id="a_node14"><a xlink:title="nd376&#45;ContractGraph">
<ellipse fill="black" stroke="black" cx="212.4" cy="-65.5" rx="1.8" ry="1.8"/>
</a>
</g>
</g>
<!-- nd188&#45;&gt;nd376 -->
<g id="edge3" class="edge"><title>nd188:n&#45;&gt;nd376:w</title>
<path fill="none" stroke="black" d="M179.1,-66.5C179.1,-73.5035 203.596,-65.5 210.6,-65.5"/>
</g>
<!-- nd377 -->
<g id="node15" class="node"><title>nd377</title>
<g id="a_node15"><a xlink:title="nd377&#45;ContractGraph">
<ellipse fill="black" stroke="black" cx="212.4" cy="-35.5" rx="1.8" ry="1.8"/>
</a>
</g>
</g>
<!-- nd188&#45;&gt;nd377 -->
<g id="edge4" class="edge"><title>nd188:s&#45;&gt;nd377:w</title>
<path fill="none" stroke="black" d="M179.1,-34.5C179.1,-20.4929 196.593,-35.5 210.6,-35.5"/>
</g>
<!-- nd314 -->
<g id="node7" class="node"><title>nd314</title>
<g id="a_node7"><a xlink:title="nd314&#45;RecurGraph">
<ellipse fill="none" stroke="#000000" cx="127.1" cy="-119.5" rx="11" ry="11"/>
<text text-anchor="middle" x="127.1" y="-115.8" font-family="Times,serif" font-size="14.00">rec</text>
</a>
</g>
</g>
<!-- ndcluster_nd318 -->
<g id="node8" class="node"><title>ndcluster_nd318</title>
<g id="a_node8"><a xlink:title="nd318">
<ellipse fill="orange" stroke="orange" cx="179.1" cy="-137.5" rx="1.8" ry="1.8"/>
</a>
</g>
</g>
<!-- nd314&#45;&gt;ndcluster_nd318 -->
<g id="edge14" class="edge"><title>nd314:n&#45;&gt;ndcluster_nd318:e</title>
<path fill="none" stroke="grey" d="M127.1,-131.5C127.1,-182.095 190.08,-137.5 182.1,-137.5"/>
</g>
<!-- nd314&#45;&gt;ndcluster_nd318 -->
<g id="edge15" class="edge"><title>nd314:e&#45;&gt;ndcluster_nd318:w</title>
<path fill="none" stroke="black" d="M139.1,-119.5C157.387,-119.5 157.813,-137.5 176.1,-137.5"/>
</g>
<!-- nd256 -->
<g id="node10" class="node"><title>nd256</title>
<g id="a_node10"><a xlink:title="nd256&#45;AppGraph">
<path fill="none" stroke="#000000" d="M73.5473,-120.554C73.5473,-120.554 69.6719,-114.946 69.6719,-114.946 68.136,-112.723 68.136,-108.277 69.6719,-106.054 69.6719,-106.054 73.5473,-100.446 73.5473,-100.446 75.0833,-98.2229 79.3212,-96.0023 82.0231,-96.0045 82.0231,-96.0045 87.4269,-96.009 87.4269,-96.009 90.1288,-96.0113 92.8307,-98.7155 92.8307,-101.417 92.8307,-101.417 92.8307,-119.583 92.8307,-119.583 92.8307,-122.285 90.1288,-124.989 87.4269,-124.991 87.4269,-124.991 82.0231,-124.995 82.0231,-124.995 79.3212,-124.998 75.0833,-122.777 73.5473,-120.554"/>
<text text-anchor="middle" x="81.1" y="-106.8" font-family="Times,serif" font-size="14.00">@</text>
</a>
</g>
</g>
<!-- nd255&#45;&gt;nd256 -->
<g id="edge10" class="edge"><title>nd255:e&#45;&gt;nd256:w</title>
<path fill="none" stroke="#b70000" d="M48.1,-90.5C60.2086,-90.5 54.4914,-110.5 66.6,-110.5"/>
</g>
<!-- nd386 -->
<g id="node16" class="node"><title>nd386</title>
<g id="a_node16"><a xlink:title="nd386&#45;ConstGraph">
<path fill="none" stroke="purple" d="M76.2667,-83C76.2667,-83 85.9333,-83 85.9333,-83 90.7667,-83 95.6,-78.1667 95.6,-73.3333 95.6,-73.3333 95.6,-63.6667 95.6,-63.6667 95.6,-58.8333 90.7667,-54 85.9333,-54 85.9333,-54 76.2667,-54 76.2667,-54 71.4333,-54 66.6,-58.8333 66.6,-63.6667 66.6,-63.6667 66.6,-73.3333 66.6,-73.3333 66.6,-78.1667 71.4333,-83 76.2667,-83"/>
<text text-anchor="middle" x="81.1" y="-64.8" font-family="Times,serif" font-size="14.00">6</text>
</a>
</g>
</g>
<!-- nd255&#45;&gt;nd386 -->
<g id="edge11" class="edge"><title>nd255:s&#45;&gt;nd386:w</title>
<path fill="none" stroke="black" d="M35.1,-74.5C35.1,-60.2483 52.3483,-68.5 66.6,-68.5"/>
</g>
<!-- nd256&#45;&gt;nd314 -->
<g id="edge8" class="edge"><title>nd256:e&#45;&gt;nd314:w</title>
<path fill="none" stroke="black" d="M94.1,-110.5C104.254,-110.5 104.946,-119.5 115.1,-119.5"/>
</g>
<!-- nd258 -->
<g id="node11" class="node"><title>nd258</title>
<g id="a_node11"><a xlink:title="nd258&#45;AppGraph">
<path fill="none" stroke="#000000" d="M119.547,-90.5543C119.547,-90.5543 115.672,-84.9457 115.672,-84.9457 114.136,-82.7229 114.136,-78.2771 115.672,-76.0543 115.672,-76.0543 119.547,-70.4457 119.547,-70.4457 121.083,-68.2229 125.321,-66.0023 128.023,-66.0045 128.023,-66.0045 133.427,-66.009 133.427,-66.009 136.129,-66.0113 138.831,-68.7155 138.831,-71.4174 138.831,-71.4174 138.831,-89.5826 138.831,-89.5826 138.831,-92.2845 136.129,-94.9887 133.427,-94.991 133.427,-94.991 128.023,-94.9955 128.023,-94.9955 125.321,-94.9977 121.083,-92.7771 119.547,-90.5543"/>
<text text-anchor="middle" x="127.1" y="-76.8" font-family="Times,serif" font-size="14.00">@</text>
</a>
</g>
</g>
<!-- nd256&#45;&gt;nd258 -->
<g id="edge9" class="edge"><title>nd256:s&#45;&gt;nd258:w</title>
<path fill="none" stroke="#b70000" d="M81.1,-94.5C81.1,-87.6832 89.3467,-92.214 95.6,-89.5 103.442,-86.0963 104.051,-80.5 112.6,-80.5"/>
</g>
<!-- nd258&#45;&gt;nd188 -->
<g id="edge13" class="edge"><title>nd258:s&#45;&gt;nd188:w</title>
<path fill="none" stroke="black" d="M127.1,-64.5C127.1,-46.7097 146.81,-50.5 164.6,-50.5"/>
<text text-anchor="middle" x="153.1" y="-53.3" font-family="Times,serif" font-size="14.00">x</text>
</g>
<!-- ndcluster_nd261 -->
<g id="node12" class="node"><title>ndcluster_nd261</title>
<g id="a_node12"><a xlink:title="nd261">
<ellipse fill="orange" stroke="orange" cx="179.1" cy="-83.5" rx="1.8" ry="1.8"/>
</a>
</g>
</g>
<!-- nd258&#45;&gt;ndcluster_nd261 -->
<g id="edge7" class="edge"><title>nd258:e&#45;&gt;ndcluster_nd261:w</title>
<path fill="none" stroke="red" d="M140.1,-80.5C152.142,-80.5 157.34,-82.1875 165.959,-83.0312"/>
<polygon fill="red" stroke="red" points="165.949,-86.5344 176.1,-83.5 166.272,-79.5419 165.949,-86.5344"/>
</g>
<!-- nd364 -->
<g id="node13" class="node"><title>nd364</title>
<g id="a_node13"><a xlink:title="nd364&#45;ContractGraph">
<ellipse fill="black" stroke="black" cx="245.7" cy="-35.5" rx="1.8" ry="1.8"/>
</a>
</g>
</g>
<!-- nd364&#45;&gt;nd182 -->
<g id="edge6" class="edge"><title>nd364:e&#45;&gt;nd182:w</title>
<path fill="none" stroke="black" d="M248.7,-35.5C261.367,-35.5 264.533,-35.5 277.2,-35.5"/>
</g>
<!-- nd376&#45;&gt;nd28 -->
<g id="edge5" class="edge"><title>nd376:e&#45;&gt;nd28:w</title>
<path fill="none" stroke="black" d="M214.2,-65.5C221.756,-65.5 223.644,-65.5 231.2,-65.5"/>
</g>
<!-- nd377&#45;&gt;nd364 -->
<g id="edge16" class="edge"><title>nd377:e&#45;&gt;nd364:w</title>
<path fill="none" stroke="black" d="M214.2,-35.5C226.867,-35.5 230.033,-35.5 242.7,-35.5"/>
</g>
</g>
</svg>
