<?xml version="1.0" encoding="UTF-8" standalone="no"?>
<!DOCTYPE svg PUBLIC "-//W3C//DTD SVG 1.1//EN"
 "http://www.w3.org/Graphics/SVG/1.1/DTD/svg11.dtd">
<!-- Generated by graphviz version 2.38.0 (20140413.2041)
 -->
<!-- Title: G Pages: 1 -->
<svg width="183pt" height="127pt"
 viewBox="0.00 0.00 182.90 126.99" xmlns="http://www.w3.org/2000/svg" xmlns:xlink="http://www.w3.org/1999/xlink">
<g id="graph0" class="graph" transform="scale(1 1) rotate(0) translate(4 122.99)">
<title>G</title>
<polygon fill="white" stroke="none" points="-4,4 -4,-122.99 178.9,-122.99 178.9,4 -4,4"/>
<g id="clust1" class="cluster"><title>cluster_nd318</title>
<polygon fill="none" stroke="orange" points="147.3,-80.5 147.3,-100.5 166.9,-100.5 166.9,-80.5 147.3,-80.5"/>
</g>
<!-- nd1 -->
<g id="node1" class="node"><title>nd1</title>
<ellipse fill="black" stroke="black" cx="1.8" cy="-53.5" rx="1.8" ry="1.8"/>
</g>
<!-- nd255 -->
<g id="node7" class="node"><title>nd255</title>
<g id="a_node7"><a xlink:title="nd255&#45;AppGraph">
<path fill="none" stroke="#000000" d="M23.5473,-63.5543C23.5473,-63.5543 19.6719,-57.9457 19.6719,-57.9457 18.136,-55.7229 18.136,-51.2771 19.6719,-49.0543 19.6719,-49.0543 23.5473,-43.4457 23.5473,-43.4457 25.0833,-41.2229 29.3212,-39.0023 32.0231,-39.0045 32.0231,-39.0045 37.4269,-39.009 37.4269,-39.009 40.1288,-39.0113 42.8307,-41.7155 42.8307,-44.4174 42.8307,-44.4174 42.8307,-62.5826 42.8307,-62.5826 42.8307,-65.2845 40.1288,-67.9887 37.4269,-67.991 37.4269,-67.991 32.0231,-67.9955 32.0231,-67.9955 29.3212,-67.9977 25.0833,-65.7771 23.5473,-63.5543"/>
<text text-anchor="middle" x="31.1" y="-49.8" font-family="Times,serif" font-size="14.00">@</text>
</a>
</g>
</g>
<!-- nd1&#45;&gt;nd255 -->
<g id="edge7" class="edge"><title>nd1:e&#45;&gt;nd255:w</title>
<path fill="none" stroke="#b70000" d="M3.6,-53.5C9.37778,-53.5 10.8222,-53.5 16.6,-53.5"/>
</g>
<!-- nd34 -->
<g id="node2" class="node"><title>nd34</title>
<g id="a_node2"><a xlink:title="nd34&#45;ConstGraph">
<path fill="none" stroke="purple" d="M152.267,-71C152.267,-71 161.933,-71 161.933,-71 166.767,-71 171.6,-66.1667 171.6,-61.3333 171.6,-61.3333 171.6,-51.6667 171.6,-51.6667 171.6,-46.8333 166.767,-42 161.933,-42 161.933,-42 152.267,-42 152.267,-42 147.433,-42 142.6,-46.8333 142.6,-51.6667 142.6,-51.6667 142.6,-61.3333 142.6,-61.3333 142.6,-66.1667 147.433,-71 152.267,-71"/>
<text text-anchor="middle" x="157.1" y="-52.8" font-family="Times,serif" font-size="14.00">4</text>
</a>
</g>
</g>
<!-- nd39 -->
<g id="node3" class="node"><title>nd39</title>
<g id="a_node3"><a xlink:title="nd39&#45;ConstEmptyGraph">
<path fill="none" stroke="purple" d="M152.267,-29C152.267,-29 161.933,-29 161.933,-29 166.767,-29 171.6,-24.1667 171.6,-19.3333 171.6,-19.3333 171.6,-9.66667 171.6,-9.66667 171.6,-4.83333 166.767,-1.77636e-15 161.933,-1.77636e-15 161.933,-1.77636e-15 152.267,-1.77636e-15 152.267,-1.77636e-15 147.433,-1.77636e-15 142.6,-4.83333 142.6,-9.66667 142.6,-9.66667 142.6,-19.3333 142.6,-19.3333 142.6,-24.1667 147.433,-29 152.267,-29"/>
<text text-anchor="middle" x="157.1" y="-10.8" font-family="Times,serif" font-size="14.00">[]</text>
</a>
</g>
</g>
<!-- nd182 -->
<g id="node4" class="node"><title>nd182</title>
<g id="a_node4"><a xlink:title="nd182&#45;ConstListGraph">
<path fill="none" stroke="purple" d="M110.267,-55C110.267,-55 119.933,-55 119.933,-55 124.767,-55 129.6,-50.1667 129.6,-45.3333 129.6,-45.3333 129.6,-35.6667 129.6,-35.6667 129.6,-30.8333 124.767,-26 119.933,-26 119.933,-26 110.267,-26 110.267,-26 105.433,-26 100.6,-30.8333 100.6,-35.6667 100.6,-35.6667 100.6,-45.3333 100.6,-45.3333 100.6,-50.1667 105.433,-55 110.267,-55"/>
<text text-anchor="middle" x="115.1" y="-36.8" font-family="Times,serif" font-size="14.00">::</text>
</a>
</g>
</g>
<!-- nd182&#45;&gt;nd34 -->
<g id="edge1" class="edge"><title>nd182:n&#45;&gt;nd34:w</title>
<path fill="none" stroke="purple" d="M115.1,-56.5C115.1,-68.7222 130.378,-56.5 142.6,-56.5"/>
</g>
<!-- nd182&#45;&gt;nd39 -->
<g id="edge2" class="edge"><title>nd182:s&#45;&gt;nd39:w</title>
<path fill="none" stroke="purple" d="M115.1,-24.5C115.1,-11.4948 129.595,-14.5 142.6,-14.5"/>
</g>
<!-- nd314 -->
<g id="node5" class="node"><title>nd314</title>
<g id="a_node5"><a xlink:title="nd314&#45;RecurGraph">
<ellipse fill="none" stroke="#000000" cx="115.1" cy="-79.5" rx="11" ry="11"/>
<text text-anchor="middle" x="115.1" y="-75.8" font-family="Times,serif" font-size="14.00">rec</text>
</a>
</g>
</g>
<!-- ndcluster_nd318 -->
<g id="node6" class="node"><title>ndcluster_nd318</title>
<g id="a_node6"><a xlink:title="nd318">
<ellipse fill="orange" stroke="orange" cx="157.1" cy="-90.5" rx="1.8" ry="1.8"/>
</a>
</g>
</g>
<!-- nd314&#45;&gt;ndcluster_nd318 -->
<g id="edge8" class="edge"><title>nd314:n&#45;&gt;ndcluster_nd318:e</title>
<path fill="none" stroke="grey" d="M115.1,-91.5C115.1,-153.269 172.226,-90.5 160.1,-90.5"/>
</g>
<!-- nd314&#45;&gt;ndcluster_nd318 -->
<g id="edge9" class="edge"><title>nd314:e&#45;&gt;ndcluster_nd318:w</title>
<path fill="none" stroke="black" d="M127.1,-79.5C140.058,-79.5 141.142,-90.5 154.1,-90.5"/>
</g>
<!-- nd256 -->
<g id="node8" class="node"><title>nd256</title>
<g id="a_node8"><a xlink:title="nd256&#45;AppGraph">
<path fill="none" stroke="#000000" d="M65.5473,-77.5543C65.5473,-77.5543 61.6719,-71.9457 61.6719,-71.9457 60.136,-69.7229 60.136,-65.2771 61.6719,-63.0543 61.6719,-63.0543 65.5473,-57.4457 65.5473,-57.4457 67.0833,-55.2229 71.3212,-53.0023 74.0231,-53.0045 74.0231,-53.0045 79.4269,-53.009 79.4269,-53.009 82.1288,-53.0113 84.8307,-55.7155 84.8307,-58.4174 84.8307,-58.4174 84.8307,-76.5826 84.8307,-76.5826 84.8307,-79.2845 82.1288,-81.9887 79.4269,-81.991 79.4269,-81.991 74.0231,-81.9955 74.0231,-81.9955 71.3212,-81.9977 67.0833,-79.7771 65.5473,-77.5543"/>
<text text-anchor="middle" x="73.1" y="-63.8" font-family="Times,serif" font-size="14.00">@</text>
</a>
</g>
</g>
<!-- nd255&#45;&gt;nd256 -->
<g id="edge5" class="edge"><title>nd255:e&#45;&gt;nd256:w</title>
<path fill="none" stroke="#b70000" d="M44.1,-53.5C53.0581,-53.5 49.6419,-67.5 58.6,-67.5"/>
</g>
<!-- nd386 -->
<g id="node9" class="node"><title>nd386</title>
<g id="a_node9"><a xlink:title="nd386&#45;ConstGraph">
<path fill="none" stroke="purple" d="M68.2667,-40C68.2667,-40 77.9333,-40 77.9333,-40 82.7667,-40 87.6,-35.1667 87.6,-30.3333 87.6,-30.3333 87.6,-20.6667 87.6,-20.6667 87.6,-15.8333 82.7667,-11 77.9333,-11 77.9333,-11 68.2667,-11 68.2667,-11 63.4333,-11 58.6,-15.8333 58.6,-20.6667 58.6,-20.6667 58.6,-30.3333 58.6,-30.3333 58.6,-35.1667 63.4333,-40 68.2667,-40"/>
<text text-anchor="middle" x="73.1" y="-21.8" font-family="Times,serif" font-size="14.00">6</text>
</a>
</g>
</g>
<!-- nd255&#45;&gt;nd386 -->
<g id="edge6" class="edge"><title>nd255:s&#45;&gt;nd386:w</title>
<path fill="none" stroke="black" d="M31.1,-37.5C31.1,-24.1648 45.2648,-25.5 58.6,-25.5"/>
</g>
<!-- nd256&#45;&gt;nd182 -->
<g id="edge3" class="edge"><title>nd256:s&#45;&gt;nd182:w</title>
<path fill="none" stroke="black" d="M73.1,-51.5C73.1,-44.6832 81.2751,-49.0426 87.6,-46.5 93.5042,-44.1265 94.2365,-40.5 100.6,-40.5"/>
</g>
<!-- nd256&#45;&gt;nd314 -->
<g id="edge4" class="edge"><title>nd256:e&#45;&gt;nd314:w</title>
<path fill="none" stroke="red" d="M86.1,-67.5C90.8686,-67.5 92.7806,-70.6904 94.7818,-73.7812"/>
<polygon fill="red" stroke="red" points="92.8767,-76.7188 103.1,-79.5 96.8425,-70.9505 92.8767,-76.7188"/>
</g>
</g>
</svg>
