<?xml version="1.0" encoding="UTF-8" standalone="no"?>
<!DOCTYPE svg PUBLIC "-//W3C//DTD SVG 1.1//EN"
 "http://www.w3.org/Graphics/SVG/1.1/DTD/svg11.dtd">
<!-- Generated by graphviz version 2.38.0 (20140413.2041)
 -->
<!-- Title: G Pages: 1 -->
<svg width="173pt" height="100pt"
 viewBox="0.00 0.00 173.20 99.50" xmlns="http://www.w3.org/2000/svg" xmlns:xlink="http://www.w3.org/1999/xlink">
<g id="graph0" class="graph" transform="scale(1 1) rotate(0) translate(4 95.5)">
<title>G</title>
<polygon fill="white" stroke="none" points="-4,4 -4,-95.5 169.2,-95.5 169.2,4 -4,4"/>
<g id="clust1" class="cluster"><title>cluster_nd395</title>
<polygon fill="none" stroke="orange" points="137.6,-63.5 137.6,-83.5 157.2,-83.5 157.2,-63.5 137.6,-63.5"/>
</g>
<!-- nd1 -->
<g id="node1" class="node"><title>nd1</title>
<ellipse fill="black" stroke="black" cx="1.8" cy="-42.5" rx="1.8" ry="1.8"/>
</g>
<!-- nd332 -->
<g id="node5" class="node"><title>nd332</title>
<g id="a_node5"><a xlink:title="nd332&#45;AppGraph">
<path fill="none" stroke="#000000" d="M23.5473,-52.5543C23.5473,-52.5543 19.6719,-46.9457 19.6719,-46.9457 18.136,-44.7229 18.136,-40.2771 19.6719,-38.0543 19.6719,-38.0543 23.5473,-32.4457 23.5473,-32.4457 25.0833,-30.2229 29.3212,-28.0023 32.0231,-28.0045 32.0231,-28.0045 37.4269,-28.009 37.4269,-28.009 40.1288,-28.0113 42.8307,-30.7155 42.8307,-33.4174 42.8307,-33.4174 42.8307,-51.5826 42.8307,-51.5826 42.8307,-54.2845 40.1288,-56.9887 37.4269,-56.991 37.4269,-56.991 32.0231,-56.9955 32.0231,-56.9955 29.3212,-56.9977 25.0833,-54.7771 23.5473,-52.5543"/>
<text text-anchor="middle" x="31.1" y="-38.8" font-family="Times,serif" font-size="14.00">@</text>
</a>
</g>
</g>
<!-- nd1&#45;&gt;nd332 -->
<g id="edge5" class="edge"><title>nd1:e&#45;&gt;nd332:w</title>
<path fill="none" stroke="#b70000" d="M3.6,-42.5C9.37778,-42.5 10.8222,-42.5 16.6,-42.5"/>
</g>
<!-- nd39 -->
<g id="node2" class="node"><title>nd39</title>
<g id="a_node2"><a xlink:title="nd39&#45;ConstEmptyGraph">
<path fill="none" stroke="purple" d="M110.267,-44C110.267,-44 119.933,-44 119.933,-44 124.767,-44 129.6,-39.1667 129.6,-34.3333 129.6,-34.3333 129.6,-24.6667 129.6,-24.6667 129.6,-19.8333 124.767,-15 119.933,-15 119.933,-15 110.267,-15 110.267,-15 105.433,-15 100.6,-19.8333 100.6,-24.6667 100.6,-24.6667 100.6,-34.3333 100.6,-34.3333 100.6,-39.1667 105.433,-44 110.267,-44"/>
<text text-anchor="middle" x="115.1" y="-25.8" font-family="Times,serif" font-size="14.00">[]</text>
</a>
</g>
</g>
<!-- nd391 -->
<g id="node3" class="node"><title>nd391</title>
<g id="a_node3"><a xlink:title="nd391&#45;RecurGraph">
<ellipse fill="none" stroke="#000000" cx="115.1" cy="-68.5" rx="11" ry="11"/>
<text text-anchor="middle" x="115.1" y="-64.8" font-family="Times,serif" font-size="14.00">rec</text>
</a>
</g>
</g>
<!-- ndcluster_nd395 -->
<g id="node4" class="node"><title>ndcluster_nd395</title>
<g id="a_node4"><a xlink:title="nd395">
<ellipse fill="orange" stroke="orange" cx="147.4" cy="-73.5" rx="1.8" ry="1.8"/>
</a>
</g>
</g>
<!-- nd391&#45;&gt;ndcluster_nd395 -->
<g id="edge6" class="edge"><title>nd391:n&#45;&gt;ndcluster_nd395:e</title>
<path fill="none" stroke="grey" d="M115.1,-80.5C115.1,-96.4944 166.394,-73.5 150.4,-73.5"/>
</g>
<!-- nd391&#45;&gt;ndcluster_nd395 -->
<g id="edge7" class="edge"><title>nd391:e&#45;&gt;ndcluster_nd395:w</title>
<path fill="none" stroke="black" d="M127.1,-68.5C135.104,-68.5 136.396,-73.5 144.4,-73.5"/>
</g>
<!-- nd333 -->
<g id="node6" class="node"><title>nd333</title>
<g id="a_node6"><a xlink:title="nd333&#45;AppGraph">
<path fill="none" stroke="#000000" d="M65.5473,-66.5543C65.5473,-66.5543 61.6719,-60.9457 61.6719,-60.9457 60.136,-58.7229 60.136,-54.2771 61.6719,-52.0543 61.6719,-52.0543 65.5473,-46.4457 65.5473,-46.4457 67.0833,-44.2229 71.3212,-42.0023 74.0231,-42.0045 74.0231,-42.0045 79.4269,-42.009 79.4269,-42.009 82.1288,-42.0113 84.8307,-44.7155 84.8307,-47.4174 84.8307,-47.4174 84.8307,-65.5826 84.8307,-65.5826 84.8307,-68.2845 82.1288,-70.9887 79.4269,-70.991 79.4269,-70.991 74.0231,-70.9955 74.0231,-70.9955 71.3212,-70.9977 67.0833,-68.7771 65.5473,-66.5543"/>
<text text-anchor="middle" x="73.1" y="-52.8" font-family="Times,serif" font-size="14.00">@</text>
</a>
</g>
</g>
<!-- nd332&#45;&gt;nd333 -->
<g id="edge3" class="edge"><title>nd332:e&#45;&gt;nd333:w</title>
<path fill="none" stroke="#b70000" d="M44.1,-42.5C53.0581,-42.5 49.6419,-56.5 58.6,-56.5"/>
</g>
<!-- nd463 -->
<g id="node7" class="node"><title>nd463</title>
<g id="a_node7"><a xlink:title="nd463&#45;ConstGraph">
<path fill="none" stroke="purple" d="M68.2667,-29C68.2667,-29 77.9333,-29 77.9333,-29 82.7667,-29 87.6,-24.1667 87.6,-19.3333 87.6,-19.3333 87.6,-9.66667 87.6,-9.66667 87.6,-4.83333 82.7667,-1.77636e-15 77.9333,-1.77636e-15 77.9333,-1.77636e-15 68.2667,-1.77636e-15 68.2667,-1.77636e-15 63.4333,-1.77636e-15 58.6,-4.83333 58.6,-9.66667 58.6,-9.66667 58.6,-19.3333 58.6,-19.3333 58.6,-24.1667 63.4333,-29 68.2667,-29"/>
<text text-anchor="middle" x="73.1" y="-10.8" font-family="Times,serif" font-size="14.00">10</text>
</a>
</g>
</g>
<!-- nd332&#45;&gt;nd463 -->
<g id="edge4" class="edge"><title>nd332:s&#45;&gt;nd463:w</title>
<path fill="none" stroke="black" d="M31.1,-26.5C31.1,-13.1648 45.2648,-14.5 58.6,-14.5"/>
</g>
<!-- nd333&#45;&gt;nd39 -->
<g id="edge1" class="edge"><title>nd333:s&#45;&gt;nd39:w</title>
<path fill="none" stroke="red" d="M82.3561,-36.404C84.1094,-36.3638 85.92,-36.1754 87.6,-35.5 93.5042,-33.1265 94.2365,-29.5 100.6,-29.5"/>
<polygon fill="red" stroke="red" points="80.8283,-33.2527 73.1,-40.5 83.661,-39.6539 80.8283,-33.2527"/>
</g>
<!-- nd333&#45;&gt;nd391 -->
<g id="edge2" class="edge"><title>nd333:e&#45;&gt;nd391:w</title>
<path fill="none" stroke="black" d="M86.1,-56.5C95.3483,-56.5 93.8517,-68.5 103.1,-68.5"/>
</g>
</g>
</svg>
