<?xml version="1.0" encoding="UTF-8" standalone="no"?>
<!DOCTYPE svg PUBLIC "-//W3C//DTD SVG 1.1//EN"
 "http://www.w3.org/Graphics/SVG/1.1/DTD/svg11.dtd">
<!-- Generated by graphviz version 2.38.0 (20140413.2041)
 -->
<!-- Title: G Pages: 1 -->
<svg width="285pt" height="139pt"
 viewBox="0.00 0.00 285.20 138.50" xmlns="http://www.w3.org/2000/svg" xmlns:xlink="http://www.w3.org/1999/xlink">
<g id="graph0" class="graph" transform="scale(1 1) rotate(0) translate(4 134.5)">
<title>G</title>
<polygon fill="white" stroke="none" points="-4,4 -4,-134.5 281.2,-134.5 281.2,4 -4,4"/>
<g id="clust1" class="cluster"><title>cluster_nd395</title>
<polygon fill="none" stroke="orange" points="249.6,-85.5 249.6,-105.5 269.2,-105.5 269.2,-85.5 249.6,-85.5"/>
</g>
<g id="clust2" class="cluster"><title>cluster_nd322</title>
<polygon fill="none" stroke="orange" points="169.3,-86.5 169.3,-106.5 188.9,-106.5 188.9,-86.5 169.3,-86.5"/>
</g>
<!-- nd1 -->
<g id="node1" class="node"><title>nd1</title>
<ellipse fill="black" stroke="black" cx="1.8" cy="-50.5" rx="1.8" ry="1.8"/>
</g>
<!-- nd255 -->
<g id="node5" class="node"><title>nd255</title>
<g id="a_node5"><a xlink:title="nd255&#45;AppGraph">
<path fill="none" stroke="#000000" d="M27.5473,-60.5543C27.5473,-60.5543 23.6719,-54.9457 23.6719,-54.9457 22.136,-52.7229 22.136,-48.2771 23.6719,-46.0543 23.6719,-46.0543 27.5473,-40.4457 27.5473,-40.4457 29.0833,-38.2229 33.3212,-36.0023 36.0231,-36.0045 36.0231,-36.0045 41.4269,-36.009 41.4269,-36.009 44.1288,-36.0113 46.8307,-38.7155 46.8307,-41.4174 46.8307,-41.4174 46.8307,-59.5826 46.8307,-59.5826 46.8307,-62.2845 44.1288,-64.9887 41.4269,-64.991 41.4269,-64.991 36.0231,-64.9955 36.0231,-64.9955 33.3212,-64.9977 29.0833,-62.7771 27.5473,-60.5543"/>
<text text-anchor="middle" x="35.1" y="-46.8" font-family="Times,serif" font-size="14.00">@</text>
</a>
</g>
</g>
<!-- nd1&#45;&gt;nd255 -->
<g id="edge7" class="edge"><title>nd1:e&#45;&gt;nd255:w</title>
<path fill="none" stroke="#b70000" d="M3.6,-50.5C11.1556,-50.5 13.0444,-50.5 20.6,-50.5"/>
</g>
<!-- nd34 -->
<g id="node2" class="node"><title>nd34</title>
<g id="a_node2"><a xlink:title="nd34&#45;ConstGraph">
<path fill="none" stroke="purple" d="M174.267,-71C174.267,-71 183.933,-71 183.933,-71 188.767,-71 193.6,-66.1667 193.6,-61.3333 193.6,-61.3333 193.6,-51.6667 193.6,-51.6667 193.6,-46.8333 188.767,-42 183.933,-42 183.933,-42 174.267,-42 174.267,-42 169.433,-42 164.6,-46.8333 164.6,-51.6667 164.6,-51.6667 164.6,-61.3333 164.6,-61.3333 164.6,-66.1667 169.433,-71 174.267,-71"/>
<text text-anchor="middle" x="179.1" y="-52.8" font-family="Times,serif" font-size="14.00">4</text>
</a>
</g>
</g>
<!-- nd39 -->
<g id="node3" class="node"><title>nd39</title>
<g id="a_node3"><a xlink:title="nd39&#45;ConstEmptyGraph">
<path fill="none" stroke="purple" d="M174.267,-29C174.267,-29 183.933,-29 183.933,-29 188.767,-29 193.6,-24.1667 193.6,-19.3333 193.6,-19.3333 193.6,-9.66667 193.6,-9.66667 193.6,-4.83333 188.767,-1.77636e-15 183.933,-1.77636e-15 183.933,-1.77636e-15 174.267,-1.77636e-15 174.267,-1.77636e-15 169.433,-1.77636e-15 164.6,-4.83333 164.6,-9.66667 164.6,-9.66667 164.6,-19.3333 164.6,-19.3333 164.6,-24.1667 169.433,-29 174.267,-29"/>
<text text-anchor="middle" x="179.1" y="-10.8" font-family="Times,serif" font-size="14.00">[]</text>
</a>
</g>
</g>
<!-- nd182 -->
<g id="node4" class="node"><title>nd182</title>
<g id="a_node4"><a xlink:title="nd182&#45;ConstListGraph">
<path fill="none" stroke="purple" d="M122.267,-54C122.267,-54 131.933,-54 131.933,-54 136.767,-54 141.6,-49.1667 141.6,-44.3333 141.6,-44.3333 141.6,-34.6667 141.6,-34.6667 141.6,-29.8333 136.767,-25 131.933,-25 131.933,-25 122.267,-25 122.267,-25 117.433,-25 112.6,-29.8333 112.6,-34.6667 112.6,-34.6667 112.6,-44.3333 112.6,-44.3333 112.6,-49.1667 117.433,-54 122.267,-54"/>
<text text-anchor="middle" x="127.1" y="-35.8" font-family="Times,serif" font-size="14.00">::</text>
</a>
</g>
</g>
<!-- nd182&#45;&gt;nd34 -->
<g id="edge1" class="edge"><title>nd182:n&#45;&gt;nd34:w</title>
<path fill="none" stroke="purple" d="M127.1,-55.5C127.1,-63.8363 156.264,-56.5 164.6,-56.5"/>
</g>
<!-- nd182&#45;&gt;nd39 -->
<g id="edge2" class="edge"><title>nd182:s&#45;&gt;nd39:w</title>
<path fill="none" stroke="purple" d="M127.1,-23.5C127.1,-6.36005 147.46,-14.5 164.6,-14.5"/>
</g>
<!-- nd256 -->
<g id="node6" class="node"><title>nd256</title>
<g id="a_node6"><a xlink:title="nd256&#45;AppGraph">
<path fill="none" stroke="#000000" d="M73.5473,-80.5543C73.5473,-80.5543 69.6719,-74.9457 69.6719,-74.9457 68.136,-72.7229 68.136,-68.2771 69.6719,-66.0543 69.6719,-66.0543 73.5473,-60.4457 73.5473,-60.4457 75.0833,-58.2229 79.3212,-56.0023 82.0231,-56.0045 82.0231,-56.0045 87.4269,-56.009 87.4269,-56.009 90.1288,-56.0113 92.8307,-58.7155 92.8307,-61.4174 92.8307,-61.4174 92.8307,-79.5826 92.8307,-79.5826 92.8307,-82.2845 90.1288,-84.9887 87.4269,-84.991 87.4269,-84.991 82.0231,-84.9955 82.0231,-84.9955 79.3212,-84.9977 75.0833,-82.7771 73.5473,-80.5543"/>
<text text-anchor="middle" x="81.1" y="-66.8" font-family="Times,serif" font-size="14.00">@</text>
</a>
</g>
</g>
<!-- nd255&#45;&gt;nd256 -->
<g id="edge5" class="edge"><title>nd255:e&#45;&gt;nd256:w</title>
<path fill="none" stroke="#b70000" d="M48.1,-50.5C60.2086,-50.5 54.4914,-70.5 66.6,-70.5"/>
</g>
<!-- nd386 -->
<g id="node7" class="node"><title>nd386</title>
<g id="a_node7"><a xlink:title="nd386&#45;ConstGraph">
<path fill="none" stroke="purple" d="M76.2667,-43C76.2667,-43 85.9333,-43 85.9333,-43 90.7667,-43 95.6,-38.1667 95.6,-33.3333 95.6,-33.3333 95.6,-23.6667 95.6,-23.6667 95.6,-18.8333 90.7667,-14 85.9333,-14 85.9333,-14 76.2667,-14 76.2667,-14 71.4333,-14 66.6,-18.8333 66.6,-23.6667 66.6,-23.6667 66.6,-33.3333 66.6,-33.3333 66.6,-38.1667 71.4333,-43 76.2667,-43"/>
<text text-anchor="middle" x="81.1" y="-24.8" font-family="Times,serif" font-size="14.00">6</text>
</a>
</g>
</g>
<!-- nd255&#45;&gt;nd386 -->
<g id="edge6" class="edge"><title>nd255:s&#45;&gt;nd386:w</title>
<path fill="none" stroke="black" d="M35.1,-34.5C35.1,-20.2483 52.3483,-28.5 66.6,-28.5"/>
</g>
<!-- nd256&#45;&gt;nd182 -->
<g id="edge3" class="edge"><title>nd256:s&#45;&gt;nd182:w</title>
<path fill="none" stroke="black" d="M81.1,-54.5C81.1,-47.6832 89.4091,-52.3535 95.6,-49.5 103.561,-45.8307 103.834,-39.5 112.6,-39.5"/>
</g>
<!-- nd319 -->
<g id="node10" class="node"><title>nd319</title>
<g id="a_node10"><a xlink:title="nd319&#45;AbsGraph">
<ellipse fill="none" stroke="#000000" cx="127.1" cy="-81.5" rx="14.5" ry="14.5"/>
<text text-anchor="middle" x="127.1" y="-77.8" font-family="Times,serif" font-size="14.00">fun</text>
</a>
</g>
</g>
<!-- nd256&#45;&gt;nd319 -->
<g id="edge4" class="edge"><title>nd256:e&#45;&gt;nd319:w</title>
<path fill="none" stroke="#b70000" d="M94.1,-70.5C103.666,-70.5 103.034,-81.5 112.6,-81.5"/>
</g>
<!-- nd391 -->
<g id="node8" class="node"><title>nd391</title>
<g id="a_node8"><a xlink:title="nd391&#45;RecurGraph">
<ellipse fill="none" stroke="#000000" cx="221.6" cy="-96.5" rx="11" ry="11"/>
<text text-anchor="middle" x="221.6" y="-92.8" font-family="Times,serif" font-size="14.00">rec</text>
</a>
</g>
</g>
<!-- ndcluster_nd395 -->
<g id="node9" class="node"><title>ndcluster_nd395</title>
<g id="a_node9"><a xlink:title="nd395">
<ellipse fill="orange" stroke="orange" cx="259.4" cy="-95.5" rx="1.8" ry="1.8"/>
</a>
</g>
</g>
<!-- nd391&#45;&gt;ndcluster_nd395 -->
<g id="edge11" class="edge"><title>nd391:n&#45;&gt;ndcluster_nd395:e</title>
<path fill="none" stroke="grey" d="M221.6,-108.5C221.6,-118.016 271.916,-95.5 262.4,-95.5"/>
</g>
<!-- nd391&#45;&gt;ndcluster_nd395 -->
<g id="edge12" class="edge"><title>nd391:e&#45;&gt;ndcluster_nd395:w</title>
<path fill="none" stroke="black" d="M232.6,-96.5C243.187,-96.5 245.813,-95.5 256.4,-95.5"/>
</g>
<!-- ndcluster_nd322 -->
<g id="node11" class="node"><title>ndcluster_nd322</title>
<g id="a_node11"><a xlink:title="nd322">
<ellipse fill="orange" stroke="orange" cx="179.1" cy="-96.5" rx="1.8" ry="1.8"/>
</a>
</g>
</g>
<!-- nd319&#45;&gt;ndcluster_nd322 -->
<g id="edge9" class="edge"><title>nd319:n&#45;&gt;ndcluster_nd322:e</title>
<path fill="none" stroke="grey" d="M127.1,-97.5C127.1,-142.338 189.932,-96.5 182.1,-96.5"/>
<text text-anchor="middle" x="153.1" y="-119.3" font-family="Times,serif" font-size="14.00">x</text>
</g>
<!-- nd319&#45;&gt;ndcluster_nd322 -->
<g id="edge10" class="edge"><title>nd319:e&#45;&gt;ndcluster_nd322:w</title>
<path fill="none" stroke="red" d="M141.6,-81.5C154.271,-81.5 157.948,-90.1142 166.263,-94.2867"/>
<polygon fill="red" stroke="red" points="165.576,-97.7196 176.1,-96.5 167.112,-90.8903 165.576,-97.7196"/>
</g>
<!-- ndcluster_nd322&#45;&gt;nd391 -->
<g id="edge8" class="edge"><title>ndcluster_nd322:e&#45;&gt;nd391:w</title>
<path fill="none" stroke="black" d="M182.1,-96.5C194.767,-96.5 197.933,-96.5 210.6,-96.5"/>
</g>
</g>
</svg>
