<?xml version="1.0" encoding="UTF-8" standalone="no"?>
<!DOCTYPE svg PUBLIC "-//W3C//DTD SVG 1.1//EN"
 "http://www.w3.org/Graphics/SVG/1.1/DTD/svg11.dtd">
<!-- Generated by graphviz version 2.38.0 (20140413.2041)
 -->
<!-- Title: G Pages: 1 -->
<svg width="222pt" height="148pt"
 viewBox="0.00 0.00 221.60 147.99" xmlns="http://www.w3.org/2000/svg" xmlns:xlink="http://www.w3.org/1999/xlink">
<g id="graph0" class="graph" transform="scale(1 1) rotate(0) translate(4 143.99)">
<title>G</title>
<polygon fill="white" stroke="none" points="-4,4 -4,-143.99 217.6,-143.99 217.6,4 -4,4"/>
<g id="clust1" class="cluster"><title>cluster_nd241</title>
<polygon fill="none" stroke="orange" points="147.3,-101.5 147.3,-121.5 166.9,-121.5 166.9,-101.5 147.3,-101.5"/>
</g>
<!-- nd1 -->
<g id="node1" class="node"><title>nd1</title>
<ellipse fill="black" stroke="black" cx="1.8" cy="-74.5" rx="1.8" ry="1.8"/>
</g>
<!-- nd154 -->
<g id="node9" class="node"><title>nd154</title>
<g id="a_node9"><a xlink:title="nd154&#45;AppGraph">
<path fill="none" stroke="#000000" d="M23.5473,-84.5543C23.5473,-84.5543 19.6719,-78.9457 19.6719,-78.9457 18.136,-76.7229 18.136,-72.2771 19.6719,-70.0543 19.6719,-70.0543 23.5473,-64.4457 23.5473,-64.4457 25.0833,-62.2229 29.3212,-60.0023 32.0231,-60.0045 32.0231,-60.0045 37.4269,-60.009 37.4269,-60.009 40.1288,-60.0113 42.8307,-62.7155 42.8307,-65.4174 42.8307,-65.4174 42.8307,-83.5826 42.8307,-83.5826 42.8307,-86.2845 40.1288,-88.9887 37.4269,-88.991 37.4269,-88.991 32.0231,-88.9955 32.0231,-88.9955 29.3212,-88.9977 25.0833,-86.7771 23.5473,-84.5543"/>
<text text-anchor="middle" x="31.1" y="-70.8" font-family="Times,serif" font-size="14.00">@</text>
</a>
</g>
</g>
<!-- nd1&#45;&gt;nd154 -->
<g id="edge8" class="edge"><title>nd1:e&#45;&gt;nd154:w</title>
<path fill="none" stroke="#b70000" d="M3.6,-74.5C9.37778,-74.5 10.8222,-74.5 16.6,-74.5"/>
</g>
<!-- nd28 -->
<g id="node2" class="node"><title>nd28</title>
<g id="a_node2"><a xlink:title="nd28&#45;ConstGraph">
<path fill="none" stroke="purple" d="M152.267,-92C152.267,-92 161.933,-92 161.933,-92 166.767,-92 171.6,-87.1667 171.6,-82.3333 171.6,-82.3333 171.6,-72.6667 171.6,-72.6667 171.6,-67.8333 166.767,-63 161.933,-63 161.933,-63 152.267,-63 152.267,-63 147.433,-63 142.6,-67.8333 142.6,-72.6667 142.6,-72.6667 142.6,-82.3333 142.6,-82.3333 142.6,-87.1667 147.433,-92 152.267,-92"/>
<text text-anchor="middle" x="157.1" y="-73.8" font-family="Times,serif" font-size="14.00">3</text>
</a>
</g>
</g>
<!-- nd34 -->
<g id="node3" class="node"><title>nd34</title>
<g id="a_node3"><a xlink:title="nd34&#45;ConstGraph">
<path fill="none" stroke="purple" d="M194.267,-71C194.267,-71 203.933,-71 203.933,-71 208.767,-71 213.6,-66.1667 213.6,-61.3333 213.6,-61.3333 213.6,-51.6667 213.6,-51.6667 213.6,-46.8333 208.767,-42 203.933,-42 203.933,-42 194.267,-42 194.267,-42 189.433,-42 184.6,-46.8333 184.6,-51.6667 184.6,-51.6667 184.6,-61.3333 184.6,-61.3333 184.6,-66.1667 189.433,-71 194.267,-71"/>
<text text-anchor="middle" x="199.1" y="-52.8" font-family="Times,serif" font-size="14.00">4</text>
</a>
</g>
</g>
<!-- nd39 -->
<g id="node4" class="node"><title>nd39</title>
<g id="a_node4"><a xlink:title="nd39&#45;ConstEmptyGraph">
<path fill="none" stroke="purple" d="M194.267,-29C194.267,-29 203.933,-29 203.933,-29 208.767,-29 213.6,-24.1667 213.6,-19.3333 213.6,-19.3333 213.6,-9.66667 213.6,-9.66667 213.6,-4.83333 208.767,-1.77636e-15 203.933,-1.77636e-15 203.933,-1.77636e-15 194.267,-1.77636e-15 194.267,-1.77636e-15 189.433,-1.77636e-15 184.6,-4.83333 184.6,-9.66667 184.6,-9.66667 184.6,-19.3333 184.6,-19.3333 184.6,-24.1667 189.433,-29 194.267,-29"/>
<text text-anchor="middle" x="199.1" y="-10.8" font-family="Times,serif" font-size="14.00">[]</text>
</a>
</g>
</g>
<!-- nd182 -->
<g id="node5" class="node"><title>nd182</title>
<g id="a_node5"><a xlink:title="nd182&#45;ConstListGraph">
<path fill="none" stroke="purple" d="M152.267,-50C152.267,-50 161.933,-50 161.933,-50 166.767,-50 171.6,-45.1667 171.6,-40.3333 171.6,-40.3333 171.6,-30.6667 171.6,-30.6667 171.6,-25.8333 166.767,-21 161.933,-21 161.933,-21 152.267,-21 152.267,-21 147.433,-21 142.6,-25.8333 142.6,-30.6667 142.6,-30.6667 142.6,-40.3333 142.6,-40.3333 142.6,-45.1667 147.433,-50 152.267,-50"/>
<text text-anchor="middle" x="157.1" y="-31.8" font-family="Times,serif" font-size="14.00">::</text>
</a>
</g>
</g>
<!-- nd182&#45;&gt;nd34 -->
<g id="edge1" class="edge"><title>nd182:n&#45;&gt;nd34:w</title>
<path fill="none" stroke="purple" d="M157.1,-51.5C157.1,-54.6056 181.494,-56.5 184.6,-56.5"/>
</g>
<!-- nd182&#45;&gt;nd39 -->
<g id="edge2" class="edge"><title>nd182:s&#45;&gt;nd39:w</title>
<path fill="none" stroke="purple" d="M157.1,-19.5C157.1,-7.0774 172.177,-14.5 184.6,-14.5"/>
</g>
<!-- nd188 -->
<g id="node6" class="node"><title>nd188</title>
<g id="a_node6"><a xlink:title="nd188&#45;ConstListGraph">
<path fill="none" stroke="purple" d="M110.267,-76C110.267,-76 119.933,-76 119.933,-76 124.767,-76 129.6,-71.1667 129.6,-66.3333 129.6,-66.3333 129.6,-56.6667 129.6,-56.6667 129.6,-51.8333 124.767,-47 119.933,-47 119.933,-47 110.267,-47 110.267,-47 105.433,-47 100.6,-51.8333 100.6,-56.6667 100.6,-56.6667 100.6,-66.3333 100.6,-66.3333 100.6,-71.1667 105.433,-76 110.267,-76"/>
<text text-anchor="middle" x="115.1" y="-57.8" font-family="Times,serif" font-size="14.00">::</text>
</a>
</g>
</g>
<!-- nd188&#45;&gt;nd28 -->
<g id="edge3" class="edge"><title>nd188:n&#45;&gt;nd28:w</title>
<path fill="none" stroke="purple" d="M115.1,-77.5C115.1,-89.7222 130.378,-77.5 142.6,-77.5"/>
</g>
<!-- nd188&#45;&gt;nd182 -->
<g id="edge4" class="edge"><title>nd188:s&#45;&gt;nd182:w</title>
<path fill="none" stroke="purple" d="M115.1,-45.5C115.1,-32.4948 129.595,-35.5 142.6,-35.5"/>
</g>
<!-- nd237 -->
<g id="node7" class="node"><title>nd237</title>
<g id="a_node7"><a xlink:title="nd237&#45;RecurGraph">
<ellipse fill="none" stroke="#000000" cx="115.1" cy="-100.5" rx="11" ry="11"/>
<text text-anchor="middle" x="115.1" y="-96.8" font-family="Times,serif" font-size="14.00">rec</text>
</a>
</g>
</g>
<!-- ndcluster_nd241 -->
<g id="node8" class="node"><title>ndcluster_nd241</title>
<g id="a_node8"><a xlink:title="nd241">
<ellipse fill="orange" stroke="orange" cx="157.1" cy="-111.5" rx="1.8" ry="1.8"/>
</a>
</g>
</g>
<!-- nd237&#45;&gt;ndcluster_nd241 -->
<g id="edge10" class="edge"><title>nd237:n&#45;&gt;ndcluster_nd241:e</title>
<path fill="none" stroke="grey" d="M115.1,-112.5C115.1,-174.269 172.226,-111.5 160.1,-111.5"/>
</g>
<!-- nd237&#45;&gt;ndcluster_nd241 -->
<g id="edge11" class="edge"><title>nd237:e&#45;&gt;ndcluster_nd241:w</title>
<path fill="none" stroke="black" d="M127.1,-100.5C140.058,-100.5 141.142,-111.5 154.1,-111.5"/>
</g>
<!-- nd155 -->
<g id="node10" class="node"><title>nd155</title>
<g id="a_node10"><a xlink:title="nd155&#45;AppGraph">
<path fill="none" stroke="#000000" d="M65.5473,-98.5543C65.5473,-98.5543 61.6719,-92.9457 61.6719,-92.9457 60.136,-90.7229 60.136,-86.2771 61.6719,-84.0543 61.6719,-84.0543 65.5473,-78.4457 65.5473,-78.4457 67.0833,-76.2229 71.3212,-74.0023 74.0231,-74.0045 74.0231,-74.0045 79.4269,-74.009 79.4269,-74.009 82.1288,-74.0113 84.8307,-76.7155 84.8307,-79.4174 84.8307,-79.4174 84.8307,-97.5826 84.8307,-97.5826 84.8307,-100.285 82.1288,-102.989 79.4269,-102.991 79.4269,-102.991 74.0231,-102.995 74.0231,-102.995 71.3212,-102.998 67.0833,-100.777 65.5473,-98.5543"/>
<text text-anchor="middle" x="73.1" y="-84.8" font-family="Times,serif" font-size="14.00">@</text>
</a>
</g>
</g>
<!-- nd154&#45;&gt;nd155 -->
<g id="edge6" class="edge"><title>nd154:e&#45;&gt;nd155:w</title>
<path fill="none" stroke="#b70000" d="M44.1,-74.5C53.0581,-74.5 49.6419,-88.5 58.6,-88.5"/>
</g>
<!-- nd309 -->
<g id="node11" class="node"><title>nd309</title>
<g id="a_node11"><a xlink:title="nd309&#45;ConstGraph">
<path fill="none" stroke="purple" d="M68.2667,-61C68.2667,-61 77.9333,-61 77.9333,-61 82.7667,-61 87.6,-56.1667 87.6,-51.3333 87.6,-51.3333 87.6,-41.6667 87.6,-41.6667 87.6,-36.8333 82.7667,-32 77.9333,-32 77.9333,-32 68.2667,-32 68.2667,-32 63.4333,-32 58.6,-36.8333 58.6,-41.6667 58.6,-41.6667 58.6,-51.3333 58.6,-51.3333 58.6,-56.1667 63.4333,-61 68.2667,-61"/>
<text text-anchor="middle" x="73.1" y="-42.8" font-family="Times,serif" font-size="14.00">3</text>
</a>
</g>
</g>
<!-- nd154&#45;&gt;nd309 -->
<g id="edge7" class="edge"><title>nd154:s&#45;&gt;nd309:w</title>
<path fill="none" stroke="black" d="M31.1,-58.5C31.1,-45.1648 45.2648,-46.5 58.6,-46.5"/>
</g>
<!-- nd155&#45;&gt;nd188 -->
<g id="edge9" class="edge"><title>nd155:s&#45;&gt;nd188:w</title>
<path fill="none" stroke="black" d="M73.1,-72.5C73.1,-65.6832 81.2751,-70.0426 87.6,-67.5 93.5042,-65.1265 94.2365,-61.5 100.6,-61.5"/>
</g>
<!-- nd155&#45;&gt;nd237 -->
<g id="edge5" class="edge"><title>nd155:e&#45;&gt;nd237:w</title>
<path fill="none" stroke="red" d="M86.1,-88.5C90.8686,-88.5 92.7806,-91.6904 94.7818,-94.7812"/>
<polygon fill="red" stroke="red" points="92.8767,-97.7188 103.1,-100.5 96.8425,-91.9505 92.8767,-97.7188"/>
</g>
</g>
</svg>
