<?xml version="1.0" encoding="UTF-8" standalone="no"?>
<!DOCTYPE svg PUBLIC "-//W3C//DTD SVG 1.1//EN"
 "http://www.w3.org/Graphics/SVG/1.1/DTD/svg11.dtd">
<!-- Generated by graphviz version 2.38.0 (20140413.2041)
 -->
<!-- Title: G Pages: 1 -->
<svg width="299pt" height="139pt"
 viewBox="0.00 0.00 298.60 138.50" xmlns="http://www.w3.org/2000/svg" xmlns:xlink="http://www.w3.org/1999/xlink">
<g id="graph0" class="graph" transform="scale(1 1) rotate(0) translate(4 134.5)">
<title>G</title>
<polygon fill="white" stroke="none" points="-4,4 -4,-134.5 294.6,-134.5 294.6,4 -4,4"/>
<g id="clust1" class="cluster"><title>cluster_nd140</title>
<polygon fill="none" stroke="orange" points="140.3,-102.5 140.3,-122.5 159.9,-122.5 159.9,-102.5 140.3,-102.5"/>
</g>
<!-- nd1 -->
<g id="node1" class="node"><title>nd1</title>
<ellipse fill="black" stroke="black" cx="1.8" cy="-84.5" rx="1.8" ry="1.8"/>
</g>
<!-- nd84 -->
<g id="node11" class="node"><title>nd84</title>
<g id="a_node11"><a xlink:title="nd84&#45;AppGraph">
<path fill="none" stroke="#000000" d="M23.5473,-94.5543C23.5473,-94.5543 19.6719,-88.9457 19.6719,-88.9457 18.136,-86.7229 18.136,-82.2771 19.6719,-80.0543 19.6719,-80.0543 23.5473,-74.4457 23.5473,-74.4457 25.0833,-72.2229 29.3212,-70.0023 32.0231,-70.0045 32.0231,-70.0045 37.4269,-70.009 37.4269,-70.009 40.1288,-70.0113 42.8307,-72.7155 42.8307,-75.4174 42.8307,-75.4174 42.8307,-93.5826 42.8307,-93.5826 42.8307,-96.2845 40.1288,-98.9887 37.4269,-98.991 37.4269,-98.991 32.0231,-98.9955 32.0231,-98.9955 29.3212,-98.9977 25.0833,-96.7771 23.5473,-94.5543"/>
<text text-anchor="middle" x="31.1" y="-80.8" font-family="Times,serif" font-size="14.00">@</text>
</a>
</g>
</g>
<!-- nd1&#45;&gt;nd84 -->
<g id="edge10" class="edge"><title>nd1:e&#45;&gt;nd84:w</title>
<path fill="none" stroke="#b70000" d="M3.6,-84.5C9.37778,-84.5 10.8222,-84.5 16.6,-84.5"/>
</g>
<!-- nd136 -->
<g id="node2" class="node"><title>nd136</title>
<g id="a_node2"><a xlink:title="nd136&#45;RecurGraph">
<ellipse fill="none" stroke="#000000" cx="111.6" cy="-103.5" rx="11" ry="11"/>
<text text-anchor="middle" x="111.6" y="-99.8" font-family="Times,serif" font-size="14.00">rec</text>
</a>
</g>
</g>
<!-- ndcluster_nd140 -->
<g id="node3" class="node"><title>ndcluster_nd140</title>
<g id="a_node3"><a xlink:title="nd140">
<ellipse fill="orange" stroke="orange" cx="150.1" cy="-112.5" rx="1.8" ry="1.8"/>
</a>
</g>
</g>
<!-- nd136&#45;&gt;ndcluster_nd140 -->
<g id="edge11" class="edge"><title>nd136:n&#45;&gt;ndcluster_nd140:e</title>
<path fill="none" stroke="grey" d="M111.6,-115.5C111.6,-133.993 171.593,-112.5 153.1,-112.5"/>
</g>
<!-- nd136&#45;&gt;ndcluster_nd140 -->
<g id="edge12" class="edge"><title>nd136:e&#45;&gt;ndcluster_nd140:w</title>
<path fill="none" stroke="black" d="M122.6,-103.5C134.2,-103.5 135.5,-112.5 147.1,-112.5"/>
</g>
<!-- nd22 -->
<g id="node4" class="node"><title>nd22</title>
<g id="a_node4"><a xlink:title="nd22&#45;ConstGraph">
<path fill="none" stroke="purple" d="M187.267,-113C187.267,-113 196.933,-113 196.933,-113 201.767,-113 206.6,-108.167 206.6,-103.333 206.6,-103.333 206.6,-93.6667 206.6,-93.6667 206.6,-88.8333 201.767,-84 196.933,-84 196.933,-84 187.267,-84 187.267,-84 182.433,-84 177.6,-88.8333 177.6,-93.6667 177.6,-93.6667 177.6,-103.333 177.6,-103.333 177.6,-108.167 182.433,-113 187.267,-113"/>
<text text-anchor="middle" x="192.1" y="-94.8" font-family="Times,serif" font-size="14.00">2</text>
</a>
</g>
</g>
<!-- nd28 -->
<g id="node5" class="node"><title>nd28</title>
<g id="a_node5"><a xlink:title="nd28&#45;ConstGraph">
<path fill="none" stroke="purple" d="M229.267,-92C229.267,-92 238.933,-92 238.933,-92 243.767,-92 248.6,-87.1667 248.6,-82.3333 248.6,-82.3333 248.6,-72.6667 248.6,-72.6667 248.6,-67.8333 243.767,-63 238.933,-63 238.933,-63 229.267,-63 229.267,-63 224.433,-63 219.6,-67.8333 219.6,-72.6667 219.6,-72.6667 219.6,-82.3333 219.6,-82.3333 219.6,-87.1667 224.433,-92 229.267,-92"/>
<text text-anchor="middle" x="234.1" y="-73.8" font-family="Times,serif" font-size="14.00">3</text>
</a>
</g>
</g>
<!-- nd34 -->
<g id="node6" class="node"><title>nd34</title>
<g id="a_node6"><a xlink:title="nd34&#45;ConstGraph">
<path fill="none" stroke="purple" d="M271.267,-71C271.267,-71 280.933,-71 280.933,-71 285.767,-71 290.6,-66.1667 290.6,-61.3333 290.6,-61.3333 290.6,-51.6667 290.6,-51.6667 290.6,-46.8333 285.767,-42 280.933,-42 280.933,-42 271.267,-42 271.267,-42 266.433,-42 261.6,-46.8333 261.6,-51.6667 261.6,-51.6667 261.6,-61.3333 261.6,-61.3333 261.6,-66.1667 266.433,-71 271.267,-71"/>
<text text-anchor="middle" x="276.1" y="-52.8" font-family="Times,serif" font-size="14.00">4</text>
</a>
</g>
</g>
<!-- nd39 -->
<g id="node7" class="node"><title>nd39</title>
<g id="a_node7"><a xlink:title="nd39&#45;ConstEmptyGraph">
<path fill="none" stroke="purple" d="M271.267,-29C271.267,-29 280.933,-29 280.933,-29 285.767,-29 290.6,-24.1667 290.6,-19.3333 290.6,-19.3333 290.6,-9.66667 290.6,-9.66667 290.6,-4.83333 285.767,-1.77636e-15 280.933,-1.77636e-15 280.933,-1.77636e-15 271.267,-1.77636e-15 271.267,-1.77636e-15 266.433,-1.77636e-15 261.6,-4.83333 261.6,-9.66667 261.6,-9.66667 261.6,-19.3333 261.6,-19.3333 261.6,-24.1667 266.433,-29 271.267,-29"/>
<text text-anchor="middle" x="276.1" y="-10.8" font-family="Times,serif" font-size="14.00">[]</text>
</a>
</g>
</g>
<!-- nd182 -->
<g id="node8" class="node"><title>nd182</title>
<g id="a_node8"><a xlink:title="nd182&#45;ConstListGraph">
<path fill="none" stroke="purple" d="M229.267,-50C229.267,-50 238.933,-50 238.933,-50 243.767,-50 248.6,-45.1667 248.6,-40.3333 248.6,-40.3333 248.6,-30.6667 248.6,-30.6667 248.6,-25.8333 243.767,-21 238.933,-21 238.933,-21 229.267,-21 229.267,-21 224.433,-21 219.6,-25.8333 219.6,-30.6667 219.6,-30.6667 219.6,-40.3333 219.6,-40.3333 219.6,-45.1667 224.433,-50 229.267,-50"/>
<text text-anchor="middle" x="234.1" y="-31.8" font-family="Times,serif" font-size="14.00">::</text>
</a>
</g>
</g>
<!-- nd182&#45;&gt;nd34 -->
<g id="edge1" class="edge"><title>nd182:n&#45;&gt;nd34:w</title>
<path fill="none" stroke="purple" d="M234.1,-51.5C234.1,-54.6056 258.494,-56.5 261.6,-56.5"/>
</g>
<!-- nd182&#45;&gt;nd39 -->
<g id="edge2" class="edge"><title>nd182:s&#45;&gt;nd39:w</title>
<path fill="none" stroke="purple" d="M234.1,-19.5C234.1,-7.0774 249.177,-14.5 261.6,-14.5"/>
</g>
<!-- nd188 -->
<g id="node9" class="node"><title>nd188</title>
<g id="a_node9"><a xlink:title="nd188&#45;ConstListGraph">
<path fill="none" stroke="purple" d="M187.267,-71C187.267,-71 196.933,-71 196.933,-71 201.767,-71 206.6,-66.1667 206.6,-61.3333 206.6,-61.3333 206.6,-51.6667 206.6,-51.6667 206.6,-46.8333 201.767,-42 196.933,-42 196.933,-42 187.267,-42 187.267,-42 182.433,-42 177.6,-46.8333 177.6,-51.6667 177.6,-51.6667 177.6,-61.3333 177.6,-61.3333 177.6,-66.1667 182.433,-71 187.267,-71"/>
<text text-anchor="middle" x="192.1" y="-52.8" font-family="Times,serif" font-size="14.00">::</text>
</a>
</g>
</g>
<!-- nd188&#45;&gt;nd28 -->
<g id="edge3" class="edge"><title>nd188:n&#45;&gt;nd28:w</title>
<path fill="none" stroke="purple" d="M192.1,-72.5C192.1,-75.6056 216.494,-77.5 219.6,-77.5"/>
</g>
<!-- nd188&#45;&gt;nd182 -->
<g id="edge4" class="edge"><title>nd188:s&#45;&gt;nd182:w</title>
<path fill="none" stroke="purple" d="M192.1,-40.5C192.1,-28.0774 207.177,-35.5 219.6,-35.5"/>
</g>
<!-- nd194 -->
<g id="node10" class="node"><title>nd194</title>
<g id="a_node10"><a xlink:title="nd194&#45;ConstListGraph">
<path fill="none" stroke="purple" d="M145.267,-92C145.267,-92 154.933,-92 154.933,-92 159.767,-92 164.6,-87.1667 164.6,-82.3333 164.6,-82.3333 164.6,-72.6667 164.6,-72.6667 164.6,-67.8333 159.767,-63 154.933,-63 154.933,-63 145.267,-63 145.267,-63 140.433,-63 135.6,-67.8333 135.6,-72.6667 135.6,-72.6667 135.6,-82.3333 135.6,-82.3333 135.6,-87.1667 140.433,-92 145.267,-92"/>
<text text-anchor="middle" x="150.1" y="-73.8" font-family="Times,serif" font-size="14.00">::</text>
</a>
</g>
</g>
<!-- nd194&#45;&gt;nd22 -->
<g id="edge5" class="edge"><title>nd194:n&#45;&gt;nd22:w</title>
<path fill="none" stroke="purple" d="M150.1,-93.5C150.1,-99.7113 171.389,-98.5 177.6,-98.5"/>
</g>
<!-- nd194&#45;&gt;nd188 -->
<g id="edge6" class="edge"><title>nd194:s&#45;&gt;nd188:w</title>
<path fill="none" stroke="purple" d="M150.1,-61.5C150.1,-49.0774 165.177,-56.5 177.6,-56.5"/>
</g>
<!-- nd85 -->
<g id="node12" class="node"><title>nd85</title>
<g id="a_node12"><a xlink:title="nd85&#45;AppGraph">
<path fill="none" stroke="#000000" d="M65.5473,-108.554C65.5473,-108.554 61.6719,-102.946 61.6719,-102.946 60.136,-100.723 60.136,-96.2771 61.6719,-94.0543 61.6719,-94.0543 65.5473,-88.4457 65.5473,-88.4457 67.0833,-86.2229 71.3212,-84.0023 74.0231,-84.0045 74.0231,-84.0045 79.4269,-84.009 79.4269,-84.009 82.1288,-84.0113 84.8307,-86.7155 84.8307,-89.4174 84.8307,-89.4174 84.8307,-107.583 84.8307,-107.583 84.8307,-110.285 82.1288,-112.989 79.4269,-112.991 79.4269,-112.991 74.0231,-112.995 74.0231,-112.995 71.3212,-112.998 67.0833,-110.777 65.5473,-108.554"/>
<text text-anchor="middle" x="73.1" y="-94.8" font-family="Times,serif" font-size="14.00">@</text>
</a>
</g>
</g>
<!-- nd84&#45;&gt;nd85 -->
<g id="edge8" class="edge"><title>nd84:e&#45;&gt;nd85:w</title>
<path fill="none" stroke="#b70000" d="M44.1,-84.5C53.0581,-84.5 49.6419,-98.5 58.6,-98.5"/>
</g>
<!-- nd232 -->
<g id="node14" class="node"><title>nd232</title>
<g id="a_node14"><a xlink:title="nd232&#45;ConstGraph">
<path fill="none" stroke="purple" d="M68.2667,-71C68.2667,-71 77.9333,-71 77.9333,-71 82.7667,-71 87.6,-66.1667 87.6,-61.3333 87.6,-61.3333 87.6,-51.6667 87.6,-51.6667 87.6,-46.8333 82.7667,-42 77.9333,-42 77.9333,-42 68.2667,-42 68.2667,-42 63.4333,-42 58.6,-46.8333 58.6,-51.6667 58.6,-51.6667 58.6,-61.3333 58.6,-61.3333 58.6,-66.1667 63.4333,-71 68.2667,-71"/>
<text text-anchor="middle" x="73.1" y="-52.8" font-family="Times,serif" font-size="14.00">1</text>
</a>
</g>
</g>
<!-- nd84&#45;&gt;nd232 -->
<g id="edge9" class="edge"><title>nd84:s&#45;&gt;nd232:w</title>
<path fill="none" stroke="black" d="M31.1,-68.5C31.1,-55.1648 45.2648,-56.5 58.6,-56.5"/>
</g>
<!-- nd85&#45;&gt;nd136 -->
<g id="edge7" class="edge"><title>nd85:e&#45;&gt;nd136:w</title>
<path fill="none" stroke="black" d="M86.1,-98.5C92.9168,-98.5 93.7832,-103.5 100.6,-103.5"/>
</g>
<!-- nd210 -->
<g id="node13" class="node"><title>nd210</title>
<g id="a_node13"><a xlink:title="nd210&#45;ContractGraph">
<ellipse fill="black" stroke="black" cx="111.6" cy="-77.5" rx="1.8" ry="1.8"/>
</a>
</g>
</g>
<!-- nd85&#45;&gt;nd210 -->
<g id="edge14" class="edge"><title>nd85:s&#45;&gt;nd210:w</title>
<path fill="none" stroke="red" d="M73.1,-82.5C73.1,-79.7614 87.9965,-78.4251 98.6013,-77.8574"/>
<polygon fill="red" stroke="red" points="98.7314,-81.355 108.6,-77.5 98.4813,-74.3595 98.7314,-81.355"/>
</g>
<!-- nd210&#45;&gt;nd194 -->
<g id="edge13" class="edge"><title>nd210:e&#45;&gt;nd194:w</title>
<path fill="none" stroke="black" d="M114.6,-77.5C123.933,-77.5 126.267,-77.5 135.6,-77.5"/>
</g>
</g>
</svg>
