<?xml version="1.0" encoding="UTF-8" standalone="no"?>
<!DOCTYPE svg PUBLIC "-//W3C//DTD SVG 1.1//EN"
 "http://www.w3.org/Graphics/SVG/1.1/DTD/svg11.dtd">
<!-- Generated by graphviz version 2.38.0 (20140413.2041)
 -->
<!-- Title: G Pages: 1 -->
<svg width="458pt" height="192pt"
 viewBox="0.00 0.00 458.20 191.78" xmlns="http://www.w3.org/2000/svg" xmlns:xlink="http://www.w3.org/1999/xlink">
<g id="graph0" class="graph" transform="scale(1 1) rotate(0) translate(4 187.775)">
<title>G</title>
<polygon fill="white" stroke="none" points="-4,4 -4,-187.775 454.2,-187.775 454.2,4 -4,4"/>
<g id="clust1" class="cluster"><title>cluster_nd241</title>
<polygon fill="none" stroke="orange" points="169.3,-155.5 169.3,-175.5 188.9,-175.5 188.9,-155.5 169.3,-155.5"/>
</g>
<g id="clust2" class="cluster"><title>cluster_nd160</title>
<polygon fill="none" stroke="orange" points="167.3,-103.5 167.3,-146.5 190.9,-146.5 190.9,-103.5 167.3,-103.5"/>
<text text-anchor="middle" x="179.1" y="-131.3" font-family="Times,serif" font-size="14.00">tl</text>
</g>
<!-- nd1 -->
<g id="node1" class="node"><title>nd1</title>
<ellipse fill="black" stroke="black" cx="1.8" cy="-100.5" rx="1.8" ry="1.8"/>
</g>
<!-- nd154 -->
<g id="node12" class="node"><title>nd154</title>
<g id="a_node12"><a xlink:title="nd154&#45;AppGraph">
<path fill="none" stroke="#000000" d="M27.5473,-110.554C27.5473,-110.554 23.6719,-104.946 23.6719,-104.946 22.136,-102.723 22.136,-98.2771 23.6719,-96.0543 23.6719,-96.0543 27.5473,-90.4457 27.5473,-90.4457 29.0833,-88.2229 33.3212,-86.0023 36.0231,-86.0045 36.0231,-86.0045 41.4269,-86.009 41.4269,-86.009 44.1288,-86.0113 46.8307,-88.7155 46.8307,-91.4174 46.8307,-91.4174 46.8307,-109.583 46.8307,-109.583 46.8307,-112.285 44.1288,-114.989 41.4269,-114.991 41.4269,-114.991 36.0231,-114.995 36.0231,-114.995 33.3212,-114.998 29.0833,-112.777 27.5473,-110.554"/>
<text text-anchor="middle" x="35.1" y="-96.8" font-family="Times,serif" font-size="14.00">@</text>
</a>
</g>
</g>
<!-- nd1&#45;&gt;nd154 -->
<g id="edge14" class="edge"><title>nd1:e&#45;&gt;nd154:w</title>
<path fill="none" stroke="#b70000" d="M3.6,-100.5C11.1556,-100.5 13.0444,-100.5 20.6,-100.5"/>
</g>
<!-- nd22 -->
<g id="node2" class="node"><title>nd22</title>
<g id="a_node2"><a xlink:title="nd22&#45;ConstGraph">
<path fill="none" stroke="purple" d="M292.867,-100C292.867,-100 302.533,-100 302.533,-100 307.367,-100 312.2,-95.1667 312.2,-90.3333 312.2,-90.3333 312.2,-80.6667 312.2,-80.6667 312.2,-75.8333 307.367,-71 302.533,-71 302.533,-71 292.867,-71 292.867,-71 288.033,-71 283.2,-75.8333 283.2,-80.6667 283.2,-80.6667 283.2,-90.3333 283.2,-90.3333 283.2,-95.1667 288.033,-100 292.867,-100"/>
<text text-anchor="middle" x="297.7" y="-81.8" font-family="Times,serif" font-size="14.00">2</text>
</a>
</g>
</g>
<!-- nd28 -->
<g id="node3" class="node"><title>nd28</title>
<g id="a_node3"><a xlink:title="nd28&#45;ConstGraph">
<path fill="none" stroke="purple" d="M384.867,-92C384.867,-92 394.533,-92 394.533,-92 399.367,-92 404.2,-87.1667 404.2,-82.3333 404.2,-82.3333 404.2,-72.6667 404.2,-72.6667 404.2,-67.8333 399.367,-63 394.533,-63 394.533,-63 384.867,-63 384.867,-63 380.033,-63 375.2,-67.8333 375.2,-72.6667 375.2,-72.6667 375.2,-82.3333 375.2,-82.3333 375.2,-87.1667 380.033,-92 384.867,-92"/>
<text text-anchor="middle" x="389.7" y="-73.8" font-family="Times,serif" font-size="14.00">3</text>
</a>
</g>
</g>
<!-- nd34 -->
<g id="node4" class="node"><title>nd34</title>
<g id="a_node4"><a xlink:title="nd34&#45;ConstGraph">
<path fill="none" stroke="purple" d="M430.867,-71C430.867,-71 440.533,-71 440.533,-71 445.367,-71 450.2,-66.1667 450.2,-61.3333 450.2,-61.3333 450.2,-51.6667 450.2,-51.6667 450.2,-46.8333 445.367,-42 440.533,-42 440.533,-42 430.867,-42 430.867,-42 426.033,-42 421.2,-46.8333 421.2,-51.6667 421.2,-51.6667 421.2,-61.3333 421.2,-61.3333 421.2,-66.1667 426.033,-71 430.867,-71"/>
<text text-anchor="middle" x="435.7" y="-52.8" font-family="Times,serif" font-size="14.00">4</text>
</a>
</g>
</g>
<!-- nd39 -->
<g id="node5" class="node"><title>nd39</title>
<g id="a_node5"><a xlink:title="nd39&#45;ConstEmptyGraph">
<path fill="none" stroke="purple" d="M430.867,-29C430.867,-29 440.533,-29 440.533,-29 445.367,-29 450.2,-24.1667 450.2,-19.3333 450.2,-19.3333 450.2,-9.66667 450.2,-9.66667 450.2,-4.83333 445.367,-1.77636e-15 440.533,-1.77636e-15 440.533,-1.77636e-15 430.867,-1.77636e-15 430.867,-1.77636e-15 426.033,-1.77636e-15 421.2,-4.83333 421.2,-9.66667 421.2,-9.66667 421.2,-19.3333 421.2,-19.3333 421.2,-24.1667 426.033,-29 430.867,-29"/>
<text text-anchor="middle" x="435.7" y="-10.8" font-family="Times,serif" font-size="14.00">[]</text>
</a>
</g>
</g>
<!-- nd182 -->
<g id="node6" class="node"><title>nd182</title>
<g id="a_node6"><a xlink:title="nd182&#45;ConstListGraph">
<path fill="none" stroke="purple" d="M384.867,-50C384.867,-50 394.533,-50 394.533,-50 399.367,-50 404.2,-45.1667 404.2,-40.3333 404.2,-40.3333 404.2,-30.6667 404.2,-30.6667 404.2,-25.8333 399.367,-21 394.533,-21 394.533,-21 384.867,-21 384.867,-21 380.033,-21 375.2,-25.8333 375.2,-30.6667 375.2,-30.6667 375.2,-40.3333 375.2,-40.3333 375.2,-45.1667 380.033,-50 384.867,-50"/>
<text text-anchor="middle" x="389.7" y="-31.8" font-family="Times,serif" font-size="14.00">::</text>
</a>
</g>
</g>
<!-- nd182&#45;&gt;nd34 -->
<g id="edge1" class="edge"><title>nd182:n&#45;&gt;nd34:w</title>
<path fill="none" stroke="purple" d="M389.7,-51.5C389.7,-55.0438 417.656,-56.5 421.2,-56.5"/>
</g>
<!-- nd182&#45;&gt;nd39 -->
<g id="edge2" class="edge"><title>nd182:s&#45;&gt;nd39:w</title>
<path fill="none" stroke="purple" d="M389.7,-19.5C389.7,-5.32473 407.025,-14.5 421.2,-14.5"/>
</g>
<!-- nd188 -->
<g id="node7" class="node"><title>nd188</title>
<g id="a_node7"><a xlink:title="nd188&#45;ConstListGraph">
<path fill="none" stroke="purple" d="M338.867,-71C338.867,-71 348.533,-71 348.533,-71 353.367,-71 358.2,-66.1667 358.2,-61.3333 358.2,-61.3333 358.2,-51.6667 358.2,-51.6667 358.2,-46.8333 353.367,-42 348.533,-42 348.533,-42 338.867,-42 338.867,-42 334.033,-42 329.2,-46.8333 329.2,-51.6667 329.2,-51.6667 329.2,-61.3333 329.2,-61.3333 329.2,-66.1667 334.033,-71 338.867,-71"/>
<text text-anchor="middle" x="343.7" y="-52.8" font-family="Times,serif" font-size="14.00">::</text>
</a>
</g>
</g>
<!-- nd188&#45;&gt;nd28 -->
<g id="edge3" class="edge"><title>nd188:n&#45;&gt;nd28:w</title>
<path fill="none" stroke="purple" d="M343.7,-72.5C343.7,-86.6753 361.025,-77.5 375.2,-77.5"/>
</g>
<!-- nd188&#45;&gt;nd182 -->
<g id="edge4" class="edge"><title>nd188:s&#45;&gt;nd182:w</title>
<path fill="none" stroke="purple" d="M343.7,-40.5C343.7,-26.3247 361.025,-35.5 375.2,-35.5"/>
</g>
<!-- nd194 -->
<g id="node8" class="node"><title>nd194</title>
<g id="a_node8"><a xlink:title="nd194&#45;ConstListGraph">
<path fill="none" stroke="purple" d="M226.267,-86C226.267,-86 235.933,-86 235.933,-86 240.767,-86 245.6,-81.1667 245.6,-76.3333 245.6,-76.3333 245.6,-66.6667 245.6,-66.6667 245.6,-61.8333 240.767,-57 235.933,-57 235.933,-57 226.267,-57 226.267,-57 221.433,-57 216.6,-61.8333 216.6,-66.6667 216.6,-66.6667 216.6,-76.3333 216.6,-76.3333 216.6,-81.1667 221.433,-86 226.267,-86"/>
<text text-anchor="middle" x="231.1" y="-67.8" font-family="Times,serif" font-size="14.00">::</text>
</a>
</g>
</g>
<!-- nd299 -->
<g id="node20" class="node"><title>nd299</title>
<g id="a_node20"><a xlink:title="nd299&#45;ContractGraph">
<ellipse fill="black" stroke="black" cx="264.4" cy="-85.5" rx="1.8" ry="1.8"/>
</a>
</g>
</g>
<!-- nd194&#45;&gt;nd299 -->
<g id="edge5" class="edge"><title>nd194:n&#45;&gt;nd299:w</title>
<path fill="none" stroke="black" d="M231.1,-87.5C231.1,-101.528 248.572,-85.5 262.6,-85.5"/>
</g>
<!-- nd300 -->
<g id="node21" class="node"><title>nd300</title>
<g id="a_node21"><a xlink:title="nd300&#45;ContractGraph">
<ellipse fill="black" stroke="black" cx="264.4" cy="-56.5" rx="1.8" ry="1.8"/>
</a>
</g>
</g>
<!-- nd194&#45;&gt;nd300 -->
<g id="edge6" class="edge"><title>nd194:s&#45;&gt;nd300:w</title>
<path fill="none" stroke="black" d="M231.1,-55.5C231.1,-41.4929 248.593,-56.5 262.6,-56.5"/>
</g>
<!-- nd232 -->
<g id="node9" class="node"><title>nd232</title>
<g id="a_node9"><a xlink:title="nd232&#45;ConstGraph">
<path fill="none" stroke="purple" d="M174.267,-79C174.267,-79 183.933,-79 183.933,-79 188.767,-79 193.6,-74.1667 193.6,-69.3333 193.6,-69.3333 193.6,-59.6667 193.6,-59.6667 193.6,-54.8333 188.767,-50 183.933,-50 183.933,-50 174.267,-50 174.267,-50 169.433,-50 164.6,-54.8333 164.6,-59.6667 164.6,-59.6667 164.6,-69.3333 164.6,-69.3333 164.6,-74.1667 169.433,-79 174.267,-79"/>
<text text-anchor="middle" x="179.1" y="-60.8" font-family="Times,serif" font-size="14.00">1</text>
</a>
</g>
</g>
<!-- nd237 -->
<g id="node10" class="node"><title>nd237</title>
<g id="a_node10"><a xlink:title="nd237&#45;RecurGraph">
<ellipse fill="none" stroke="#000000" cx="127.1" cy="-147.5" rx="11" ry="11"/>
<text text-anchor="middle" x="127.1" y="-143.8" font-family="Times,serif" font-size="14.00">rec</text>
</a>
</g>
</g>
<!-- ndcluster_nd241 -->
<g id="node11" class="node"><title>ndcluster_nd241</title>
<g id="a_node11"><a xlink:title="nd241">
<ellipse fill="orange" stroke="orange" cx="179.1" cy="-165.5" rx="1.8" ry="1.8"/>
</a>
</g>
</g>
<!-- nd237&#45;&gt;ndcluster_nd241 -->
<g id="edge20" class="edge"><title>nd237:n&#45;&gt;ndcluster_nd241:e</title>
<path fill="none" stroke="grey" d="M127.1,-159.5C127.1,-210.095 190.08,-165.5 182.1,-165.5"/>
</g>
<!-- nd237&#45;&gt;ndcluster_nd241 -->
<g id="edge21" class="edge"><title>nd237:e&#45;&gt;ndcluster_nd241:w</title>
<path fill="none" stroke="black" d="M139.1,-147.5C157.387,-147.5 157.813,-165.5 176.1,-165.5"/>
</g>
<!-- nd155 -->
<g id="node13" class="node"><title>nd155</title>
<g id="a_node13"><a xlink:title="nd155&#45;AppGraph">
<path fill="none" stroke="#000000" d="M73.5473,-133.554C73.5473,-133.554 69.6719,-127.946 69.6719,-127.946 68.136,-125.723 68.136,-121.277 69.6719,-119.054 69.6719,-119.054 73.5473,-113.446 73.5473,-113.446 75.0833,-111.223 79.3212,-109.002 82.0231,-109.005 82.0231,-109.005 87.4269,-109.009 87.4269,-109.009 90.1288,-109.011 92.8307,-111.715 92.8307,-114.417 92.8307,-114.417 92.8307,-132.583 92.8307,-132.583 92.8307,-135.285 90.1288,-137.989 87.4269,-137.991 87.4269,-137.991 82.0231,-137.995 82.0231,-137.995 79.3212,-137.998 75.0833,-135.777 73.5473,-133.554"/>
<text text-anchor="middle" x="81.1" y="-119.8" font-family="Times,serif" font-size="14.00">@</text>
</a>
</g>
</g>
<!-- nd154&#45;&gt;nd155 -->
<g id="edge11" class="edge"><title>nd154:e&#45;&gt;nd155:w</title>
<path fill="none" stroke="black" d="M48.1,-100.5C61.2186,-100.5 53.4814,-123.5 66.6,-123.5"/>
</g>
<!-- nd165 -->
<g id="node16" class="node"><title>nd165</title>
<g id="a_node16"><a xlink:title="nd165&#45;BinOpGraph">
<ellipse fill="none" stroke="#000000" cx="81.1" cy="-49.5" rx="14.5" ry="14.5"/>
<text text-anchor="middle" x="81.1" y="-45.8" font-family="Times,serif" font-size="14.00">+</text>
</a>
</g>
</g>
<!-- nd154&#45;&gt;nd165 -->
<g id="edge12" class="edge"><title>nd154:s&#45;&gt;nd165:w</title>
<path fill="none" stroke="#b70000" d="M35.1,-84.5C35.1,-63.5721 45.6721,-49.5 66.6,-49.5"/>
</g>
<!-- nd155&#45;&gt;nd237 -->
<g id="edge9" class="edge"><title>nd155:e&#45;&gt;nd237:w</title>
<path fill="none" stroke="black" d="M94.1,-123.5C108.274,-123.5 100.926,-147.5 115.1,-147.5"/>
</g>
<!-- nd157 -->
<g id="node14" class="node"><title>nd157</title>
<g id="a_node14"><a xlink:title="nd157&#45;AppGraph">
<path fill="none" stroke="#000000" d="M119.547,-118.554C119.547,-118.554 115.672,-112.946 115.672,-112.946 114.136,-110.723 114.136,-106.277 115.672,-104.054 115.672,-104.054 119.547,-98.4457 119.547,-98.4457 121.083,-96.2229 125.321,-94.0023 128.023,-94.0045 128.023,-94.0045 133.427,-94.009 133.427,-94.009 136.129,-94.0113 138.831,-96.7155 138.831,-99.4174 138.831,-99.4174 138.831,-117.583 138.831,-117.583 138.831,-120.285 136.129,-122.989 133.427,-122.991 133.427,-122.991 128.023,-122.995 128.023,-122.995 125.321,-122.998 121.083,-120.777 119.547,-118.554"/>
<text text-anchor="middle" x="127.1" y="-104.8" font-family="Times,serif" font-size="14.00">@</text>
</a>
</g>
</g>
<!-- nd155&#45;&gt;nd157 -->
<g id="edge10" class="edge"><title>nd155:s&#45;&gt;nd157:w</title>
<path fill="none" stroke="black" d="M81.1,-107.5C81.1,-93.4929 98.5929,-108.5 112.6,-108.5"/>
</g>
<!-- ndcluster_nd160 -->
<g id="node15" class="node"><title>ndcluster_nd160</title>
<g id="a_node15"><a xlink:title="nd160">
<ellipse fill="orange" stroke="orange" cx="179.1" cy="-113.5" rx="1.8" ry="1.8"/>
</a>
</g>
</g>
<!-- nd157&#45;&gt;ndcluster_nd160 -->
<g id="edge8" class="edge"><title>nd157:e&#45;&gt;ndcluster_nd160:w</title>
<path fill="none" stroke="black" d="M140.1,-108.5C156.254,-108.5 159.946,-113.5 176.1,-113.5"/>
</g>
<!-- nd173 -->
<g id="node17" class="node"><title>nd173</title>
<g id="a_node17"><a xlink:title="nd173&#45;ContractGraph">
<ellipse fill="black" stroke="black" cx="179.1" cy="-93.5" rx="1.8" ry="1.8"/>
</a>
</g>
</g>
<!-- nd157&#45;&gt;nd173 -->
<g id="edge13" class="edge"><title>nd157:s&#45;&gt;nd173:w</title>
<path fill="none" stroke="black" d="M127.1,-92.5C127.1,-70.7177 154.318,-93.5 176.1,-93.5"/>
</g>
<!-- nd174 -->
<g id="node18" class="node"><title>nd174</title>
<g id="a_node18"><a xlink:title="nd174&#45;ContractGraph">
<ellipse fill="black" stroke="black" cx="127.1" cy="-64.5" rx="1.8" ry="1.8"/>
</a>
</g>
</g>
<!-- nd165&#45;&gt;nd174 -->
<g id="edge15" class="edge"><title>nd165:n&#45;&gt;nd174:w</title>
<path fill="none" stroke="black" d="M81.1,-65.5C81.1,-84.6163 104.984,-64.5 124.1,-64.5"/>
</g>
<!-- nd165&#45;&gt;nd299 -->
<g id="edge7" class="edge"><title>nd165:s&#45;&gt;nd299:w</title>
<path fill="none" stroke="#b70000" d="M81.1,-33.5C81.1,-13.4211 106.021,-29.5 126.1,-29.5 126.1,-29.5 126.1,-29.5 232.1,-29.5 260.441,-29.5 234.259,-85.5 262.6,-85.5"/>
</g>
<!-- nd173&#45;&gt;nd194 -->
<g id="edge17" class="edge"><title>nd173:e&#45;&gt;nd194:w</title>
<path fill="none" stroke="black" d="M182.1,-93.5C200.286,-93.5 198.414,-71.5 216.6,-71.5"/>
<text text-anchor="middle" x="205.1" y="-82.3" font-family="Times,serif" font-size="14.00">x</text>
</g>
<!-- nd174&#45;&gt;nd232 -->
<g id="edge16" class="edge"><title>nd174:e&#45;&gt;nd232:w</title>
<path fill="none" stroke="black" d="M130.1,-64.5C145.433,-64.5 149.267,-64.5 164.6,-64.5"/>
<text text-anchor="middle" x="153.1" y="-68.3" font-family="Times,serif" font-size="14.00">y</text>
</g>
<!-- nd287 -->
<g id="node19" class="node"><title>nd287</title>
<g id="a_node19"><a xlink:title="nd287&#45;ContractGraph">
<ellipse fill="black" stroke="black" cx="297.7" cy="-56.5" rx="1.8" ry="1.8"/>
</a>
</g>
</g>
<!-- nd287&#45;&gt;nd188 -->
<g id="edge19" class="edge"><title>nd287:e&#45;&gt;nd188:w</title>
<path fill="none" stroke="black" d="M300.7,-56.5C313.367,-56.5 316.533,-56.5 329.2,-56.5"/>
</g>
<!-- nd299&#45;&gt;nd22 -->
<g id="edge18" class="edge"><title>nd299:e&#45;&gt;nd22:w</title>
<path fill="none" stroke="red" d="M266.2,-85.5C269.033,-85.5 271.07,-85.5 272.907,-85.5"/>
<polygon fill="red" stroke="red" points="273.2,-89.0001 283.2,-85.5 273.2,-82.0001 273.2,-89.0001"/>
</g>
<!-- nd300&#45;&gt;nd287 -->
<g id="edge22" class="edge"><title>nd300:e&#45;&gt;nd287:w</title>
<path fill="none" stroke="black" d="M266.2,-56.5C278.867,-56.5 282.033,-56.5 294.7,-56.5"/>
</g>
</g>
</svg>
