<?xml version="1.0" encoding="UTF-8" standalone="no"?>
<!DOCTYPE svg PUBLIC "-//W3C//DTD SVG 1.1//EN"
 "http://www.w3.org/Graphics/SVG/1.1/DTD/svg11.dtd">
<!-- Generated by graphviz version 2.38.0 (20140413.2041)
 -->
<!-- Title: G Pages: 1 -->
<svg width="499pt" height="193pt"
 viewBox="0.00 0.00 498.80 192.50" xmlns="http://www.w3.org/2000/svg" xmlns:xlink="http://www.w3.org/1999/xlink">
<g id="graph0" class="graph" transform="scale(1 1) rotate(0) translate(4 188.5)">
<title>G</title>
<polygon fill="white" stroke="none" points="-4,4 -4,-188.5 494.8,-188.5 494.8,4 -4,4"/>
<g id="clust1" class="cluster"><title>cluster_nd140</title>
<polygon fill="none" stroke="orange" points="166.6,-156.5 166.6,-176.5 186.2,-176.5 186.2,-156.5 166.6,-156.5"/>
</g>
<g id="clust2" class="cluster"><title>cluster_nd91</title>
<polygon fill="none" stroke="orange" points="164.6,-102.5 164.6,-145.5 188.2,-145.5 188.2,-102.5 164.6,-102.5"/>
<text text-anchor="middle" x="176.4" y="-130.3" font-family="Times,serif" font-size="14.00">tl</text>
</g>
<!-- nd1 -->
<g id="node1" class="node"><title>nd1</title>
<ellipse fill="black" stroke="black" cx="1.8" cy="-103.5" rx="1.8" ry="1.8"/>
</g>
<!-- nd84 -->
<g id="node14" class="node"><title>nd84</title>
<g id="a_node14"><a xlink:title="nd84&#45;AppGraph">
<path fill="none" stroke="#000000" d="M27.5473,-113.554C27.5473,-113.554 23.6719,-107.946 23.6719,-107.946 22.136,-105.723 22.136,-101.277 23.6719,-99.0543 23.6719,-99.0543 27.5473,-93.4457 27.5473,-93.4457 29.0833,-91.2229 33.3212,-89.0023 36.0231,-89.0045 36.0231,-89.0045 41.4269,-89.009 41.4269,-89.009 44.1288,-89.0113 46.8307,-91.7155 46.8307,-94.4174 46.8307,-94.4174 46.8307,-112.583 46.8307,-112.583 46.8307,-115.285 44.1288,-117.989 41.4269,-117.991 41.4269,-117.991 36.0231,-117.995 36.0231,-117.995 33.3212,-117.998 29.0833,-115.777 27.5473,-113.554"/>
<text text-anchor="middle" x="35.1" y="-99.8" font-family="Times,serif" font-size="14.00">@</text>
</a>
</g>
</g>
<!-- nd1&#45;&gt;nd84 -->
<g id="edge16" class="edge"><title>nd1:e&#45;&gt;nd84:w</title>
<path fill="none" stroke="#b70000" d="M3.6,-103.5C11.1556,-103.5 13.0444,-103.5 20.6,-103.5"/>
</g>
<!-- nd136 -->
<g id="node2" class="node"><title>nd136</title>
<g id="a_node2"><a xlink:title="nd136&#45;RecurGraph">
<ellipse fill="none" stroke="#000000" cx="133.1" cy="-150.5" rx="11" ry="11"/>
<text text-anchor="middle" x="133.1" y="-146.8" font-family="Times,serif" font-size="14.00">rec</text>
</a>
</g>
</g>
<!-- ndcluster_nd140 -->
<g id="node3" class="node"><title>ndcluster_nd140</title>
<g id="a_node3"><a xlink:title="nd140">
<ellipse fill="orange" stroke="orange" cx="176.4" cy="-166.5" rx="1.8" ry="1.8"/>
</a>
</g>
</g>
<!-- nd136&#45;&gt;ndcluster_nd140 -->
<g id="edge19" class="edge"><title>nd136:n&#45;&gt;ndcluster_nd140:e</title>
<path fill="none" stroke="grey" d="M133.1,-162.5C133.1,-199.056 185.799,-166.5 179.4,-166.5"/>
</g>
<!-- nd136&#45;&gt;ndcluster_nd140 -->
<g id="edge20" class="edge"><title>nd136:e&#45;&gt;ndcluster_nd140:w</title>
<path fill="none" stroke="black" d="M145.1,-150.5C159.549,-150.5 158.951,-166.5 173.4,-166.5"/>
</g>
<!-- nd16 -->
<g id="node4" class="node"><title>nd16</title>
<g id="a_node4"><a xlink:title="nd16&#45;ConstGraph">
<path fill="none" stroke="purple" d="M287.467,-122C287.467,-122 297.133,-122 297.133,-122 301.967,-122 306.8,-117.167 306.8,-112.333 306.8,-112.333 306.8,-102.667 306.8,-102.667 306.8,-97.8333 301.967,-93 297.133,-93 297.133,-93 287.467,-93 287.467,-93 282.633,-93 277.8,-97.8333 277.8,-102.667 277.8,-102.667 277.8,-112.333 277.8,-112.333 277.8,-117.167 282.633,-122 287.467,-122"/>
<text text-anchor="middle" x="292.3" y="-103.8" font-family="Times,serif" font-size="14.00">1</text>
</a>
</g>
</g>
<!-- nd22 -->
<g id="node5" class="node"><title>nd22</title>
<g id="a_node5"><a xlink:title="nd22&#45;ConstGraph">
<path fill="none" stroke="purple" d="M379.467,-113C379.467,-113 389.133,-113 389.133,-113 393.967,-113 398.8,-108.167 398.8,-103.333 398.8,-103.333 398.8,-93.6667 398.8,-93.6667 398.8,-88.8333 393.967,-84 389.133,-84 389.133,-84 379.467,-84 379.467,-84 374.633,-84 369.8,-88.8333 369.8,-93.6667 369.8,-93.6667 369.8,-103.333 369.8,-103.333 369.8,-108.167 374.633,-113 379.467,-113"/>
<text text-anchor="middle" x="384.3" y="-94.8" font-family="Times,serif" font-size="14.00">2</text>
</a>
</g>
</g>
<!-- nd28 -->
<g id="node6" class="node"><title>nd28</title>
<g id="a_node6"><a xlink:title="nd28&#45;ConstGraph">
<path fill="none" stroke="purple" d="M425.467,-92C425.467,-92 435.133,-92 435.133,-92 439.967,-92 444.8,-87.1667 444.8,-82.3333 444.8,-82.3333 444.8,-72.6667 444.8,-72.6667 444.8,-67.8333 439.967,-63 435.133,-63 435.133,-63 425.467,-63 425.467,-63 420.633,-63 415.8,-67.8333 415.8,-72.6667 415.8,-72.6667 415.8,-82.3333 415.8,-82.3333 415.8,-87.1667 420.633,-92 425.467,-92"/>
<text text-anchor="middle" x="430.3" y="-73.8" font-family="Times,serif" font-size="14.00">3</text>
</a>
</g>
</g>
<!-- nd34 -->
<g id="node7" class="node"><title>nd34</title>
<g id="a_node7"><a xlink:title="nd34&#45;ConstGraph">
<path fill="none" stroke="purple" d="M471.467,-71C471.467,-71 481.133,-71 481.133,-71 485.967,-71 490.8,-66.1667 490.8,-61.3333 490.8,-61.3333 490.8,-51.6667 490.8,-51.6667 490.8,-46.8333 485.967,-42 481.133,-42 481.133,-42 471.467,-42 471.467,-42 466.633,-42 461.8,-46.8333 461.8,-51.6667 461.8,-51.6667 461.8,-61.3333 461.8,-61.3333 461.8,-66.1667 466.633,-71 471.467,-71"/>
<text text-anchor="middle" x="476.3" y="-52.8" font-family="Times,serif" font-size="14.00">4</text>
</a>
</g>
</g>
<!-- nd39 -->
<g id="node8" class="node"><title>nd39</title>
<g id="a_node8"><a xlink:title="nd39&#45;ConstEmptyGraph">
<path fill="none" stroke="purple" d="M471.467,-29C471.467,-29 481.133,-29 481.133,-29 485.967,-29 490.8,-24.1667 490.8,-19.3333 490.8,-19.3333 490.8,-9.66667 490.8,-9.66667 490.8,-4.83333 485.967,-1.77636e-15 481.133,-1.77636e-15 481.133,-1.77636e-15 471.467,-1.77636e-15 471.467,-1.77636e-15 466.633,-1.77636e-15 461.8,-4.83333 461.8,-9.66667 461.8,-9.66667 461.8,-19.3333 461.8,-19.3333 461.8,-24.1667 466.633,-29 471.467,-29"/>
<text text-anchor="middle" x="476.3" y="-10.8" font-family="Times,serif" font-size="14.00">[]</text>
</a>
</g>
</g>
<!-- nd50 -->
<g id="node9" class="node"><title>nd50</title>
<g id="a_node9"><a xlink:title="nd50&#45;ConstGraph">
<path fill="none" stroke="purple" d="M128.267,-84C128.267,-84 137.933,-84 137.933,-84 142.767,-84 147.6,-79.1667 147.6,-74.3333 147.6,-74.3333 147.6,-64.6667 147.6,-64.6667 147.6,-59.8333 142.767,-55 137.933,-55 137.933,-55 128.267,-55 128.267,-55 123.433,-55 118.6,-59.8333 118.6,-64.6667 118.6,-64.6667 118.6,-74.3333 118.6,-74.3333 118.6,-79.1667 123.433,-84 128.267,-84"/>
<text text-anchor="middle" x="133.1" y="-65.8" font-family="Times,serif" font-size="14.00">0</text>
</a>
</g>
</g>
<!-- nd182 -->
<g id="node10" class="node"><title>nd182</title>
<g id="a_node10"><a xlink:title="nd182&#45;ConstListGraph">
<path fill="none" stroke="purple" d="M425.467,-50C425.467,-50 435.133,-50 435.133,-50 439.967,-50 444.8,-45.1667 444.8,-40.3333 444.8,-40.3333 444.8,-30.6667 444.8,-30.6667 444.8,-25.8333 439.967,-21 435.133,-21 435.133,-21 425.467,-21 425.467,-21 420.633,-21 415.8,-25.8333 415.8,-30.6667 415.8,-30.6667 415.8,-40.3333 415.8,-40.3333 415.8,-45.1667 420.633,-50 425.467,-50"/>
<text text-anchor="middle" x="430.3" y="-31.8" font-family="Times,serif" font-size="14.00">::</text>
</a>
</g>
</g>
<!-- nd182&#45;&gt;nd34 -->
<g id="edge1" class="edge"><title>nd182:n&#45;&gt;nd34:w</title>
<path fill="none" stroke="purple" d="M430.3,-51.5C430.3,-55.0438 458.256,-56.5 461.8,-56.5"/>
</g>
<!-- nd182&#45;&gt;nd39 -->
<g id="edge2" class="edge"><title>nd182:s&#45;&gt;nd39:w</title>
<path fill="none" stroke="purple" d="M430.3,-19.5C430.3,-5.32473 447.625,-14.5 461.8,-14.5"/>
</g>
<!-- nd188 -->
<g id="node11" class="node"><title>nd188</title>
<g id="a_node11"><a xlink:title="nd188&#45;ConstListGraph">
<path fill="none" stroke="purple" d="M379.467,-71C379.467,-71 389.133,-71 389.133,-71 393.967,-71 398.8,-66.1667 398.8,-61.3333 398.8,-61.3333 398.8,-51.6667 398.8,-51.6667 398.8,-46.8333 393.967,-42 389.133,-42 389.133,-42 379.467,-42 379.467,-42 374.633,-42 369.8,-46.8333 369.8,-51.6667 369.8,-51.6667 369.8,-61.3333 369.8,-61.3333 369.8,-66.1667 374.633,-71 379.467,-71"/>
<text text-anchor="middle" x="384.3" y="-52.8" font-family="Times,serif" font-size="14.00">::</text>
</a>
</g>
</g>
<!-- nd188&#45;&gt;nd28 -->
<g id="edge3" class="edge"><title>nd188:n&#45;&gt;nd28:w</title>
<path fill="none" stroke="purple" d="M384.3,-72.5C384.3,-76.0438 412.256,-77.5 415.8,-77.5"/>
</g>
<!-- nd188&#45;&gt;nd182 -->
<g id="edge4" class="edge"><title>nd188:s&#45;&gt;nd182:w</title>
<path fill="none" stroke="purple" d="M384.3,-40.5C384.3,-26.3247 401.625,-35.5 415.8,-35.5"/>
</g>
<!-- nd194 -->
<g id="node12" class="node"><title>nd194</title>
<g id="a_node12"><a xlink:title="nd194&#45;ConstListGraph">
<path fill="none" stroke="purple" d="M333.467,-92C333.467,-92 343.133,-92 343.133,-92 347.967,-92 352.8,-87.1667 352.8,-82.3333 352.8,-82.3333 352.8,-72.6667 352.8,-72.6667 352.8,-67.8333 347.967,-63 343.133,-63 343.133,-63 333.467,-63 333.467,-63 328.633,-63 323.8,-67.8333 323.8,-72.6667 323.8,-72.6667 323.8,-82.3333 323.8,-82.3333 323.8,-87.1667 328.633,-92 333.467,-92"/>
<text text-anchor="middle" x="338.3" y="-73.8" font-family="Times,serif" font-size="14.00">::</text>
</a>
</g>
</g>
<!-- nd194&#45;&gt;nd22 -->
<g id="edge5" class="edge"><title>nd194:n&#45;&gt;nd22:w</title>
<path fill="none" stroke="purple" d="M338.3,-93.5C338.3,-107.675 355.625,-98.5 369.8,-98.5"/>
</g>
<!-- nd194&#45;&gt;nd188 -->
<g id="edge6" class="edge"><title>nd194:s&#45;&gt;nd188:w</title>
<path fill="none" stroke="purple" d="M338.3,-61.5C338.3,-47.3247 355.625,-56.5 369.8,-56.5"/>
</g>
<!-- nd200 -->
<g id="node13" class="node"><title>nd200</title>
<g id="a_node13"><a xlink:title="nd200&#45;ConstListGraph">
<path fill="none" stroke="purple" d="M220.867,-107C220.867,-107 230.533,-107 230.533,-107 235.367,-107 240.2,-102.167 240.2,-97.3333 240.2,-97.3333 240.2,-87.6667 240.2,-87.6667 240.2,-82.8333 235.367,-78 230.533,-78 230.533,-78 220.867,-78 220.867,-78 216.033,-78 211.2,-82.8333 211.2,-87.6667 211.2,-87.6667 211.2,-97.3333 211.2,-97.3333 211.2,-102.167 216.033,-107 220.867,-107"/>
<text text-anchor="middle" x="225.7" y="-88.8" font-family="Times,serif" font-size="14.00">::</text>
</a>
</g>
</g>
<!-- nd222 -->
<g id="node21" class="node"><title>nd222</title>
<g id="a_node21"><a xlink:title="nd222&#45;ContractGraph">
<ellipse fill="black" stroke="black" cx="259" cy="-107.5" rx="1.8" ry="1.8"/>
</a>
</g>
</g>
<!-- nd200&#45;&gt;nd222 -->
<g id="edge7" class="edge"><title>nd200:n&#45;&gt;nd222:w</title>
<path fill="none" stroke="black" d="M225.7,-108.5C225.7,-122.507 243.193,-107.5 257.2,-107.5"/>
</g>
<!-- nd223 -->
<g id="node22" class="node"><title>nd223</title>
<g id="a_node22"><a xlink:title="nd223&#45;ContractGraph">
<ellipse fill="black" stroke="black" cx="259" cy="-77.5" rx="1.8" ry="1.8"/>
</a>
</g>
</g>
<!-- nd200&#45;&gt;nd223 -->
<g id="edge8" class="edge"><title>nd200:s&#45;&gt;nd223:w</title>
<path fill="none" stroke="black" d="M225.7,-76.5C225.7,-62.4929 243.193,-77.5 257.2,-77.5"/>
</g>
<!-- nd85 -->
<g id="node15" class="node"><title>nd85</title>
<g id="a_node15"><a xlink:title="nd85&#45;AppGraph">
<path fill="none" stroke="#000000" d="M73.5473,-136.554C73.5473,-136.554 69.6719,-130.946 69.6719,-130.946 68.136,-128.723 68.136,-124.277 69.6719,-122.054 69.6719,-122.054 73.5473,-116.446 73.5473,-116.446 75.0833,-114.223 79.3212,-112.002 82.0231,-112.005 82.0231,-112.005 87.4269,-112.009 87.4269,-112.009 90.1288,-112.011 92.8307,-114.715 92.8307,-117.417 92.8307,-117.417 92.8307,-135.583 92.8307,-135.583 92.8307,-138.285 90.1288,-140.989 87.4269,-140.991 87.4269,-140.991 82.0231,-140.995 82.0231,-140.995 79.3212,-140.998 75.0833,-138.777 73.5473,-136.554"/>
<text text-anchor="middle" x="81.1" y="-122.8" font-family="Times,serif" font-size="14.00">@</text>
</a>
</g>
</g>
<!-- nd84&#45;&gt;nd85 -->
<g id="edge13" class="edge"><title>nd84:e&#45;&gt;nd85:w</title>
<path fill="none" stroke="black" d="M48.1,-103.5C61.2186,-103.5 53.4814,-126.5 66.6,-126.5"/>
</g>
<!-- nd105 -->
<g id="node18" class="node"><title>nd105</title>
<g id="a_node18"><a xlink:title="nd105&#45;BinOpGraph">
<ellipse fill="none" stroke="#000000" cx="81.1" cy="-54.5" rx="14.5" ry="14.5"/>
<text text-anchor="middle" x="81.1" y="-50.8" font-family="Times,serif" font-size="14.00">+</text>
</a>
</g>
</g>
<!-- nd84&#45;&gt;nd105 -->
<g id="edge14" class="edge"><title>nd84:s&#45;&gt;nd105:w</title>
<path fill="none" stroke="#b70000" d="M35.1,-87.5C35.1,-67.2241 46.3241,-54.5 66.6,-54.5"/>
</g>
<!-- nd85&#45;&gt;nd136 -->
<g id="edge10" class="edge"><title>nd85:e&#45;&gt;nd136:w</title>
<path fill="none" stroke="black" d="M94.1,-126.5C110.155,-126.5 105.045,-150.5 121.1,-150.5"/>
</g>
<!-- nd89 -->
<g id="node16" class="node"><title>nd89</title>
<g id="a_node16"><a xlink:title="nd89&#45;AppGraph">
<path fill="none" stroke="#000000" d="M125.547,-121.554C125.547,-121.554 121.672,-115.946 121.672,-115.946 120.136,-113.723 120.136,-109.277 121.672,-107.054 121.672,-107.054 125.547,-101.446 125.547,-101.446 127.083,-99.2229 131.321,-97.0023 134.023,-97.0045 134.023,-97.0045 139.427,-97.009 139.427,-97.009 142.129,-97.0113 144.831,-99.7155 144.831,-102.417 144.831,-102.417 144.831,-120.583 144.831,-120.583 144.831,-123.285 142.129,-125.989 139.427,-125.991 139.427,-125.991 134.023,-125.995 134.023,-125.995 131.321,-125.998 127.083,-123.777 125.547,-121.554"/>
<text text-anchor="middle" x="133.1" y="-107.8" font-family="Times,serif" font-size="14.00">@</text>
</a>
</g>
</g>
<!-- nd85&#45;&gt;nd89 -->
<g id="edge11" class="edge"><title>nd85:s&#45;&gt;nd89:w</title>
<path fill="none" stroke="black" d="M81.1,-110.5C81.1,-93.8274 101.927,-111.5 118.6,-111.5"/>
</g>
<!-- ndcluster_nd91 -->
<g id="node17" class="node"><title>ndcluster_nd91</title>
<g id="a_node17"><a xlink:title="nd91">
<ellipse fill="orange" stroke="orange" cx="176.4" cy="-112.5" rx="1.8" ry="1.8"/>
</a>
</g>
</g>
<!-- nd89&#45;&gt;ndcluster_nd91 -->
<g id="edge9" class="edge"><title>nd89:e&#45;&gt;ndcluster_nd91:w</title>
<path fill="none" stroke="black" d="M146.1,-111.5C158.241,-111.5 161.259,-112.5 173.4,-112.5"/>
</g>
<!-- nd123 -->
<g id="node19" class="node"><title>nd123</title>
<g id="a_node19"><a xlink:title="nd123&#45;ContractGraph">
<ellipse fill="black" stroke="black" cx="176.4" cy="-92.5" rx="1.8" ry="1.8"/>
</a>
</g>
</g>
<!-- nd89&#45;&gt;nd123 -->
<g id="edge15" class="edge"><title>nd89:s&#45;&gt;nd123:w</title>
<path fill="none" stroke="black" d="M133.1,-95.5C133.1,-86.5197 164.42,-92.5 173.4,-92.5"/>
</g>
<!-- nd105&#45;&gt;nd50 -->
<g id="edge17" class="edge"><title>nd105:n&#45;&gt;nd50:w</title>
<path fill="none" stroke="red" d="M81.1,-70.5C81.1,-83.9162 94.5862,-75.0932 108.542,-71.1349"/>
<polygon fill="red" stroke="red" points="109.291,-74.5591 118.6,-69.5 108.168,-67.6498 109.291,-74.5591"/>
<text text-anchor="middle" x="107.1" y="-77.3" font-family="Times,serif" font-size="14.00">y</text>
</g>
<!-- nd228 -->
<g id="node23" class="node"><title>nd228</title>
<g id="a_node23"><a xlink:title="nd228&#45;ConstGraph">
<path fill="none" stroke="purple" d="M128.267,-42C128.267,-42 137.933,-42 137.933,-42 142.767,-42 147.6,-37.1667 147.6,-32.3333 147.6,-32.3333 147.6,-22.6667 147.6,-22.6667 147.6,-17.8333 142.767,-13 137.933,-13 137.933,-13 128.267,-13 128.267,-13 123.433,-13 118.6,-17.8333 118.6,-22.6667 118.6,-22.6667 118.6,-32.3333 118.6,-32.3333 118.6,-37.1667 123.433,-42 128.267,-42"/>
<text text-anchor="middle" x="133.1" y="-23.8" font-family="Times,serif" font-size="14.00">1</text>
</a>
</g>
</g>
<!-- nd105&#45;&gt;nd228 -->
<g id="edge12" class="edge"><title>nd105:s&#45;&gt;nd228:w</title>
<path fill="none" stroke="black" d="M81.1,-38.5C81.1,-21.1311 101.231,-27.5 118.6,-27.5"/>
<text text-anchor="middle" x="107.1" y="-31.3" font-family="Times,serif" font-size="14.00">n</text>
</g>
<!-- nd123&#45;&gt;nd200 -->
<g id="edge18" class="edge"><title>nd123:e&#45;&gt;nd200:w</title>
<path fill="none" stroke="black" d="M179.4,-92.5C193.533,-92.5 197.067,-92.5 211.2,-92.5"/>
<text text-anchor="middle" x="199.7" y="-96.3" font-family="Times,serif" font-size="14.00">x</text>
</g>
<!-- nd210 -->
<g id="node20" class="node"><title>nd210</title>
<g id="a_node20"><a xlink:title="nd210&#45;ContractGraph">
<ellipse fill="black" stroke="black" cx="292.3" cy="-77.5" rx="1.8" ry="1.8"/>
</a>
</g>
</g>
<!-- nd210&#45;&gt;nd194 -->
<g id="edge22" class="edge"><title>nd210:e&#45;&gt;nd194:w</title>
<path fill="none" stroke="black" d="M295.3,-77.5C307.967,-77.5 311.133,-77.5 323.8,-77.5"/>
</g>
<!-- nd222&#45;&gt;nd16 -->
<g id="edge21" class="edge"><title>nd222:e&#45;&gt;nd16:w</title>
<path fill="none" stroke="black" d="M260.8,-107.5C268.356,-107.5 270.244,-107.5 277.8,-107.5"/>
</g>
<!-- nd223&#45;&gt;nd210 -->
<g id="edge23" class="edge"><title>nd223:e&#45;&gt;nd210:w</title>
<path fill="none" stroke="black" d="M260.8,-77.5C273.467,-77.5 276.633,-77.5 289.3,-77.5"/>
</g>
</g>
</svg>
