<?xml version="1.0" encoding="UTF-8" standalone="no"?>
<!DOCTYPE svg PUBLIC "-//W3C//DTD SVG 1.1//EN"
 "http://www.w3.org/Graphics/SVG/1.1/DTD/svg11.dtd">
<!-- Generated by graphviz version 2.38.0 (20140413.2041)
 -->
<!-- Title: G Pages: 1 -->
<svg width="409pt" height="209pt"
 viewBox="0.00 0.00 409.20 209.45" xmlns="http://www.w3.org/2000/svg" xmlns:xlink="http://www.w3.org/1999/xlink">
<g id="graph0" class="graph" transform="scale(1 1) rotate(0) translate(4 205.453)">
<title>G</title>
<polygon fill="white" stroke="none" points="-4,4 -4,-205.453 405.2,-205.453 405.2,4 -4,4"/>
<g id="clust1" class="cluster"><title>cluster_nd472</title>
<polygon fill="none" stroke="orange" points="304.3,-172.5 304.3,-192.5 323.9,-192.5 323.9,-172.5 304.3,-172.5"/>
</g>
<g id="clust2" class="cluster"><title>cluster_nd415</title>
<polygon fill="none" stroke="orange" points="302.3,-75.5 302.3,-118.5 325.9,-118.5 325.9,-75.5 302.3,-75.5"/>
<text text-anchor="middle" x="314.1" y="-103.3" font-family="Times,serif" font-size="14.00">tl</text>
</g>
<g id="clust3" class="cluster"><title>cluster_nd424</title>
<polygon fill="none" stroke="orange" points="299.3,-24.5 299.3,-67.5 328.9,-67.5 328.9,-24.5 299.3,-24.5"/>
<text text-anchor="middle" x="314.1" y="-52.3" font-family="Times,serif" font-size="14.00">hd</text>
</g>
<!-- nd1 -->
<g id="node1" class="node"><title>nd1</title>
<ellipse fill="black" stroke="black" cx="1.8" cy="-136.5" rx="1.8" ry="1.8"/>
</g>
<!-- nd401 -->
<g id="node6" class="node"><title>nd401</title>
<g id="a_node6"><a xlink:title="nd401&#45;IfGraph">
<ellipse fill="none" stroke="#000000" cx="35.1" cy="-136.5" rx="14.5" ry="14.5"/>
<text text-anchor="middle" x="35.1" y="-132.8" font-family="Times,serif" font-size="14.00">if</text>
</a>
</g>
</g>
<!-- nd1&#45;&gt;nd401 -->
<g id="edge16" class="edge"><title>nd1:e&#45;&gt;nd401:w</title>
<path fill="none" stroke="#b70000" d="M3.6,-136.5C11.1556,-136.5 13.0444,-136.5 20.6,-136.5"/>
</g>
<!-- nd39 -->
<g id="node2" class="node"><title>nd39</title>
<g id="a_node2"><a xlink:title="nd39&#45;ConstEmptyGraph">
<path fill="none" stroke="purple" d="M381.867,-29C381.867,-29 391.533,-29 391.533,-29 396.367,-29 401.2,-24.1667 401.2,-19.3333 401.2,-19.3333 401.2,-9.66667 401.2,-9.66667 401.2,-4.83333 396.367,-1.77636e-15 391.533,-1.77636e-15 391.533,-1.77636e-15 381.867,-1.77636e-15 381.867,-1.77636e-15 377.033,-1.77636e-15 372.2,-4.83333 372.2,-9.66667 372.2,-9.66667 372.2,-19.3333 372.2,-19.3333 372.2,-24.1667 377.033,-29 381.867,-29"/>
<text text-anchor="middle" x="386.7" y="-10.8" font-family="Times,serif" font-size="14.00">[]</text>
</a>
</g>
</g>
<!-- nd463 -->
<g id="node3" class="node"><title>nd463</title>
<g id="a_node3"><a xlink:title="nd463&#45;ConstGraph">
<path fill="none" stroke="purple" d="M309.267,-156C309.267,-156 318.933,-156 318.933,-156 323.767,-156 328.6,-151.167 328.6,-146.333 328.6,-146.333 328.6,-136.667 328.6,-136.667 328.6,-131.833 323.767,-127 318.933,-127 318.933,-127 309.267,-127 309.267,-127 304.433,-127 299.6,-131.833 299.6,-136.667 299.6,-136.667 299.6,-146.333 299.6,-146.333 299.6,-151.167 304.433,-156 309.267,-156"/>
<text text-anchor="middle" x="314.1" y="-137.8" font-family="Times,serif" font-size="14.00">10</text>
</a>
</g>
</g>
<!-- nd468 -->
<g id="node4" class="node"><title>nd468</title>
<g id="a_node4"><a xlink:title="nd468&#45;RecurGraph">
<ellipse fill="none" stroke="#000000" cx="262.1" cy="-166.5" rx="11" ry="11"/>
<text text-anchor="middle" x="262.1" y="-162.8" font-family="Times,serif" font-size="14.00">rec</text>
</a>
</g>
</g>
<!-- ndcluster_nd472 -->
<g id="node5" class="node"><title>ndcluster_nd472</title>
<g id="a_node5"><a xlink:title="nd472">
<ellipse fill="orange" stroke="orange" cx="314.1" cy="-182.5" rx="1.8" ry="1.8"/>
</a>
</g>
</g>
<!-- nd468&#45;&gt;ndcluster_nd472 -->
<g id="edge19" class="edge"><title>nd468:n&#45;&gt;ndcluster_nd472:e</title>
<path fill="none" stroke="grey" d="M262.1,-178.5C262.1,-227.299 325.013,-182.5 317.1,-182.5"/>
</g>
<!-- nd468&#45;&gt;ndcluster_nd472 -->
<g id="edge20" class="edge"><title>nd468:e&#45;&gt;ndcluster_nd472:w</title>
<path fill="none" stroke="black" d="M274.1,-166.5C292.016,-166.5 293.184,-182.5 311.1,-182.5"/>
</g>
<!-- nd409 -->
<g id="node7" class="node"><title>nd409</title>
<g id="a_node7"><a xlink:title="nd409&#45;AppGraph">
<path fill="none" stroke="#000000" d="M111.547,-111.554C111.547,-111.554 107.672,-105.946 107.672,-105.946 106.136,-103.723 106.136,-99.2771 107.672,-97.0543 107.672,-97.0543 111.547,-91.4457 111.547,-91.4457 113.083,-89.2229 117.321,-87.0023 120.023,-87.0045 120.023,-87.0045 125.427,-87.009 125.427,-87.009 128.129,-87.0113 130.831,-89.7155 130.831,-92.4174 130.831,-92.4174 130.831,-110.583 130.831,-110.583 130.831,-113.285 128.129,-115.989 125.427,-115.991 125.427,-115.991 120.023,-115.995 120.023,-115.995 117.321,-115.998 113.083,-113.777 111.547,-111.554"/>
<text text-anchor="middle" x="119.1" y="-97.8" font-family="Times,serif" font-size="14.00">@</text>
</a>
</g>
</g>
<!-- nd401&#45;&gt;nd409 -->
<g id="edge12" class="edge"><title>nd401:s&#45;&gt;nd409:w</title>
<path fill="none" stroke="grey" d="M35.1,-120.5C35.1,-108.423 78.9954,-101.5 104.6,-101.5"/>
<text text-anchor="middle" x="77.1" y="-111.3" font-family="Times,serif" font-size="14.00">is false</text>
</g>
<!-- nd429 -->
<g id="node15" class="node"><title>nd429</title>
<g id="a_node15"><a xlink:title="nd429&#45;ContractGraph">
<ellipse fill="black" stroke="black" cx="262.1" cy="-136.5" rx="1.8" ry="1.8"/>
</a>
</g>
</g>
<!-- nd401&#45;&gt;nd429 -->
<g id="edge14" class="edge"><title>nd401:e&#45;&gt;nd429:w</title>
<path fill="none" stroke="grey" d="M49.6,-136.5C142.711,-136.5 165.989,-136.5 259.1,-136.5"/>
<text text-anchor="middle" x="167.6" y="-141.3" font-family="Times,serif" font-size="14.00">is true</text>
</g>
<!-- nd407 -->
<g id="node18" class="node"><title>nd407</title>
<g id="a_node18"><a xlink:title="nd407&#45;UnOpGraph">
<ellipse fill="none" stroke="#000000" cx="119.1" cy="-171.5" rx="14.5" ry="14.5"/>
<text text-anchor="middle" x="119.1" y="-167.8" font-family="Times,serif" font-size="14.00">empty</text>
</a>
</g>
</g>
<!-- nd401&#45;&gt;nd407 -->
<g id="edge1" class="edge"><title>nd401:n&#45;&gt;nd407:w</title>
<path fill="none" stroke="#b70000" d="M35.1,-152.5C35.1,-184.522 72.5776,-171.5 104.6,-171.5"/>
</g>
<!-- nd410 -->
<g id="node8" class="node"><title>nd410</title>
<g id="a_node8"><a xlink:title="nd410&#45;AppGraph">
<path fill="none" stroke="#000000" d="M208.547,-111.554C208.547,-111.554 204.672,-105.946 204.672,-105.946 203.136,-103.723 203.136,-99.2771 204.672,-97.0543 204.672,-97.0543 208.547,-91.4457 208.547,-91.4457 210.083,-89.2229 214.321,-87.0023 217.023,-87.0045 217.023,-87.0045 222.427,-87.009 222.427,-87.009 225.129,-87.0113 227.831,-89.7155 227.831,-92.4174 227.831,-92.4174 227.831,-110.583 227.831,-110.583 227.831,-113.285 225.129,-115.989 222.427,-115.991 222.427,-115.991 217.023,-115.995 217.023,-115.995 214.321,-115.998 210.083,-113.777 208.547,-111.554"/>
<text text-anchor="middle" x="216.1" y="-97.8" font-family="Times,serif" font-size="14.00">@</text>
</a>
</g>
</g>
<!-- nd409&#45;&gt;nd410 -->
<g id="edge8" class="edge"><title>nd409:e&#45;&gt;nd410:w</title>
<path fill="none" stroke="black" d="M132.1,-101.5C162.989,-101.5 170.711,-101.5 201.6,-101.5"/>
</g>
<!-- nd420 -->
<g id="node11" class="node"><title>nd420</title>
<g id="a_node11"><a xlink:title="nd420&#45;BinOpGraph">
<ellipse fill="none" stroke="#000000" cx="216.1" cy="-52.5" rx="14.5" ry="14.5"/>
<text text-anchor="middle" x="216.1" y="-48.8" font-family="Times,serif" font-size="14.00">+</text>
</a>
</g>
</g>
<!-- nd409&#45;&gt;nd420 -->
<g id="edge9" class="edge"><title>nd409:s&#45;&gt;nd420:w</title>
<path fill="none" stroke="black" d="M119.1,-85.5C119.1,-46.0088 162.109,-52.5 201.6,-52.5"/>
</g>
<!-- nd410&#45;&gt;nd468 -->
<g id="edge4" class="edge"><title>nd410:e&#45;&gt;nd468:w</title>
<path fill="none" stroke="black" d="M229.1,-101.5C259.459,-101.5 219.741,-166.5 250.1,-166.5"/>
</g>
<!-- nd412 -->
<g id="node9" class="node"><title>nd412</title>
<g id="a_node9"><a xlink:title="nd412&#45;AppGraph">
<path fill="none" stroke="#000000" d="M254.547,-95.5543C254.547,-95.5543 250.672,-89.9457 250.672,-89.9457 249.136,-87.7229 249.136,-83.2771 250.672,-81.0543 250.672,-81.0543 254.547,-75.4457 254.547,-75.4457 256.083,-73.2229 260.321,-71.0023 263.023,-71.0045 263.023,-71.0045 268.427,-71.009 268.427,-71.009 271.129,-71.0113 273.831,-73.7155 273.831,-76.4174 273.831,-76.4174 273.831,-94.5826 273.831,-94.5826 273.831,-97.2845 271.129,-99.9887 268.427,-99.991 268.427,-99.991 263.023,-99.9955 263.023,-99.9955 260.321,-99.9977 256.083,-97.7771 254.547,-95.5543"/>
<text text-anchor="middle" x="262.1" y="-81.8" font-family="Times,serif" font-size="14.00">@</text>
</a>
</g>
</g>
<!-- nd410&#45;&gt;nd412 -->
<g id="edge5" class="edge"><title>nd410:s&#45;&gt;nd412:w</title>
<path fill="none" stroke="black" d="M216.1,-85.5C216.1,-71.5 233.6,-85.5 247.6,-85.5"/>
</g>
<!-- ndcluster_nd415 -->
<g id="node10" class="node"><title>ndcluster_nd415</title>
<g id="a_node10"><a xlink:title="nd415">
<ellipse fill="orange" stroke="orange" cx="314.1" cy="-85.5" rx="1.8" ry="1.8"/>
</a>
</g>
</g>
<!-- nd412&#45;&gt;ndcluster_nd415 -->
<g id="edge3" class="edge"><title>nd412:e&#45;&gt;ndcluster_nd415:w</title>
<path fill="none" stroke="black" d="M275.1,-85.5C291.1,-85.5 295.1,-85.5 311.1,-85.5"/>
</g>
<!-- nd428 -->
<g id="node14" class="node"><title>nd428</title>
<g id="a_node14"><a xlink:title="nd428&#45;ContractGraph">
<ellipse fill="black" stroke="black" cx="314.1" cy="-14.5" rx="1.8" ry="1.8"/>
</a>
</g>
</g>
<!-- nd412&#45;&gt;nd428 -->
<g id="edge11" class="edge"><title>nd412:s&#45;&gt;nd428:w</title>
<path fill="none" stroke="black" d="M262.1,-69.5C262.1,-60.5419 270.858,-62.3756 276.6,-55.5 291.866,-37.2211 287.285,-14.5 311.1,-14.5"/>
</g>
<!-- nd421 -->
<g id="node12" class="node"><title>nd421</title>
<g id="a_node12"><a xlink:title="nd421&#45;AppGraph">
<path fill="none" stroke="#000000" d="M254.547,-44.5543C254.547,-44.5543 250.672,-38.9457 250.672,-38.9457 249.136,-36.7229 249.136,-32.2771 250.672,-30.0543 250.672,-30.0543 254.547,-24.4457 254.547,-24.4457 256.083,-22.2229 260.321,-20.0023 263.023,-20.0045 263.023,-20.0045 268.427,-20.009 268.427,-20.009 271.129,-20.0113 273.831,-22.7155 273.831,-25.4174 273.831,-25.4174 273.831,-43.5826 273.831,-43.5826 273.831,-46.2845 271.129,-48.9887 268.427,-48.991 268.427,-48.991 263.023,-48.9955 263.023,-48.9955 260.321,-48.9977 256.083,-46.7771 254.547,-44.5543"/>
<text text-anchor="middle" x="262.1" y="-30.8" font-family="Times,serif" font-size="14.00">@</text>
</a>
</g>
</g>
<!-- nd420&#45;&gt;nd421 -->
<g id="edge7" class="edge"><title>nd420:s&#45;&gt;nd421:w</title>
<path fill="none" stroke="black" d="M216.1,-36.5C216.1,-22.4718 233.572,-34.5 247.6,-34.5"/>
</g>
<!-- nd420&#45;&gt;nd429 -->
<g id="edge13" class="edge"><title>nd420:n&#45;&gt;nd429:w</title>
<path fill="none" stroke="black" d="M216.1,-68.5C216.1,-76.8651 225.372,-73.9699 230.6,-80.5 232.782,-83.2251 255.609,-136.5 259.1,-136.5"/>
</g>
<!-- ndcluster_nd424 -->
<g id="node13" class="node"><title>ndcluster_nd424</title>
<g id="a_node13"><a xlink:title="nd424">
<ellipse fill="orange" stroke="orange" cx="314.1" cy="-34.5" rx="1.8" ry="1.8"/>
</a>
</g>
</g>
<!-- nd421&#45;&gt;ndcluster_nd424 -->
<g id="edge6" class="edge"><title>nd421:e&#45;&gt;ndcluster_nd424:w</title>
<path fill="none" stroke="black" d="M275.1,-34.5C291.1,-34.5 295.1,-34.5 311.1,-34.5"/>
</g>
<!-- nd421&#45;&gt;nd428 -->
<g id="edge10" class="edge"><title>nd421:s&#45;&gt;nd428:w</title>
<path fill="none" stroke="black" d="M262.1,-18.5C262.1,3.35022 289.25,-14.5 311.1,-14.5"/>
</g>
<!-- nd430 -->
<g id="node16" class="node"><title>nd430</title>
<g id="a_node16"><a xlink:title="nd430&#45;ContractGraph">
<ellipse fill="black" stroke="black" cx="347.4" cy="-14.5" rx="1.8" ry="1.8"/>
</a>
</g>
</g>
<!-- nd428&#45;&gt;nd430 -->
<g id="edge15" class="edge"><title>nd428:e&#45;&gt;nd430:w</title>
<path fill="none" stroke="black" d="M317.1,-14.5C329.767,-14.5 332.933,-14.5 345.6,-14.5"/>
</g>
<!-- nd429&#45;&gt;nd463 -->
<g id="edge17" class="edge"><title>nd429:e&#45;&gt;nd463:w</title>
<path fill="none" stroke="black" d="M265.1,-136.5C280.462,-136.5 283.938,-141.5 299.3,-141.5"/>
<text text-anchor="middle" x="288.1" y="-145.3" font-family="Times,serif" font-size="14.00">y</text>
</g>
<!-- nd430&#45;&gt;nd39 -->
<g id="edge18" class="edge"><title>nd430:e&#45;&gt;nd39:w</title>
<path fill="none" stroke="black" d="M349.2,-14.5C359.422,-14.5 361.978,-14.5 372.2,-14.5"/>
<text text-anchor="middle" x="360.7" y="-18.3" font-family="Times,serif" font-size="14.00">x</text>
</g>
<!-- nd514 -->
<g id="node17" class="node"><title>nd514</title>
<g id="a_node17"><a xlink:title="nd514&#45;ConstEmptyGraph">
<path fill="none" stroke="purple" d="M211.267,-186C211.267,-186 220.933,-186 220.933,-186 225.767,-186 230.6,-181.167 230.6,-176.333 230.6,-176.333 230.6,-166.667 230.6,-166.667 230.6,-161.833 225.767,-157 220.933,-157 220.933,-157 211.267,-157 211.267,-157 206.433,-157 201.6,-161.833 201.6,-166.667 201.6,-166.667 201.6,-176.333 201.6,-176.333 201.6,-181.167 206.433,-186 211.267,-186"/>
<text text-anchor="middle" x="216.1" y="-167.8" font-family="Times,serif" font-size="14.00">[]</text>
</a>
</g>
</g>
<!-- nd407&#45;&gt;nd514 -->
<g id="edge2" class="edge"><title>nd407:e&#45;&gt;nd514:w</title>
<path fill="none" stroke="red" d="M143.663,-171.5C165.984,-171.5 175.038,-171.5 201.6,-171.5"/>
<polygon fill="red" stroke="red" points="143.6,-168 133.6,-171.5 143.6,-175 143.6,-168"/>
<text text-anchor="middle" x="167.6" y="-175.3" font-family="Times,serif" font-size="14.00">op_arg, x</text>
</g>
</g>
</svg>
