<?xml version="1.0" encoding="UTF-8" standalone="no"?>
<!DOCTYPE svg PUBLIC "-//W3C//DTD SVG 1.1//EN"
 "http://www.w3.org/Graphics/SVG/1.1/DTD/svg11.dtd">
<!-- Generated by graphviz version 2.38.0 (20140413.2041)
 -->
<!-- Title: G Pages: 1 -->
<svg width="264pt" height="169pt"
 viewBox="0.00 0.00 263.60 168.99" xmlns="http://www.w3.org/2000/svg" xmlns:xlink="http://www.w3.org/1999/xlink">
<g id="graph0" class="graph" transform="scale(1 1) rotate(0) translate(4 164.99)">
<title>G</title>
<polygon fill="white" stroke="none" points="-4,4 -4,-164.99 259.6,-164.99 259.6,4 -4,4"/>
<g id="clust1" class="cluster"><title>cluster_nd140</title>
<polygon fill="none" stroke="orange" points="147.3,-122.5 147.3,-142.5 166.9,-142.5 166.9,-122.5 147.3,-122.5"/>
</g>
<!-- nd1 -->
<g id="node1" class="node"><title>nd1</title>
<ellipse fill="black" stroke="black" cx="1.8" cy="-95.5" rx="1.8" ry="1.8"/>
</g>
<!-- nd84 -->
<g id="node11" class="node"><title>nd84</title>
<g id="a_node11"><a xlink:title="nd84&#45;AppGraph">
<path fill="none" stroke="#000000" d="M23.5473,-105.554C23.5473,-105.554 19.6719,-99.9457 19.6719,-99.9457 18.136,-97.7229 18.136,-93.2771 19.6719,-91.0543 19.6719,-91.0543 23.5473,-85.4457 23.5473,-85.4457 25.0833,-83.2229 29.3212,-81.0023 32.0231,-81.0045 32.0231,-81.0045 37.4269,-81.009 37.4269,-81.009 40.1288,-81.0113 42.8307,-83.7155 42.8307,-86.4174 42.8307,-86.4174 42.8307,-104.583 42.8307,-104.583 42.8307,-107.285 40.1288,-109.989 37.4269,-109.991 37.4269,-109.991 32.0231,-109.995 32.0231,-109.995 29.3212,-109.998 25.0833,-107.777 23.5473,-105.554"/>
<text text-anchor="middle" x="31.1" y="-91.8" font-family="Times,serif" font-size="14.00">@</text>
</a>
</g>
</g>
<!-- nd1&#45;&gt;nd84 -->
<g id="edge10" class="edge"><title>nd1:e&#45;&gt;nd84:w</title>
<path fill="none" stroke="#b70000" d="M3.6,-95.5C9.37778,-95.5 10.8222,-95.5 16.6,-95.5"/>
</g>
<!-- nd136 -->
<g id="node2" class="node"><title>nd136</title>
<g id="a_node2"><a xlink:title="nd136&#45;RecurGraph">
<ellipse fill="none" stroke="#000000" cx="115.1" cy="-121.5" rx="11" ry="11"/>
<text text-anchor="middle" x="115.1" y="-117.8" font-family="Times,serif" font-size="14.00">rec</text>
</a>
</g>
</g>
<!-- ndcluster_nd140 -->
<g id="node3" class="node"><title>ndcluster_nd140</title>
<g id="a_node3"><a xlink:title="nd140">
<ellipse fill="orange" stroke="orange" cx="157.1" cy="-132.5" rx="1.8" ry="1.8"/>
</a>
</g>
</g>
<!-- nd136&#45;&gt;ndcluster_nd140 -->
<g id="edge11" class="edge"><title>nd136:n&#45;&gt;ndcluster_nd140:e</title>
<path fill="none" stroke="grey" d="M115.1,-133.5C115.1,-195.269 172.226,-132.5 160.1,-132.5"/>
</g>
<!-- nd136&#45;&gt;ndcluster_nd140 -->
<g id="edge12" class="edge"><title>nd136:e&#45;&gt;ndcluster_nd140:w</title>
<path fill="none" stroke="black" d="M127.1,-121.5C140.058,-121.5 141.142,-132.5 154.1,-132.5"/>
</g>
<!-- nd22 -->
<g id="node4" class="node"><title>nd22</title>
<g id="a_node4"><a xlink:title="nd22&#45;ConstGraph">
<path fill="none" stroke="purple" d="M152.267,-113C152.267,-113 161.933,-113 161.933,-113 166.767,-113 171.6,-108.167 171.6,-103.333 171.6,-103.333 171.6,-93.6667 171.6,-93.6667 171.6,-88.8333 166.767,-84 161.933,-84 161.933,-84 152.267,-84 152.267,-84 147.433,-84 142.6,-88.8333 142.6,-93.6667 142.6,-93.6667 142.6,-103.333 142.6,-103.333 142.6,-108.167 147.433,-113 152.267,-113"/>
<text text-anchor="middle" x="157.1" y="-94.8" font-family="Times,serif" font-size="14.00">2</text>
</a>
</g>
</g>
<!-- nd28 -->
<g id="node5" class="node"><title>nd28</title>
<g id="a_node5"><a xlink:title="nd28&#45;ConstGraph">
<path fill="none" stroke="purple" d="M194.267,-92C194.267,-92 203.933,-92 203.933,-92 208.767,-92 213.6,-87.1667 213.6,-82.3333 213.6,-82.3333 213.6,-72.6667 213.6,-72.6667 213.6,-67.8333 208.767,-63 203.933,-63 203.933,-63 194.267,-63 194.267,-63 189.433,-63 184.6,-67.8333 184.6,-72.6667 184.6,-72.6667 184.6,-82.3333 184.6,-82.3333 184.6,-87.1667 189.433,-92 194.267,-92"/>
<text text-anchor="middle" x="199.1" y="-73.8" font-family="Times,serif" font-size="14.00">3</text>
</a>
</g>
</g>
<!-- nd34 -->
<g id="node6" class="node"><title>nd34</title>
<g id="a_node6"><a xlink:title="nd34&#45;ConstGraph">
<path fill="none" stroke="purple" d="M236.267,-71C236.267,-71 245.933,-71 245.933,-71 250.767,-71 255.6,-66.1667 255.6,-61.3333 255.6,-61.3333 255.6,-51.6667 255.6,-51.6667 255.6,-46.8333 250.767,-42 245.933,-42 245.933,-42 236.267,-42 236.267,-42 231.433,-42 226.6,-46.8333 226.6,-51.6667 226.6,-51.6667 226.6,-61.3333 226.6,-61.3333 226.6,-66.1667 231.433,-71 236.267,-71"/>
<text text-anchor="middle" x="241.1" y="-52.8" font-family="Times,serif" font-size="14.00">4</text>
</a>
</g>
</g>
<!-- nd39 -->
<g id="node7" class="node"><title>nd39</title>
<g id="a_node7"><a xlink:title="nd39&#45;ConstEmptyGraph">
<path fill="none" stroke="purple" d="M236.267,-29C236.267,-29 245.933,-29 245.933,-29 250.767,-29 255.6,-24.1667 255.6,-19.3333 255.6,-19.3333 255.6,-9.66667 255.6,-9.66667 255.6,-4.83333 250.767,-1.77636e-15 245.933,-1.77636e-15 245.933,-1.77636e-15 236.267,-1.77636e-15 236.267,-1.77636e-15 231.433,-1.77636e-15 226.6,-4.83333 226.6,-9.66667 226.6,-9.66667 226.6,-19.3333 226.6,-19.3333 226.6,-24.1667 231.433,-29 236.267,-29"/>
<text text-anchor="middle" x="241.1" y="-10.8" font-family="Times,serif" font-size="14.00">[]</text>
</a>
</g>
</g>
<!-- nd182 -->
<g id="node8" class="node"><title>nd182</title>
<g id="a_node8"><a xlink:title="nd182&#45;ConstListGraph">
<path fill="none" stroke="purple" d="M194.267,-50C194.267,-50 203.933,-50 203.933,-50 208.767,-50 213.6,-45.1667 213.6,-40.3333 213.6,-40.3333 213.6,-30.6667 213.6,-30.6667 213.6,-25.8333 208.767,-21 203.933,-21 203.933,-21 194.267,-21 194.267,-21 189.433,-21 184.6,-25.8333 184.6,-30.6667 184.6,-30.6667 184.6,-40.3333 184.6,-40.3333 184.6,-45.1667 189.433,-50 194.267,-50"/>
<text text-anchor="middle" x="199.1" y="-31.8" font-family="Times,serif" font-size="14.00">::</text>
</a>
</g>
</g>
<!-- nd182&#45;&gt;nd34 -->
<g id="edge1" class="edge"><title>nd182:n&#45;&gt;nd34:w</title>
<path fill="none" stroke="purple" d="M199.1,-51.5C199.1,-54.6056 223.494,-56.5 226.6,-56.5"/>
</g>
<!-- nd182&#45;&gt;nd39 -->
<g id="edge2" class="edge"><title>nd182:s&#45;&gt;nd39:w</title>
<path fill="none" stroke="purple" d="M199.1,-19.5C199.1,-7.0774 214.177,-14.5 226.6,-14.5"/>
</g>
<!-- nd188 -->
<g id="node9" class="node"><title>nd188</title>
<g id="a_node9"><a xlink:title="nd188&#45;ConstListGraph">
<path fill="none" stroke="purple" d="M152.267,-71C152.267,-71 161.933,-71 161.933,-71 166.767,-71 171.6,-66.1667 171.6,-61.3333 171.6,-61.3333 171.6,-51.6667 171.6,-51.6667 171.6,-46.8333 166.767,-42 161.933,-42 161.933,-42 152.267,-42 152.267,-42 147.433,-42 142.6,-46.8333 142.6,-51.6667 142.6,-51.6667 142.6,-61.3333 142.6,-61.3333 142.6,-66.1667 147.433,-71 152.267,-71"/>
<text text-anchor="middle" x="157.1" y="-52.8" font-family="Times,serif" font-size="14.00">::</text>
</a>
</g>
</g>
<!-- nd188&#45;&gt;nd28 -->
<g id="edge3" class="edge"><title>nd188:n&#45;&gt;nd28:w</title>
<path fill="none" stroke="purple" d="M157.1,-72.5C157.1,-75.6056 181.494,-77.5 184.6,-77.5"/>
</g>
<!-- nd188&#45;&gt;nd182 -->
<g id="edge4" class="edge"><title>nd188:s&#45;&gt;nd182:w</title>
<path fill="none" stroke="purple" d="M157.1,-40.5C157.1,-28.0774 172.177,-35.5 184.6,-35.5"/>
</g>
<!-- nd194 -->
<g id="node10" class="node"><title>nd194</title>
<g id="a_node10"><a xlink:title="nd194&#45;ConstListGraph">
<path fill="none" stroke="purple" d="M110.267,-97C110.267,-97 119.933,-97 119.933,-97 124.767,-97 129.6,-92.1667 129.6,-87.3333 129.6,-87.3333 129.6,-77.6667 129.6,-77.6667 129.6,-72.8333 124.767,-68 119.933,-68 119.933,-68 110.267,-68 110.267,-68 105.433,-68 100.6,-72.8333 100.6,-77.6667 100.6,-77.6667 100.6,-87.3333 100.6,-87.3333 100.6,-92.1667 105.433,-97 110.267,-97"/>
<text text-anchor="middle" x="115.1" y="-78.8" font-family="Times,serif" font-size="14.00">::</text>
</a>
</g>
</g>
<!-- nd194&#45;&gt;nd22 -->
<g id="edge5" class="edge"><title>nd194:n&#45;&gt;nd22:w</title>
<path fill="none" stroke="purple" d="M115.1,-98.5C115.1,-110.722 130.378,-98.5 142.6,-98.5"/>
</g>
<!-- nd194&#45;&gt;nd188 -->
<g id="edge6" class="edge"><title>nd194:s&#45;&gt;nd188:w</title>
<path fill="none" stroke="purple" d="M115.1,-66.5C115.1,-53.4948 129.595,-56.5 142.6,-56.5"/>
</g>
<!-- nd85 -->
<g id="node12" class="node"><title>nd85</title>
<g id="a_node12"><a xlink:title="nd85&#45;AppGraph">
<path fill="none" stroke="#000000" d="M65.5473,-119.554C65.5473,-119.554 61.6719,-113.946 61.6719,-113.946 60.136,-111.723 60.136,-107.277 61.6719,-105.054 61.6719,-105.054 65.5473,-99.4457 65.5473,-99.4457 67.0833,-97.2229 71.3212,-95.0023 74.0231,-95.0045 74.0231,-95.0045 79.4269,-95.009 79.4269,-95.009 82.1288,-95.0113 84.8307,-97.7155 84.8307,-100.417 84.8307,-100.417 84.8307,-118.583 84.8307,-118.583 84.8307,-121.285 82.1288,-123.989 79.4269,-123.991 79.4269,-123.991 74.0231,-123.995 74.0231,-123.995 71.3212,-123.998 67.0833,-121.777 65.5473,-119.554"/>
<text text-anchor="middle" x="73.1" y="-105.8" font-family="Times,serif" font-size="14.00">@</text>
</a>
</g>
</g>
<!-- nd84&#45;&gt;nd85 -->
<g id="edge8" class="edge"><title>nd84:e&#45;&gt;nd85:w</title>
<path fill="none" stroke="#b70000" d="M44.1,-95.5C53.0581,-95.5 49.6419,-109.5 58.6,-109.5"/>
</g>
<!-- nd232 -->
<g id="node13" class="node"><title>nd232</title>
<g id="a_node13"><a xlink:title="nd232&#45;ConstGraph">
<path fill="none" stroke="purple" d="M68.2667,-82C68.2667,-82 77.9333,-82 77.9333,-82 82.7667,-82 87.6,-77.1667 87.6,-72.3333 87.6,-72.3333 87.6,-62.6667 87.6,-62.6667 87.6,-57.8333 82.7667,-53 77.9333,-53 77.9333,-53 68.2667,-53 68.2667,-53 63.4333,-53 58.6,-57.8333 58.6,-62.6667 58.6,-62.6667 58.6,-72.3333 58.6,-72.3333 58.6,-77.1667 63.4333,-82 68.2667,-82"/>
<text text-anchor="middle" x="73.1" y="-63.8" font-family="Times,serif" font-size="14.00">1</text>
</a>
</g>
</g>
<!-- nd84&#45;&gt;nd232 -->
<g id="edge9" class="edge"><title>nd84:s&#45;&gt;nd232:w</title>
<path fill="none" stroke="black" d="M31.1,-79.5C31.1,-66.1648 45.2648,-67.5 58.6,-67.5"/>
</g>
<!-- nd85&#45;&gt;nd136 -->
<g id="edge7" class="edge"><title>nd85:e&#45;&gt;nd136:w</title>
<path fill="none" stroke="black" d="M86.1,-109.5C95.3483,-109.5 93.8517,-121.5 103.1,-121.5"/>
</g>
<!-- nd85&#45;&gt;nd194 -->
<g id="edge13" class="edge"><title>nd85:s&#45;&gt;nd194:w</title>
<path fill="none" stroke="red" d="M73.1,-93.5C73.1,-86.6832 81.2751,-91.0426 87.6,-88.5 89.0761,-87.9066 90.2289,-87.2349 91.2272,-86.5612"/>
<polygon fill="red" stroke="red" points="92.8158,-89.6873 100.6,-82.5 90.0328,-83.2643 92.8158,-89.6873"/>
</g>
</g>
</svg>
