<?xml version="1.0" encoding="UTF-8" standalone="no"?>
<!DOCTYPE svg PUBLIC "-//W3C//DTD SVG 1.1//EN"
 "http://www.w3.org/Graphics/SVG/1.1/DTD/svg11.dtd">
<!-- Generated by graphviz version 2.38.0 (20140413.2041)
 -->
<!-- Title: G Pages: 1 -->
<svg width="381pt" height="245pt"
 viewBox="0.00 0.00 380.80 244.50" xmlns="http://www.w3.org/2000/svg" xmlns:xlink="http://www.w3.org/1999/xlink">
<g id="graph0" class="graph" transform="scale(1 1) rotate(0) translate(4 240.5)">
<title>G</title>
<polygon fill="white" stroke="none" points="-4,4 -4,-240.5 376.8,-240.5 376.8,4 -4,4"/>
<g id="clust1" class="cluster"><title>cluster_nd318</title>
<polygon fill="none" stroke="orange" points="163.3,-208.5 163.3,-228.5 182.9,-228.5 182.9,-208.5 163.3,-208.5"/>
</g>
<g id="clust2" class="cluster"><title>cluster_nd261</title>
<polygon fill="none" stroke="orange" points="161.3,-156.5 161.3,-199.5 184.9,-199.5 184.9,-156.5 161.3,-156.5"/>
<text text-anchor="middle" x="173.1" y="-184.3" font-family="Times,serif" font-size="14.00">tl</text>
</g>
<g id="clust3" class="cluster"><title>cluster_nd270</title>
<polygon fill="none" stroke="orange" points="210.3,-52.5 210.3,-95.5 239.9,-95.5 239.9,-52.5 210.3,-52.5"/>
<text text-anchor="middle" x="225.1" y="-80.3" font-family="Times,serif" font-size="14.00">hd</text>
</g>
<!-- nd1 -->
<g id="node1" class="node"><title>nd1</title>
<ellipse fill="black" stroke="black" cx="1.8" cy="-147.5" rx="1.8" ry="1.8"/>
</g>
<!-- nd255 -->
<g id="node10" class="node"><title>nd255</title>
<g id="a_node10"><a xlink:title="nd255&#45;AppGraph">
<path fill="none" stroke="#000000" d="M27.5473,-157.554C27.5473,-157.554 23.6719,-151.946 23.6719,-151.946 22.136,-149.723 22.136,-145.277 23.6719,-143.054 23.6719,-143.054 27.5473,-137.446 27.5473,-137.446 29.0833,-135.223 33.3212,-133.002 36.0231,-133.005 36.0231,-133.005 41.4269,-133.009 41.4269,-133.009 44.1288,-133.011 46.8307,-135.715 46.8307,-138.417 46.8307,-138.417 46.8307,-156.583 46.8307,-156.583 46.8307,-159.285 44.1288,-161.989 41.4269,-161.991 41.4269,-161.991 36.0231,-161.995 36.0231,-161.995 33.3212,-161.998 29.0833,-159.777 27.5473,-157.554"/>
<text text-anchor="middle" x="35.1" y="-143.8" font-family="Times,serif" font-size="14.00">@</text>
</a>
</g>
</g>
<!-- nd1&#45;&gt;nd255 -->
<g id="edge16" class="edge"><title>nd1:e&#45;&gt;nd255:w</title>
<path fill="none" stroke="#b70000" d="M3.6,-147.5C11.1556,-147.5 13.0444,-147.5 20.6,-147.5"/>
</g>
<!-- nd28 -->
<g id="node2" class="node"><title>nd28</title>
<g id="a_node2"><a xlink:title="nd28&#45;ConstGraph">
<path fill="none" stroke="purple" d="M307.467,-96C307.467,-96 317.133,-96 317.133,-96 321.967,-96 326.8,-91.1667 326.8,-86.3333 326.8,-86.3333 326.8,-76.6667 326.8,-76.6667 326.8,-71.8333 321.967,-67 317.133,-67 317.133,-67 307.467,-67 307.467,-67 302.633,-67 297.8,-71.8333 297.8,-76.6667 297.8,-76.6667 297.8,-86.3333 297.8,-86.3333 297.8,-91.1667 302.633,-96 307.467,-96"/>
<text text-anchor="middle" x="312.3" y="-77.8" font-family="Times,serif" font-size="14.00">3</text>
</a>
</g>
</g>
<!-- nd34 -->
<g id="node3" class="node"><title>nd34</title>
<g id="a_node3"><a xlink:title="nd34&#45;ConstGraph">
<path fill="none" stroke="purple" d="M353.467,-71C353.467,-71 363.133,-71 363.133,-71 367.967,-71 372.8,-66.1667 372.8,-61.3333 372.8,-61.3333 372.8,-51.6667 372.8,-51.6667 372.8,-46.8333 367.967,-42 363.133,-42 363.133,-42 353.467,-42 353.467,-42 348.633,-42 343.8,-46.8333 343.8,-51.6667 343.8,-51.6667 343.8,-61.3333 343.8,-61.3333 343.8,-66.1667 348.633,-71 353.467,-71"/>
<text text-anchor="middle" x="358.3" y="-52.8" font-family="Times,serif" font-size="14.00">4</text>
</a>
</g>
</g>
<!-- nd39 -->
<g id="node4" class="node"><title>nd39</title>
<g id="a_node4"><a xlink:title="nd39&#45;ConstEmptyGraph">
<path fill="none" stroke="purple" d="M353.467,-29C353.467,-29 363.133,-29 363.133,-29 367.967,-29 372.8,-24.1667 372.8,-19.3333 372.8,-19.3333 372.8,-9.66667 372.8,-9.66667 372.8,-4.83333 367.967,-1.77636e-15 363.133,-1.77636e-15 363.133,-1.77636e-15 353.467,-1.77636e-15 353.467,-1.77636e-15 348.633,-1.77636e-15 343.8,-4.83333 343.8,-9.66667 343.8,-9.66667 343.8,-19.3333 343.8,-19.3333 343.8,-24.1667 348.633,-29 353.467,-29"/>
<text text-anchor="middle" x="358.3" y="-10.8" font-family="Times,serif" font-size="14.00">[]</text>
</a>
</g>
</g>
<!-- nd182 -->
<g id="node5" class="node"><title>nd182</title>
<g id="a_node5"><a xlink:title="nd182&#45;ConstListGraph">
<path fill="none" stroke="purple" d="M307.467,-50C307.467,-50 317.133,-50 317.133,-50 321.967,-50 326.8,-45.1667 326.8,-40.3333 326.8,-40.3333 326.8,-30.6667 326.8,-30.6667 326.8,-25.8333 321.967,-21 317.133,-21 317.133,-21 307.467,-21 307.467,-21 302.633,-21 297.8,-25.8333 297.8,-30.6667 297.8,-30.6667 297.8,-40.3333 297.8,-40.3333 297.8,-45.1667 302.633,-50 307.467,-50"/>
<text text-anchor="middle" x="312.3" y="-31.8" font-family="Times,serif" font-size="14.00">::</text>
</a>
</g>
</g>
<!-- nd182&#45;&gt;nd34 -->
<g id="edge1" class="edge"><title>nd182:n&#45;&gt;nd34:w</title>
<path fill="none" stroke="purple" d="M312.3,-51.5C312.3,-65.6753 329.625,-56.5 343.8,-56.5"/>
</g>
<!-- nd182&#45;&gt;nd39 -->
<g id="edge2" class="edge"><title>nd182:s&#45;&gt;nd39:w</title>
<path fill="none" stroke="purple" d="M312.3,-19.5C312.3,-5.32473 329.625,-14.5 343.8,-14.5"/>
</g>
<!-- nd188 -->
<g id="node6" class="node"><title>nd188</title>
<g id="a_node6"><a xlink:title="nd188&#45;ConstListGraph">
<path fill="none" stroke="purple" d="M220.267,-175C220.267,-175 229.933,-175 229.933,-175 234.767,-175 239.6,-170.167 239.6,-165.333 239.6,-165.333 239.6,-155.667 239.6,-155.667 239.6,-150.833 234.767,-146 229.933,-146 229.933,-146 220.267,-146 220.267,-146 215.433,-146 210.6,-150.833 210.6,-155.667 210.6,-155.667 210.6,-165.333 210.6,-165.333 210.6,-170.167 215.433,-175 220.267,-175"/>
<text text-anchor="middle" x="225.1" y="-156.8" font-family="Times,serif" font-size="14.00">::</text>
</a>
</g>
</g>
<!-- nd376 -->
<g id="node22" class="node"><title>nd376</title>
<g id="a_node22"><a xlink:title="nd376&#45;ContractGraph">
<ellipse fill="black" stroke="black" cx="258.4" cy="-81.5" rx="1.8" ry="1.8"/>
</a>
</g>
</g>
<!-- nd188&#45;&gt;nd376 -->
<g id="edge3" class="edge"><title>nd188:n&#45;&gt;nd376:w</title>
<path fill="none" stroke="black" d="M225.1,-176.5C225.1,-182.96 234.648,-179.648 239.6,-175.5 252.242,-164.909 245.469,-155.692 248.6,-139.5 251.07,-126.726 243.589,-81.5 256.6,-81.5"/>
</g>
<!-- nd377 -->
<g id="node23" class="node"><title>nd377</title>
<g id="a_node23"><a xlink:title="nd377&#45;ContractGraph">
<ellipse fill="black" stroke="black" cx="258.4" cy="-35.5" rx="1.8" ry="1.8"/>
</a>
</g>
</g>
<!-- nd188&#45;&gt;nd377 -->
<g id="edge4" class="edge"><title>nd188:s&#45;&gt;nd377:w</title>
<path fill="none" stroke="black" d="M225.1,-144.5C225.1,-137.557 235.416,-144.801 239.9,-139.5 255.017,-121.629 233.193,-35.5 256.6,-35.5"/>
</g>
<!-- nd309 -->
<g id="node7" class="node"><title>nd309</title>
<g id="a_node7"><a xlink:title="nd309&#45;ConstGraph">
<path fill="none" stroke="purple" d="M220.267,-133C220.267,-133 229.933,-133 229.933,-133 234.767,-133 239.6,-128.167 239.6,-123.333 239.6,-123.333 239.6,-113.667 239.6,-113.667 239.6,-108.833 234.767,-104 229.933,-104 229.933,-104 220.267,-104 220.267,-104 215.433,-104 210.6,-108.833 210.6,-113.667 210.6,-113.667 210.6,-123.333 210.6,-123.333 210.6,-128.167 215.433,-133 220.267,-133"/>
<text text-anchor="middle" x="225.1" y="-114.8" font-family="Times,serif" font-size="14.00">3</text>
</a>
</g>
</g>
<!-- nd314 -->
<g id="node8" class="node"><title>nd314</title>
<g id="a_node8"><a xlink:title="nd314&#45;RecurGraph">
<ellipse fill="none" stroke="#000000" cx="127.1" cy="-200.5" rx="11" ry="11"/>
<text text-anchor="middle" x="127.1" y="-196.8" font-family="Times,serif" font-size="14.00">rec</text>
</a>
</g>
</g>
<!-- ndcluster_nd318 -->
<g id="node9" class="node"><title>ndcluster_nd318</title>
<g id="a_node9"><a xlink:title="nd318">
<ellipse fill="orange" stroke="orange" cx="173.1" cy="-218.5" rx="1.8" ry="1.8"/>
</a>
</g>
</g>
<!-- nd314&#45;&gt;ndcluster_nd318 -->
<g id="edge20" class="edge"><title>nd314:n&#45;&gt;ndcluster_nd318:e</title>
<path fill="none" stroke="grey" d="M127.1,-212.5C127.1,-254.455 183.047,-218.5 176.1,-218.5"/>
</g>
<!-- nd314&#45;&gt;ndcluster_nd318 -->
<g id="edge21" class="edge"><title>nd314:e&#45;&gt;ndcluster_nd318:w</title>
<path fill="none" stroke="black" d="M139.1,-200.5C155.032,-200.5 154.168,-218.5 170.1,-218.5"/>
</g>
<!-- nd256 -->
<g id="node11" class="node"><title>nd256</title>
<g id="a_node11"><a xlink:title="nd256&#45;AppGraph">
<path fill="none" stroke="#000000" d="M73.5473,-186.554C73.5473,-186.554 69.6719,-180.946 69.6719,-180.946 68.136,-178.723 68.136,-174.277 69.6719,-172.054 69.6719,-172.054 73.5473,-166.446 73.5473,-166.446 75.0833,-164.223 79.3212,-162.002 82.0231,-162.005 82.0231,-162.005 87.4269,-162.009 87.4269,-162.009 90.1288,-162.011 92.8307,-164.715 92.8307,-167.417 92.8307,-167.417 92.8307,-185.583 92.8307,-185.583 92.8307,-188.285 90.1288,-190.989 87.4269,-190.991 87.4269,-190.991 82.0231,-190.995 82.0231,-190.995 79.3212,-190.998 75.0833,-188.777 73.5473,-186.554"/>
<text text-anchor="middle" x="81.1" y="-172.8" font-family="Times,serif" font-size="14.00">@</text>
</a>
</g>
</g>
<!-- nd255&#45;&gt;nd256 -->
<g id="edge12" class="edge"><title>nd255:e&#45;&gt;nd256:w</title>
<path fill="none" stroke="black" d="M48.1,-147.5C63.3882,-147.5 51.3118,-176.5 66.6,-176.5"/>
</g>
<!-- nd266 -->
<g id="node14" class="node"><title>nd266</title>
<g id="a_node14"><a xlink:title="nd266&#45;BinOpGraph">
<ellipse fill="none" stroke="#000000" cx="127.1" cy="-103.5" rx="14.5" ry="14.5"/>
<text text-anchor="middle" x="127.1" y="-99.8" font-family="Times,serif" font-size="14.00">+</text>
</a>
</g>
</g>
<!-- nd255&#45;&gt;nd266 -->
<g id="edge13" class="edge"><title>nd255:s&#45;&gt;nd266:w</title>
<path fill="none" stroke="#b70000" d="M35.1,-131.5C35.1,-94.8765 75.9765,-103.5 112.6,-103.5"/>
</g>
<!-- nd256&#45;&gt;nd314 -->
<g id="edge8" class="edge"><title>nd256:e&#45;&gt;nd314:w</title>
<path fill="none" stroke="black" d="M94.1,-176.5C108.274,-176.5 100.926,-200.5 115.1,-200.5"/>
</g>
<!-- nd258 -->
<g id="node12" class="node"><title>nd258</title>
<g id="a_node12"><a xlink:title="nd258&#45;AppGraph">
<path fill="none" stroke="#000000" d="M119.547,-171.554C119.547,-171.554 115.672,-165.946 115.672,-165.946 114.136,-163.723 114.136,-159.277 115.672,-157.054 115.672,-157.054 119.547,-151.446 119.547,-151.446 121.083,-149.223 125.321,-147.002 128.023,-147.005 128.023,-147.005 133.427,-147.009 133.427,-147.009 136.129,-147.011 138.831,-149.715 138.831,-152.417 138.831,-152.417 138.831,-170.583 138.831,-170.583 138.831,-173.285 136.129,-175.989 133.427,-175.991 133.427,-175.991 128.023,-175.995 128.023,-175.995 125.321,-175.998 121.083,-173.777 119.547,-171.554"/>
<text text-anchor="middle" x="127.1" y="-157.8" font-family="Times,serif" font-size="14.00">@</text>
</a>
</g>
</g>
<!-- nd256&#45;&gt;nd258 -->
<g id="edge9" class="edge"><title>nd256:s&#45;&gt;nd258:w</title>
<path fill="none" stroke="black" d="M81.1,-160.5C81.1,-146.493 98.5929,-161.5 112.6,-161.5"/>
</g>
<!-- ndcluster_nd261 -->
<g id="node13" class="node"><title>ndcluster_nd261</title>
<g id="a_node13"><a xlink:title="nd261">
<ellipse fill="orange" stroke="orange" cx="173.1" cy="-166.5" rx="1.8" ry="1.8"/>
</a>
</g>
</g>
<!-- nd258&#45;&gt;ndcluster_nd261 -->
<g id="edge7" class="edge"><title>nd258:e&#45;&gt;ndcluster_nd261:w</title>
<path fill="none" stroke="black" d="M140.1,-161.5C153.617,-161.5 156.583,-166.5 170.1,-166.5"/>
</g>
<!-- nd274 -->
<g id="node17" class="node"><title>nd274</title>
<g id="a_node17"><a xlink:title="nd274&#45;ContractGraph">
<ellipse fill="black" stroke="black" cx="173.1" cy="-146.5" rx="1.8" ry="1.8"/>
</a>
</g>
</g>
<!-- nd258&#45;&gt;nd274 -->
<g id="edge15" class="edge"><title>nd258:s&#45;&gt;nd274:w</title>
<path fill="none" stroke="black" d="M127.1,-145.5C127.1,-126.384 150.984,-146.5 170.1,-146.5"/>
</g>
<!-- nd267 -->
<g id="node15" class="node"><title>nd267</title>
<g id="a_node15"><a xlink:title="nd267&#45;AppGraph">
<path fill="none" stroke="#000000" d="M165.547,-72.5543C165.547,-72.5543 161.672,-66.9457 161.672,-66.9457 160.136,-64.7229 160.136,-60.2771 161.672,-58.0543 161.672,-58.0543 165.547,-52.4457 165.547,-52.4457 167.083,-50.2229 171.321,-48.0023 174.023,-48.0045 174.023,-48.0045 179.427,-48.009 179.427,-48.009 182.129,-48.0113 184.831,-50.7155 184.831,-53.4174 184.831,-53.4174 184.831,-71.5826 184.831,-71.5826 184.831,-74.2845 182.129,-76.9887 179.427,-76.991 179.427,-76.991 174.023,-76.9955 174.023,-76.9955 171.321,-76.9977 167.083,-74.7771 165.547,-72.5543"/>
<text text-anchor="middle" x="173.1" y="-58.8" font-family="Times,serif" font-size="14.00">@</text>
</a>
</g>
</g>
<!-- nd266&#45;&gt;nd267 -->
<g id="edge11" class="edge"><title>nd266:s&#45;&gt;nd267:w</title>
<path fill="none" stroke="#b70000" d="M127.1,-87.5C127.1,-69.6266 140.727,-62.5 158.6,-62.5"/>
</g>
<!-- nd275 -->
<g id="node18" class="node"><title>nd275</title>
<g id="a_node18"><a xlink:title="nd275&#45;ContractGraph">
<ellipse fill="black" stroke="black" cx="173.1" cy="-118.5" rx="1.8" ry="1.8"/>
</a>
</g>
</g>
<!-- nd266&#45;&gt;nd275 -->
<g id="edge17" class="edge"><title>nd266:n&#45;&gt;nd275:w</title>
<path fill="none" stroke="black" d="M127.1,-119.5C127.1,-138.616 150.984,-118.5 170.1,-118.5"/>
</g>
<!-- ndcluster_nd270 -->
<g id="node16" class="node"><title>ndcluster_nd270</title>
<g id="a_node16"><a xlink:title="nd270">
<ellipse fill="orange" stroke="orange" cx="225.1" cy="-62.5" rx="1.8" ry="1.8"/>
</a>
</g>
</g>
<!-- nd267&#45;&gt;ndcluster_nd270 -->
<g id="edge10" class="edge"><title>nd267:e&#45;&gt;ndcluster_nd270:w</title>
<path fill="none" stroke="black" d="M186.1,-62.5C202.1,-62.5 206.1,-62.5 222.1,-62.5"/>
</g>
<!-- nd373 -->
<g id="node21" class="node"><title>nd373</title>
<g id="a_node21"><a xlink:title="nd373&#45;ConstListGraph">
<path fill="none" stroke="purple" d="M220.267,-44C220.267,-44 229.933,-44 229.933,-44 234.767,-44 239.6,-39.1667 239.6,-34.3333 239.6,-34.3333 239.6,-24.6667 239.6,-24.6667 239.6,-19.8333 234.767,-15 229.933,-15 229.933,-15 220.267,-15 220.267,-15 215.433,-15 210.6,-19.8333 210.6,-24.6667 210.6,-24.6667 210.6,-34.3333 210.6,-34.3333 210.6,-39.1667 215.433,-44 220.267,-44"/>
<text text-anchor="middle" x="225.1" y="-25.8" font-family="Times,serif" font-size="14.00">::</text>
</a>
</g>
</g>
<!-- nd267&#45;&gt;nd373 -->
<g id="edge14" class="edge"><title>nd267:s&#45;&gt;nd373:w</title>
<path fill="none" stroke="red" d="M175.979,-36.644C181.97,-28.8095 196.383,-29.5 210.3,-29.5"/>
<polygon fill="red" stroke="red" points="172.544,-35.9197 173.1,-46.5 179.264,-37.8825 172.544,-35.9197"/>
<text text-anchor="middle" x="199.1" y="-34.3" font-family="Times,serif" font-size="14.00">x</text>
</g>
<!-- nd274&#45;&gt;nd188 -->
<g id="edge19" class="edge"><title>nd274:e&#45;&gt;nd188:w</title>
<path fill="none" stroke="black" d="M176.1,-146.5C192.524,-146.5 193.876,-160.5 210.3,-160.5"/>
<text text-anchor="middle" x="199.1" y="-162.3" font-family="Times,serif" font-size="14.00">x</text>
</g>
<!-- nd275&#45;&gt;nd309 -->
<g id="edge18" class="edge"><title>nd275:e&#45;&gt;nd309:w</title>
<path fill="none" stroke="black" d="M176.1,-118.5C191.3,-118.5 195.1,-118.5 210.3,-118.5"/>
<text text-anchor="middle" x="199.1" y="-122.3" font-family="Times,serif" font-size="14.00">y</text>
</g>
<!-- nd363 -->
<g id="node19" class="node"><title>nd363</title>
<g id="a_node19"><a xlink:title="nd363&#45;ContractGraph">
<ellipse fill="black" stroke="black" cx="279" cy="-81.5" rx="1.8" ry="1.8"/>
</a>
</g>
</g>
<!-- nd363&#45;&gt;nd28 -->
<g id="edge5" class="edge"><title>nd363:e&#45;&gt;nd28:w</title>
<path fill="none" stroke="black" d="M280.8,-81.5C288.356,-81.5 290.244,-81.5 297.8,-81.5"/>
</g>
<!-- nd364 -->
<g id="node20" class="node"><title>nd364</title>
<g id="a_node20"><a xlink:title="nd364&#45;ContractGraph">
<ellipse fill="black" stroke="black" cx="279" cy="-35.5" rx="1.8" ry="1.8"/>
</a>
</g>
</g>
<!-- nd364&#45;&gt;nd182 -->
<g id="edge6" class="edge"><title>nd364:e&#45;&gt;nd182:w</title>
<path fill="none" stroke="black" d="M280.8,-35.5C288.356,-35.5 290.244,-35.5 297.8,-35.5"/>
</g>
<!-- nd373&#45;&gt;nd376 -->
<g id="edge24" class="edge"><title>nd373:n&#45;&gt;nd376:w</title>
<path fill="none" stroke="black" d="M225.1,-45.5C225.1,-52.3138 234.588,-45.2321 239.9,-49.5 252.406,-59.5485 240.558,-81.5 256.6,-81.5"/>
</g>
<!-- nd373&#45;&gt;nd377 -->
<g id="edge25" class="edge"><title>nd373:s&#45;&gt;nd377:w</title>
<path fill="none" stroke="black" d="M225.1,-13.5C225.1,-7.04025 233.869,-11.5195 239.6,-14.5 250.254,-20.0405 244.592,-35.5 256.6,-35.5"/>
</g>
<!-- nd376&#45;&gt;nd363 -->
<g id="edge22" class="edge"><title>nd376:e&#45;&gt;nd363:w</title>
<path fill="none" stroke="black" d="M260.2,-81.5C267.756,-81.5 269.644,-81.5 277.2,-81.5"/>
</g>
<!-- nd377&#45;&gt;nd364 -->
<g id="edge23" class="edge"><title>nd377:e&#45;&gt;nd364:w</title>
<path fill="none" stroke="black" d="M260.2,-35.5C267.756,-35.5 269.644,-35.5 277.2,-35.5"/>
</g>
</g>
</svg>
