<?xml version="1.0" encoding="UTF-8" standalone="no"?>
<!DOCTYPE svg PUBLIC "-//W3C//DTD SVG 1.1//EN"
 "http://www.w3.org/Graphics/SVG/1.1/DTD/svg11.dtd">
<!-- Generated by graphviz version 2.38.0 (20140413.2041)
 -->
<!-- Title: G Pages: 1 -->
<svg width="225pt" height="148pt"
 viewBox="0.00 0.00 224.90 147.50" xmlns="http://www.w3.org/2000/svg" xmlns:xlink="http://www.w3.org/1999/xlink">
<g id="graph0" class="graph" transform="scale(1 1) rotate(0) translate(4 143.5)">
<title>G</title>
<polygon fill="white" stroke="none" points="-4,4 -4,-143.5 220.9,-143.5 220.9,4 -4,4"/>
<g id="clust1" class="cluster"><title>cluster_nd241</title>
<polygon fill="none" stroke="orange" points="105.3,-95.5 105.3,-115.5 124.9,-115.5 124.9,-95.5 105.3,-95.5"/>
</g>
<g id="clust2" class="cluster"><title>cluster_nd318</title>
<polygon fill="none" stroke="orange" points="189.3,-111.5 189.3,-131.5 208.9,-131.5 208.9,-111.5 189.3,-111.5"/>
</g>
<!-- nd1 -->
<g id="node1" class="node"><title>nd1</title>
<ellipse fill="black" stroke="black" cx="1.8" cy="-77.5" rx="1.8" ry="1.8"/>
</g>
<!-- nd154 -->
<g id="node7" class="node"><title>nd154</title>
<g id="a_node7"><a xlink:title="nd154&#45;AppGraph">
<path fill="none" stroke="#000000" d="M23.5473,-87.5543C23.5473,-87.5543 19.6719,-81.9457 19.6719,-81.9457 18.136,-79.7229 18.136,-75.2771 19.6719,-73.0543 19.6719,-73.0543 23.5473,-67.4457 23.5473,-67.4457 25.0833,-65.2229 29.3212,-63.0023 32.0231,-63.0045 32.0231,-63.0045 37.4269,-63.009 37.4269,-63.009 40.1288,-63.0113 42.8307,-65.7155 42.8307,-68.4174 42.8307,-68.4174 42.8307,-86.5826 42.8307,-86.5826 42.8307,-89.2845 40.1288,-91.9887 37.4269,-91.991 37.4269,-91.991 32.0231,-91.9955 32.0231,-91.9955 29.3212,-91.9977 25.0833,-89.7771 23.5473,-87.5543"/>
<text text-anchor="middle" x="31.1" y="-73.8" font-family="Times,serif" font-size="14.00">@</text>
</a>
</g>
</g>
<!-- nd1&#45;&gt;nd154 -->
<g id="edge8" class="edge"><title>nd1:e&#45;&gt;nd154:w</title>
<path fill="none" stroke="#b70000" d="M3.6,-77.5C9.37778,-77.5 10.8222,-77.5 16.6,-77.5"/>
</g>
<!-- nd28 -->
<g id="node2" class="node"><title>nd28</title>
<g id="a_node2"><a xlink:title="nd28&#45;ConstGraph">
<path fill="none" stroke="purple" d="M152.267,-92C152.267,-92 161.933,-92 161.933,-92 166.767,-92 171.6,-87.1667 171.6,-82.3333 171.6,-82.3333 171.6,-72.6667 171.6,-72.6667 171.6,-67.8333 166.767,-63 161.933,-63 161.933,-63 152.267,-63 152.267,-63 147.433,-63 142.6,-67.8333 142.6,-72.6667 142.6,-72.6667 142.6,-82.3333 142.6,-82.3333 142.6,-87.1667 147.433,-92 152.267,-92"/>
<text text-anchor="middle" x="157.1" y="-73.8" font-family="Times,serif" font-size="14.00">3</text>
</a>
</g>
</g>
<!-- nd34 -->
<g id="node3" class="node"><title>nd34</title>
<g id="a_node3"><a xlink:title="nd34&#45;ConstGraph">
<path fill="none" stroke="purple" d="M194.267,-71C194.267,-71 203.933,-71 203.933,-71 208.767,-71 213.6,-66.1667 213.6,-61.3333 213.6,-61.3333 213.6,-51.6667 213.6,-51.6667 213.6,-46.8333 208.767,-42 203.933,-42 203.933,-42 194.267,-42 194.267,-42 189.433,-42 184.6,-46.8333 184.6,-51.6667 184.6,-51.6667 184.6,-61.3333 184.6,-61.3333 184.6,-66.1667 189.433,-71 194.267,-71"/>
<text text-anchor="middle" x="199.1" y="-52.8" font-family="Times,serif" font-size="14.00">4</text>
</a>
</g>
</g>
<!-- nd39 -->
<g id="node4" class="node"><title>nd39</title>
<g id="a_node4"><a xlink:title="nd39&#45;ConstEmptyGraph">
<path fill="none" stroke="purple" d="M194.267,-29C194.267,-29 203.933,-29 203.933,-29 208.767,-29 213.6,-24.1667 213.6,-19.3333 213.6,-19.3333 213.6,-9.66667 213.6,-9.66667 213.6,-4.83333 208.767,-1.77636e-15 203.933,-1.77636e-15 203.933,-1.77636e-15 194.267,-1.77636e-15 194.267,-1.77636e-15 189.433,-1.77636e-15 184.6,-4.83333 184.6,-9.66667 184.6,-9.66667 184.6,-19.3333 184.6,-19.3333 184.6,-24.1667 189.433,-29 194.267,-29"/>
<text text-anchor="middle" x="199.1" y="-10.8" font-family="Times,serif" font-size="14.00">[]</text>
</a>
</g>
</g>
<!-- nd182 -->
<g id="node5" class="node"><title>nd182</title>
<g id="a_node5"><a xlink:title="nd182&#45;ConstListGraph">
<path fill="none" stroke="purple" d="M152.267,-50C152.267,-50 161.933,-50 161.933,-50 166.767,-50 171.6,-45.1667 171.6,-40.3333 171.6,-40.3333 171.6,-30.6667 171.6,-30.6667 171.6,-25.8333 166.767,-21 161.933,-21 161.933,-21 152.267,-21 152.267,-21 147.433,-21 142.6,-25.8333 142.6,-30.6667 142.6,-30.6667 142.6,-40.3333 142.6,-40.3333 142.6,-45.1667 147.433,-50 152.267,-50"/>
<text text-anchor="middle" x="157.1" y="-31.8" font-family="Times,serif" font-size="14.00">::</text>
</a>
</g>
</g>
<!-- nd182&#45;&gt;nd34 -->
<g id="edge1" class="edge"><title>nd182:n&#45;&gt;nd34:w</title>
<path fill="none" stroke="purple" d="M157.1,-51.5C157.1,-54.6056 181.494,-56.5 184.6,-56.5"/>
</g>
<!-- nd182&#45;&gt;nd39 -->
<g id="edge2" class="edge"><title>nd182:s&#45;&gt;nd39:w</title>
<path fill="none" stroke="purple" d="M157.1,-19.5C157.1,-7.0774 172.177,-14.5 184.6,-14.5"/>
</g>
<!-- nd188 -->
<g id="node6" class="node"><title>nd188</title>
<g id="a_node6"><a xlink:title="nd188&#45;ConstListGraph">
<path fill="none" stroke="purple" d="M110.267,-77C110.267,-77 119.933,-77 119.933,-77 124.767,-77 129.6,-72.1667 129.6,-67.3333 129.6,-67.3333 129.6,-57.6667 129.6,-57.6667 129.6,-52.8333 124.767,-48 119.933,-48 119.933,-48 110.267,-48 110.267,-48 105.433,-48 100.6,-52.8333 100.6,-57.6667 100.6,-57.6667 100.6,-67.3333 100.6,-67.3333 100.6,-72.1667 105.433,-77 110.267,-77"/>
<text text-anchor="middle" x="115.1" y="-58.8" font-family="Times,serif" font-size="14.00">::</text>
</a>
</g>
</g>
<!-- nd188&#45;&gt;nd28 -->
<g id="edge3" class="edge"><title>nd188:n&#45;&gt;nd28:w</title>
<path fill="none" stroke="purple" d="M115.1,-78.5C115.1,-90.7303 130.37,-77.5 142.6,-77.5"/>
</g>
<!-- nd188&#45;&gt;nd182 -->
<g id="edge4" class="edge"><title>nd188:s&#45;&gt;nd182:w</title>
<path fill="none" stroke="purple" d="M115.1,-46.5C115.1,-33.3363 129.436,-35.5 142.6,-35.5"/>
</g>
<!-- nd155 -->
<g id="node8" class="node"><title>nd155</title>
<g id="a_node8"><a xlink:title="nd155&#45;AppGraph">
<path fill="none" stroke="#000000" d="M65.5473,-101.554C65.5473,-101.554 61.6719,-95.9457 61.6719,-95.9457 60.136,-93.7229 60.136,-89.2771 61.6719,-87.0543 61.6719,-87.0543 65.5473,-81.4457 65.5473,-81.4457 67.0833,-79.2229 71.3212,-77.0023 74.0231,-77.0045 74.0231,-77.0045 79.4269,-77.009 79.4269,-77.009 82.1288,-77.0113 84.8307,-79.7155 84.8307,-82.4174 84.8307,-82.4174 84.8307,-100.583 84.8307,-100.583 84.8307,-103.285 82.1288,-105.989 79.4269,-105.991 79.4269,-105.991 74.0231,-105.995 74.0231,-105.995 71.3212,-105.998 67.0833,-103.777 65.5473,-101.554"/>
<text text-anchor="middle" x="73.1" y="-87.8" font-family="Times,serif" font-size="14.00">@</text>
</a>
</g>
</g>
<!-- nd154&#45;&gt;nd155 -->
<g id="edge6" class="edge"><title>nd154:e&#45;&gt;nd155:w</title>
<path fill="none" stroke="#b70000" d="M44.1,-77.5C53.0581,-77.5 49.6419,-91.5 58.6,-91.5"/>
</g>
<!-- nd309 -->
<g id="node9" class="node"><title>nd309</title>
<g id="a_node9"><a xlink:title="nd309&#45;ConstGraph">
<path fill="none" stroke="purple" d="M68.2667,-64C68.2667,-64 77.9333,-64 77.9333,-64 82.7667,-64 87.6,-59.1667 87.6,-54.3333 87.6,-54.3333 87.6,-44.6667 87.6,-44.6667 87.6,-39.8333 82.7667,-35 77.9333,-35 77.9333,-35 68.2667,-35 68.2667,-35 63.4333,-35 58.6,-39.8333 58.6,-44.6667 58.6,-44.6667 58.6,-54.3333 58.6,-54.3333 58.6,-59.1667 63.4333,-64 68.2667,-64"/>
<text text-anchor="middle" x="73.1" y="-45.8" font-family="Times,serif" font-size="14.00">3</text>
</a>
</g>
</g>
<!-- nd154&#45;&gt;nd309 -->
<g id="edge7" class="edge"><title>nd154:s&#45;&gt;nd309:w</title>
<path fill="none" stroke="black" d="M31.1,-61.5C31.1,-48.1648 45.2648,-49.5 58.6,-49.5"/>
</g>
<!-- nd155&#45;&gt;nd188 -->
<g id="edge9" class="edge"><title>nd155:s&#45;&gt;nd188:w</title>
<path fill="none" stroke="black" d="M73.1,-75.5C73.1,-68.6832 81.4379,-73.415 87.6,-70.5 93.7326,-67.599 93.8158,-62.5 100.6,-62.5"/>
</g>
<!-- ndcluster_nd241 -->
<g id="node10" class="node"><title>ndcluster_nd241</title>
<g id="a_node10"><a xlink:title="nd241">
<ellipse fill="orange" stroke="orange" cx="115.1" cy="-105.5" rx="1.8" ry="1.8"/>
</a>
</g>
</g>
<!-- nd155&#45;&gt;ndcluster_nd241 -->
<g id="edge5" class="edge"><title>nd155:e&#45;&gt;ndcluster_nd241:w</title>
<path fill="none" stroke="red" d="M86.1,-91.5C94.9179,-91.5 97.699,-97.8198 102.555,-101.967"/>
<polygon fill="red" stroke="red" points="101.507,-105.311 112.1,-105.5 103.937,-98.7464 101.507,-105.311"/>
</g>
<!-- nd314 -->
<g id="node11" class="node"><title>nd314</title>
<g id="a_node11"><a xlink:title="nd314&#45;RecurGraph">
<ellipse fill="none" stroke="#000000" cx="157.1" cy="-116.5" rx="11" ry="11"/>
<text text-anchor="middle" x="157.1" y="-112.8" font-family="Times,serif" font-size="14.00">rec</text>
</a>
</g>
</g>
<!-- ndcluster_nd241&#45;&gt;nd314 -->
<g id="edge10" class="edge"><title>ndcluster_nd241:e&#45;&gt;nd314:w</title>
<path fill="none" stroke="black" d="M118.1,-105.5C131.058,-105.5 132.142,-116.5 145.1,-116.5"/>
</g>
<!-- ndcluster_nd318 -->
<g id="node12" class="node"><title>ndcluster_nd318</title>
<g id="a_node12"><a xlink:title="nd318">
<ellipse fill="orange" stroke="orange" cx="199.1" cy="-121.5" rx="1.8" ry="1.8"/>
</a>
</g>
</g>
<!-- nd314&#45;&gt;ndcluster_nd318 -->
<g id="edge11" class="edge"><title>nd314:n&#45;&gt;ndcluster_nd318:e</title>
<path fill="none" stroke="grey" d="M157.1,-128.5C157.1,-148.741 222.341,-121.5 202.1,-121.5"/>
</g>
<!-- nd314&#45;&gt;ndcluster_nd318 -->
<g id="edge12" class="edge"><title>nd314:e&#45;&gt;ndcluster_nd318:w</title>
<path fill="none" stroke="black" d="M169.1,-116.5C181.304,-116.5 183.896,-121.5 196.1,-121.5"/>
</g>
</g>
</svg>
