<?xml version="1.0" encoding="UTF-8" standalone="no"?>
<!DOCTYPE svg PUBLIC "-//W3C//DTD SVG 1.1//EN"
 "http://www.w3.org/Graphics/SVG/1.1/DTD/svg11.dtd">
<!-- Generated by graphviz version 2.38.0 (20140413.2041)
 -->
<!-- Title: G Pages: 1 -->
<svg width="248pt" height="118pt"
 viewBox="0.00 0.00 247.60 117.50" xmlns="http://www.w3.org/2000/svg" xmlns:xlink="http://www.w3.org/1999/xlink">
<g id="graph0" class="graph" transform="scale(1 1) rotate(0) translate(4 113.5)">
<title>G</title>
<polygon fill="white" stroke="none" points="-4,4 -4,-113.5 243.6,-113.5 243.6,4 -4,4"/>
<g id="clust1" class="cluster"><title>cluster_nd318</title>
<polygon fill="none" stroke="orange" points="169.3,-8 169.3,-28 188.9,-28 188.9,-8 169.3,-8"/>
</g>
<g id="clust2" class="cluster"><title>cluster_nd245</title>
<polygon fill="none" stroke="orange" points="71.3,-40 71.3,-60 90.9,-60 90.9,-40 71.3,-40"/>
</g>
<!-- nd1 -->
<g id="node1" class="node"><title>nd1</title>
<ellipse fill="black" stroke="black" cx="1.8" cy="-37" rx="1.8" ry="1.8"/>
</g>
<!-- nd154 -->
<g id="node7" class="node"><title>nd154</title>
<g id="a_node7"><a xlink:title="nd154&#45;AppGraph">
<path fill="none" stroke="#000000" d="M27.5473,-47.0543C27.5473,-47.0543 23.6719,-41.4457 23.6719,-41.4457 22.136,-39.2229 22.136,-34.7771 23.6719,-32.5543 23.6719,-32.5543 27.5473,-26.9457 27.5473,-26.9457 29.0833,-24.7229 33.3212,-22.5023 36.0231,-22.5045 36.0231,-22.5045 41.4269,-22.509 41.4269,-22.509 44.1288,-22.5113 46.8307,-25.2155 46.8307,-27.9174 46.8307,-27.9174 46.8307,-46.0826 46.8307,-46.0826 46.8307,-48.7845 44.1288,-51.4887 41.4269,-51.491 41.4269,-51.491 36.0231,-51.4955 36.0231,-51.4955 33.3212,-51.4977 29.0833,-49.2771 27.5473,-47.0543"/>
<text text-anchor="middle" x="35.1" y="-33.3" font-family="Times,serif" font-size="14.00">@</text>
</a>
</g>
</g>
<!-- nd1&#45;&gt;nd154 -->
<g id="edge7" class="edge"><title>nd1:e&#45;&gt;nd154:w</title>
<path fill="none" stroke="#b70000" d="M3.6,-37C11.1556,-37 13.0444,-37 20.6,-37"/>
</g>
<!-- nd28 -->
<g id="node2" class="node"><title>nd28</title>
<g id="a_node2"><a xlink:title="nd28&#45;ConstGraph">
<path fill="none" stroke="purple" d="M174.267,-109.5C174.267,-109.5 183.933,-109.5 183.933,-109.5 188.767,-109.5 193.6,-104.667 193.6,-99.8333 193.6,-99.8333 193.6,-90.1667 193.6,-90.1667 193.6,-85.3333 188.767,-80.5 183.933,-80.5 183.933,-80.5 174.267,-80.5 174.267,-80.5 169.433,-80.5 164.6,-85.3333 164.6,-90.1667 164.6,-90.1667 164.6,-99.8333 164.6,-99.8333 164.6,-104.667 169.433,-109.5 174.267,-109.5"/>
<text text-anchor="middle" x="179.1" y="-91.3" font-family="Times,serif" font-size="14.00">3</text>
</a>
</g>
</g>
<!-- nd34 -->
<g id="node3" class="node"><title>nd34</title>
<g id="a_node3"><a xlink:title="nd34&#45;ConstGraph">
<path fill="none" stroke="purple" d="M220.267,-88.5C220.267,-88.5 229.933,-88.5 229.933,-88.5 234.767,-88.5 239.6,-83.6667 239.6,-78.8333 239.6,-78.8333 239.6,-69.1667 239.6,-69.1667 239.6,-64.3333 234.767,-59.5 229.933,-59.5 229.933,-59.5 220.267,-59.5 220.267,-59.5 215.433,-59.5 210.6,-64.3333 210.6,-69.1667 210.6,-69.1667 210.6,-78.8333 210.6,-78.8333 210.6,-83.6667 215.433,-88.5 220.267,-88.5"/>
<text text-anchor="middle" x="225.1" y="-70.3" font-family="Times,serif" font-size="14.00">4</text>
</a>
</g>
</g>
<!-- nd39 -->
<g id="node4" class="node"><title>nd39</title>
<g id="a_node4"><a xlink:title="nd39&#45;ConstEmptyGraph">
<path fill="none" stroke="purple" d="M220.267,-46.5C220.267,-46.5 229.933,-46.5 229.933,-46.5 234.767,-46.5 239.6,-41.6667 239.6,-36.8333 239.6,-36.8333 239.6,-27.1667 239.6,-27.1667 239.6,-22.3333 234.767,-17.5 229.933,-17.5 229.933,-17.5 220.267,-17.5 220.267,-17.5 215.433,-17.5 210.6,-22.3333 210.6,-27.1667 210.6,-27.1667 210.6,-36.8333 210.6,-36.8333 210.6,-41.6667 215.433,-46.5 220.267,-46.5"/>
<text text-anchor="middle" x="225.1" y="-28.3" font-family="Times,serif" font-size="14.00">[]</text>
</a>
</g>
</g>
<!-- nd182 -->
<g id="node5" class="node"><title>nd182</title>
<g id="a_node5"><a xlink:title="nd182&#45;ConstListGraph">
<path fill="none" stroke="purple" d="M174.267,-67.5C174.267,-67.5 183.933,-67.5 183.933,-67.5 188.767,-67.5 193.6,-62.6667 193.6,-57.8333 193.6,-57.8333 193.6,-48.1667 193.6,-48.1667 193.6,-43.3333 188.767,-38.5 183.933,-38.5 183.933,-38.5 174.267,-38.5 174.267,-38.5 169.433,-38.5 164.6,-43.3333 164.6,-48.1667 164.6,-48.1667 164.6,-57.8333 164.6,-57.8333 164.6,-62.6667 169.433,-67.5 174.267,-67.5"/>
<text text-anchor="middle" x="179.1" y="-49.3" font-family="Times,serif" font-size="14.00">::</text>
</a>
</g>
</g>
<!-- nd182&#45;&gt;nd34 -->
<g id="edge1" class="edge"><title>nd182:n&#45;&gt;nd34:w</title>
<path fill="none" stroke="purple" d="M179.1,-69C179.1,-72.5438 207.056,-74 210.6,-74"/>
</g>
<!-- nd182&#45;&gt;nd39 -->
<g id="edge2" class="edge"><title>nd182:s&#45;&gt;nd39:w</title>
<path fill="none" stroke="purple" d="M179.1,-37C179.1,-29.9124 203.512,-32 210.6,-32"/>
</g>
<!-- nd188 -->
<g id="node6" class="node"><title>nd188</title>
<g id="a_node6"><a xlink:title="nd188&#45;ConstListGraph">
<path fill="none" stroke="purple" d="M128.267,-84.5C128.267,-84.5 137.933,-84.5 137.933,-84.5 142.767,-84.5 147.6,-79.6667 147.6,-74.8333 147.6,-74.8333 147.6,-65.1667 147.6,-65.1667 147.6,-60.3333 142.767,-55.5 137.933,-55.5 137.933,-55.5 128.267,-55.5 128.267,-55.5 123.433,-55.5 118.6,-60.3333 118.6,-65.1667 118.6,-65.1667 118.6,-74.8333 118.6,-74.8333 118.6,-79.6667 123.433,-84.5 128.267,-84.5"/>
<text text-anchor="middle" x="133.1" y="-66.3" font-family="Times,serif" font-size="14.00">::</text>
</a>
</g>
</g>
<!-- nd188&#45;&gt;nd28 -->
<g id="edge3" class="edge"><title>nd188:n&#45;&gt;nd28:w</title>
<path fill="none" stroke="purple" d="M133.1,-86C133.1,-100.56 150.04,-95 164.6,-95"/>
</g>
<!-- nd188&#45;&gt;nd182 -->
<g id="edge4" class="edge"><title>nd188:s&#45;&gt;nd182:w</title>
<path fill="none" stroke="purple" d="M133.1,-54C133.1,-39.9929 150.593,-53 164.6,-53"/>
</g>
<!-- nd309 -->
<g id="node8" class="node"><title>nd309</title>
<g id="a_node8"><a xlink:title="nd309&#45;ConstGraph">
<path fill="none" stroke="purple" d="M76.2667,-31.5C76.2667,-31.5 85.9333,-31.5 85.9333,-31.5 90.7667,-31.5 95.6,-26.6667 95.6,-21.8333 95.6,-21.8333 95.6,-12.1667 95.6,-12.1667 95.6,-7.33333 90.7667,-2.5 85.9333,-2.5 85.9333,-2.5 76.2667,-2.5 76.2667,-2.5 71.4333,-2.5 66.6,-7.33333 66.6,-12.1667 66.6,-12.1667 66.6,-21.8333 66.6,-21.8333 66.6,-26.6667 71.4333,-31.5 76.2667,-31.5"/>
<text text-anchor="middle" x="81.1" y="-13.3" font-family="Times,serif" font-size="14.00">3</text>
</a>
</g>
</g>
<!-- nd154&#45;&gt;nd309 -->
<g id="edge6" class="edge"><title>nd154:s&#45;&gt;nd309:w</title>
<path fill="none" stroke="black" d="M35.1,-21C35.1,-6.88758 52.4876,-17 66.6,-17"/>
</g>
<!-- ndcluster_nd245 -->
<g id="node11" class="node"><title>ndcluster_nd245</title>
<g id="a_node11"><a xlink:title="nd245">
<ellipse fill="orange" stroke="orange" cx="81.1" cy="-50" rx="1.8" ry="1.8"/>
</a>
</g>
</g>
<!-- nd154&#45;&gt;ndcluster_nd245 -->
<g id="edge5" class="edge"><title>nd154:e&#45;&gt;ndcluster_nd245:w</title>
<path fill="none" stroke="red" d="M48.1,-37C58.3174,-37 61.814,-43.427 68.041,-47.243"/>
<polygon fill="red" stroke="red" points="67.5305,-50.7321 78.1,-50 69.3809,-43.9811 67.5305,-50.7321"/>
</g>
<!-- nd314 -->
<g id="node9" class="node"><title>nd314</title>
<g id="a_node9"><a xlink:title="nd314&#45;RecurGraph">
<ellipse fill="none" stroke="#000000" cx="133.1" cy="-25" rx="11" ry="11"/>
<text text-anchor="middle" x="133.1" y="-21.3" font-family="Times,serif" font-size="14.00">rec</text>
</a>
</g>
</g>
<!-- ndcluster_nd318 -->
<g id="node10" class="node"><title>ndcluster_nd318</title>
<g id="a_node10"><a xlink:title="nd318">
<ellipse fill="orange" stroke="orange" cx="179.1" cy="-18" rx="1.8" ry="1.8"/>
</a>
</g>
</g>
<!-- nd314&#45;&gt;ndcluster_nd318 -->
<g id="edge10" class="edge"><title>nd314:n&#45;&gt;ndcluster_nd318:e</title>
<path fill="none" stroke="grey" d="M133.1,-37C133.1,-48.6788 193.779,-18 182.1,-18"/>
</g>
<!-- nd314&#45;&gt;ndcluster_nd318 -->
<g id="edge11" class="edge"><title>nd314:e&#45;&gt;ndcluster_nd318:w</title>
<path fill="none" stroke="black" d="M145.1,-25C159.225,-25 161.975,-18 176.1,-18"/>
</g>
<!-- ndcluster_nd245&#45;&gt;nd188 -->
<g id="edge9" class="edge"><title>ndcluster_nd245:e&#45;&gt;nd188:w</title>
<path fill="none" stroke="black" d="M84.1,-50C101.824,-50 100.876,-70 118.6,-70"/>
<text text-anchor="middle" x="107.1" y="-71.8" font-family="Times,serif" font-size="14.00">x</text>
</g>
<!-- ndcluster_nd245&#45;&gt;nd314 -->
<g id="edge8" class="edge"><title>ndcluster_nd245:e&#45;&gt;nd314:w</title>
<path fill="none" stroke="black" d="M84.1,-50C103.946,-50 101.254,-25 121.1,-25"/>
</g>
</g>
</svg>
