<?xml version="1.0" encoding="UTF-8" standalone="no"?>
<!DOCTYPE svg PUBLIC "-//W3C//DTD SVG 1.1//EN"
 "http://www.w3.org/Graphics/SVG/1.1/DTD/svg11.dtd">
<!-- Generated by graphviz version 2.38.0 (20140413.2041)
 -->
<!-- Title: G Pages: 1 -->
<svg width="458pt" height="226pt"
 viewBox="0.00 0.00 457.80 226.45" xmlns="http://www.w3.org/2000/svg" xmlns:xlink="http://www.w3.org/1999/xlink">
<g id="graph0" class="graph" transform="scale(1 1) rotate(0) translate(4 222.453)">
<title>G</title>
<polygon fill="white" stroke="none" points="-4,4 -4,-222.453 453.8,-222.453 453.8,4 -4,4"/>
<g id="clust1" class="cluster"><title>cluster_nd395</title>
<polygon fill="none" stroke="orange" points="286.3,-189.5 286.3,-209.5 305.9,-209.5 305.9,-189.5 286.3,-189.5"/>
</g>
<g id="clust2" class="cluster"><title>cluster_nd338</title>
<polygon fill="none" stroke="orange" points="284.3,-92.5 284.3,-135.5 307.9,-135.5 307.9,-92.5 284.3,-92.5"/>
<text text-anchor="middle" x="296.1" y="-120.3" font-family="Times,serif" font-size="14.00">tl</text>
</g>
<g id="clust3" class="cluster"><title>cluster_nd347</title>
<polygon fill="none" stroke="orange" points="281.3,-41.5 281.3,-84.5 310.9,-84.5 310.9,-41.5 281.3,-41.5"/>
<text text-anchor="middle" x="296.1" y="-69.3" font-family="Times,serif" font-size="14.00">hd</text>
</g>
<!-- nd1 -->
<g id="node1" class="node"><title>nd1</title>
<ellipse fill="black" stroke="black" cx="1.8" cy="-153.5" rx="1.8" ry="1.8"/>
</g>
<!-- nd324 -->
<g id="node8" class="node"><title>nd324</title>
<g id="a_node8"><a xlink:title="nd324&#45;IfGraph">
<ellipse fill="none" stroke="#000000" cx="35.1" cy="-153.5" rx="14.5" ry="14.5"/>
<text text-anchor="middle" x="35.1" y="-149.8" font-family="Times,serif" font-size="14.00">if</text>
</a>
</g>
</g>
<!-- nd1&#45;&gt;nd324 -->
<g id="edge19" class="edge"><title>nd1:e&#45;&gt;nd324:w</title>
<path fill="none" stroke="#b70000" d="M3.6,-153.5C11.1556,-153.5 13.0444,-153.5 20.6,-153.5"/>
</g>
<!-- nd34 -->
<g id="node2" class="node"><title>nd34</title>
<g id="a_node2"><a xlink:title="nd34&#45;ConstGraph">
<path fill="none" stroke="purple" d="M430.467,-71C430.467,-71 440.133,-71 440.133,-71 444.967,-71 449.8,-66.1667 449.8,-61.3333 449.8,-61.3333 449.8,-51.6667 449.8,-51.6667 449.8,-46.8333 444.967,-42 440.133,-42 440.133,-42 430.467,-42 430.467,-42 425.633,-42 420.8,-46.8333 420.8,-51.6667 420.8,-51.6667 420.8,-61.3333 420.8,-61.3333 420.8,-66.1667 425.633,-71 430.467,-71"/>
<text text-anchor="middle" x="435.3" y="-52.8" font-family="Times,serif" font-size="14.00">4</text>
</a>
</g>
</g>
<!-- nd39 -->
<g id="node3" class="node"><title>nd39</title>
<g id="a_node3"><a xlink:title="nd39&#45;ConstEmptyGraph">
<path fill="none" stroke="purple" d="M430.467,-29C430.467,-29 440.133,-29 440.133,-29 444.967,-29 449.8,-24.1667 449.8,-19.3333 449.8,-19.3333 449.8,-9.66667 449.8,-9.66667 449.8,-4.83333 444.967,-1.77636e-15 440.133,-1.77636e-15 440.133,-1.77636e-15 430.467,-1.77636e-15 430.467,-1.77636e-15 425.633,-1.77636e-15 420.8,-4.83333 420.8,-9.66667 420.8,-9.66667 420.8,-19.3333 420.8,-19.3333 420.8,-24.1667 425.633,-29 430.467,-29"/>
<text text-anchor="middle" x="435.3" y="-10.8" font-family="Times,serif" font-size="14.00">[]</text>
</a>
</g>
</g>
<!-- nd182 -->
<g id="node4" class="node"><title>nd182</title>
<g id="a_node4"><a xlink:title="nd182&#45;ConstListGraph">
<path fill="none" stroke="purple" d="M363.867,-46C363.867,-46 373.533,-46 373.533,-46 378.367,-46 383.2,-41.1667 383.2,-36.3333 383.2,-36.3333 383.2,-26.6667 383.2,-26.6667 383.2,-21.8333 378.367,-17 373.533,-17 373.533,-17 363.867,-17 363.867,-17 359.033,-17 354.2,-21.8333 354.2,-26.6667 354.2,-26.6667 354.2,-36.3333 354.2,-36.3333 354.2,-41.1667 359.033,-46 363.867,-46"/>
<text text-anchor="middle" x="368.7" y="-27.8" font-family="Times,serif" font-size="14.00">::</text>
</a>
</g>
</g>
<!-- nd440 -->
<g id="node19" class="node"><title>nd440</title>
<g id="a_node19"><a xlink:title="nd440&#45;ContractGraph">
<ellipse fill="black" stroke="black" cx="402" cy="-50.5" rx="1.8" ry="1.8"/>
</a>
</g>
</g>
<!-- nd182&#45;&gt;nd440 -->
<g id="edge1" class="edge"><title>nd182:n&#45;&gt;nd440:w</title>
<path fill="none" stroke="black" d="M368.7,-47.5C368.7,-61.5633 386.137,-50.5 400.2,-50.5"/>
</g>
<!-- nd441 -->
<g id="node20" class="node"><title>nd441</title>
<g id="a_node20"><a xlink:title="nd441&#45;ContractGraph">
<ellipse fill="black" stroke="black" cx="402" cy="-14.5" rx="1.8" ry="1.8"/>
</a>
</g>
</g>
<!-- nd182&#45;&gt;nd441 -->
<g id="edge2" class="edge"><title>nd182:s&#45;&gt;nd441:w</title>
<path fill="none" stroke="black" d="M368.7,-15.5C368.7,-1.49295 386.193,-14.5 400.2,-14.5"/>
</g>
<!-- nd386 -->
<g id="node5" class="node"><title>nd386</title>
<g id="a_node5"><a xlink:title="nd386&#45;ConstGraph">
<path fill="none" stroke="purple" d="M291.267,-173C291.267,-173 300.933,-173 300.933,-173 305.767,-173 310.6,-168.167 310.6,-163.333 310.6,-163.333 310.6,-153.667 310.6,-153.667 310.6,-148.833 305.767,-144 300.933,-144 300.933,-144 291.267,-144 291.267,-144 286.433,-144 281.6,-148.833 281.6,-153.667 281.6,-153.667 281.6,-163.333 281.6,-163.333 281.6,-168.167 286.433,-173 291.267,-173"/>
<text text-anchor="middle" x="296.1" y="-154.8" font-family="Times,serif" font-size="14.00">6</text>
</a>
</g>
</g>
<!-- nd391 -->
<g id="node6" class="node"><title>nd391</title>
<g id="a_node6"><a xlink:title="nd391&#45;RecurGraph">
<ellipse fill="none" stroke="#000000" cx="244.1" cy="-183.5" rx="11" ry="11"/>
<text text-anchor="middle" x="244.1" y="-179.8" font-family="Times,serif" font-size="14.00">rec</text>
</a>
</g>
</g>
<!-- ndcluster_nd395 -->
<g id="node7" class="node"><title>ndcluster_nd395</title>
<g id="a_node7"><a xlink:title="nd395">
<ellipse fill="orange" stroke="orange" cx="296.1" cy="-199.5" rx="1.8" ry="1.8"/>
</a>
</g>
</g>
<!-- nd391&#45;&gt;ndcluster_nd395 -->
<g id="edge22" class="edge"><title>nd391:n&#45;&gt;ndcluster_nd395:e</title>
<path fill="none" stroke="grey" d="M244.1,-195.5C244.1,-244.299 307.013,-199.5 299.1,-199.5"/>
</g>
<!-- nd391&#45;&gt;ndcluster_nd395 -->
<g id="edge23" class="edge"><title>nd391:e&#45;&gt;ndcluster_nd395:w</title>
<path fill="none" stroke="black" d="M256.1,-183.5C274.016,-183.5 275.184,-199.5 293.1,-199.5"/>
</g>
<!-- nd332 -->
<g id="node9" class="node"><title>nd332</title>
<g id="a_node9"><a xlink:title="nd332&#45;AppGraph">
<path fill="none" stroke="#000000" d="M111.547,-128.554C111.547,-128.554 107.672,-122.946 107.672,-122.946 106.136,-120.723 106.136,-116.277 107.672,-114.054 107.672,-114.054 111.547,-108.446 111.547,-108.446 113.083,-106.223 117.321,-104.002 120.023,-104.005 120.023,-104.005 125.427,-104.009 125.427,-104.009 128.129,-104.011 130.831,-106.715 130.831,-109.417 130.831,-109.417 130.831,-127.583 130.831,-127.583 130.831,-130.285 128.129,-132.989 125.427,-132.991 125.427,-132.991 120.023,-132.995 120.023,-132.995 117.321,-132.998 113.083,-130.777 111.547,-128.554"/>
<text text-anchor="middle" x="119.1" y="-114.8" font-family="Times,serif" font-size="14.00">@</text>
</a>
</g>
</g>
<!-- nd324&#45;&gt;nd332 -->
<g id="edge15" class="edge"><title>nd324:s&#45;&gt;nd332:w</title>
<path fill="none" stroke="grey" d="M35.1,-137.5C35.1,-125.423 78.9954,-118.5 104.6,-118.5"/>
<text text-anchor="middle" x="77.1" y="-127.3" font-family="Times,serif" font-size="14.00">is false</text>
</g>
<!-- nd352 -->
<g id="node17" class="node"><title>nd352</title>
<g id="a_node17"><a xlink:title="nd352&#45;ContractGraph">
<ellipse fill="black" stroke="black" cx="244.1" cy="-153.5" rx="1.8" ry="1.8"/>
</a>
</g>
</g>
<!-- nd324&#45;&gt;nd352 -->
<g id="edge17" class="edge"><title>nd324:e&#45;&gt;nd352:w</title>
<path fill="none" stroke="grey" d="M49.6,-153.5C134.711,-153.5 155.989,-153.5 241.1,-153.5"/>
<text text-anchor="middle" x="158.6" y="-157.3" font-family="Times,serif" font-size="14.00">is true</text>
</g>
<!-- nd445 -->
<g id="node21" class="node"><title>nd445</title>
<g id="a_node21"><a xlink:title="nd445&#45;ConstGraph">
<path fill="none" stroke="purple" d="M114.267,-203C114.267,-203 123.933,-203 123.933,-203 128.767,-203 133.6,-198.167 133.6,-193.333 133.6,-193.333 133.6,-183.667 133.6,-183.667 133.6,-178.833 128.767,-174 123.933,-174 123.933,-174 114.267,-174 114.267,-174 109.433,-174 104.6,-178.833 104.6,-183.667 104.6,-183.667 104.6,-193.333 104.6,-193.333 104.6,-198.167 109.433,-203 114.267,-203"/>
<text text-anchor="middle" x="119.1" y="-184.8" font-family="Times,serif" font-size="14.00">false</text>
</a>
</g>
</g>
<!-- nd324&#45;&gt;nd445 -->
<g id="edge5" class="edge"><title>nd324:n&#45;&gt;nd445:w</title>
<path fill="none" stroke="red" d="M36.7729,-179.51C44.3842,-198.47 76.5804,-188.5 104.6,-188.5"/>
<polygon fill="red" stroke="red" points="40.2005,-178.786 35.1,-169.5 33.2963,-179.94 40.2005,-178.786"/>
</g>
<!-- nd333 -->
<g id="node10" class="node"><title>nd333</title>
<g id="a_node10"><a xlink:title="nd333&#45;AppGraph">
<path fill="none" stroke="#000000" d="M190.547,-128.554C190.547,-128.554 186.672,-122.946 186.672,-122.946 185.136,-120.723 185.136,-116.277 186.672,-114.054 186.672,-114.054 190.547,-108.446 190.547,-108.446 192.083,-106.223 196.321,-104.002 199.023,-104.005 199.023,-104.005 204.427,-104.009 204.427,-104.009 207.129,-104.011 209.831,-106.715 209.831,-109.417 209.831,-109.417 209.831,-127.583 209.831,-127.583 209.831,-130.285 207.129,-132.989 204.427,-132.991 204.427,-132.991 199.023,-132.995 199.023,-132.995 196.321,-132.998 192.083,-130.777 190.547,-128.554"/>
<text text-anchor="middle" x="198.1" y="-114.8" font-family="Times,serif" font-size="14.00">@</text>
</a>
</g>
</g>
<!-- nd332&#45;&gt;nd333 -->
<g id="edge11" class="edge"><title>nd332:e&#45;&gt;nd333:w</title>
<path fill="none" stroke="black" d="M132.1,-118.5C154.989,-118.5 160.711,-118.5 183.6,-118.5"/>
</g>
<!-- nd343 -->
<g id="node13" class="node"><title>nd343</title>
<g id="a_node13"><a xlink:title="nd343&#45;BinOpGraph">
<ellipse fill="none" stroke="#000000" cx="198.1" cy="-69.5" rx="14.5" ry="14.5"/>
<text text-anchor="middle" x="198.1" y="-65.8" font-family="Times,serif" font-size="14.00">+</text>
</a>
</g>
</g>
<!-- nd332&#45;&gt;nd343 -->
<g id="edge12" class="edge"><title>nd332:s&#45;&gt;nd343:w</title>
<path fill="none" stroke="black" d="M119.1,-102.5C119.1,-70.2992 151.399,-69.5 183.6,-69.5"/>
</g>
<!-- nd333&#45;&gt;nd391 -->
<g id="edge7" class="edge"><title>nd333:e&#45;&gt;nd391:w</title>
<path fill="none" stroke="black" d="M211.1,-118.5C241.459,-118.5 201.741,-183.5 232.1,-183.5"/>
</g>
<!-- nd335 -->
<g id="node11" class="node"><title>nd335</title>
<g id="a_node11"><a xlink:title="nd335&#45;AppGraph">
<path fill="none" stroke="#000000" d="M236.547,-112.554C236.547,-112.554 232.672,-106.946 232.672,-106.946 231.136,-104.723 231.136,-100.277 232.672,-98.0543 232.672,-98.0543 236.547,-92.4457 236.547,-92.4457 238.083,-90.2229 242.321,-88.0023 245.023,-88.0045 245.023,-88.0045 250.427,-88.009 250.427,-88.009 253.129,-88.0113 255.831,-90.7155 255.831,-93.4174 255.831,-93.4174 255.831,-111.583 255.831,-111.583 255.831,-114.285 253.129,-116.989 250.427,-116.991 250.427,-116.991 245.023,-116.995 245.023,-116.995 242.321,-116.998 238.083,-114.777 236.547,-112.554"/>
<text text-anchor="middle" x="244.1" y="-98.8" font-family="Times,serif" font-size="14.00">@</text>
</a>
</g>
</g>
<!-- nd333&#45;&gt;nd335 -->
<g id="edge8" class="edge"><title>nd333:s&#45;&gt;nd335:w</title>
<path fill="none" stroke="black" d="M198.1,-102.5C198.1,-88.5 215.6,-102.5 229.6,-102.5"/>
</g>
<!-- ndcluster_nd338 -->
<g id="node12" class="node"><title>ndcluster_nd338</title>
<g id="a_node12"><a xlink:title="nd338">
<ellipse fill="orange" stroke="orange" cx="296.1" cy="-102.5" rx="1.8" ry="1.8"/>
</a>
</g>
</g>
<!-- nd335&#45;&gt;ndcluster_nd338 -->
<g id="edge6" class="edge"><title>nd335:e&#45;&gt;ndcluster_nd338:w</title>
<path fill="none" stroke="black" d="M257.1,-102.5C273.1,-102.5 277.1,-102.5 293.1,-102.5"/>
</g>
<!-- nd351 -->
<g id="node16" class="node"><title>nd351</title>
<g id="a_node16"><a xlink:title="nd351&#45;ContractGraph">
<ellipse fill="black" stroke="black" cx="296.1" cy="-31.5" rx="1.8" ry="1.8"/>
</a>
</g>
</g>
<!-- nd335&#45;&gt;nd351 -->
<g id="edge14" class="edge"><title>nd335:s&#45;&gt;nd351:w</title>
<path fill="none" stroke="black" d="M244.1,-86.5C244.1,-77.5419 252.858,-79.3756 258.6,-72.5 273.866,-54.2211 269.285,-31.5 293.1,-31.5"/>
</g>
<!-- nd344 -->
<g id="node14" class="node"><title>nd344</title>
<g id="a_node14"><a xlink:title="nd344&#45;AppGraph">
<path fill="none" stroke="#000000" d="M236.547,-61.5543C236.547,-61.5543 232.672,-55.9457 232.672,-55.9457 231.136,-53.7229 231.136,-49.2771 232.672,-47.0543 232.672,-47.0543 236.547,-41.4457 236.547,-41.4457 238.083,-39.2229 242.321,-37.0023 245.023,-37.0045 245.023,-37.0045 250.427,-37.009 250.427,-37.009 253.129,-37.0113 255.831,-39.7155 255.831,-42.4174 255.831,-42.4174 255.831,-60.5826 255.831,-60.5826 255.831,-63.2845 253.129,-65.9887 250.427,-65.991 250.427,-65.991 245.023,-65.9955 245.023,-65.9955 242.321,-65.9977 238.083,-63.7771 236.547,-61.5543"/>
<text text-anchor="middle" x="244.1" y="-47.8" font-family="Times,serif" font-size="14.00">@</text>
</a>
</g>
</g>
<!-- nd343&#45;&gt;nd344 -->
<g id="edge10" class="edge"><title>nd343:s&#45;&gt;nd344:w</title>
<path fill="none" stroke="black" d="M198.1,-53.5C198.1,-39.4718 215.572,-51.5 229.6,-51.5"/>
</g>
<!-- nd343&#45;&gt;nd352 -->
<g id="edge16" class="edge"><title>nd343:n&#45;&gt;nd352:w</title>
<path fill="none" stroke="black" d="M198.1,-85.5C198.1,-93.8651 207.372,-90.9699 212.6,-97.5 221.327,-108.4 227.137,-153.5 241.1,-153.5"/>
</g>
<!-- ndcluster_nd347 -->
<g id="node15" class="node"><title>ndcluster_nd347</title>
<g id="a_node15"><a xlink:title="nd347">
<ellipse fill="orange" stroke="orange" cx="296.1" cy="-51.5" rx="1.8" ry="1.8"/>
</a>
</g>
</g>
<!-- nd344&#45;&gt;ndcluster_nd347 -->
<g id="edge9" class="edge"><title>nd344:e&#45;&gt;ndcluster_nd347:w</title>
<path fill="none" stroke="black" d="M257.1,-51.5C273.1,-51.5 277.1,-51.5 293.1,-51.5"/>
</g>
<!-- nd344&#45;&gt;nd351 -->
<g id="edge13" class="edge"><title>nd344:s&#45;&gt;nd351:w</title>
<path fill="none" stroke="black" d="M244.1,-35.5C244.1,-13.6498 271.25,-31.5 293.1,-31.5"/>
</g>
<!-- nd353 -->
<g id="node18" class="node"><title>nd353</title>
<g id="a_node18"><a xlink:title="nd353&#45;ContractGraph">
<ellipse fill="black" stroke="black" cx="329.4" cy="-31.5" rx="1.8" ry="1.8"/>
</a>
</g>
</g>
<!-- nd351&#45;&gt;nd353 -->
<g id="edge18" class="edge"><title>nd351:e&#45;&gt;nd353:w</title>
<path fill="none" stroke="black" d="M299.1,-31.5C311.767,-31.5 314.933,-31.5 327.6,-31.5"/>
</g>
<!-- nd352&#45;&gt;nd386 -->
<g id="edge20" class="edge"><title>nd352:e&#45;&gt;nd386:w</title>
<path fill="none" stroke="black" d="M247.1,-153.5C262.462,-153.5 265.938,-158.5 281.3,-158.5"/>
<text text-anchor="middle" x="270.1" y="-161.3" font-family="Times,serif" font-size="14.00">y</text>
</g>
<!-- nd353&#45;&gt;nd182 -->
<g id="edge21" class="edge"><title>nd353:e&#45;&gt;nd182:w</title>
<path fill="none" stroke="black" d="M331.2,-31.5C341.422,-31.5 343.978,-31.5 354.2,-31.5"/>
<text text-anchor="middle" x="342.7" y="-35.3" font-family="Times,serif" font-size="14.00">x</text>
</g>
<!-- nd440&#45;&gt;nd34 -->
<g id="edge3" class="edge"><title>nd440:e&#45;&gt;nd34:w</title>
<path fill="none" stroke="black" d="M403.8,-50.5C411.812,-50.5 412.788,-56.5 420.8,-56.5"/>
</g>
<!-- nd441&#45;&gt;nd39 -->
<g id="edge4" class="edge"><title>nd441:e&#45;&gt;nd39:w</title>
<path fill="none" stroke="black" d="M403.8,-14.5C411.356,-14.5 413.244,-14.5 420.8,-14.5"/>
</g>
</g>
</svg>
