<?xml version="1.0" encoding="UTF-8" standalone="no"?>
<!DOCTYPE svg PUBLIC "-//W3C//DTD SVG 1.1//EN"
 "http://www.w3.org/Graphics/SVG/1.1/DTD/svg11.dtd">
<!-- Generated by graphviz version 2.38.0 (20140413.2041)
 -->
<!-- Title: G Pages: 1 -->
<svg width="340pt" height="181pt"
 viewBox="0.00 0.00 339.60 180.50" xmlns="http://www.w3.org/2000/svg" xmlns:xlink="http://www.w3.org/1999/xlink">
<g id="graph0" class="graph" transform="scale(1 1) rotate(0) translate(4 176.5)">
<title>G</title>
<polygon fill="white" stroke="none" points="-4,4 -4,-176.5 335.6,-176.5 335.6,4 -4,4"/>
<g id="clust1" class="cluster"><title>cluster_nd140</title>
<polygon fill="none" stroke="orange" points="169.3,-144.5 169.3,-164.5 188.9,-164.5 188.9,-144.5 169.3,-144.5"/>
</g>
<g id="clust2" class="cluster"><title>cluster_nd64</title>
<polygon fill="none" stroke="orange" points="71.3,-111.5 71.3,-131.5 90.9,-131.5 90.9,-111.5 71.3,-111.5"/>
</g>
<!-- nd1 -->
<g id="node1" class="node"><title>nd1</title>
<ellipse fill="black" stroke="black" cx="1.8" cy="-108.5" rx="1.8" ry="1.8"/>
</g>
<!-- nd7 -->
<g id="node4" class="node"><title>nd7</title>
<g id="a_node4"><a xlink:title="nd7&#45;AppGraph">
<path fill="none" stroke="#000000" d="M27.5473,-118.554C27.5473,-118.554 23.6719,-112.946 23.6719,-112.946 22.136,-110.723 22.136,-106.277 23.6719,-104.054 23.6719,-104.054 27.5473,-98.4457 27.5473,-98.4457 29.0833,-96.2229 33.3212,-94.0023 36.0231,-94.0045 36.0231,-94.0045 41.4269,-94.009 41.4269,-94.009 44.1288,-94.0113 46.8307,-96.7155 46.8307,-99.4174 46.8307,-99.4174 46.8307,-117.583 46.8307,-117.583 46.8307,-120.285 44.1288,-122.989 41.4269,-122.991 41.4269,-122.991 36.0231,-122.995 36.0231,-122.995 33.3212,-122.998 29.0833,-120.777 27.5473,-118.554"/>
<text text-anchor="middle" x="35.1" y="-104.8" font-family="Times,serif" font-size="14.00">@</text>
</a>
</g>
</g>
<!-- nd1&#45;&gt;nd7 -->
<g id="edge11" class="edge"><title>nd1:e&#45;&gt;nd7:w</title>
<path fill="none" stroke="#b70000" d="M3.6,-108.5C11.1556,-108.5 13.0444,-108.5 20.6,-108.5"/>
</g>
<!-- nd136 -->
<g id="node2" class="node"><title>nd136</title>
<g id="a_node2"><a xlink:title="nd136&#45;RecurGraph">
<ellipse fill="none" stroke="#000000" cx="133.1" cy="-142.5" rx="11" ry="11"/>
<text text-anchor="middle" x="133.1" y="-138.8" font-family="Times,serif" font-size="14.00">rec</text>
</a>
</g>
</g>
<!-- ndcluster_nd140 -->
<g id="node3" class="node"><title>ndcluster_nd140</title>
<g id="a_node3"><a xlink:title="nd140">
<ellipse fill="orange" stroke="orange" cx="179.1" cy="-154.5" rx="1.8" ry="1.8"/>
</a>
</g>
</g>
<!-- nd136&#45;&gt;ndcluster_nd140 -->
<g id="edge14" class="edge"><title>nd136:n&#45;&gt;ndcluster_nd140:e</title>
<path fill="none" stroke="grey" d="M133.1,-154.5C133.1,-191.392 188.88,-154.5 182.1,-154.5"/>
</g>
<!-- nd136&#45;&gt;ndcluster_nd140 -->
<g id="edge15" class="edge"><title>nd136:e&#45;&gt;ndcluster_nd140:w</title>
<path fill="none" stroke="black" d="M145.1,-142.5C159.874,-142.5 161.326,-154.5 176.1,-154.5"/>
</g>
<!-- nd50 -->
<g id="node10" class="node"><title>nd50</title>
<g id="a_node10"><a xlink:title="nd50&#45;ConstGraph">
<path fill="none" stroke="purple" d="M76.2667,-103C76.2667,-103 85.9333,-103 85.9333,-103 90.7667,-103 95.6,-98.1667 95.6,-93.3333 95.6,-93.3333 95.6,-83.6667 95.6,-83.6667 95.6,-78.8333 90.7667,-74 85.9333,-74 85.9333,-74 76.2667,-74 76.2667,-74 71.4333,-74 66.6,-78.8333 66.6,-83.6667 66.6,-83.6667 66.6,-93.3333 66.6,-93.3333 66.6,-98.1667 71.4333,-103 76.2667,-103"/>
<text text-anchor="middle" x="81.1" y="-84.8" font-family="Times,serif" font-size="14.00">0</text>
</a>
</g>
</g>
<!-- nd7&#45;&gt;nd50 -->
<g id="edge10" class="edge"><title>nd7:s&#45;&gt;nd50:w</title>
<path fill="none" stroke="black" d="M35.1,-92.5C35.1,-78.3876 52.4876,-88.5 66.6,-88.5"/>
</g>
<!-- ndcluster_nd64 -->
<g id="node15" class="node"><title>ndcluster_nd64</title>
<g id="a_node15"><a xlink:title="nd64">
<ellipse fill="orange" stroke="orange" cx="81.1" cy="-121.5" rx="1.8" ry="1.8"/>
</a>
</g>
</g>
<!-- nd7&#45;&gt;ndcluster_nd64 -->
<g id="edge9" class="edge"><title>nd7:e&#45;&gt;ndcluster_nd64:w</title>
<path fill="none" stroke="red" d="M48.1,-108.5C58.3174,-108.5 61.814,-114.927 68.041,-118.743"/>
<polygon fill="red" stroke="red" points="67.5305,-122.232 78.1,-121.5 69.3809,-115.481 67.5305,-122.232"/>
</g>
<!-- nd16 -->
<g id="node5" class="node"><title>nd16</title>
<g id="a_node5"><a xlink:title="nd16&#45;ConstGraph">
<path fill="none" stroke="purple" d="M174.267,-134C174.267,-134 183.933,-134 183.933,-134 188.767,-134 193.6,-129.167 193.6,-124.333 193.6,-124.333 193.6,-114.667 193.6,-114.667 193.6,-109.833 188.767,-105 183.933,-105 183.933,-105 174.267,-105 174.267,-105 169.433,-105 164.6,-109.833 164.6,-114.667 164.6,-114.667 164.6,-124.333 164.6,-124.333 164.6,-129.167 169.433,-134 174.267,-134"/>
<text text-anchor="middle" x="179.1" y="-115.8" font-family="Times,serif" font-size="14.00">1</text>
</a>
</g>
</g>
<!-- nd22 -->
<g id="node6" class="node"><title>nd22</title>
<g id="a_node6"><a xlink:title="nd22&#45;ConstGraph">
<path fill="none" stroke="purple" d="M220.267,-113C220.267,-113 229.933,-113 229.933,-113 234.767,-113 239.6,-108.167 239.6,-103.333 239.6,-103.333 239.6,-93.6667 239.6,-93.6667 239.6,-88.8333 234.767,-84 229.933,-84 229.933,-84 220.267,-84 220.267,-84 215.433,-84 210.6,-88.8333 210.6,-93.6667 210.6,-93.6667 210.6,-103.333 210.6,-103.333 210.6,-108.167 215.433,-113 220.267,-113"/>
<text text-anchor="middle" x="225.1" y="-94.8" font-family="Times,serif" font-size="14.00">2</text>
</a>
</g>
</g>
<!-- nd28 -->
<g id="node7" class="node"><title>nd28</title>
<g id="a_node7"><a xlink:title="nd28&#45;ConstGraph">
<path fill="none" stroke="purple" d="M266.267,-92C266.267,-92 275.933,-92 275.933,-92 280.767,-92 285.6,-87.1667 285.6,-82.3333 285.6,-82.3333 285.6,-72.6667 285.6,-72.6667 285.6,-67.8333 280.767,-63 275.933,-63 275.933,-63 266.267,-63 266.267,-63 261.433,-63 256.6,-67.8333 256.6,-72.6667 256.6,-72.6667 256.6,-82.3333 256.6,-82.3333 256.6,-87.1667 261.433,-92 266.267,-92"/>
<text text-anchor="middle" x="271.1" y="-73.8" font-family="Times,serif" font-size="14.00">3</text>
</a>
</g>
</g>
<!-- nd34 -->
<g id="node8" class="node"><title>nd34</title>
<g id="a_node8"><a xlink:title="nd34&#45;ConstGraph">
<path fill="none" stroke="purple" d="M312.267,-71C312.267,-71 321.933,-71 321.933,-71 326.767,-71 331.6,-66.1667 331.6,-61.3333 331.6,-61.3333 331.6,-51.6667 331.6,-51.6667 331.6,-46.8333 326.767,-42 321.933,-42 321.933,-42 312.267,-42 312.267,-42 307.433,-42 302.6,-46.8333 302.6,-51.6667 302.6,-51.6667 302.6,-61.3333 302.6,-61.3333 302.6,-66.1667 307.433,-71 312.267,-71"/>
<text text-anchor="middle" x="317.1" y="-52.8" font-family="Times,serif" font-size="14.00">4</text>
</a>
</g>
</g>
<!-- nd39 -->
<g id="node9" class="node"><title>nd39</title>
<g id="a_node9"><a xlink:title="nd39&#45;ConstEmptyGraph">
<path fill="none" stroke="purple" d="M312.267,-29C312.267,-29 321.933,-29 321.933,-29 326.767,-29 331.6,-24.1667 331.6,-19.3333 331.6,-19.3333 331.6,-9.66667 331.6,-9.66667 331.6,-4.83333 326.767,-1.77636e-15 321.933,-1.77636e-15 321.933,-1.77636e-15 312.267,-1.77636e-15 312.267,-1.77636e-15 307.433,-1.77636e-15 302.6,-4.83333 302.6,-9.66667 302.6,-9.66667 302.6,-19.3333 302.6,-19.3333 302.6,-24.1667 307.433,-29 312.267,-29"/>
<text text-anchor="middle" x="317.1" y="-10.8" font-family="Times,serif" font-size="14.00">[]</text>
</a>
</g>
</g>
<!-- nd182 -->
<g id="node11" class="node"><title>nd182</title>
<g id="a_node11"><a xlink:title="nd182&#45;ConstListGraph">
<path fill="none" stroke="purple" d="M266.267,-50C266.267,-50 275.933,-50 275.933,-50 280.767,-50 285.6,-45.1667 285.6,-40.3333 285.6,-40.3333 285.6,-30.6667 285.6,-30.6667 285.6,-25.8333 280.767,-21 275.933,-21 275.933,-21 266.267,-21 266.267,-21 261.433,-21 256.6,-25.8333 256.6,-30.6667 256.6,-30.6667 256.6,-40.3333 256.6,-40.3333 256.6,-45.1667 261.433,-50 266.267,-50"/>
<text text-anchor="middle" x="271.1" y="-31.8" font-family="Times,serif" font-size="14.00">::</text>
</a>
</g>
</g>
<!-- nd182&#45;&gt;nd34 -->
<g id="edge1" class="edge"><title>nd182:n&#45;&gt;nd34:w</title>
<path fill="none" stroke="purple" d="M271.1,-51.5C271.1,-55.0438 299.056,-56.5 302.6,-56.5"/>
</g>
<!-- nd182&#45;&gt;nd39 -->
<g id="edge2" class="edge"><title>nd182:s&#45;&gt;nd39:w</title>
<path fill="none" stroke="purple" d="M271.1,-19.5C271.1,-5.32473 288.425,-14.5 302.6,-14.5"/>
</g>
<!-- nd188 -->
<g id="node12" class="node"><title>nd188</title>
<g id="a_node12"><a xlink:title="nd188&#45;ConstListGraph">
<path fill="none" stroke="purple" d="M220.267,-71C220.267,-71 229.933,-71 229.933,-71 234.767,-71 239.6,-66.1667 239.6,-61.3333 239.6,-61.3333 239.6,-51.6667 239.6,-51.6667 239.6,-46.8333 234.767,-42 229.933,-42 229.933,-42 220.267,-42 220.267,-42 215.433,-42 210.6,-46.8333 210.6,-51.6667 210.6,-51.6667 210.6,-61.3333 210.6,-61.3333 210.6,-66.1667 215.433,-71 220.267,-71"/>
<text text-anchor="middle" x="225.1" y="-52.8" font-family="Times,serif" font-size="14.00">::</text>
</a>
</g>
</g>
<!-- nd188&#45;&gt;nd28 -->
<g id="edge3" class="edge"><title>nd188:n&#45;&gt;nd28:w</title>
<path fill="none" stroke="purple" d="M225.1,-72.5C225.1,-76.0438 253.056,-77.5 256.6,-77.5"/>
</g>
<!-- nd188&#45;&gt;nd182 -->
<g id="edge4" class="edge"><title>nd188:s&#45;&gt;nd182:w</title>
<path fill="none" stroke="purple" d="M225.1,-40.5C225.1,-26.3247 242.425,-35.5 256.6,-35.5"/>
</g>
<!-- nd194 -->
<g id="node13" class="node"><title>nd194</title>
<g id="a_node13"><a xlink:title="nd194&#45;ConstListGraph">
<path fill="none" stroke="purple" d="M174.267,-92C174.267,-92 183.933,-92 183.933,-92 188.767,-92 193.6,-87.1667 193.6,-82.3333 193.6,-82.3333 193.6,-72.6667 193.6,-72.6667 193.6,-67.8333 188.767,-63 183.933,-63 183.933,-63 174.267,-63 174.267,-63 169.433,-63 164.6,-67.8333 164.6,-72.6667 164.6,-72.6667 164.6,-82.3333 164.6,-82.3333 164.6,-87.1667 169.433,-92 174.267,-92"/>
<text text-anchor="middle" x="179.1" y="-73.8" font-family="Times,serif" font-size="14.00">::</text>
</a>
</g>
</g>
<!-- nd194&#45;&gt;nd22 -->
<g id="edge5" class="edge"><title>nd194:n&#45;&gt;nd22:w</title>
<path fill="none" stroke="purple" d="M179.1,-93.5C179.1,-97.0438 207.056,-98.5 210.6,-98.5"/>
</g>
<!-- nd194&#45;&gt;nd188 -->
<g id="edge6" class="edge"><title>nd194:s&#45;&gt;nd188:w</title>
<path fill="none" stroke="purple" d="M179.1,-61.5C179.1,-47.3247 196.425,-56.5 210.6,-56.5"/>
</g>
<!-- nd200 -->
<g id="node14" class="node"><title>nd200</title>
<g id="a_node14"><a xlink:title="nd200&#45;ConstListGraph">
<path fill="none" stroke="purple" d="M128.267,-118C128.267,-118 137.933,-118 137.933,-118 142.767,-118 147.6,-113.167 147.6,-108.333 147.6,-108.333 147.6,-98.6667 147.6,-98.6667 147.6,-93.8333 142.767,-89 137.933,-89 137.933,-89 128.267,-89 128.267,-89 123.433,-89 118.6,-93.8333 118.6,-98.6667 118.6,-98.6667 118.6,-108.333 118.6,-108.333 118.6,-113.167 123.433,-118 128.267,-118"/>
<text text-anchor="middle" x="133.1" y="-99.8" font-family="Times,serif" font-size="14.00">::</text>
</a>
</g>
</g>
<!-- nd200&#45;&gt;nd16 -->
<g id="edge7" class="edge"><title>nd200:n&#45;&gt;nd16:w</title>
<path fill="none" stroke="purple" d="M133.1,-119.5C133.1,-126.5 157.6,-119.5 164.6,-119.5"/>
</g>
<!-- nd200&#45;&gt;nd194 -->
<g id="edge8" class="edge"><title>nd200:s&#45;&gt;nd194:w</title>
<path fill="none" stroke="purple" d="M133.1,-87.5C133.1,-72.8115 149.911,-77.5 164.6,-77.5"/>
</g>
<!-- ndcluster_nd64&#45;&gt;nd136 -->
<g id="edge12" class="edge"><title>ndcluster_nd64:e&#45;&gt;nd136:w</title>
<path fill="none" stroke="black" d="M84.1,-121.5C103.008,-121.5 102.192,-142.5 121.1,-142.5"/>
</g>
<!-- ndcluster_nd64&#45;&gt;nd200 -->
<g id="edge13" class="edge"><title>ndcluster_nd64:e&#45;&gt;nd200:w</title>
<path fill="none" stroke="black" d="M84.1,-121.5C101.395,-121.5 101.305,-103.5 118.6,-103.5"/>
<text text-anchor="middle" x="107.1" y="-113.3" font-family="Times,serif" font-size="14.00">x</text>
</g>
</g>
</svg>
