<?xml version="1.0" encoding="UTF-8" standalone="no"?>
<!DOCTYPE svg PUBLIC "-//W3C//DTD SVG 1.1//EN"
 "http://www.w3.org/Graphics/SVG/1.1/DTD/svg11.dtd">
<!-- Generated by graphviz version 2.38.0 (20140413.2041)
 -->
<!-- Title: G Pages: 1 -->
<svg width="391pt" height="118pt"
 viewBox="0.00 0.00 391.20 117.50" xmlns="http://www.w3.org/2000/svg" xmlns:xlink="http://www.w3.org/1999/xlink">
<g id="graph0" class="graph" transform="scale(1 1) rotate(0) translate(4 113.5)">
<title>G</title>
<polygon fill="white" stroke="none" points="-4,4 -4,-113.5 387.2,-113.5 387.2,4 -4,4"/>
<g id="clust1" class="cluster"><title>cluster_nd318</title>
<polygon fill="none" stroke="orange" points="200.3,-81.5 200.3,-101.5 219.9,-101.5 219.9,-81.5 200.3,-81.5"/>
</g>
<!-- nd1 -->
<g id="node1" class="node"><title>nd1</title>
<ellipse fill="black" stroke="black" cx="1.8" cy="-60.5" rx="1.8" ry="1.8"/>
</g>
<!-- nd255 -->
<g id="node9" class="node"><title>nd255</title>
<g id="a_node9"><a xlink:title="nd255&#45;AppGraph">
<path fill="none" stroke="#000000" d="M27.5473,-70.5543C27.5473,-70.5543 23.6719,-64.9457 23.6719,-64.9457 22.136,-62.7229 22.136,-58.2771 23.6719,-56.0543 23.6719,-56.0543 27.5473,-50.4457 27.5473,-50.4457 29.0833,-48.2229 33.3212,-46.0023 36.0231,-46.0045 36.0231,-46.0045 41.4269,-46.009 41.4269,-46.009 44.1288,-46.0113 46.8307,-48.7155 46.8307,-51.4174 46.8307,-51.4174 46.8307,-69.5826 46.8307,-69.5826 46.8307,-72.2845 44.1288,-74.9887 41.4269,-74.991 41.4269,-74.991 36.0231,-74.9955 36.0231,-74.9955 33.3212,-74.9977 29.0833,-72.7771 27.5473,-70.5543"/>
<text text-anchor="middle" x="35.1" y="-56.8" font-family="Times,serif" font-size="14.00">@</text>
</a>
</g>
</g>
<!-- nd1&#45;&gt;nd255 -->
<g id="edge12" class="edge"><title>nd1:e&#45;&gt;nd255:w</title>
<path fill="none" stroke="#b70000" d="M3.6,-60.5C11.1556,-60.5 13.0444,-60.5 20.6,-60.5"/>
</g>
<!-- nd28 -->
<g id="node2" class="node"><title>nd28</title>
<g id="a_node2"><a xlink:title="nd28&#45;ConstGraph">
<path fill="none" stroke="purple" d="M271.867,-80C271.867,-80 281.533,-80 281.533,-80 286.367,-80 291.2,-75.1667 291.2,-70.3333 291.2,-70.3333 291.2,-60.6667 291.2,-60.6667 291.2,-55.8333 286.367,-51 281.533,-51 281.533,-51 271.867,-51 271.867,-51 267.033,-51 262.2,-55.8333 262.2,-60.6667 262.2,-60.6667 262.2,-70.3333 262.2,-70.3333 262.2,-75.1667 267.033,-80 271.867,-80"/>
<text text-anchor="middle" x="276.7" y="-61.8" font-family="Times,serif" font-size="14.00">3</text>
</a>
</g>
</g>
<!-- nd34 -->
<g id="node3" class="node"><title>nd34</title>
<g id="a_node3"><a xlink:title="nd34&#45;ConstGraph">
<path fill="none" stroke="purple" d="M363.867,-71C363.867,-71 373.533,-71 373.533,-71 378.367,-71 383.2,-66.1667 383.2,-61.3333 383.2,-61.3333 383.2,-51.6667 383.2,-51.6667 383.2,-46.8333 378.367,-42 373.533,-42 373.533,-42 363.867,-42 363.867,-42 359.033,-42 354.2,-46.8333 354.2,-51.6667 354.2,-51.6667 354.2,-61.3333 354.2,-61.3333 354.2,-66.1667 359.033,-71 363.867,-71"/>
<text text-anchor="middle" x="368.7" y="-52.8" font-family="Times,serif" font-size="14.00">4</text>
</a>
</g>
</g>
<!-- nd39 -->
<g id="node4" class="node"><title>nd39</title>
<g id="a_node4"><a xlink:title="nd39&#45;ConstEmptyGraph">
<path fill="none" stroke="purple" d="M363.867,-29C363.867,-29 373.533,-29 373.533,-29 378.367,-29 383.2,-24.1667 383.2,-19.3333 383.2,-19.3333 383.2,-9.66667 383.2,-9.66667 383.2,-4.83333 378.367,-1.77636e-15 373.533,-1.77636e-15 373.533,-1.77636e-15 363.867,-1.77636e-15 363.867,-1.77636e-15 359.033,-1.77636e-15 354.2,-4.83333 354.2,-9.66667 354.2,-9.66667 354.2,-19.3333 354.2,-19.3333 354.2,-24.1667 359.033,-29 363.867,-29"/>
<text text-anchor="middle" x="368.7" y="-10.8" font-family="Times,serif" font-size="14.00">[]</text>
</a>
</g>
</g>
<!-- nd182 -->
<g id="node5" class="node"><title>nd182</title>
<g id="a_node5"><a xlink:title="nd182&#45;ConstListGraph">
<path fill="none" stroke="purple" d="M317.867,-50C317.867,-50 327.533,-50 327.533,-50 332.367,-50 337.2,-45.1667 337.2,-40.3333 337.2,-40.3333 337.2,-30.6667 337.2,-30.6667 337.2,-25.8333 332.367,-21 327.533,-21 327.533,-21 317.867,-21 317.867,-21 313.033,-21 308.2,-25.8333 308.2,-30.6667 308.2,-30.6667 308.2,-40.3333 308.2,-40.3333 308.2,-45.1667 313.033,-50 317.867,-50"/>
<text text-anchor="middle" x="322.7" y="-31.8" font-family="Times,serif" font-size="14.00">::</text>
</a>
</g>
</g>
<!-- nd182&#45;&gt;nd34 -->
<g id="edge1" class="edge"><title>nd182:n&#45;&gt;nd34:w</title>
<path fill="none" stroke="purple" d="M322.7,-51.5C322.7,-65.6753 340.025,-56.5 354.2,-56.5"/>
</g>
<!-- nd182&#45;&gt;nd39 -->
<g id="edge2" class="edge"><title>nd182:s&#45;&gt;nd39:w</title>
<path fill="none" stroke="purple" d="M322.7,-19.5C322.7,-5.32473 340.025,-14.5 354.2,-14.5"/>
</g>
<!-- nd188 -->
<g id="node6" class="node"><title>nd188</title>
<g id="a_node6"><a xlink:title="nd188&#45;ConstListGraph">
<path fill="none" stroke="purple" d="M205.267,-65C205.267,-65 214.933,-65 214.933,-65 219.767,-65 224.6,-60.1667 224.6,-55.3333 224.6,-55.3333 224.6,-45.6667 224.6,-45.6667 224.6,-40.8333 219.767,-36 214.933,-36 214.933,-36 205.267,-36 205.267,-36 200.433,-36 195.6,-40.8333 195.6,-45.6667 195.6,-45.6667 195.6,-55.3333 195.6,-55.3333 195.6,-60.1667 200.433,-65 205.267,-65"/>
<text text-anchor="middle" x="210.1" y="-46.8" font-family="Times,serif" font-size="14.00">::</text>
</a>
</g>
</g>
<!-- nd376 -->
<g id="node12" class="node"><title>nd376</title>
<g id="a_node12"><a xlink:title="nd376&#45;ContractGraph">
<ellipse fill="black" stroke="black" cx="243.4" cy="-65.5" rx="1.8" ry="1.8"/>
</a>
</g>
</g>
<!-- nd188&#45;&gt;nd376 -->
<g id="edge3" class="edge"><title>nd188:n&#45;&gt;nd376:w</title>
<path fill="none" stroke="black" d="M210.1,-66.5C210.1,-80.5071 227.593,-65.5 241.6,-65.5"/>
</g>
<!-- nd377 -->
<g id="node13" class="node"><title>nd377</title>
<g id="a_node13"><a xlink:title="nd377&#45;ContractGraph">
<ellipse fill="black" stroke="black" cx="243.4" cy="-35.5" rx="1.8" ry="1.8"/>
</a>
</g>
</g>
<!-- nd188&#45;&gt;nd377 -->
<g id="edge4" class="edge"><title>nd188:s&#45;&gt;nd377:w</title>
<path fill="none" stroke="black" d="M210.1,-34.5C210.1,-20.4929 227.593,-35.5 241.6,-35.5"/>
</g>
<!-- nd314 -->
<g id="node7" class="node"><title>nd314</title>
<g id="a_node7"><a xlink:title="nd314&#45;RecurGraph">
<ellipse fill="none" stroke="#000000" cx="127.1" cy="-89.5" rx="11" ry="11"/>
<text text-anchor="middle" x="127.1" y="-85.8" font-family="Times,serif" font-size="14.00">rec</text>
</a>
</g>
</g>
<!-- ndcluster_nd318 -->
<g id="node8" class="node"><title>ndcluster_nd318</title>
<g id="a_node8"><a xlink:title="nd318">
<ellipse fill="orange" stroke="orange" cx="210.1" cy="-91.5" rx="1.8" ry="1.8"/>
</a>
</g>
</g>
<!-- nd314&#45;&gt;ndcluster_nd318 -->
<g id="edge13" class="edge"><title>nd314:n&#45;&gt;ndcluster_nd318:e</title>
<path fill="none" stroke="grey" d="M127.1,-101.5C127.1,-106.409 133.213,-100.96 138.1,-100.5 170.999,-97.4041 184.466,-111.419 212.1,-93.3 212.865,-92.7982 214.015,-91.5 213.1,-91.5"/>
</g>
<!-- nd314&#45;&gt;ndcluster_nd318 -->
<g id="edge14" class="edge"><title>nd314:e&#45;&gt;ndcluster_nd318:w</title>
<path fill="none" stroke="black" d="M139.1,-89.5C169.335,-89.5 176.865,-91.5 207.1,-91.5"/>
</g>
<!-- nd256 -->
<g id="node10" class="node"><title>nd256</title>
<g id="a_node10"><a xlink:title="nd256&#45;AppGraph">
<path fill="none" stroke="#000000" d="M73.5473,-90.5543C73.5473,-90.5543 69.6719,-84.9457 69.6719,-84.9457 68.136,-82.7229 68.136,-78.2771 69.6719,-76.0543 69.6719,-76.0543 73.5473,-70.4457 73.5473,-70.4457 75.0833,-68.2229 79.3212,-66.0023 82.0231,-66.0045 82.0231,-66.0045 87.4269,-66.009 87.4269,-66.009 90.1288,-66.0113 92.8307,-68.7155 92.8307,-71.4174 92.8307,-71.4174 92.8307,-89.5826 92.8307,-89.5826 92.8307,-92.2845 90.1288,-94.9887 87.4269,-94.991 87.4269,-94.991 82.0231,-94.9955 82.0231,-94.9955 79.3212,-94.9977 75.0833,-92.7771 73.5473,-90.5543"/>
<text text-anchor="middle" x="81.1" y="-76.8" font-family="Times,serif" font-size="14.00">@</text>
</a>
</g>
</g>
<!-- nd255&#45;&gt;nd256 -->
<g id="edge10" class="edge"><title>nd255:e&#45;&gt;nd256:w</title>
<path fill="none" stroke="#b70000" d="M48.1,-60.5C60.2086,-60.5 54.4914,-80.5 66.6,-80.5"/>
</g>
<!-- nd386 -->
<g id="node14" class="node"><title>nd386</title>
<g id="a_node14"><a xlink:title="nd386&#45;ConstGraph">
<path fill="none" stroke="purple" d="M76.2667,-53C76.2667,-53 85.9333,-53 85.9333,-53 90.7667,-53 95.6,-48.1667 95.6,-43.3333 95.6,-43.3333 95.6,-33.6667 95.6,-33.6667 95.6,-28.8333 90.7667,-24 85.9333,-24 85.9333,-24 76.2667,-24 76.2667,-24 71.4333,-24 66.6,-28.8333 66.6,-33.6667 66.6,-33.6667 66.6,-43.3333 66.6,-43.3333 66.6,-48.1667 71.4333,-53 76.2667,-53"/>
<text text-anchor="middle" x="81.1" y="-34.8" font-family="Times,serif" font-size="14.00">6</text>
</a>
</g>
</g>
<!-- nd255&#45;&gt;nd386 -->
<g id="edge11" class="edge"><title>nd255:s&#45;&gt;nd386:w</title>
<path fill="none" stroke="black" d="M35.1,-44.5C35.1,-30.2483 52.3483,-38.5 66.6,-38.5"/>
</g>
<!-- nd256&#45;&gt;nd314 -->
<g id="edge9" class="edge"><title>nd256:e&#45;&gt;nd314:w</title>
<path fill="none" stroke="black" d="M94.1,-80.5C104.254,-80.5 104.946,-89.5 115.1,-89.5"/>
</g>
<!-- nd263 -->
<g id="node15" class="node"><title>nd263</title>
<g id="a_node15"><a xlink:title="nd263&#45;UnOpGraph">
<ellipse fill="none" stroke="#000000" cx="127.1" cy="-50.5" rx="14.5" ry="14.5"/>
<text text-anchor="middle" x="127.1" y="-46.8" font-family="Times,serif" font-size="14.00">tl</text>
</a>
</g>
</g>
<!-- nd256&#45;&gt;nd263 -->
<g id="edge7" class="edge"><title>nd256:s&#45;&gt;nd263:w</title>
<path fill="none" stroke="#b70000" d="M81.1,-64.5C81.1,-57.6832 89.3467,-62.214 95.6,-59.5 103.442,-56.0963 104.051,-50.5 112.6,-50.5"/>
</g>
<!-- nd364 -->
<g id="node11" class="node"><title>nd364</title>
<g id="a_node11"><a xlink:title="nd364&#45;ContractGraph">
<ellipse fill="black" stroke="black" cx="276.7" cy="-35.5" rx="1.8" ry="1.8"/>
</a>
</g>
</g>
<!-- nd364&#45;&gt;nd182 -->
<g id="edge6" class="edge"><title>nd364:e&#45;&gt;nd182:w</title>
<path fill="none" stroke="black" d="M279.7,-35.5C292.367,-35.5 295.533,-35.5 308.2,-35.5"/>
</g>
<!-- nd376&#45;&gt;nd28 -->
<g id="edge5" class="edge"><title>nd376:e&#45;&gt;nd28:w</title>
<path fill="none" stroke="black" d="M245.2,-65.5C252.756,-65.5 254.644,-65.5 262.2,-65.5"/>
</g>
<!-- nd377&#45;&gt;nd364 -->
<g id="edge15" class="edge"><title>nd377:e&#45;&gt;nd364:w</title>
<path fill="none" stroke="black" d="M245.2,-35.5C257.867,-35.5 261.033,-35.5 273.7,-35.5"/>
</g>
<!-- nd263&#45;&gt;nd188 -->
<g id="edge8" class="edge"><title>nd263:e&#45;&gt;nd188:w</title>
<path fill="none" stroke="red" d="M151.669,-50.5C167.914,-50.5 175.35,-50.5 195.6,-50.5"/>
<polygon fill="red" stroke="red" points="151.6,-47.0001 141.6,-50.5 151.6,-54.0001 151.6,-47.0001"/>
<text text-anchor="middle" x="168.6" y="-55.3" font-family="Times,serif" font-size="14.00">op_arg</text>
</g>
</g>
</svg>
