<?xml version="1.0" encoding="UTF-8" standalone="no"?>
<!DOCTYPE svg PUBLIC "-//W3C//DTD SVG 1.1//EN"
 "http://www.w3.org/Graphics/SVG/1.1/DTD/svg11.dtd">
<!-- Generated by graphviz version 2.38.0 (20140413.2041)
 -->
<!-- Title: G Pages: 1 -->
<svg width="662pt" height="215pt"
 viewBox="0.00 0.00 662.00 214.93" xmlns="http://www.w3.org/2000/svg" xmlns:xlink="http://www.w3.org/1999/xlink">
<g id="graph0" class="graph" transform="scale(0.901171 0.901171) rotate(0) translate(4 234.5)">
<title>G</title>
<polygon fill="white" stroke="none" points="-4,4 -4,-234.5 730.6,-234.5 730.6,4 -4,4"/>
<g id="clust1" class="cluster"><title>cluster_nd140</title>
<polygon fill="none" stroke="orange" points="337.3,-180.5 337.3,-200.5 356.9,-200.5 356.9,-180.5 337.3,-180.5"/>
</g>
<g id="clust2" class="cluster"><title>cluster_nd91</title>
<polygon fill="none" stroke="orange" points="335.3,-91.5 335.3,-134.5 358.9,-134.5 358.9,-91.5 335.3,-91.5"/>
<text text-anchor="middle" x="347.1" y="-119.3" font-family="Times,serif" font-size="14.00">tl</text>
</g>
<g id="clust3" class="cluster"><title>cluster_nd110</title>
<polygon fill="none" stroke="orange" points="332.3,-40.5 332.3,-83.5 361.9,-83.5 361.9,-40.5 332.3,-40.5"/>
<text text-anchor="middle" x="347.1" y="-68.3" font-family="Times,serif" font-size="14.00">hd</text>
</g>
<!-- nd1 -->
<g id="node1" class="node"><title>nd1</title>
<ellipse fill="black" stroke="black" cx="1.8" cy="-169.5" rx="1.8" ry="1.8"/>
</g>
<!-- nd67 -->
<g id="node14" class="node"><title>nd67</title>
<g id="a_node14"><a xlink:title="nd67&#45;IfGraph">
<ellipse fill="none" stroke="#000000" cx="35.1" cy="-169.5" rx="14.5" ry="14.5"/>
<text text-anchor="middle" x="35.1" y="-165.8" font-family="Times,serif" font-size="14.00">if</text>
</a>
</g>
</g>
<!-- nd1&#45;&gt;nd67 -->
<g id="edge27" class="edge"><title>nd1:e&#45;&gt;nd67:w</title>
<path fill="none" stroke="#b70000" d="M3.6,-169.5C11.1556,-169.5 13.0444,-169.5 20.6,-169.5"/>
</g>
<!-- nd136 -->
<g id="node2" class="node"><title>nd136</title>
<g id="a_node2"><a xlink:title="nd136&#45;RecurGraph">
<ellipse fill="none" stroke="#000000" cx="295.1" cy="-177.5" rx="11" ry="11"/>
<text text-anchor="middle" x="295.1" y="-173.8" font-family="Times,serif" font-size="14.00">rec</text>
</a>
</g>
</g>
<!-- ndcluster_nd140 -->
<g id="node3" class="node"><title>ndcluster_nd140</title>
<g id="a_node3"><a xlink:title="nd140">
<ellipse fill="orange" stroke="orange" cx="347.1" cy="-190.5" rx="1.8" ry="1.8"/>
</a>
</g>
</g>
<!-- nd136&#45;&gt;ndcluster_nd140 -->
<g id="edge30" class="edge"><title>nd136:n&#45;&gt;ndcluster_nd140:e</title>
<path fill="none" stroke="grey" d="M295.1,-189.5C295.1,-211.846 322.963,-191.678 345.3,-192.3 346.988,-192.347 347.644,-193.156 349.1,-192.3 349.889,-191.836 351.015,-190.5 350.1,-190.5"/>
</g>
<!-- nd136&#45;&gt;ndcluster_nd140 -->
<g id="edge31" class="edge"><title>nd136:e&#45;&gt;ndcluster_nd140:w</title>
<path fill="none" stroke="black" d="M307.1,-177.5C324.53,-177.5 326.67,-190.5 344.1,-190.5"/>
</g>
<!-- nd16 -->
<g id="node4" class="node"><title>nd16</title>
<g id="a_node4"><a xlink:title="nd16&#45;ConstGraph">
<path fill="none" stroke="purple" d="M569.267,-144C569.267,-144 578.933,-144 578.933,-144 583.767,-144 588.6,-139.167 588.6,-134.333 588.6,-134.333 588.6,-124.667 588.6,-124.667 588.6,-119.833 583.767,-115 578.933,-115 578.933,-115 569.267,-115 569.267,-115 564.433,-115 559.6,-119.833 559.6,-124.667 559.6,-124.667 559.6,-134.333 559.6,-134.333 559.6,-139.167 564.433,-144 569.267,-144"/>
<text text-anchor="middle" x="574.1" y="-125.8" font-family="Times,serif" font-size="14.00">1</text>
</a>
</g>
</g>
<!-- nd22 -->
<g id="node5" class="node"><title>nd22</title>
<g id="a_node5"><a xlink:title="nd22&#45;ConstGraph">
<path fill="none" stroke="purple" d="M615.267,-113C615.267,-113 624.933,-113 624.933,-113 629.767,-113 634.6,-108.167 634.6,-103.333 634.6,-103.333 634.6,-93.6667 634.6,-93.6667 634.6,-88.8333 629.767,-84 624.933,-84 624.933,-84 615.267,-84 615.267,-84 610.433,-84 605.6,-88.8333 605.6,-93.6667 605.6,-93.6667 605.6,-103.333 605.6,-103.333 605.6,-108.167 610.433,-113 615.267,-113"/>
<text text-anchor="middle" x="620.1" y="-94.8" font-family="Times,serif" font-size="14.00">2</text>
</a>
</g>
</g>
<!-- nd28 -->
<g id="node6" class="node"><title>nd28</title>
<g id="a_node6"><a xlink:title="nd28&#45;ConstGraph">
<path fill="none" stroke="purple" d="M661.267,-92C661.267,-92 670.933,-92 670.933,-92 675.767,-92 680.6,-87.1667 680.6,-82.3333 680.6,-82.3333 680.6,-72.6667 680.6,-72.6667 680.6,-67.8333 675.767,-63 670.933,-63 670.933,-63 661.267,-63 661.267,-63 656.433,-63 651.6,-67.8333 651.6,-72.6667 651.6,-72.6667 651.6,-82.3333 651.6,-82.3333 651.6,-87.1667 656.433,-92 661.267,-92"/>
<text text-anchor="middle" x="666.1" y="-73.8" font-family="Times,serif" font-size="14.00">3</text>
</a>
</g>
</g>
<!-- nd34 -->
<g id="node7" class="node"><title>nd34</title>
<g id="a_node7"><a xlink:title="nd34&#45;ConstGraph">
<path fill="none" stroke="purple" d="M707.267,-71C707.267,-71 716.933,-71 716.933,-71 721.767,-71 726.6,-66.1667 726.6,-61.3333 726.6,-61.3333 726.6,-51.6667 726.6,-51.6667 726.6,-46.8333 721.767,-42 716.933,-42 716.933,-42 707.267,-42 707.267,-42 702.433,-42 697.6,-46.8333 697.6,-51.6667 697.6,-51.6667 697.6,-61.3333 697.6,-61.3333 697.6,-66.1667 702.433,-71 707.267,-71"/>
<text text-anchor="middle" x="712.1" y="-52.8" font-family="Times,serif" font-size="14.00">4</text>
</a>
</g>
</g>
<!-- nd39 -->
<g id="node8" class="node"><title>nd39</title>
<g id="a_node8"><a xlink:title="nd39&#45;ConstEmptyGraph">
<path fill="none" stroke="purple" d="M707.267,-29C707.267,-29 716.933,-29 716.933,-29 721.767,-29 726.6,-24.1667 726.6,-19.3333 726.6,-19.3333 726.6,-9.66667 726.6,-9.66667 726.6,-4.83333 721.767,-0 716.933,-0 716.933,-0 707.267,-0 707.267,-0 702.433,-0 697.6,-4.83333 697.6,-9.66667 697.6,-9.66667 697.6,-19.3333 697.6,-19.3333 697.6,-24.1667 702.433,-29 707.267,-29"/>
<text text-anchor="middle" x="712.1" y="-10.8" font-family="Times,serif" font-size="14.00">[]</text>
</a>
</g>
</g>
<!-- nd50 -->
<g id="node9" class="node"><title>nd50</title>
<g id="a_node9"><a xlink:title="nd50&#45;ConstGraph">
<path fill="none" stroke="purple" d="M342.267,-172C342.267,-172 351.933,-172 351.933,-172 356.767,-172 361.6,-167.167 361.6,-162.333 361.6,-162.333 361.6,-152.667 361.6,-152.667 361.6,-147.833 356.767,-143 351.933,-143 351.933,-143 342.267,-143 342.267,-143 337.433,-143 332.6,-147.833 332.6,-152.667 332.6,-152.667 332.6,-162.333 332.6,-162.333 332.6,-167.167 337.433,-172 342.267,-172"/>
<text text-anchor="middle" x="347.1" y="-153.8" font-family="Times,serif" font-size="14.00">0</text>
</a>
</g>
</g>
<!-- nd182 -->
<g id="node10" class="node"><title>nd182</title>
<g id="a_node10"><a xlink:title="nd182&#45;ConstListGraph">
<path fill="none" stroke="purple" d="M661.267,-50C661.267,-50 670.933,-50 670.933,-50 675.767,-50 680.6,-45.1667 680.6,-40.3333 680.6,-40.3333 680.6,-30.6667 680.6,-30.6667 680.6,-25.8333 675.767,-21 670.933,-21 670.933,-21 661.267,-21 661.267,-21 656.433,-21 651.6,-25.8333 651.6,-30.6667 651.6,-30.6667 651.6,-40.3333 651.6,-40.3333 651.6,-45.1667 656.433,-50 661.267,-50"/>
<text text-anchor="middle" x="666.1" y="-31.8" font-family="Times,serif" font-size="14.00">::</text>
</a>
</g>
</g>
<!-- nd182&#45;&gt;nd34 -->
<g id="edge1" class="edge"><title>nd182:n&#45;&gt;nd34:w</title>
<path fill="none" stroke="purple" d="M666.1,-51.5C666.1,-55.0438 694.056,-56.5 697.6,-56.5"/>
</g>
<!-- nd182&#45;&gt;nd39 -->
<g id="edge2" class="edge"><title>nd182:s&#45;&gt;nd39:w</title>
<path fill="none" stroke="purple" d="M666.1,-19.5C666.1,-5.32473 683.425,-14.5 697.6,-14.5"/>
</g>
<!-- nd188 -->
<g id="node11" class="node"><title>nd188</title>
<g id="a_node11"><a xlink:title="nd188&#45;ConstListGraph">
<path fill="none" stroke="purple" d="M615.267,-71C615.267,-71 624.933,-71 624.933,-71 629.767,-71 634.6,-66.1667 634.6,-61.3333 634.6,-61.3333 634.6,-51.6667 634.6,-51.6667 634.6,-46.8333 629.767,-42 624.933,-42 624.933,-42 615.267,-42 615.267,-42 610.433,-42 605.6,-46.8333 605.6,-51.6667 605.6,-51.6667 605.6,-61.3333 605.6,-61.3333 605.6,-66.1667 610.433,-71 615.267,-71"/>
<text text-anchor="middle" x="620.1" y="-52.8" font-family="Times,serif" font-size="14.00">::</text>
</a>
</g>
</g>
<!-- nd188&#45;&gt;nd28 -->
<g id="edge3" class="edge"><title>nd188:n&#45;&gt;nd28:w</title>
<path fill="none" stroke="purple" d="M620.1,-72.5C620.1,-76.0438 648.056,-77.5 651.6,-77.5"/>
</g>
<!-- nd188&#45;&gt;nd182 -->
<g id="edge4" class="edge"><title>nd188:s&#45;&gt;nd182:w</title>
<path fill="none" stroke="purple" d="M620.1,-40.5C620.1,-26.3247 637.425,-35.5 651.6,-35.5"/>
</g>
<!-- nd194 -->
<g id="node12" class="node"><title>nd194</title>
<g id="a_node12"><a xlink:title="nd194&#45;ConstListGraph">
<path fill="none" stroke="purple" d="M569.267,-92C569.267,-92 578.933,-92 578.933,-92 583.767,-92 588.6,-87.1667 588.6,-82.3333 588.6,-82.3333 588.6,-72.6667 588.6,-72.6667 588.6,-67.8333 583.767,-63 578.933,-63 578.933,-63 569.267,-63 569.267,-63 564.433,-63 559.6,-67.8333 559.6,-72.6667 559.6,-72.6667 559.6,-82.3333 559.6,-82.3333 559.6,-87.1667 564.433,-92 569.267,-92"/>
<text text-anchor="middle" x="574.1" y="-73.8" font-family="Times,serif" font-size="14.00">::</text>
</a>
</g>
</g>
<!-- nd194&#45;&gt;nd22 -->
<g id="edge5" class="edge"><title>nd194:n&#45;&gt;nd22:w</title>
<path fill="none" stroke="purple" d="M574.1,-93.5C574.1,-107.675 591.425,-98.5 605.6,-98.5"/>
</g>
<!-- nd194&#45;&gt;nd188 -->
<g id="edge6" class="edge"><title>nd194:s&#45;&gt;nd188:w</title>
<path fill="none" stroke="purple" d="M574.1,-61.5C574.1,-47.3247 591.425,-56.5 605.6,-56.5"/>
</g>
<!-- nd200 -->
<g id="node13" class="node"><title>nd200</title>
<g id="a_node13"><a xlink:title="nd200&#45;ConstListGraph">
<path fill="none" stroke="purple" d="M440.267,-91C440.267,-91 449.933,-91 449.933,-91 454.767,-91 459.6,-86.1667 459.6,-81.3333 459.6,-81.3333 459.6,-71.6667 459.6,-71.6667 459.6,-66.8333 454.767,-62 449.933,-62 449.933,-62 440.267,-62 440.267,-62 435.433,-62 430.6,-66.8333 430.6,-71.6667 430.6,-71.6667 430.6,-81.3333 430.6,-81.3333 430.6,-86.1667 435.433,-91 440.267,-91"/>
<text text-anchor="middle" x="445.1" y="-72.8" font-family="Times,serif" font-size="14.00">::</text>
</a>
</g>
</g>
<!-- nd209 -->
<g id="node27" class="node"><title>nd209</title>
<g id="a_node27"><a xlink:title="nd209&#45;ContractGraph">
<ellipse fill="black" stroke="black" cx="528.1" cy="-129.5" rx="1.8" ry="1.8"/>
</a>
</g>
</g>
<!-- nd200&#45;&gt;nd209 -->
<g id="edge7" class="edge"><title>nd200:n&#45;&gt;nd209:w</title>
<path fill="none" stroke="black" d="M445.1,-92.5C445.1,-102.294 515.306,-129.5 525.1,-129.5"/>
</g>
<!-- nd210 -->
<g id="node28" class="node"><title>nd210</title>
<g id="a_node28"><a xlink:title="nd210&#45;ContractGraph">
<ellipse fill="black" stroke="black" cx="528.1" cy="-77.5" rx="1.8" ry="1.8"/>
</a>
</g>
</g>
<!-- nd200&#45;&gt;nd210 -->
<g id="edge8" class="edge"><title>nd200:s&#45;&gt;nd210:w</title>
<path fill="none" stroke="black" d="M445.1,-60.5C445.1,-54.0402 453.217,-60.5077 459.6,-61.5 489.211,-66.1032 495.133,-77.5 525.1,-77.5"/>
</g>
<!-- nd68 -->
<g id="node15" class="node"><title>nd68</title>
<g id="a_node15"><a xlink:title="nd68&#45;AppGraph">
<path fill="none" stroke="#000000" d="M385.547,-178.554C385.547,-178.554 381.672,-172.946 381.672,-172.946 380.136,-170.723 380.136,-166.277 381.672,-164.054 381.672,-164.054 385.547,-158.446 385.547,-158.446 387.083,-156.223 391.321,-154.002 394.023,-154.005 394.023,-154.005 399.427,-154.009 399.427,-154.009 402.129,-154.011 404.831,-156.715 404.831,-159.417 404.831,-159.417 404.831,-177.583 404.831,-177.583 404.831,-180.285 402.129,-182.989 399.427,-182.991 399.427,-182.991 394.023,-182.995 394.023,-182.995 391.321,-182.998 387.083,-180.777 385.547,-178.554"/>
<text text-anchor="middle" x="393.1" y="-164.8" font-family="Times,serif" font-size="14.00">@</text>
</a>
</g>
</g>
<!-- nd67&#45;&gt;nd68 -->
<g id="edge21" class="edge"><title>nd67:n&#45;&gt;nd68:w</title>
<path fill="none" stroke="#b70000" d="M35.1,-185.5C35.1,-224.725 78.8754,-215.5 118.1,-215.5 118.1,-215.5 118.1,-215.5 348.1,-215.5 356.228,-215.5 356.98,-209.97 361.9,-203.5 372.332,-189.78 361.364,-168.5 378.6,-168.5"/>
<text text-anchor="middle" x="246.6" y="-219.3" font-family="Times,serif" font-size="14.00">condition</text>
</g>
<!-- nd84 -->
<g id="node16" class="node"><title>nd84</title>
<g id="a_node16"><a xlink:title="nd84&#45;AppGraph">
<path fill="none" stroke="#000000" d="M111.547,-144.554C111.547,-144.554 107.672,-138.946 107.672,-138.946 106.136,-136.723 106.136,-132.277 107.672,-130.054 107.672,-130.054 111.547,-124.446 111.547,-124.446 113.083,-122.223 117.321,-120.002 120.023,-120.005 120.023,-120.005 125.427,-120.009 125.427,-120.009 128.129,-120.011 130.831,-122.715 130.831,-125.417 130.831,-125.417 130.831,-143.583 130.831,-143.583 130.831,-146.285 128.129,-148.989 125.427,-148.991 125.427,-148.991 120.023,-148.995 120.023,-148.995 117.321,-148.998 113.083,-146.777 111.547,-144.554"/>
<text text-anchor="middle" x="119.1" y="-130.8" font-family="Times,serif" font-size="14.00">@</text>
</a>
</g>
</g>
<!-- nd67&#45;&gt;nd84 -->
<g id="edge22" class="edge"><title>nd67:s&#45;&gt;nd84:w</title>
<path fill="none" stroke="grey" d="M35.1,-153.5C35.1,-141.423 78.9954,-134.5 104.6,-134.5"/>
<text text-anchor="middle" x="77.1" y="-143.3" font-family="Times,serif" font-size="14.00">is false</text>
</g>
<!-- nd125 -->
<g id="node24" class="node"><title>nd125</title>
<g id="a_node24"><a xlink:title="nd125&#45;ContractGraph">
<ellipse fill="black" stroke="black" cx="295.1" cy="-150.5" rx="1.8" ry="1.8"/>
</a>
</g>
</g>
<!-- nd67&#45;&gt;nd125 -->
<g id="edge24" class="edge"><title>nd67:e&#45;&gt;nd125:w</title>
<path fill="none" stroke="grey" d="M49.6,-169.5C103.654,-169.5 238.046,-150.5 292.1,-150.5"/>
<text text-anchor="middle" x="158.6" y="-166.3" font-family="Times,serif" font-size="14.00">is true</text>
</g>
<!-- nd206 -->
<g id="node26" class="node"><title>nd206</title>
<g id="a_node26"><a xlink:title="nd206&#45;ConstListGraph">
<path fill="none" stroke="purple" d="M440.267,-140C440.267,-140 449.933,-140 449.933,-140 454.767,-140 459.6,-135.167 459.6,-130.333 459.6,-130.333 459.6,-120.667 459.6,-120.667 459.6,-115.833 454.767,-111 449.933,-111 449.933,-111 440.267,-111 440.267,-111 435.433,-111 430.6,-115.833 430.6,-120.667 430.6,-120.667 430.6,-130.333 430.6,-130.333 430.6,-135.167 435.433,-140 440.267,-140"/>
<text text-anchor="middle" x="445.1" y="-121.8" font-family="Times,serif" font-size="14.00">::</text>
</a>
</g>
</g>
<!-- nd68&#45;&gt;nd206 -->
<g id="edge25" class="edge"><title>nd68:s&#45;&gt;nd206:w</title>
<path fill="none" stroke="black" d="M393.1,-152.5C393.1,-131.963 410.063,-125.5 430.6,-125.5"/>
<text text-anchor="middle" x="419.1" y="-130.3" font-family="Times,serif" font-size="14.00">x</text>
</g>
<!-- nd72 -->
<g id="node29" class="node"><title>nd72</title>
<g id="a_node29"><a xlink:title="nd72&#45;AbsGraph">
<ellipse fill="none" stroke="#000000" cx="445.1" cy="-168.5" rx="14.5" ry="14.5"/>
<text text-anchor="middle" x="445.1" y="-164.8" font-family="Times,serif" font-size="14.00">fun</text>
</a>
</g>
</g>
<!-- nd68&#45;&gt;nd72 -->
<g id="edge11" class="edge"><title>nd68:e&#45;&gt;nd72:w</title>
<path fill="none" stroke="#b70000" d="M406.1,-168.5C416.989,-168.5 419.711,-168.5 430.6,-168.5"/>
</g>
<!-- nd85 -->
<g id="node17" class="node"><title>nd85</title>
<g id="a_node17"><a xlink:title="nd85&#45;AppGraph">
<path fill="none" stroke="#000000" d="M190.547,-144.554C190.547,-144.554 186.672,-138.946 186.672,-138.946 185.136,-136.723 185.136,-132.277 186.672,-130.054 186.672,-130.054 190.547,-124.446 190.547,-124.446 192.083,-122.223 196.321,-120.002 199.023,-120.005 199.023,-120.005 204.427,-120.009 204.427,-120.009 207.129,-120.011 209.831,-122.715 209.831,-125.417 209.831,-125.417 209.831,-143.583 209.831,-143.583 209.831,-146.285 207.129,-148.989 204.427,-148.991 204.427,-148.991 199.023,-148.995 199.023,-148.995 196.321,-148.998 192.083,-146.777 190.547,-144.554"/>
<text text-anchor="middle" x="198.1" y="-130.8" font-family="Times,serif" font-size="14.00">@</text>
</a>
</g>
</g>
<!-- nd84&#45;&gt;nd85 -->
<g id="edge17" class="edge"><title>nd84:e&#45;&gt;nd85:w</title>
<path fill="none" stroke="black" d="M132.1,-134.5C154.989,-134.5 160.711,-134.5 183.6,-134.5"/>
</g>
<!-- nd105 -->
<g id="node20" class="node"><title>nd105</title>
<g id="a_node20"><a xlink:title="nd105&#45;BinOpGraph">
<ellipse fill="none" stroke="#000000" cx="198.1" cy="-85.5" rx="14.5" ry="14.5"/>
<text text-anchor="middle" x="198.1" y="-81.8" font-family="Times,serif" font-size="14.00">+</text>
</a>
</g>
</g>
<!-- nd84&#45;&gt;nd105 -->
<g id="edge18" class="edge"><title>nd84:s&#45;&gt;nd105:w</title>
<path fill="none" stroke="black" d="M119.1,-118.5C119.1,-86.2992 151.399,-85.5 183.6,-85.5"/>
</g>
<!-- nd85&#45;&gt;nd136 -->
<g id="edge13" class="edge"><title>nd85:e&#45;&gt;nd136:w</title>
<path fill="none" stroke="black" d="M211.1,-134.5C248.372,-134.5 245.828,-177.5 283.1,-177.5"/>
</g>
<!-- nd89 -->
<g id="node18" class="node"><title>nd89</title>
<g id="a_node18"><a xlink:title="nd89&#45;AppGraph">
<path fill="none" stroke="#000000" d="M287.547,-111.554C287.547,-111.554 283.672,-105.946 283.672,-105.946 282.136,-103.723 282.136,-99.2771 283.672,-97.0543 283.672,-97.0543 287.547,-91.4457 287.547,-91.4457 289.083,-89.2229 293.321,-87.0023 296.023,-87.0045 296.023,-87.0045 301.427,-87.009 301.427,-87.009 304.129,-87.0113 306.831,-89.7155 306.831,-92.4174 306.831,-92.4174 306.831,-110.583 306.831,-110.583 306.831,-113.285 304.129,-115.989 301.427,-115.991 301.427,-115.991 296.023,-115.995 296.023,-115.995 293.321,-115.998 289.083,-113.777 287.547,-111.554"/>
<text text-anchor="middle" x="295.1" y="-97.8" font-family="Times,serif" font-size="14.00">@</text>
</a>
</g>
</g>
<!-- nd85&#45;&gt;nd89 -->
<g id="edge14" class="edge"><title>nd85:s&#45;&gt;nd89:w</title>
<path fill="none" stroke="black" d="M198.1,-118.5C198.1,-99.7815 261.881,-101.5 280.6,-101.5"/>
</g>
<!-- ndcluster_nd91 -->
<g id="node19" class="node"><title>ndcluster_nd91</title>
<g id="a_node19"><a xlink:title="nd91">
<ellipse fill="orange" stroke="orange" cx="347.1" cy="-101.5" rx="1.8" ry="1.8"/>
</a>
</g>
</g>
<!-- nd89&#45;&gt;ndcluster_nd91 -->
<g id="edge12" class="edge"><title>nd89:e&#45;&gt;ndcluster_nd91:w</title>
<path fill="none" stroke="black" d="M308.1,-101.5C324.1,-101.5 328.1,-101.5 344.1,-101.5"/>
</g>
<!-- nd123 -->
<g id="node23" class="node"><title>nd123</title>
<g id="a_node23"><a xlink:title="nd123&#45;ContractGraph">
<ellipse fill="black" stroke="black" cx="347.1" cy="-30.5" rx="1.8" ry="1.8"/>
</a>
</g>
</g>
<!-- nd89&#45;&gt;nd123 -->
<g id="edge20" class="edge"><title>nd89:s&#45;&gt;nd123:w</title>
<path fill="none" stroke="black" d="M295.1,-85.5C295.1,-76.5419 303.858,-78.3756 309.6,-71.5 324.866,-53.2211 320.285,-30.5 344.1,-30.5"/>
</g>
<!-- nd108 -->
<g id="node21" class="node"><title>nd108</title>
<g id="a_node21"><a xlink:title="nd108&#45;AppGraph">
<path fill="none" stroke="#000000" d="M287.547,-60.5543C287.547,-60.5543 283.672,-54.9457 283.672,-54.9457 282.136,-52.7229 282.136,-48.2771 283.672,-46.0543 283.672,-46.0543 287.547,-40.4457 287.547,-40.4457 289.083,-38.2229 293.321,-36.0023 296.023,-36.0045 296.023,-36.0045 301.427,-36.009 301.427,-36.009 304.129,-36.0113 306.831,-38.7155 306.831,-41.4174 306.831,-41.4174 306.831,-59.5826 306.831,-59.5826 306.831,-62.2845 304.129,-64.9887 301.427,-64.991 301.427,-64.991 296.023,-64.9955 296.023,-64.9955 293.321,-64.9977 289.083,-62.7771 287.547,-60.5543"/>
<text text-anchor="middle" x="295.1" y="-46.8" font-family="Times,serif" font-size="14.00">@</text>
</a>
</g>
</g>
<!-- nd105&#45;&gt;nd108 -->
<g id="edge16" class="edge"><title>nd105:s&#45;&gt;nd108:w</title>
<path fill="none" stroke="black" d="M198.1,-69.5C198.1,-31.8735 242.974,-50.5 280.6,-50.5"/>
</g>
<!-- nd105&#45;&gt;nd125 -->
<g id="edge23" class="edge"><title>nd105:n&#45;&gt;nd125:w</title>
<path fill="none" stroke="black" d="M198.1,-101.5C198.1,-110.466 265.051,-127.663 272.6,-132.5 282.531,-138.863 280.305,-150.5 292.1,-150.5"/>
</g>
<!-- ndcluster_nd110 -->
<g id="node22" class="node"><title>ndcluster_nd110</title>
<g id="a_node22"><a xlink:title="nd110">
<ellipse fill="orange" stroke="orange" cx="347.1" cy="-50.5" rx="1.8" ry="1.8"/>
</a>
</g>
</g>
<!-- nd108&#45;&gt;ndcluster_nd110 -->
<g id="edge15" class="edge"><title>nd108:e&#45;&gt;ndcluster_nd110:w</title>
<path fill="none" stroke="black" d="M308.1,-50.5C324.1,-50.5 328.1,-50.5 344.1,-50.5"/>
</g>
<!-- nd108&#45;&gt;nd123 -->
<g id="edge19" class="edge"><title>nd108:s&#45;&gt;nd123:w</title>
<path fill="none" stroke="black" d="M295.1,-34.5C295.1,-12.6498 322.25,-30.5 344.1,-30.5"/>
</g>
<!-- nd126 -->
<g id="node25" class="node"><title>nd126</title>
<g id="a_node25"><a xlink:title="nd126&#45;ContractGraph">
<ellipse fill="black" stroke="black" cx="393.1" cy="-58.5" rx="1.8" ry="1.8"/>
</a>
</g>
</g>
<!-- nd123&#45;&gt;nd126 -->
<g id="edge26" class="edge"><title>nd123:e&#45;&gt;nd126:w</title>
<path fill="none" stroke="black" d="M350.1,-30.5C371.801,-30.5 368.399,-58.5 390.1,-58.5"/>
</g>
<!-- nd125&#45;&gt;nd50 -->
<g id="edge28" class="edge"><title>nd125:e&#45;&gt;nd50:w</title>
<path fill="none" stroke="black" d="M298.1,-150.5C309.911,-150.5 313.409,-148.722 324.6,-152.5 328.466,-153.805 328.22,-157.5 332.3,-157.5"/>
<text text-anchor="middle" x="321.1" y="-156.3" font-family="Times,serif" font-size="14.00">y</text>
</g>
<!-- nd126&#45;&gt;nd200 -->
<g id="edge29" class="edge"><title>nd126:e&#45;&gt;nd200:w</title>
<path fill="none" stroke="black" d="M396.1,-58.5C413.395,-58.5 413.305,-76.5 430.6,-76.5"/>
<text text-anchor="middle" x="419.1" y="-78.3" font-family="Times,serif" font-size="14.00">x</text>
</g>
<!-- nd206&#45;&gt;nd209 -->
<g id="edge34" class="edge"><title>nd206:n&#45;&gt;nd209:w</title>
<path fill="none" stroke="black" d="M445.1,-141.5C445.1,-147.96 453.185,-141.258 459.6,-140.5 488.915,-137.036 495.581,-129.5 525.1,-129.5"/>
</g>
<!-- nd206&#45;&gt;nd210 -->
<g id="edge35" class="edge"><title>nd206:s&#45;&gt;nd210:w</title>
<path fill="none" stroke="black" d="M445.1,-109.5C445.1,-99.9264 515.526,-77.5 525.1,-77.5"/>
</g>
<!-- nd209&#45;&gt;nd16 -->
<g id="edge32" class="edge"><title>nd209:e&#45;&gt;nd16:w</title>
<path fill="none" stroke="black" d="M531.1,-129.5C543.767,-129.5 546.933,-129.5 559.6,-129.5"/>
</g>
<!-- nd210&#45;&gt;nd194 -->
<g id="edge33" class="edge"><title>nd210:e&#45;&gt;nd194:w</title>
<path fill="none" stroke="black" d="M531.1,-77.5C543.767,-77.5 546.933,-77.5 559.6,-77.5"/>
</g>
<!-- nd73 -->
<g id="node30" class="node"><title>nd73</title>
<g id="a_node30"><a xlink:title="nd73&#45;UnOpGraph">
<ellipse fill="none" stroke="#000000" cx="528.1" cy="-169.5" rx="14.5" ry="14.5"/>
<text text-anchor="middle" x="528.1" y="-165.8" font-family="Times,serif" font-size="14.00">empty</text>
</a>
</g>
</g>
<!-- nd72&#45;&gt;nd73 -->
<g id="edge9" class="edge"><title>nd72:e&#45;&gt;nd73:w</title>
<path fill="none" stroke="red" d="M459.6,-168.5C479.853,-168.5 487.284,-169.212 503.53,-169.434"/>
<polygon fill="red" stroke="red" points="503.577,-172.935 513.6,-169.5 503.623,-165.935 503.577,-172.935"/>
</g>
<!-- nd72&#45;&gt;nd73 -->
<g id="edge10" class="edge"><title>nd72:n&#45;&gt;nd73:e</title>
<path fill="none" stroke="grey" d="M445.1,-184.5C445.1,-228.056 511.335,-213.802 543.1,-184 544.278,-182.895 545.715,-169.5 544.1,-169.5"/>
<text text-anchor="middle" x="486.6" y="-215.3" font-family="Times,serif" font-size="14.00">op_arg</text>
</g>
</g>
</svg>
