<?xml version="1.0" encoding="UTF-8" standalone="no"?>
<!DOCTYPE svg PUBLIC "-//W3C//DTD SVG 1.1//EN"
 "http://www.w3.org/Graphics/SVG/1.1/DTD/svg11.dtd">
<!-- Generated by graphviz version 2.38.0 (20140413.2041)
 -->
<!-- Title: G Pages: 1 -->
<svg width="412pt" height="171pt"
 viewBox="0.00 0.00 412.20 170.78" xmlns="http://www.w3.org/2000/svg" xmlns:xlink="http://www.w3.org/1999/xlink">
<g id="graph0" class="graph" transform="scale(1 1) rotate(0) translate(4 166.775)">
<title>G</title>
<polygon fill="white" stroke="none" points="-4,4 -4,-166.775 408.2,-166.775 408.2,4 -4,4"/>
<g id="clust1" class="cluster"><title>cluster_nd318</title>
<polygon fill="none" stroke="orange" points="169.3,-134.5 169.3,-154.5 188.9,-154.5 188.9,-134.5 169.3,-134.5"/>
</g>
<g id="clust2" class="cluster"><title>cluster_nd261</title>
<polygon fill="none" stroke="orange" points="167.3,-82.5 167.3,-125.5 190.9,-125.5 190.9,-82.5 167.3,-82.5"/>
<text text-anchor="middle" x="179.1" y="-110.3" font-family="Times,serif" font-size="14.00">tl</text>
</g>
<!-- nd1 -->
<g id="node1" class="node"><title>nd1</title>
<ellipse fill="black" stroke="black" cx="1.8" cy="-79.5" rx="1.8" ry="1.8"/>
</g>
<!-- nd255 -->
<g id="node10" class="node"><title>nd255</title>
<g id="a_node10"><a xlink:title="nd255&#45;AppGraph">
<path fill="none" stroke="#000000" d="M27.5473,-89.5543C27.5473,-89.5543 23.6719,-83.9457 23.6719,-83.9457 22.136,-81.7229 22.136,-77.2771 23.6719,-75.0543 23.6719,-75.0543 27.5473,-69.4457 27.5473,-69.4457 29.0833,-67.2229 33.3212,-65.0023 36.0231,-65.0045 36.0231,-65.0045 41.4269,-65.009 41.4269,-65.009 44.1288,-65.0113 46.8307,-67.7155 46.8307,-70.4174 46.8307,-70.4174 46.8307,-88.5826 46.8307,-88.5826 46.8307,-91.2845 44.1288,-93.9887 41.4269,-93.991 41.4269,-93.991 36.0231,-93.9955 36.0231,-93.9955 33.3212,-93.9977 29.0833,-91.7771 27.5473,-89.5543"/>
<text text-anchor="middle" x="35.1" y="-75.8" font-family="Times,serif" font-size="14.00">@</text>
</a>
</g>
</g>
<!-- nd1&#45;&gt;nd255 -->
<g id="edge14" class="edge"><title>nd1:e&#45;&gt;nd255:w</title>
<path fill="none" stroke="#b70000" d="M3.6,-79.5C11.1556,-79.5 13.0444,-79.5 20.6,-79.5"/>
</g>
<!-- nd28 -->
<g id="node2" class="node"><title>nd28</title>
<g id="a_node2"><a xlink:title="nd28&#45;ConstGraph">
<path fill="none" stroke="purple" d="M292.867,-79C292.867,-79 302.533,-79 302.533,-79 307.367,-79 312.2,-74.1667 312.2,-69.3333 312.2,-69.3333 312.2,-59.6667 312.2,-59.6667 312.2,-54.8333 307.367,-50 302.533,-50 302.533,-50 292.867,-50 292.867,-50 288.033,-50 283.2,-54.8333 283.2,-59.6667 283.2,-59.6667 283.2,-69.3333 283.2,-69.3333 283.2,-74.1667 288.033,-79 292.867,-79"/>
<text text-anchor="middle" x="297.7" y="-60.8" font-family="Times,serif" font-size="14.00">3</text>
</a>
</g>
</g>
<!-- nd34 -->
<g id="node3" class="node"><title>nd34</title>
<g id="a_node3"><a xlink:title="nd34&#45;ConstGraph">
<path fill="none" stroke="purple" d="M384.867,-71C384.867,-71 394.533,-71 394.533,-71 399.367,-71 404.2,-66.1667 404.2,-61.3333 404.2,-61.3333 404.2,-51.6667 404.2,-51.6667 404.2,-46.8333 399.367,-42 394.533,-42 394.533,-42 384.867,-42 384.867,-42 380.033,-42 375.2,-46.8333 375.2,-51.6667 375.2,-51.6667 375.2,-61.3333 375.2,-61.3333 375.2,-66.1667 380.033,-71 384.867,-71"/>
<text text-anchor="middle" x="389.7" y="-52.8" font-family="Times,serif" font-size="14.00">4</text>
</a>
</g>
</g>
<!-- nd39 -->
<g id="node4" class="node"><title>nd39</title>
<g id="a_node4"><a xlink:title="nd39&#45;ConstEmptyGraph">
<path fill="none" stroke="purple" d="M384.867,-29C384.867,-29 394.533,-29 394.533,-29 399.367,-29 404.2,-24.1667 404.2,-19.3333 404.2,-19.3333 404.2,-9.66667 404.2,-9.66667 404.2,-4.83333 399.367,-1.77636e-15 394.533,-1.77636e-15 394.533,-1.77636e-15 384.867,-1.77636e-15 384.867,-1.77636e-15 380.033,-1.77636e-15 375.2,-4.83333 375.2,-9.66667 375.2,-9.66667 375.2,-19.3333 375.2,-19.3333 375.2,-24.1667 380.033,-29 384.867,-29"/>
<text text-anchor="middle" x="389.7" y="-10.8" font-family="Times,serif" font-size="14.00">[]</text>
</a>
</g>
</g>
<!-- nd182 -->
<g id="node5" class="node"><title>nd182</title>
<g id="a_node5"><a xlink:title="nd182&#45;ConstListGraph">
<path fill="none" stroke="purple" d="M338.867,-50C338.867,-50 348.533,-50 348.533,-50 353.367,-50 358.2,-45.1667 358.2,-40.3333 358.2,-40.3333 358.2,-30.6667 358.2,-30.6667 358.2,-25.8333 353.367,-21 348.533,-21 348.533,-21 338.867,-21 338.867,-21 334.033,-21 329.2,-25.8333 329.2,-30.6667 329.2,-30.6667 329.2,-40.3333 329.2,-40.3333 329.2,-45.1667 334.033,-50 338.867,-50"/>
<text text-anchor="middle" x="343.7" y="-31.8" font-family="Times,serif" font-size="14.00">::</text>
</a>
</g>
</g>
<!-- nd182&#45;&gt;nd34 -->
<g id="edge1" class="edge"><title>nd182:n&#45;&gt;nd34:w</title>
<path fill="none" stroke="purple" d="M343.7,-51.5C343.7,-65.6753 361.025,-56.5 375.2,-56.5"/>
</g>
<!-- nd182&#45;&gt;nd39 -->
<g id="edge2" class="edge"><title>nd182:s&#45;&gt;nd39:w</title>
<path fill="none" stroke="purple" d="M343.7,-19.5C343.7,-5.32473 361.025,-14.5 375.2,-14.5"/>
</g>
<!-- nd188 -->
<g id="node6" class="node"><title>nd188</title>
<g id="a_node6"><a xlink:title="nd188&#45;ConstListGraph">
<path fill="none" stroke="purple" d="M226.267,-65C226.267,-65 235.933,-65 235.933,-65 240.767,-65 245.6,-60.1667 245.6,-55.3333 245.6,-55.3333 245.6,-45.6667 245.6,-45.6667 245.6,-40.8333 240.767,-36 235.933,-36 235.933,-36 226.267,-36 226.267,-36 221.433,-36 216.6,-40.8333 216.6,-45.6667 216.6,-45.6667 216.6,-55.3333 216.6,-55.3333 216.6,-60.1667 221.433,-65 226.267,-65"/>
<text text-anchor="middle" x="231.1" y="-46.8" font-family="Times,serif" font-size="14.00">::</text>
</a>
</g>
</g>
<!-- nd376 -->
<g id="node18" class="node"><title>nd376</title>
<g id="a_node18"><a xlink:title="nd376&#45;ContractGraph">
<ellipse fill="black" stroke="black" cx="264.4" cy="-64.5" rx="1.8" ry="1.8"/>
</a>
</g>
</g>
<!-- nd188&#45;&gt;nd376 -->
<g id="edge3" class="edge"><title>nd188:n&#45;&gt;nd376:w</title>
<path fill="none" stroke="black" d="M231.1,-66.5C231.1,-80.5282 248.572,-64.5 262.6,-64.5"/>
</g>
<!-- nd377 -->
<g id="node19" class="node"><title>nd377</title>
<g id="a_node19"><a xlink:title="nd377&#45;ContractGraph">
<ellipse fill="black" stroke="black" cx="264.4" cy="-35.5" rx="1.8" ry="1.8"/>
</a>
</g>
</g>
<!-- nd188&#45;&gt;nd377 -->
<g id="edge4" class="edge"><title>nd188:s&#45;&gt;nd377:w</title>
<path fill="none" stroke="black" d="M231.1,-34.5C231.1,-20.4929 248.593,-35.5 262.6,-35.5"/>
</g>
<!-- nd309 -->
<g id="node7" class="node"><title>nd309</title>
<g id="a_node7"><a xlink:title="nd309&#45;ConstGraph">
<path fill="none" stroke="purple" d="M174.267,-58C174.267,-58 183.933,-58 183.933,-58 188.767,-58 193.6,-53.1667 193.6,-48.3333 193.6,-48.3333 193.6,-38.6667 193.6,-38.6667 193.6,-33.8333 188.767,-29 183.933,-29 183.933,-29 174.267,-29 174.267,-29 169.433,-29 164.6,-33.8333 164.6,-38.6667 164.6,-38.6667 164.6,-48.3333 164.6,-48.3333 164.6,-53.1667 169.433,-58 174.267,-58"/>
<text text-anchor="middle" x="179.1" y="-39.8" font-family="Times,serif" font-size="14.00">3</text>
</a>
</g>
</g>
<!-- nd314 -->
<g id="node8" class="node"><title>nd314</title>
<g id="a_node8"><a xlink:title="nd314&#45;RecurGraph">
<ellipse fill="none" stroke="#000000" cx="127.1" cy="-126.5" rx="11" ry="11"/>
<text text-anchor="middle" x="127.1" y="-122.8" font-family="Times,serif" font-size="14.00">rec</text>
</a>
</g>
</g>
<!-- ndcluster_nd318 -->
<g id="node9" class="node"><title>ndcluster_nd318</title>
<g id="a_node9"><a xlink:title="nd318">
<ellipse fill="orange" stroke="orange" cx="179.1" cy="-144.5" rx="1.8" ry="1.8"/>
</a>
</g>
</g>
<!-- nd314&#45;&gt;ndcluster_nd318 -->
<g id="edge18" class="edge"><title>nd314:n&#45;&gt;ndcluster_nd318:e</title>
<path fill="none" stroke="grey" d="M127.1,-138.5C127.1,-189.095 190.08,-144.5 182.1,-144.5"/>
</g>
<!-- nd314&#45;&gt;ndcluster_nd318 -->
<g id="edge19" class="edge"><title>nd314:e&#45;&gt;ndcluster_nd318:w</title>
<path fill="none" stroke="black" d="M139.1,-126.5C157.387,-126.5 157.813,-144.5 176.1,-144.5"/>
</g>
<!-- nd256 -->
<g id="node11" class="node"><title>nd256</title>
<g id="a_node11"><a xlink:title="nd256&#45;AppGraph">
<path fill="none" stroke="#000000" d="M73.5473,-112.554C73.5473,-112.554 69.6719,-106.946 69.6719,-106.946 68.136,-104.723 68.136,-100.277 69.6719,-98.0543 69.6719,-98.0543 73.5473,-92.4457 73.5473,-92.4457 75.0833,-90.2229 79.3212,-88.0023 82.0231,-88.0045 82.0231,-88.0045 87.4269,-88.009 87.4269,-88.009 90.1288,-88.0113 92.8307,-90.7155 92.8307,-93.4174 92.8307,-93.4174 92.8307,-111.583 92.8307,-111.583 92.8307,-114.285 90.1288,-116.989 87.4269,-116.991 87.4269,-116.991 82.0231,-116.995 82.0231,-116.995 79.3212,-116.998 75.0833,-114.777 73.5473,-112.554"/>
<text text-anchor="middle" x="81.1" y="-98.8" font-family="Times,serif" font-size="14.00">@</text>
</a>
</g>
</g>
<!-- nd255&#45;&gt;nd256 -->
<g id="edge11" class="edge"><title>nd255:e&#45;&gt;nd256:w</title>
<path fill="none" stroke="black" d="M48.1,-79.5C61.2186,-79.5 53.4814,-102.5 66.6,-102.5"/>
</g>
<!-- nd266 -->
<g id="node14" class="node"><title>nd266</title>
<g id="a_node14"><a xlink:title="nd266&#45;BinOpGraph">
<ellipse fill="none" stroke="#000000" cx="81.1" cy="-28.5" rx="14.5" ry="14.5"/>
<text text-anchor="middle" x="81.1" y="-24.8" font-family="Times,serif" font-size="14.00">+</text>
</a>
</g>
</g>
<!-- nd255&#45;&gt;nd266 -->
<g id="edge12" class="edge"><title>nd255:s&#45;&gt;nd266:w</title>
<path fill="none" stroke="#b70000" d="M35.1,-63.5C35.1,-42.5721 45.6721,-28.5 66.6,-28.5"/>
</g>
<!-- nd256&#45;&gt;nd314 -->
<g id="edge9" class="edge"><title>nd256:e&#45;&gt;nd314:w</title>
<path fill="none" stroke="black" d="M94.1,-102.5C108.274,-102.5 100.926,-126.5 115.1,-126.5"/>
</g>
<!-- nd258 -->
<g id="node12" class="node"><title>nd258</title>
<g id="a_node12"><a xlink:title="nd258&#45;AppGraph">
<path fill="none" stroke="#000000" d="M119.547,-97.5543C119.547,-97.5543 115.672,-91.9457 115.672,-91.9457 114.136,-89.7229 114.136,-85.2771 115.672,-83.0543 115.672,-83.0543 119.547,-77.4457 119.547,-77.4457 121.083,-75.2229 125.321,-73.0023 128.023,-73.0045 128.023,-73.0045 133.427,-73.009 133.427,-73.009 136.129,-73.0113 138.831,-75.7155 138.831,-78.4174 138.831,-78.4174 138.831,-96.5826 138.831,-96.5826 138.831,-99.2845 136.129,-101.989 133.427,-101.991 133.427,-101.991 128.023,-101.995 128.023,-101.995 125.321,-101.998 121.083,-99.7771 119.547,-97.5543"/>
<text text-anchor="middle" x="127.1" y="-83.8" font-family="Times,serif" font-size="14.00">@</text>
</a>
</g>
</g>
<!-- nd256&#45;&gt;nd258 -->
<g id="edge10" class="edge"><title>nd256:s&#45;&gt;nd258:w</title>
<path fill="none" stroke="black" d="M81.1,-86.5C81.1,-72.4929 98.5929,-87.5 112.6,-87.5"/>
</g>
<!-- ndcluster_nd261 -->
<g id="node13" class="node"><title>ndcluster_nd261</title>
<g id="a_node13"><a xlink:title="nd261">
<ellipse fill="orange" stroke="orange" cx="179.1" cy="-92.5" rx="1.8" ry="1.8"/>
</a>
</g>
</g>
<!-- nd258&#45;&gt;ndcluster_nd261 -->
<g id="edge8" class="edge"><title>nd258:e&#45;&gt;ndcluster_nd261:w</title>
<path fill="none" stroke="black" d="M140.1,-87.5C156.254,-87.5 159.946,-92.5 176.1,-92.5"/>
</g>
<!-- nd274 -->
<g id="node15" class="node"><title>nd274</title>
<g id="a_node15"><a xlink:title="nd274&#45;ContractGraph">
<ellipse fill="black" stroke="black" cx="179.1" cy="-72.5" rx="1.8" ry="1.8"/>
</a>
</g>
</g>
<!-- nd258&#45;&gt;nd274 -->
<g id="edge13" class="edge"><title>nd258:s&#45;&gt;nd274:w</title>
<path fill="none" stroke="black" d="M127.1,-71.5C127.1,-49.7177 154.318,-72.5 176.1,-72.5"/>
</g>
<!-- nd275 -->
<g id="node16" class="node"><title>nd275</title>
<g id="a_node16"><a xlink:title="nd275&#45;ContractGraph">
<ellipse fill="black" stroke="black" cx="127.1" cy="-43.5" rx="1.8" ry="1.8"/>
</a>
</g>
</g>
<!-- nd266&#45;&gt;nd275 -->
<g id="edge15" class="edge"><title>nd266:n&#45;&gt;nd275:w</title>
<path fill="none" stroke="black" d="M81.1,-44.5C81.1,-63.6163 104.984,-43.5 124.1,-43.5"/>
</g>
<!-- nd266&#45;&gt;nd376 -->
<g id="edge7" class="edge"><title>nd266:s&#45;&gt;nd376:w</title>
<path fill="none" stroke="#b70000" d="M81.1,-12.5C81.1,7.57886 106.021,-8.5 126.1,-8.5 126.1,-8.5 126.1,-8.5 232.1,-8.5 260.441,-8.5 234.259,-64.5 262.6,-64.5"/>
</g>
<!-- nd274&#45;&gt;nd188 -->
<g id="edge17" class="edge"><title>nd274:e&#45;&gt;nd188:w</title>
<path fill="none" stroke="black" d="M182.1,-72.5C200.286,-72.5 198.414,-50.5 216.6,-50.5"/>
<text text-anchor="middle" x="205.1" y="-61.3" font-family="Times,serif" font-size="14.00">x</text>
</g>
<!-- nd275&#45;&gt;nd309 -->
<g id="edge16" class="edge"><title>nd275:e&#45;&gt;nd309:w</title>
<path fill="none" stroke="black" d="M130.1,-43.5C145.433,-43.5 149.267,-43.5 164.6,-43.5"/>
<text text-anchor="middle" x="153.1" y="-47.3" font-family="Times,serif" font-size="14.00">y</text>
</g>
<!-- nd364 -->
<g id="node17" class="node"><title>nd364</title>
<g id="a_node17"><a xlink:title="nd364&#45;ContractGraph">
<ellipse fill="black" stroke="black" cx="297.7" cy="-35.5" rx="1.8" ry="1.8"/>
</a>
</g>
</g>
<!-- nd364&#45;&gt;nd182 -->
<g id="edge6" class="edge"><title>nd364:e&#45;&gt;nd182:w</title>
<path fill="none" stroke="black" d="M300.7,-35.5C313.367,-35.5 316.533,-35.5 329.2,-35.5"/>
</g>
<!-- nd376&#45;&gt;nd28 -->
<g id="edge5" class="edge"><title>nd376:e&#45;&gt;nd28:w</title>
<path fill="none" stroke="red" d="M266.2,-64.5C269.033,-64.5 271.07,-64.5 272.907,-64.5"/>
<polygon fill="red" stroke="red" points="273.2,-68.0001 283.2,-64.5 273.2,-61.0001 273.2,-68.0001"/>
</g>
<!-- nd377&#45;&gt;nd364 -->
<g id="edge20" class="edge"><title>nd377:e&#45;&gt;nd364:w</title>
<path fill="none" stroke="black" d="M266.2,-35.5C278.867,-35.5 282.033,-35.5 294.7,-35.5"/>
</g>
</g>
</svg>
