<?xml version="1.0" encoding="UTF-8" standalone="no"?>
<!DOCTYPE svg PUBLIC "-//W3C//DTD SVG 1.1//EN"
 "http://www.w3.org/Graphics/SVG/1.1/DTD/svg11.dtd">
<!-- Generated by graphviz version 2.38.0 (20140413.2041)
 -->
<!-- Title: G Pages: 1 -->
<svg width="643pt" height="235pt"
 viewBox="0.00 0.00 642.60 235.24" xmlns="http://www.w3.org/2000/svg" xmlns:xlink="http://www.w3.org/1999/xlink">
<g id="graph0" class="graph" transform="scale(1 1) rotate(0) translate(4 231.242)">
<title>G</title>
<polygon fill="white" stroke="none" points="-4,4 -4,-231.242 638.6,-231.242 638.6,4 -4,4"/>
<g id="clust1" class="cluster"><title>cluster_nd318</title>
<polygon fill="none" stroke="orange" points="337.3,-157.242 337.3,-177.242 356.9,-177.242 356.9,-157.242 337.3,-157.242"/>
</g>
<g id="clust2" class="cluster"><title>cluster_nd261</title>
<polygon fill="none" stroke="orange" points="335.3,-68.2423 335.3,-111.242 358.9,-111.242 358.9,-68.2423 335.3,-68.2423"/>
<text text-anchor="middle" x="347.1" y="-96.0423" font-family="Times,serif" font-size="14.00">tl</text>
</g>
<g id="clust3" class="cluster"><title>cluster_nd270</title>
<polygon fill="none" stroke="orange" points="332.3,-17.2423 332.3,-60.2423 361.9,-60.2423 361.9,-17.2423 332.3,-17.2423"/>
<text text-anchor="middle" x="347.1" y="-45.0423" font-family="Times,serif" font-size="14.00">hd</text>
</g>
<!-- nd1 -->
<g id="node1" class="node"><title>nd1</title>
<ellipse fill="black" stroke="black" cx="1.8" cy="-146.242" rx="1.8" ry="1.8"/>
</g>
<!-- nd247 -->
<g id="node10" class="node"><title>nd247</title>
<g id="a_node10"><a xlink:title="nd247&#45;IfGraph">
<ellipse fill="none" stroke="#000000" cx="35.1" cy="-146.242" rx="14.5" ry="14.5"/>
<text text-anchor="middle" x="35.1" y="-142.542" font-family="Times,serif" font-size="14.00">if</text>
</a>
</g>
</g>
<!-- nd1&#45;&gt;nd247 -->
<g id="edge25" class="edge"><title>nd1:e&#45;&gt;nd247:w</title>
<path fill="none" stroke="#b70000" d="M3.6,-146.242C11.1556,-146.242 13.0444,-146.242 20.6,-146.242"/>
</g>
<!-- nd28 -->
<g id="node2" class="node"><title>nd28</title>
<g id="a_node2"><a xlink:title="nd28&#45;ConstGraph">
<path fill="none" stroke="purple" d="M569.267,-144.742C569.267,-144.742 578.933,-144.742 578.933,-144.742 583.767,-144.742 588.6,-139.909 588.6,-135.076 588.6,-135.076 588.6,-125.409 588.6,-125.409 588.6,-120.576 583.767,-115.742 578.933,-115.742 578.933,-115.742 569.267,-115.742 569.267,-115.742 564.433,-115.742 559.6,-120.576 559.6,-125.409 559.6,-125.409 559.6,-135.076 559.6,-135.076 559.6,-139.909 564.433,-144.742 569.267,-144.742"/>
<text text-anchor="middle" x="574.1" y="-126.542" font-family="Times,serif" font-size="14.00">3</text>
</a>
</g>
</g>
<!-- nd34 -->
<g id="node3" class="node"><title>nd34</title>
<g id="a_node3"><a xlink:title="nd34&#45;ConstGraph">
<path fill="none" stroke="purple" d="M615.267,-113.742C615.267,-113.742 624.933,-113.742 624.933,-113.742 629.767,-113.742 634.6,-108.909 634.6,-104.076 634.6,-104.076 634.6,-94.409 634.6,-94.409 634.6,-89.5756 629.767,-84.7423 624.933,-84.7423 624.933,-84.7423 615.267,-84.7423 615.267,-84.7423 610.433,-84.7423 605.6,-89.5756 605.6,-94.409 605.6,-94.409 605.6,-104.076 605.6,-104.076 605.6,-108.909 610.433,-113.742 615.267,-113.742"/>
<text text-anchor="middle" x="620.1" y="-95.5423" font-family="Times,serif" font-size="14.00">4</text>
</a>
</g>
</g>
<!-- nd39 -->
<g id="node4" class="node"><title>nd39</title>
<g id="a_node4"><a xlink:title="nd39&#45;ConstEmptyGraph">
<path fill="none" stroke="purple" d="M615.267,-71.7423C615.267,-71.7423 624.933,-71.7423 624.933,-71.7423 629.767,-71.7423 634.6,-66.909 634.6,-62.0756 634.6,-62.0756 634.6,-52.409 634.6,-52.409 634.6,-47.5756 629.767,-42.7423 624.933,-42.7423 624.933,-42.7423 615.267,-42.7423 615.267,-42.7423 610.433,-42.7423 605.6,-47.5756 605.6,-52.409 605.6,-52.409 605.6,-62.0756 605.6,-62.0756 605.6,-66.909 610.433,-71.7423 615.267,-71.7423"/>
<text text-anchor="middle" x="620.1" y="-53.5423" font-family="Times,serif" font-size="14.00">[]</text>
</a>
</g>
</g>
<!-- nd182 -->
<g id="node5" class="node"><title>nd182</title>
<g id="a_node5"><a xlink:title="nd182&#45;ConstListGraph">
<path fill="none" stroke="purple" d="M569.267,-92.7423C569.267,-92.7423 578.933,-92.7423 578.933,-92.7423 583.767,-92.7423 588.6,-87.909 588.6,-83.0756 588.6,-83.0756 588.6,-73.409 588.6,-73.409 588.6,-68.5756 583.767,-63.7423 578.933,-63.7423 578.933,-63.7423 569.267,-63.7423 569.267,-63.7423 564.433,-63.7423 559.6,-68.5756 559.6,-73.409 559.6,-73.409 559.6,-83.0756 559.6,-83.0756 559.6,-87.909 564.433,-92.7423 569.267,-92.7423"/>
<text text-anchor="middle" x="574.1" y="-74.5423" font-family="Times,serif" font-size="14.00">::</text>
</a>
</g>
</g>
<!-- nd182&#45;&gt;nd34 -->
<g id="edge1" class="edge"><title>nd182:n&#45;&gt;nd34:w</title>
<path fill="none" stroke="purple" d="M574.1,-94.2423C574.1,-108.418 591.425,-99.2423 605.6,-99.2423"/>
</g>
<!-- nd182&#45;&gt;nd39 -->
<g id="edge2" class="edge"><title>nd182:s&#45;&gt;nd39:w</title>
<path fill="none" stroke="purple" d="M574.1,-62.2423C574.1,-48.067 591.425,-57.2423 605.6,-57.2423"/>
</g>
<!-- nd188 -->
<g id="node6" class="node"><title>nd188</title>
<g id="a_node6"><a xlink:title="nd188&#45;ConstListGraph">
<path fill="none" stroke="purple" d="M440.267,-91.7423C440.267,-91.7423 449.933,-91.7423 449.933,-91.7423 454.767,-91.7423 459.6,-86.909 459.6,-82.0756 459.6,-82.0756 459.6,-72.409 459.6,-72.409 459.6,-67.5756 454.767,-62.7423 449.933,-62.7423 449.933,-62.7423 440.267,-62.7423 440.267,-62.7423 435.433,-62.7423 430.6,-67.5756 430.6,-72.409 430.6,-72.409 430.6,-82.0756 430.6,-82.0756 430.6,-86.909 435.433,-91.7423 440.267,-91.7423"/>
<text text-anchor="middle" x="445.1" y="-73.5423" font-family="Times,serif" font-size="14.00">::</text>
</a>
</g>
</g>
<!-- nd363 -->
<g id="node23" class="node"><title>nd363</title>
<g id="a_node23"><a xlink:title="nd363&#45;ContractGraph">
<ellipse fill="black" stroke="black" cx="528.1" cy="-130.242" rx="1.8" ry="1.8"/>
</a>
</g>
</g>
<!-- nd188&#45;&gt;nd363 -->
<g id="edge3" class="edge"><title>nd188:n&#45;&gt;nd363:w</title>
<path fill="none" stroke="black" d="M445.1,-93.2423C445.1,-103.036 515.306,-130.242 525.1,-130.242"/>
</g>
<!-- nd364 -->
<g id="node24" class="node"><title>nd364</title>
<g id="a_node24"><a xlink:title="nd364&#45;ContractGraph">
<ellipse fill="black" stroke="black" cx="528.1" cy="-78.2423" rx="1.8" ry="1.8"/>
</a>
</g>
</g>
<!-- nd188&#45;&gt;nd364 -->
<g id="edge4" class="edge"><title>nd188:s&#45;&gt;nd364:w</title>
<path fill="none" stroke="black" d="M445.1,-61.2423C445.1,-54.7825 453.217,-61.25 459.6,-62.2423 489.211,-66.8455 495.133,-78.2423 525.1,-78.2423"/>
</g>
<!-- nd309 -->
<g id="node7" class="node"><title>nd309</title>
<g id="a_node7"><a xlink:title="nd309&#45;ConstGraph">
<path fill="none" stroke="purple" d="M342.267,-148.742C342.267,-148.742 351.933,-148.742 351.933,-148.742 356.767,-148.742 361.6,-143.909 361.6,-139.076 361.6,-139.076 361.6,-129.409 361.6,-129.409 361.6,-124.576 356.767,-119.742 351.933,-119.742 351.933,-119.742 342.267,-119.742 342.267,-119.742 337.433,-119.742 332.6,-124.576 332.6,-129.409 332.6,-129.409 332.6,-139.076 332.6,-139.076 332.6,-143.909 337.433,-148.742 342.267,-148.742"/>
<text text-anchor="middle" x="347.1" y="-130.542" font-family="Times,serif" font-size="14.00">3</text>
</a>
</g>
</g>
<!-- nd314 -->
<g id="node8" class="node"><title>nd314</title>
<g id="a_node8"><a xlink:title="nd314&#45;RecurGraph">
<ellipse fill="none" stroke="#000000" cx="295.1" cy="-154.242" rx="11" ry="11"/>
<text text-anchor="middle" x="295.1" y="-150.542" font-family="Times,serif" font-size="14.00">rec</text>
</a>
</g>
</g>
<!-- ndcluster_nd318 -->
<g id="node9" class="node"><title>ndcluster_nd318</title>
<g id="a_node9"><a xlink:title="nd318">
<ellipse fill="orange" stroke="orange" cx="347.1" cy="-167.242" rx="1.8" ry="1.8"/>
</a>
</g>
</g>
<!-- nd314&#45;&gt;ndcluster_nd318 -->
<g id="edge28" class="edge"><title>nd314:n&#45;&gt;ndcluster_nd318:e</title>
<path fill="none" stroke="grey" d="M295.1,-166.242C295.1,-188.588 322.963,-168.42 345.3,-169.042 346.988,-169.089 347.644,-169.899 349.1,-169.042 349.889,-168.578 351.015,-167.242 350.1,-167.242"/>
</g>
<!-- nd314&#45;&gt;ndcluster_nd318 -->
<g id="edge29" class="edge"><title>nd314:e&#45;&gt;ndcluster_nd318:w</title>
<path fill="none" stroke="black" d="M307.1,-154.242C324.53,-154.242 326.67,-167.242 344.1,-167.242"/>
</g>
<!-- nd248 -->
<g id="node11" class="node"><title>nd248</title>
<g id="a_node11"><a xlink:title="nd248&#45;AppGraph">
<path fill="none" stroke="#000000" d="M385.547,-179.297C385.547,-179.297 381.672,-173.688 381.672,-173.688 380.136,-171.465 380.136,-167.019 381.672,-164.797 381.672,-164.797 385.547,-159.188 385.547,-159.188 387.083,-156.965 391.321,-154.745 394.023,-154.747 394.023,-154.747 399.427,-154.751 399.427,-154.751 402.129,-154.754 404.831,-157.458 404.831,-160.16 404.831,-160.16 404.831,-178.325 404.831,-178.325 404.831,-181.027 402.129,-183.731 399.427,-183.733 399.427,-183.733 394.023,-183.738 394.023,-183.738 391.321,-183.74 387.083,-181.519 385.547,-179.297"/>
<text text-anchor="middle" x="393.1" y="-165.542" font-family="Times,serif" font-size="14.00">@</text>
</a>
</g>
</g>
<!-- nd247&#45;&gt;nd248 -->
<g id="edge19" class="edge"><title>nd247:n&#45;&gt;nd248:w</title>
<path fill="none" stroke="#b70000" d="M35.1,-162.242C35.1,-201.467 78.8754,-192.242 118.1,-192.242 118.1,-192.242 118.1,-192.242 348.1,-192.242 365.078,-192.242 361.622,-169.242 378.6,-169.242"/>
<text text-anchor="middle" x="246.6" y="-196.042" font-family="Times,serif" font-size="14.00">condition</text>
</g>
<!-- nd255 -->
<g id="node12" class="node"><title>nd255</title>
<g id="a_node12"><a xlink:title="nd255&#45;AppGraph">
<path fill="none" stroke="#000000" d="M111.547,-121.297C111.547,-121.297 107.672,-115.688 107.672,-115.688 106.136,-113.465 106.136,-109.019 107.672,-106.797 107.672,-106.797 111.547,-101.188 111.547,-101.188 113.083,-98.9652 117.321,-96.7445 120.023,-96.7468 120.023,-96.7468 125.427,-96.7513 125.427,-96.7513 128.129,-96.7536 130.831,-99.4577 130.831,-102.16 130.831,-102.16 130.831,-120.325 130.831,-120.325 130.831,-123.027 128.129,-125.731 125.427,-125.733 125.427,-125.733 120.023,-125.738 120.023,-125.738 117.321,-125.74 113.083,-123.519 111.547,-121.297"/>
<text text-anchor="middle" x="119.1" y="-107.542" font-family="Times,serif" font-size="14.00">@</text>
</a>
</g>
</g>
<!-- nd247&#45;&gt;nd255 -->
<g id="edge20" class="edge"><title>nd247:s&#45;&gt;nd255:w</title>
<path fill="none" stroke="grey" d="M35.1,-130.242C35.1,-118.165 78.9954,-111.242 104.6,-111.242"/>
<text text-anchor="middle" x="77.1" y="-120.042" font-family="Times,serif" font-size="14.00">is false</text>
</g>
<!-- nd275 -->
<g id="node20" class="node"><title>nd275</title>
<g id="a_node20"><a xlink:title="nd275&#45;ContractGraph">
<ellipse fill="black" stroke="black" cx="295.1" cy="-127.242" rx="1.8" ry="1.8"/>
</a>
</g>
</g>
<!-- nd247&#45;&gt;nd275 -->
<g id="edge22" class="edge"><title>nd247:e&#45;&gt;nd275:w</title>
<path fill="none" stroke="grey" d="M49.6,-146.242C103.654,-146.242 238.046,-127.242 292.1,-127.242"/>
<text text-anchor="middle" x="158.6" y="-143.042" font-family="Times,serif" font-size="14.00">is true</text>
</g>
<!-- nd360 -->
<g id="node22" class="node"><title>nd360</title>
<g id="a_node22"><a xlink:title="nd360&#45;ConstListGraph">
<path fill="none" stroke="purple" d="M440.267,-140.742C440.267,-140.742 449.933,-140.742 449.933,-140.742 454.767,-140.742 459.6,-135.909 459.6,-131.076 459.6,-131.076 459.6,-121.409 459.6,-121.409 459.6,-116.576 454.767,-111.742 449.933,-111.742 449.933,-111.742 440.267,-111.742 440.267,-111.742 435.433,-111.742 430.6,-116.576 430.6,-121.409 430.6,-121.409 430.6,-131.076 430.6,-131.076 430.6,-135.909 435.433,-140.742 440.267,-140.742"/>
<text text-anchor="middle" x="445.1" y="-122.542" font-family="Times,serif" font-size="14.00">::</text>
</a>
</g>
</g>
<!-- nd248&#45;&gt;nd360 -->
<g id="edge23" class="edge"><title>nd248:s&#45;&gt;nd360:w</title>
<path fill="none" stroke="black" d="M393.1,-153.242C393.1,-132.705 410.063,-126.242 430.6,-126.242"/>
<text text-anchor="middle" x="419.1" y="-131.042" font-family="Times,serif" font-size="14.00">x</text>
</g>
<!-- nd252 -->
<g id="node25" class="node"><title>nd252</title>
<g id="a_node25"><a xlink:title="nd252&#45;AbsGraph">
<ellipse fill="none" stroke="#000000" cx="445.1" cy="-169.242" rx="14.5" ry="14.5"/>
<text text-anchor="middle" x="445.1" y="-165.542" font-family="Times,serif" font-size="14.00">fun</text>
</a>
</g>
</g>
<!-- nd248&#45;&gt;nd252 -->
<g id="edge9" class="edge"><title>nd248:e&#45;&gt;nd252:w</title>
<path fill="none" stroke="#b70000" d="M406.1,-169.242C416.989,-169.242 419.711,-169.242 430.6,-169.242"/>
</g>
<!-- nd256 -->
<g id="node13" class="node"><title>nd256</title>
<g id="a_node13"><a xlink:title="nd256&#45;AppGraph">
<path fill="none" stroke="#000000" d="M190.547,-121.297C190.547,-121.297 186.672,-115.688 186.672,-115.688 185.136,-113.465 185.136,-109.019 186.672,-106.797 186.672,-106.797 190.547,-101.188 190.547,-101.188 192.083,-98.9652 196.321,-96.7445 199.023,-96.7468 199.023,-96.7468 204.427,-96.7513 204.427,-96.7513 207.129,-96.7536 209.831,-99.4577 209.831,-102.16 209.831,-102.16 209.831,-120.325 209.831,-120.325 209.831,-123.027 207.129,-125.731 204.427,-125.733 204.427,-125.733 199.023,-125.738 199.023,-125.738 196.321,-125.74 192.083,-123.519 190.547,-121.297"/>
<text text-anchor="middle" x="198.1" y="-107.542" font-family="Times,serif" font-size="14.00">@</text>
</a>
</g>
</g>
<!-- nd255&#45;&gt;nd256 -->
<g id="edge15" class="edge"><title>nd255:e&#45;&gt;nd256:w</title>
<path fill="none" stroke="black" d="M132.1,-111.242C154.989,-111.242 160.711,-111.242 183.6,-111.242"/>
</g>
<!-- nd266 -->
<g id="node16" class="node"><title>nd266</title>
<g id="a_node16"><a xlink:title="nd266&#45;BinOpGraph">
<ellipse fill="none" stroke="#000000" cx="198.1" cy="-62.2423" rx="14.5" ry="14.5"/>
<text text-anchor="middle" x="198.1" y="-58.5423" font-family="Times,serif" font-size="14.00">+</text>
</a>
</g>
</g>
<!-- nd255&#45;&gt;nd266 -->
<g id="edge16" class="edge"><title>nd255:s&#45;&gt;nd266:w</title>
<path fill="none" stroke="black" d="M119.1,-95.2423C119.1,-63.0415 151.399,-62.2423 183.6,-62.2423"/>
</g>
<!-- nd256&#45;&gt;nd314 -->
<g id="edge11" class="edge"><title>nd256:e&#45;&gt;nd314:w</title>
<path fill="none" stroke="black" d="M211.1,-111.242C248.372,-111.242 245.828,-154.242 283.1,-154.242"/>
</g>
<!-- nd258 -->
<g id="node14" class="node"><title>nd258</title>
<g id="a_node14"><a xlink:title="nd258&#45;AppGraph">
<path fill="none" stroke="#000000" d="M287.547,-88.2965C287.547,-88.2965 283.672,-82.688 283.672,-82.688 282.136,-80.4652 282.136,-76.0194 283.672,-73.7965 283.672,-73.7965 287.547,-68.188 287.547,-68.188 289.083,-65.9652 293.321,-63.7445 296.023,-63.7468 296.023,-63.7468 301.427,-63.7513 301.427,-63.7513 304.129,-63.7536 306.831,-66.4577 306.831,-69.1597 306.831,-69.1597 306.831,-87.3249 306.831,-87.3249 306.831,-90.0268 304.129,-92.731 301.427,-92.7333 301.427,-92.7333 296.023,-92.7378 296.023,-92.7378 293.321,-92.74 289.083,-90.5194 287.547,-88.2965"/>
<text text-anchor="middle" x="295.1" y="-74.5423" font-family="Times,serif" font-size="14.00">@</text>
</a>
</g>
</g>
<!-- nd256&#45;&gt;nd258 -->
<g id="edge12" class="edge"><title>nd256:s&#45;&gt;nd258:w</title>
<path fill="none" stroke="black" d="M198.1,-95.2423C198.1,-76.5238 261.881,-78.2423 280.6,-78.2423"/>
</g>
<!-- ndcluster_nd261 -->
<g id="node15" class="node"><title>ndcluster_nd261</title>
<g id="a_node15"><a xlink:title="nd261">
<ellipse fill="orange" stroke="orange" cx="347.1" cy="-78.2423" rx="1.8" ry="1.8"/>
</a>
</g>
</g>
<!-- nd258&#45;&gt;ndcluster_nd261 -->
<g id="edge10" class="edge"><title>nd258:e&#45;&gt;ndcluster_nd261:w</title>
<path fill="none" stroke="black" d="M308.1,-78.2423C324.1,-78.2423 328.1,-78.2423 344.1,-78.2423"/>
</g>
<!-- nd274 -->
<g id="node19" class="node"><title>nd274</title>
<g id="a_node19"><a xlink:title="nd274&#45;ContractGraph">
<ellipse fill="black" stroke="black" cx="347.1" cy="-7.24229" rx="1.8" ry="1.8"/>
</a>
</g>
</g>
<!-- nd258&#45;&gt;nd274 -->
<g id="edge18" class="edge"><title>nd258:s&#45;&gt;nd274:w</title>
<path fill="none" stroke="black" d="M295.1,-62.2423C295.1,-53.2842 303.858,-55.1179 309.6,-48.2423 324.866,-29.9634 320.285,-7.24229 344.1,-7.24229"/>
</g>
<!-- nd267 -->
<g id="node17" class="node"><title>nd267</title>
<g id="a_node17"><a xlink:title="nd267&#45;AppGraph">
<path fill="none" stroke="#000000" d="M287.547,-37.2965C287.547,-37.2965 283.672,-31.688 283.672,-31.688 282.136,-29.4652 282.136,-25.0194 283.672,-22.7965 283.672,-22.7965 287.547,-17.188 287.547,-17.188 289.083,-14.9652 293.321,-12.7445 296.023,-12.7468 296.023,-12.7468 301.427,-12.7513 301.427,-12.7513 304.129,-12.7536 306.831,-15.4577 306.831,-18.1597 306.831,-18.1597 306.831,-36.3249 306.831,-36.3249 306.831,-39.0268 304.129,-41.731 301.427,-41.7333 301.427,-41.7333 296.023,-41.7378 296.023,-41.7378 293.321,-41.74 289.083,-39.5194 287.547,-37.2965"/>
<text text-anchor="middle" x="295.1" y="-23.5423" font-family="Times,serif" font-size="14.00">@</text>
</a>
</g>
</g>
<!-- nd266&#45;&gt;nd267 -->
<g id="edge14" class="edge"><title>nd266:s&#45;&gt;nd267:w</title>
<path fill="none" stroke="black" d="M198.1,-46.2423C198.1,-8.6158 242.974,-27.2423 280.6,-27.2423"/>
</g>
<!-- nd266&#45;&gt;nd275 -->
<g id="edge21" class="edge"><title>nd266:n&#45;&gt;nd275:w</title>
<path fill="none" stroke="black" d="M198.1,-78.2423C198.1,-87.2081 265.051,-104.405 272.6,-109.242 282.531,-115.606 280.305,-127.242 292.1,-127.242"/>
</g>
<!-- ndcluster_nd270 -->
<g id="node18" class="node"><title>ndcluster_nd270</title>
<g id="a_node18"><a xlink:title="nd270">
<ellipse fill="orange" stroke="orange" cx="347.1" cy="-27.2423" rx="1.8" ry="1.8"/>
</a>
</g>
</g>
<!-- nd267&#45;&gt;ndcluster_nd270 -->
<g id="edge13" class="edge"><title>nd267:e&#45;&gt;ndcluster_nd270:w</title>
<path fill="none" stroke="black" d="M308.1,-27.2423C324.1,-27.2423 328.1,-27.2423 344.1,-27.2423"/>
</g>
<!-- nd267&#45;&gt;nd274 -->
<g id="edge17" class="edge"><title>nd267:s&#45;&gt;nd274:w</title>
<path fill="none" stroke="black" d="M295.1,-11.2423C295.1,10.6079 322.25,-7.24229 344.1,-7.24229"/>
</g>
<!-- nd276 -->
<g id="node21" class="node"><title>nd276</title>
<g id="a_node21"><a xlink:title="nd276&#45;ContractGraph">
<ellipse fill="black" stroke="black" cx="393.1" cy="-66.2423" rx="1.8" ry="1.8"/>
</a>
</g>
</g>
<!-- nd274&#45;&gt;nd276 -->
<g id="edge24" class="edge"><title>nd274:e&#45;&gt;nd276:w</title>
<path fill="none" stroke="black" d="M350.1,-7.24229C381.781,-7.24229 358.419,-66.2423 390.1,-66.2423"/>
</g>
<!-- nd275&#45;&gt;nd309 -->
<g id="edge26" class="edge"><title>nd275:e&#45;&gt;nd309:w</title>
<path fill="none" stroke="black" d="M298.1,-127.242C309.911,-127.242 313.409,-125.464 324.6,-129.242 328.466,-130.548 328.22,-134.242 332.3,-134.242"/>
<text text-anchor="middle" x="321.1" y="-133.042" font-family="Times,serif" font-size="14.00">y</text>
</g>
<!-- nd276&#45;&gt;nd188 -->
<g id="edge27" class="edge"><title>nd276:e&#45;&gt;nd188:w</title>
<path fill="none" stroke="black" d="M396.1,-66.2423C412.194,-66.2423 414.506,-77.2423 430.6,-77.2423"/>
<text text-anchor="middle" x="419.1" y="-79.0423" font-family="Times,serif" font-size="14.00">x</text>
</g>
<!-- nd360&#45;&gt;nd363 -->
<g id="edge30" class="edge"><title>nd360:n&#45;&gt;nd363:w</title>
<path fill="none" stroke="black" d="M445.1,-142.242C445.1,-148.702 453.185,-142 459.6,-141.242 488.915,-137.778 495.581,-130.242 525.1,-130.242"/>
</g>
<!-- nd360&#45;&gt;nd364 -->
<g id="edge31" class="edge"><title>nd360:s&#45;&gt;nd364:w</title>
<path fill="none" stroke="black" d="M445.1,-110.242C445.1,-100.669 515.526,-78.2423 525.1,-78.2423"/>
</g>
<!-- nd363&#45;&gt;nd28 -->
<g id="edge5" class="edge"><title>nd363:e&#45;&gt;nd28:w</title>
<path fill="none" stroke="black" d="M531.1,-130.242C543.767,-130.242 546.933,-130.242 559.6,-130.242"/>
</g>
<!-- nd364&#45;&gt;nd182 -->
<g id="edge6" class="edge"><title>nd364:e&#45;&gt;nd182:w</title>
<path fill="none" stroke="black" d="M531.1,-78.2423C543.767,-78.2423 546.933,-78.2423 559.6,-78.2423"/>
</g>
<!-- nd253 -->
<g id="node26" class="node"><title>nd253</title>
<g id="a_node26"><a xlink:title="nd253&#45;UnOpGraph">
<ellipse fill="none" stroke="#000000" cx="528.1" cy="-170.242" rx="14.5" ry="14.5"/>
<text text-anchor="middle" x="528.1" y="-166.542" font-family="Times,serif" font-size="14.00">empty</text>
</a>
</g>
</g>
<!-- nd252&#45;&gt;nd253 -->
<g id="edge7" class="edge"><title>nd252:e&#45;&gt;nd253:w</title>
<path fill="none" stroke="red" d="M459.6,-169.242C479.853,-169.242 487.284,-169.954 503.53,-170.177"/>
<polygon fill="red" stroke="red" points="503.577,-173.677 513.6,-170.242 503.623,-166.677 503.577,-173.677"/>
</g>
<!-- nd252&#45;&gt;nd253 -->
<g id="edge8" class="edge"><title>nd252:n&#45;&gt;nd253:e</title>
<path fill="none" stroke="grey" d="M445.1,-185.242C445.1,-228.798 511.335,-214.544 543.1,-184.742 544.278,-183.637 545.715,-170.242 544.1,-170.242"/>
<text text-anchor="middle" x="486.6" y="-216.042" font-family="Times,serif" font-size="14.00">op_arg</text>
</g>
</g>
</svg>
