<?xml version="1.0" encoding="UTF-8" standalone="no"?>
<!DOCTYPE svg PUBLIC "-//W3C//DTD SVG 1.1//EN"
 "http://www.w3.org/Graphics/SVG/1.1/DTD/svg11.dtd">
<!-- Generated by graphviz version 2.38.0 (20140413.2041)
 -->
<!-- Title: G Pages: 1 -->
<svg width="147pt" height="72pt"
 viewBox="0.00 0.00 146.80 72.00" xmlns="http://www.w3.org/2000/svg" xmlns:xlink="http://www.w3.org/1999/xlink">
<g id="graph0" class="graph" transform="scale(1 1) rotate(0) translate(4 68)">
<title>G</title>
<polygon fill="white" stroke="none" points="-4,4 -4,-68 142.8,-68 142.8,4 -4,4"/>
<g id="clust1" class="cluster"><title>cluster_nd4</title>
<polygon fill="none" stroke="orange" points="53.6,-36 53.6,-56 73.2,-56 73.2,-36 53.6,-36"/>
</g>
<g id="clust2" class="cluster"><title>cluster_nd60</title>
<polygon fill="none" stroke="orange" points="53.6,-8 53.6,-28 73.2,-28 73.2,-8 53.6,-8"/>
</g>
<g id="clust3" class="cluster"><title>cluster_nd140</title>
<polygon fill="none" stroke="orange" points="111.2,-14 111.2,-34 130.8,-34 130.8,-14 111.2,-14"/>
</g>
<!-- nd1 -->
<g id="node1" class="node"><title>nd1</title>
<ellipse fill="black" stroke="black" cx="1.8" cy="-39" rx="1.8" ry="1.8"/>
</g>
<!-- nd2 -->
<g id="node2" class="node"><title>nd2</title>
<g id="a_node2"><a xlink:title="nd2&#45;AppGraph">
<path fill="none" stroke="#000000" d="M23.5473,-49.0543C23.5473,-49.0543 19.6719,-43.4457 19.6719,-43.4457 18.136,-41.2229 18.136,-36.7771 19.6719,-34.5543 19.6719,-34.5543 23.5473,-28.9457 23.5473,-28.9457 25.0833,-26.7229 29.3212,-24.5023 32.0231,-24.5045 32.0231,-24.5045 37.4269,-24.509 37.4269,-24.509 40.1288,-24.5113 42.8307,-27.2155 42.8307,-29.9174 42.8307,-29.9174 42.8307,-48.0826 42.8307,-48.0826 42.8307,-50.7845 40.1288,-53.4887 37.4269,-53.491 37.4269,-53.491 32.0231,-53.4955 32.0231,-53.4955 29.3212,-53.4977 25.0833,-51.2771 23.5473,-49.0543"/>
<text text-anchor="middle" x="31.1" y="-35.3" font-family="Times,serif" font-size="14.00">@</text>
</a>
</g>
</g>
<!-- nd1&#45;&gt;nd2 -->
<g id="edge4" class="edge"><title>nd1:e&#45;&gt;nd2:w</title>
<path fill="none" stroke="#b70000" d="M3.6,-39C9.37778,-39 10.8222,-39 16.6,-39"/>
</g>
<!-- ndcluster_nd4 -->
<g id="node3" class="node"><title>ndcluster_nd4</title>
<g id="a_node3"><a xlink:title="nd4">
<ellipse fill="orange" stroke="orange" cx="63.4" cy="-46" rx="1.8" ry="1.8"/>
</a>
</g>
</g>
<!-- nd2&#45;&gt;ndcluster_nd4 -->
<g id="edge3" class="edge"><title>nd2:e&#45;&gt;ndcluster_nd4:w</title>
<path fill="none" stroke="black" d="M44.1,-39C51.9842,-39 52.5158,-46 60.4,-46"/>
</g>
<!-- ndcluster_nd60 -->
<g id="node4" class="node"><title>ndcluster_nd60</title>
<g id="a_node4"><a xlink:title="nd60">
<ellipse fill="orange" stroke="orange" cx="63.4" cy="-18" rx="1.8" ry="1.8"/>
</a>
</g>
</g>
<!-- nd2&#45;&gt;ndcluster_nd60 -->
<g id="edge2" class="edge"><title>nd2:s&#45;&gt;ndcluster_nd60:w</title>
<path fill="none" stroke="red" d="M31.1,-23C31.1,-13.0921 40.1504,-15.2336 50.2487,-16.9235"/>
<polygon fill="red" stroke="red" points="50.0866,-20.4259 60.4,-18 50.8249,-13.4649 50.0866,-20.4259"/>
</g>
<!-- nd136 -->
<g id="node5" class="node"><title>nd136</title>
<g id="a_node5"><a xlink:title="nd136&#45;RecurGraph">
<ellipse fill="none" stroke="#000000" cx="92.2" cy="-18" rx="11" ry="11"/>
<text text-anchor="middle" x="92.2" y="-14.3" font-family="Times,serif" font-size="14.00">rec</text>
</a>
</g>
</g>
<!-- ndcluster_nd60&#45;&gt;nd136 -->
<g id="edge1" class="edge"><title>ndcluster_nd60:e&#45;&gt;nd136:w</title>
<path fill="none" stroke="black" d="M66.4,-18C72.9778,-18 74.6222,-18 81.2,-18"/>
</g>
<!-- ndcluster_nd140 -->
<g id="node6" class="node"><title>ndcluster_nd140</title>
<g id="a_node6"><a xlink:title="nd140">
<ellipse fill="orange" stroke="orange" cx="121" cy="-24" rx="1.8" ry="1.8"/>
</a>
</g>
</g>
<!-- nd136&#45;&gt;ndcluster_nd140 -->
<g id="edge5" class="edge"><title>nd136:n&#45;&gt;ndcluster_nd140:e</title>
<path fill="none" stroke="grey" d="M92.2,-30C92.2,-44.3827 138.383,-24 124,-24"/>
</g>
<!-- nd136&#45;&gt;ndcluster_nd140 -->
<g id="edge6" class="edge"><title>nd136:e&#45;&gt;ndcluster_nd140:w</title>
<path fill="none" stroke="black" d="M103.2,-18C110.298,-18 110.902,-24 118,-24"/>
</g>
</g>
</svg>
