<?xml version="1.0" encoding="UTF-8" standalone="no"?>
<!DOCTYPE svg PUBLIC "-//W3C//DTD SVG 1.1//EN"
 "http://www.w3.org/Graphics/SVG/1.1/DTD/svg11.dtd">
<!-- Generated by graphviz version 2.38.0 (20140413.2041)
 -->
<!-- Title: G Pages: 1 -->
<svg width="406pt" height="185pt"
 viewBox="0.00 0.00 406.20 184.78" xmlns="http://www.w3.org/2000/svg" xmlns:xlink="http://www.w3.org/1999/xlink">
<g id="graph0" class="graph" transform="scale(1 1) rotate(0) translate(4 180.775)">
<title>G</title>
<polygon fill="white" stroke="none" points="-4,4 -4,-180.775 402.2,-180.775 402.2,4 -4,4"/>
<g id="clust1" class="cluster"><title>cluster_nd241</title>
<polygon fill="none" stroke="orange" points="169.3,-148.5 169.3,-168.5 188.9,-168.5 188.9,-148.5 169.3,-148.5"/>
</g>
<g id="clust2" class="cluster"><title>cluster_nd160</title>
<polygon fill="none" stroke="orange" points="167.3,-94.5 167.3,-137.5 190.9,-137.5 190.9,-94.5 167.3,-94.5"/>
<text text-anchor="middle" x="179.1" y="-122.3" font-family="Times,serif" font-size="14.00">tl</text>
</g>
<!-- nd1 -->
<g id="node1" class="node"><title>nd1</title>
<ellipse fill="black" stroke="black" cx="1.8" cy="-111.5" rx="1.8" ry="1.8"/>
</g>
<!-- nd154 -->
<g id="node11" class="node"><title>nd154</title>
<g id="a_node11"><a xlink:title="nd154&#45;AppGraph">
<path fill="none" stroke="#000000" d="M27.5473,-121.554C27.5473,-121.554 23.6719,-115.946 23.6719,-115.946 22.136,-113.723 22.136,-109.277 23.6719,-107.054 23.6719,-107.054 27.5473,-101.446 27.5473,-101.446 29.0833,-99.2229 33.3212,-97.0023 36.0231,-97.0045 36.0231,-97.0045 41.4269,-97.009 41.4269,-97.009 44.1288,-97.0113 46.8307,-99.7155 46.8307,-102.417 46.8307,-102.417 46.8307,-120.583 46.8307,-120.583 46.8307,-123.285 44.1288,-125.989 41.4269,-125.991 41.4269,-125.991 36.0231,-125.995 36.0231,-125.995 33.3212,-125.998 29.0833,-123.777 27.5473,-121.554"/>
<text text-anchor="middle" x="35.1" y="-107.8" font-family="Times,serif" font-size="14.00">@</text>
</a>
</g>
</g>
<!-- nd1&#45;&gt;nd154 -->
<g id="edge12" class="edge"><title>nd1:e&#45;&gt;nd154:w</title>
<path fill="none" stroke="#b70000" d="M3.6,-111.5C11.1556,-111.5 13.0444,-111.5 20.6,-111.5"/>
</g>
<!-- nd22 -->
<g id="node2" class="node"><title>nd22</title>
<g id="a_node2"><a xlink:title="nd22&#45;ConstGraph">
<path fill="none" stroke="purple" d="M240.867,-101C240.867,-101 250.533,-101 250.533,-101 255.367,-101 260.2,-96.1667 260.2,-91.3333 260.2,-91.3333 260.2,-81.6667 260.2,-81.6667 260.2,-76.8333 255.367,-72 250.533,-72 250.533,-72 240.867,-72 240.867,-72 236.033,-72 231.2,-76.8333 231.2,-81.6667 231.2,-81.6667 231.2,-91.3333 231.2,-91.3333 231.2,-96.1667 236.033,-101 240.867,-101"/>
<text text-anchor="middle" x="245.7" y="-82.8" font-family="Times,serif" font-size="14.00">2</text>
</a>
</g>
</g>
<!-- nd28 -->
<g id="node3" class="node"><title>nd28</title>
<g id="a_node3"><a xlink:title="nd28&#45;ConstGraph">
<path fill="none" stroke="purple" d="M332.867,-92C332.867,-92 342.533,-92 342.533,-92 347.367,-92 352.2,-87.1667 352.2,-82.3333 352.2,-82.3333 352.2,-72.6667 352.2,-72.6667 352.2,-67.8333 347.367,-63 342.533,-63 342.533,-63 332.867,-63 332.867,-63 328.033,-63 323.2,-67.8333 323.2,-72.6667 323.2,-72.6667 323.2,-82.3333 323.2,-82.3333 323.2,-87.1667 328.033,-92 332.867,-92"/>
<text text-anchor="middle" x="337.7" y="-73.8" font-family="Times,serif" font-size="14.00">3</text>
</a>
</g>
</g>
<!-- nd34 -->
<g id="node4" class="node"><title>nd34</title>
<g id="a_node4"><a xlink:title="nd34&#45;ConstGraph">
<path fill="none" stroke="purple" d="M378.867,-71C378.867,-71 388.533,-71 388.533,-71 393.367,-71 398.2,-66.1667 398.2,-61.3333 398.2,-61.3333 398.2,-51.6667 398.2,-51.6667 398.2,-46.8333 393.367,-42 388.533,-42 388.533,-42 378.867,-42 378.867,-42 374.033,-42 369.2,-46.8333 369.2,-51.6667 369.2,-51.6667 369.2,-61.3333 369.2,-61.3333 369.2,-66.1667 374.033,-71 378.867,-71"/>
<text text-anchor="middle" x="383.7" y="-52.8" font-family="Times,serif" font-size="14.00">4</text>
</a>
</g>
</g>
<!-- nd39 -->
<g id="node5" class="node"><title>nd39</title>
<g id="a_node5"><a xlink:title="nd39&#45;ConstEmptyGraph">
<path fill="none" stroke="purple" d="M378.867,-29C378.867,-29 388.533,-29 388.533,-29 393.367,-29 398.2,-24.1667 398.2,-19.3333 398.2,-19.3333 398.2,-9.66667 398.2,-9.66667 398.2,-4.83333 393.367,-1.77636e-15 388.533,-1.77636e-15 388.533,-1.77636e-15 378.867,-1.77636e-15 378.867,-1.77636e-15 374.033,-1.77636e-15 369.2,-4.83333 369.2,-9.66667 369.2,-9.66667 369.2,-19.3333 369.2,-19.3333 369.2,-24.1667 374.033,-29 378.867,-29"/>
<text text-anchor="middle" x="383.7" y="-10.8" font-family="Times,serif" font-size="14.00">[]</text>
</a>
</g>
</g>
<!-- nd182 -->
<g id="node6" class="node"><title>nd182</title>
<g id="a_node6"><a xlink:title="nd182&#45;ConstListGraph">
<path fill="none" stroke="purple" d="M332.867,-50C332.867,-50 342.533,-50 342.533,-50 347.367,-50 352.2,-45.1667 352.2,-40.3333 352.2,-40.3333 352.2,-30.6667 352.2,-30.6667 352.2,-25.8333 347.367,-21 342.533,-21 342.533,-21 332.867,-21 332.867,-21 328.033,-21 323.2,-25.8333 323.2,-30.6667 323.2,-30.6667 323.2,-40.3333 323.2,-40.3333 323.2,-45.1667 328.033,-50 332.867,-50"/>
<text text-anchor="middle" x="337.7" y="-31.8" font-family="Times,serif" font-size="14.00">::</text>
</a>
</g>
</g>
<!-- nd182&#45;&gt;nd34 -->
<g id="edge1" class="edge"><title>nd182:n&#45;&gt;nd34:w</title>
<path fill="none" stroke="purple" d="M337.7,-51.5C337.7,-55.0438 365.656,-56.5 369.2,-56.5"/>
</g>
<!-- nd182&#45;&gt;nd39 -->
<g id="edge2" class="edge"><title>nd182:s&#45;&gt;nd39:w</title>
<path fill="none" stroke="purple" d="M337.7,-19.5C337.7,-5.32473 355.025,-14.5 369.2,-14.5"/>
</g>
<!-- nd188 -->
<g id="node7" class="node"><title>nd188</title>
<g id="a_node7"><a xlink:title="nd188&#45;ConstListGraph">
<path fill="none" stroke="purple" d="M286.867,-71C286.867,-71 296.533,-71 296.533,-71 301.367,-71 306.2,-66.1667 306.2,-61.3333 306.2,-61.3333 306.2,-51.6667 306.2,-51.6667 306.2,-46.8333 301.367,-42 296.533,-42 296.533,-42 286.867,-42 286.867,-42 282.033,-42 277.2,-46.8333 277.2,-51.6667 277.2,-51.6667 277.2,-61.3333 277.2,-61.3333 277.2,-66.1667 282.033,-71 286.867,-71"/>
<text text-anchor="middle" x="291.7" y="-52.8" font-family="Times,serif" font-size="14.00">::</text>
</a>
</g>
</g>
<!-- nd188&#45;&gt;nd28 -->
<g id="edge3" class="edge"><title>nd188:n&#45;&gt;nd28:w</title>
<path fill="none" stroke="purple" d="M291.7,-72.5C291.7,-86.6753 309.025,-77.5 323.2,-77.5"/>
</g>
<!-- nd188&#45;&gt;nd182 -->
<g id="edge4" class="edge"><title>nd188:s&#45;&gt;nd182:w</title>
<path fill="none" stroke="purple" d="M291.7,-40.5C291.7,-26.3247 309.025,-35.5 323.2,-35.5"/>
</g>
<!-- nd194 -->
<g id="node8" class="node"><title>nd194</title>
<g id="a_node8"><a xlink:title="nd194&#45;ConstListGraph">
<path fill="none" stroke="purple" d="M174.267,-86C174.267,-86 183.933,-86 183.933,-86 188.767,-86 193.6,-81.1667 193.6,-76.3333 193.6,-76.3333 193.6,-66.6667 193.6,-66.6667 193.6,-61.8333 188.767,-57 183.933,-57 183.933,-57 174.267,-57 174.267,-57 169.433,-57 164.6,-61.8333 164.6,-66.6667 164.6,-66.6667 164.6,-76.3333 164.6,-76.3333 164.6,-81.1667 169.433,-86 174.267,-86"/>
<text text-anchor="middle" x="179.1" y="-67.8" font-family="Times,serif" font-size="14.00">::</text>
</a>
</g>
</g>
<!-- nd299 -->
<g id="node16" class="node"><title>nd299</title>
<g id="a_node16"><a xlink:title="nd299&#45;ContractGraph">
<ellipse fill="black" stroke="black" cx="212.4" cy="-86.5" rx="1.8" ry="1.8"/>
</a>
</g>
</g>
<!-- nd194&#45;&gt;nd299 -->
<g id="edge5" class="edge"><title>nd194:n&#45;&gt;nd299:w</title>
<path fill="none" stroke="black" d="M179.1,-87.5C179.1,-94.5035 203.596,-86.5 210.6,-86.5"/>
</g>
<!-- nd300 -->
<g id="node17" class="node"><title>nd300</title>
<g id="a_node17"><a xlink:title="nd300&#45;ContractGraph">
<ellipse fill="black" stroke="black" cx="212.4" cy="-56.5" rx="1.8" ry="1.8"/>
</a>
</g>
</g>
<!-- nd194&#45;&gt;nd300 -->
<g id="edge6" class="edge"><title>nd194:s&#45;&gt;nd300:w</title>
<path fill="none" stroke="black" d="M179.1,-55.5C179.1,-41.4929 196.593,-56.5 210.6,-56.5"/>
</g>
<!-- nd237 -->
<g id="node9" class="node"><title>nd237</title>
<g id="a_node9"><a xlink:title="nd237&#45;RecurGraph">
<ellipse fill="none" stroke="#000000" cx="127.1" cy="-140.5" rx="11" ry="11"/>
<text text-anchor="middle" x="127.1" y="-136.8" font-family="Times,serif" font-size="14.00">rec</text>
</a>
</g>
</g>
<!-- ndcluster_nd241 -->
<g id="node10" class="node"><title>ndcluster_nd241</title>
<g id="a_node10"><a xlink:title="nd241">
<ellipse fill="orange" stroke="orange" cx="179.1" cy="-158.5" rx="1.8" ry="1.8"/>
</a>
</g>
</g>
<!-- nd237&#45;&gt;ndcluster_nd241 -->
<g id="edge16" class="edge"><title>nd237:n&#45;&gt;ndcluster_nd241:e</title>
<path fill="none" stroke="grey" d="M127.1,-152.5C127.1,-203.095 190.08,-158.5 182.1,-158.5"/>
</g>
<!-- nd237&#45;&gt;ndcluster_nd241 -->
<g id="edge17" class="edge"><title>nd237:e&#45;&gt;ndcluster_nd241:w</title>
<path fill="none" stroke="black" d="M139.1,-140.5C157.387,-140.5 157.813,-158.5 176.1,-158.5"/>
</g>
<!-- nd155 -->
<g id="node12" class="node"><title>nd155</title>
<g id="a_node12"><a xlink:title="nd155&#45;AppGraph">
<path fill="none" stroke="#000000" d="M73.5473,-141.554C73.5473,-141.554 69.6719,-135.946 69.6719,-135.946 68.136,-133.723 68.136,-129.277 69.6719,-127.054 69.6719,-127.054 73.5473,-121.446 73.5473,-121.446 75.0833,-119.223 79.3212,-117.002 82.0231,-117.005 82.0231,-117.005 87.4269,-117.009 87.4269,-117.009 90.1288,-117.011 92.8307,-119.715 92.8307,-122.417 92.8307,-122.417 92.8307,-140.583 92.8307,-140.583 92.8307,-143.285 90.1288,-145.989 87.4269,-145.991 87.4269,-145.991 82.0231,-145.995 82.0231,-145.995 79.3212,-145.998 75.0833,-143.777 73.5473,-141.554"/>
<text text-anchor="middle" x="81.1" y="-127.8" font-family="Times,serif" font-size="14.00">@</text>
</a>
</g>
</g>
<!-- nd154&#45;&gt;nd155 -->
<g id="edge10" class="edge"><title>nd154:e&#45;&gt;nd155:w</title>
<path fill="none" stroke="#b70000" d="M48.1,-111.5C60.2086,-111.5 54.4914,-131.5 66.6,-131.5"/>
</g>
<!-- nd309 -->
<g id="node18" class="node"><title>nd309</title>
<g id="a_node18"><a xlink:title="nd309&#45;ConstGraph">
<path fill="none" stroke="purple" d="M76.2667,-104C76.2667,-104 85.9333,-104 85.9333,-104 90.7667,-104 95.6,-99.1667 95.6,-94.3333 95.6,-94.3333 95.6,-84.6667 95.6,-84.6667 95.6,-79.8333 90.7667,-75 85.9333,-75 85.9333,-75 76.2667,-75 76.2667,-75 71.4333,-75 66.6,-79.8333 66.6,-84.6667 66.6,-84.6667 66.6,-94.3333 66.6,-94.3333 66.6,-99.1667 71.4333,-104 76.2667,-104"/>
<text text-anchor="middle" x="81.1" y="-85.8" font-family="Times,serif" font-size="14.00">3</text>
</a>
</g>
</g>
<!-- nd154&#45;&gt;nd309 -->
<g id="edge11" class="edge"><title>nd154:s&#45;&gt;nd309:w</title>
<path fill="none" stroke="black" d="M35.1,-95.5C35.1,-81.2483 52.3483,-89.5 66.6,-89.5"/>
</g>
<!-- nd155&#45;&gt;nd237 -->
<g id="edge8" class="edge"><title>nd155:e&#45;&gt;nd237:w</title>
<path fill="none" stroke="black" d="M94.1,-131.5C104.254,-131.5 104.946,-140.5 115.1,-140.5"/>
</g>
<!-- nd157 -->
<g id="node13" class="node"><title>nd157</title>
<g id="a_node13"><a xlink:title="nd157&#45;AppGraph">
<path fill="none" stroke="#000000" d="M119.547,-111.554C119.547,-111.554 115.672,-105.946 115.672,-105.946 114.136,-103.723 114.136,-99.2771 115.672,-97.0543 115.672,-97.0543 119.547,-91.4457 119.547,-91.4457 121.083,-89.2229 125.321,-87.0023 128.023,-87.0045 128.023,-87.0045 133.427,-87.009 133.427,-87.009 136.129,-87.0113 138.831,-89.7155 138.831,-92.4174 138.831,-92.4174 138.831,-110.583 138.831,-110.583 138.831,-113.285 136.129,-115.989 133.427,-115.991 133.427,-115.991 128.023,-115.995 128.023,-115.995 125.321,-115.998 121.083,-113.777 119.547,-111.554"/>
<text text-anchor="middle" x="127.1" y="-97.8" font-family="Times,serif" font-size="14.00">@</text>
</a>
</g>
</g>
<!-- nd155&#45;&gt;nd157 -->
<g id="edge9" class="edge"><title>nd155:s&#45;&gt;nd157:w</title>
<path fill="none" stroke="#b70000" d="M81.1,-115.5C81.1,-108.683 89.3467,-113.214 95.6,-110.5 103.442,-107.096 104.051,-101.5 112.6,-101.5"/>
</g>
<!-- nd157&#45;&gt;nd194 -->
<g id="edge13" class="edge"><title>nd157:s&#45;&gt;nd194:w</title>
<path fill="none" stroke="red" d="M130.458,-75.8072C136.835,-69.368 151.257,-71.5 164.6,-71.5"/>
<polygon fill="red" stroke="red" points="127.066,-74.9052 127.1,-85.5 133.68,-77.1965 127.066,-74.9052"/>
<text text-anchor="middle" x="153.1" y="-74.3" font-family="Times,serif" font-size="14.00">x</text>
</g>
<!-- ndcluster_nd160 -->
<g id="node14" class="node"><title>ndcluster_nd160</title>
<g id="a_node14"><a xlink:title="nd160">
<ellipse fill="orange" stroke="orange" cx="179.1" cy="-104.5" rx="1.8" ry="1.8"/>
</a>
</g>
</g>
<!-- nd157&#45;&gt;ndcluster_nd160 -->
<g id="edge7" class="edge"><title>nd157:e&#45;&gt;ndcluster_nd160:w</title>
<path fill="none" stroke="black" d="M140.1,-101.5C156.155,-101.5 160.045,-104.5 176.1,-104.5"/>
</g>
<!-- nd287 -->
<g id="node15" class="node"><title>nd287</title>
<g id="a_node15"><a xlink:title="nd287&#45;ContractGraph">
<ellipse fill="black" stroke="black" cx="245.7" cy="-56.5" rx="1.8" ry="1.8"/>
</a>
</g>
</g>
<!-- nd287&#45;&gt;nd188 -->
<g id="edge15" class="edge"><title>nd287:e&#45;&gt;nd188:w</title>
<path fill="none" stroke="black" d="M248.7,-56.5C261.367,-56.5 264.533,-56.5 277.2,-56.5"/>
</g>
<!-- nd299&#45;&gt;nd22 -->
<g id="edge14" class="edge"><title>nd299:e&#45;&gt;nd22:w</title>
<path fill="none" stroke="black" d="M214.2,-86.5C221.756,-86.5 223.644,-86.5 231.2,-86.5"/>
</g>
<!-- nd300&#45;&gt;nd287 -->
<g id="edge18" class="edge"><title>nd300:e&#45;&gt;nd287:w</title>
<path fill="none" stroke="black" d="M214.2,-56.5C226.867,-56.5 230.033,-56.5 242.7,-56.5"/>
</g>
</g>
</svg>
