<?xml version="1.0" encoding="UTF-8" standalone="no"?>
<!DOCTYPE svg PUBLIC "-//W3C//DTD SVG 1.1//EN"
 "http://www.w3.org/Graphics/SVG/1.1/DTD/svg11.dtd">
<!-- Generated by graphviz version 2.38.0 (20140413.2041)
 -->
<!-- Title: G Pages: 1 -->
<svg width="464pt" height="170pt"
 viewBox="0.00 0.00 464.20 169.78" xmlns="http://www.w3.org/2000/svg" xmlns:xlink="http://www.w3.org/1999/xlink">
<g id="graph0" class="graph" transform="scale(1 1) rotate(0) translate(4 165.775)">
<title>G</title>
<polygon fill="white" stroke="none" points="-4,4 -4,-165.775 460.2,-165.775 460.2,4 -4,4"/>
<g id="clust1" class="cluster"><title>cluster_nd241</title>
<polygon fill="none" stroke="orange" points="175.3,-133.5 175.3,-153.5 194.9,-153.5 194.9,-133.5 175.3,-133.5"/>
</g>
<g id="clust2" class="cluster"><title>cluster_nd160</title>
<polygon fill="none" stroke="orange" points="173.3,-81.5 173.3,-124.5 196.9,-124.5 196.9,-81.5 173.3,-81.5"/>
<text text-anchor="middle" x="185.1" y="-109.3" font-family="Times,serif" font-size="14.00">tl</text>
</g>
<!-- nd1 -->
<g id="node1" class="node"><title>nd1</title>
<ellipse fill="black" stroke="black" cx="1.8" cy="-81.5" rx="1.8" ry="1.8"/>
</g>
<!-- nd154 -->
<g id="node12" class="node"><title>nd154</title>
<g id="a_node12"><a xlink:title="nd154&#45;AppGraph">
<path fill="none" stroke="#000000" d="M27.5473,-91.5543C27.5473,-91.5543 23.6719,-85.9457 23.6719,-85.9457 22.136,-83.7229 22.136,-79.2771 23.6719,-77.0543 23.6719,-77.0543 27.5473,-71.4457 27.5473,-71.4457 29.0833,-69.2229 33.3212,-67.0023 36.0231,-67.0045 36.0231,-67.0045 41.4269,-67.009 41.4269,-67.009 44.1288,-67.0113 46.8307,-69.7155 46.8307,-72.4174 46.8307,-72.4174 46.8307,-90.5826 46.8307,-90.5826 46.8307,-93.2845 44.1288,-95.9887 41.4269,-95.991 41.4269,-95.991 36.0231,-95.9955 36.0231,-95.9955 33.3212,-95.9977 29.0833,-93.7771 27.5473,-91.5543"/>
<text text-anchor="middle" x="35.1" y="-77.8" font-family="Times,serif" font-size="14.00">@</text>
</a>
</g>
</g>
<!-- nd1&#45;&gt;nd154 -->
<g id="edge14" class="edge"><title>nd1:e&#45;&gt;nd154:w</title>
<path fill="none" stroke="#b70000" d="M3.6,-81.5C11.1556,-81.5 13.0444,-81.5 20.6,-81.5"/>
</g>
<!-- nd22 -->
<g id="node2" class="node"><title>nd22</title>
<g id="a_node2"><a xlink:title="nd22&#45;ConstGraph">
<path fill="none" stroke="purple" d="M298.867,-101C298.867,-101 308.533,-101 308.533,-101 313.367,-101 318.2,-96.1667 318.2,-91.3333 318.2,-91.3333 318.2,-81.6667 318.2,-81.6667 318.2,-76.8333 313.367,-72 308.533,-72 308.533,-72 298.867,-72 298.867,-72 294.033,-72 289.2,-76.8333 289.2,-81.6667 289.2,-81.6667 289.2,-91.3333 289.2,-91.3333 289.2,-96.1667 294.033,-101 298.867,-101"/>
<text text-anchor="middle" x="303.7" y="-82.8" font-family="Times,serif" font-size="14.00">2</text>
</a>
</g>
</g>
<!-- nd28 -->
<g id="node3" class="node"><title>nd28</title>
<g id="a_node3"><a xlink:title="nd28&#45;ConstGraph">
<path fill="none" stroke="purple" d="M390.867,-92C390.867,-92 400.533,-92 400.533,-92 405.367,-92 410.2,-87.1667 410.2,-82.3333 410.2,-82.3333 410.2,-72.6667 410.2,-72.6667 410.2,-67.8333 405.367,-63 400.533,-63 400.533,-63 390.867,-63 390.867,-63 386.033,-63 381.2,-67.8333 381.2,-72.6667 381.2,-72.6667 381.2,-82.3333 381.2,-82.3333 381.2,-87.1667 386.033,-92 390.867,-92"/>
<text text-anchor="middle" x="395.7" y="-73.8" font-family="Times,serif" font-size="14.00">3</text>
</a>
</g>
</g>
<!-- nd34 -->
<g id="node4" class="node"><title>nd34</title>
<g id="a_node4"><a xlink:title="nd34&#45;ConstGraph">
<path fill="none" stroke="purple" d="M436.867,-71C436.867,-71 446.533,-71 446.533,-71 451.367,-71 456.2,-66.1667 456.2,-61.3333 456.2,-61.3333 456.2,-51.6667 456.2,-51.6667 456.2,-46.8333 451.367,-42 446.533,-42 446.533,-42 436.867,-42 436.867,-42 432.033,-42 427.2,-46.8333 427.2,-51.6667 427.2,-51.6667 427.2,-61.3333 427.2,-61.3333 427.2,-66.1667 432.033,-71 436.867,-71"/>
<text text-anchor="middle" x="441.7" y="-52.8" font-family="Times,serif" font-size="14.00">4</text>
</a>
</g>
</g>
<!-- nd39 -->
<g id="node5" class="node"><title>nd39</title>
<g id="a_node5"><a xlink:title="nd39&#45;ConstEmptyGraph">
<path fill="none" stroke="purple" d="M436.867,-29C436.867,-29 446.533,-29 446.533,-29 451.367,-29 456.2,-24.1667 456.2,-19.3333 456.2,-19.3333 456.2,-9.66667 456.2,-9.66667 456.2,-4.83333 451.367,-1.77636e-15 446.533,-1.77636e-15 446.533,-1.77636e-15 436.867,-1.77636e-15 436.867,-1.77636e-15 432.033,-1.77636e-15 427.2,-4.83333 427.2,-9.66667 427.2,-9.66667 427.2,-19.3333 427.2,-19.3333 427.2,-24.1667 432.033,-29 436.867,-29"/>
<text text-anchor="middle" x="441.7" y="-10.8" font-family="Times,serif" font-size="14.00">[]</text>
</a>
</g>
</g>
<!-- nd182 -->
<g id="node6" class="node"><title>nd182</title>
<g id="a_node6"><a xlink:title="nd182&#45;ConstListGraph">
<path fill="none" stroke="purple" d="M390.867,-50C390.867,-50 400.533,-50 400.533,-50 405.367,-50 410.2,-45.1667 410.2,-40.3333 410.2,-40.3333 410.2,-30.6667 410.2,-30.6667 410.2,-25.8333 405.367,-21 400.533,-21 400.533,-21 390.867,-21 390.867,-21 386.033,-21 381.2,-25.8333 381.2,-30.6667 381.2,-30.6667 381.2,-40.3333 381.2,-40.3333 381.2,-45.1667 386.033,-50 390.867,-50"/>
<text text-anchor="middle" x="395.7" y="-31.8" font-family="Times,serif" font-size="14.00">::</text>
</a>
</g>
</g>
<!-- nd182&#45;&gt;nd34 -->
<g id="edge1" class="edge"><title>nd182:n&#45;&gt;nd34:w</title>
<path fill="none" stroke="purple" d="M395.7,-51.5C395.7,-55.0438 423.656,-56.5 427.2,-56.5"/>
</g>
<!-- nd182&#45;&gt;nd39 -->
<g id="edge2" class="edge"><title>nd182:s&#45;&gt;nd39:w</title>
<path fill="none" stroke="purple" d="M395.7,-19.5C395.7,-5.32473 413.025,-14.5 427.2,-14.5"/>
</g>
<!-- nd188 -->
<g id="node7" class="node"><title>nd188</title>
<g id="a_node7"><a xlink:title="nd188&#45;ConstListGraph">
<path fill="none" stroke="purple" d="M344.867,-71C344.867,-71 354.533,-71 354.533,-71 359.367,-71 364.2,-66.1667 364.2,-61.3333 364.2,-61.3333 364.2,-51.6667 364.2,-51.6667 364.2,-46.8333 359.367,-42 354.533,-42 354.533,-42 344.867,-42 344.867,-42 340.033,-42 335.2,-46.8333 335.2,-51.6667 335.2,-51.6667 335.2,-61.3333 335.2,-61.3333 335.2,-66.1667 340.033,-71 344.867,-71"/>
<text text-anchor="middle" x="349.7" y="-52.8" font-family="Times,serif" font-size="14.00">::</text>
</a>
</g>
</g>
<!-- nd188&#45;&gt;nd28 -->
<g id="edge3" class="edge"><title>nd188:n&#45;&gt;nd28:w</title>
<path fill="none" stroke="purple" d="M349.7,-72.5C349.7,-86.6753 367.025,-77.5 381.2,-77.5"/>
</g>
<!-- nd188&#45;&gt;nd182 -->
<g id="edge4" class="edge"><title>nd188:s&#45;&gt;nd182:w</title>
<path fill="none" stroke="purple" d="M349.7,-40.5C349.7,-26.3247 367.025,-35.5 381.2,-35.5"/>
</g>
<!-- nd194 -->
<g id="node8" class="node"><title>nd194</title>
<g id="a_node8"><a xlink:title="nd194&#45;ConstListGraph">
<path fill="none" stroke="purple" d="M232.267,-86C232.267,-86 241.933,-86 241.933,-86 246.767,-86 251.6,-81.1667 251.6,-76.3333 251.6,-76.3333 251.6,-66.6667 251.6,-66.6667 251.6,-61.8333 246.767,-57 241.933,-57 241.933,-57 232.267,-57 232.267,-57 227.433,-57 222.6,-61.8333 222.6,-66.6667 222.6,-66.6667 222.6,-76.3333 222.6,-76.3333 222.6,-81.1667 227.433,-86 232.267,-86"/>
<text text-anchor="middle" x="237.1" y="-67.8" font-family="Times,serif" font-size="14.00">::</text>
</a>
</g>
</g>
<!-- nd299 -->
<g id="node20" class="node"><title>nd299</title>
<g id="a_node20"><a xlink:title="nd299&#45;ContractGraph">
<ellipse fill="black" stroke="black" cx="270.4" cy="-86.5" rx="1.8" ry="1.8"/>
</a>
</g>
</g>
<!-- nd194&#45;&gt;nd299 -->
<g id="edge5" class="edge"><title>nd194:n&#45;&gt;nd299:w</title>
<path fill="none" stroke="black" d="M237.1,-87.5C237.1,-101.507 254.593,-86.5 268.6,-86.5"/>
</g>
<!-- nd300 -->
<g id="node21" class="node"><title>nd300</title>
<g id="a_node21"><a xlink:title="nd300&#45;ContractGraph">
<ellipse fill="black" stroke="black" cx="270.4" cy="-56.5" rx="1.8" ry="1.8"/>
</a>
</g>
</g>
<!-- nd194&#45;&gt;nd300 -->
<g id="edge6" class="edge"><title>nd194:s&#45;&gt;nd300:w</title>
<path fill="none" stroke="black" d="M237.1,-55.5C237.1,-41.4929 254.593,-56.5 268.6,-56.5"/>
</g>
<!-- nd232 -->
<g id="node9" class="node"><title>nd232</title>
<g id="a_node9"><a xlink:title="nd232&#45;ConstGraph">
<path fill="none" stroke="purple" d="M180.267,-57C180.267,-57 189.933,-57 189.933,-57 194.767,-57 199.6,-52.1667 199.6,-47.3333 199.6,-47.3333 199.6,-37.6667 199.6,-37.6667 199.6,-32.8333 194.767,-28 189.933,-28 189.933,-28 180.267,-28 180.267,-28 175.433,-28 170.6,-32.8333 170.6,-37.6667 170.6,-37.6667 170.6,-47.3333 170.6,-47.3333 170.6,-52.1667 175.433,-57 180.267,-57"/>
<text text-anchor="middle" x="185.1" y="-38.8" font-family="Times,serif" font-size="14.00">1</text>
</a>
</g>
</g>
<!-- nd237 -->
<g id="node10" class="node"><title>nd237</title>
<g id="a_node10"><a xlink:title="nd237&#45;RecurGraph">
<ellipse fill="none" stroke="#000000" cx="133.1" cy="-125.5" rx="11" ry="11"/>
<text text-anchor="middle" x="133.1" y="-121.8" font-family="Times,serif" font-size="14.00">rec</text>
</a>
</g>
</g>
<!-- ndcluster_nd241 -->
<g id="node11" class="node"><title>ndcluster_nd241</title>
<g id="a_node11"><a xlink:title="nd241">
<ellipse fill="orange" stroke="orange" cx="185.1" cy="-143.5" rx="1.8" ry="1.8"/>
</a>
</g>
</g>
<!-- nd237&#45;&gt;ndcluster_nd241 -->
<g id="edge20" class="edge"><title>nd237:n&#45;&gt;ndcluster_nd241:e</title>
<path fill="none" stroke="grey" d="M133.1,-137.5C133.1,-188.095 196.08,-143.5 188.1,-143.5"/>
</g>
<!-- nd237&#45;&gt;ndcluster_nd241 -->
<g id="edge21" class="edge"><title>nd237:e&#45;&gt;ndcluster_nd241:w</title>
<path fill="none" stroke="black" d="M145.1,-125.5C163.387,-125.5 163.813,-143.5 182.1,-143.5"/>
</g>
<!-- nd155 -->
<g id="node13" class="node"><title>nd155</title>
<g id="a_node13"><a xlink:title="nd155&#45;AppGraph">
<path fill="none" stroke="#000000" d="M73.5473,-111.554C73.5473,-111.554 69.6719,-105.946 69.6719,-105.946 68.136,-103.723 68.136,-99.2771 69.6719,-97.0543 69.6719,-97.0543 73.5473,-91.4457 73.5473,-91.4457 75.0833,-89.2229 79.3212,-87.0023 82.0231,-87.0045 82.0231,-87.0045 87.4269,-87.009 87.4269,-87.009 90.1288,-87.0113 92.8307,-89.7155 92.8307,-92.4174 92.8307,-92.4174 92.8307,-110.583 92.8307,-110.583 92.8307,-113.285 90.1288,-115.989 87.4269,-115.991 87.4269,-115.991 82.0231,-115.995 82.0231,-115.995 79.3212,-115.998 75.0833,-113.777 73.5473,-111.554"/>
<text text-anchor="middle" x="81.1" y="-97.8" font-family="Times,serif" font-size="14.00">@</text>
</a>
</g>
</g>
<!-- nd154&#45;&gt;nd155 -->
<g id="edge11" class="edge"><title>nd154:e&#45;&gt;nd155:w</title>
<path fill="none" stroke="black" d="M48.1,-81.5C60.2086,-81.5 54.4914,-101.5 66.6,-101.5"/>
</g>
<!-- nd165 -->
<g id="node16" class="node"><title>nd165</title>
<g id="a_node16"><a xlink:title="nd165&#45;BinOpGraph">
<ellipse fill="none" stroke="#000000" cx="81.1" cy="-36.5" rx="14.5" ry="14.5"/>
<text text-anchor="middle" x="81.1" y="-32.8" font-family="Times,serif" font-size="14.00">+</text>
</a>
</g>
</g>
<!-- nd154&#45;&gt;nd165 -->
<g id="edge12" class="edge"><title>nd154:s&#45;&gt;nd165:w</title>
<path fill="none" stroke="#b70000" d="M35.1,-65.5C35.1,-46.4705 47.5705,-36.5 66.6,-36.5"/>
</g>
<!-- nd155&#45;&gt;nd237 -->
<g id="edge9" class="edge"><title>nd155:e&#45;&gt;nd237:w</title>
<path fill="none" stroke="black" d="M94.1,-101.5C110.155,-101.5 105.045,-125.5 121.1,-125.5"/>
</g>
<!-- nd157 -->
<g id="node14" class="node"><title>nd157</title>
<g id="a_node14"><a xlink:title="nd157&#45;AppGraph">
<path fill="none" stroke="#000000" d="M125.547,-96.5543C125.547,-96.5543 121.672,-90.9457 121.672,-90.9457 120.136,-88.7229 120.136,-84.2771 121.672,-82.0543 121.672,-82.0543 125.547,-76.4457 125.547,-76.4457 127.083,-74.2229 131.321,-72.0023 134.023,-72.0045 134.023,-72.0045 139.427,-72.009 139.427,-72.009 142.129,-72.0113 144.831,-74.7155 144.831,-77.4174 144.831,-77.4174 144.831,-95.5826 144.831,-95.5826 144.831,-98.2845 142.129,-100.989 139.427,-100.991 139.427,-100.991 134.023,-100.995 134.023,-100.995 131.321,-100.998 127.083,-98.7771 125.547,-96.5543"/>
<text text-anchor="middle" x="133.1" y="-82.8" font-family="Times,serif" font-size="14.00">@</text>
</a>
</g>
</g>
<!-- nd155&#45;&gt;nd157 -->
<g id="edge10" class="edge"><title>nd155:s&#45;&gt;nd157:w</title>
<path fill="none" stroke="black" d="M81.1,-85.5C81.1,-68.8274 101.927,-86.5 118.6,-86.5"/>
</g>
<!-- ndcluster_nd160 -->
<g id="node15" class="node"><title>ndcluster_nd160</title>
<g id="a_node15"><a xlink:title="nd160">
<ellipse fill="orange" stroke="orange" cx="185.1" cy="-91.5" rx="1.8" ry="1.8"/>
</a>
</g>
</g>
<!-- nd157&#45;&gt;ndcluster_nd160 -->
<g id="edge8" class="edge"><title>nd157:e&#45;&gt;ndcluster_nd160:w</title>
<path fill="none" stroke="black" d="M146.1,-86.5C162.254,-86.5 165.946,-91.5 182.1,-91.5"/>
</g>
<!-- nd173 -->
<g id="node17" class="node"><title>nd173</title>
<g id="a_node17"><a xlink:title="nd173&#45;ContractGraph">
<ellipse fill="black" stroke="black" cx="185.1" cy="-71.5" rx="1.8" ry="1.8"/>
</a>
</g>
</g>
<!-- nd157&#45;&gt;nd173 -->
<g id="edge13" class="edge"><title>nd157:s&#45;&gt;nd173:w</title>
<path fill="none" stroke="black" d="M133.1,-70.5C133.1,-48.7177 160.318,-71.5 182.1,-71.5"/>
</g>
<!-- nd174 -->
<g id="node18" class="node"><title>nd174</title>
<g id="a_node18"><a xlink:title="nd174&#45;ContractGraph">
<ellipse fill="black" stroke="black" cx="133.1" cy="-50.5" rx="1.8" ry="1.8"/>
</a>
</g>
</g>
<!-- nd165&#45;&gt;nd174 -->
<g id="edge15" class="edge"><title>nd165:n&#45;&gt;nd174:w</title>
<path fill="none" stroke="red" d="M81.1,-52.5C81.1,-71.0606 100.827,-56.5599 120.143,-51.846"/>
<polygon fill="red" stroke="red" points="120.659,-55.3082 130.1,-50.5 119.721,-48.3713 120.659,-55.3082"/>
</g>
<!-- nd305 -->
<g id="node22" class="node"><title>nd305</title>
<g id="a_node22"><a xlink:title="nd305&#45;ConstGraph">
<path fill="none" stroke="purple" d="M128.267,-36C128.267,-36 137.933,-36 137.933,-36 142.767,-36 147.6,-31.1667 147.6,-26.3333 147.6,-26.3333 147.6,-16.6667 147.6,-16.6667 147.6,-11.8333 142.767,-7 137.933,-7 137.933,-7 128.267,-7 128.267,-7 123.433,-7 118.6,-11.8333 118.6,-16.6667 118.6,-16.6667 118.6,-26.3333 118.6,-26.3333 118.6,-31.1667 123.433,-36 128.267,-36"/>
<text text-anchor="middle" x="133.1" y="-17.8" font-family="Times,serif" font-size="14.00">2</text>
</a>
</g>
</g>
<!-- nd165&#45;&gt;nd305 -->
<g id="edge7" class="edge"><title>nd165:s&#45;&gt;nd305:w</title>
<path fill="none" stroke="black" d="M81.1,-20.5C81.1,-3.82741 101.927,-21.5 118.6,-21.5"/>
<text text-anchor="middle" x="107.1" y="-24.3" font-family="Times,serif" font-size="14.00">n</text>
</g>
<!-- nd173&#45;&gt;nd194 -->
<g id="edge17" class="edge"><title>nd173:e&#45;&gt;nd194:w</title>
<path fill="none" stroke="black" d="M188.1,-71.5C203.433,-71.5 207.267,-71.5 222.6,-71.5"/>
<text text-anchor="middle" x="211.1" y="-75.3" font-family="Times,serif" font-size="14.00">x</text>
</g>
<!-- nd174&#45;&gt;nd232 -->
<g id="edge16" class="edge"><title>nd174:e&#45;&gt;nd232:w</title>
<path fill="none" stroke="black" d="M136.1,-50.5C151.84,-50.5 154.86,-42.5 170.6,-42.5"/>
<text text-anchor="middle" x="159.1" y="-50.3" font-family="Times,serif" font-size="14.00">y</text>
</g>
<!-- nd287 -->
<g id="node19" class="node"><title>nd287</title>
<g id="a_node19"><a xlink:title="nd287&#45;ContractGraph">
<ellipse fill="black" stroke="black" cx="303.7" cy="-56.5" rx="1.8" ry="1.8"/>
</a>
</g>
</g>
<!-- nd287&#45;&gt;nd188 -->
<g id="edge19" class="edge"><title>nd287:e&#45;&gt;nd188:w</title>
<path fill="none" stroke="black" d="M306.7,-56.5C319.367,-56.5 322.533,-56.5 335.2,-56.5"/>
</g>
<!-- nd299&#45;&gt;nd22 -->
<g id="edge18" class="edge"><title>nd299:e&#45;&gt;nd22:w</title>
<path fill="none" stroke="black" d="M272.2,-86.5C279.756,-86.5 281.644,-86.5 289.2,-86.5"/>
</g>
<!-- nd300&#45;&gt;nd287 -->
<g id="edge22" class="edge"><title>nd300:e&#45;&gt;nd287:w</title>
<path fill="none" stroke="black" d="M272.2,-56.5C284.867,-56.5 288.033,-56.5 300.7,-56.5"/>
</g>
</g>
</svg>
