<?xml version="1.0" encoding="UTF-8" standalone="no"?>
<!DOCTYPE svg PUBLIC "-//W3C//DTD SVG 1.1//EN"
 "http://www.w3.org/Graphics/SVG/1.1/DTD/svg11.dtd">
<!-- Generated by graphviz version 2.38.0 (20140413.2041)
 -->
<!-- Title: G Pages: 1 -->
<svg width="426pt" height="206pt"
 viewBox="0.00 0.00 425.80 205.50" xmlns="http://www.w3.org/2000/svg" xmlns:xlink="http://www.w3.org/1999/xlink">
<g id="graph0" class="graph" transform="scale(1 1) rotate(0) translate(4 201.5)">
<title>G</title>
<polygon fill="white" stroke="none" points="-4,4 -4,-201.5 421.8,-201.5 421.8,4 -4,4"/>
<g id="clust1" class="cluster"><title>cluster_nd318</title>
<polygon fill="none" stroke="orange" points="163.3,-169.5 163.3,-189.5 182.9,-189.5 182.9,-169.5 163.3,-169.5"/>
</g>
<g id="clust2" class="cluster"><title>cluster_nd261</title>
<polygon fill="none" stroke="orange" points="161.3,-117.5 161.3,-160.5 184.9,-160.5 184.9,-117.5 161.3,-117.5"/>
<text text-anchor="middle" x="173.1" y="-145.3" font-family="Times,serif" font-size="14.00">tl</text>
</g>
<!-- nd1 -->
<g id="node1" class="node"><title>nd1</title>
<ellipse fill="black" stroke="black" cx="1.8" cy="-108.5" rx="1.8" ry="1.8"/>
</g>
<!-- nd255 -->
<g id="node10" class="node"><title>nd255</title>
<g id="a_node10"><a xlink:title="nd255&#45;AppGraph">
<path fill="none" stroke="#000000" d="M27.5473,-118.554C27.5473,-118.554 23.6719,-112.946 23.6719,-112.946 22.136,-110.723 22.136,-106.277 23.6719,-104.054 23.6719,-104.054 27.5473,-98.4457 27.5473,-98.4457 29.0833,-96.2229 33.3212,-94.0023 36.0231,-94.0045 36.0231,-94.0045 41.4269,-94.009 41.4269,-94.009 44.1288,-94.0113 46.8307,-96.7155 46.8307,-99.4174 46.8307,-99.4174 46.8307,-117.583 46.8307,-117.583 46.8307,-120.285 44.1288,-122.989 41.4269,-122.991 41.4269,-122.991 36.0231,-122.995 36.0231,-122.995 33.3212,-122.998 29.0833,-120.777 27.5473,-118.554"/>
<text text-anchor="middle" x="35.1" y="-104.8" font-family="Times,serif" font-size="14.00">@</text>
</a>
</g>
</g>
<!-- nd1&#45;&gt;nd255 -->
<g id="edge15" class="edge"><title>nd1:e&#45;&gt;nd255:w</title>
<path fill="none" stroke="#b70000" d="M3.6,-108.5C11.1556,-108.5 13.0444,-108.5 20.6,-108.5"/>
</g>
<!-- nd28 -->
<g id="node2" class="node"><title>nd28</title>
<g id="a_node2"><a xlink:title="nd28&#45;ConstGraph">
<path fill="none" stroke="purple" d="M352.467,-94C352.467,-94 362.133,-94 362.133,-94 366.967,-94 371.8,-89.1667 371.8,-84.3333 371.8,-84.3333 371.8,-74.6667 371.8,-74.6667 371.8,-69.8333 366.967,-65 362.133,-65 362.133,-65 352.467,-65 352.467,-65 347.633,-65 342.8,-69.8333 342.8,-74.6667 342.8,-74.6667 342.8,-84.3333 342.8,-84.3333 342.8,-89.1667 347.633,-94 352.467,-94"/>
<text text-anchor="middle" x="357.3" y="-75.8" font-family="Times,serif" font-size="14.00">3</text>
</a>
</g>
</g>
<!-- nd34 -->
<g id="node3" class="node"><title>nd34</title>
<g id="a_node3"><a xlink:title="nd34&#45;ConstGraph">
<path fill="none" stroke="purple" d="M398.467,-71C398.467,-71 408.133,-71 408.133,-71 412.967,-71 417.8,-66.1667 417.8,-61.3333 417.8,-61.3333 417.8,-51.6667 417.8,-51.6667 417.8,-46.8333 412.967,-42 408.133,-42 408.133,-42 398.467,-42 398.467,-42 393.633,-42 388.8,-46.8333 388.8,-51.6667 388.8,-51.6667 388.8,-61.3333 388.8,-61.3333 388.8,-66.1667 393.633,-71 398.467,-71"/>
<text text-anchor="middle" x="403.3" y="-52.8" font-family="Times,serif" font-size="14.00">4</text>
</a>
</g>
</g>
<!-- nd39 -->
<g id="node4" class="node"><title>nd39</title>
<g id="a_node4"><a xlink:title="nd39&#45;ConstEmptyGraph">
<path fill="none" stroke="purple" d="M398.467,-29C398.467,-29 408.133,-29 408.133,-29 412.967,-29 417.8,-24.1667 417.8,-19.3333 417.8,-19.3333 417.8,-9.66667 417.8,-9.66667 417.8,-4.83333 412.967,-1.77636e-15 408.133,-1.77636e-15 408.133,-1.77636e-15 398.467,-1.77636e-15 398.467,-1.77636e-15 393.633,-1.77636e-15 388.8,-4.83333 388.8,-9.66667 388.8,-9.66667 388.8,-19.3333 388.8,-19.3333 388.8,-24.1667 393.633,-29 398.467,-29"/>
<text text-anchor="middle" x="403.3" y="-10.8" font-family="Times,serif" font-size="14.00">[]</text>
</a>
</g>
</g>
<!-- nd182 -->
<g id="node5" class="node"><title>nd182</title>
<g id="a_node5"><a xlink:title="nd182&#45;ConstListGraph">
<path fill="none" stroke="purple" d="M352.467,-50C352.467,-50 362.133,-50 362.133,-50 366.967,-50 371.8,-45.1667 371.8,-40.3333 371.8,-40.3333 371.8,-30.6667 371.8,-30.6667 371.8,-25.8333 366.967,-21 362.133,-21 362.133,-21 352.467,-21 352.467,-21 347.633,-21 342.8,-25.8333 342.8,-30.6667 342.8,-30.6667 342.8,-40.3333 342.8,-40.3333 342.8,-45.1667 347.633,-50 352.467,-50"/>
<text text-anchor="middle" x="357.3" y="-31.8" font-family="Times,serif" font-size="14.00">::</text>
</a>
</g>
</g>
<!-- nd182&#45;&gt;nd34 -->
<g id="edge1" class="edge"><title>nd182:n&#45;&gt;nd34:w</title>
<path fill="none" stroke="purple" d="M357.3,-51.5C357.3,-58.5876 381.712,-56.5 388.8,-56.5"/>
</g>
<!-- nd182&#45;&gt;nd39 -->
<g id="edge2" class="edge"><title>nd182:s&#45;&gt;nd39:w</title>
<path fill="none" stroke="purple" d="M357.3,-19.5C357.3,-5.32473 374.625,-14.5 388.8,-14.5"/>
</g>
<!-- nd188 -->
<g id="node6" class="node"><title>nd188</title>
<g id="a_node6"><a xlink:title="nd188&#45;ConstListGraph">
<path fill="none" stroke="purple" d="M265.267,-136C265.267,-136 274.933,-136 274.933,-136 279.767,-136 284.6,-131.167 284.6,-126.333 284.6,-126.333 284.6,-116.667 284.6,-116.667 284.6,-111.833 279.767,-107 274.933,-107 274.933,-107 265.267,-107 265.267,-107 260.433,-107 255.6,-111.833 255.6,-116.667 255.6,-116.667 255.6,-126.333 255.6,-126.333 255.6,-131.167 260.433,-136 265.267,-136"/>
<text text-anchor="middle" x="270.1" y="-117.8" font-family="Times,serif" font-size="14.00">::</text>
</a>
</g>
</g>
<!-- nd376 -->
<g id="node20" class="node"><title>nd376</title>
<g id="a_node20"><a xlink:title="nd376&#45;ContractGraph">
<ellipse fill="black" stroke="black" cx="303.4" cy="-79.5" rx="1.8" ry="1.8"/>
</a>
</g>
</g>
<!-- nd188&#45;&gt;nd376 -->
<g id="edge3" class="edge"><title>nd188:n&#45;&gt;nd376:w</title>
<path fill="none" stroke="black" d="M270.1,-137.5C270.1,-143.96 279.393,-140.323 284.6,-136.5 292.107,-130.988 300.427,-79.5 301.6,-79.5"/>
</g>
<!-- nd377 -->
<g id="node21" class="node"><title>nd377</title>
<g id="a_node21"><a xlink:title="nd377&#45;ContractGraph">
<ellipse fill="black" stroke="black" cx="303.4" cy="-35.5" rx="1.8" ry="1.8"/>
</a>
</g>
</g>
<!-- nd188&#45;&gt;nd377 -->
<g id="edge4" class="edge"><title>nd188:s&#45;&gt;nd377:w</title>
<path fill="none" stroke="black" d="M270.1,-105.5C270.1,-98.6832 279.967,-105.5 284.6,-100.5 294.747,-89.548 286.67,-35.5 301.6,-35.5"/>
</g>
<!-- nd309 -->
<g id="node7" class="node"><title>nd309</title>
<g id="a_node7"><a xlink:title="nd309&#45;ConstGraph">
<path fill="none" stroke="purple" d="M265.267,-94C265.267,-94 274.933,-94 274.933,-94 279.767,-94 284.6,-89.1667 284.6,-84.3333 284.6,-84.3333 284.6,-74.6667 284.6,-74.6667 284.6,-69.8333 279.767,-65 274.933,-65 274.933,-65 265.267,-65 265.267,-65 260.433,-65 255.6,-69.8333 255.6,-74.6667 255.6,-74.6667 255.6,-84.3333 255.6,-84.3333 255.6,-89.1667 260.433,-94 265.267,-94"/>
<text text-anchor="middle" x="270.1" y="-75.8" font-family="Times,serif" font-size="14.00">3</text>
</a>
</g>
</g>
<!-- nd314 -->
<g id="node8" class="node"><title>nd314</title>
<g id="a_node8"><a xlink:title="nd314&#45;RecurGraph">
<ellipse fill="none" stroke="#000000" cx="127.1" cy="-161.5" rx="11" ry="11"/>
<text text-anchor="middle" x="127.1" y="-157.8" font-family="Times,serif" font-size="14.00">rec</text>
</a>
</g>
</g>
<!-- ndcluster_nd318 -->
<g id="node9" class="node"><title>ndcluster_nd318</title>
<g id="a_node9"><a xlink:title="nd318">
<ellipse fill="orange" stroke="orange" cx="173.1" cy="-179.5" rx="1.8" ry="1.8"/>
</a>
</g>
</g>
<!-- nd314&#45;&gt;ndcluster_nd318 -->
<g id="edge19" class="edge"><title>nd314:n&#45;&gt;ndcluster_nd318:e</title>
<path fill="none" stroke="grey" d="M127.1,-173.5C127.1,-215.455 183.047,-179.5 176.1,-179.5"/>
</g>
<!-- nd314&#45;&gt;ndcluster_nd318 -->
<g id="edge20" class="edge"><title>nd314:e&#45;&gt;ndcluster_nd318:w</title>
<path fill="none" stroke="black" d="M139.1,-161.5C155.032,-161.5 154.168,-179.5 170.1,-179.5"/>
</g>
<!-- nd256 -->
<g id="node11" class="node"><title>nd256</title>
<g id="a_node11"><a xlink:title="nd256&#45;AppGraph">
<path fill="none" stroke="#000000" d="M73.5473,-147.554C73.5473,-147.554 69.6719,-141.946 69.6719,-141.946 68.136,-139.723 68.136,-135.277 69.6719,-133.054 69.6719,-133.054 73.5473,-127.446 73.5473,-127.446 75.0833,-125.223 79.3212,-123.002 82.0231,-123.005 82.0231,-123.005 87.4269,-123.009 87.4269,-123.009 90.1288,-123.011 92.8307,-125.715 92.8307,-128.417 92.8307,-128.417 92.8307,-146.583 92.8307,-146.583 92.8307,-149.285 90.1288,-151.989 87.4269,-151.991 87.4269,-151.991 82.0231,-151.995 82.0231,-151.995 79.3212,-151.998 75.0833,-149.777 73.5473,-147.554"/>
<text text-anchor="middle" x="81.1" y="-133.8" font-family="Times,serif" font-size="14.00">@</text>
</a>
</g>
</g>
<!-- nd255&#45;&gt;nd256 -->
<g id="edge12" class="edge"><title>nd255:e&#45;&gt;nd256:w</title>
<path fill="none" stroke="black" d="M48.1,-108.5C63.3882,-108.5 51.3118,-137.5 66.6,-137.5"/>
</g>
<!-- nd266 -->
<g id="node14" class="node"><title>nd266</title>
<g id="a_node14"><a xlink:title="nd266&#45;BinOpGraph">
<ellipse fill="none" stroke="#000000" cx="127.1" cy="-64.5" rx="14.5" ry="14.5"/>
<text text-anchor="middle" x="127.1" y="-60.8" font-family="Times,serif" font-size="14.00">+</text>
</a>
</g>
</g>
<!-- nd255&#45;&gt;nd266 -->
<g id="edge13" class="edge"><title>nd255:s&#45;&gt;nd266:w</title>
<path fill="none" stroke="#b70000" d="M35.1,-92.5C35.1,-55.8765 75.9765,-64.5 112.6,-64.5"/>
</g>
<!-- nd256&#45;&gt;nd314 -->
<g id="edge10" class="edge"><title>nd256:e&#45;&gt;nd314:w</title>
<path fill="none" stroke="black" d="M94.1,-137.5C108.274,-137.5 100.926,-161.5 115.1,-161.5"/>
</g>
<!-- nd258 -->
<g id="node12" class="node"><title>nd258</title>
<g id="a_node12"><a xlink:title="nd258&#45;AppGraph">
<path fill="none" stroke="#000000" d="M119.547,-132.554C119.547,-132.554 115.672,-126.946 115.672,-126.946 114.136,-124.723 114.136,-120.277 115.672,-118.054 115.672,-118.054 119.547,-112.446 119.547,-112.446 121.083,-110.223 125.321,-108.002 128.023,-108.005 128.023,-108.005 133.427,-108.009 133.427,-108.009 136.129,-108.011 138.831,-110.715 138.831,-113.417 138.831,-113.417 138.831,-131.583 138.831,-131.583 138.831,-134.285 136.129,-136.989 133.427,-136.991 133.427,-136.991 128.023,-136.995 128.023,-136.995 125.321,-136.998 121.083,-134.777 119.547,-132.554"/>
<text text-anchor="middle" x="127.1" y="-118.8" font-family="Times,serif" font-size="14.00">@</text>
</a>
</g>
</g>
<!-- nd256&#45;&gt;nd258 -->
<g id="edge11" class="edge"><title>nd256:s&#45;&gt;nd258:w</title>
<path fill="none" stroke="black" d="M81.1,-121.5C81.1,-107.493 98.5929,-122.5 112.6,-122.5"/>
</g>
<!-- ndcluster_nd261 -->
<g id="node13" class="node"><title>ndcluster_nd261</title>
<g id="a_node13"><a xlink:title="nd261">
<ellipse fill="orange" stroke="orange" cx="173.1" cy="-127.5" rx="1.8" ry="1.8"/>
</a>
</g>
</g>
<!-- nd258&#45;&gt;ndcluster_nd261 -->
<g id="edge9" class="edge"><title>nd258:e&#45;&gt;ndcluster_nd261:w</title>
<path fill="none" stroke="black" d="M140.1,-122.5C153.617,-122.5 156.583,-127.5 170.1,-127.5"/>
</g>
<!-- nd274 -->
<g id="node15" class="node"><title>nd274</title>
<g id="a_node15"><a xlink:title="nd274&#45;ContractGraph">
<ellipse fill="black" stroke="black" cx="173.1" cy="-107.5" rx="1.8" ry="1.8"/>
</a>
</g>
</g>
<!-- nd258&#45;&gt;nd274 -->
<g id="edge14" class="edge"><title>nd258:s&#45;&gt;nd274:w</title>
<path fill="none" stroke="black" d="M127.1,-106.5C127.1,-87.3837 150.984,-107.5 170.1,-107.5"/>
</g>
<!-- nd275 -->
<g id="node16" class="node"><title>nd275</title>
<g id="a_node16"><a xlink:title="nd275&#45;ContractGraph">
<ellipse fill="black" stroke="black" cx="173.1" cy="-79.5" rx="1.8" ry="1.8"/>
</a>
</g>
</g>
<!-- nd266&#45;&gt;nd275 -->
<g id="edge16" class="edge"><title>nd266:n&#45;&gt;nd275:w</title>
<path fill="none" stroke="black" d="M127.1,-80.5C127.1,-99.6163 150.984,-79.5 170.1,-79.5"/>
</g>
<!-- nd272 -->
<g id="node22" class="node"><title>nd272</title>
<g id="a_node22"><a xlink:title="nd272&#45;UnOpGraph">
<ellipse fill="none" stroke="#000000" cx="173.1" cy="-43.5" rx="14.5" ry="14.5"/>
<text text-anchor="middle" x="173.1" y="-39.8" font-family="Times,serif" font-size="14.00">hd</text>
</a>
</g>
</g>
<!-- nd266&#45;&gt;nd272 -->
<g id="edge7" class="edge"><title>nd266:s&#45;&gt;nd272:w</title>
<path fill="none" stroke="red" d="M127.1,-48.5C127.1,-37.6471 137.255,-40.4818 148.378,-42.4067"/>
<polygon fill="red" stroke="red" points="148.284,-45.9166 158.6,-43.5 149.029,-38.9563 148.284,-45.9166"/>
</g>
<!-- nd274&#45;&gt;nd188 -->
<g id="edge18" class="edge"><title>nd274:e&#45;&gt;nd188:w</title>
<path fill="none" stroke="black" d="M176.1,-107.5C211.977,-107.5 219.723,-121.5 255.6,-121.5"/>
<text text-anchor="middle" x="221.6" y="-124.3" font-family="Times,serif" font-size="14.00">x</text>
</g>
<!-- nd275&#45;&gt;nd309 -->
<g id="edge17" class="edge"><title>nd275:e&#45;&gt;nd309:w</title>
<path fill="none" stroke="black" d="M176.1,-79.5C211.433,-79.5 220.267,-79.5 255.6,-79.5"/>
<text text-anchor="middle" x="221.6" y="-83.3" font-family="Times,serif" font-size="14.00">y</text>
</g>
<!-- nd363 -->
<g id="node17" class="node"><title>nd363</title>
<g id="a_node17"><a xlink:title="nd363&#45;ContractGraph">
<ellipse fill="black" stroke="black" cx="324" cy="-79.5" rx="1.8" ry="1.8"/>
</a>
</g>
</g>
<!-- nd363&#45;&gt;nd28 -->
<g id="edge5" class="edge"><title>nd363:e&#45;&gt;nd28:w</title>
<path fill="none" stroke="black" d="M325.8,-79.5C333.356,-79.5 335.244,-79.5 342.8,-79.5"/>
</g>
<!-- nd364 -->
<g id="node18" class="node"><title>nd364</title>
<g id="a_node18"><a xlink:title="nd364&#45;ContractGraph">
<ellipse fill="black" stroke="black" cx="324" cy="-35.5" rx="1.8" ry="1.8"/>
</a>
</g>
</g>
<!-- nd364&#45;&gt;nd182 -->
<g id="edge6" class="edge"><title>nd364:e&#45;&gt;nd182:w</title>
<path fill="none" stroke="black" d="M325.8,-35.5C333.356,-35.5 335.244,-35.5 342.8,-35.5"/>
</g>
<!-- nd373 -->
<g id="node19" class="node"><title>nd373</title>
<g id="a_node19"><a xlink:title="nd373&#45;ConstListGraph">
<path fill="none" stroke="purple" d="M265.267,-52C265.267,-52 274.933,-52 274.933,-52 279.767,-52 284.6,-47.1667 284.6,-42.3333 284.6,-42.3333 284.6,-32.6667 284.6,-32.6667 284.6,-27.8333 279.767,-23 274.933,-23 274.933,-23 265.267,-23 265.267,-23 260.433,-23 255.6,-27.8333 255.6,-32.6667 255.6,-32.6667 255.6,-42.3333 255.6,-42.3333 255.6,-47.1667 260.433,-52 265.267,-52"/>
<text text-anchor="middle" x="270.1" y="-33.8" font-family="Times,serif" font-size="14.00">::</text>
</a>
</g>
</g>
<!-- nd373&#45;&gt;nd376 -->
<g id="edge23" class="edge"><title>nd373:n&#45;&gt;nd376:w</title>
<path fill="none" stroke="black" d="M270.1,-53.5C270.1,-60.3168 279.017,-54.5883 284.6,-58.5 294.434,-65.3906 289.592,-79.5 301.6,-79.5"/>
</g>
<!-- nd373&#45;&gt;nd377 -->
<g id="edge24" class="edge"><title>nd373:s&#45;&gt;nd377:w</title>
<path fill="none" stroke="black" d="M270.1,-21.5C270.1,-15.0402 278.556,-20.2192 284.6,-22.5 293.499,-25.8582 292.088,-35.5 301.6,-35.5"/>
</g>
<!-- nd376&#45;&gt;nd363 -->
<g id="edge21" class="edge"><title>nd376:e&#45;&gt;nd363:w</title>
<path fill="none" stroke="black" d="M305.2,-79.5C312.756,-79.5 314.644,-79.5 322.2,-79.5"/>
</g>
<!-- nd377&#45;&gt;nd364 -->
<g id="edge22" class="edge"><title>nd377:e&#45;&gt;nd364:w</title>
<path fill="none" stroke="black" d="M305.2,-35.5C312.756,-35.5 314.644,-35.5 322.2,-35.5"/>
</g>
<!-- nd272&#45;&gt;nd373 -->
<g id="edge8" class="edge"><title>nd272:e&#45;&gt;nd373:w</title>
<path fill="none" stroke="black" d="M187.6,-43.5C217.94,-43.5 225.26,-37.5 255.6,-37.5"/>
<text text-anchor="middle" x="221.6" y="-47.3" font-family="Times,serif" font-size="14.00">op_arg, x</text>
</g>
</g>
</svg>
