<?xml version="1.0" encoding="UTF-8" standalone="no"?>
<!DOCTYPE svg PUBLIC "-//W3C//DTD SVG 1.1//EN"
 "http://www.w3.org/Graphics/SVG/1.1/DTD/svg11.dtd">
<!-- Generated by graphviz version 2.38.0 (20140413.2041)
 -->
<!-- Title: G Pages: 1 -->
<svg width="504pt" height="213pt"
 viewBox="0.00 0.00 504.20 212.78" xmlns="http://www.w3.org/2000/svg" xmlns:xlink="http://www.w3.org/1999/xlink">
<g id="graph0" class="graph" transform="scale(1 1) rotate(0) translate(4 208.775)">
<title>G</title>
<polygon fill="white" stroke="none" points="-4,4 -4,-208.775 500.2,-208.775 500.2,4 -4,4"/>
<g id="clust1" class="cluster"><title>cluster_nd140</title>
<polygon fill="none" stroke="orange" points="169.3,-176.5 169.3,-196.5 188.9,-196.5 188.9,-176.5 169.3,-176.5"/>
</g>
<g id="clust2" class="cluster"><title>cluster_nd91</title>
<polygon fill="none" stroke="orange" points="167.3,-124.5 167.3,-167.5 190.9,-167.5 190.9,-124.5 167.3,-124.5"/>
<text text-anchor="middle" x="179.1" y="-152.3" font-family="Times,serif" font-size="14.00">tl</text>
</g>
<!-- nd1 -->
<g id="node1" class="node"><title>nd1</title>
<ellipse fill="black" stroke="black" cx="1.8" cy="-121.5" rx="1.8" ry="1.8"/>
</g>
<!-- nd84 -->
<g id="node14" class="node"><title>nd84</title>
<g id="a_node14"><a xlink:title="nd84&#45;AppGraph">
<path fill="none" stroke="#000000" d="M27.5473,-131.554C27.5473,-131.554 23.6719,-125.946 23.6719,-125.946 22.136,-123.723 22.136,-119.277 23.6719,-117.054 23.6719,-117.054 27.5473,-111.446 27.5473,-111.446 29.0833,-109.223 33.3212,-107.002 36.0231,-107.005 36.0231,-107.005 41.4269,-107.009 41.4269,-107.009 44.1288,-107.011 46.8307,-109.715 46.8307,-112.417 46.8307,-112.417 46.8307,-130.583 46.8307,-130.583 46.8307,-133.285 44.1288,-135.989 41.4269,-135.991 41.4269,-135.991 36.0231,-135.995 36.0231,-135.995 33.3212,-135.998 29.0833,-133.777 27.5473,-131.554"/>
<text text-anchor="middle" x="35.1" y="-117.8" font-family="Times,serif" font-size="14.00">@</text>
</a>
</g>
</g>
<!-- nd1&#45;&gt;nd84 -->
<g id="edge16" class="edge"><title>nd1:e&#45;&gt;nd84:w</title>
<path fill="none" stroke="#b70000" d="M3.6,-121.5C11.1556,-121.5 13.0444,-121.5 20.6,-121.5"/>
</g>
<!-- nd136 -->
<g id="node2" class="node"><title>nd136</title>
<g id="a_node2"><a xlink:title="nd136&#45;RecurGraph">
<ellipse fill="none" stroke="#000000" cx="127.1" cy="-168.5" rx="11" ry="11"/>
<text text-anchor="middle" x="127.1" y="-164.8" font-family="Times,serif" font-size="14.00">rec</text>
</a>
</g>
</g>
<!-- ndcluster_nd140 -->
<g id="node3" class="node"><title>ndcluster_nd140</title>
<g id="a_node3"><a xlink:title="nd140">
<ellipse fill="orange" stroke="orange" cx="179.1" cy="-186.5" rx="1.8" ry="1.8"/>
</a>
</g>
</g>
<!-- nd136&#45;&gt;ndcluster_nd140 -->
<g id="edge20" class="edge"><title>nd136:n&#45;&gt;ndcluster_nd140:e</title>
<path fill="none" stroke="grey" d="M127.1,-180.5C127.1,-231.095 190.08,-186.5 182.1,-186.5"/>
</g>
<!-- nd136&#45;&gt;ndcluster_nd140 -->
<g id="edge21" class="edge"><title>nd136:e&#45;&gt;ndcluster_nd140:w</title>
<path fill="none" stroke="black" d="M139.1,-168.5C157.387,-168.5 157.813,-186.5 176.1,-186.5"/>
</g>
<!-- nd16 -->
<g id="node4" class="node"><title>nd16</title>
<g id="a_node4"><a xlink:title="nd16&#45;ConstGraph">
<path fill="none" stroke="purple" d="M292.867,-121C292.867,-121 302.533,-121 302.533,-121 307.367,-121 312.2,-116.167 312.2,-111.333 312.2,-111.333 312.2,-101.667 312.2,-101.667 312.2,-96.8333 307.367,-92 302.533,-92 302.533,-92 292.867,-92 292.867,-92 288.033,-92 283.2,-96.8333 283.2,-101.667 283.2,-101.667 283.2,-111.333 283.2,-111.333 283.2,-116.167 288.033,-121 292.867,-121"/>
<text text-anchor="middle" x="297.7" y="-102.8" font-family="Times,serif" font-size="14.00">1</text>
</a>
</g>
</g>
<!-- nd22 -->
<g id="node5" class="node"><title>nd22</title>
<g id="a_node5"><a xlink:title="nd22&#45;ConstGraph">
<path fill="none" stroke="purple" d="M384.867,-113C384.867,-113 394.533,-113 394.533,-113 399.367,-113 404.2,-108.167 404.2,-103.333 404.2,-103.333 404.2,-93.6667 404.2,-93.6667 404.2,-88.8333 399.367,-84 394.533,-84 394.533,-84 384.867,-84 384.867,-84 380.033,-84 375.2,-88.8333 375.2,-93.6667 375.2,-93.6667 375.2,-103.333 375.2,-103.333 375.2,-108.167 380.033,-113 384.867,-113"/>
<text text-anchor="middle" x="389.7" y="-94.8" font-family="Times,serif" font-size="14.00">2</text>
</a>
</g>
</g>
<!-- nd28 -->
<g id="node6" class="node"><title>nd28</title>
<g id="a_node6"><a xlink:title="nd28&#45;ConstGraph">
<path fill="none" stroke="purple" d="M430.867,-92C430.867,-92 440.533,-92 440.533,-92 445.367,-92 450.2,-87.1667 450.2,-82.3333 450.2,-82.3333 450.2,-72.6667 450.2,-72.6667 450.2,-67.8333 445.367,-63 440.533,-63 440.533,-63 430.867,-63 430.867,-63 426.033,-63 421.2,-67.8333 421.2,-72.6667 421.2,-72.6667 421.2,-82.3333 421.2,-82.3333 421.2,-87.1667 426.033,-92 430.867,-92"/>
<text text-anchor="middle" x="435.7" y="-73.8" font-family="Times,serif" font-size="14.00">3</text>
</a>
</g>
</g>
<!-- nd34 -->
<g id="node7" class="node"><title>nd34</title>
<g id="a_node7"><a xlink:title="nd34&#45;ConstGraph">
<path fill="none" stroke="purple" d="M476.867,-71C476.867,-71 486.533,-71 486.533,-71 491.367,-71 496.2,-66.1667 496.2,-61.3333 496.2,-61.3333 496.2,-51.6667 496.2,-51.6667 496.2,-46.8333 491.367,-42 486.533,-42 486.533,-42 476.867,-42 476.867,-42 472.033,-42 467.2,-46.8333 467.2,-51.6667 467.2,-51.6667 467.2,-61.3333 467.2,-61.3333 467.2,-66.1667 472.033,-71 476.867,-71"/>
<text text-anchor="middle" x="481.7" y="-52.8" font-family="Times,serif" font-size="14.00">4</text>
</a>
</g>
</g>
<!-- nd39 -->
<g id="node8" class="node"><title>nd39</title>
<g id="a_node8"><a xlink:title="nd39&#45;ConstEmptyGraph">
<path fill="none" stroke="purple" d="M476.867,-29C476.867,-29 486.533,-29 486.533,-29 491.367,-29 496.2,-24.1667 496.2,-19.3333 496.2,-19.3333 496.2,-9.66667 496.2,-9.66667 496.2,-4.83333 491.367,-1.77636e-15 486.533,-1.77636e-15 486.533,-1.77636e-15 476.867,-1.77636e-15 476.867,-1.77636e-15 472.033,-1.77636e-15 467.2,-4.83333 467.2,-9.66667 467.2,-9.66667 467.2,-19.3333 467.2,-19.3333 467.2,-24.1667 472.033,-29 476.867,-29"/>
<text text-anchor="middle" x="481.7" y="-10.8" font-family="Times,serif" font-size="14.00">[]</text>
</a>
</g>
</g>
<!-- nd50 -->
<g id="node9" class="node"><title>nd50</title>
<g id="a_node9"><a xlink:title="nd50&#45;ConstGraph">
<path fill="none" stroke="purple" d="M174.267,-100C174.267,-100 183.933,-100 183.933,-100 188.767,-100 193.6,-95.1667 193.6,-90.3333 193.6,-90.3333 193.6,-80.6667 193.6,-80.6667 193.6,-75.8333 188.767,-71 183.933,-71 183.933,-71 174.267,-71 174.267,-71 169.433,-71 164.6,-75.8333 164.6,-80.6667 164.6,-80.6667 164.6,-90.3333 164.6,-90.3333 164.6,-95.1667 169.433,-100 174.267,-100"/>
<text text-anchor="middle" x="179.1" y="-81.8" font-family="Times,serif" font-size="14.00">0</text>
</a>
</g>
</g>
<!-- nd182 -->
<g id="node10" class="node"><title>nd182</title>
<g id="a_node10"><a xlink:title="nd182&#45;ConstListGraph">
<path fill="none" stroke="purple" d="M430.867,-50C430.867,-50 440.533,-50 440.533,-50 445.367,-50 450.2,-45.1667 450.2,-40.3333 450.2,-40.3333 450.2,-30.6667 450.2,-30.6667 450.2,-25.8333 445.367,-21 440.533,-21 440.533,-21 430.867,-21 430.867,-21 426.033,-21 421.2,-25.8333 421.2,-30.6667 421.2,-30.6667 421.2,-40.3333 421.2,-40.3333 421.2,-45.1667 426.033,-50 430.867,-50"/>
<text text-anchor="middle" x="435.7" y="-31.8" font-family="Times,serif" font-size="14.00">::</text>
</a>
</g>
</g>
<!-- nd182&#45;&gt;nd34 -->
<g id="edge1" class="edge"><title>nd182:n&#45;&gt;nd34:w</title>
<path fill="none" stroke="purple" d="M435.7,-51.5C435.7,-55.0438 463.656,-56.5 467.2,-56.5"/>
</g>
<!-- nd182&#45;&gt;nd39 -->
<g id="edge2" class="edge"><title>nd182:s&#45;&gt;nd39:w</title>
<path fill="none" stroke="purple" d="M435.7,-19.5C435.7,-5.32473 453.025,-14.5 467.2,-14.5"/>
</g>
<!-- nd188 -->
<g id="node11" class="node"><title>nd188</title>
<g id="a_node11"><a xlink:title="nd188&#45;ConstListGraph">
<path fill="none" stroke="purple" d="M384.867,-71C384.867,-71 394.533,-71 394.533,-71 399.367,-71 404.2,-66.1667 404.2,-61.3333 404.2,-61.3333 404.2,-51.6667 404.2,-51.6667 404.2,-46.8333 399.367,-42 394.533,-42 394.533,-42 384.867,-42 384.867,-42 380.033,-42 375.2,-46.8333 375.2,-51.6667 375.2,-51.6667 375.2,-61.3333 375.2,-61.3333 375.2,-66.1667 380.033,-71 384.867,-71"/>
<text text-anchor="middle" x="389.7" y="-52.8" font-family="Times,serif" font-size="14.00">::</text>
</a>
</g>
</g>
<!-- nd188&#45;&gt;nd28 -->
<g id="edge3" class="edge"><title>nd188:n&#45;&gt;nd28:w</title>
<path fill="none" stroke="purple" d="M389.7,-72.5C389.7,-76.0438 417.656,-77.5 421.2,-77.5"/>
</g>
<!-- nd188&#45;&gt;nd182 -->
<g id="edge4" class="edge"><title>nd188:s&#45;&gt;nd182:w</title>
<path fill="none" stroke="purple" d="M389.7,-40.5C389.7,-26.3247 407.025,-35.5 421.2,-35.5"/>
</g>
<!-- nd194 -->
<g id="node12" class="node"><title>nd194</title>
<g id="a_node12"><a xlink:title="nd194&#45;ConstListGraph">
<path fill="none" stroke="purple" d="M338.867,-92C338.867,-92 348.533,-92 348.533,-92 353.367,-92 358.2,-87.1667 358.2,-82.3333 358.2,-82.3333 358.2,-72.6667 358.2,-72.6667 358.2,-67.8333 353.367,-63 348.533,-63 348.533,-63 338.867,-63 338.867,-63 334.033,-63 329.2,-67.8333 329.2,-72.6667 329.2,-72.6667 329.2,-82.3333 329.2,-82.3333 329.2,-87.1667 334.033,-92 338.867,-92"/>
<text text-anchor="middle" x="343.7" y="-73.8" font-family="Times,serif" font-size="14.00">::</text>
</a>
</g>
</g>
<!-- nd194&#45;&gt;nd22 -->
<g id="edge5" class="edge"><title>nd194:n&#45;&gt;nd22:w</title>
<path fill="none" stroke="purple" d="M343.7,-93.5C343.7,-107.675 361.025,-98.5 375.2,-98.5"/>
</g>
<!-- nd194&#45;&gt;nd188 -->
<g id="edge6" class="edge"><title>nd194:s&#45;&gt;nd188:w</title>
<path fill="none" stroke="purple" d="M343.7,-61.5C343.7,-47.3247 361.025,-56.5 375.2,-56.5"/>
</g>
<!-- nd200 -->
<g id="node13" class="node"><title>nd200</title>
<g id="a_node13"><a xlink:title="nd200&#45;ConstListGraph">
<path fill="none" stroke="purple" d="M226.267,-107C226.267,-107 235.933,-107 235.933,-107 240.767,-107 245.6,-102.167 245.6,-97.3333 245.6,-97.3333 245.6,-87.6667 245.6,-87.6667 245.6,-82.8333 240.767,-78 235.933,-78 235.933,-78 226.267,-78 226.267,-78 221.433,-78 216.6,-82.8333 216.6,-87.6667 216.6,-87.6667 216.6,-97.3333 216.6,-97.3333 216.6,-102.167 221.433,-107 226.267,-107"/>
<text text-anchor="middle" x="231.1" y="-88.8" font-family="Times,serif" font-size="14.00">::</text>
</a>
</g>
</g>
<!-- nd222 -->
<g id="node22" class="node"><title>nd222</title>
<g id="a_node22"><a xlink:title="nd222&#45;ContractGraph">
<ellipse fill="black" stroke="black" cx="264.4" cy="-106.5" rx="1.8" ry="1.8"/>
</a>
</g>
</g>
<!-- nd200&#45;&gt;nd222 -->
<g id="edge7" class="edge"><title>nd200:n&#45;&gt;nd222:w</title>
<path fill="none" stroke="black" d="M231.1,-108.5C231.1,-122.528 248.572,-106.5 262.6,-106.5"/>
</g>
<!-- nd223 -->
<g id="node23" class="node"><title>nd223</title>
<g id="a_node23"><a xlink:title="nd223&#45;ContractGraph">
<ellipse fill="black" stroke="black" cx="264.4" cy="-77.5" rx="1.8" ry="1.8"/>
</a>
</g>
</g>
<!-- nd200&#45;&gt;nd223 -->
<g id="edge8" class="edge"><title>nd200:s&#45;&gt;nd223:w</title>
<path fill="none" stroke="black" d="M231.1,-76.5C231.1,-62.4929 248.593,-77.5 262.6,-77.5"/>
</g>
<!-- nd85 -->
<g id="node15" class="node"><title>nd85</title>
<g id="a_node15"><a xlink:title="nd85&#45;AppGraph">
<path fill="none" stroke="#000000" d="M73.5473,-154.554C73.5473,-154.554 69.6719,-148.946 69.6719,-148.946 68.136,-146.723 68.136,-142.277 69.6719,-140.054 69.6719,-140.054 73.5473,-134.446 73.5473,-134.446 75.0833,-132.223 79.3212,-130.002 82.0231,-130.005 82.0231,-130.005 87.4269,-130.009 87.4269,-130.009 90.1288,-130.011 92.8307,-132.715 92.8307,-135.417 92.8307,-135.417 92.8307,-153.583 92.8307,-153.583 92.8307,-156.285 90.1288,-158.989 87.4269,-158.991 87.4269,-158.991 82.0231,-158.995 82.0231,-158.995 79.3212,-158.998 75.0833,-156.777 73.5473,-154.554"/>
<text text-anchor="middle" x="81.1" y="-140.8" font-family="Times,serif" font-size="14.00">@</text>
</a>
</g>
</g>
<!-- nd84&#45;&gt;nd85 -->
<g id="edge13" class="edge"><title>nd84:e&#45;&gt;nd85:w</title>
<path fill="none" stroke="black" d="M48.1,-121.5C61.2186,-121.5 53.4814,-144.5 66.6,-144.5"/>
</g>
<!-- nd105 -->
<g id="node18" class="node"><title>nd105</title>
<g id="a_node18"><a xlink:title="nd105&#45;BinOpGraph">
<ellipse fill="none" stroke="#000000" cx="81.1" cy="-70.5" rx="14.5" ry="14.5"/>
<text text-anchor="middle" x="81.1" y="-66.8" font-family="Times,serif" font-size="14.00">+</text>
</a>
</g>
</g>
<!-- nd84&#45;&gt;nd105 -->
<g id="edge14" class="edge"><title>nd84:s&#45;&gt;nd105:w</title>
<path fill="none" stroke="#b70000" d="M35.1,-105.5C35.1,-84.5721 45.6721,-70.5 66.6,-70.5"/>
</g>
<!-- nd85&#45;&gt;nd136 -->
<g id="edge10" class="edge"><title>nd85:e&#45;&gt;nd136:w</title>
<path fill="none" stroke="black" d="M94.1,-144.5C108.274,-144.5 100.926,-168.5 115.1,-168.5"/>
</g>
<!-- nd89 -->
<g id="node16" class="node"><title>nd89</title>
<g id="a_node16"><a xlink:title="nd89&#45;AppGraph">
<path fill="none" stroke="#000000" d="M119.547,-139.554C119.547,-139.554 115.672,-133.946 115.672,-133.946 114.136,-131.723 114.136,-127.277 115.672,-125.054 115.672,-125.054 119.547,-119.446 119.547,-119.446 121.083,-117.223 125.321,-115.002 128.023,-115.005 128.023,-115.005 133.427,-115.009 133.427,-115.009 136.129,-115.011 138.831,-117.715 138.831,-120.417 138.831,-120.417 138.831,-138.583 138.831,-138.583 138.831,-141.285 136.129,-143.989 133.427,-143.991 133.427,-143.991 128.023,-143.995 128.023,-143.995 125.321,-143.998 121.083,-141.777 119.547,-139.554"/>
<text text-anchor="middle" x="127.1" y="-125.8" font-family="Times,serif" font-size="14.00">@</text>
</a>
</g>
</g>
<!-- nd85&#45;&gt;nd89 -->
<g id="edge11" class="edge"><title>nd85:s&#45;&gt;nd89:w</title>
<path fill="none" stroke="black" d="M81.1,-128.5C81.1,-114.493 98.5929,-129.5 112.6,-129.5"/>
</g>
<!-- ndcluster_nd91 -->
<g id="node17" class="node"><title>ndcluster_nd91</title>
<g id="a_node17"><a xlink:title="nd91">
<ellipse fill="orange" stroke="orange" cx="179.1" cy="-134.5" rx="1.8" ry="1.8"/>
</a>
</g>
</g>
<!-- nd89&#45;&gt;ndcluster_nd91 -->
<g id="edge9" class="edge"><title>nd89:e&#45;&gt;ndcluster_nd91:w</title>
<path fill="none" stroke="black" d="M140.1,-129.5C156.254,-129.5 159.946,-134.5 176.1,-134.5"/>
</g>
<!-- nd123 -->
<g id="node19" class="node"><title>nd123</title>
<g id="a_node19"><a xlink:title="nd123&#45;ContractGraph">
<ellipse fill="black" stroke="black" cx="179.1" cy="-114.5" rx="1.8" ry="1.8"/>
</a>
</g>
</g>
<!-- nd89&#45;&gt;nd123 -->
<g id="edge15" class="edge"><title>nd89:s&#45;&gt;nd123:w</title>
<path fill="none" stroke="black" d="M127.1,-113.5C127.1,-91.7177 154.318,-114.5 176.1,-114.5"/>
</g>
<!-- nd125 -->
<g id="node20" class="node"><title>nd125</title>
<g id="a_node20"><a xlink:title="nd125&#45;ContractGraph">
<ellipse fill="black" stroke="black" cx="127.1" cy="-85.5" rx="1.8" ry="1.8"/>
</a>
</g>
</g>
<!-- nd105&#45;&gt;nd125 -->
<g id="edge17" class="edge"><title>nd105:n&#45;&gt;nd125:w</title>
<path fill="none" stroke="black" d="M81.1,-86.5C81.1,-105.616 104.984,-85.5 124.1,-85.5"/>
</g>
<!-- nd105&#45;&gt;nd222 -->
<g id="edge12" class="edge"><title>nd105:s&#45;&gt;nd222:w</title>
<path fill="none" stroke="#b70000" d="M81.1,-54.5C81.1,-34.4211 106.021,-50.5 126.1,-50.5 126.1,-50.5 126.1,-50.5 232.1,-50.5 260.441,-50.5 234.259,-106.5 262.6,-106.5"/>
</g>
<!-- nd123&#45;&gt;nd200 -->
<g id="edge19" class="edge"><title>nd123:e&#45;&gt;nd200:w</title>
<path fill="none" stroke="black" d="M182.1,-114.5C200.286,-114.5 198.414,-92.5 216.6,-92.5"/>
<text text-anchor="middle" x="205.1" y="-103.3" font-family="Times,serif" font-size="14.00">x</text>
</g>
<!-- nd125&#45;&gt;nd50 -->
<g id="edge18" class="edge"><title>nd125:e&#45;&gt;nd50:w</title>
<path fill="none" stroke="black" d="M130.1,-85.5C145.433,-85.5 149.267,-85.5 164.6,-85.5"/>
<text text-anchor="middle" x="153.1" y="-89.3" font-family="Times,serif" font-size="14.00">y</text>
</g>
<!-- nd210 -->
<g id="node21" class="node"><title>nd210</title>
<g id="a_node21"><a xlink:title="nd210&#45;ContractGraph">
<ellipse fill="black" stroke="black" cx="297.7" cy="-77.5" rx="1.8" ry="1.8"/>
</a>
</g>
</g>
<!-- nd210&#45;&gt;nd194 -->
<g id="edge23" class="edge"><title>nd210:e&#45;&gt;nd194:w</title>
<path fill="none" stroke="black" d="M300.7,-77.5C313.367,-77.5 316.533,-77.5 329.2,-77.5"/>
</g>
<!-- nd222&#45;&gt;nd16 -->
<g id="edge22" class="edge"><title>nd222:e&#45;&gt;nd16:w</title>
<path fill="none" stroke="red" d="M266.2,-106.5C269.033,-106.5 271.07,-106.5 272.907,-106.5"/>
<polygon fill="red" stroke="red" points="273.2,-110 283.2,-106.5 273.2,-103 273.2,-110"/>
</g>
<!-- nd223&#45;&gt;nd210 -->
<g id="edge24" class="edge"><title>nd223:e&#45;&gt;nd210:w</title>
<path fill="none" stroke="black" d="M266.2,-77.5C278.867,-77.5 282.033,-77.5 294.7,-77.5"/>
</g>
</g>
</svg>
