<?xml version="1.0" encoding="UTF-8" standalone="no"?>
<!DOCTYPE svg PUBLIC "-//W3C//DTD SVG 1.1//EN"
 "http://www.w3.org/Graphics/SVG/1.1/DTD/svg11.dtd">
<!-- Generated by graphviz version 2.38.0 (20140413.2041)
 -->
<!-- Title: G Pages: 1 -->
<svg width="366pt" height="240pt"
 viewBox="0.00 0.00 366.20 239.78" xmlns="http://www.w3.org/2000/svg" xmlns:xlink="http://www.w3.org/1999/xlink">
<g id="graph0" class="graph" transform="scale(1 1) rotate(0) translate(4 235.775)">
<title>G</title>
<polygon fill="white" stroke="none" points="-4,4 -4,-235.775 362.2,-235.775 362.2,4 -4,4"/>
<g id="clust1" class="cluster"><title>cluster_nd318</title>
<polygon fill="none" stroke="orange" points="169.3,-203.5 169.3,-223.5 188.9,-223.5 188.9,-203.5 169.3,-203.5"/>
</g>
<g id="clust2" class="cluster"><title>cluster_nd261</title>
<polygon fill="none" stroke="orange" points="167.3,-151.5 167.3,-194.5 190.9,-194.5 190.9,-151.5 167.3,-151.5"/>
<text text-anchor="middle" x="179.1" y="-179.3" font-family="Times,serif" font-size="14.00">tl</text>
</g>
<g id="clust3" class="cluster"><title>cluster_nd270</title>
<polygon fill="none" stroke="orange" points="164.3,-62.5 164.3,-105.5 193.9,-105.5 193.9,-62.5 164.3,-62.5"/>
<text text-anchor="middle" x="179.1" y="-90.3" font-family="Times,serif" font-size="14.00">hd</text>
</g>
<!-- nd1 -->
<g id="node1" class="node"><title>nd1</title>
<ellipse fill="black" stroke="black" cx="1.8" cy="-154.5" rx="1.8" ry="1.8"/>
</g>
<!-- nd255 -->
<g id="node10" class="node"><title>nd255</title>
<g id="a_node10"><a xlink:title="nd255&#45;AppGraph">
<path fill="none" stroke="#000000" d="M27.5473,-164.554C27.5473,-164.554 23.6719,-158.946 23.6719,-158.946 22.136,-156.723 22.136,-152.277 23.6719,-150.054 23.6719,-150.054 27.5473,-144.446 27.5473,-144.446 29.0833,-142.223 33.3212,-140.002 36.0231,-140.005 36.0231,-140.005 41.4269,-140.009 41.4269,-140.009 44.1288,-140.011 46.8307,-142.715 46.8307,-145.417 46.8307,-145.417 46.8307,-163.583 46.8307,-163.583 46.8307,-166.285 44.1288,-168.989 41.4269,-168.991 41.4269,-168.991 36.0231,-168.995 36.0231,-168.995 33.3212,-168.998 29.0833,-166.777 27.5473,-164.554"/>
<text text-anchor="middle" x="35.1" y="-150.8" font-family="Times,serif" font-size="14.00">@</text>
</a>
</g>
</g>
<!-- nd1&#45;&gt;nd255 -->
<g id="edge16" class="edge"><title>nd1:e&#45;&gt;nd255:w</title>
<path fill="none" stroke="#b70000" d="M3.6,-154.5C11.1556,-154.5 13.0444,-154.5 20.6,-154.5"/>
</g>
<!-- nd28 -->
<g id="node2" class="node"><title>nd28</title>
<g id="a_node2"><a xlink:title="nd28&#45;ConstGraph">
<path fill="none" stroke="purple" d="M292.867,-92C292.867,-92 302.533,-92 302.533,-92 307.367,-92 312.2,-87.1667 312.2,-82.3333 312.2,-82.3333 312.2,-72.6667 312.2,-72.6667 312.2,-67.8333 307.367,-63 302.533,-63 302.533,-63 292.867,-63 292.867,-63 288.033,-63 283.2,-67.8333 283.2,-72.6667 283.2,-72.6667 283.2,-82.3333 283.2,-82.3333 283.2,-87.1667 288.033,-92 292.867,-92"/>
<text text-anchor="middle" x="297.7" y="-73.8" font-family="Times,serif" font-size="14.00">3</text>
</a>
</g>
</g>
<!-- nd34 -->
<g id="node3" class="node"><title>nd34</title>
<g id="a_node3"><a xlink:title="nd34&#45;ConstGraph">
<path fill="none" stroke="purple" d="M338.867,-71C338.867,-71 348.533,-71 348.533,-71 353.367,-71 358.2,-66.1667 358.2,-61.3333 358.2,-61.3333 358.2,-51.6667 358.2,-51.6667 358.2,-46.8333 353.367,-42 348.533,-42 348.533,-42 338.867,-42 338.867,-42 334.033,-42 329.2,-46.8333 329.2,-51.6667 329.2,-51.6667 329.2,-61.3333 329.2,-61.3333 329.2,-66.1667 334.033,-71 338.867,-71"/>
<text text-anchor="middle" x="343.7" y="-52.8" font-family="Times,serif" font-size="14.00">4</text>
</a>
</g>
</g>
<!-- nd39 -->
<g id="node4" class="node"><title>nd39</title>
<g id="a_node4"><a xlink:title="nd39&#45;ConstEmptyGraph">
<path fill="none" stroke="purple" d="M338.867,-29C338.867,-29 348.533,-29 348.533,-29 353.367,-29 358.2,-24.1667 358.2,-19.3333 358.2,-19.3333 358.2,-9.66667 358.2,-9.66667 358.2,-4.83333 353.367,-1.77636e-15 348.533,-1.77636e-15 348.533,-1.77636e-15 338.867,-1.77636e-15 338.867,-1.77636e-15 334.033,-1.77636e-15 329.2,-4.83333 329.2,-9.66667 329.2,-9.66667 329.2,-19.3333 329.2,-19.3333 329.2,-24.1667 334.033,-29 338.867,-29"/>
<text text-anchor="middle" x="343.7" y="-10.8" font-family="Times,serif" font-size="14.00">[]</text>
</a>
</g>
</g>
<!-- nd182 -->
<g id="node5" class="node"><title>nd182</title>
<g id="a_node5"><a xlink:title="nd182&#45;ConstListGraph">
<path fill="none" stroke="purple" d="M292.867,-50C292.867,-50 302.533,-50 302.533,-50 307.367,-50 312.2,-45.1667 312.2,-40.3333 312.2,-40.3333 312.2,-30.6667 312.2,-30.6667 312.2,-25.8333 307.367,-21 302.533,-21 302.533,-21 292.867,-21 292.867,-21 288.033,-21 283.2,-25.8333 283.2,-30.6667 283.2,-30.6667 283.2,-40.3333 283.2,-40.3333 283.2,-45.1667 288.033,-50 292.867,-50"/>
<text text-anchor="middle" x="297.7" y="-31.8" font-family="Times,serif" font-size="14.00">::</text>
</a>
</g>
</g>
<!-- nd182&#45;&gt;nd34 -->
<g id="edge1" class="edge"><title>nd182:n&#45;&gt;nd34:w</title>
<path fill="none" stroke="purple" d="M297.7,-51.5C297.7,-55.0438 325.656,-56.5 329.2,-56.5"/>
</g>
<!-- nd182&#45;&gt;nd39 -->
<g id="edge2" class="edge"><title>nd182:s&#45;&gt;nd39:w</title>
<path fill="none" stroke="purple" d="M297.7,-19.5C297.7,-5.32473 315.025,-14.5 329.2,-14.5"/>
</g>
<!-- nd188 -->
<g id="node6" class="node"><title>nd188</title>
<g id="a_node6"><a xlink:title="nd188&#45;ConstListGraph">
<path fill="none" stroke="purple" d="M226.267,-67C226.267,-67 235.933,-67 235.933,-67 240.767,-67 245.6,-62.1667 245.6,-57.3333 245.6,-57.3333 245.6,-47.6667 245.6,-47.6667 245.6,-42.8333 240.767,-38 235.933,-38 235.933,-38 226.267,-38 226.267,-38 221.433,-38 216.6,-42.8333 216.6,-47.6667 216.6,-47.6667 216.6,-57.3333 216.6,-57.3333 216.6,-62.1667 221.433,-67 226.267,-67"/>
<text text-anchor="middle" x="231.1" y="-48.8" font-family="Times,serif" font-size="14.00">::</text>
</a>
</g>
</g>
<!-- nd363 -->
<g id="node19" class="node"><title>nd363</title>
<g id="a_node19"><a xlink:title="nd363&#45;ContractGraph">
<ellipse fill="black" stroke="black" cx="264.4" cy="-71.5" rx="1.8" ry="1.8"/>
</a>
</g>
</g>
<!-- nd188&#45;&gt;nd363 -->
<g id="edge3" class="edge"><title>nd188:n&#45;&gt;nd363:w</title>
<path fill="none" stroke="black" d="M231.1,-68.5C231.1,-82.5633 248.537,-71.5 262.6,-71.5"/>
</g>
<!-- nd364 -->
<g id="node20" class="node"><title>nd364</title>
<g id="a_node20"><a xlink:title="nd364&#45;ContractGraph">
<ellipse fill="black" stroke="black" cx="264.4" cy="-35.5" rx="1.8" ry="1.8"/>
</a>
</g>
</g>
<!-- nd188&#45;&gt;nd364 -->
<g id="edge4" class="edge"><title>nd188:s&#45;&gt;nd364:w</title>
<path fill="none" stroke="black" d="M231.1,-36.5C231.1,-22.4929 248.593,-35.5 262.6,-35.5"/>
</g>
<!-- nd309 -->
<g id="node7" class="node"><title>nd309</title>
<g id="a_node7"><a xlink:title="nd309&#45;ConstGraph">
<path fill="none" stroke="purple" d="M174.267,-143C174.267,-143 183.933,-143 183.933,-143 188.767,-143 193.6,-138.167 193.6,-133.333 193.6,-133.333 193.6,-123.667 193.6,-123.667 193.6,-118.833 188.767,-114 183.933,-114 183.933,-114 174.267,-114 174.267,-114 169.433,-114 164.6,-118.833 164.6,-123.667 164.6,-123.667 164.6,-133.333 164.6,-133.333 164.6,-138.167 169.433,-143 174.267,-143"/>
<text text-anchor="middle" x="179.1" y="-124.8" font-family="Times,serif" font-size="14.00">3</text>
</a>
</g>
</g>
<!-- nd314 -->
<g id="node8" class="node"><title>nd314</title>
<g id="a_node8"><a xlink:title="nd314&#45;RecurGraph">
<ellipse fill="none" stroke="#000000" cx="127.1" cy="-195.5" rx="11" ry="11"/>
<text text-anchor="middle" x="127.1" y="-191.8" font-family="Times,serif" font-size="14.00">rec</text>
</a>
</g>
</g>
<!-- ndcluster_nd318 -->
<g id="node9" class="node"><title>ndcluster_nd318</title>
<g id="a_node9"><a xlink:title="nd318">
<ellipse fill="orange" stroke="orange" cx="179.1" cy="-213.5" rx="1.8" ry="1.8"/>
</a>
</g>
</g>
<!-- nd314&#45;&gt;ndcluster_nd318 -->
<g id="edge20" class="edge"><title>nd314:n&#45;&gt;ndcluster_nd318:e</title>
<path fill="none" stroke="grey" d="M127.1,-207.5C127.1,-258.095 190.08,-213.5 182.1,-213.5"/>
</g>
<!-- nd314&#45;&gt;ndcluster_nd318 -->
<g id="edge21" class="edge"><title>nd314:e&#45;&gt;ndcluster_nd318:w</title>
<path fill="none" stroke="black" d="M139.1,-195.5C157.387,-195.5 157.813,-213.5 176.1,-213.5"/>
</g>
<!-- nd256 -->
<g id="node11" class="node"><title>nd256</title>
<g id="a_node11"><a xlink:title="nd256&#45;AppGraph">
<path fill="none" stroke="#000000" d="M73.5473,-181.554C73.5473,-181.554 69.6719,-175.946 69.6719,-175.946 68.136,-173.723 68.136,-169.277 69.6719,-167.054 69.6719,-167.054 73.5473,-161.446 73.5473,-161.446 75.0833,-159.223 79.3212,-157.002 82.0231,-157.005 82.0231,-157.005 87.4269,-157.009 87.4269,-157.009 90.1288,-157.011 92.8307,-159.715 92.8307,-162.417 92.8307,-162.417 92.8307,-180.583 92.8307,-180.583 92.8307,-183.285 90.1288,-185.989 87.4269,-185.991 87.4269,-185.991 82.0231,-185.995 82.0231,-185.995 79.3212,-185.998 75.0833,-183.777 73.5473,-181.554"/>
<text text-anchor="middle" x="81.1" y="-167.8" font-family="Times,serif" font-size="14.00">@</text>
</a>
</g>
</g>
<!-- nd255&#45;&gt;nd256 -->
<g id="edge12" class="edge"><title>nd255:e&#45;&gt;nd256:w</title>
<path fill="none" stroke="black" d="M48.1,-154.5C59.2665,-154.5 55.4335,-171.5 66.6,-171.5"/>
</g>
<!-- nd266 -->
<g id="node14" class="node"><title>nd266</title>
<g id="a_node14"><a xlink:title="nd266&#45;BinOpGraph">
<ellipse fill="none" stroke="#000000" cx="81.1" cy="-112.5" rx="14.5" ry="14.5"/>
<text text-anchor="middle" x="81.1" y="-108.8" font-family="Times,serif" font-size="14.00">+</text>
</a>
</g>
</g>
<!-- nd255&#45;&gt;nd266 -->
<g id="edge13" class="edge"><title>nd255:s&#45;&gt;nd266:w</title>
<path fill="none" stroke="#b70000" d="M35.1,-138.5C35.1,-120.347 48.447,-112.5 66.6,-112.5"/>
</g>
<!-- nd256&#45;&gt;nd314 -->
<g id="edge8" class="edge"><title>nd256:e&#45;&gt;nd314:w</title>
<path fill="none" stroke="black" d="M94.1,-171.5C108.274,-171.5 100.926,-195.5 115.1,-195.5"/>
</g>
<!-- nd258 -->
<g id="node12" class="node"><title>nd258</title>
<g id="a_node12"><a xlink:title="nd258&#45;AppGraph">
<path fill="none" stroke="#000000" d="M119.547,-166.554C119.547,-166.554 115.672,-160.946 115.672,-160.946 114.136,-158.723 114.136,-154.277 115.672,-152.054 115.672,-152.054 119.547,-146.446 119.547,-146.446 121.083,-144.223 125.321,-142.002 128.023,-142.005 128.023,-142.005 133.427,-142.009 133.427,-142.009 136.129,-142.011 138.831,-144.715 138.831,-147.417 138.831,-147.417 138.831,-165.583 138.831,-165.583 138.831,-168.285 136.129,-170.989 133.427,-170.991 133.427,-170.991 128.023,-170.995 128.023,-170.995 125.321,-170.998 121.083,-168.777 119.547,-166.554"/>
<text text-anchor="middle" x="127.1" y="-152.8" font-family="Times,serif" font-size="14.00">@</text>
</a>
</g>
</g>
<!-- nd256&#45;&gt;nd258 -->
<g id="edge9" class="edge"><title>nd256:s&#45;&gt;nd258:w</title>
<path fill="none" stroke="black" d="M81.1,-155.5C81.1,-141.493 98.5929,-156.5 112.6,-156.5"/>
</g>
<!-- ndcluster_nd261 -->
<g id="node13" class="node"><title>ndcluster_nd261</title>
<g id="a_node13"><a xlink:title="nd261">
<ellipse fill="orange" stroke="orange" cx="179.1" cy="-161.5" rx="1.8" ry="1.8"/>
</a>
</g>
</g>
<!-- nd258&#45;&gt;ndcluster_nd261 -->
<g id="edge7" class="edge"><title>nd258:e&#45;&gt;ndcluster_nd261:w</title>
<path fill="none" stroke="black" d="M140.1,-156.5C156.254,-156.5 159.946,-161.5 176.1,-161.5"/>
</g>
<!-- nd274 -->
<g id="node17" class="node"><title>nd274</title>
<g id="a_node17"><a xlink:title="nd274&#45;ContractGraph">
<ellipse fill="black" stroke="black" cx="179.1" cy="-52.5" rx="1.8" ry="1.8"/>
</a>
</g>
</g>
<!-- nd258&#45;&gt;nd274 -->
<g id="edge15" class="edge"><title>nd258:s&#45;&gt;nd274:w</title>
<path fill="none" stroke="black" d="M127.1,-140.5C127.1,-133.683 136.882,-140.42 141.6,-135.5 169.251,-106.668 136.151,-52.5 176.1,-52.5"/>
</g>
<!-- nd267 -->
<g id="node15" class="node"><title>nd267</title>
<g id="a_node15"><a xlink:title="nd267&#45;AppGraph">
<path fill="none" stroke="#000000" d="M119.547,-82.5543C119.547,-82.5543 115.672,-76.9457 115.672,-76.9457 114.136,-74.7229 114.136,-70.2771 115.672,-68.0543 115.672,-68.0543 119.547,-62.4457 119.547,-62.4457 121.083,-60.2229 125.321,-58.0023 128.023,-58.0045 128.023,-58.0045 133.427,-58.009 133.427,-58.009 136.129,-58.0113 138.831,-60.7155 138.831,-63.4174 138.831,-63.4174 138.831,-81.5826 138.831,-81.5826 138.831,-84.2845 136.129,-86.9887 133.427,-86.991 133.427,-86.991 128.023,-86.9955 128.023,-86.9955 125.321,-86.9977 121.083,-84.7771 119.547,-82.5543"/>
<text text-anchor="middle" x="127.1" y="-68.8" font-family="Times,serif" font-size="14.00">@</text>
</a>
</g>
</g>
<!-- nd266&#45;&gt;nd267 -->
<g id="edge11" class="edge"><title>nd266:s&#45;&gt;nd267:w</title>
<path fill="none" stroke="#b70000" d="M81.1,-96.5C81.1,-78.8995 94.9995,-72.5 112.6,-72.5"/>
</g>
<!-- nd275 -->
<g id="node18" class="node"><title>nd275</title>
<g id="a_node18"><a xlink:title="nd275&#45;ContractGraph">
<ellipse fill="black" stroke="black" cx="127.1" cy="-127.5" rx="1.8" ry="1.8"/>
</a>
</g>
</g>
<!-- nd266&#45;&gt;nd275 -->
<g id="edge17" class="edge"><title>nd266:n&#45;&gt;nd275:w</title>
<path fill="none" stroke="black" d="M81.1,-128.5C81.1,-147.616 104.984,-127.5 124.1,-127.5"/>
</g>
<!-- ndcluster_nd270 -->
<g id="node16" class="node"><title>ndcluster_nd270</title>
<g id="a_node16"><a xlink:title="nd270">
<ellipse fill="orange" stroke="orange" cx="179.1" cy="-72.5" rx="1.8" ry="1.8"/>
</a>
</g>
</g>
<!-- nd267&#45;&gt;ndcluster_nd270 -->
<g id="edge10" class="edge"><title>nd267:e&#45;&gt;ndcluster_nd270:w</title>
<path fill="none" stroke="black" d="M140.1,-72.5C156.1,-72.5 160.1,-72.5 176.1,-72.5"/>
</g>
<!-- nd267&#45;&gt;nd274 -->
<g id="edge14" class="edge"><title>nd267:s&#45;&gt;nd274:w</title>
<path fill="none" stroke="#b70000" d="M127.1,-56.5C127.1,-34.6498 154.25,-52.5 176.1,-52.5"/>
</g>
<!-- nd274&#45;&gt;nd188 -->
<g id="edge19" class="edge"><title>nd274:e&#45;&gt;nd188:w</title>
<path fill="none" stroke="red" d="M182.1,-52.5C193.36,-52.5 198.419,-52.5 206.384,-52.5"/>
<polygon fill="red" stroke="red" points="206.6,-56.0001 216.6,-52.5 206.6,-49.0001 206.6,-56.0001"/>
<text text-anchor="middle" x="205.1" y="-56.3" font-family="Times,serif" font-size="14.00">x</text>
</g>
<!-- nd275&#45;&gt;nd309 -->
<g id="edge18" class="edge"><title>nd275:e&#45;&gt;nd309:w</title>
<path fill="none" stroke="black" d="M130.1,-127.5C145.306,-127.5 149.094,-128.5 164.3,-128.5"/>
<text text-anchor="middle" x="153.1" y="-131.3" font-family="Times,serif" font-size="14.00">y</text>
</g>
<!-- nd363&#45;&gt;nd28 -->
<g id="edge5" class="edge"><title>nd363:e&#45;&gt;nd28:w</title>
<path fill="none" stroke="black" d="M266.2,-71.5C274.212,-71.5 275.188,-77.5 283.2,-77.5"/>
</g>
<!-- nd364&#45;&gt;nd182 -->
<g id="edge6" class="edge"><title>nd364:e&#45;&gt;nd182:w</title>
<path fill="none" stroke="black" d="M266.2,-35.5C273.756,-35.5 275.644,-35.5 283.2,-35.5"/>
</g>
</g>
</svg>
