<?xml version="1.0" encoding="UTF-8" standalone="no"?>
<!DOCTYPE svg PUBLIC "-//W3C//DTD SVG 1.1//EN"
 "http://www.w3.org/Graphics/SVG/1.1/DTD/svg11.dtd">
<!-- Generated by graphviz version 2.38.0 (20140413.2041)
 -->
<!-- Title: G Pages: 1 -->
<svg width="493pt" height="202pt"
 viewBox="0.00 0.00 492.80 202.34" xmlns="http://www.w3.org/2000/svg" xmlns:xlink="http://www.w3.org/1999/xlink">
<g id="graph0" class="graph" transform="scale(1 1) rotate(0) translate(4 198.341)">
<title>G</title>
<polygon fill="white" stroke="none" points="-4,4 -4,-198.341 488.8,-198.341 488.8,4 -4,4"/>
<g id="clust1" class="cluster"><title>cluster_nd140</title>
<polygon fill="none" stroke="orange" points="160.6,-154.5 160.6,-174.5 180.2,-174.5 180.2,-154.5 160.6,-154.5"/>
</g>
<g id="clust2" class="cluster"><title>cluster_nd91</title>
<polygon fill="none" stroke="orange" points="158.6,-102.5 158.6,-145.5 182.2,-145.5 182.2,-102.5 158.6,-102.5"/>
<text text-anchor="middle" x="170.4" y="-130.3" font-family="Times,serif" font-size="14.00">tl</text>
</g>
<!-- nd1 -->
<g id="node1" class="node"><title>nd1</title>
<ellipse fill="black" stroke="black" cx="1.8" cy="-120.5" rx="1.8" ry="1.8"/>
</g>
<!-- nd84 -->
<g id="node13" class="node"><title>nd84</title>
<g id="a_node13"><a xlink:title="nd84&#45;AppGraph">
<path fill="none" stroke="#000000" d="M27.5473,-130.554C27.5473,-130.554 23.6719,-124.946 23.6719,-124.946 22.136,-122.723 22.136,-118.277 23.6719,-116.054 23.6719,-116.054 27.5473,-110.446 27.5473,-110.446 29.0833,-108.223 33.3212,-106.002 36.0231,-106.005 36.0231,-106.005 41.4269,-106.009 41.4269,-106.009 44.1288,-106.011 46.8307,-108.715 46.8307,-111.417 46.8307,-111.417 46.8307,-129.583 46.8307,-129.583 46.8307,-132.285 44.1288,-134.989 41.4269,-134.991 41.4269,-134.991 36.0231,-134.995 36.0231,-134.995 33.3212,-134.998 29.0833,-132.777 27.5473,-130.554"/>
<text text-anchor="middle" x="35.1" y="-116.8" font-family="Times,serif" font-size="14.00">@</text>
</a>
</g>
</g>
<!-- nd1&#45;&gt;nd84 -->
<g id="edge15" class="edge"><title>nd1:e&#45;&gt;nd84:w</title>
<path fill="none" stroke="#b70000" d="M3.6,-120.5C11.1556,-120.5 13.0444,-120.5 20.6,-120.5"/>
</g>
<!-- nd136 -->
<g id="node2" class="node"><title>nd136</title>
<g id="a_node2"><a xlink:title="nd136&#45;RecurGraph">
<ellipse fill="none" stroke="#000000" cx="127.1" cy="-149.5" rx="11" ry="11"/>
<text text-anchor="middle" x="127.1" y="-145.8" font-family="Times,serif" font-size="14.00">rec</text>
</a>
</g>
</g>
<!-- ndcluster_nd140 -->
<g id="node3" class="node"><title>ndcluster_nd140</title>
<g id="a_node3"><a xlink:title="nd140">
<ellipse fill="orange" stroke="orange" cx="170.4" cy="-164.5" rx="1.8" ry="1.8"/>
</a>
</g>
</g>
<!-- nd136&#45;&gt;ndcluster_nd140 -->
<g id="edge17" class="edge"><title>nd136:n&#45;&gt;ndcluster_nd140:e</title>
<path fill="none" stroke="grey" d="M127.1,-161.5C127.1,-232.886 186.13,-164.5 173.4,-164.5"/>
</g>
<!-- nd136&#45;&gt;ndcluster_nd140 -->
<g id="edge18" class="edge"><title>nd136:e&#45;&gt;ndcluster_nd140:w</title>
<path fill="none" stroke="black" d="M139.1,-149.5C153.335,-149.5 153.165,-164.5 167.4,-164.5"/>
</g>
<!-- nd16 -->
<g id="node4" class="node"><title>nd16</title>
<g id="a_node4"><a xlink:title="nd16&#45;ConstGraph">
<path fill="none" stroke="purple" d="M281.467,-122C281.467,-122 291.133,-122 291.133,-122 295.967,-122 300.8,-117.167 300.8,-112.333 300.8,-112.333 300.8,-102.667 300.8,-102.667 300.8,-97.8333 295.967,-93 291.133,-93 291.133,-93 281.467,-93 281.467,-93 276.633,-93 271.8,-97.8333 271.8,-102.667 271.8,-102.667 271.8,-112.333 271.8,-112.333 271.8,-117.167 276.633,-122 281.467,-122"/>
<text text-anchor="middle" x="286.3" y="-103.8" font-family="Times,serif" font-size="14.00">1</text>
</a>
</g>
</g>
<!-- nd22 -->
<g id="node5" class="node"><title>nd22</title>
<g id="a_node5"><a xlink:title="nd22&#45;ConstGraph">
<path fill="none" stroke="purple" d="M373.467,-113C373.467,-113 383.133,-113 383.133,-113 387.967,-113 392.8,-108.167 392.8,-103.333 392.8,-103.333 392.8,-93.6667 392.8,-93.6667 392.8,-88.8333 387.967,-84 383.133,-84 383.133,-84 373.467,-84 373.467,-84 368.633,-84 363.8,-88.8333 363.8,-93.6667 363.8,-93.6667 363.8,-103.333 363.8,-103.333 363.8,-108.167 368.633,-113 373.467,-113"/>
<text text-anchor="middle" x="378.3" y="-94.8" font-family="Times,serif" font-size="14.00">2</text>
</a>
</g>
</g>
<!-- nd28 -->
<g id="node6" class="node"><title>nd28</title>
<g id="a_node6"><a xlink:title="nd28&#45;ConstGraph">
<path fill="none" stroke="purple" d="M419.467,-92C419.467,-92 429.133,-92 429.133,-92 433.967,-92 438.8,-87.1667 438.8,-82.3333 438.8,-82.3333 438.8,-72.6667 438.8,-72.6667 438.8,-67.8333 433.967,-63 429.133,-63 429.133,-63 419.467,-63 419.467,-63 414.633,-63 409.8,-67.8333 409.8,-72.6667 409.8,-72.6667 409.8,-82.3333 409.8,-82.3333 409.8,-87.1667 414.633,-92 419.467,-92"/>
<text text-anchor="middle" x="424.3" y="-73.8" font-family="Times,serif" font-size="14.00">3</text>
</a>
</g>
</g>
<!-- nd34 -->
<g id="node7" class="node"><title>nd34</title>
<g id="a_node7"><a xlink:title="nd34&#45;ConstGraph">
<path fill="none" stroke="purple" d="M465.467,-71C465.467,-71 475.133,-71 475.133,-71 479.967,-71 484.8,-66.1667 484.8,-61.3333 484.8,-61.3333 484.8,-51.6667 484.8,-51.6667 484.8,-46.8333 479.967,-42 475.133,-42 475.133,-42 465.467,-42 465.467,-42 460.633,-42 455.8,-46.8333 455.8,-51.6667 455.8,-51.6667 455.8,-61.3333 455.8,-61.3333 455.8,-66.1667 460.633,-71 465.467,-71"/>
<text text-anchor="middle" x="470.3" y="-52.8" font-family="Times,serif" font-size="14.00">4</text>
</a>
</g>
</g>
<!-- nd39 -->
<g id="node8" class="node"><title>nd39</title>
<g id="a_node8"><a xlink:title="nd39&#45;ConstEmptyGraph">
<path fill="none" stroke="purple" d="M465.467,-29C465.467,-29 475.133,-29 475.133,-29 479.967,-29 484.8,-24.1667 484.8,-19.3333 484.8,-19.3333 484.8,-9.66667 484.8,-9.66667 484.8,-4.83333 479.967,-1.77636e-15 475.133,-1.77636e-15 475.133,-1.77636e-15 465.467,-1.77636e-15 465.467,-1.77636e-15 460.633,-1.77636e-15 455.8,-4.83333 455.8,-9.66667 455.8,-9.66667 455.8,-19.3333 455.8,-19.3333 455.8,-24.1667 460.633,-29 465.467,-29"/>
<text text-anchor="middle" x="470.3" y="-10.8" font-family="Times,serif" font-size="14.00">[]</text>
</a>
</g>
</g>
<!-- nd182 -->
<g id="node9" class="node"><title>nd182</title>
<g id="a_node9"><a xlink:title="nd182&#45;ConstListGraph">
<path fill="none" stroke="purple" d="M419.467,-50C419.467,-50 429.133,-50 429.133,-50 433.967,-50 438.8,-45.1667 438.8,-40.3333 438.8,-40.3333 438.8,-30.6667 438.8,-30.6667 438.8,-25.8333 433.967,-21 429.133,-21 429.133,-21 419.467,-21 419.467,-21 414.633,-21 409.8,-25.8333 409.8,-30.6667 409.8,-30.6667 409.8,-40.3333 409.8,-40.3333 409.8,-45.1667 414.633,-50 419.467,-50"/>
<text text-anchor="middle" x="424.3" y="-31.8" font-family="Times,serif" font-size="14.00">::</text>
</a>
</g>
</g>
<!-- nd182&#45;&gt;nd34 -->
<g id="edge1" class="edge"><title>nd182:n&#45;&gt;nd34:w</title>
<path fill="none" stroke="purple" d="M424.3,-51.5C424.3,-55.0438 452.256,-56.5 455.8,-56.5"/>
</g>
<!-- nd182&#45;&gt;nd39 -->
<g id="edge2" class="edge"><title>nd182:s&#45;&gt;nd39:w</title>
<path fill="none" stroke="purple" d="M424.3,-19.5C424.3,-5.32473 441.625,-14.5 455.8,-14.5"/>
</g>
<!-- nd188 -->
<g id="node10" class="node"><title>nd188</title>
<g id="a_node10"><a xlink:title="nd188&#45;ConstListGraph">
<path fill="none" stroke="purple" d="M373.467,-71C373.467,-71 383.133,-71 383.133,-71 387.967,-71 392.8,-66.1667 392.8,-61.3333 392.8,-61.3333 392.8,-51.6667 392.8,-51.6667 392.8,-46.8333 387.967,-42 383.133,-42 383.133,-42 373.467,-42 373.467,-42 368.633,-42 363.8,-46.8333 363.8,-51.6667 363.8,-51.6667 363.8,-61.3333 363.8,-61.3333 363.8,-66.1667 368.633,-71 373.467,-71"/>
<text text-anchor="middle" x="378.3" y="-52.8" font-family="Times,serif" font-size="14.00">::</text>
</a>
</g>
</g>
<!-- nd188&#45;&gt;nd28 -->
<g id="edge3" class="edge"><title>nd188:n&#45;&gt;nd28:w</title>
<path fill="none" stroke="purple" d="M378.3,-72.5C378.3,-76.0438 406.256,-77.5 409.8,-77.5"/>
</g>
<!-- nd188&#45;&gt;nd182 -->
<g id="edge4" class="edge"><title>nd188:s&#45;&gt;nd182:w</title>
<path fill="none" stroke="purple" d="M378.3,-40.5C378.3,-26.3247 395.625,-35.5 409.8,-35.5"/>
</g>
<!-- nd194 -->
<g id="node11" class="node"><title>nd194</title>
<g id="a_node11"><a xlink:title="nd194&#45;ConstListGraph">
<path fill="none" stroke="purple" d="M327.467,-92C327.467,-92 337.133,-92 337.133,-92 341.967,-92 346.8,-87.1667 346.8,-82.3333 346.8,-82.3333 346.8,-72.6667 346.8,-72.6667 346.8,-67.8333 341.967,-63 337.133,-63 337.133,-63 327.467,-63 327.467,-63 322.633,-63 317.8,-67.8333 317.8,-72.6667 317.8,-72.6667 317.8,-82.3333 317.8,-82.3333 317.8,-87.1667 322.633,-92 327.467,-92"/>
<text text-anchor="middle" x="332.3" y="-73.8" font-family="Times,serif" font-size="14.00">::</text>
</a>
</g>
</g>
<!-- nd194&#45;&gt;nd22 -->
<g id="edge5" class="edge"><title>nd194:n&#45;&gt;nd22:w</title>
<path fill="none" stroke="purple" d="M332.3,-93.5C332.3,-107.675 349.625,-98.5 363.8,-98.5"/>
</g>
<!-- nd194&#45;&gt;nd188 -->
<g id="edge6" class="edge"><title>nd194:s&#45;&gt;nd188:w</title>
<path fill="none" stroke="purple" d="M332.3,-61.5C332.3,-47.3247 349.625,-56.5 363.8,-56.5"/>
</g>
<!-- nd200 -->
<g id="node12" class="node"><title>nd200</title>
<g id="a_node12"><a xlink:title="nd200&#45;ConstListGraph">
<path fill="none" stroke="purple" d="M214.867,-107C214.867,-107 224.533,-107 224.533,-107 229.367,-107 234.2,-102.167 234.2,-97.3333 234.2,-97.3333 234.2,-87.6667 234.2,-87.6667 234.2,-82.8333 229.367,-78 224.533,-78 224.533,-78 214.867,-78 214.867,-78 210.033,-78 205.2,-82.8333 205.2,-87.6667 205.2,-87.6667 205.2,-97.3333 205.2,-97.3333 205.2,-102.167 210.033,-107 214.867,-107"/>
<text text-anchor="middle" x="219.7" y="-88.8" font-family="Times,serif" font-size="14.00">::</text>
</a>
</g>
</g>
<!-- nd222 -->
<g id="node19" class="node"><title>nd222</title>
<g id="a_node19"><a xlink:title="nd222&#45;ContractGraph">
<ellipse fill="black" stroke="black" cx="253" cy="-107.5" rx="1.8" ry="1.8"/>
</a>
</g>
</g>
<!-- nd200&#45;&gt;nd222 -->
<g id="edge7" class="edge"><title>nd200:n&#45;&gt;nd222:w</title>
<path fill="none" stroke="black" d="M219.7,-108.5C219.7,-122.507 237.193,-107.5 251.2,-107.5"/>
</g>
<!-- nd223 -->
<g id="node20" class="node"><title>nd223</title>
<g id="a_node20"><a xlink:title="nd223&#45;ContractGraph">
<ellipse fill="black" stroke="black" cx="253" cy="-77.5" rx="1.8" ry="1.8"/>
</a>
</g>
</g>
<!-- nd200&#45;&gt;nd223 -->
<g id="edge8" class="edge"><title>nd200:s&#45;&gt;nd223:w</title>
<path fill="none" stroke="black" d="M219.7,-76.5C219.7,-62.4929 237.193,-77.5 251.2,-77.5"/>
</g>
<!-- nd85 -->
<g id="node14" class="node"><title>nd85</title>
<g id="a_node14"><a xlink:title="nd85&#45;AppGraph">
<path fill="none" stroke="#000000" d="M73.5473,-150.554C73.5473,-150.554 69.6719,-144.946 69.6719,-144.946 68.136,-142.723 68.136,-138.277 69.6719,-136.054 69.6719,-136.054 73.5473,-130.446 73.5473,-130.446 75.0833,-128.223 79.3212,-126.002 82.0231,-126.005 82.0231,-126.005 87.4269,-126.009 87.4269,-126.009 90.1288,-126.011 92.8307,-128.715 92.8307,-131.417 92.8307,-131.417 92.8307,-149.583 92.8307,-149.583 92.8307,-152.285 90.1288,-154.989 87.4269,-154.991 87.4269,-154.991 82.0231,-154.995 82.0231,-154.995 79.3212,-154.998 75.0833,-152.777 73.5473,-150.554"/>
<text text-anchor="middle" x="81.1" y="-136.8" font-family="Times,serif" font-size="14.00">@</text>
</a>
</g>
</g>
<!-- nd84&#45;&gt;nd85 -->
<g id="edge12" class="edge"><title>nd84:e&#45;&gt;nd85:w</title>
<path fill="none" stroke="#b70000" d="M48.1,-120.5C60.2086,-120.5 54.4914,-140.5 66.6,-140.5"/>
</g>
<!-- nd232 -->
<g id="node21" class="node"><title>nd232</title>
<g id="a_node21"><a xlink:title="nd232&#45;ConstGraph">
<path fill="none" stroke="purple" d="M76.2667,-113C76.2667,-113 85.9333,-113 85.9333,-113 90.7667,-113 95.6,-108.167 95.6,-103.333 95.6,-103.333 95.6,-93.6667 95.6,-93.6667 95.6,-88.8333 90.7667,-84 85.9333,-84 85.9333,-84 76.2667,-84 76.2667,-84 71.4333,-84 66.6,-88.8333 66.6,-93.6667 66.6,-93.6667 66.6,-103.333 66.6,-103.333 66.6,-108.167 71.4333,-113 76.2667,-113"/>
<text text-anchor="middle" x="81.1" y="-94.8" font-family="Times,serif" font-size="14.00">1</text>
</a>
</g>
</g>
<!-- nd84&#45;&gt;nd232 -->
<g id="edge13" class="edge"><title>nd84:s&#45;&gt;nd232:w</title>
<path fill="none" stroke="black" d="M35.1,-104.5C35.1,-90.2483 52.3483,-98.5 66.6,-98.5"/>
</g>
<!-- nd85&#45;&gt;nd136 -->
<g id="edge10" class="edge"><title>nd85:e&#45;&gt;nd136:w</title>
<path fill="none" stroke="black" d="M94.1,-140.5C104.254,-140.5 104.946,-149.5 115.1,-149.5"/>
</g>
<!-- nd89 -->
<g id="node15" class="node"><title>nd89</title>
<g id="a_node15"><a xlink:title="nd89&#45;AppGraph">
<path fill="none" stroke="#000000" d="M119.547,-120.554C119.547,-120.554 115.672,-114.946 115.672,-114.946 114.136,-112.723 114.136,-108.277 115.672,-106.054 115.672,-106.054 119.547,-100.446 119.547,-100.446 121.083,-98.2229 125.321,-96.0023 128.023,-96.0045 128.023,-96.0045 133.427,-96.009 133.427,-96.009 136.129,-96.0113 138.831,-98.7155 138.831,-101.417 138.831,-101.417 138.831,-119.583 138.831,-119.583 138.831,-122.285 136.129,-124.989 133.427,-124.991 133.427,-124.991 128.023,-124.995 128.023,-124.995 125.321,-124.998 121.083,-122.777 119.547,-120.554"/>
<text text-anchor="middle" x="127.1" y="-106.8" font-family="Times,serif" font-size="14.00">@</text>
</a>
</g>
</g>
<!-- nd85&#45;&gt;nd89 -->
<g id="edge11" class="edge"><title>nd85:s&#45;&gt;nd89:w</title>
<path fill="none" stroke="#b70000" d="M81.1,-124.5C81.1,-117.683 89.3467,-122.214 95.6,-119.5 103.442,-116.096 104.051,-110.5 112.6,-110.5"/>
</g>
<!-- ndcluster_nd91 -->
<g id="node16" class="node"><title>ndcluster_nd91</title>
<g id="a_node16"><a xlink:title="nd91">
<ellipse fill="orange" stroke="orange" cx="170.4" cy="-112.5" rx="1.8" ry="1.8"/>
</a>
</g>
</g>
<!-- nd89&#45;&gt;ndcluster_nd91 -->
<g id="edge9" class="edge"><title>nd89:e&#45;&gt;ndcluster_nd91:w</title>
<path fill="none" stroke="black" d="M140.1,-110.5C152.266,-110.5 155.234,-112.5 167.4,-112.5"/>
</g>
<!-- nd123 -->
<g id="node17" class="node"><title>nd123</title>
<g id="a_node17"><a xlink:title="nd123&#45;ContractGraph">
<ellipse fill="black" stroke="black" cx="170.4" cy="-92.5" rx="1.8" ry="1.8"/>
</a>
</g>
</g>
<!-- nd89&#45;&gt;nd123 -->
<g id="edge14" class="edge"><title>nd89:s&#45;&gt;nd123:w</title>
<path fill="none" stroke="red" d="M127.1,-94.5C127.1,-79.7892 142.151,-87.8675 157.459,-91.2456"/>
<polygon fill="red" stroke="red" points="157.04,-94.7205 167.4,-92.5 157.917,-87.7755 157.04,-94.7205"/>
</g>
<!-- nd123&#45;&gt;nd200 -->
<g id="edge16" class="edge"><title>nd123:e&#45;&gt;nd200:w</title>
<path fill="none" stroke="black" d="M173.4,-92.5C187.533,-92.5 191.067,-92.5 205.2,-92.5"/>
<text text-anchor="middle" x="193.7" y="-96.3" font-family="Times,serif" font-size="14.00">x</text>
</g>
<!-- nd210 -->
<g id="node18" class="node"><title>nd210</title>
<g id="a_node18"><a xlink:title="nd210&#45;ContractGraph">
<ellipse fill="black" stroke="black" cx="286.3" cy="-77.5" rx="1.8" ry="1.8"/>
</a>
</g>
</g>
<!-- nd210&#45;&gt;nd194 -->
<g id="edge20" class="edge"><title>nd210:e&#45;&gt;nd194:w</title>
<path fill="none" stroke="black" d="M289.3,-77.5C301.967,-77.5 305.133,-77.5 317.8,-77.5"/>
</g>
<!-- nd222&#45;&gt;nd16 -->
<g id="edge19" class="edge"><title>nd222:e&#45;&gt;nd16:w</title>
<path fill="none" stroke="black" d="M254.8,-107.5C262.356,-107.5 264.244,-107.5 271.8,-107.5"/>
</g>
<!-- nd223&#45;&gt;nd210 -->
<g id="edge21" class="edge"><title>nd223:e&#45;&gt;nd210:w</title>
<path fill="none" stroke="black" d="M254.8,-77.5C267.467,-77.5 270.633,-77.5 283.3,-77.5"/>
</g>
</g>
</svg>
