<?xml version="1.0" encoding="UTF-8" standalone="no"?>
<!DOCTYPE svg PUBLIC "-//W3C//DTD SVG 1.1//EN"
 "http://www.w3.org/Graphics/SVG/1.1/DTD/svg11.dtd">
<!-- Generated by graphviz version 2.38.0 (20140413.2041)
 -->
<!-- Title: G Pages: 1 -->
<svg width="279pt" height="114pt"
 viewBox="0.00 0.00 279.20 113.50" xmlns="http://www.w3.org/2000/svg" xmlns:xlink="http://www.w3.org/1999/xlink">
<g id="graph0" class="graph" transform="scale(1 1) rotate(0) translate(4 109.5)">
<title>G</title>
<polygon fill="white" stroke="none" points="-4,4 -4,-109.5 275.2,-109.5 275.2,4 -4,4"/>
<g id="clust1" class="cluster"><title>cluster_nd241</title>
<polygon fill="none" stroke="orange" points="130.6,-77.5 130.6,-97.5 150.2,-97.5 150.2,-77.5 130.6,-77.5"/>
</g>
<!-- nd1 -->
<g id="node1" class="node"><title>nd1</title>
<ellipse fill="black" stroke="black" cx="1.8" cy="-63.5" rx="1.8" ry="1.8"/>
</g>
<!-- nd154 -->
<g id="node9" class="node"><title>nd154</title>
<g id="a_node9"><a xlink:title="nd154&#45;AppGraph">
<path fill="none" stroke="#000000" d="M23.5473,-73.5543C23.5473,-73.5543 19.6719,-67.9457 19.6719,-67.9457 18.136,-65.7229 18.136,-61.2771 19.6719,-59.0543 19.6719,-59.0543 23.5473,-53.4457 23.5473,-53.4457 25.0833,-51.2229 29.3212,-49.0023 32.0231,-49.0045 32.0231,-49.0045 37.4269,-49.009 37.4269,-49.009 40.1288,-49.0113 42.8307,-51.7155 42.8307,-54.4174 42.8307,-54.4174 42.8307,-72.5826 42.8307,-72.5826 42.8307,-75.2845 40.1288,-77.9887 37.4269,-77.991 37.4269,-77.991 32.0231,-77.9955 32.0231,-77.9955 29.3212,-77.9977 25.0833,-75.7771 23.5473,-73.5543"/>
<text text-anchor="middle" x="31.1" y="-59.8" font-family="Times,serif" font-size="14.00">@</text>
</a>
</g>
</g>
<!-- nd1&#45;&gt;nd154 -->
<g id="edge9" class="edge"><title>nd1:e&#45;&gt;nd154:w</title>
<path fill="none" stroke="#b70000" d="M3.6,-63.5C9.37778,-63.5 10.8222,-63.5 16.6,-63.5"/>
</g>
<!-- nd28 -->
<g id="node2" class="node"><title>nd28</title>
<g id="a_node2"><a xlink:title="nd28&#45;ConstGraph">
<path fill="none" stroke="purple" d="M209.867,-92C209.867,-92 219.533,-92 219.533,-92 224.367,-92 229.2,-87.1667 229.2,-82.3333 229.2,-82.3333 229.2,-72.6667 229.2,-72.6667 229.2,-67.8333 224.367,-63 219.533,-63 219.533,-63 209.867,-63 209.867,-63 205.033,-63 200.2,-67.8333 200.2,-72.6667 200.2,-72.6667 200.2,-82.3333 200.2,-82.3333 200.2,-87.1667 205.033,-92 209.867,-92"/>
<text text-anchor="middle" x="214.7" y="-73.8" font-family="Times,serif" font-size="14.00">3</text>
</a>
</g>
</g>
<!-- nd34 -->
<g id="node3" class="node"><title>nd34</title>
<g id="a_node3"><a xlink:title="nd34&#45;ConstGraph">
<path fill="none" stroke="purple" d="M251.867,-71C251.867,-71 261.533,-71 261.533,-71 266.367,-71 271.2,-66.1667 271.2,-61.3333 271.2,-61.3333 271.2,-51.6667 271.2,-51.6667 271.2,-46.8333 266.367,-42 261.533,-42 261.533,-42 251.867,-42 251.867,-42 247.033,-42 242.2,-46.8333 242.2,-51.6667 242.2,-51.6667 242.2,-61.3333 242.2,-61.3333 242.2,-66.1667 247.033,-71 251.867,-71"/>
<text text-anchor="middle" x="256.7" y="-52.8" font-family="Times,serif" font-size="14.00">4</text>
</a>
</g>
</g>
<!-- nd39 -->
<g id="node4" class="node"><title>nd39</title>
<g id="a_node4"><a xlink:title="nd39&#45;ConstEmptyGraph">
<path fill="none" stroke="purple" d="M251.867,-29C251.867,-29 261.533,-29 261.533,-29 266.367,-29 271.2,-24.1667 271.2,-19.3333 271.2,-19.3333 271.2,-9.66667 271.2,-9.66667 271.2,-4.83333 266.367,-1.77636e-15 261.533,-1.77636e-15 261.533,-1.77636e-15 251.867,-1.77636e-15 251.867,-1.77636e-15 247.033,-1.77636e-15 242.2,-4.83333 242.2,-9.66667 242.2,-9.66667 242.2,-19.3333 242.2,-19.3333 242.2,-24.1667 247.033,-29 251.867,-29"/>
<text text-anchor="middle" x="256.7" y="-10.8" font-family="Times,serif" font-size="14.00">[]</text>
</a>
</g>
</g>
<!-- nd182 -->
<g id="node5" class="node"><title>nd182</title>
<g id="a_node5"><a xlink:title="nd182&#45;ConstListGraph">
<path fill="none" stroke="purple" d="M209.867,-50C209.867,-50 219.533,-50 219.533,-50 224.367,-50 229.2,-45.1667 229.2,-40.3333 229.2,-40.3333 229.2,-30.6667 229.2,-30.6667 229.2,-25.8333 224.367,-21 219.533,-21 219.533,-21 209.867,-21 209.867,-21 205.033,-21 200.2,-25.8333 200.2,-30.6667 200.2,-30.6667 200.2,-40.3333 200.2,-40.3333 200.2,-45.1667 205.033,-50 209.867,-50"/>
<text text-anchor="middle" x="214.7" y="-31.8" font-family="Times,serif" font-size="14.00">::</text>
</a>
</g>
</g>
<!-- nd182&#45;&gt;nd34 -->
<g id="edge1" class="edge"><title>nd182:n&#45;&gt;nd34:w</title>
<path fill="none" stroke="purple" d="M214.7,-51.5C214.7,-54.6056 239.094,-56.5 242.2,-56.5"/>
</g>
<!-- nd182&#45;&gt;nd39 -->
<g id="edge2" class="edge"><title>nd182:s&#45;&gt;nd39:w</title>
<path fill="none" stroke="purple" d="M214.7,-19.5C214.7,-7.0774 229.777,-14.5 242.2,-14.5"/>
</g>
<!-- nd188 -->
<g id="node6" class="node"><title>nd188</title>
<g id="a_node6"><a xlink:title="nd188&#45;ConstListGraph">
<path fill="none" stroke="purple" d="M167.867,-71C167.867,-71 177.533,-71 177.533,-71 182.367,-71 187.2,-66.1667 187.2,-61.3333 187.2,-61.3333 187.2,-51.6667 187.2,-51.6667 187.2,-46.8333 182.367,-42 177.533,-42 177.533,-42 167.867,-42 167.867,-42 163.033,-42 158.2,-46.8333 158.2,-51.6667 158.2,-51.6667 158.2,-61.3333 158.2,-61.3333 158.2,-66.1667 163.033,-71 167.867,-71"/>
<text text-anchor="middle" x="172.7" y="-52.8" font-family="Times,serif" font-size="14.00">::</text>
</a>
</g>
</g>
<!-- nd188&#45;&gt;nd28 -->
<g id="edge3" class="edge"><title>nd188:n&#45;&gt;nd28:w</title>
<path fill="none" stroke="purple" d="M172.7,-72.5C172.7,-84.9226 187.777,-77.5 200.2,-77.5"/>
</g>
<!-- nd188&#45;&gt;nd182 -->
<g id="edge4" class="edge"><title>nd188:s&#45;&gt;nd182:w</title>
<path fill="none" stroke="purple" d="M172.7,-40.5C172.7,-28.0774 187.777,-35.5 200.2,-35.5"/>
</g>
<!-- nd237 -->
<g id="node7" class="node"><title>nd237</title>
<g id="a_node7"><a xlink:title="nd237&#45;RecurGraph">
<ellipse fill="none" stroke="#000000" cx="111.6" cy="-82.5" rx="11" ry="11"/>
<text text-anchor="middle" x="111.6" y="-78.8" font-family="Times,serif" font-size="14.00">rec</text>
</a>
</g>
</g>
<!-- ndcluster_nd241 -->
<g id="node8" class="node"><title>ndcluster_nd241</title>
<g id="a_node8"><a xlink:title="nd241">
<ellipse fill="orange" stroke="orange" cx="140.4" cy="-87.5" rx="1.8" ry="1.8"/>
</a>
</g>
</g>
<!-- nd237&#45;&gt;ndcluster_nd241 -->
<g id="edge11" class="edge"><title>nd237:n&#45;&gt;ndcluster_nd241:e</title>
<path fill="none" stroke="grey" d="M111.6,-94.5C111.6,-108.972 157.872,-87.5 143.4,-87.5"/>
</g>
<!-- nd237&#45;&gt;ndcluster_nd241 -->
<g id="edge12" class="edge"><title>nd237:e&#45;&gt;ndcluster_nd241:w</title>
<path fill="none" stroke="black" d="M122.6,-82.5C129.543,-82.5 130.457,-87.5 137.4,-87.5"/>
</g>
<!-- nd155 -->
<g id="node10" class="node"><title>nd155</title>
<g id="a_node10"><a xlink:title="nd155&#45;AppGraph">
<path fill="none" stroke="#000000" d="M65.5473,-87.5543C65.5473,-87.5543 61.6719,-81.9457 61.6719,-81.9457 60.136,-79.7229 60.136,-75.2771 61.6719,-73.0543 61.6719,-73.0543 65.5473,-67.4457 65.5473,-67.4457 67.0833,-65.2229 71.3212,-63.0023 74.0231,-63.0045 74.0231,-63.0045 79.4269,-63.009 79.4269,-63.009 82.1288,-63.0113 84.8307,-65.7155 84.8307,-68.4174 84.8307,-68.4174 84.8307,-86.5826 84.8307,-86.5826 84.8307,-89.2845 82.1288,-91.9887 79.4269,-91.991 79.4269,-91.991 74.0231,-91.9955 74.0231,-91.9955 71.3212,-91.9977 67.0833,-89.7771 65.5473,-87.5543"/>
<text text-anchor="middle" x="73.1" y="-73.8" font-family="Times,serif" font-size="14.00">@</text>
</a>
</g>
</g>
<!-- nd154&#45;&gt;nd155 -->
<g id="edge7" class="edge"><title>nd154:e&#45;&gt;nd155:w</title>
<path fill="none" stroke="#b70000" d="M44.1,-63.5C53.0581,-63.5 49.6419,-77.5 58.6,-77.5"/>
</g>
<!-- nd309 -->
<g id="node13" class="node"><title>nd309</title>
<g id="a_node13"><a xlink:title="nd309&#45;ConstGraph">
<path fill="none" stroke="purple" d="M68.2667,-50C68.2667,-50 77.9333,-50 77.9333,-50 82.7667,-50 87.6,-45.1667 87.6,-40.3333 87.6,-40.3333 87.6,-30.6667 87.6,-30.6667 87.6,-25.8333 82.7667,-21 77.9333,-21 77.9333,-21 68.2667,-21 68.2667,-21 63.4333,-21 58.6,-25.8333 58.6,-30.6667 58.6,-30.6667 58.6,-40.3333 58.6,-40.3333 58.6,-45.1667 63.4333,-50 68.2667,-50"/>
<text text-anchor="middle" x="73.1" y="-31.8" font-family="Times,serif" font-size="14.00">3</text>
</a>
</g>
</g>
<!-- nd154&#45;&gt;nd309 -->
<g id="edge8" class="edge"><title>nd154:s&#45;&gt;nd309:w</title>
<path fill="none" stroke="black" d="M31.1,-47.5C31.1,-34.1648 45.2648,-35.5 58.6,-35.5"/>
</g>
<!-- nd155&#45;&gt;nd237 -->
<g id="edge6" class="edge"><title>nd155:e&#45;&gt;nd237:w</title>
<path fill="none" stroke="black" d="M86.1,-77.5C92.9168,-77.5 93.7832,-82.5 100.6,-82.5"/>
</g>
<!-- nd300 -->
<g id="node12" class="node"><title>nd300</title>
<g id="a_node12"><a xlink:title="nd300&#45;ContractGraph">
<ellipse fill="black" stroke="black" cx="111.6" cy="-56.5" rx="1.8" ry="1.8"/>
</a>
</g>
</g>
<!-- nd155&#45;&gt;nd300 -->
<g id="edge5" class="edge"><title>nd155:s&#45;&gt;nd300:w</title>
<path fill="none" stroke="red" d="M73.1,-61.5C73.1,-58.7614 87.9965,-57.4251 98.6013,-56.8574"/>
<polygon fill="red" stroke="red" points="98.7314,-60.355 108.6,-56.5 98.4813,-53.3595 98.7314,-60.355"/>
</g>
<!-- nd287 -->
<g id="node11" class="node"><title>nd287</title>
<g id="a_node11"><a xlink:title="nd287&#45;ContractGraph">
<ellipse fill="black" stroke="black" cx="140.4" cy="-56.5" rx="1.8" ry="1.8"/>
</a>
</g>
</g>
<!-- nd287&#45;&gt;nd188 -->
<g id="edge10" class="edge"><title>nd287:e&#45;&gt;nd188:w</title>
<path fill="none" stroke="black" d="M143.4,-56.5C149.978,-56.5 151.622,-56.5 158.2,-56.5"/>
</g>
<!-- nd300&#45;&gt;nd287 -->
<g id="edge13" class="edge"><title>nd300:e&#45;&gt;nd287:w</title>
<path fill="none" stroke="black" d="M114.6,-56.5C124.733,-56.5 127.267,-56.5 137.4,-56.5"/>
</g>
</g>
</svg>
