<?xml version="1.0" encoding="UTF-8" standalone="no"?>
<!DOCTYPE svg PUBLIC "-//W3C//DTD SVG 1.1//EN"
 "http://www.w3.org/Graphics/SVG/1.1/DTD/svg11.dtd">
<!-- Generated by graphviz version 2.38.0 (20140413.2041)
 -->
<!-- Title: G Pages: 1 -->
<svg width="264pt" height="169pt"
 viewBox="0.00 0.00 263.60 168.50" xmlns="http://www.w3.org/2000/svg" xmlns:xlink="http://www.w3.org/1999/xlink">
<g id="graph0" class="graph" transform="scale(1 1) rotate(0) translate(4 164.5)">
<title>G</title>
<polygon fill="white" stroke="none" points="-4,4 -4,-164.5 259.6,-164.5 259.6,4 -4,4"/>
<g id="clust1" class="cluster"><title>cluster_nd140</title>
<polygon fill="none" stroke="orange" points="105.3,-116.5 105.3,-136.5 124.9,-136.5 124.9,-116.5 105.3,-116.5"/>
</g>
<g id="clust2" class="cluster"><title>cluster_nd241</title>
<polygon fill="none" stroke="orange" points="189.3,-132.5 189.3,-152.5 208.9,-152.5 208.9,-132.5 189.3,-132.5"/>
</g>
<!-- nd1 -->
<g id="node1" class="node"><title>nd1</title>
<ellipse fill="black" stroke="black" cx="1.8" cy="-98.5" rx="1.8" ry="1.8"/>
</g>
<!-- nd84 -->
<g id="node9" class="node"><title>nd84</title>
<g id="a_node9"><a xlink:title="nd84&#45;AppGraph">
<path fill="none" stroke="#000000" d="M23.5473,-108.554C23.5473,-108.554 19.6719,-102.946 19.6719,-102.946 18.136,-100.723 18.136,-96.2771 19.6719,-94.0543 19.6719,-94.0543 23.5473,-88.4457 23.5473,-88.4457 25.0833,-86.2229 29.3212,-84.0023 32.0231,-84.0045 32.0231,-84.0045 37.4269,-84.009 37.4269,-84.009 40.1288,-84.0113 42.8307,-86.7155 42.8307,-89.4174 42.8307,-89.4174 42.8307,-107.583 42.8307,-107.583 42.8307,-110.285 40.1288,-112.989 37.4269,-112.991 37.4269,-112.991 32.0231,-112.995 32.0231,-112.995 29.3212,-112.998 25.0833,-110.777 23.5473,-108.554"/>
<text text-anchor="middle" x="31.1" y="-94.8" font-family="Times,serif" font-size="14.00">@</text>
</a>
</g>
</g>
<!-- nd1&#45;&gt;nd84 -->
<g id="edge10" class="edge"><title>nd1:e&#45;&gt;nd84:w</title>
<path fill="none" stroke="#b70000" d="M3.6,-98.5C9.37778,-98.5 10.8222,-98.5 16.6,-98.5"/>
</g>
<!-- nd22 -->
<g id="node2" class="node"><title>nd22</title>
<g id="a_node2"><a xlink:title="nd22&#45;ConstGraph">
<path fill="none" stroke="purple" d="M152.267,-113C152.267,-113 161.933,-113 161.933,-113 166.767,-113 171.6,-108.167 171.6,-103.333 171.6,-103.333 171.6,-93.6667 171.6,-93.6667 171.6,-88.8333 166.767,-84 161.933,-84 161.933,-84 152.267,-84 152.267,-84 147.433,-84 142.6,-88.8333 142.6,-93.6667 142.6,-93.6667 142.6,-103.333 142.6,-103.333 142.6,-108.167 147.433,-113 152.267,-113"/>
<text text-anchor="middle" x="157.1" y="-94.8" font-family="Times,serif" font-size="14.00">2</text>
</a>
</g>
</g>
<!-- nd28 -->
<g id="node3" class="node"><title>nd28</title>
<g id="a_node3"><a xlink:title="nd28&#45;ConstGraph">
<path fill="none" stroke="purple" d="M194.267,-92C194.267,-92 203.933,-92 203.933,-92 208.767,-92 213.6,-87.1667 213.6,-82.3333 213.6,-82.3333 213.6,-72.6667 213.6,-72.6667 213.6,-67.8333 208.767,-63 203.933,-63 203.933,-63 194.267,-63 194.267,-63 189.433,-63 184.6,-67.8333 184.6,-72.6667 184.6,-72.6667 184.6,-82.3333 184.6,-82.3333 184.6,-87.1667 189.433,-92 194.267,-92"/>
<text text-anchor="middle" x="199.1" y="-73.8" font-family="Times,serif" font-size="14.00">3</text>
</a>
</g>
</g>
<!-- nd34 -->
<g id="node4" class="node"><title>nd34</title>
<g id="a_node4"><a xlink:title="nd34&#45;ConstGraph">
<path fill="none" stroke="purple" d="M236.267,-71C236.267,-71 245.933,-71 245.933,-71 250.767,-71 255.6,-66.1667 255.6,-61.3333 255.6,-61.3333 255.6,-51.6667 255.6,-51.6667 255.6,-46.8333 250.767,-42 245.933,-42 245.933,-42 236.267,-42 236.267,-42 231.433,-42 226.6,-46.8333 226.6,-51.6667 226.6,-51.6667 226.6,-61.3333 226.6,-61.3333 226.6,-66.1667 231.433,-71 236.267,-71"/>
<text text-anchor="middle" x="241.1" y="-52.8" font-family="Times,serif" font-size="14.00">4</text>
</a>
</g>
</g>
<!-- nd39 -->
<g id="node5" class="node"><title>nd39</title>
<g id="a_node5"><a xlink:title="nd39&#45;ConstEmptyGraph">
<path fill="none" stroke="purple" d="M236.267,-29C236.267,-29 245.933,-29 245.933,-29 250.767,-29 255.6,-24.1667 255.6,-19.3333 255.6,-19.3333 255.6,-9.66667 255.6,-9.66667 255.6,-4.83333 250.767,-1.77636e-15 245.933,-1.77636e-15 245.933,-1.77636e-15 236.267,-1.77636e-15 236.267,-1.77636e-15 231.433,-1.77636e-15 226.6,-4.83333 226.6,-9.66667 226.6,-9.66667 226.6,-19.3333 226.6,-19.3333 226.6,-24.1667 231.433,-29 236.267,-29"/>
<text text-anchor="middle" x="241.1" y="-10.8" font-family="Times,serif" font-size="14.00">[]</text>
</a>
</g>
</g>
<!-- nd182 -->
<g id="node6" class="node"><title>nd182</title>
<g id="a_node6"><a xlink:title="nd182&#45;ConstListGraph">
<path fill="none" stroke="purple" d="M194.267,-50C194.267,-50 203.933,-50 203.933,-50 208.767,-50 213.6,-45.1667 213.6,-40.3333 213.6,-40.3333 213.6,-30.6667 213.6,-30.6667 213.6,-25.8333 208.767,-21 203.933,-21 203.933,-21 194.267,-21 194.267,-21 189.433,-21 184.6,-25.8333 184.6,-30.6667 184.6,-30.6667 184.6,-40.3333 184.6,-40.3333 184.6,-45.1667 189.433,-50 194.267,-50"/>
<text text-anchor="middle" x="199.1" y="-31.8" font-family="Times,serif" font-size="14.00">::</text>
</a>
</g>
</g>
<!-- nd182&#45;&gt;nd34 -->
<g id="edge1" class="edge"><title>nd182:n&#45;&gt;nd34:w</title>
<path fill="none" stroke="purple" d="M199.1,-51.5C199.1,-54.6056 223.494,-56.5 226.6,-56.5"/>
</g>
<!-- nd182&#45;&gt;nd39 -->
<g id="edge2" class="edge"><title>nd182:s&#45;&gt;nd39:w</title>
<path fill="none" stroke="purple" d="M199.1,-19.5C199.1,-7.0774 214.177,-14.5 226.6,-14.5"/>
</g>
<!-- nd188 -->
<g id="node7" class="node"><title>nd188</title>
<g id="a_node7"><a xlink:title="nd188&#45;ConstListGraph">
<path fill="none" stroke="purple" d="M152.267,-71C152.267,-71 161.933,-71 161.933,-71 166.767,-71 171.6,-66.1667 171.6,-61.3333 171.6,-61.3333 171.6,-51.6667 171.6,-51.6667 171.6,-46.8333 166.767,-42 161.933,-42 161.933,-42 152.267,-42 152.267,-42 147.433,-42 142.6,-46.8333 142.6,-51.6667 142.6,-51.6667 142.6,-61.3333 142.6,-61.3333 142.6,-66.1667 147.433,-71 152.267,-71"/>
<text text-anchor="middle" x="157.1" y="-52.8" font-family="Times,serif" font-size="14.00">::</text>
</a>
</g>
</g>
<!-- nd188&#45;&gt;nd28 -->
<g id="edge3" class="edge"><title>nd188:n&#45;&gt;nd28:w</title>
<path fill="none" stroke="purple" d="M157.1,-72.5C157.1,-75.6056 181.494,-77.5 184.6,-77.5"/>
</g>
<!-- nd188&#45;&gt;nd182 -->
<g id="edge4" class="edge"><title>nd188:s&#45;&gt;nd182:w</title>
<path fill="none" stroke="purple" d="M157.1,-40.5C157.1,-28.0774 172.177,-35.5 184.6,-35.5"/>
</g>
<!-- nd194 -->
<g id="node8" class="node"><title>nd194</title>
<g id="a_node8"><a xlink:title="nd194&#45;ConstListGraph">
<path fill="none" stroke="purple" d="M110.267,-98C110.267,-98 119.933,-98 119.933,-98 124.767,-98 129.6,-93.1667 129.6,-88.3333 129.6,-88.3333 129.6,-78.6667 129.6,-78.6667 129.6,-73.8333 124.767,-69 119.933,-69 119.933,-69 110.267,-69 110.267,-69 105.433,-69 100.6,-73.8333 100.6,-78.6667 100.6,-78.6667 100.6,-88.3333 100.6,-88.3333 100.6,-93.1667 105.433,-98 110.267,-98"/>
<text text-anchor="middle" x="115.1" y="-79.8" font-family="Times,serif" font-size="14.00">::</text>
</a>
</g>
</g>
<!-- nd194&#45;&gt;nd22 -->
<g id="edge5" class="edge"><title>nd194:n&#45;&gt;nd22:w</title>
<path fill="none" stroke="purple" d="M115.1,-99.5C115.1,-111.73 130.37,-98.5 142.6,-98.5"/>
</g>
<!-- nd194&#45;&gt;nd188 -->
<g id="edge6" class="edge"><title>nd194:s&#45;&gt;nd188:w</title>
<path fill="none" stroke="purple" d="M115.1,-67.5C115.1,-54.3363 129.436,-56.5 142.6,-56.5"/>
</g>
<!-- nd85 -->
<g id="node10" class="node"><title>nd85</title>
<g id="a_node10"><a xlink:title="nd85&#45;AppGraph">
<path fill="none" stroke="#000000" d="M65.5473,-122.554C65.5473,-122.554 61.6719,-116.946 61.6719,-116.946 60.136,-114.723 60.136,-110.277 61.6719,-108.054 61.6719,-108.054 65.5473,-102.446 65.5473,-102.446 67.0833,-100.223 71.3212,-98.0023 74.0231,-98.0045 74.0231,-98.0045 79.4269,-98.009 79.4269,-98.009 82.1288,-98.0113 84.8307,-100.715 84.8307,-103.417 84.8307,-103.417 84.8307,-121.583 84.8307,-121.583 84.8307,-124.285 82.1288,-126.989 79.4269,-126.991 79.4269,-126.991 74.0231,-126.995 74.0231,-126.995 71.3212,-126.998 67.0833,-124.777 65.5473,-122.554"/>
<text text-anchor="middle" x="73.1" y="-108.8" font-family="Times,serif" font-size="14.00">@</text>
</a>
</g>
</g>
<!-- nd84&#45;&gt;nd85 -->
<g id="edge8" class="edge"><title>nd84:e&#45;&gt;nd85:w</title>
<path fill="none" stroke="#b70000" d="M44.1,-98.5C53.0581,-98.5 49.6419,-112.5 58.6,-112.5"/>
</g>
<!-- nd232 -->
<g id="node11" class="node"><title>nd232</title>
<g id="a_node11"><a xlink:title="nd232&#45;ConstGraph">
<path fill="none" stroke="purple" d="M68.2667,-85C68.2667,-85 77.9333,-85 77.9333,-85 82.7667,-85 87.6,-80.1667 87.6,-75.3333 87.6,-75.3333 87.6,-65.6667 87.6,-65.6667 87.6,-60.8333 82.7667,-56 77.9333,-56 77.9333,-56 68.2667,-56 68.2667,-56 63.4333,-56 58.6,-60.8333 58.6,-65.6667 58.6,-65.6667 58.6,-75.3333 58.6,-75.3333 58.6,-80.1667 63.4333,-85 68.2667,-85"/>
<text text-anchor="middle" x="73.1" y="-66.8" font-family="Times,serif" font-size="14.00">1</text>
</a>
</g>
</g>
<!-- nd84&#45;&gt;nd232 -->
<g id="edge9" class="edge"><title>nd84:s&#45;&gt;nd232:w</title>
<path fill="none" stroke="black" d="M31.1,-82.5C31.1,-69.1648 45.2648,-70.5 58.6,-70.5"/>
</g>
<!-- nd85&#45;&gt;nd194 -->
<g id="edge12" class="edge"><title>nd85:s&#45;&gt;nd194:w</title>
<path fill="none" stroke="black" d="M73.1,-96.5C73.1,-89.6832 81.4379,-94.415 87.6,-91.5 93.7326,-88.599 93.8158,-83.5 100.6,-83.5"/>
</g>
<!-- ndcluster_nd140 -->
<g id="node12" class="node"><title>ndcluster_nd140</title>
<g id="a_node12"><a xlink:title="nd140">
<ellipse fill="orange" stroke="orange" cx="115.1" cy="-126.5" rx="1.8" ry="1.8"/>
</a>
</g>
</g>
<!-- nd85&#45;&gt;ndcluster_nd140 -->
<g id="edge7" class="edge"><title>nd85:e&#45;&gt;ndcluster_nd140:w</title>
<path fill="none" stroke="red" d="M86.1,-112.5C94.9179,-112.5 97.699,-118.82 102.555,-122.967"/>
<polygon fill="red" stroke="red" points="101.507,-126.311 112.1,-126.5 103.937,-119.746 101.507,-126.311"/>
</g>
<!-- nd237 -->
<g id="node13" class="node"><title>nd237</title>
<g id="a_node13"><a xlink:title="nd237&#45;RecurGraph">
<ellipse fill="none" stroke="#000000" cx="157.1" cy="-137.5" rx="11" ry="11"/>
<text text-anchor="middle" x="157.1" y="-133.8" font-family="Times,serif" font-size="14.00">rec</text>
</a>
</g>
</g>
<!-- ndcluster_nd140&#45;&gt;nd237 -->
<g id="edge11" class="edge"><title>ndcluster_nd140:e&#45;&gt;nd237:w</title>
<path fill="none" stroke="black" d="M118.1,-126.5C131.058,-126.5 132.142,-137.5 145.1,-137.5"/>
</g>
<!-- ndcluster_nd241 -->
<g id="node14" class="node"><title>ndcluster_nd241</title>
<g id="a_node14"><a xlink:title="nd241">
<ellipse fill="orange" stroke="orange" cx="199.1" cy="-142.5" rx="1.8" ry="1.8"/>
</a>
</g>
</g>
<!-- nd237&#45;&gt;ndcluster_nd241 -->
<g id="edge13" class="edge"><title>nd237:n&#45;&gt;ndcluster_nd241:e</title>
<path fill="none" stroke="grey" d="M157.1,-149.5C157.1,-169.741 222.341,-142.5 202.1,-142.5"/>
</g>
<!-- nd237&#45;&gt;ndcluster_nd241 -->
<g id="edge14" class="edge"><title>nd237:e&#45;&gt;ndcluster_nd241:w</title>
<path fill="none" stroke="black" d="M169.1,-137.5C181.304,-137.5 183.896,-142.5 196.1,-142.5"/>
</g>
</g>
</svg>
