<?xml version="1.0" encoding="UTF-8" standalone="no"?>
<!DOCTYPE svg PUBLIC "-//W3C//DTD SVG 1.1//EN"
 "http://www.w3.org/Graphics/SVG/1.1/DTD/svg11.dtd">
<!-- Generated by graphviz version 2.38.0 (20140413.2041)
 -->
<!-- Title: G Pages: 1 -->
<svg width="518pt" height="248pt"
 viewBox="0.00 0.00 517.80 247.50" xmlns="http://www.w3.org/2000/svg" xmlns:xlink="http://www.w3.org/1999/xlink">
<g id="graph0" class="graph" transform="scale(1 1) rotate(0) translate(4 243.5)">
<title>G</title>
<polygon fill="white" stroke="none" points="-4,4 -4,-243.5 513.8,-243.5 513.8,4 -4,4"/>
<g id="clust1" class="cluster"><title>cluster_nd140</title>
<polygon fill="none" stroke="orange" points="163.3,-211.5 163.3,-231.5 182.9,-231.5 182.9,-211.5 163.3,-211.5"/>
</g>
<g id="clust2" class="cluster"><title>cluster_nd91</title>
<polygon fill="none" stroke="orange" points="161.3,-159.5 161.3,-202.5 184.9,-202.5 184.9,-159.5 161.3,-159.5"/>
<text text-anchor="middle" x="173.1" y="-187.3" font-family="Times,serif" font-size="14.00">tl</text>
</g>
<!-- nd1 -->
<g id="node1" class="node"><title>nd1</title>
<ellipse fill="black" stroke="black" cx="1.8" cy="-150.5" rx="1.8" ry="1.8"/>
</g>
<!-- nd84 -->
<g id="node14" class="node"><title>nd84</title>
<g id="a_node14"><a xlink:title="nd84&#45;AppGraph">
<path fill="none" stroke="#000000" d="M27.5473,-160.554C27.5473,-160.554 23.6719,-154.946 23.6719,-154.946 22.136,-152.723 22.136,-148.277 23.6719,-146.054 23.6719,-146.054 27.5473,-140.446 27.5473,-140.446 29.0833,-138.223 33.3212,-136.002 36.0231,-136.005 36.0231,-136.005 41.4269,-136.009 41.4269,-136.009 44.1288,-136.011 46.8307,-138.715 46.8307,-141.417 46.8307,-141.417 46.8307,-159.583 46.8307,-159.583 46.8307,-162.285 44.1288,-164.989 41.4269,-164.991 41.4269,-164.991 36.0231,-164.995 36.0231,-164.995 33.3212,-164.998 29.0833,-162.777 27.5473,-160.554"/>
<text text-anchor="middle" x="35.1" y="-146.8" font-family="Times,serif" font-size="14.00">@</text>
</a>
</g>
</g>
<!-- nd1&#45;&gt;nd84 -->
<g id="edge17" class="edge"><title>nd1:e&#45;&gt;nd84:w</title>
<path fill="none" stroke="#b70000" d="M3.6,-150.5C11.1556,-150.5 13.0444,-150.5 20.6,-150.5"/>
</g>
<!-- nd136 -->
<g id="node2" class="node"><title>nd136</title>
<g id="a_node2"><a xlink:title="nd136&#45;RecurGraph">
<ellipse fill="none" stroke="#000000" cx="127.1" cy="-203.5" rx="11" ry="11"/>
<text text-anchor="middle" x="127.1" y="-199.8" font-family="Times,serif" font-size="14.00">rec</text>
</a>
</g>
</g>
<!-- ndcluster_nd140 -->
<g id="node3" class="node"><title>ndcluster_nd140</title>
<g id="a_node3"><a xlink:title="nd140">
<ellipse fill="orange" stroke="orange" cx="173.1" cy="-221.5" rx="1.8" ry="1.8"/>
</a>
</g>
</g>
<!-- nd136&#45;&gt;ndcluster_nd140 -->
<g id="edge21" class="edge"><title>nd136:n&#45;&gt;ndcluster_nd140:e</title>
<path fill="none" stroke="grey" d="M127.1,-215.5C127.1,-257.455 183.047,-221.5 176.1,-221.5"/>
</g>
<!-- nd136&#45;&gt;ndcluster_nd140 -->
<g id="edge22" class="edge"><title>nd136:e&#45;&gt;ndcluster_nd140:w</title>
<path fill="none" stroke="black" d="M139.1,-203.5C155.032,-203.5 154.168,-221.5 170.1,-221.5"/>
</g>
<!-- nd16 -->
<g id="node4" class="node"><title>nd16</title>
<g id="a_node4"><a xlink:title="nd16&#45;ConstGraph">
<path fill="none" stroke="purple" d="M352.467,-136C352.467,-136 362.133,-136 362.133,-136 366.967,-136 371.8,-131.167 371.8,-126.333 371.8,-126.333 371.8,-116.667 371.8,-116.667 371.8,-111.833 366.967,-107 362.133,-107 362.133,-107 352.467,-107 352.467,-107 347.633,-107 342.8,-111.833 342.8,-116.667 342.8,-116.667 342.8,-126.333 342.8,-126.333 342.8,-131.167 347.633,-136 352.467,-136"/>
<text text-anchor="middle" x="357.3" y="-117.8" font-family="Times,serif" font-size="14.00">1</text>
</a>
</g>
</g>
<!-- nd22 -->
<g id="node5" class="node"><title>nd22</title>
<g id="a_node5"><a xlink:title="nd22&#45;ConstGraph">
<path fill="none" stroke="purple" d="M398.467,-113C398.467,-113 408.133,-113 408.133,-113 412.967,-113 417.8,-108.167 417.8,-103.333 417.8,-103.333 417.8,-93.6667 417.8,-93.6667 417.8,-88.8333 412.967,-84 408.133,-84 408.133,-84 398.467,-84 398.467,-84 393.633,-84 388.8,-88.8333 388.8,-93.6667 388.8,-93.6667 388.8,-103.333 388.8,-103.333 388.8,-108.167 393.633,-113 398.467,-113"/>
<text text-anchor="middle" x="403.3" y="-94.8" font-family="Times,serif" font-size="14.00">2</text>
</a>
</g>
</g>
<!-- nd28 -->
<g id="node6" class="node"><title>nd28</title>
<g id="a_node6"><a xlink:title="nd28&#45;ConstGraph">
<path fill="none" stroke="purple" d="M444.467,-92C444.467,-92 454.133,-92 454.133,-92 458.967,-92 463.8,-87.1667 463.8,-82.3333 463.8,-82.3333 463.8,-72.6667 463.8,-72.6667 463.8,-67.8333 458.967,-63 454.133,-63 454.133,-63 444.467,-63 444.467,-63 439.633,-63 434.8,-67.8333 434.8,-72.6667 434.8,-72.6667 434.8,-82.3333 434.8,-82.3333 434.8,-87.1667 439.633,-92 444.467,-92"/>
<text text-anchor="middle" x="449.3" y="-73.8" font-family="Times,serif" font-size="14.00">3</text>
</a>
</g>
</g>
<!-- nd34 -->
<g id="node7" class="node"><title>nd34</title>
<g id="a_node7"><a xlink:title="nd34&#45;ConstGraph">
<path fill="none" stroke="purple" d="M490.467,-71C490.467,-71 500.133,-71 500.133,-71 504.967,-71 509.8,-66.1667 509.8,-61.3333 509.8,-61.3333 509.8,-51.6667 509.8,-51.6667 509.8,-46.8333 504.967,-42 500.133,-42 500.133,-42 490.467,-42 490.467,-42 485.633,-42 480.8,-46.8333 480.8,-51.6667 480.8,-51.6667 480.8,-61.3333 480.8,-61.3333 480.8,-66.1667 485.633,-71 490.467,-71"/>
<text text-anchor="middle" x="495.3" y="-52.8" font-family="Times,serif" font-size="14.00">4</text>
</a>
</g>
</g>
<!-- nd39 -->
<g id="node8" class="node"><title>nd39</title>
<g id="a_node8"><a xlink:title="nd39&#45;ConstEmptyGraph">
<path fill="none" stroke="purple" d="M490.467,-29C490.467,-29 500.133,-29 500.133,-29 504.967,-29 509.8,-24.1667 509.8,-19.3333 509.8,-19.3333 509.8,-9.66667 509.8,-9.66667 509.8,-4.83333 504.967,-1.77636e-15 500.133,-1.77636e-15 500.133,-1.77636e-15 490.467,-1.77636e-15 490.467,-1.77636e-15 485.633,-1.77636e-15 480.8,-4.83333 480.8,-9.66667 480.8,-9.66667 480.8,-19.3333 480.8,-19.3333 480.8,-24.1667 485.633,-29 490.467,-29"/>
<text text-anchor="middle" x="495.3" y="-10.8" font-family="Times,serif" font-size="14.00">[]</text>
</a>
</g>
</g>
<!-- nd50 -->
<g id="node9" class="node"><title>nd50</title>
<g id="a_node9"><a xlink:title="nd50&#45;ConstGraph">
<path fill="none" stroke="purple" d="M265.267,-136C265.267,-136 274.933,-136 274.933,-136 279.767,-136 284.6,-131.167 284.6,-126.333 284.6,-126.333 284.6,-116.667 284.6,-116.667 284.6,-111.833 279.767,-107 274.933,-107 274.933,-107 265.267,-107 265.267,-107 260.433,-107 255.6,-111.833 255.6,-116.667 255.6,-116.667 255.6,-126.333 255.6,-126.333 255.6,-131.167 260.433,-136 265.267,-136"/>
<text text-anchor="middle" x="270.1" y="-117.8" font-family="Times,serif" font-size="14.00">0</text>
</a>
</g>
</g>
<!-- nd182 -->
<g id="node10" class="node"><title>nd182</title>
<g id="a_node10"><a xlink:title="nd182&#45;ConstListGraph">
<path fill="none" stroke="purple" d="M444.467,-50C444.467,-50 454.133,-50 454.133,-50 458.967,-50 463.8,-45.1667 463.8,-40.3333 463.8,-40.3333 463.8,-30.6667 463.8,-30.6667 463.8,-25.8333 458.967,-21 454.133,-21 454.133,-21 444.467,-21 444.467,-21 439.633,-21 434.8,-25.8333 434.8,-30.6667 434.8,-30.6667 434.8,-40.3333 434.8,-40.3333 434.8,-45.1667 439.633,-50 444.467,-50"/>
<text text-anchor="middle" x="449.3" y="-31.8" font-family="Times,serif" font-size="14.00">::</text>
</a>
</g>
</g>
<!-- nd182&#45;&gt;nd34 -->
<g id="edge1" class="edge"><title>nd182:n&#45;&gt;nd34:w</title>
<path fill="none" stroke="purple" d="M449.3,-51.5C449.3,-55.0438 477.256,-56.5 480.8,-56.5"/>
</g>
<!-- nd182&#45;&gt;nd39 -->
<g id="edge2" class="edge"><title>nd182:s&#45;&gt;nd39:w</title>
<path fill="none" stroke="purple" d="M449.3,-19.5C449.3,-5.32473 466.625,-14.5 480.8,-14.5"/>
</g>
<!-- nd188 -->
<g id="node11" class="node"><title>nd188</title>
<g id="a_node11"><a xlink:title="nd188&#45;ConstListGraph">
<path fill="none" stroke="purple" d="M398.467,-71C398.467,-71 408.133,-71 408.133,-71 412.967,-71 417.8,-66.1667 417.8,-61.3333 417.8,-61.3333 417.8,-51.6667 417.8,-51.6667 417.8,-46.8333 412.967,-42 408.133,-42 408.133,-42 398.467,-42 398.467,-42 393.633,-42 388.8,-46.8333 388.8,-51.6667 388.8,-51.6667 388.8,-61.3333 388.8,-61.3333 388.8,-66.1667 393.633,-71 398.467,-71"/>
<text text-anchor="middle" x="403.3" y="-52.8" font-family="Times,serif" font-size="14.00">::</text>
</a>
</g>
</g>
<!-- nd188&#45;&gt;nd28 -->
<g id="edge3" class="edge"><title>nd188:n&#45;&gt;nd28:w</title>
<path fill="none" stroke="purple" d="M403.3,-72.5C403.3,-76.0438 431.256,-77.5 434.8,-77.5"/>
</g>
<!-- nd188&#45;&gt;nd182 -->
<g id="edge4" class="edge"><title>nd188:s&#45;&gt;nd182:w</title>
<path fill="none" stroke="purple" d="M403.3,-40.5C403.3,-26.3247 420.625,-35.5 434.8,-35.5"/>
</g>
<!-- nd194 -->
<g id="node12" class="node"><title>nd194</title>
<g id="a_node12"><a xlink:title="nd194&#45;ConstListGraph">
<path fill="none" stroke="purple" d="M352.467,-92C352.467,-92 362.133,-92 362.133,-92 366.967,-92 371.8,-87.1667 371.8,-82.3333 371.8,-82.3333 371.8,-72.6667 371.8,-72.6667 371.8,-67.8333 366.967,-63 362.133,-63 362.133,-63 352.467,-63 352.467,-63 347.633,-63 342.8,-67.8333 342.8,-72.6667 342.8,-72.6667 342.8,-82.3333 342.8,-82.3333 342.8,-87.1667 347.633,-92 352.467,-92"/>
<text text-anchor="middle" x="357.3" y="-73.8" font-family="Times,serif" font-size="14.00">::</text>
</a>
</g>
</g>
<!-- nd194&#45;&gt;nd22 -->
<g id="edge5" class="edge"><title>nd194:n&#45;&gt;nd22:w</title>
<path fill="none" stroke="purple" d="M357.3,-93.5C357.3,-100.588 381.712,-98.5 388.8,-98.5"/>
</g>
<!-- nd194&#45;&gt;nd188 -->
<g id="edge6" class="edge"><title>nd194:s&#45;&gt;nd188:w</title>
<path fill="none" stroke="purple" d="M357.3,-61.5C357.3,-47.3247 374.625,-56.5 388.8,-56.5"/>
</g>
<!-- nd200 -->
<g id="node13" class="node"><title>nd200</title>
<g id="a_node13"><a xlink:title="nd200&#45;ConstListGraph">
<path fill="none" stroke="purple" d="M265.267,-178C265.267,-178 274.933,-178 274.933,-178 279.767,-178 284.6,-173.167 284.6,-168.333 284.6,-168.333 284.6,-158.667 284.6,-158.667 284.6,-153.833 279.767,-149 274.933,-149 274.933,-149 265.267,-149 265.267,-149 260.433,-149 255.6,-153.833 255.6,-158.667 255.6,-158.667 255.6,-168.333 255.6,-168.333 255.6,-173.167 260.433,-178 265.267,-178"/>
<text text-anchor="middle" x="270.1" y="-159.8" font-family="Times,serif" font-size="14.00">::</text>
</a>
</g>
</g>
<!-- nd222 -->
<g id="node24" class="node"><title>nd222</title>
<g id="a_node24"><a xlink:title="nd222&#45;ContractGraph">
<ellipse fill="black" stroke="black" cx="303.4" cy="-121.5" rx="1.8" ry="1.8"/>
</a>
</g>
</g>
<!-- nd200&#45;&gt;nd222 -->
<g id="edge7" class="edge"><title>nd200:n&#45;&gt;nd222:w</title>
<path fill="none" stroke="black" d="M270.1,-179.5C270.1,-185.96 279.393,-182.323 284.6,-178.5 292.107,-172.988 300.427,-121.5 301.6,-121.5"/>
</g>
<!-- nd223 -->
<g id="node25" class="node"><title>nd223</title>
<g id="a_node25"><a xlink:title="nd223&#45;ContractGraph">
<ellipse fill="black" stroke="black" cx="303.4" cy="-77.5" rx="1.8" ry="1.8"/>
</a>
</g>
</g>
<!-- nd200&#45;&gt;nd223 -->
<g id="edge8" class="edge"><title>nd200:s&#45;&gt;nd223:w</title>
<path fill="none" stroke="black" d="M270.1,-147.5C270.1,-140.683 279.967,-147.5 284.6,-142.5 294.747,-131.548 286.67,-77.5 301.6,-77.5"/>
</g>
<!-- nd85 -->
<g id="node15" class="node"><title>nd85</title>
<g id="a_node15"><a xlink:title="nd85&#45;AppGraph">
<path fill="none" stroke="#000000" d="M73.5473,-189.554C73.5473,-189.554 69.6719,-183.946 69.6719,-183.946 68.136,-181.723 68.136,-177.277 69.6719,-175.054 69.6719,-175.054 73.5473,-169.446 73.5473,-169.446 75.0833,-167.223 79.3212,-165.002 82.0231,-165.005 82.0231,-165.005 87.4269,-165.009 87.4269,-165.009 90.1288,-165.011 92.8307,-167.715 92.8307,-170.417 92.8307,-170.417 92.8307,-188.583 92.8307,-188.583 92.8307,-191.285 90.1288,-193.989 87.4269,-193.991 87.4269,-193.991 82.0231,-193.995 82.0231,-193.995 79.3212,-193.998 75.0833,-191.777 73.5473,-189.554"/>
<text text-anchor="middle" x="81.1" y="-175.8" font-family="Times,serif" font-size="14.00">@</text>
</a>
</g>
</g>
<!-- nd84&#45;&gt;nd85 -->
<g id="edge14" class="edge"><title>nd84:e&#45;&gt;nd85:w</title>
<path fill="none" stroke="black" d="M48.1,-150.5C63.3882,-150.5 51.3118,-179.5 66.6,-179.5"/>
</g>
<!-- nd105 -->
<g id="node18" class="node"><title>nd105</title>
<g id="a_node18"><a xlink:title="nd105&#45;BinOpGraph">
<ellipse fill="none" stroke="#000000" cx="127.1" cy="-106.5" rx="14.5" ry="14.5"/>
<text text-anchor="middle" x="127.1" y="-102.8" font-family="Times,serif" font-size="14.00">+</text>
</a>
</g>
</g>
<!-- nd84&#45;&gt;nd105 -->
<g id="edge15" class="edge"><title>nd84:s&#45;&gt;nd105:w</title>
<path fill="none" stroke="#b70000" d="M35.1,-134.5C35.1,-97.8765 75.9765,-106.5 112.6,-106.5"/>
</g>
<!-- nd85&#45;&gt;nd136 -->
<g id="edge10" class="edge"><title>nd85:e&#45;&gt;nd136:w</title>
<path fill="none" stroke="black" d="M94.1,-179.5C108.274,-179.5 100.926,-203.5 115.1,-203.5"/>
</g>
<!-- nd89 -->
<g id="node16" class="node"><title>nd89</title>
<g id="a_node16"><a xlink:title="nd89&#45;AppGraph">
<path fill="none" stroke="#000000" d="M119.547,-174.554C119.547,-174.554 115.672,-168.946 115.672,-168.946 114.136,-166.723 114.136,-162.277 115.672,-160.054 115.672,-160.054 119.547,-154.446 119.547,-154.446 121.083,-152.223 125.321,-150.002 128.023,-150.005 128.023,-150.005 133.427,-150.009 133.427,-150.009 136.129,-150.011 138.831,-152.715 138.831,-155.417 138.831,-155.417 138.831,-173.583 138.831,-173.583 138.831,-176.285 136.129,-178.989 133.427,-178.991 133.427,-178.991 128.023,-178.995 128.023,-178.995 125.321,-178.998 121.083,-176.777 119.547,-174.554"/>
<text text-anchor="middle" x="127.1" y="-160.8" font-family="Times,serif" font-size="14.00">@</text>
</a>
</g>
</g>
<!-- nd85&#45;&gt;nd89 -->
<g id="edge11" class="edge"><title>nd85:s&#45;&gt;nd89:w</title>
<path fill="none" stroke="black" d="M81.1,-163.5C81.1,-149.493 98.5929,-164.5 112.6,-164.5"/>
</g>
<!-- ndcluster_nd91 -->
<g id="node17" class="node"><title>ndcluster_nd91</title>
<g id="a_node17"><a xlink:title="nd91">
<ellipse fill="orange" stroke="orange" cx="173.1" cy="-169.5" rx="1.8" ry="1.8"/>
</a>
</g>
</g>
<!-- nd89&#45;&gt;ndcluster_nd91 -->
<g id="edge9" class="edge"><title>nd89:e&#45;&gt;ndcluster_nd91:w</title>
<path fill="none" stroke="black" d="M140.1,-164.5C153.617,-164.5 156.583,-169.5 170.1,-169.5"/>
</g>
<!-- nd123 -->
<g id="node19" class="node"><title>nd123</title>
<g id="a_node19"><a xlink:title="nd123&#45;ContractGraph">
<ellipse fill="black" stroke="black" cx="173.1" cy="-149.5" rx="1.8" ry="1.8"/>
</a>
</g>
</g>
<!-- nd89&#45;&gt;nd123 -->
<g id="edge16" class="edge"><title>nd89:s&#45;&gt;nd123:w</title>
<path fill="none" stroke="black" d="M127.1,-148.5C127.1,-129.384 150.984,-149.5 170.1,-149.5"/>
</g>
<!-- nd125 -->
<g id="node20" class="node"><title>nd125</title>
<g id="a_node20"><a xlink:title="nd125&#45;ContractGraph">
<ellipse fill="black" stroke="black" cx="173.1" cy="-121.5" rx="1.8" ry="1.8"/>
</a>
</g>
</g>
<!-- nd105&#45;&gt;nd125 -->
<g id="edge18" class="edge"><title>nd105:n&#45;&gt;nd125:w</title>
<path fill="none" stroke="black" d="M127.1,-122.5C127.1,-141.616 150.984,-121.5 170.1,-121.5"/>
</g>
<!-- nd113 -->
<g id="node26" class="node"><title>nd113</title>
<g id="a_node26"><a xlink:title="nd113&#45;UnOpGraph">
<ellipse fill="none" stroke="#000000" cx="173.1" cy="-85.5" rx="14.5" ry="14.5"/>
<text text-anchor="middle" x="173.1" y="-81.8" font-family="Times,serif" font-size="14.00">hd</text>
</a>
</g>
</g>
<!-- nd105&#45;&gt;nd113 -->
<g id="edge12" class="edge"><title>nd105:s&#45;&gt;nd113:w</title>
<path fill="none" stroke="#b70000" d="M127.1,-90.5C127.1,-76.3247 144.425,-85.5 158.6,-85.5"/>
</g>
<!-- nd123&#45;&gt;nd200 -->
<g id="edge20" class="edge"><title>nd123:e&#45;&gt;nd200:w</title>
<path fill="none" stroke="black" d="M176.1,-149.5C211.977,-149.5 219.723,-163.5 255.6,-163.5"/>
<text text-anchor="middle" x="221.6" y="-166.3" font-family="Times,serif" font-size="14.00">x</text>
</g>
<!-- nd125&#45;&gt;nd50 -->
<g id="edge19" class="edge"><title>nd125:e&#45;&gt;nd50:w</title>
<path fill="none" stroke="black" d="M176.1,-121.5C211.433,-121.5 220.267,-121.5 255.6,-121.5"/>
<text text-anchor="middle" x="221.6" y="-125.3" font-family="Times,serif" font-size="14.00">y</text>
</g>
<!-- nd209 -->
<g id="node21" class="node"><title>nd209</title>
<g id="a_node21"><a xlink:title="nd209&#45;ContractGraph">
<ellipse fill="black" stroke="black" cx="324" cy="-121.5" rx="1.8" ry="1.8"/>
</a>
</g>
</g>
<!-- nd209&#45;&gt;nd16 -->
<g id="edge23" class="edge"><title>nd209:e&#45;&gt;nd16:w</title>
<path fill="none" stroke="black" d="M325.8,-121.5C333.356,-121.5 335.244,-121.5 342.8,-121.5"/>
</g>
<!-- nd210 -->
<g id="node22" class="node"><title>nd210</title>
<g id="a_node22"><a xlink:title="nd210&#45;ContractGraph">
<ellipse fill="black" stroke="black" cx="324" cy="-77.5" rx="1.8" ry="1.8"/>
</a>
</g>
</g>
<!-- nd210&#45;&gt;nd194 -->
<g id="edge24" class="edge"><title>nd210:e&#45;&gt;nd194:w</title>
<path fill="none" stroke="black" d="M325.8,-77.5C333.356,-77.5 335.244,-77.5 342.8,-77.5"/>
</g>
<!-- nd219 -->
<g id="node23" class="node"><title>nd219</title>
<g id="a_node23"><a xlink:title="nd219&#45;ConstListGraph">
<path fill="none" stroke="purple" d="M265.267,-94C265.267,-94 274.933,-94 274.933,-94 279.767,-94 284.6,-89.1667 284.6,-84.3333 284.6,-84.3333 284.6,-74.6667 284.6,-74.6667 284.6,-69.8333 279.767,-65 274.933,-65 274.933,-65 265.267,-65 265.267,-65 260.433,-65 255.6,-69.8333 255.6,-74.6667 255.6,-74.6667 255.6,-84.3333 255.6,-84.3333 255.6,-89.1667 260.433,-94 265.267,-94"/>
<text text-anchor="middle" x="270.1" y="-75.8" font-family="Times,serif" font-size="14.00">::</text>
</a>
</g>
</g>
<!-- nd219&#45;&gt;nd222 -->
<g id="edge27" class="edge"><title>nd219:n&#45;&gt;nd222:w</title>
<path fill="none" stroke="black" d="M270.1,-95.5C270.1,-102.317 279.017,-96.5883 284.6,-100.5 294.434,-107.391 289.592,-121.5 301.6,-121.5"/>
</g>
<!-- nd219&#45;&gt;nd223 -->
<g id="edge28" class="edge"><title>nd219:s&#45;&gt;nd223:w</title>
<path fill="none" stroke="black" d="M270.1,-63.5C270.1,-57.0402 278.556,-62.2192 284.6,-64.5 293.499,-67.8582 292.088,-77.5 301.6,-77.5"/>
</g>
<!-- nd222&#45;&gt;nd209 -->
<g id="edge25" class="edge"><title>nd222:e&#45;&gt;nd209:w</title>
<path fill="none" stroke="black" d="M305.2,-121.5C312.756,-121.5 314.644,-121.5 322.2,-121.5"/>
</g>
<!-- nd223&#45;&gt;nd210 -->
<g id="edge26" class="edge"><title>nd223:e&#45;&gt;nd210:w</title>
<path fill="none" stroke="black" d="M305.2,-77.5C312.756,-77.5 314.644,-77.5 322.2,-77.5"/>
</g>
<!-- nd113&#45;&gt;nd219 -->
<g id="edge13" class="edge"><title>nd113:e&#45;&gt;nd219:w</title>
<path fill="none" stroke="red" d="M187.6,-85.5C214.266,-85.5 223.15,-80.8651 245.509,-79.7426"/>
<polygon fill="red" stroke="red" points="245.687,-83.2395 255.6,-79.5 245.519,-76.2415 245.687,-83.2395"/>
<text text-anchor="middle" x="221.6" y="-88.3" font-family="Times,serif" font-size="14.00">op_arg, x</text>
</g>
</g>
</svg>
