<?xml version="1.0" encoding="UTF-8" standalone="no"?>
<!DOCTYPE svg PUBLIC "-//W3C//DTD SVG 1.1//EN"
 "http://www.w3.org/Graphics/SVG/1.1/DTD/svg11.dtd">
<!-- Generated by graphviz version 2.38.0 (20140413.2041)
 -->
<!-- Title: G Pages: 1 -->
<svg width="276pt" height="116pt"
 viewBox="0.00 0.00 275.80 115.50" xmlns="http://www.w3.org/2000/svg" xmlns:xlink="http://www.w3.org/1999/xlink">
<g id="graph0" class="graph" transform="scale(1 1) rotate(0) translate(4 111.5)">
<title>G</title>
<polygon fill="white" stroke="none" points="-4,4 -4,-111.5 271.8,-111.5 271.8,4 -4,4"/>
<g id="clust1" class="cluster"><title>cluster_nd472</title>
<polygon fill="none" stroke="orange" points="240.2,-71.5 240.2,-91.5 259.8,-91.5 259.8,-71.5 240.2,-71.5"/>
</g>
<g id="clust2" class="cluster"><title>cluster_nd399</title>
<polygon fill="none" stroke="orange" points="164.6,-72.5 164.6,-92.5 184.2,-92.5 184.2,-72.5 164.6,-72.5"/>
</g>
<!-- nd1 -->
<g id="node1" class="node"><title>nd1</title>
<ellipse fill="black" stroke="black" cx="1.8" cy="-36.5" rx="1.8" ry="1.8"/>
</g>
<!-- nd332 -->
<g id="node3" class="node"><title>nd332</title>
<g id="a_node3"><a xlink:title="nd332&#45;AppGraph">
<path fill="none" stroke="#000000" d="M27.5473,-46.5543C27.5473,-46.5543 23.6719,-40.9457 23.6719,-40.9457 22.136,-38.7229 22.136,-34.2771 23.6719,-32.0543 23.6719,-32.0543 27.5473,-26.4457 27.5473,-26.4457 29.0833,-24.2229 33.3212,-22.0023 36.0231,-22.0045 36.0231,-22.0045 41.4269,-22.009 41.4269,-22.009 44.1288,-22.0113 46.8307,-24.7155 46.8307,-27.4174 46.8307,-27.4174 46.8307,-45.5826 46.8307,-45.5826 46.8307,-48.2845 44.1288,-50.9887 41.4269,-50.991 41.4269,-50.991 36.0231,-50.9955 36.0231,-50.9955 33.3212,-50.9977 29.0833,-48.7771 27.5473,-46.5543"/>
<text text-anchor="middle" x="35.1" y="-32.8" font-family="Times,serif" font-size="14.00">@</text>
</a>
</g>
</g>
<!-- nd1&#45;&gt;nd332 -->
<g id="edge5" class="edge"><title>nd1:e&#45;&gt;nd332:w</title>
<path fill="none" stroke="#b70000" d="M3.6,-36.5C11.1556,-36.5 13.0444,-36.5 20.6,-36.5"/>
</g>
<!-- nd39 -->
<g id="node2" class="node"><title>nd39</title>
<g id="a_node2"><a xlink:title="nd39&#45;ConstEmptyGraph">
<path fill="none" stroke="purple" d="M122.267,-48C122.267,-48 131.933,-48 131.933,-48 136.767,-48 141.6,-43.1667 141.6,-38.3333 141.6,-38.3333 141.6,-28.6667 141.6,-28.6667 141.6,-23.8333 136.767,-19 131.933,-19 131.933,-19 122.267,-19 122.267,-19 117.433,-19 112.6,-23.8333 112.6,-28.6667 112.6,-28.6667 112.6,-38.3333 112.6,-38.3333 112.6,-43.1667 117.433,-48 122.267,-48"/>
<text text-anchor="middle" x="127.1" y="-29.8" font-family="Times,serif" font-size="14.00">[]</text>
</a>
</g>
</g>
<!-- nd333 -->
<g id="node4" class="node"><title>nd333</title>
<g id="a_node4"><a xlink:title="nd333&#45;AppGraph">
<path fill="none" stroke="#000000" d="M73.5473,-66.5543C73.5473,-66.5543 69.6719,-60.9457 69.6719,-60.9457 68.136,-58.7229 68.136,-54.2771 69.6719,-52.0543 69.6719,-52.0543 73.5473,-46.4457 73.5473,-46.4457 75.0833,-44.2229 79.3212,-42.0023 82.0231,-42.0045 82.0231,-42.0045 87.4269,-42.009 87.4269,-42.009 90.1288,-42.0113 92.8307,-44.7155 92.8307,-47.4174 92.8307,-47.4174 92.8307,-65.5826 92.8307,-65.5826 92.8307,-68.2845 90.1288,-70.9887 87.4269,-70.991 87.4269,-70.991 82.0231,-70.9955 82.0231,-70.9955 79.3212,-70.9977 75.0833,-68.7771 73.5473,-66.5543"/>
<text text-anchor="middle" x="81.1" y="-52.8" font-family="Times,serif" font-size="14.00">@</text>
</a>
</g>
</g>
<!-- nd332&#45;&gt;nd333 -->
<g id="edge3" class="edge"><title>nd332:e&#45;&gt;nd333:w</title>
<path fill="none" stroke="#b70000" d="M48.1,-36.5C60.2086,-36.5 54.4914,-56.5 66.6,-56.5"/>
</g>
<!-- nd463 -->
<g id="node5" class="node"><title>nd463</title>
<g id="a_node5"><a xlink:title="nd463&#45;ConstGraph">
<path fill="none" stroke="purple" d="M76.2667,-29C76.2667,-29 85.9333,-29 85.9333,-29 90.7667,-29 95.6,-24.1667 95.6,-19.3333 95.6,-19.3333 95.6,-9.66667 95.6,-9.66667 95.6,-4.83333 90.7667,-1.77636e-15 85.9333,-1.77636e-15 85.9333,-1.77636e-15 76.2667,-1.77636e-15 76.2667,-1.77636e-15 71.4333,-1.77636e-15 66.6,-4.83333 66.6,-9.66667 66.6,-9.66667 66.6,-19.3333 66.6,-19.3333 66.6,-24.1667 71.4333,-29 76.2667,-29"/>
<text text-anchor="middle" x="81.1" y="-10.8" font-family="Times,serif" font-size="14.00">10</text>
</a>
</g>
</g>
<!-- nd332&#45;&gt;nd463 -->
<g id="edge4" class="edge"><title>nd332:s&#45;&gt;nd463:w</title>
<path fill="none" stroke="black" d="M35.1,-20.5C35.1,-6.24829 52.3483,-14.5 66.6,-14.5"/>
</g>
<!-- nd333&#45;&gt;nd39 -->
<g id="edge1" class="edge"><title>nd333:s&#45;&gt;nd39:w</title>
<path fill="none" stroke="black" d="M81.1,-40.5C81.1,-36.9146 109.015,-33.5 112.6,-33.5"/>
</g>
<!-- nd396 -->
<g id="node8" class="node"><title>nd396</title>
<g id="a_node8"><a xlink:title="nd396&#45;AbsGraph">
<ellipse fill="none" stroke="#000000" cx="127.1" cy="-75.5" rx="14.5" ry="14.5"/>
<text text-anchor="middle" x="127.1" y="-71.8" font-family="Times,serif" font-size="14.00">fun</text>
</a>
</g>
</g>
<!-- nd333&#45;&gt;nd396 -->
<g id="edge2" class="edge"><title>nd333:e&#45;&gt;nd396:w</title>
<path fill="none" stroke="red" d="M94.1,-56.5C101.282,-56.5 102.204,-63.5554 104.496,-69.0675"/>
<polygon fill="red" stroke="red" points="102.591,-72.0245 112.6,-75.5 106.943,-66.5417 102.591,-72.0245"/>
</g>
<!-- nd468 -->
<g id="node6" class="node"><title>nd468</title>
<g id="a_node6"><a xlink:title="nd468&#45;RecurGraph">
<ellipse fill="none" stroke="#000000" cx="212.2" cy="-82.5" rx="11" ry="11"/>
<text text-anchor="middle" x="212.2" y="-78.8" font-family="Times,serif" font-size="14.00">rec</text>
</a>
</g>
</g>
<!-- ndcluster_nd472 -->
<g id="node7" class="node"><title>ndcluster_nd472</title>
<g id="a_node7"><a xlink:title="nd472">
<ellipse fill="orange" stroke="orange" cx="250" cy="-81.5" rx="1.8" ry="1.8"/>
</a>
</g>
</g>
<!-- nd468&#45;&gt;ndcluster_nd472 -->
<g id="edge9" class="edge"><title>nd468:n&#45;&gt;ndcluster_nd472:e</title>
<path fill="none" stroke="grey" d="M212.2,-94.5C212.2,-104.016 262.516,-81.5 253,-81.5"/>
</g>
<!-- nd468&#45;&gt;ndcluster_nd472 -->
<g id="edge10" class="edge"><title>nd468:e&#45;&gt;ndcluster_nd472:w</title>
<path fill="none" stroke="black" d="M223.2,-82.5C233.787,-82.5 236.413,-81.5 247,-81.5"/>
</g>
<!-- ndcluster_nd399 -->
<g id="node9" class="node"><title>ndcluster_nd399</title>
<g id="a_node9"><a xlink:title="nd399">
<ellipse fill="orange" stroke="orange" cx="174.4" cy="-82.5" rx="1.8" ry="1.8"/>
</a>
</g>
</g>
<!-- nd396&#45;&gt;ndcluster_nd399 -->
<g id="edge7" class="edge"><title>nd396:n&#45;&gt;ndcluster_nd399:e</title>
<path fill="none" stroke="grey" d="M127.1,-91.5C127.1,-102.855 188.755,-82.5 177.4,-82.5"/>
<text text-anchor="middle" x="153.1" y="-96.3" font-family="Times,serif" font-size="14.00">x</text>
</g>
<!-- nd396&#45;&gt;ndcluster_nd399 -->
<g id="edge8" class="edge"><title>nd396:e&#45;&gt;ndcluster_nd399:w</title>
<path fill="none" stroke="black" d="M141.6,-75.5C155.205,-75.5 157.795,-82.5 171.4,-82.5"/>
</g>
<!-- ndcluster_nd399&#45;&gt;nd468 -->
<g id="edge6" class="edge"><title>ndcluster_nd399:e&#45;&gt;nd468:w</title>
<path fill="none" stroke="black" d="M177.4,-82.5C187.978,-82.5 190.622,-82.5 201.2,-82.5"/>
</g>
</g>
</svg>
