<?xml version="1.0" encoding="UTF-8" standalone="no"?>
<!DOCTYPE svg PUBLIC "-//W3C//DTD SVG 1.1//EN"
 "http://www.w3.org/Graphics/SVG/1.1/DTD/svg11.dtd">
<!-- Generated by graphviz version 2.38.0 (20140413.2041)
 -->
<!-- Title: G Pages: 1 -->
<svg width="510pt" height="191pt"
 viewBox="0.00 0.00 510.20 190.78" xmlns="http://www.w3.org/2000/svg" xmlns:xlink="http://www.w3.org/1999/xlink">
<g id="graph0" class="graph" transform="scale(1 1) rotate(0) translate(4 186.775)">
<title>G</title>
<polygon fill="white" stroke="none" points="-4,4 -4,-186.775 506.2,-186.775 506.2,4 -4,4"/>
<g id="clust1" class="cluster"><title>cluster_nd140</title>
<polygon fill="none" stroke="orange" points="175.3,-154.5 175.3,-174.5 194.9,-174.5 194.9,-154.5 175.3,-154.5"/>
</g>
<g id="clust2" class="cluster"><title>cluster_nd91</title>
<polygon fill="none" stroke="orange" points="173.3,-102.5 173.3,-145.5 196.9,-145.5 196.9,-102.5 173.3,-102.5"/>
<text text-anchor="middle" x="185.1" y="-130.3" font-family="Times,serif" font-size="14.00">tl</text>
</g>
<!-- nd1 -->
<g id="node1" class="node"><title>nd1</title>
<ellipse fill="black" stroke="black" cx="1.8" cy="-102.5" rx="1.8" ry="1.8"/>
</g>
<!-- nd84 -->
<g id="node14" class="node"><title>nd84</title>
<g id="a_node14"><a xlink:title="nd84&#45;AppGraph">
<path fill="none" stroke="#000000" d="M27.5473,-112.554C27.5473,-112.554 23.6719,-106.946 23.6719,-106.946 22.136,-104.723 22.136,-100.277 23.6719,-98.0543 23.6719,-98.0543 27.5473,-92.4457 27.5473,-92.4457 29.0833,-90.2229 33.3212,-88.0023 36.0231,-88.0045 36.0231,-88.0045 41.4269,-88.009 41.4269,-88.009 44.1288,-88.0113 46.8307,-90.7155 46.8307,-93.4174 46.8307,-93.4174 46.8307,-111.583 46.8307,-111.583 46.8307,-114.285 44.1288,-116.989 41.4269,-116.991 41.4269,-116.991 36.0231,-116.995 36.0231,-116.995 33.3212,-116.998 29.0833,-114.777 27.5473,-112.554"/>
<text text-anchor="middle" x="35.1" y="-98.8" font-family="Times,serif" font-size="14.00">@</text>
</a>
</g>
</g>
<!-- nd1&#45;&gt;nd84 -->
<g id="edge16" class="edge"><title>nd1:e&#45;&gt;nd84:w</title>
<path fill="none" stroke="#b70000" d="M3.6,-102.5C11.1556,-102.5 13.0444,-102.5 20.6,-102.5"/>
</g>
<!-- nd136 -->
<g id="node2" class="node"><title>nd136</title>
<g id="a_node2"><a xlink:title="nd136&#45;RecurGraph">
<ellipse fill="none" stroke="#000000" cx="133.1" cy="-146.5" rx="11" ry="11"/>
<text text-anchor="middle" x="133.1" y="-142.8" font-family="Times,serif" font-size="14.00">rec</text>
</a>
</g>
</g>
<!-- ndcluster_nd140 -->
<g id="node3" class="node"><title>ndcluster_nd140</title>
<g id="a_node3"><a xlink:title="nd140">
<ellipse fill="orange" stroke="orange" cx="185.1" cy="-164.5" rx="1.8" ry="1.8"/>
</a>
</g>
</g>
<!-- nd136&#45;&gt;ndcluster_nd140 -->
<g id="edge20" class="edge"><title>nd136:n&#45;&gt;ndcluster_nd140:e</title>
<path fill="none" stroke="grey" d="M133.1,-158.5C133.1,-209.095 196.08,-164.5 188.1,-164.5"/>
</g>
<!-- nd136&#45;&gt;ndcluster_nd140 -->
<g id="edge21" class="edge"><title>nd136:e&#45;&gt;ndcluster_nd140:w</title>
<path fill="none" stroke="black" d="M145.1,-146.5C163.387,-146.5 163.813,-164.5 182.1,-164.5"/>
</g>
<!-- nd16 -->
<g id="node4" class="node"><title>nd16</title>
<g id="a_node4"><a xlink:title="nd16&#45;ConstGraph">
<path fill="none" stroke="purple" d="M298.867,-122C298.867,-122 308.533,-122 308.533,-122 313.367,-122 318.2,-117.167 318.2,-112.333 318.2,-112.333 318.2,-102.667 318.2,-102.667 318.2,-97.8333 313.367,-93 308.533,-93 308.533,-93 298.867,-93 298.867,-93 294.033,-93 289.2,-97.8333 289.2,-102.667 289.2,-102.667 289.2,-112.333 289.2,-112.333 289.2,-117.167 294.033,-122 298.867,-122"/>
<text text-anchor="middle" x="303.7" y="-103.8" font-family="Times,serif" font-size="14.00">1</text>
</a>
</g>
</g>
<!-- nd22 -->
<g id="node5" class="node"><title>nd22</title>
<g id="a_node5"><a xlink:title="nd22&#45;ConstGraph">
<path fill="none" stroke="purple" d="M390.867,-113C390.867,-113 400.533,-113 400.533,-113 405.367,-113 410.2,-108.167 410.2,-103.333 410.2,-103.333 410.2,-93.6667 410.2,-93.6667 410.2,-88.8333 405.367,-84 400.533,-84 400.533,-84 390.867,-84 390.867,-84 386.033,-84 381.2,-88.8333 381.2,-93.6667 381.2,-93.6667 381.2,-103.333 381.2,-103.333 381.2,-108.167 386.033,-113 390.867,-113"/>
<text text-anchor="middle" x="395.7" y="-94.8" font-family="Times,serif" font-size="14.00">2</text>
</a>
</g>
</g>
<!-- nd28 -->
<g id="node6" class="node"><title>nd28</title>
<g id="a_node6"><a xlink:title="nd28&#45;ConstGraph">
<path fill="none" stroke="purple" d="M436.867,-92C436.867,-92 446.533,-92 446.533,-92 451.367,-92 456.2,-87.1667 456.2,-82.3333 456.2,-82.3333 456.2,-72.6667 456.2,-72.6667 456.2,-67.8333 451.367,-63 446.533,-63 446.533,-63 436.867,-63 436.867,-63 432.033,-63 427.2,-67.8333 427.2,-72.6667 427.2,-72.6667 427.2,-82.3333 427.2,-82.3333 427.2,-87.1667 432.033,-92 436.867,-92"/>
<text text-anchor="middle" x="441.7" y="-73.8" font-family="Times,serif" font-size="14.00">3</text>
</a>
</g>
</g>
<!-- nd34 -->
<g id="node7" class="node"><title>nd34</title>
<g id="a_node7"><a xlink:title="nd34&#45;ConstGraph">
<path fill="none" stroke="purple" d="M482.867,-71C482.867,-71 492.533,-71 492.533,-71 497.367,-71 502.2,-66.1667 502.2,-61.3333 502.2,-61.3333 502.2,-51.6667 502.2,-51.6667 502.2,-46.8333 497.367,-42 492.533,-42 492.533,-42 482.867,-42 482.867,-42 478.033,-42 473.2,-46.8333 473.2,-51.6667 473.2,-51.6667 473.2,-61.3333 473.2,-61.3333 473.2,-66.1667 478.033,-71 482.867,-71"/>
<text text-anchor="middle" x="487.7" y="-52.8" font-family="Times,serif" font-size="14.00">4</text>
</a>
</g>
</g>
<!-- nd39 -->
<g id="node8" class="node"><title>nd39</title>
<g id="a_node8"><a xlink:title="nd39&#45;ConstEmptyGraph">
<path fill="none" stroke="purple" d="M482.867,-29C482.867,-29 492.533,-29 492.533,-29 497.367,-29 502.2,-24.1667 502.2,-19.3333 502.2,-19.3333 502.2,-9.66667 502.2,-9.66667 502.2,-4.83333 497.367,-1.77636e-15 492.533,-1.77636e-15 492.533,-1.77636e-15 482.867,-1.77636e-15 482.867,-1.77636e-15 478.033,-1.77636e-15 473.2,-4.83333 473.2,-9.66667 473.2,-9.66667 473.2,-19.3333 473.2,-19.3333 473.2,-24.1667 478.033,-29 482.867,-29"/>
<text text-anchor="middle" x="487.7" y="-10.8" font-family="Times,serif" font-size="14.00">[]</text>
</a>
</g>
</g>
<!-- nd50 -->
<g id="node9" class="node"><title>nd50</title>
<g id="a_node9"><a xlink:title="nd50&#45;ConstGraph">
<path fill="none" stroke="purple" d="M180.267,-78C180.267,-78 189.933,-78 189.933,-78 194.767,-78 199.6,-73.1667 199.6,-68.3333 199.6,-68.3333 199.6,-58.6667 199.6,-58.6667 199.6,-53.8333 194.767,-49 189.933,-49 189.933,-49 180.267,-49 180.267,-49 175.433,-49 170.6,-53.8333 170.6,-58.6667 170.6,-58.6667 170.6,-68.3333 170.6,-68.3333 170.6,-73.1667 175.433,-78 180.267,-78"/>
<text text-anchor="middle" x="185.1" y="-59.8" font-family="Times,serif" font-size="14.00">0</text>
</a>
</g>
</g>
<!-- nd182 -->
<g id="node10" class="node"><title>nd182</title>
<g id="a_node10"><a xlink:title="nd182&#45;ConstListGraph">
<path fill="none" stroke="purple" d="M436.867,-50C436.867,-50 446.533,-50 446.533,-50 451.367,-50 456.2,-45.1667 456.2,-40.3333 456.2,-40.3333 456.2,-30.6667 456.2,-30.6667 456.2,-25.8333 451.367,-21 446.533,-21 446.533,-21 436.867,-21 436.867,-21 432.033,-21 427.2,-25.8333 427.2,-30.6667 427.2,-30.6667 427.2,-40.3333 427.2,-40.3333 427.2,-45.1667 432.033,-50 436.867,-50"/>
<text text-anchor="middle" x="441.7" y="-31.8" font-family="Times,serif" font-size="14.00">::</text>
</a>
</g>
</g>
<!-- nd182&#45;&gt;nd34 -->
<g id="edge1" class="edge"><title>nd182:n&#45;&gt;nd34:w</title>
<path fill="none" stroke="purple" d="M441.7,-51.5C441.7,-55.0438 469.656,-56.5 473.2,-56.5"/>
</g>
<!-- nd182&#45;&gt;nd39 -->
<g id="edge2" class="edge"><title>nd182:s&#45;&gt;nd39:w</title>
<path fill="none" stroke="purple" d="M441.7,-19.5C441.7,-5.32473 459.025,-14.5 473.2,-14.5"/>
</g>
<!-- nd188 -->
<g id="node11" class="node"><title>nd188</title>
<g id="a_node11"><a xlink:title="nd188&#45;ConstListGraph">
<path fill="none" stroke="purple" d="M390.867,-71C390.867,-71 400.533,-71 400.533,-71 405.367,-71 410.2,-66.1667 410.2,-61.3333 410.2,-61.3333 410.2,-51.6667 410.2,-51.6667 410.2,-46.8333 405.367,-42 400.533,-42 400.533,-42 390.867,-42 390.867,-42 386.033,-42 381.2,-46.8333 381.2,-51.6667 381.2,-51.6667 381.2,-61.3333 381.2,-61.3333 381.2,-66.1667 386.033,-71 390.867,-71"/>
<text text-anchor="middle" x="395.7" y="-52.8" font-family="Times,serif" font-size="14.00">::</text>
</a>
</g>
</g>
<!-- nd188&#45;&gt;nd28 -->
<g id="edge3" class="edge"><title>nd188:n&#45;&gt;nd28:w</title>
<path fill="none" stroke="purple" d="M395.7,-72.5C395.7,-76.0438 423.656,-77.5 427.2,-77.5"/>
</g>
<!-- nd188&#45;&gt;nd182 -->
<g id="edge4" class="edge"><title>nd188:s&#45;&gt;nd182:w</title>
<path fill="none" stroke="purple" d="M395.7,-40.5C395.7,-26.3247 413.025,-35.5 427.2,-35.5"/>
</g>
<!-- nd194 -->
<g id="node12" class="node"><title>nd194</title>
<g id="a_node12"><a xlink:title="nd194&#45;ConstListGraph">
<path fill="none" stroke="purple" d="M344.867,-92C344.867,-92 354.533,-92 354.533,-92 359.367,-92 364.2,-87.1667 364.2,-82.3333 364.2,-82.3333 364.2,-72.6667 364.2,-72.6667 364.2,-67.8333 359.367,-63 354.533,-63 354.533,-63 344.867,-63 344.867,-63 340.033,-63 335.2,-67.8333 335.2,-72.6667 335.2,-72.6667 335.2,-82.3333 335.2,-82.3333 335.2,-87.1667 340.033,-92 344.867,-92"/>
<text text-anchor="middle" x="349.7" y="-73.8" font-family="Times,serif" font-size="14.00">::</text>
</a>
</g>
</g>
<!-- nd194&#45;&gt;nd22 -->
<g id="edge5" class="edge"><title>nd194:n&#45;&gt;nd22:w</title>
<path fill="none" stroke="purple" d="M349.7,-93.5C349.7,-107.675 367.025,-98.5 381.2,-98.5"/>
</g>
<!-- nd194&#45;&gt;nd188 -->
<g id="edge6" class="edge"><title>nd194:s&#45;&gt;nd188:w</title>
<path fill="none" stroke="purple" d="M349.7,-61.5C349.7,-47.3247 367.025,-56.5 381.2,-56.5"/>
</g>
<!-- nd200 -->
<g id="node13" class="node"><title>nd200</title>
<g id="a_node13"><a xlink:title="nd200&#45;ConstListGraph">
<path fill="none" stroke="purple" d="M232.267,-107C232.267,-107 241.933,-107 241.933,-107 246.767,-107 251.6,-102.167 251.6,-97.3333 251.6,-97.3333 251.6,-87.6667 251.6,-87.6667 251.6,-82.8333 246.767,-78 241.933,-78 241.933,-78 232.267,-78 232.267,-78 227.433,-78 222.6,-82.8333 222.6,-87.6667 222.6,-87.6667 222.6,-97.3333 222.6,-97.3333 222.6,-102.167 227.433,-107 232.267,-107"/>
<text text-anchor="middle" x="237.1" y="-88.8" font-family="Times,serif" font-size="14.00">::</text>
</a>
</g>
</g>
<!-- nd222 -->
<g id="node22" class="node"><title>nd222</title>
<g id="a_node22"><a xlink:title="nd222&#45;ContractGraph">
<ellipse fill="black" stroke="black" cx="270.4" cy="-107.5" rx="1.8" ry="1.8"/>
</a>
</g>
</g>
<!-- nd200&#45;&gt;nd222 -->
<g id="edge7" class="edge"><title>nd200:n&#45;&gt;nd222:w</title>
<path fill="none" stroke="black" d="M237.1,-108.5C237.1,-122.507 254.593,-107.5 268.6,-107.5"/>
</g>
<!-- nd223 -->
<g id="node23" class="node"><title>nd223</title>
<g id="a_node23"><a xlink:title="nd223&#45;ContractGraph">
<ellipse fill="black" stroke="black" cx="270.4" cy="-77.5" rx="1.8" ry="1.8"/>
</a>
</g>
</g>
<!-- nd200&#45;&gt;nd223 -->
<g id="edge8" class="edge"><title>nd200:s&#45;&gt;nd223:w</title>
<path fill="none" stroke="black" d="M237.1,-76.5C237.1,-62.4929 254.593,-77.5 268.6,-77.5"/>
</g>
<!-- nd85 -->
<g id="node15" class="node"><title>nd85</title>
<g id="a_node15"><a xlink:title="nd85&#45;AppGraph">
<path fill="none" stroke="#000000" d="M73.5473,-132.554C73.5473,-132.554 69.6719,-126.946 69.6719,-126.946 68.136,-124.723 68.136,-120.277 69.6719,-118.054 69.6719,-118.054 73.5473,-112.446 73.5473,-112.446 75.0833,-110.223 79.3212,-108.002 82.0231,-108.005 82.0231,-108.005 87.4269,-108.009 87.4269,-108.009 90.1288,-108.011 92.8307,-110.715 92.8307,-113.417 92.8307,-113.417 92.8307,-131.583 92.8307,-131.583 92.8307,-134.285 90.1288,-136.989 87.4269,-136.991 87.4269,-136.991 82.0231,-136.995 82.0231,-136.995 79.3212,-136.998 75.0833,-134.777 73.5473,-132.554"/>
<text text-anchor="middle" x="81.1" y="-118.8" font-family="Times,serif" font-size="14.00">@</text>
</a>
</g>
</g>
<!-- nd84&#45;&gt;nd85 -->
<g id="edge13" class="edge"><title>nd84:e&#45;&gt;nd85:w</title>
<path fill="none" stroke="black" d="M48.1,-102.5C60.2086,-102.5 54.4914,-122.5 66.6,-122.5"/>
</g>
<!-- nd105 -->
<g id="node18" class="node"><title>nd105</title>
<g id="a_node18"><a xlink:title="nd105&#45;BinOpGraph">
<ellipse fill="none" stroke="#000000" cx="81.1" cy="-57.5" rx="14.5" ry="14.5"/>
<text text-anchor="middle" x="81.1" y="-53.8" font-family="Times,serif" font-size="14.00">+</text>
</a>
</g>
</g>
<!-- nd84&#45;&gt;nd105 -->
<g id="edge14" class="edge"><title>nd84:s&#45;&gt;nd105:w</title>
<path fill="none" stroke="#b70000" d="M35.1,-86.5C35.1,-67.4705 47.5705,-57.5 66.6,-57.5"/>
</g>
<!-- nd85&#45;&gt;nd136 -->
<g id="edge10" class="edge"><title>nd85:e&#45;&gt;nd136:w</title>
<path fill="none" stroke="black" d="M94.1,-122.5C110.155,-122.5 105.045,-146.5 121.1,-146.5"/>
</g>
<!-- nd89 -->
<g id="node16" class="node"><title>nd89</title>
<g id="a_node16"><a xlink:title="nd89&#45;AppGraph">
<path fill="none" stroke="#000000" d="M125.547,-117.554C125.547,-117.554 121.672,-111.946 121.672,-111.946 120.136,-109.723 120.136,-105.277 121.672,-103.054 121.672,-103.054 125.547,-97.4457 125.547,-97.4457 127.083,-95.2229 131.321,-93.0023 134.023,-93.0045 134.023,-93.0045 139.427,-93.009 139.427,-93.009 142.129,-93.0113 144.831,-95.7155 144.831,-98.4174 144.831,-98.4174 144.831,-116.583 144.831,-116.583 144.831,-119.285 142.129,-121.989 139.427,-121.991 139.427,-121.991 134.023,-121.995 134.023,-121.995 131.321,-121.998 127.083,-119.777 125.547,-117.554"/>
<text text-anchor="middle" x="133.1" y="-103.8" font-family="Times,serif" font-size="14.00">@</text>
</a>
</g>
</g>
<!-- nd85&#45;&gt;nd89 -->
<g id="edge11" class="edge"><title>nd85:s&#45;&gt;nd89:w</title>
<path fill="none" stroke="black" d="M81.1,-106.5C81.1,-89.8274 101.927,-107.5 118.6,-107.5"/>
</g>
<!-- ndcluster_nd91 -->
<g id="node17" class="node"><title>ndcluster_nd91</title>
<g id="a_node17"><a xlink:title="nd91">
<ellipse fill="orange" stroke="orange" cx="185.1" cy="-112.5" rx="1.8" ry="1.8"/>
</a>
</g>
</g>
<!-- nd89&#45;&gt;ndcluster_nd91 -->
<g id="edge9" class="edge"><title>nd89:e&#45;&gt;ndcluster_nd91:w</title>
<path fill="none" stroke="black" d="M146.1,-107.5C162.254,-107.5 165.946,-112.5 182.1,-112.5"/>
</g>
<!-- nd123 -->
<g id="node19" class="node"><title>nd123</title>
<g id="a_node19"><a xlink:title="nd123&#45;ContractGraph">
<ellipse fill="black" stroke="black" cx="185.1" cy="-92.5" rx="1.8" ry="1.8"/>
</a>
</g>
</g>
<!-- nd89&#45;&gt;nd123 -->
<g id="edge15" class="edge"><title>nd89:s&#45;&gt;nd123:w</title>
<path fill="none" stroke="black" d="M133.1,-91.5C133.1,-69.7177 160.318,-92.5 182.1,-92.5"/>
</g>
<!-- nd125 -->
<g id="node20" class="node"><title>nd125</title>
<g id="a_node20"><a xlink:title="nd125&#45;ContractGraph">
<ellipse fill="black" stroke="black" cx="133.1" cy="-71.5" rx="1.8" ry="1.8"/>
</a>
</g>
</g>
<!-- nd105&#45;&gt;nd125 -->
<g id="edge17" class="edge"><title>nd105:n&#45;&gt;nd125:w</title>
<path fill="none" stroke="black" d="M81.1,-73.5C81.1,-95.2959 108.304,-71.5 130.1,-71.5"/>
</g>
<!-- nd228 -->
<g id="node24" class="node"><title>nd228</title>
<g id="a_node24"><a xlink:title="nd228&#45;ConstGraph">
<path fill="none" stroke="purple" d="M128.267,-57C128.267,-57 137.933,-57 137.933,-57 142.767,-57 147.6,-52.1667 147.6,-47.3333 147.6,-47.3333 147.6,-37.6667 147.6,-37.6667 147.6,-32.8333 142.767,-28 137.933,-28 137.933,-28 128.267,-28 128.267,-28 123.433,-28 118.6,-32.8333 118.6,-37.6667 118.6,-37.6667 118.6,-47.3333 118.6,-47.3333 118.6,-52.1667 123.433,-57 128.267,-57"/>
<text text-anchor="middle" x="133.1" y="-38.8" font-family="Times,serif" font-size="14.00">1</text>
</a>
</g>
</g>
<!-- nd105&#45;&gt;nd228 -->
<g id="edge12" class="edge"><title>nd105:s&#45;&gt;nd228:w</title>
<path fill="none" stroke="red" d="M81.1,-41.5C81.1,-28.0838 94.5862,-36.9068 108.542,-40.8651"/>
<polygon fill="red" stroke="red" points="108.168,-44.3502 118.6,-42.5 109.291,-37.4409 108.168,-44.3502"/>
<text text-anchor="middle" x="107.1" y="-45.3" font-family="Times,serif" font-size="14.00">n</text>
</g>
<!-- nd123&#45;&gt;nd200 -->
<g id="edge19" class="edge"><title>nd123:e&#45;&gt;nd200:w</title>
<path fill="none" stroke="black" d="M188.1,-92.5C203.433,-92.5 207.267,-92.5 222.6,-92.5"/>
<text text-anchor="middle" x="211.1" y="-96.3" font-family="Times,serif" font-size="14.00">x</text>
</g>
<!-- nd125&#45;&gt;nd50 -->
<g id="edge18" class="edge"><title>nd125:e&#45;&gt;nd50:w</title>
<path fill="none" stroke="black" d="M136.1,-71.5C151.84,-71.5 154.86,-63.5 170.6,-63.5"/>
<text text-anchor="middle" x="159.1" y="-70.3" font-family="Times,serif" font-size="14.00">y</text>
</g>
<!-- nd210 -->
<g id="node21" class="node"><title>nd210</title>
<g id="a_node21"><a xlink:title="nd210&#45;ContractGraph">
<ellipse fill="black" stroke="black" cx="303.7" cy="-77.5" rx="1.8" ry="1.8"/>
</a>
</g>
</g>
<!-- nd210&#45;&gt;nd194 -->
<g id="edge23" class="edge"><title>nd210:e&#45;&gt;nd194:w</title>
<path fill="none" stroke="black" d="M306.7,-77.5C319.367,-77.5 322.533,-77.5 335.2,-77.5"/>
</g>
<!-- nd222&#45;&gt;nd16 -->
<g id="edge22" class="edge"><title>nd222:e&#45;&gt;nd16:w</title>
<path fill="none" stroke="black" d="M272.2,-107.5C279.756,-107.5 281.644,-107.5 289.2,-107.5"/>
</g>
<!-- nd223&#45;&gt;nd210 -->
<g id="edge24" class="edge"><title>nd223:e&#45;&gt;nd210:w</title>
<path fill="none" stroke="black" d="M272.2,-77.5C284.867,-77.5 288.033,-77.5 300.7,-77.5"/>
</g>
</g>
</svg>
