<?xml version="1.0" encoding="UTF-8" standalone="no"?>
<!DOCTYPE svg PUBLIC "-//W3C//DTD SVG 1.1//EN"
 "http://www.w3.org/Graphics/SVG/1.1/DTD/svg11.dtd">
<!-- Generated by graphviz version 2.38.0 (20140413.2041)
 -->
<!-- Title: G Pages: 1 -->
<svg width="355pt" height="139pt"
 viewBox="0.00 0.00 354.80 139.34" xmlns="http://www.w3.org/2000/svg" xmlns:xlink="http://www.w3.org/1999/xlink">
<g id="graph0" class="graph" transform="scale(1 1) rotate(0) translate(4 135.341)">
<title>G</title>
<polygon fill="white" stroke="none" points="-4,4 -4,-135.341 350.8,-135.341 350.8,4 -4,4"/>
<g id="clust1" class="cluster"><title>cluster_nd395</title>
<polygon fill="none" stroke="orange" points="160.6,-91.5 160.6,-111.5 180.2,-111.5 180.2,-91.5 160.6,-91.5"/>
</g>
<g id="clust2" class="cluster"><title>cluster_nd338</title>
<polygon fill="none" stroke="orange" points="158.6,-39.5 158.6,-82.5 182.2,-82.5 182.2,-39.5 158.6,-39.5"/>
<text text-anchor="middle" x="170.4" y="-67.3" font-family="Times,serif" font-size="14.00">tl</text>
</g>
<!-- nd1 -->
<g id="node1" class="node"><title>nd1</title>
<ellipse fill="black" stroke="black" cx="1.8" cy="-57.5" rx="1.8" ry="1.8"/>
</g>
<!-- nd332 -->
<g id="node7" class="node"><title>nd332</title>
<g id="a_node7"><a xlink:title="nd332&#45;AppGraph">
<path fill="none" stroke="#000000" d="M27.5473,-67.5543C27.5473,-67.5543 23.6719,-61.9457 23.6719,-61.9457 22.136,-59.7229 22.136,-55.2771 23.6719,-53.0543 23.6719,-53.0543 27.5473,-47.4457 27.5473,-47.4457 29.0833,-45.2229 33.3212,-43.0023 36.0231,-43.0045 36.0231,-43.0045 41.4269,-43.009 41.4269,-43.009 44.1288,-43.0113 46.8307,-45.7155 46.8307,-48.4174 46.8307,-48.4174 46.8307,-66.5826 46.8307,-66.5826 46.8307,-69.2845 44.1288,-71.9887 41.4269,-71.991 41.4269,-71.991 36.0231,-71.9955 36.0231,-71.9955 33.3212,-71.9977 29.0833,-69.7771 27.5473,-67.5543"/>
<text text-anchor="middle" x="35.1" y="-53.8" font-family="Times,serif" font-size="14.00">@</text>
</a>
</g>
</g>
<!-- nd1&#45;&gt;nd332 -->
<g id="edge11" class="edge"><title>nd1:e&#45;&gt;nd332:w</title>
<path fill="none" stroke="#b70000" d="M3.6,-57.5C11.1556,-57.5 13.0444,-57.5 20.6,-57.5"/>
</g>
<!-- nd34 -->
<g id="node2" class="node"><title>nd34</title>
<g id="a_node2"><a xlink:title="nd34&#45;ConstGraph">
<path fill="none" stroke="purple" d="M281.467,-59C281.467,-59 291.133,-59 291.133,-59 295.967,-59 300.8,-54.1667 300.8,-49.3333 300.8,-49.3333 300.8,-39.6667 300.8,-39.6667 300.8,-34.8333 295.967,-30 291.133,-30 291.133,-30 281.467,-30 281.467,-30 276.633,-30 271.8,-34.8333 271.8,-39.6667 271.8,-39.6667 271.8,-49.3333 271.8,-49.3333 271.8,-54.1667 276.633,-59 281.467,-59"/>
<text text-anchor="middle" x="286.3" y="-40.8" font-family="Times,serif" font-size="14.00">4</text>
</a>
</g>
</g>
<!-- nd39 -->
<g id="node3" class="node"><title>nd39</title>
<g id="a_node3"><a xlink:title="nd39&#45;ConstEmptyGraph">
<path fill="none" stroke="purple" d="M327.467,-29C327.467,-29 337.133,-29 337.133,-29 341.967,-29 346.8,-24.1667 346.8,-19.3333 346.8,-19.3333 346.8,-9.66667 346.8,-9.66667 346.8,-4.83333 341.967,-1.77636e-15 337.133,-1.77636e-15 337.133,-1.77636e-15 327.467,-1.77636e-15 327.467,-1.77636e-15 322.633,-1.77636e-15 317.8,-4.83333 317.8,-9.66667 317.8,-9.66667 317.8,-19.3333 317.8,-19.3333 317.8,-24.1667 322.633,-29 327.467,-29"/>
<text text-anchor="middle" x="332.3" y="-10.8" font-family="Times,serif" font-size="14.00">[]</text>
</a>
</g>
</g>
<!-- nd182 -->
<g id="node4" class="node"><title>nd182</title>
<g id="a_node4"><a xlink:title="nd182&#45;ConstListGraph">
<path fill="none" stroke="purple" d="M214.867,-44C214.867,-44 224.533,-44 224.533,-44 229.367,-44 234.2,-39.1667 234.2,-34.3333 234.2,-34.3333 234.2,-24.6667 234.2,-24.6667 234.2,-19.8333 229.367,-15 224.533,-15 224.533,-15 214.867,-15 214.867,-15 210.033,-15 205.2,-19.8333 205.2,-24.6667 205.2,-24.6667 205.2,-34.3333 205.2,-34.3333 205.2,-39.1667 210.033,-44 214.867,-44"/>
<text text-anchor="middle" x="219.7" y="-25.8" font-family="Times,serif" font-size="14.00">::</text>
</a>
</g>
</g>
<!-- nd453 -->
<g id="node13" class="node"><title>nd453</title>
<g id="a_node13"><a xlink:title="nd453&#45;ContractGraph">
<ellipse fill="black" stroke="black" cx="253" cy="-44.5" rx="1.8" ry="1.8"/>
</a>
</g>
</g>
<!-- nd182&#45;&gt;nd453 -->
<g id="edge1" class="edge"><title>nd182:n&#45;&gt;nd453:w</title>
<path fill="none" stroke="black" d="M219.7,-45.5C219.7,-59.5071 237.193,-44.5 251.2,-44.5"/>
</g>
<!-- nd454 -->
<g id="node14" class="node"><title>nd454</title>
<g id="a_node14"><a xlink:title="nd454&#45;ContractGraph">
<ellipse fill="black" stroke="black" cx="253" cy="-14.5" rx="1.8" ry="1.8"/>
</a>
</g>
</g>
<!-- nd182&#45;&gt;nd454 -->
<g id="edge2" class="edge"><title>nd182:s&#45;&gt;nd454:w</title>
<path fill="none" stroke="black" d="M219.7,-13.5C219.7,0.507053 237.193,-14.5 251.2,-14.5"/>
</g>
<!-- nd391 -->
<g id="node5" class="node"><title>nd391</title>
<g id="a_node5"><a xlink:title="nd391&#45;RecurGraph">
<ellipse fill="none" stroke="#000000" cx="127.1" cy="-86.5" rx="11" ry="11"/>
<text text-anchor="middle" x="127.1" y="-82.8" font-family="Times,serif" font-size="14.00">rec</text>
</a>
</g>
</g>
<!-- ndcluster_nd395 -->
<g id="node6" class="node"><title>ndcluster_nd395</title>
<g id="a_node6"><a xlink:title="nd395">
<ellipse fill="orange" stroke="orange" cx="170.4" cy="-101.5" rx="1.8" ry="1.8"/>
</a>
</g>
</g>
<!-- nd391&#45;&gt;ndcluster_nd395 -->
<g id="edge13" class="edge"><title>nd391:n&#45;&gt;ndcluster_nd395:e</title>
<path fill="none" stroke="grey" d="M127.1,-98.5C127.1,-169.886 186.13,-101.5 173.4,-101.5"/>
</g>
<!-- nd391&#45;&gt;ndcluster_nd395 -->
<g id="edge14" class="edge"><title>nd391:e&#45;&gt;ndcluster_nd395:w</title>
<path fill="none" stroke="black" d="M139.1,-86.5C153.335,-86.5 153.165,-101.5 167.4,-101.5"/>
</g>
<!-- nd333 -->
<g id="node8" class="node"><title>nd333</title>
<g id="a_node8"><a xlink:title="nd333&#45;AppGraph">
<path fill="none" stroke="#000000" d="M73.5473,-87.5543C73.5473,-87.5543 69.6719,-81.9457 69.6719,-81.9457 68.136,-79.7229 68.136,-75.2771 69.6719,-73.0543 69.6719,-73.0543 73.5473,-67.4457 73.5473,-67.4457 75.0833,-65.2229 79.3212,-63.0023 82.0231,-63.0045 82.0231,-63.0045 87.4269,-63.009 87.4269,-63.009 90.1288,-63.0113 92.8307,-65.7155 92.8307,-68.4174 92.8307,-68.4174 92.8307,-86.5826 92.8307,-86.5826 92.8307,-89.2845 90.1288,-91.9887 87.4269,-91.991 87.4269,-91.991 82.0231,-91.9955 82.0231,-91.9955 79.3212,-91.9977 75.0833,-89.7771 73.5473,-87.5543"/>
<text text-anchor="middle" x="81.1" y="-73.8" font-family="Times,serif" font-size="14.00">@</text>
</a>
</g>
</g>
<!-- nd332&#45;&gt;nd333 -->
<g id="edge8" class="edge"><title>nd332:e&#45;&gt;nd333:w</title>
<path fill="none" stroke="red" d="M48.1,-57.5C55.6679,-57.5 56.2725,-65.3125 58.618,-71.1719"/>
<polygon fill="red" stroke="red" points="56.5895,-74.0301 66.6,-77.5 60.9382,-68.5448 56.5895,-74.0301"/>
</g>
<!-- nd463 -->
<g id="node15" class="node"><title>nd463</title>
<g id="a_node15"><a xlink:title="nd463&#45;ConstGraph">
<path fill="none" stroke="purple" d="M76.2667,-50C76.2667,-50 85.9333,-50 85.9333,-50 90.7667,-50 95.6,-45.1667 95.6,-40.3333 95.6,-40.3333 95.6,-30.6667 95.6,-30.6667 95.6,-25.8333 90.7667,-21 85.9333,-21 85.9333,-21 76.2667,-21 76.2667,-21 71.4333,-21 66.6,-25.8333 66.6,-30.6667 66.6,-30.6667 66.6,-40.3333 66.6,-40.3333 66.6,-45.1667 71.4333,-50 76.2667,-50"/>
<text text-anchor="middle" x="81.1" y="-31.8" font-family="Times,serif" font-size="14.00">10</text>
</a>
</g>
</g>
<!-- nd332&#45;&gt;nd463 -->
<g id="edge9" class="edge"><title>nd332:s&#45;&gt;nd463:w</title>
<path fill="none" stroke="black" d="M35.1,-41.5C35.1,-27.2483 52.3483,-35.5 66.6,-35.5"/>
</g>
<!-- nd333&#45;&gt;nd391 -->
<g id="edge6" class="edge"><title>nd333:e&#45;&gt;nd391:w</title>
<path fill="none" stroke="black" d="M94.1,-77.5C104.254,-77.5 104.946,-86.5 115.1,-86.5"/>
</g>
<!-- nd335 -->
<g id="node9" class="node"><title>nd335</title>
<g id="a_node9"><a xlink:title="nd335&#45;AppGraph">
<path fill="none" stroke="#000000" d="M119.547,-57.5543C119.547,-57.5543 115.672,-51.9457 115.672,-51.9457 114.136,-49.7229 114.136,-45.2771 115.672,-43.0543 115.672,-43.0543 119.547,-37.4457 119.547,-37.4457 121.083,-35.2229 125.321,-33.0023 128.023,-33.0045 128.023,-33.0045 133.427,-33.009 133.427,-33.009 136.129,-33.0113 138.831,-35.7155 138.831,-38.4174 138.831,-38.4174 138.831,-56.5826 138.831,-56.5826 138.831,-59.2845 136.129,-61.9887 133.427,-61.991 133.427,-61.991 128.023,-61.9955 128.023,-61.9955 125.321,-61.9977 121.083,-59.7771 119.547,-57.5543"/>
<text text-anchor="middle" x="127.1" y="-43.8" font-family="Times,serif" font-size="14.00">@</text>
</a>
</g>
</g>
<!-- nd333&#45;&gt;nd335 -->
<g id="edge7" class="edge"><title>nd333:s&#45;&gt;nd335:w</title>
<path fill="none" stroke="black" d="M81.1,-61.5C81.1,-54.6832 89.3467,-59.214 95.6,-56.5 103.442,-53.0963 104.051,-47.5 112.6,-47.5"/>
</g>
<!-- ndcluster_nd338 -->
<g id="node10" class="node"><title>ndcluster_nd338</title>
<g id="a_node10"><a xlink:title="nd338">
<ellipse fill="orange" stroke="orange" cx="170.4" cy="-49.5" rx="1.8" ry="1.8"/>
</a>
</g>
</g>
<!-- nd335&#45;&gt;ndcluster_nd338 -->
<g id="edge5" class="edge"><title>nd335:e&#45;&gt;ndcluster_nd338:w</title>
<path fill="none" stroke="black" d="M140.1,-47.5C152.266,-47.5 155.234,-49.5 167.4,-49.5"/>
</g>
<!-- nd351 -->
<g id="node11" class="node"><title>nd351</title>
<g id="a_node11"><a xlink:title="nd351&#45;ContractGraph">
<ellipse fill="black" stroke="black" cx="170.4" cy="-29.5" rx="1.8" ry="1.8"/>
</a>
</g>
</g>
<!-- nd335&#45;&gt;nd351 -->
<g id="edge10" class="edge"><title>nd335:s&#45;&gt;nd351:w</title>
<path fill="none" stroke="black" d="M127.1,-31.5C127.1,-13.5668 149.467,-29.5 167.4,-29.5"/>
</g>
<!-- nd351&#45;&gt;nd182 -->
<g id="edge12" class="edge"><title>nd351:e&#45;&gt;nd182:w</title>
<path fill="none" stroke="black" d="M173.4,-29.5C187.533,-29.5 191.067,-29.5 205.2,-29.5"/>
<text text-anchor="middle" x="193.7" y="-33.3" font-family="Times,serif" font-size="14.00">x</text>
</g>
<!-- nd441 -->
<g id="node12" class="node"><title>nd441</title>
<g id="a_node12"><a xlink:title="nd441&#45;ContractGraph">
<ellipse fill="black" stroke="black" cx="286.3" cy="-14.5" rx="1.8" ry="1.8"/>
</a>
</g>
</g>
<!-- nd441&#45;&gt;nd39 -->
<g id="edge4" class="edge"><title>nd441:e&#45;&gt;nd39:w</title>
<path fill="none" stroke="black" d="M289.3,-14.5C301.967,-14.5 305.133,-14.5 317.8,-14.5"/>
</g>
<!-- nd453&#45;&gt;nd34 -->
<g id="edge3" class="edge"><title>nd453:e&#45;&gt;nd34:w</title>
<path fill="none" stroke="black" d="M254.8,-44.5C262.356,-44.5 264.244,-44.5 271.8,-44.5"/>
</g>
<!-- nd454&#45;&gt;nd441 -->
<g id="edge15" class="edge"><title>nd454:e&#45;&gt;nd441:w</title>
<path fill="none" stroke="black" d="M254.8,-14.5C267.467,-14.5 270.633,-14.5 283.3,-14.5"/>
</g>
</g>
</svg>
