<?xml version="1.0" encoding="UTF-8" standalone="no"?>
<!DOCTYPE svg PUBLIC "-//W3C//DTD SVG 1.1//EN"
 "http://www.w3.org/Graphics/SVG/1.1/DTD/svg11.dtd">
<!-- Generated by graphviz version 2.38.0 (20140413.2041)
 -->
<!-- Title: G Pages: 1 -->
<svg width="433pt" height="200pt"
 viewBox="0.00 0.00 432.80 199.78" xmlns="http://www.w3.org/2000/svg" xmlns:xlink="http://www.w3.org/1999/xlink">
<g id="graph0" class="graph" transform="scale(1 1) rotate(0) translate(4 195.775)">
<title>G</title>
<polygon fill="white" stroke="none" points="-4,4 -4,-195.775 428.8,-195.775 428.8,4 -4,4"/>
<g id="clust1" class="cluster"><title>cluster_nd241</title>
<polygon fill="none" stroke="orange" points="169.3,-163.5 169.3,-183.5 188.9,-183.5 188.9,-163.5 169.3,-163.5"/>
</g>
<g id="clust2" class="cluster"><title>cluster_nd160</title>
<polygon fill="none" stroke="orange" points="167.3,-111.5 167.3,-154.5 190.9,-154.5 190.9,-111.5 167.3,-111.5"/>
<text text-anchor="middle" x="179.1" y="-139.3" font-family="Times,serif" font-size="14.00">tl</text>
</g>
<!-- nd1 -->
<g id="node1" class="node"><title>nd1</title>
<ellipse fill="black" stroke="black" cx="1.8" cy="-108.5" rx="1.8" ry="1.8"/>
</g>
<!-- nd154 -->
<g id="node12" class="node"><title>nd154</title>
<g id="a_node12"><a xlink:title="nd154&#45;AppGraph">
<path fill="none" stroke="#000000" d="M27.5473,-118.554C27.5473,-118.554 23.6719,-112.946 23.6719,-112.946 22.136,-110.723 22.136,-106.277 23.6719,-104.054 23.6719,-104.054 27.5473,-98.4457 27.5473,-98.4457 29.0833,-96.2229 33.3212,-94.0023 36.0231,-94.0045 36.0231,-94.0045 41.4269,-94.009 41.4269,-94.009 44.1288,-94.0113 46.8307,-96.7155 46.8307,-99.4174 46.8307,-99.4174 46.8307,-117.583 46.8307,-117.583 46.8307,-120.285 44.1288,-122.989 41.4269,-122.991 41.4269,-122.991 36.0231,-122.995 36.0231,-122.995 33.3212,-122.998 29.0833,-120.777 27.5473,-118.554"/>
<text text-anchor="middle" x="35.1" y="-104.8" font-family="Times,serif" font-size="14.00">@</text>
</a>
</g>
</g>
<!-- nd1&#45;&gt;nd154 -->
<g id="edge14" class="edge"><title>nd1:e&#45;&gt;nd154:w</title>
<path fill="none" stroke="#b70000" d="M3.6,-108.5C11.1556,-108.5 13.0444,-108.5 20.6,-108.5"/>
</g>
<!-- nd22 -->
<g id="node2" class="node"><title>nd22</title>
<g id="a_node2"><a xlink:title="nd22&#45;ConstGraph">
<path fill="none" stroke="purple" d="M313.467,-113C313.467,-113 323.133,-113 323.133,-113 327.967,-113 332.8,-108.167 332.8,-103.333 332.8,-103.333 332.8,-93.6667 332.8,-93.6667 332.8,-88.8333 327.967,-84 323.133,-84 323.133,-84 313.467,-84 313.467,-84 308.633,-84 303.8,-88.8333 303.8,-93.6667 303.8,-93.6667 303.8,-103.333 303.8,-103.333 303.8,-108.167 308.633,-113 313.467,-113"/>
<text text-anchor="middle" x="318.3" y="-94.8" font-family="Times,serif" font-size="14.00">2</text>
</a>
</g>
</g>
<!-- nd28 -->
<g id="node3" class="node"><title>nd28</title>
<g id="a_node3"><a xlink:title="nd28&#45;ConstGraph">
<path fill="none" stroke="purple" d="M359.467,-92C359.467,-92 369.133,-92 369.133,-92 373.967,-92 378.8,-87.1667 378.8,-82.3333 378.8,-82.3333 378.8,-72.6667 378.8,-72.6667 378.8,-67.8333 373.967,-63 369.133,-63 369.133,-63 359.467,-63 359.467,-63 354.633,-63 349.8,-67.8333 349.8,-72.6667 349.8,-72.6667 349.8,-82.3333 349.8,-82.3333 349.8,-87.1667 354.633,-92 359.467,-92"/>
<text text-anchor="middle" x="364.3" y="-73.8" font-family="Times,serif" font-size="14.00">3</text>
</a>
</g>
</g>
<!-- nd34 -->
<g id="node4" class="node"><title>nd34</title>
<g id="a_node4"><a xlink:title="nd34&#45;ConstGraph">
<path fill="none" stroke="purple" d="M405.467,-71C405.467,-71 415.133,-71 415.133,-71 419.967,-71 424.8,-66.1667 424.8,-61.3333 424.8,-61.3333 424.8,-51.6667 424.8,-51.6667 424.8,-46.8333 419.967,-42 415.133,-42 415.133,-42 405.467,-42 405.467,-42 400.633,-42 395.8,-46.8333 395.8,-51.6667 395.8,-51.6667 395.8,-61.3333 395.8,-61.3333 395.8,-66.1667 400.633,-71 405.467,-71"/>
<text text-anchor="middle" x="410.3" y="-52.8" font-family="Times,serif" font-size="14.00">4</text>
</a>
</g>
</g>
<!-- nd39 -->
<g id="node5" class="node"><title>nd39</title>
<g id="a_node5"><a xlink:title="nd39&#45;ConstEmptyGraph">
<path fill="none" stroke="purple" d="M405.467,-29C405.467,-29 415.133,-29 415.133,-29 419.967,-29 424.8,-24.1667 424.8,-19.3333 424.8,-19.3333 424.8,-9.66667 424.8,-9.66667 424.8,-4.83333 419.967,-1.77636e-15 415.133,-1.77636e-15 415.133,-1.77636e-15 405.467,-1.77636e-15 405.467,-1.77636e-15 400.633,-1.77636e-15 395.8,-4.83333 395.8,-9.66667 395.8,-9.66667 395.8,-19.3333 395.8,-19.3333 395.8,-24.1667 400.633,-29 405.467,-29"/>
<text text-anchor="middle" x="410.3" y="-10.8" font-family="Times,serif" font-size="14.00">[]</text>
</a>
</g>
</g>
<!-- nd182 -->
<g id="node6" class="node"><title>nd182</title>
<g id="a_node6"><a xlink:title="nd182&#45;ConstListGraph">
<path fill="none" stroke="purple" d="M359.467,-50C359.467,-50 369.133,-50 369.133,-50 373.967,-50 378.8,-45.1667 378.8,-40.3333 378.8,-40.3333 378.8,-30.6667 378.8,-30.6667 378.8,-25.8333 373.967,-21 369.133,-21 369.133,-21 359.467,-21 359.467,-21 354.633,-21 349.8,-25.8333 349.8,-30.6667 349.8,-30.6667 349.8,-40.3333 349.8,-40.3333 349.8,-45.1667 354.633,-50 359.467,-50"/>
<text text-anchor="middle" x="364.3" y="-31.8" font-family="Times,serif" font-size="14.00">::</text>
</a>
</g>
</g>
<!-- nd182&#45;&gt;nd34 -->
<g id="edge1" class="edge"><title>nd182:n&#45;&gt;nd34:w</title>
<path fill="none" stroke="purple" d="M364.3,-51.5C364.3,-55.0438 392.256,-56.5 395.8,-56.5"/>
</g>
<!-- nd182&#45;&gt;nd39 -->
<g id="edge2" class="edge"><title>nd182:s&#45;&gt;nd39:w</title>
<path fill="none" stroke="purple" d="M364.3,-19.5C364.3,-5.32473 381.625,-14.5 395.8,-14.5"/>
</g>
<!-- nd188 -->
<g id="node7" class="node"><title>nd188</title>
<g id="a_node7"><a xlink:title="nd188&#45;ConstListGraph">
<path fill="none" stroke="purple" d="M313.467,-71C313.467,-71 323.133,-71 323.133,-71 327.967,-71 332.8,-66.1667 332.8,-61.3333 332.8,-61.3333 332.8,-51.6667 332.8,-51.6667 332.8,-46.8333 327.967,-42 323.133,-42 323.133,-42 313.467,-42 313.467,-42 308.633,-42 303.8,-46.8333 303.8,-51.6667 303.8,-51.6667 303.8,-61.3333 303.8,-61.3333 303.8,-66.1667 308.633,-71 313.467,-71"/>
<text text-anchor="middle" x="318.3" y="-52.8" font-family="Times,serif" font-size="14.00">::</text>
</a>
</g>
</g>
<!-- nd188&#45;&gt;nd28 -->
<g id="edge3" class="edge"><title>nd188:n&#45;&gt;nd28:w</title>
<path fill="none" stroke="purple" d="M318.3,-72.5C318.3,-76.0438 346.256,-77.5 349.8,-77.5"/>
</g>
<!-- nd188&#45;&gt;nd182 -->
<g id="edge4" class="edge"><title>nd188:s&#45;&gt;nd182:w</title>
<path fill="none" stroke="purple" d="M318.3,-40.5C318.3,-26.3247 335.625,-35.5 349.8,-35.5"/>
</g>
<!-- nd194 -->
<g id="node8" class="node"><title>nd194</title>
<g id="a_node8"><a xlink:title="nd194&#45;ConstListGraph">
<path fill="none" stroke="purple" d="M226.267,-91C226.267,-91 235.933,-91 235.933,-91 240.767,-91 245.6,-86.1667 245.6,-81.3333 245.6,-81.3333 245.6,-71.6667 245.6,-71.6667 245.6,-66.8333 240.767,-62 235.933,-62 235.933,-62 226.267,-62 226.267,-62 221.433,-62 216.6,-66.8333 216.6,-71.6667 216.6,-71.6667 216.6,-81.3333 216.6,-81.3333 216.6,-86.1667 221.433,-91 226.267,-91"/>
<text text-anchor="middle" x="231.1" y="-72.8" font-family="Times,serif" font-size="14.00">::</text>
</a>
</g>
</g>
<!-- nd299 -->
<g id="node21" class="node"><title>nd299</title>
<g id="a_node21"><a xlink:title="nd299&#45;ContractGraph">
<ellipse fill="black" stroke="black" cx="264.4" cy="-91.5" rx="1.8" ry="1.8"/>
</a>
</g>
</g>
<!-- nd194&#45;&gt;nd299 -->
<g id="edge5" class="edge"><title>nd194:n&#45;&gt;nd299:w</title>
<path fill="none" stroke="black" d="M231.1,-92.5C231.1,-106.507 248.593,-91.5 262.6,-91.5"/>
</g>
<!-- nd300 -->
<g id="node22" class="node"><title>nd300</title>
<g id="a_node22"><a xlink:title="nd300&#45;ContractGraph">
<ellipse fill="black" stroke="black" cx="264.4" cy="-57.5" rx="1.8" ry="1.8"/>
</a>
</g>
</g>
<!-- nd194&#45;&gt;nd300 -->
<g id="edge6" class="edge"><title>nd194:s&#45;&gt;nd300:w</title>
<path fill="none" stroke="black" d="M231.1,-60.5C231.1,-46.4367 248.537,-57.5 262.6,-57.5"/>
</g>
<!-- nd232 -->
<g id="node9" class="node"><title>nd232</title>
<g id="a_node9"><a xlink:title="nd232&#45;ConstGraph">
<path fill="none" stroke="purple" d="M174.267,-87C174.267,-87 183.933,-87 183.933,-87 188.767,-87 193.6,-82.1667 193.6,-77.3333 193.6,-77.3333 193.6,-67.6667 193.6,-67.6667 193.6,-62.8333 188.767,-58 183.933,-58 183.933,-58 174.267,-58 174.267,-58 169.433,-58 164.6,-62.8333 164.6,-67.6667 164.6,-67.6667 164.6,-77.3333 164.6,-77.3333 164.6,-82.1667 169.433,-87 174.267,-87"/>
<text text-anchor="middle" x="179.1" y="-68.8" font-family="Times,serif" font-size="14.00">1</text>
</a>
</g>
</g>
<!-- nd237 -->
<g id="node10" class="node"><title>nd237</title>
<g id="a_node10"><a xlink:title="nd237&#45;RecurGraph">
<ellipse fill="none" stroke="#000000" cx="127.1" cy="-155.5" rx="11" ry="11"/>
<text text-anchor="middle" x="127.1" y="-151.8" font-family="Times,serif" font-size="14.00">rec</text>
</a>
</g>
</g>
<!-- ndcluster_nd241 -->
<g id="node11" class="node"><title>ndcluster_nd241</title>
<g id="a_node11"><a xlink:title="nd241">
<ellipse fill="orange" stroke="orange" cx="179.1" cy="-173.5" rx="1.8" ry="1.8"/>
</a>
</g>
</g>
<!-- nd237&#45;&gt;ndcluster_nd241 -->
<g id="edge20" class="edge"><title>nd237:n&#45;&gt;ndcluster_nd241:e</title>
<path fill="none" stroke="grey" d="M127.1,-167.5C127.1,-218.095 190.08,-173.5 182.1,-173.5"/>
</g>
<!-- nd237&#45;&gt;ndcluster_nd241 -->
<g id="edge21" class="edge"><title>nd237:e&#45;&gt;ndcluster_nd241:w</title>
<path fill="none" stroke="black" d="M139.1,-155.5C157.387,-155.5 157.813,-173.5 176.1,-173.5"/>
</g>
<!-- nd155 -->
<g id="node13" class="node"><title>nd155</title>
<g id="a_node13"><a xlink:title="nd155&#45;AppGraph">
<path fill="none" stroke="#000000" d="M73.5473,-141.554C73.5473,-141.554 69.6719,-135.946 69.6719,-135.946 68.136,-133.723 68.136,-129.277 69.6719,-127.054 69.6719,-127.054 73.5473,-121.446 73.5473,-121.446 75.0833,-119.223 79.3212,-117.002 82.0231,-117.005 82.0231,-117.005 87.4269,-117.009 87.4269,-117.009 90.1288,-117.011 92.8307,-119.715 92.8307,-122.417 92.8307,-122.417 92.8307,-140.583 92.8307,-140.583 92.8307,-143.285 90.1288,-145.989 87.4269,-145.991 87.4269,-145.991 82.0231,-145.995 82.0231,-145.995 79.3212,-145.998 75.0833,-143.777 73.5473,-141.554"/>
<text text-anchor="middle" x="81.1" y="-127.8" font-family="Times,serif" font-size="14.00">@</text>
</a>
</g>
</g>
<!-- nd154&#45;&gt;nd155 -->
<g id="edge11" class="edge"><title>nd154:e&#45;&gt;nd155:w</title>
<path fill="none" stroke="black" d="M48.1,-108.5C61.2186,-108.5 53.4814,-131.5 66.6,-131.5"/>
</g>
<!-- nd165 -->
<g id="node16" class="node"><title>nd165</title>
<g id="a_node16"><a xlink:title="nd165&#45;BinOpGraph">
<ellipse fill="none" stroke="#000000" cx="81.1" cy="-57.5" rx="14.5" ry="14.5"/>
<text text-anchor="middle" x="81.1" y="-53.8" font-family="Times,serif" font-size="14.00">+</text>
</a>
</g>
</g>
<!-- nd154&#45;&gt;nd165 -->
<g id="edge12" class="edge"><title>nd154:s&#45;&gt;nd165:w</title>
<path fill="none" stroke="#b70000" d="M35.1,-92.5C35.1,-71.5721 45.6721,-57.5 66.6,-57.5"/>
</g>
<!-- nd155&#45;&gt;nd237 -->
<g id="edge9" class="edge"><title>nd155:e&#45;&gt;nd237:w</title>
<path fill="none" stroke="black" d="M94.1,-131.5C108.274,-131.5 100.926,-155.5 115.1,-155.5"/>
</g>
<!-- nd157 -->
<g id="node14" class="node"><title>nd157</title>
<g id="a_node14"><a xlink:title="nd157&#45;AppGraph">
<path fill="none" stroke="#000000" d="M119.547,-126.554C119.547,-126.554 115.672,-120.946 115.672,-120.946 114.136,-118.723 114.136,-114.277 115.672,-112.054 115.672,-112.054 119.547,-106.446 119.547,-106.446 121.083,-104.223 125.321,-102.002 128.023,-102.005 128.023,-102.005 133.427,-102.009 133.427,-102.009 136.129,-102.011 138.831,-104.715 138.831,-107.417 138.831,-107.417 138.831,-125.583 138.831,-125.583 138.831,-128.285 136.129,-130.989 133.427,-130.991 133.427,-130.991 128.023,-130.995 128.023,-130.995 125.321,-130.998 121.083,-128.777 119.547,-126.554"/>
<text text-anchor="middle" x="127.1" y="-112.8" font-family="Times,serif" font-size="14.00">@</text>
</a>
</g>
</g>
<!-- nd155&#45;&gt;nd157 -->
<g id="edge10" class="edge"><title>nd155:s&#45;&gt;nd157:w</title>
<path fill="none" stroke="black" d="M81.1,-115.5C81.1,-101.493 98.5929,-116.5 112.6,-116.5"/>
</g>
<!-- ndcluster_nd160 -->
<g id="node15" class="node"><title>ndcluster_nd160</title>
<g id="a_node15"><a xlink:title="nd160">
<ellipse fill="orange" stroke="orange" cx="179.1" cy="-121.5" rx="1.8" ry="1.8"/>
</a>
</g>
</g>
<!-- nd157&#45;&gt;ndcluster_nd160 -->
<g id="edge8" class="edge"><title>nd157:e&#45;&gt;ndcluster_nd160:w</title>
<path fill="none" stroke="black" d="M140.1,-116.5C156.254,-116.5 159.946,-121.5 176.1,-121.5"/>
</g>
<!-- nd173 -->
<g id="node17" class="node"><title>nd173</title>
<g id="a_node17"><a xlink:title="nd173&#45;ContractGraph">
<ellipse fill="black" stroke="black" cx="179.1" cy="-101.5" rx="1.8" ry="1.8"/>
</a>
</g>
</g>
<!-- nd157&#45;&gt;nd173 -->
<g id="edge13" class="edge"><title>nd157:s&#45;&gt;nd173:w</title>
<path fill="none" stroke="black" d="M127.1,-100.5C127.1,-78.7177 154.318,-101.5 176.1,-101.5"/>
</g>
<!-- nd174 -->
<g id="node18" class="node"><title>nd174</title>
<g id="a_node18"><a xlink:title="nd174&#45;ContractGraph">
<ellipse fill="black" stroke="black" cx="127.1" cy="-72.5" rx="1.8" ry="1.8"/>
</a>
</g>
</g>
<!-- nd165&#45;&gt;nd174 -->
<g id="edge15" class="edge"><title>nd165:n&#45;&gt;nd174:w</title>
<path fill="none" stroke="black" d="M81.1,-73.5C81.1,-92.6163 104.984,-72.5 124.1,-72.5"/>
</g>
<!-- nd165&#45;&gt;nd299 -->
<g id="edge7" class="edge"><title>nd165:s&#45;&gt;nd299:w</title>
<path fill="none" stroke="#b70000" d="M81.1,-41.5C81.1,-21.4211 106.021,-37.5 126.1,-37.5 126.1,-37.5 126.1,-37.5 232.1,-37.5 259.664,-37.5 235.036,-91.5 262.6,-91.5"/>
</g>
<!-- nd173&#45;&gt;nd194 -->
<g id="edge17" class="edge"><title>nd173:e&#45;&gt;nd194:w</title>
<path fill="none" stroke="black" d="M182.1,-101.5C201.036,-101.5 197.664,-76.5 216.6,-76.5"/>
<text text-anchor="middle" x="205.1" y="-88.3" font-family="Times,serif" font-size="14.00">x</text>
</g>
<!-- nd174&#45;&gt;nd232 -->
<g id="edge16" class="edge"><title>nd174:e&#45;&gt;nd232:w</title>
<path fill="none" stroke="black" d="M130.1,-72.5C145.433,-72.5 149.267,-72.5 164.6,-72.5"/>
<text text-anchor="middle" x="153.1" y="-76.3" font-family="Times,serif" font-size="14.00">y</text>
</g>
<!-- nd286 -->
<g id="node19" class="node"><title>nd286</title>
<g id="a_node19"><a xlink:title="nd286&#45;ContractGraph">
<ellipse fill="black" stroke="black" cx="285" cy="-97.5" rx="1.8" ry="1.8"/>
</a>
</g>
</g>
<!-- nd286&#45;&gt;nd22 -->
<g id="edge18" class="edge"><title>nd286:e&#45;&gt;nd22:w</title>
<path fill="none" stroke="red" d="M286.8,-97.5C289.638,-97.5 291.674,-97.6406 293.509,-97.8164"/>
<polygon fill="red" stroke="red" points="293.59,-101.329 303.8,-98.5 294.054,-94.3448 293.59,-101.329"/>
</g>
<!-- nd287 -->
<g id="node20" class="node"><title>nd287</title>
<g id="a_node20"><a xlink:title="nd287&#45;ContractGraph">
<ellipse fill="black" stroke="black" cx="285" cy="-56.5" rx="1.8" ry="1.8"/>
</a>
</g>
</g>
<!-- nd287&#45;&gt;nd188 -->
<g id="edge19" class="edge"><title>nd287:e&#45;&gt;nd188:w</title>
<path fill="none" stroke="black" d="M286.8,-56.5C294.356,-56.5 296.244,-56.5 303.8,-56.5"/>
</g>
<!-- nd299&#45;&gt;nd286 -->
<g id="edge22" class="edge"><title>nd299:e&#45;&gt;nd286:w</title>
<path fill="none" stroke="#b70000" d="M266.2,-91.5C274.212,-91.5 275.188,-97.5 283.2,-97.5"/>
</g>
<!-- nd300&#45;&gt;nd287 -->
<g id="edge23" class="edge"><title>nd300:e&#45;&gt;nd287:w</title>
<path fill="none" stroke="black" d="M266.2,-57.5C273.769,-57.5 275.631,-56.5 283.2,-56.5"/>
</g>
</g>
</svg>
