<?xml version="1.0" encoding="UTF-8" standalone="no"?>
<!DOCTYPE svg PUBLIC "-//W3C//DTD SVG 1.1//EN"
 "http://www.w3.org/Graphics/SVG/1.1/DTD/svg11.dtd">
<!-- Generated by graphviz version 2.38.0 (20140413.2041)
 -->
<!-- Title: G Pages: 1 -->
<svg width="620pt" height="202pt"
 viewBox="0.00 0.00 620.20 202.12" xmlns="http://www.w3.org/2000/svg" xmlns:xlink="http://www.w3.org/1999/xlink">
<g id="graph0" class="graph" transform="scale(1 1) rotate(0) translate(4 198.12)">
<title>G</title>
<polygon fill="white" stroke="none" points="-4,4 -4,-198.12 616.2,-198.12 616.2,4 -4,4"/>
<g id="clust1" class="cluster"><title>cluster_nd241</title>
<polygon fill="none" stroke="orange" points="286.3,-157.242 286.3,-177.242 305.9,-177.242 305.9,-157.242 286.3,-157.242"/>
</g>
<g id="clust2" class="cluster"><title>cluster_nd160</title>
<polygon fill="none" stroke="orange" points="284.3,-68.2423 284.3,-111.242 307.9,-111.242 307.9,-68.2423 284.3,-68.2423"/>
<text text-anchor="middle" x="296.1" y="-96.0423" font-family="Times,serif" font-size="14.00">tl</text>
</g>
<g id="clust3" class="cluster"><title>cluster_nd169</title>
<polygon fill="none" stroke="orange" points="281.3,-17.2423 281.3,-60.2423 310.9,-60.2423 310.9,-17.2423 281.3,-17.2423"/>
<text text-anchor="middle" x="296.1" y="-45.0423" font-family="Times,serif" font-size="14.00">hd</text>
</g>
<!-- nd1 -->
<g id="node1" class="node"><title>nd1</title>
<ellipse fill="black" stroke="black" cx="1.8" cy="-146.242" rx="1.8" ry="1.8"/>
</g>
<!-- nd146 -->
<g id="node12" class="node"><title>nd146</title>
<g id="a_node12"><a xlink:title="nd146&#45;IfGraph">
<ellipse fill="none" stroke="#000000" cx="35.1" cy="-146.242" rx="14.5" ry="14.5"/>
<text text-anchor="middle" x="35.1" y="-142.542" font-family="Times,serif" font-size="14.00">if</text>
</a>
</g>
</g>
<!-- nd1&#45;&gt;nd146 -->
<g id="edge22" class="edge"><title>nd1:e&#45;&gt;nd146:w</title>
<path fill="none" stroke="#b70000" d="M3.6,-146.242C11.1556,-146.242 13.0444,-146.242 20.6,-146.242"/>
</g>
<!-- nd22 -->
<g id="node2" class="node"><title>nd22</title>
<g id="a_node2"><a xlink:title="nd22&#45;ConstGraph">
<path fill="none" stroke="purple" d="M500.867,-119.742C500.867,-119.742 510.533,-119.742 510.533,-119.742 515.367,-119.742 520.2,-114.909 520.2,-110.076 520.2,-110.076 520.2,-100.409 520.2,-100.409 520.2,-95.5756 515.367,-90.7423 510.533,-90.7423 510.533,-90.7423 500.867,-90.7423 500.867,-90.7423 496.033,-90.7423 491.2,-95.5756 491.2,-100.409 491.2,-100.409 491.2,-110.076 491.2,-110.076 491.2,-114.909 496.033,-119.742 500.867,-119.742"/>
<text text-anchor="middle" x="505.7" y="-101.542" font-family="Times,serif" font-size="14.00">2</text>
</a>
</g>
</g>
<!-- nd28 -->
<g id="node3" class="node"><title>nd28</title>
<g id="a_node3"><a xlink:title="nd28&#45;ConstGraph">
<path fill="none" stroke="purple" d="M546.867,-92.7423C546.867,-92.7423 556.533,-92.7423 556.533,-92.7423 561.367,-92.7423 566.2,-87.909 566.2,-83.0756 566.2,-83.0756 566.2,-73.409 566.2,-73.409 566.2,-68.5756 561.367,-63.7423 556.533,-63.7423 556.533,-63.7423 546.867,-63.7423 546.867,-63.7423 542.033,-63.7423 537.2,-68.5756 537.2,-73.409 537.2,-73.409 537.2,-83.0756 537.2,-83.0756 537.2,-87.909 542.033,-92.7423 546.867,-92.7423"/>
<text text-anchor="middle" x="551.7" y="-74.5423" font-family="Times,serif" font-size="14.00">3</text>
</a>
</g>
</g>
<!-- nd34 -->
<g id="node4" class="node"><title>nd34</title>
<g id="a_node4"><a xlink:title="nd34&#45;ConstGraph">
<path fill="none" stroke="purple" d="M592.867,-71.7423C592.867,-71.7423 602.533,-71.7423 602.533,-71.7423 607.367,-71.7423 612.2,-66.909 612.2,-62.0756 612.2,-62.0756 612.2,-52.409 612.2,-52.409 612.2,-47.5756 607.367,-42.7423 602.533,-42.7423 602.533,-42.7423 592.867,-42.7423 592.867,-42.7423 588.033,-42.7423 583.2,-47.5756 583.2,-52.409 583.2,-52.409 583.2,-62.0756 583.2,-62.0756 583.2,-66.909 588.033,-71.7423 592.867,-71.7423"/>
<text text-anchor="middle" x="597.7" y="-53.5423" font-family="Times,serif" font-size="14.00">4</text>
</a>
</g>
</g>
<!-- nd39 -->
<g id="node5" class="node"><title>nd39</title>
<g id="a_node5"><a xlink:title="nd39&#45;ConstEmptyGraph">
<path fill="none" stroke="purple" d="M592.867,-29.7423C592.867,-29.7423 602.533,-29.7423 602.533,-29.7423 607.367,-29.7423 612.2,-24.909 612.2,-20.0756 612.2,-20.0756 612.2,-10.409 612.2,-10.409 612.2,-5.57562 607.367,-0.74229 602.533,-0.74229 602.533,-0.74229 592.867,-0.74229 592.867,-0.74229 588.033,-0.74229 583.2,-5.57562 583.2,-10.409 583.2,-10.409 583.2,-20.0756 583.2,-20.0756 583.2,-24.909 588.033,-29.7423 592.867,-29.7423"/>
<text text-anchor="middle" x="597.7" y="-11.5423" font-family="Times,serif" font-size="14.00">[]</text>
</a>
</g>
</g>
<!-- nd182 -->
<g id="node6" class="node"><title>nd182</title>
<g id="a_node6"><a xlink:title="nd182&#45;ConstListGraph">
<path fill="none" stroke="purple" d="M546.867,-50.7423C546.867,-50.7423 556.533,-50.7423 556.533,-50.7423 561.367,-50.7423 566.2,-45.909 566.2,-41.0756 566.2,-41.0756 566.2,-31.409 566.2,-31.409 566.2,-26.5756 561.367,-21.7423 556.533,-21.7423 556.533,-21.7423 546.867,-21.7423 546.867,-21.7423 542.033,-21.7423 537.2,-26.5756 537.2,-31.409 537.2,-31.409 537.2,-41.0756 537.2,-41.0756 537.2,-45.909 542.033,-50.7423 546.867,-50.7423"/>
<text text-anchor="middle" x="551.7" y="-32.5423" font-family="Times,serif" font-size="14.00">::</text>
</a>
</g>
</g>
<!-- nd182&#45;&gt;nd34 -->
<g id="edge1" class="edge"><title>nd182:n&#45;&gt;nd34:w</title>
<path fill="none" stroke="purple" d="M551.7,-52.2423C551.7,-55.7861 579.656,-57.2423 583.2,-57.2423"/>
</g>
<!-- nd182&#45;&gt;nd39 -->
<g id="edge2" class="edge"><title>nd182:s&#45;&gt;nd39:w</title>
<path fill="none" stroke="purple" d="M551.7,-20.2423C551.7,-6.06702 569.025,-15.2423 583.2,-15.2423"/>
</g>
<!-- nd188 -->
<g id="node7" class="node"><title>nd188</title>
<g id="a_node7"><a xlink:title="nd188&#45;ConstListGraph">
<path fill="none" stroke="purple" d="M500.867,-71.7423C500.867,-71.7423 510.533,-71.7423 510.533,-71.7423 515.367,-71.7423 520.2,-66.909 520.2,-62.0756 520.2,-62.0756 520.2,-52.409 520.2,-52.409 520.2,-47.5756 515.367,-42.7423 510.533,-42.7423 510.533,-42.7423 500.867,-42.7423 500.867,-42.7423 496.033,-42.7423 491.2,-47.5756 491.2,-52.409 491.2,-52.409 491.2,-62.0756 491.2,-62.0756 491.2,-66.909 496.033,-71.7423 500.867,-71.7423"/>
<text text-anchor="middle" x="505.7" y="-53.5423" font-family="Times,serif" font-size="14.00">::</text>
</a>
</g>
</g>
<!-- nd188&#45;&gt;nd28 -->
<g id="edge3" class="edge"><title>nd188:n&#45;&gt;nd28:w</title>
<path fill="none" stroke="purple" d="M505.7,-73.2423C505.7,-87.4176 523.025,-78.2423 537.2,-78.2423"/>
</g>
<!-- nd188&#45;&gt;nd182 -->
<g id="edge4" class="edge"><title>nd188:s&#45;&gt;nd182:w</title>
<path fill="none" stroke="purple" d="M505.7,-41.2423C505.7,-27.067 523.025,-36.2423 537.2,-36.2423"/>
</g>
<!-- nd194 -->
<g id="node8" class="node"><title>nd194</title>
<g id="a_node8"><a xlink:title="nd194&#45;ConstListGraph">
<path fill="none" stroke="purple" d="M434.267,-68.7423C434.267,-68.7423 443.933,-68.7423 443.933,-68.7423 448.767,-68.7423 453.6,-63.909 453.6,-59.0756 453.6,-59.0756 453.6,-49.409 453.6,-49.409 453.6,-44.5756 448.767,-39.7423 443.933,-39.7423 443.933,-39.7423 434.267,-39.7423 434.267,-39.7423 429.433,-39.7423 424.6,-44.5756 424.6,-49.409 424.6,-49.409 424.6,-59.0756 424.6,-59.0756 424.6,-63.909 429.433,-68.7423 434.267,-68.7423"/>
<text text-anchor="middle" x="439.1" y="-50.5423" font-family="Times,serif" font-size="14.00">::</text>
</a>
</g>
</g>
<!-- nd286 -->
<g id="node24" class="node"><title>nd286</title>
<g id="a_node24"><a xlink:title="nd286&#45;ContractGraph">
<ellipse fill="black" stroke="black" cx="472.4" cy="-105.242" rx="1.8" ry="1.8"/>
</a>
</g>
</g>
<!-- nd194&#45;&gt;nd286 -->
<g id="edge5" class="edge"><title>nd194:n&#45;&gt;nd286:w</title>
<path fill="none" stroke="black" d="M439.1,-70.2423C439.1,-78.6074 447.849,-76.1673 453.6,-82.2423 462.339,-91.4736 457.889,-105.242 470.6,-105.242"/>
</g>
<!-- nd287 -->
<g id="node25" class="node"><title>nd287</title>
<g id="a_node25"><a xlink:title="nd287&#45;ContractGraph">
<ellipse fill="black" stroke="black" cx="472.4" cy="-57.2423" rx="1.8" ry="1.8"/>
</a>
</g>
</g>
<!-- nd194&#45;&gt;nd287 -->
<g id="edge6" class="edge"><title>nd194:s&#45;&gt;nd287:w</title>
<path fill="none" stroke="black" d="M439.1,-38.2423C439.1,-31.7825 447.759,-36.4826 453.6,-39.2423 463.549,-43.9433 459.596,-57.2423 470.6,-57.2423"/>
</g>
<!-- nd232 -->
<g id="node9" class="node"><title>nd232</title>
<g id="a_node9"><a xlink:title="nd232&#45;ConstGraph">
<path fill="none" stroke="purple" d="M291.267,-148.742C291.267,-148.742 300.933,-148.742 300.933,-148.742 305.767,-148.742 310.6,-143.909 310.6,-139.076 310.6,-139.076 310.6,-129.409 310.6,-129.409 310.6,-124.576 305.767,-119.742 300.933,-119.742 300.933,-119.742 291.267,-119.742 291.267,-119.742 286.433,-119.742 281.6,-124.576 281.6,-129.409 281.6,-129.409 281.6,-139.076 281.6,-139.076 281.6,-143.909 286.433,-148.742 291.267,-148.742"/>
<text text-anchor="middle" x="296.1" y="-130.542" font-family="Times,serif" font-size="14.00">1</text>
</a>
</g>
</g>
<!-- nd237 -->
<g id="node10" class="node"><title>nd237</title>
<g id="a_node10"><a xlink:title="nd237&#45;RecurGraph">
<ellipse fill="none" stroke="#000000" cx="244.1" cy="-154.242" rx="11" ry="11"/>
<text text-anchor="middle" x="244.1" y="-150.542" font-family="Times,serif" font-size="14.00">rec</text>
</a>
</g>
</g>
<!-- ndcluster_nd241 -->
<g id="node11" class="node"><title>ndcluster_nd241</title>
<g id="a_node11"><a xlink:title="nd241">
<ellipse fill="orange" stroke="orange" cx="296.1" cy="-167.242" rx="1.8" ry="1.8"/>
</a>
</g>
</g>
<!-- nd237&#45;&gt;ndcluster_nd241 -->
<g id="edge27" class="edge"><title>nd237:n&#45;&gt;ndcluster_nd241:e</title>
<path fill="none" stroke="grey" d="M244.1,-166.242C244.1,-188.588 271.963,-168.42 294.3,-169.042 295.988,-169.089 296.644,-169.899 298.1,-169.042 298.889,-168.578 300.015,-167.242 299.1,-167.242"/>
</g>
<!-- nd237&#45;&gt;ndcluster_nd241 -->
<g id="edge28" class="edge"><title>nd237:e&#45;&gt;ndcluster_nd241:w</title>
<path fill="none" stroke="black" d="M256.1,-154.242C273.53,-154.242 275.67,-167.242 293.1,-167.242"/>
</g>
<!-- nd154 -->
<g id="node13" class="node"><title>nd154</title>
<g id="a_node13"><a xlink:title="nd154&#45;AppGraph">
<path fill="none" stroke="#000000" d="M111.547,-121.297C111.547,-121.297 107.672,-115.688 107.672,-115.688 106.136,-113.465 106.136,-109.019 107.672,-106.797 107.672,-106.797 111.547,-101.188 111.547,-101.188 113.083,-98.9652 117.321,-96.7445 120.023,-96.7468 120.023,-96.7468 125.427,-96.7513 125.427,-96.7513 128.129,-96.7536 130.831,-99.4577 130.831,-102.16 130.831,-102.16 130.831,-120.325 130.831,-120.325 130.831,-123.027 128.129,-125.731 125.427,-125.733 125.427,-125.733 120.023,-125.738 120.023,-125.738 117.321,-125.74 113.083,-123.519 111.547,-121.297"/>
<text text-anchor="middle" x="119.1" y="-107.542" font-family="Times,serif" font-size="14.00">@</text>
</a>
</g>
</g>
<!-- nd146&#45;&gt;nd154 -->
<g id="edge18" class="edge"><title>nd146:s&#45;&gt;nd154:w</title>
<path fill="none" stroke="grey" d="M35.1,-130.242C35.1,-118.165 78.9954,-111.242 104.6,-111.242"/>
<text text-anchor="middle" x="77.1" y="-120.042" font-family="Times,serif" font-size="14.00">is false</text>
</g>
<!-- nd174 -->
<g id="node21" class="node"><title>nd174</title>
<g id="a_node21"><a xlink:title="nd174&#45;ContractGraph">
<ellipse fill="black" stroke="black" cx="244.1" cy="-127.242" rx="1.8" ry="1.8"/>
</a>
</g>
</g>
<!-- nd146&#45;&gt;nd174 -->
<g id="edge20" class="edge"><title>nd146:e&#45;&gt;nd174:w</title>
<path fill="none" stroke="grey" d="M49.6,-146.242C122.311,-146.242 140.499,-141.645 212.6,-132.242 225.352,-130.579 228.24,-127.242 241.1,-127.242"/>
<text text-anchor="middle" x="158.6" y="-145.042" font-family="Times,serif" font-size="14.00">is true</text>
</g>
<!-- nd152 -->
<g id="node26" class="node"><title>nd152</title>
<g id="a_node26"><a xlink:title="nd152&#45;UnOpGraph">
<ellipse fill="none" stroke="#000000" cx="342.1" cy="-124.242" rx="14.5" ry="14.5"/>
<text text-anchor="middle" x="342.1" y="-120.542" font-family="Times,serif" font-size="14.00">empty</text>
</a>
</g>
</g>
<!-- nd146&#45;&gt;nd152 -->
<g id="edge7" class="edge"><title>nd146:n&#45;&gt;nd152:w</title>
<path fill="none" stroke="red" d="M36.3074,-172.401C43.6065,-199.753 82.7059,-192.242 118.1,-192.242 118.1,-192.242 118.1,-192.242 297.1,-192.242 330.223,-192.242 294.477,-124.242 327.6,-124.242"/>
<polygon fill="red" stroke="red" points="39.7558,-171.759 35.1,-162.242 32.8047,-172.586 39.7558,-171.759"/>
</g>
<!-- nd155 -->
<g id="node14" class="node"><title>nd155</title>
<g id="a_node14"><a xlink:title="nd155&#45;AppGraph">
<path fill="none" stroke="#000000" d="M190.547,-121.297C190.547,-121.297 186.672,-115.688 186.672,-115.688 185.136,-113.465 185.136,-109.019 186.672,-106.797 186.672,-106.797 190.547,-101.188 190.547,-101.188 192.083,-98.9652 196.321,-96.7445 199.023,-96.7468 199.023,-96.7468 204.427,-96.7513 204.427,-96.7513 207.129,-96.7536 209.831,-99.4577 209.831,-102.16 209.831,-102.16 209.831,-120.325 209.831,-120.325 209.831,-123.027 207.129,-125.731 204.427,-125.733 204.427,-125.733 199.023,-125.738 199.023,-125.738 196.321,-125.74 192.083,-123.519 190.547,-121.297"/>
<text text-anchor="middle" x="198.1" y="-107.542" font-family="Times,serif" font-size="14.00">@</text>
</a>
</g>
</g>
<!-- nd154&#45;&gt;nd155 -->
<g id="edge14" class="edge"><title>nd154:e&#45;&gt;nd155:w</title>
<path fill="none" stroke="black" d="M132.1,-111.242C154.989,-111.242 160.711,-111.242 183.6,-111.242"/>
</g>
<!-- nd165 -->
<g id="node17" class="node"><title>nd165</title>
<g id="a_node17"><a xlink:title="nd165&#45;BinOpGraph">
<ellipse fill="none" stroke="#000000" cx="198.1" cy="-62.2423" rx="14.5" ry="14.5"/>
<text text-anchor="middle" x="198.1" y="-58.5423" font-family="Times,serif" font-size="14.00">+</text>
</a>
</g>
</g>
<!-- nd154&#45;&gt;nd165 -->
<g id="edge15" class="edge"><title>nd154:s&#45;&gt;nd165:w</title>
<path fill="none" stroke="black" d="M119.1,-95.2423C119.1,-63.0415 151.399,-62.2423 183.6,-62.2423"/>
</g>
<!-- nd155&#45;&gt;nd237 -->
<g id="edge10" class="edge"><title>nd155:e&#45;&gt;nd237:w</title>
<path fill="none" stroke="black" d="M211.1,-111.242C232.368,-111.242 210.832,-154.242 232.1,-154.242"/>
</g>
<!-- nd157 -->
<g id="node15" class="node"><title>nd157</title>
<g id="a_node15"><a xlink:title="nd157&#45;AppGraph">
<path fill="none" stroke="#000000" d="M236.547,-88.2965C236.547,-88.2965 232.672,-82.688 232.672,-82.688 231.136,-80.4652 231.136,-76.0194 232.672,-73.7965 232.672,-73.7965 236.547,-68.188 236.547,-68.188 238.083,-65.9652 242.321,-63.7445 245.023,-63.7468 245.023,-63.7468 250.427,-63.7513 250.427,-63.7513 253.129,-63.7536 255.831,-66.4577 255.831,-69.1597 255.831,-69.1597 255.831,-87.3249 255.831,-87.3249 255.831,-90.0268 253.129,-92.731 250.427,-92.7333 250.427,-92.7333 245.023,-92.7378 245.023,-92.7378 242.321,-92.74 238.083,-90.5194 236.547,-88.2965"/>
<text text-anchor="middle" x="244.1" y="-74.5423" font-family="Times,serif" font-size="14.00">@</text>
</a>
</g>
</g>
<!-- nd155&#45;&gt;nd157 -->
<g id="edge11" class="edge"><title>nd155:s&#45;&gt;nd157:w</title>
<path fill="none" stroke="black" d="M198.1,-95.2423C198.1,-91.2651 225.623,-78.2423 229.6,-78.2423"/>
</g>
<!-- ndcluster_nd160 -->
<g id="node16" class="node"><title>ndcluster_nd160</title>
<g id="a_node16"><a xlink:title="nd160">
<ellipse fill="orange" stroke="orange" cx="296.1" cy="-78.2423" rx="1.8" ry="1.8"/>
</a>
</g>
</g>
<!-- nd157&#45;&gt;ndcluster_nd160 -->
<g id="edge9" class="edge"><title>nd157:e&#45;&gt;ndcluster_nd160:w</title>
<path fill="none" stroke="black" d="M257.1,-78.2423C273.1,-78.2423 277.1,-78.2423 293.1,-78.2423"/>
</g>
<!-- nd173 -->
<g id="node20" class="node"><title>nd173</title>
<g id="a_node20"><a xlink:title="nd173&#45;ContractGraph">
<ellipse fill="black" stroke="black" cx="296.1" cy="-7.24229" rx="1.8" ry="1.8"/>
</a>
</g>
</g>
<!-- nd157&#45;&gt;nd173 -->
<g id="edge17" class="edge"><title>nd157:s&#45;&gt;nd173:w</title>
<path fill="none" stroke="black" d="M244.1,-62.2423C244.1,-53.2842 252.858,-55.1179 258.6,-48.2423 273.866,-29.9634 269.285,-7.24229 293.1,-7.24229"/>
</g>
<!-- nd166 -->
<g id="node18" class="node"><title>nd166</title>
<g id="a_node18"><a xlink:title="nd166&#45;AppGraph">
<path fill="none" stroke="#000000" d="M236.547,-37.2965C236.547,-37.2965 232.672,-31.688 232.672,-31.688 231.136,-29.4652 231.136,-25.0194 232.672,-22.7965 232.672,-22.7965 236.547,-17.188 236.547,-17.188 238.083,-14.9652 242.321,-12.7445 245.023,-12.7468 245.023,-12.7468 250.427,-12.7513 250.427,-12.7513 253.129,-12.7536 255.831,-15.4577 255.831,-18.1597 255.831,-18.1597 255.831,-36.3249 255.831,-36.3249 255.831,-39.0268 253.129,-41.731 250.427,-41.7333 250.427,-41.7333 245.023,-41.7378 245.023,-41.7378 242.321,-41.74 238.083,-39.5194 236.547,-37.2965"/>
<text text-anchor="middle" x="244.1" y="-23.5423" font-family="Times,serif" font-size="14.00">@</text>
</a>
</g>
</g>
<!-- nd165&#45;&gt;nd166 -->
<g id="edge13" class="edge"><title>nd165:s&#45;&gt;nd166:w</title>
<path fill="none" stroke="black" d="M198.1,-46.2423C198.1,-29.8927 213.25,-27.2423 229.6,-27.2423"/>
</g>
<!-- nd165&#45;&gt;nd174 -->
<g id="edge19" class="edge"><title>nd165:n&#45;&gt;nd174:w</title>
<path fill="none" stroke="black" d="M198.1,-78.2423C198.1,-86.6074 206.789,-84.2247 212.6,-90.2423 227.019,-105.174 220.343,-127.242 241.1,-127.242"/>
</g>
<!-- ndcluster_nd169 -->
<g id="node19" class="node"><title>ndcluster_nd169</title>
<g id="a_node19"><a xlink:title="nd169">
<ellipse fill="orange" stroke="orange" cx="296.1" cy="-27.2423" rx="1.8" ry="1.8"/>
</a>
</g>
</g>
<!-- nd166&#45;&gt;ndcluster_nd169 -->
<g id="edge12" class="edge"><title>nd166:e&#45;&gt;ndcluster_nd169:w</title>
<path fill="none" stroke="black" d="M257.1,-27.2423C273.1,-27.2423 277.1,-27.2423 293.1,-27.2423"/>
</g>
<!-- nd166&#45;&gt;nd173 -->
<g id="edge16" class="edge"><title>nd166:s&#45;&gt;nd173:w</title>
<path fill="none" stroke="black" d="M244.1,-11.2423C244.1,10.6079 271.25,-7.24229 293.1,-7.24229"/>
</g>
<!-- nd175 -->
<g id="node22" class="node"><title>nd175</title>
<g id="a_node22"><a xlink:title="nd175&#45;ContractGraph">
<ellipse fill="black" stroke="black" cx="342.1" cy="-44.2423" rx="1.8" ry="1.8"/>
</a>
</g>
</g>
<!-- nd173&#45;&gt;nd175 -->
<g id="edge21" class="edge"><title>nd173:e&#45;&gt;nd175:w</title>
<path fill="none" stroke="black" d="M299.1,-7.24229C323.317,-7.24229 314.883,-44.2423 339.1,-44.2423"/>
</g>
<!-- nd174&#45;&gt;nd232 -->
<g id="edge23" class="edge"><title>nd174:e&#45;&gt;nd232:w</title>
<path fill="none" stroke="black" d="M247.1,-127.242C258.911,-127.242 262.409,-125.464 273.6,-129.242 277.466,-130.548 277.22,-134.242 281.3,-134.242"/>
<text text-anchor="middle" x="270.1" y="-133.042" font-family="Times,serif" font-size="14.00">y</text>
</g>
<!-- nd175&#45;&gt;nd194 -->
<g id="edge24" class="edge"><title>nd175:e&#45;&gt;nd194:w</title>
<path fill="none" stroke="black" d="M345.1,-44.2423C380.712,-44.2423 388.988,-54.2423 424.6,-54.2423"/>
<text text-anchor="middle" x="390.6" y="-57.0423" font-family="Times,serif" font-size="14.00">x</text>
</g>
<!-- nd283 -->
<g id="node23" class="node"><title>nd283</title>
<g id="a_node23"><a xlink:title="nd283&#45;ConstListGraph">
<path fill="none" stroke="purple" d="M434.267,-117.742C434.267,-117.742 443.933,-117.742 443.933,-117.742 448.767,-117.742 453.6,-112.909 453.6,-108.076 453.6,-108.076 453.6,-98.409 453.6,-98.409 453.6,-93.5756 448.767,-88.7423 443.933,-88.7423 443.933,-88.7423 434.267,-88.7423 434.267,-88.7423 429.433,-88.7423 424.6,-93.5756 424.6,-98.409 424.6,-98.409 424.6,-108.076 424.6,-108.076 424.6,-112.909 429.433,-117.742 434.267,-117.742"/>
<text text-anchor="middle" x="439.1" y="-99.5423" font-family="Times,serif" font-size="14.00">::</text>
</a>
</g>
</g>
<!-- nd283&#45;&gt;nd286 -->
<g id="edge29" class="edge"><title>nd283:n&#45;&gt;nd286:w</title>
<path fill="none" stroke="black" d="M439.1,-119.242C439.1,-125.702 447.556,-120.523 453.6,-118.242 462.499,-114.884 461.088,-105.242 470.6,-105.242"/>
</g>
<!-- nd283&#45;&gt;nd287 -->
<g id="edge30" class="edge"><title>nd283:s&#45;&gt;nd287:w</title>
<path fill="none" stroke="black" d="M439.1,-87.2423C439.1,-78.8772 447.494,-80.9605 453.6,-75.2423 461.632,-67.7203 459.596,-57.2423 470.6,-57.2423"/>
</g>
<!-- nd286&#45;&gt;nd22 -->
<g id="edge25" class="edge"><title>nd286:e&#45;&gt;nd22:w</title>
<path fill="none" stroke="black" d="M474.2,-105.242C481.756,-105.242 483.644,-105.242 491.2,-105.242"/>
</g>
<!-- nd287&#45;&gt;nd188 -->
<g id="edge26" class="edge"><title>nd287:e&#45;&gt;nd188:w</title>
<path fill="none" stroke="black" d="M474.2,-57.2423C481.756,-57.2423 483.644,-57.2423 491.2,-57.2423"/>
</g>
<!-- nd152&#45;&gt;nd283 -->
<g id="edge8" class="edge"><title>nd152:e&#45;&gt;nd283:w</title>
<path fill="none" stroke="black" d="M356.6,-124.242C388.231,-124.242 392.969,-103.242 424.6,-103.242"/>
<text text-anchor="middle" x="390.6" y="-127.042" font-family="Times,serif" font-size="14.00">op_arg, x</text>
</g>
</g>
</svg>
