<?xml version="1.0" encoding="UTF-8" standalone="no"?>
<!DOCTYPE svg PUBLIC "-//W3C//DTD SVG 1.1//EN"
 "http://www.w3.org/Graphics/SVG/1.1/DTD/svg11.dtd">
<!-- Generated by graphviz version 2.38.0 (20140413.2041)
 -->
<!-- Title: G Pages: 1 -->
<svg width="215pt" height="127pt"
 viewBox="0.00 0.00 215.20 126.50" xmlns="http://www.w3.org/2000/svg" xmlns:xlink="http://www.w3.org/1999/xlink">
<g id="graph0" class="graph" transform="scale(1 1) rotate(0) translate(4 122.5)">
<title>G</title>
<polygon fill="white" stroke="none" points="-4,4 -4,-122.5 211.2,-122.5 211.2,4 -4,4"/>
<g id="clust1" class="cluster"><title>cluster_nd318</title>
<polygon fill="none" stroke="orange" points="105.3,-75.5 105.3,-95.5 124.9,-95.5 124.9,-75.5 105.3,-75.5"/>
</g>
<g id="clust2" class="cluster"><title>cluster_nd395</title>
<polygon fill="none" stroke="orange" points="179.6,-90.5 179.6,-110.5 199.2,-110.5 199.2,-90.5 179.6,-90.5"/>
</g>
<!-- nd1 -->
<g id="node1" class="node"><title>nd1</title>
<ellipse fill="black" stroke="black" cx="1.8" cy="-52.5" rx="1.8" ry="1.8"/>
</g>
<!-- nd255 -->
<g id="node5" class="node"><title>nd255</title>
<g id="a_node5"><a xlink:title="nd255&#45;AppGraph">
<path fill="none" stroke="#000000" d="M23.5473,-62.5543C23.5473,-62.5543 19.6719,-56.9457 19.6719,-56.9457 18.136,-54.7229 18.136,-50.2771 19.6719,-48.0543 19.6719,-48.0543 23.5473,-42.4457 23.5473,-42.4457 25.0833,-40.2229 29.3212,-38.0023 32.0231,-38.0045 32.0231,-38.0045 37.4269,-38.009 37.4269,-38.009 40.1288,-38.0113 42.8307,-40.7155 42.8307,-43.4174 42.8307,-43.4174 42.8307,-61.5826 42.8307,-61.5826 42.8307,-64.2845 40.1288,-66.9887 37.4269,-66.991 37.4269,-66.991 32.0231,-66.9955 32.0231,-66.9955 29.3212,-66.9977 25.0833,-64.7771 23.5473,-62.5543"/>
<text text-anchor="middle" x="31.1" y="-48.8" font-family="Times,serif" font-size="14.00">@</text>
</a>
</g>
</g>
<!-- nd1&#45;&gt;nd255 -->
<g id="edge7" class="edge"><title>nd1:e&#45;&gt;nd255:w</title>
<path fill="none" stroke="#b70000" d="M3.6,-52.5C9.37778,-52.5 10.8222,-52.5 16.6,-52.5"/>
</g>
<!-- nd34 -->
<g id="node2" class="node"><title>nd34</title>
<g id="a_node2"><a xlink:title="nd34&#45;ConstGraph">
<path fill="none" stroke="purple" d="M152.267,-71C152.267,-71 161.933,-71 161.933,-71 166.767,-71 171.6,-66.1667 171.6,-61.3333 171.6,-61.3333 171.6,-51.6667 171.6,-51.6667 171.6,-46.8333 166.767,-42 161.933,-42 161.933,-42 152.267,-42 152.267,-42 147.433,-42 142.6,-46.8333 142.6,-51.6667 142.6,-51.6667 142.6,-61.3333 142.6,-61.3333 142.6,-66.1667 147.433,-71 152.267,-71"/>
<text text-anchor="middle" x="157.1" y="-52.8" font-family="Times,serif" font-size="14.00">4</text>
</a>
</g>
</g>
<!-- nd39 -->
<g id="node3" class="node"><title>nd39</title>
<g id="a_node3"><a xlink:title="nd39&#45;ConstEmptyGraph">
<path fill="none" stroke="purple" d="M152.267,-29C152.267,-29 161.933,-29 161.933,-29 166.767,-29 171.6,-24.1667 171.6,-19.3333 171.6,-19.3333 171.6,-9.66667 171.6,-9.66667 171.6,-4.83333 166.767,-1.77636e-15 161.933,-1.77636e-15 161.933,-1.77636e-15 152.267,-1.77636e-15 152.267,-1.77636e-15 147.433,-1.77636e-15 142.6,-4.83333 142.6,-9.66667 142.6,-9.66667 142.6,-19.3333 142.6,-19.3333 142.6,-24.1667 147.433,-29 152.267,-29"/>
<text text-anchor="middle" x="157.1" y="-10.8" font-family="Times,serif" font-size="14.00">[]</text>
</a>
</g>
</g>
<!-- nd182 -->
<g id="node4" class="node"><title>nd182</title>
<g id="a_node4"><a xlink:title="nd182&#45;ConstListGraph">
<path fill="none" stroke="purple" d="M110.267,-56C110.267,-56 119.933,-56 119.933,-56 124.767,-56 129.6,-51.1667 129.6,-46.3333 129.6,-46.3333 129.6,-36.6667 129.6,-36.6667 129.6,-31.8333 124.767,-27 119.933,-27 119.933,-27 110.267,-27 110.267,-27 105.433,-27 100.6,-31.8333 100.6,-36.6667 100.6,-36.6667 100.6,-46.3333 100.6,-46.3333 100.6,-51.1667 105.433,-56 110.267,-56"/>
<text text-anchor="middle" x="115.1" y="-37.8" font-family="Times,serif" font-size="14.00">::</text>
</a>
</g>
</g>
<!-- nd182&#45;&gt;nd34 -->
<g id="edge1" class="edge"><title>nd182:n&#45;&gt;nd34:w</title>
<path fill="none" stroke="purple" d="M115.1,-57.5C115.1,-69.7303 130.37,-56.5 142.6,-56.5"/>
</g>
<!-- nd182&#45;&gt;nd39 -->
<g id="edge2" class="edge"><title>nd182:s&#45;&gt;nd39:w</title>
<path fill="none" stroke="purple" d="M115.1,-25.5C115.1,-12.3363 129.436,-14.5 142.6,-14.5"/>
</g>
<!-- nd256 -->
<g id="node6" class="node"><title>nd256</title>
<g id="a_node6"><a xlink:title="nd256&#45;AppGraph">
<path fill="none" stroke="#000000" d="M65.5473,-76.5543C65.5473,-76.5543 61.6719,-70.9457 61.6719,-70.9457 60.136,-68.7229 60.136,-64.2771 61.6719,-62.0543 61.6719,-62.0543 65.5473,-56.4457 65.5473,-56.4457 67.0833,-54.2229 71.3212,-52.0023 74.0231,-52.0045 74.0231,-52.0045 79.4269,-52.009 79.4269,-52.009 82.1288,-52.0113 84.8307,-54.7155 84.8307,-57.4174 84.8307,-57.4174 84.8307,-75.5826 84.8307,-75.5826 84.8307,-78.2845 82.1288,-80.9887 79.4269,-80.991 79.4269,-80.991 74.0231,-80.9955 74.0231,-80.9955 71.3212,-80.9977 67.0833,-78.7771 65.5473,-76.5543"/>
<text text-anchor="middle" x="73.1" y="-62.8" font-family="Times,serif" font-size="14.00">@</text>
</a>
</g>
</g>
<!-- nd255&#45;&gt;nd256 -->
<g id="edge5" class="edge"><title>nd255:e&#45;&gt;nd256:w</title>
<path fill="none" stroke="#b70000" d="M44.1,-52.5C53.0581,-52.5 49.6419,-66.5 58.6,-66.5"/>
</g>
<!-- nd386 -->
<g id="node7" class="node"><title>nd386</title>
<g id="a_node7"><a xlink:title="nd386&#45;ConstGraph">
<path fill="none" stroke="purple" d="M68.2667,-39C68.2667,-39 77.9333,-39 77.9333,-39 82.7667,-39 87.6,-34.1667 87.6,-29.3333 87.6,-29.3333 87.6,-19.6667 87.6,-19.6667 87.6,-14.8333 82.7667,-10 77.9333,-10 77.9333,-10 68.2667,-10 68.2667,-10 63.4333,-10 58.6,-14.8333 58.6,-19.6667 58.6,-19.6667 58.6,-29.3333 58.6,-29.3333 58.6,-34.1667 63.4333,-39 68.2667,-39"/>
<text text-anchor="middle" x="73.1" y="-20.8" font-family="Times,serif" font-size="14.00">6</text>
</a>
</g>
</g>
<!-- nd255&#45;&gt;nd386 -->
<g id="edge6" class="edge"><title>nd255:s&#45;&gt;nd386:w</title>
<path fill="none" stroke="black" d="M31.1,-36.5C31.1,-23.1648 45.2648,-24.5 58.6,-24.5"/>
</g>
<!-- nd256&#45;&gt;nd182 -->
<g id="edge3" class="edge"><title>nd256:s&#45;&gt;nd182:w</title>
<path fill="none" stroke="black" d="M73.1,-50.5C73.1,-50.0981 100.198,-41.5 100.6,-41.5"/>
</g>
<!-- ndcluster_nd318 -->
<g id="node8" class="node"><title>ndcluster_nd318</title>
<g id="a_node8"><a xlink:title="nd318">
<ellipse fill="orange" stroke="orange" cx="115.1" cy="-85.5" rx="1.8" ry="1.8"/>
</a>
</g>
</g>
<!-- nd256&#45;&gt;ndcluster_nd318 -->
<g id="edge4" class="edge"><title>nd256:e&#45;&gt;ndcluster_nd318:w</title>
<path fill="none" stroke="red" d="M86.1,-66.5C96.1633,-66.5 97.8533,-75.8933 102.945,-81.4706"/>
<polygon fill="red" stroke="red" points="101.537,-84.675 112.1,-85.5 104.357,-78.2681 101.537,-84.675"/>
</g>
<!-- nd391 -->
<g id="node9" class="node"><title>nd391</title>
<g id="a_node9"><a xlink:title="nd391&#45;RecurGraph">
<ellipse fill="none" stroke="#000000" cx="157.1" cy="-95.5" rx="11" ry="11"/>
<text text-anchor="middle" x="157.1" y="-91.8" font-family="Times,serif" font-size="14.00">rec</text>
</a>
</g>
</g>
<!-- ndcluster_nd318&#45;&gt;nd391 -->
<g id="edge8" class="edge"><title>ndcluster_nd318:e&#45;&gt;nd391:w</title>
<path fill="none" stroke="black" d="M118.1,-85.5C130.897,-85.5 132.303,-95.5 145.1,-95.5"/>
</g>
<!-- ndcluster_nd395 -->
<g id="node10" class="node"><title>ndcluster_nd395</title>
<g id="a_node10"><a xlink:title="nd395">
<ellipse fill="orange" stroke="orange" cx="189.4" cy="-100.5" rx="1.8" ry="1.8"/>
</a>
</g>
</g>
<!-- nd391&#45;&gt;ndcluster_nd395 -->
<g id="edge9" class="edge"><title>nd391:n&#45;&gt;ndcluster_nd395:e</title>
<path fill="none" stroke="grey" d="M157.1,-107.5C157.1,-123.494 208.394,-100.5 192.4,-100.5"/>
</g>
<!-- nd391&#45;&gt;ndcluster_nd395 -->
<g id="edge10" class="edge"><title>nd391:e&#45;&gt;ndcluster_nd395:w</title>
<path fill="none" stroke="black" d="M169.1,-95.5C177.104,-95.5 178.396,-100.5 186.4,-100.5"/>
</g>
</g>
</svg>
