<?xml version="1.0" encoding="UTF-8" standalone="no"?>
<!DOCTYPE svg PUBLIC "-//W3C//DTD SVG 1.1//EN"
 "http://www.w3.org/Graphics/SVG/1.1/DTD/svg11.dtd">
<!-- Generated by graphviz version 2.38.0 (20140413.2041)
 -->
<!-- Title: G Pages: 1 -->
<svg width="380pt" height="187pt"
 viewBox="0.00 0.00 379.80 187.28" xmlns="http://www.w3.org/2000/svg" xmlns:xlink="http://www.w3.org/1999/xlink">
<g id="graph0" class="graph" transform="scale(1 1) rotate(0) translate(4 183.277)">
<title>G</title>
<polygon fill="white" stroke="none" points="-4,4 -4,-183.277 375.8,-183.277 375.8,4 -4,4"/>
<g id="clust1" class="cluster"><title>cluster_nd395</title>
<polygon fill="none" stroke="orange" points="163.3,-151.277 163.3,-171.277 182.9,-171.277 182.9,-151.277 163.3,-151.277"/>
</g>
<g id="clust2" class="cluster"><title>cluster_nd338</title>
<polygon fill="none" stroke="orange" points="161.3,-99.2769 161.3,-142.277 184.9,-142.277 184.9,-99.2769 161.3,-99.2769"/>
<text text-anchor="middle" x="173.1" y="-127.077" font-family="Times,serif" font-size="14.00">tl</text>
</g>
<!-- nd1 -->
<g id="node1" class="node"><title>nd1</title>
<ellipse fill="black" stroke="black" cx="1.8" cy="-90.2769" rx="1.8" ry="1.8"/>
</g>
<!-- nd332 -->
<g id="node8" class="node"><title>nd332</title>
<g id="a_node8"><a xlink:title="nd332&#45;AppGraph">
<path fill="none" stroke="#000000" d="M27.5473,-100.331C27.5473,-100.331 23.6719,-94.7227 23.6719,-94.7227 22.136,-92.4998 22.136,-88.0541 23.6719,-85.8312 23.6719,-85.8312 27.5473,-80.2227 27.5473,-80.2227 29.0833,-77.9998 33.3212,-75.7792 36.0231,-75.7814 36.0231,-75.7814 41.4269,-75.7859 41.4269,-75.7859 44.1288,-75.7882 46.8307,-78.4924 46.8307,-81.1943 46.8307,-81.1943 46.8307,-99.3596 46.8307,-99.3596 46.8307,-102.061 44.1288,-104.766 41.4269,-104.768 41.4269,-104.768 36.0231,-104.772 36.0231,-104.772 33.3212,-104.775 29.0833,-102.554 27.5473,-100.331"/>
<text text-anchor="middle" x="35.1" y="-86.5769" font-family="Times,serif" font-size="14.00">@</text>
</a>
</g>
</g>
<!-- nd1&#45;&gt;nd332 -->
<g id="edge13" class="edge"><title>nd1:e&#45;&gt;nd332:w</title>
<path fill="none" stroke="#b70000" d="M3.6,-90.2769C11.1556,-90.2769 13.0444,-90.2769 20.6,-90.2769"/>
</g>
<!-- nd34 -->
<g id="node2" class="node"><title>nd34</title>
<g id="a_node2"><a xlink:title="nd34&#45;ConstGraph">
<path fill="none" stroke="purple" d="M352.467,-75.7769C352.467,-75.7769 362.133,-75.7769 362.133,-75.7769 366.967,-75.7769 371.8,-70.9436 371.8,-66.1103 371.8,-66.1103 371.8,-56.4436 371.8,-56.4436 371.8,-51.6103 366.967,-46.7769 362.133,-46.7769 362.133,-46.7769 352.467,-46.7769 352.467,-46.7769 347.633,-46.7769 342.8,-51.6103 342.8,-56.4436 342.8,-56.4436 342.8,-66.1103 342.8,-66.1103 342.8,-70.9436 347.633,-75.7769 352.467,-75.7769"/>
<text text-anchor="middle" x="357.3" y="-57.5769" font-family="Times,serif" font-size="14.00">4</text>
</a>
</g>
</g>
<!-- nd39 -->
<g id="node3" class="node"><title>nd39</title>
<g id="a_node3"><a xlink:title="nd39&#45;ConstEmptyGraph">
<path fill="none" stroke="purple" d="M352.467,-31.7769C352.467,-31.7769 362.133,-31.7769 362.133,-31.7769 366.967,-31.7769 371.8,-26.9436 371.8,-22.1103 371.8,-22.1103 371.8,-12.4436 371.8,-12.4436 371.8,-7.61026 366.967,-2.77692 362.133,-2.77692 362.133,-2.77692 352.467,-2.77692 352.467,-2.77692 347.633,-2.77692 342.8,-7.61026 342.8,-12.4436 342.8,-12.4436 342.8,-22.1103 342.8,-22.1103 342.8,-26.9436 347.633,-31.7769 352.467,-31.7769"/>
<text text-anchor="middle" x="357.3" y="-13.5769" font-family="Times,serif" font-size="14.00">[]</text>
</a>
</g>
</g>
<!-- nd182 -->
<g id="node4" class="node"><title>nd182</title>
<g id="a_node4"><a xlink:title="nd182&#45;ConstListGraph">
<path fill="none" stroke="purple" d="M265.267,-117.777C265.267,-117.777 274.933,-117.777 274.933,-117.777 279.767,-117.777 284.6,-112.944 284.6,-108.11 284.6,-108.11 284.6,-98.4436 284.6,-98.4436 284.6,-93.6103 279.767,-88.7769 274.933,-88.7769 274.933,-88.7769 265.267,-88.7769 265.267,-88.7769 260.433,-88.7769 255.6,-93.6103 255.6,-98.4436 255.6,-98.4436 255.6,-108.11 255.6,-108.11 255.6,-112.944 260.433,-117.777 265.267,-117.777"/>
<text text-anchor="middle" x="270.1" y="-99.5769" font-family="Times,serif" font-size="14.00">::</text>
</a>
</g>
</g>
<!-- nd453 -->
<g id="node18" class="node"><title>nd453</title>
<g id="a_node18"><a xlink:title="nd453&#45;ContractGraph">
<ellipse fill="black" stroke="black" cx="303.4" cy="-61.2769" rx="1.8" ry="1.8"/>
</a>
</g>
</g>
<!-- nd182&#45;&gt;nd453 -->
<g id="edge1" class="edge"><title>nd182:n&#45;&gt;nd453:w</title>
<path fill="none" stroke="black" d="M270.1,-119.277C270.1,-125.737 279.393,-122.1 284.6,-118.277 292.107,-112.765 300.427,-61.2769 301.6,-61.2769"/>
</g>
<!-- nd454 -->
<g id="node19" class="node"><title>nd454</title>
<g id="a_node19"><a xlink:title="nd454&#45;ContractGraph">
<ellipse fill="black" stroke="black" cx="303.4" cy="-17.2769" rx="1.8" ry="1.8"/>
</a>
</g>
</g>
<!-- nd182&#45;&gt;nd454 -->
<g id="edge2" class="edge"><title>nd182:s&#45;&gt;nd454:w</title>
<path fill="none" stroke="black" d="M270.1,-87.2769C270.1,-80.4601 279.967,-87.2774 284.6,-82.2769 294.747,-71.3249 286.67,-17.2769 301.6,-17.2769"/>
</g>
<!-- nd386 -->
<g id="node5" class="node"><title>nd386</title>
<g id="a_node5"><a xlink:title="nd386&#45;ConstGraph">
<path fill="none" stroke="purple" d="M265.267,-75.7769C265.267,-75.7769 274.933,-75.7769 274.933,-75.7769 279.767,-75.7769 284.6,-70.9436 284.6,-66.1103 284.6,-66.1103 284.6,-56.4436 284.6,-56.4436 284.6,-51.6103 279.767,-46.7769 274.933,-46.7769 274.933,-46.7769 265.267,-46.7769 265.267,-46.7769 260.433,-46.7769 255.6,-51.6103 255.6,-56.4436 255.6,-56.4436 255.6,-66.1103 255.6,-66.1103 255.6,-70.9436 260.433,-75.7769 265.267,-75.7769"/>
<text text-anchor="middle" x="270.1" y="-57.5769" font-family="Times,serif" font-size="14.00">6</text>
</a>
</g>
</g>
<!-- nd391 -->
<g id="node6" class="node"><title>nd391</title>
<g id="a_node6"><a xlink:title="nd391&#45;RecurGraph">
<ellipse fill="none" stroke="#000000" cx="127.1" cy="-143.277" rx="11" ry="11"/>
<text text-anchor="middle" x="127.1" y="-139.577" font-family="Times,serif" font-size="14.00">rec</text>
</a>
</g>
</g>
<!-- ndcluster_nd395 -->
<g id="node7" class="node"><title>ndcluster_nd395</title>
<g id="a_node7"><a xlink:title="nd395">
<ellipse fill="orange" stroke="orange" cx="173.1" cy="-161.277" rx="1.8" ry="1.8"/>
</a>
</g>
</g>
<!-- nd391&#45;&gt;ndcluster_nd395 -->
<g id="edge17" class="edge"><title>nd391:n&#45;&gt;ndcluster_nd395:e</title>
<path fill="none" stroke="grey" d="M127.1,-155.277C127.1,-197.232 183.047,-161.277 176.1,-161.277"/>
</g>
<!-- nd391&#45;&gt;ndcluster_nd395 -->
<g id="edge18" class="edge"><title>nd391:e&#45;&gt;ndcluster_nd395:w</title>
<path fill="none" stroke="black" d="M139.1,-143.277C155.032,-143.277 154.168,-161.277 170.1,-161.277"/>
</g>
<!-- nd333 -->
<g id="node9" class="node"><title>nd333</title>
<g id="a_node9"><a xlink:title="nd333&#45;AppGraph">
<path fill="none" stroke="#000000" d="M73.5473,-129.331C73.5473,-129.331 69.6719,-123.723 69.6719,-123.723 68.136,-121.5 68.136,-117.054 69.6719,-114.831 69.6719,-114.831 73.5473,-109.223 73.5473,-109.223 75.0833,-107 79.3212,-104.779 82.0231,-104.781 82.0231,-104.781 87.4269,-104.786 87.4269,-104.786 90.1288,-104.788 92.8307,-107.492 92.8307,-110.194 92.8307,-110.194 92.8307,-128.36 92.8307,-128.36 92.8307,-131.061 90.1288,-133.766 87.4269,-133.768 87.4269,-133.768 82.0231,-133.772 82.0231,-133.772 79.3212,-133.775 75.0833,-131.554 73.5473,-129.331"/>
<text text-anchor="middle" x="81.1" y="-115.577" font-family="Times,serif" font-size="14.00">@</text>
</a>
</g>
</g>
<!-- nd332&#45;&gt;nd333 -->
<g id="edge10" class="edge"><title>nd332:e&#45;&gt;nd333:w</title>
<path fill="none" stroke="black" d="M48.1,-90.2769C63.3882,-90.2769 51.3118,-119.277 66.6,-119.277"/>
</g>
<!-- nd343 -->
<g id="node12" class="node"><title>nd343</title>
<g id="a_node12"><a xlink:title="nd343&#45;BinOpGraph">
<ellipse fill="none" stroke="#000000" cx="127.1" cy="-46.2769" rx="14.5" ry="14.5"/>
<text text-anchor="middle" x="127.1" y="-42.5769" font-family="Times,serif" font-size="14.00">+</text>
</a>
</g>
</g>
<!-- nd332&#45;&gt;nd343 -->
<g id="edge11" class="edge"><title>nd332:s&#45;&gt;nd343:w</title>
<path fill="none" stroke="#b70000" d="M35.1,-74.2769C35.1,-37.6534 75.9765,-46.2769 112.6,-46.2769"/>
</g>
<!-- nd333&#45;&gt;nd391 -->
<g id="edge8" class="edge"><title>nd333:e&#45;&gt;nd391:w</title>
<path fill="none" stroke="black" d="M94.1,-119.277C108.274,-119.277 100.926,-143.277 115.1,-143.277"/>
</g>
<!-- nd335 -->
<g id="node10" class="node"><title>nd335</title>
<g id="a_node10"><a xlink:title="nd335&#45;AppGraph">
<path fill="none" stroke="#000000" d="M119.547,-114.331C119.547,-114.331 115.672,-108.723 115.672,-108.723 114.136,-106.5 114.136,-102.054 115.672,-99.8312 115.672,-99.8312 119.547,-94.2227 119.547,-94.2227 121.083,-91.9998 125.321,-89.7792 128.023,-89.7814 128.023,-89.7814 133.427,-89.7859 133.427,-89.7859 136.129,-89.7882 138.831,-92.4924 138.831,-95.1943 138.831,-95.1943 138.831,-113.36 138.831,-113.36 138.831,-116.061 136.129,-118.766 133.427,-118.768 133.427,-118.768 128.023,-118.772 128.023,-118.772 125.321,-118.775 121.083,-116.554 119.547,-114.331"/>
<text text-anchor="middle" x="127.1" y="-100.577" font-family="Times,serif" font-size="14.00">@</text>
</a>
</g>
</g>
<!-- nd333&#45;&gt;nd335 -->
<g id="edge9" class="edge"><title>nd333:s&#45;&gt;nd335:w</title>
<path fill="none" stroke="black" d="M81.1,-103.277C81.1,-89.2699 98.5929,-104.277 112.6,-104.277"/>
</g>
<!-- ndcluster_nd338 -->
<g id="node11" class="node"><title>ndcluster_nd338</title>
<g id="a_node11"><a xlink:title="nd338">
<ellipse fill="orange" stroke="orange" cx="173.1" cy="-109.277" rx="1.8" ry="1.8"/>
</a>
</g>
</g>
<!-- nd335&#45;&gt;ndcluster_nd338 -->
<g id="edge7" class="edge"><title>nd335:e&#45;&gt;ndcluster_nd338:w</title>
<path fill="none" stroke="black" d="M140.1,-104.277C153.617,-104.277 156.583,-109.277 170.1,-109.277"/>
</g>
<!-- nd351 -->
<g id="node13" class="node"><title>nd351</title>
<g id="a_node13"><a xlink:title="nd351&#45;ContractGraph">
<ellipse fill="black" stroke="black" cx="173.1" cy="-89.2769" rx="1.8" ry="1.8"/>
</a>
</g>
</g>
<!-- nd335&#45;&gt;nd351 -->
<g id="edge12" class="edge"><title>nd335:s&#45;&gt;nd351:w</title>
<path fill="none" stroke="black" d="M127.1,-88.2769C127.1,-69.1606 150.984,-89.2769 170.1,-89.2769"/>
</g>
<!-- nd352 -->
<g id="node14" class="node"><title>nd352</title>
<g id="a_node14"><a xlink:title="nd352&#45;ContractGraph">
<ellipse fill="black" stroke="black" cx="173.1" cy="-61.2769" rx="1.8" ry="1.8"/>
</a>
</g>
</g>
<!-- nd343&#45;&gt;nd352 -->
<g id="edge14" class="edge"><title>nd343:n&#45;&gt;nd352:w</title>
<path fill="none" stroke="black" d="M127.1,-62.2769C127.1,-81.3932 150.984,-61.2769 170.1,-61.2769"/>
</g>
<!-- nd349 -->
<g id="node20" class="node"><title>nd349</title>
<g id="a_node20"><a xlink:title="nd349&#45;UnOpGraph">
<ellipse fill="none" stroke="#000000" cx="173.1" cy="-25.2769" rx="14.5" ry="14.5"/>
<text text-anchor="middle" x="173.1" y="-21.5769" font-family="Times,serif" font-size="14.00">hd</text>
</a>
</g>
</g>
<!-- nd343&#45;&gt;nd349 -->
<g id="edge5" class="edge"><title>nd343:s&#45;&gt;nd349:w</title>
<path fill="none" stroke="red" d="M127.1,-30.2769C127.1,-19.424 137.255,-22.2587 148.378,-24.1836"/>
<polygon fill="red" stroke="red" points="148.284,-27.6936 158.6,-25.2769 149.029,-20.7333 148.284,-27.6936"/>
</g>
<!-- nd351&#45;&gt;nd182 -->
<g id="edge16" class="edge"><title>nd351:e&#45;&gt;nd182:w</title>
<path fill="none" stroke="black" d="M176.1,-89.2769C211.977,-89.2769 219.723,-103.277 255.6,-103.277"/>
<text text-anchor="middle" x="221.6" y="-106.077" font-family="Times,serif" font-size="14.00">x</text>
</g>
<!-- nd352&#45;&gt;nd386 -->
<g id="edge15" class="edge"><title>nd352:e&#45;&gt;nd386:w</title>
<path fill="none" stroke="black" d="M176.1,-61.2769C211.433,-61.2769 220.267,-61.2769 255.6,-61.2769"/>
<text text-anchor="middle" x="221.6" y="-65.0769" font-family="Times,serif" font-size="14.00">y</text>
</g>
<!-- nd440 -->
<g id="node15" class="node"><title>nd440</title>
<g id="a_node15"><a xlink:title="nd440&#45;ContractGraph">
<ellipse fill="black" stroke="black" cx="324" cy="-61.2769" rx="1.8" ry="1.8"/>
</a>
</g>
</g>
<!-- nd440&#45;&gt;nd34 -->
<g id="edge3" class="edge"><title>nd440:e&#45;&gt;nd34:w</title>
<path fill="none" stroke="black" d="M325.8,-61.2769C333.356,-61.2769 335.244,-61.2769 342.8,-61.2769"/>
</g>
<!-- nd441 -->
<g id="node16" class="node"><title>nd441</title>
<g id="a_node16"><a xlink:title="nd441&#45;ContractGraph">
<ellipse fill="black" stroke="black" cx="324" cy="-17.2769" rx="1.8" ry="1.8"/>
</a>
</g>
</g>
<!-- nd441&#45;&gt;nd39 -->
<g id="edge4" class="edge"><title>nd441:e&#45;&gt;nd39:w</title>
<path fill="none" stroke="black" d="M325.8,-17.2769C333.356,-17.2769 335.244,-17.2769 342.8,-17.2769"/>
</g>
<!-- nd450 -->
<g id="node17" class="node"><title>nd450</title>
<g id="a_node17"><a xlink:title="nd450&#45;ConstListGraph">
<path fill="none" stroke="purple" d="M265.267,-33.7769C265.267,-33.7769 274.933,-33.7769 274.933,-33.7769 279.767,-33.7769 284.6,-28.9436 284.6,-24.1103 284.6,-24.1103 284.6,-14.4436 284.6,-14.4436 284.6,-9.61026 279.767,-4.77692 274.933,-4.77692 274.933,-4.77692 265.267,-4.77692 265.267,-4.77692 260.433,-4.77692 255.6,-9.61026 255.6,-14.4436 255.6,-14.4436 255.6,-24.1103 255.6,-24.1103 255.6,-28.9436 260.433,-33.7769 265.267,-33.7769"/>
<text text-anchor="middle" x="270.1" y="-15.5769" font-family="Times,serif" font-size="14.00">::</text>
</a>
</g>
</g>
<!-- nd450&#45;&gt;nd453 -->
<g id="edge21" class="edge"><title>nd450:n&#45;&gt;nd453:w</title>
<path fill="none" stroke="black" d="M270.1,-35.2769C270.1,-42.0938 279.017,-36.3653 284.6,-40.2769 294.434,-47.1675 289.592,-61.2769 301.6,-61.2769"/>
</g>
<!-- nd450&#45;&gt;nd454 -->
<g id="edge22" class="edge"><title>nd450:s&#45;&gt;nd454:w</title>
<path fill="none" stroke="black" d="M270.1,-3.27692C270.1,3.18283 278.556,-1.99617 284.6,-4.27692 293.499,-7.63517 292.088,-17.2769 301.6,-17.2769"/>
</g>
<!-- nd453&#45;&gt;nd440 -->
<g id="edge19" class="edge"><title>nd453:e&#45;&gt;nd440:w</title>
<path fill="none" stroke="black" d="M305.2,-61.2769C312.756,-61.2769 314.644,-61.2769 322.2,-61.2769"/>
</g>
<!-- nd454&#45;&gt;nd441 -->
<g id="edge20" class="edge"><title>nd454:e&#45;&gt;nd441:w</title>
<path fill="none" stroke="black" d="M305.2,-17.2769C312.756,-17.2769 314.644,-17.2769 322.2,-17.2769"/>
</g>
<!-- nd349&#45;&gt;nd450 -->
<g id="edge6" class="edge"><title>nd349:e&#45;&gt;nd450:w</title>
<path fill="none" stroke="black" d="M187.6,-25.2769C217.94,-25.2769 225.26,-19.2769 255.6,-19.2769"/>
<text text-anchor="middle" x="221.6" y="-29.0769" font-family="Times,serif" font-size="14.00">op_arg, x</text>
</g>
</g>
</svg>
