<?xml version="1.0" encoding="UTF-8" standalone="no"?>
<!DOCTYPE svg PUBLIC "-//W3C//DTD SVG 1.1//EN"
 "http://www.w3.org/Graphics/SVG/1.1/DTD/svg11.dtd">
<!-- Generated by graphviz version 2.38.0 (20140413.2041)
 -->
<!-- Title: G Pages: 1 -->
<svg width="662pt" height="272pt"
 viewBox="0.00 0.00 662.00 272.11" xmlns="http://www.w3.org/2000/svg" xmlns:xlink="http://www.w3.org/1999/xlink">
<g id="graph0" class="graph" transform="scale(0.951423 0.951423) rotate(0) translate(4 282)">
<title>G</title>
<polygon fill="white" stroke="none" points="-4,4 -4,-282 691.8,-282 691.8,4 -4,4"/>
<g id="clust1" class="cluster"><title>cluster_nd140</title>
<polygon fill="none" stroke="orange" points="406.6,-123 406.6,-143 426.2,-143 426.2,-123 406.6,-123"/>
</g>
<g id="clust2" class="cluster"><title>cluster_nd70</title>
<polygon fill="none" stroke="orange" points="288.3,-227 288.3,-270 338.9,-270 338.9,-227 288.3,-227"/>
<text text-anchor="middle" x="313.6" y="-254.8" font-family="Times,serif" font-size="14.00">empty</text>
</g>
<g id="clust3" class="cluster"><title>cluster_nd91</title>
<polygon fill="none" stroke="orange" points="404.6,-71 404.6,-114 428.2,-114 428.2,-71 404.6,-71"/>
<text text-anchor="middle" x="416.4" y="-98.8" font-family="Times,serif" font-size="14.00">tl</text>
</g>
<g id="clust4" class="cluster"><title>cluster_nd110</title>
<polygon fill="none" stroke="orange" points="401.6,-8 401.6,-51 431.2,-51 431.2,-8 401.6,-8"/>
<text text-anchor="middle" x="416.4" y="-35.8" font-family="Times,serif" font-size="14.00">hd</text>
</g>
<!-- nd1 -->
<g id="node1" class="node"><title>nd1</title>
<ellipse fill="black" stroke="black" cx="1.8" cy="-140" rx="1.8" ry="1.8"/>
</g>
<!-- nd7 -->
<g id="node4" class="node"><title>nd7</title>
<g id="a_node4"><a xlink:title="nd7&#45;AppGraph">
<path fill="none" stroke="#000000" d="M27.5473,-150.054C27.5473,-150.054 23.6719,-144.446 23.6719,-144.446 22.136,-142.223 22.136,-137.777 23.6719,-135.554 23.6719,-135.554 27.5473,-129.946 27.5473,-129.946 29.0833,-127.723 33.3212,-125.502 36.0231,-125.505 36.0231,-125.505 41.4269,-125.509 41.4269,-125.509 44.1288,-125.511 46.8307,-128.215 46.8307,-130.917 46.8307,-130.917 46.8307,-149.083 46.8307,-149.083 46.8307,-151.785 44.1288,-154.489 41.4269,-154.491 41.4269,-154.491 36.0231,-154.495 36.0231,-154.495 33.3212,-154.498 29.0833,-152.277 27.5473,-150.054"/>
<text text-anchor="middle" x="35.1" y="-136.3" font-family="Times,serif" font-size="14.00">@</text>
</a>
</g>
</g>
<!-- nd1&#45;&gt;nd7 -->
<g id="edge11" class="edge"><title>nd1:e&#45;&gt;nd7:w</title>
<path fill="none" stroke="#b70000" d="M3.6,-140C11.1556,-140 13.0444,-140 20.6,-140"/>
</g>
<!-- nd136 -->
<g id="node2" class="node"><title>nd136</title>
<g id="a_node2"><a xlink:title="nd136&#45;RecurGraph">
<ellipse fill="none" stroke="#000000" cx="370.1" cy="-115" rx="11" ry="11"/>
<text text-anchor="middle" x="370.1" y="-111.3" font-family="Times,serif" font-size="14.00">rec</text>
</a>
</g>
</g>
<!-- ndcluster_nd140 -->
<g id="node3" class="node"><title>ndcluster_nd140</title>
<g id="a_node3"><a xlink:title="nd140">
<ellipse fill="orange" stroke="orange" cx="416.4" cy="-133" rx="1.8" ry="1.8"/>
</a>
</g>
</g>
<!-- nd136&#45;&gt;ndcluster_nd140 -->
<g id="edge31" class="edge"><title>nd136:n&#45;&gt;ndcluster_nd140:e</title>
<path fill="none" stroke="grey" d="M370.1,-127C370.1,-132.02 409.599,-134.365 414.6,-134.8 416.283,-134.946 416.944,-135.656 418.4,-134.8 419.189,-134.336 420.315,-133 419.4,-133"/>
</g>
<!-- nd136&#45;&gt;ndcluster_nd140 -->
<g id="edge32" class="edge"><title>nd136:e&#45;&gt;ndcluster_nd140:w</title>
<path fill="none" stroke="black" d="M382.1,-115C398.147,-115 397.353,-133 413.4,-133"/>
</g>
<!-- nd50 -->
<g id="node10" class="node"><title>nd50</title>
<g id="a_node10"><a xlink:title="nd50&#45;ConstGraph">
<path fill="none" stroke="purple" d="M76.2667,-132.5C76.2667,-132.5 85.9333,-132.5 85.9333,-132.5 90.7667,-132.5 95.6,-127.667 95.6,-122.833 95.6,-122.833 95.6,-113.167 95.6,-113.167 95.6,-108.333 90.7667,-103.5 85.9333,-103.5 85.9333,-103.5 76.2667,-103.5 76.2667,-103.5 71.4333,-103.5 66.6,-108.333 66.6,-113.167 66.6,-113.167 66.6,-122.833 66.6,-122.833 66.6,-127.667 71.4333,-132.5 76.2667,-132.5"/>
<text text-anchor="middle" x="81.1" y="-114.3" font-family="Times,serif" font-size="14.00">0</text>
</a>
</g>
</g>
<!-- nd7&#45;&gt;nd50 -->
<g id="edge10" class="edge"><title>nd7:s&#45;&gt;nd50:w</title>
<path fill="none" stroke="black" d="M35.1,-124C35.1,-109.748 52.3483,-118 66.6,-118"/>
</g>
<!-- nd66 -->
<g id="node15" class="node"><title>nd66</title>
<g id="a_node15"><a xlink:title="nd66&#45;AbsGraph">
<ellipse fill="none" stroke="#000000" cx="81.1" cy="-160" rx="14.5" ry="14.5"/>
<text text-anchor="middle" x="81.1" y="-156.3" font-family="Times,serif" font-size="14.00">fun</text>
</a>
</g>
</g>
<!-- nd7&#45;&gt;nd66 -->
<g id="edge9" class="edge"><title>nd7:e&#45;&gt;nd66:w</title>
<path fill="none" stroke="red" d="M48.1,-140C55.6679,-140 56.2725,-147.812 58.618,-153.672"/>
<polygon fill="red" stroke="red" points="56.5895,-156.53 66.6,-160 60.9382,-151.045 56.5895,-156.53"/>
</g>
<!-- nd16 -->
<g id="node5" class="node"><title>nd16</title>
<g id="a_node5"><a xlink:title="nd16&#45;ConstGraph">
<path fill="none" stroke="purple" d="M530.467,-204.5C530.467,-204.5 540.133,-204.5 540.133,-204.5 544.967,-204.5 549.8,-199.667 549.8,-194.833 549.8,-194.833 549.8,-185.167 549.8,-185.167 549.8,-180.333 544.967,-175.5 540.133,-175.5 540.133,-175.5 530.467,-175.5 530.467,-175.5 525.633,-175.5 520.8,-180.333 520.8,-185.167 520.8,-185.167 520.8,-194.833 520.8,-194.833 520.8,-199.667 525.633,-204.5 530.467,-204.5"/>
<text text-anchor="middle" x="535.3" y="-186.3" font-family="Times,serif" font-size="14.00">1</text>
</a>
</g>
</g>
<!-- nd22 -->
<g id="node6" class="node"><title>nd22</title>
<g id="a_node6"><a xlink:title="nd22&#45;ConstGraph">
<path fill="none" stroke="purple" d="M576.467,-183.5C576.467,-183.5 586.133,-183.5 586.133,-183.5 590.967,-183.5 595.8,-178.667 595.8,-173.833 595.8,-173.833 595.8,-164.167 595.8,-164.167 595.8,-159.333 590.967,-154.5 586.133,-154.5 586.133,-154.5 576.467,-154.5 576.467,-154.5 571.633,-154.5 566.8,-159.333 566.8,-164.167 566.8,-164.167 566.8,-173.833 566.8,-173.833 566.8,-178.667 571.633,-183.5 576.467,-183.5"/>
<text text-anchor="middle" x="581.3" y="-165.3" font-family="Times,serif" font-size="14.00">2</text>
</a>
</g>
</g>
<!-- nd28 -->
<g id="node7" class="node"><title>nd28</title>
<g id="a_node7"><a xlink:title="nd28&#45;ConstGraph">
<path fill="none" stroke="purple" d="M622.467,-162.5C622.467,-162.5 632.133,-162.5 632.133,-162.5 636.967,-162.5 641.8,-157.667 641.8,-152.833 641.8,-152.833 641.8,-143.167 641.8,-143.167 641.8,-138.333 636.967,-133.5 632.133,-133.5 632.133,-133.5 622.467,-133.5 622.467,-133.5 617.633,-133.5 612.8,-138.333 612.8,-143.167 612.8,-143.167 612.8,-152.833 612.8,-152.833 612.8,-157.667 617.633,-162.5 622.467,-162.5"/>
<text text-anchor="middle" x="627.3" y="-144.3" font-family="Times,serif" font-size="14.00">3</text>
</a>
</g>
</g>
<!-- nd34 -->
<g id="node8" class="node"><title>nd34</title>
<g id="a_node8"><a xlink:title="nd34&#45;ConstGraph">
<path fill="none" stroke="purple" d="M668.467,-141.5C668.467,-141.5 678.133,-141.5 678.133,-141.5 682.967,-141.5 687.8,-136.667 687.8,-131.833 687.8,-131.833 687.8,-122.167 687.8,-122.167 687.8,-117.333 682.967,-112.5 678.133,-112.5 678.133,-112.5 668.467,-112.5 668.467,-112.5 663.633,-112.5 658.8,-117.333 658.8,-122.167 658.8,-122.167 658.8,-131.833 658.8,-131.833 658.8,-136.667 663.633,-141.5 668.467,-141.5"/>
<text text-anchor="middle" x="673.3" y="-123.3" font-family="Times,serif" font-size="14.00">4</text>
</a>
</g>
</g>
<!-- nd39 -->
<g id="node9" class="node"><title>nd39</title>
<g id="a_node9"><a xlink:title="nd39&#45;ConstEmptyGraph">
<path fill="none" stroke="purple" d="M668.467,-99.5C668.467,-99.5 678.133,-99.5 678.133,-99.5 682.967,-99.5 687.8,-94.6667 687.8,-89.8333 687.8,-89.8333 687.8,-80.1667 687.8,-80.1667 687.8,-75.3333 682.967,-70.5 678.133,-70.5 678.133,-70.5 668.467,-70.5 668.467,-70.5 663.633,-70.5 658.8,-75.3333 658.8,-80.1667 658.8,-80.1667 658.8,-89.8333 658.8,-89.8333 658.8,-94.6667 663.633,-99.5 668.467,-99.5"/>
<text text-anchor="middle" x="673.3" y="-81.3" font-family="Times,serif" font-size="14.00">[]</text>
</a>
</g>
</g>
<!-- nd182 -->
<g id="node11" class="node"><title>nd182</title>
<g id="a_node11"><a xlink:title="nd182&#45;ConstListGraph">
<path fill="none" stroke="purple" d="M622.467,-120.5C622.467,-120.5 632.133,-120.5 632.133,-120.5 636.967,-120.5 641.8,-115.667 641.8,-110.833 641.8,-110.833 641.8,-101.167 641.8,-101.167 641.8,-96.3333 636.967,-91.5 632.133,-91.5 632.133,-91.5 622.467,-91.5 622.467,-91.5 617.633,-91.5 612.8,-96.3333 612.8,-101.167 612.8,-101.167 612.8,-110.833 612.8,-110.833 612.8,-115.667 617.633,-120.5 622.467,-120.5"/>
<text text-anchor="middle" x="627.3" y="-102.3" font-family="Times,serif" font-size="14.00">::</text>
</a>
</g>
</g>
<!-- nd182&#45;&gt;nd34 -->
<g id="edge1" class="edge"><title>nd182:n&#45;&gt;nd34:w</title>
<path fill="none" stroke="purple" d="M627.3,-122C627.3,-125.544 655.256,-127 658.8,-127"/>
</g>
<!-- nd182&#45;&gt;nd39 -->
<g id="edge2" class="edge"><title>nd182:s&#45;&gt;nd39:w</title>
<path fill="none" stroke="purple" d="M627.3,-90C627.3,-75.8247 644.625,-85 658.8,-85"/>
</g>
<!-- nd188 -->
<g id="node12" class="node"><title>nd188</title>
<g id="a_node12"><a xlink:title="nd188&#45;ConstListGraph">
<path fill="none" stroke="purple" d="M576.467,-141.5C576.467,-141.5 586.133,-141.5 586.133,-141.5 590.967,-141.5 595.8,-136.667 595.8,-131.833 595.8,-131.833 595.8,-122.167 595.8,-122.167 595.8,-117.333 590.967,-112.5 586.133,-112.5 586.133,-112.5 576.467,-112.5 576.467,-112.5 571.633,-112.5 566.8,-117.333 566.8,-122.167 566.8,-122.167 566.8,-131.833 566.8,-131.833 566.8,-136.667 571.633,-141.5 576.467,-141.5"/>
<text text-anchor="middle" x="581.3" y="-123.3" font-family="Times,serif" font-size="14.00">::</text>
</a>
</g>
</g>
<!-- nd188&#45;&gt;nd28 -->
<g id="edge3" class="edge"><title>nd188:n&#45;&gt;nd28:w</title>
<path fill="none" stroke="purple" d="M581.3,-143C581.3,-146.544 609.256,-148 612.8,-148"/>
</g>
<!-- nd188&#45;&gt;nd182 -->
<g id="edge4" class="edge"><title>nd188:s&#45;&gt;nd182:w</title>
<path fill="none" stroke="purple" d="M581.3,-111C581.3,-96.8247 598.625,-106 612.8,-106"/>
</g>
<!-- nd194 -->
<g id="node13" class="node"><title>nd194</title>
<g id="a_node13"><a xlink:title="nd194&#45;ConstListGraph">
<path fill="none" stroke="purple" d="M530.467,-162.5C530.467,-162.5 540.133,-162.5 540.133,-162.5 544.967,-162.5 549.8,-157.667 549.8,-152.833 549.8,-152.833 549.8,-143.167 549.8,-143.167 549.8,-138.333 544.967,-133.5 540.133,-133.5 540.133,-133.5 530.467,-133.5 530.467,-133.5 525.633,-133.5 520.8,-138.333 520.8,-143.167 520.8,-143.167 520.8,-152.833 520.8,-152.833 520.8,-157.667 525.633,-162.5 530.467,-162.5"/>
<text text-anchor="middle" x="535.3" y="-144.3" font-family="Times,serif" font-size="14.00">::</text>
</a>
</g>
</g>
<!-- nd194&#45;&gt;nd22 -->
<g id="edge5" class="edge"><title>nd194:n&#45;&gt;nd22:w</title>
<path fill="none" stroke="purple" d="M535.3,-164C535.3,-167.544 563.256,-169 566.8,-169"/>
</g>
<!-- nd194&#45;&gt;nd188 -->
<g id="edge6" class="edge"><title>nd194:s&#45;&gt;nd188:w</title>
<path fill="none" stroke="purple" d="M535.3,-132C535.3,-117.825 552.625,-127 566.8,-127"/>
</g>
<!-- nd200 -->
<g id="node14" class="node"><title>nd200</title>
<g id="a_node14"><a xlink:title="nd200&#45;ConstListGraph">
<path fill="none" stroke="purple" d="M484.467,-183.5C484.467,-183.5 494.133,-183.5 494.133,-183.5 498.967,-183.5 503.8,-178.667 503.8,-173.833 503.8,-173.833 503.8,-164.167 503.8,-164.167 503.8,-159.333 498.967,-154.5 494.133,-154.5 494.133,-154.5 484.467,-154.5 484.467,-154.5 479.633,-154.5 474.8,-159.333 474.8,-164.167 474.8,-164.167 474.8,-173.833 474.8,-173.833 474.8,-178.667 479.633,-183.5 484.467,-183.5"/>
<text text-anchor="middle" x="489.3" y="-165.3" font-family="Times,serif" font-size="14.00">::</text>
</a>
</g>
</g>
<!-- nd200&#45;&gt;nd16 -->
<g id="edge7" class="edge"><title>nd200:n&#45;&gt;nd16:w</title>
<path fill="none" stroke="purple" d="M489.3,-185C489.3,-199.175 506.625,-190 520.8,-190"/>
</g>
<!-- nd200&#45;&gt;nd194 -->
<g id="edge8" class="edge"><title>nd200:s&#45;&gt;nd194:w</title>
<path fill="none" stroke="purple" d="M489.3,-153C489.3,-138.825 506.625,-148 520.8,-148"/>
</g>
<!-- nd67 -->
<g id="node16" class="node"><title>nd67</title>
<g id="a_node16"><a xlink:title="nd67&#45;IfGraph">
<ellipse fill="none" stroke="#000000" cx="127.1" cy="-138" rx="14.5" ry="14.5"/>
<text text-anchor="middle" x="127.1" y="-134.3" font-family="Times,serif" font-size="14.00">if</text>
</a>
</g>
</g>
<!-- nd66&#45;&gt;nd67 -->
<g id="edge28" class="edge"><title>nd66:e&#45;&gt;nd67:w</title>
<path fill="none" stroke="black" d="M95.6,-160C107.957,-160 100.243,-138 112.6,-138"/>
</g>
<!-- nd125 -->
<g id="node27" class="node"><title>nd125</title>
<g id="a_node27"><a xlink:title="nd125&#45;ContractGraph">
<ellipse fill="black" stroke="black" cx="370.1" cy="-141" rx="1.8" ry="1.8"/>
</a>
</g>
</g>
<!-- nd66&#45;&gt;nd125 -->
<g id="edge29" class="edge"><title>nd66:n&#45;&gt;nd125:ne</title>
<path fill="none" stroke="grey" d="M81.1,-176C81.1,-196.396 105.704,-185 126.1,-185 126.1,-185 126.1,-185 314.1,-185 345.48,-185 392.289,-164.189 370.1,-142"/>
<text text-anchor="middle" x="224.1" y="-188.8" font-family="Times,serif" font-size="14.00">y</text>
</g>
<!-- nd68 -->
<g id="node17" class="node"><title>nd68</title>
<g id="a_node17"><a xlink:title="nd68&#45;AppGraph">
<path fill="none" stroke="#000000" d="M216.547,-238.054C216.547,-238.054 212.672,-232.446 212.672,-232.446 211.136,-230.223 211.136,-225.777 212.672,-223.554 212.672,-223.554 216.547,-217.946 216.547,-217.946 218.083,-215.723 222.321,-213.502 225.023,-213.505 225.023,-213.505 230.427,-213.509 230.427,-213.509 233.129,-213.511 235.831,-216.215 235.831,-218.917 235.831,-218.917 235.831,-237.083 235.831,-237.083 235.831,-239.785 233.129,-242.489 230.427,-242.491 230.427,-242.491 225.023,-242.495 225.023,-242.495 222.321,-242.498 218.083,-240.277 216.547,-238.054"/>
<text text-anchor="middle" x="224.1" y="-224.3" font-family="Times,serif" font-size="14.00">@</text>
</a>
</g>
</g>
<!-- nd67&#45;&gt;nd68 -->
<g id="edge22" class="edge"><title>nd67:n&#45;&gt;nd68:w</title>
<path fill="none" stroke="black" d="M127.1,-154C127.1,-203.256 160.344,-228 209.6,-228"/>
<text text-anchor="middle" x="175.6" y="-230.8" font-family="Times,serif" font-size="14.00">condition</text>
</g>
<!-- nd84 -->
<g id="node19" class="node"><title>nd84</title>
<g id="a_node19"><a xlink:title="nd84&#45;AppGraph">
<path fill="none" stroke="#000000" d="M216.547,-108.054C216.547,-108.054 212.672,-102.446 212.672,-102.446 211.136,-100.223 211.136,-95.7771 212.672,-93.5543 212.672,-93.5543 216.547,-87.9457 216.547,-87.9457 218.083,-85.7229 222.321,-83.5023 225.023,-83.5045 225.023,-83.5045 230.427,-83.509 230.427,-83.509 233.129,-83.5113 235.831,-86.2155 235.831,-88.9174 235.831,-88.9174 235.831,-107.083 235.831,-107.083 235.831,-109.785 233.129,-112.489 230.427,-112.491 230.427,-112.491 225.023,-112.495 225.023,-112.495 222.321,-112.498 218.083,-110.277 216.547,-108.054"/>
<text text-anchor="middle" x="224.1" y="-94.3" font-family="Times,serif" font-size="14.00">@</text>
</a>
</g>
</g>
<!-- nd67&#45;&gt;nd84 -->
<g id="edge23" class="edge"><title>nd67:s&#45;&gt;nd84:w</title>
<path fill="none" stroke="grey" d="M127.1,-122C127.1,-95.7033 179.668,-98 209.6,-98"/>
<text text-anchor="middle" x="175.6" y="-104.8" font-family="Times,serif" font-size="14.00">is false</text>
</g>
<!-- nd67&#45;&gt;nd125 -->
<g id="edge25" class="edge"><title>nd67:e&#45;&gt;nd125:w</title>
<path fill="none" stroke="grey" d="M141.6,-138C241.831,-138 266.869,-141 367.1,-141"/>
<text text-anchor="middle" x="263.6" y="-143.8" font-family="Times,serif" font-size="14.00">is true</text>
</g>
<!-- ndcluster_nd70 -->
<g id="node18" class="node"><title>ndcluster_nd70</title>
<g id="a_node18"><a xlink:title="nd70">
<ellipse fill="orange" stroke="orange" cx="313.1" cy="-237" rx="1.8" ry="1.8"/>
</a>
</g>
</g>
<!-- nd68&#45;&gt;ndcluster_nd70 -->
<g id="edge12" class="edge"><title>nd68:e&#45;&gt;ndcluster_nd70:w</title>
<path fill="none" stroke="black" d="M237.1,-228C269.79,-228 277.41,-237 310.1,-237"/>
</g>
<!-- nd126 -->
<g id="node28" class="node"><title>nd126</title>
<g id="a_node28"><a xlink:title="nd126&#45;ContractGraph">
<ellipse fill="black" stroke="black" cx="450" cy="-169" rx="1.8" ry="1.8"/>
</a>
</g>
</g>
<!-- nd68&#45;&gt;nd126 -->
<g id="edge26" class="edge"><title>nd68:s&#45;&gt;nd126:w</title>
<path fill="none" stroke="black" d="M224.1,-212C224.1,-192.444 292.544,-212 312.1,-212 312.1,-212 312.1,-212 417.4,-212 440.908,-212 424.692,-169 448.2,-169"/>
</g>
<!-- nd85 -->
<g id="node20" class="node"><title>nd85</title>
<g id="a_node20"><a xlink:title="nd85&#45;AppGraph">
<path fill="none" stroke="#000000" d="M305.547,-108.054C305.547,-108.054 301.672,-102.446 301.672,-102.446 300.136,-100.223 300.136,-95.7771 301.672,-93.5543 301.672,-93.5543 305.547,-87.9457 305.547,-87.9457 307.083,-85.7229 311.321,-83.5023 314.023,-83.5045 314.023,-83.5045 319.427,-83.509 319.427,-83.509 322.129,-83.5113 324.831,-86.2155 324.831,-88.9174 324.831,-88.9174 324.831,-107.083 324.831,-107.083 324.831,-109.785 322.129,-112.489 319.427,-112.491 319.427,-112.491 314.023,-112.495 314.023,-112.495 311.321,-112.498 307.083,-110.277 305.547,-108.054"/>
<text text-anchor="middle" x="313.1" y="-94.3" font-family="Times,serif" font-size="14.00">@</text>
</a>
</g>
</g>
<!-- nd84&#45;&gt;nd85 -->
<g id="edge18" class="edge"><title>nd84:e&#45;&gt;nd85:w</title>
<path fill="none" stroke="black" d="M237.1,-98C263.767,-98 270.433,-98 297.1,-98"/>
</g>
<!-- nd105 -->
<g id="node23" class="node"><title>nd105</title>
<g id="a_node23"><a xlink:title="nd105&#45;BinOpGraph">
<ellipse fill="none" stroke="#000000" cx="313.1" cy="-56" rx="14.5" ry="14.5"/>
<text text-anchor="middle" x="313.1" y="-52.3" font-family="Times,serif" font-size="14.00">+</text>
</a>
</g>
</g>
<!-- nd84&#45;&gt;nd105 -->
<g id="edge19" class="edge"><title>nd84:s&#45;&gt;nd105:w</title>
<path fill="none" stroke="black" d="M224.1,-82C224.1,-47.5591 262.659,-56 297.1,-56"/>
</g>
<!-- nd85&#45;&gt;nd136 -->
<g id="edge14" class="edge"><title>nd85:e&#45;&gt;nd136:w</title>
<path fill="none" stroke="black" d="M326.1,-98C342.205,-98 341.995,-115 358.1,-115"/>
</g>
<!-- nd89 -->
<g id="node21" class="node"><title>nd89</title>
<g id="a_node21"><a xlink:title="nd89&#45;AppGraph">
<path fill="none" stroke="#000000" d="M362.547,-86.0543C362.547,-86.0543 358.672,-80.4457 358.672,-80.4457 357.136,-78.2229 357.136,-73.7771 358.672,-71.5543 358.672,-71.5543 362.547,-65.9457 362.547,-65.9457 364.083,-63.7229 368.321,-61.5023 371.023,-61.5045 371.023,-61.5045 376.427,-61.509 376.427,-61.509 379.129,-61.5113 381.831,-64.2155 381.831,-66.9174 381.831,-66.9174 381.831,-85.0826 381.831,-85.0826 381.831,-87.7845 379.129,-90.4887 376.427,-90.491 376.427,-90.491 371.023,-90.4955 371.023,-90.4955 368.321,-90.4977 364.083,-88.2771 362.547,-86.0543"/>
<text text-anchor="middle" x="370.1" y="-72.3" font-family="Times,serif" font-size="14.00">@</text>
</a>
</g>
</g>
<!-- nd85&#45;&gt;nd89 -->
<g id="edge15" class="edge"><title>nd85:s&#45;&gt;nd89:w</title>
<path fill="none" stroke="black" d="M313.1,-82C313.1,-79.6155 353.215,-76 355.6,-76"/>
</g>
<!-- ndcluster_nd91 -->
<g id="node22" class="node"><title>ndcluster_nd91</title>
<g id="a_node22"><a xlink:title="nd91">
<ellipse fill="orange" stroke="orange" cx="416.4" cy="-81" rx="1.8" ry="1.8"/>
</a>
</g>
</g>
<!-- nd89&#45;&gt;ndcluster_nd91 -->
<g id="edge13" class="edge"><title>nd89:e&#45;&gt;ndcluster_nd91:w</title>
<path fill="none" stroke="black" d="M383.1,-76C396.749,-76 399.751,-81 413.4,-81"/>
</g>
<!-- nd123 -->
<g id="node26" class="node"><title>nd123</title>
<g id="a_node26"><a xlink:title="nd123&#45;ContractGraph">
<ellipse fill="black" stroke="black" cx="416.4" cy="-61" rx="1.8" ry="1.8"/>
</a>
</g>
</g>
<!-- nd89&#45;&gt;nd123 -->
<g id="edge21" class="edge"><title>nd89:s&#45;&gt;nd123:w</title>
<path fill="none" stroke="black" d="M370.1,-60C370.1,-50.3752 403.775,-61 413.4,-61"/>
</g>
<!-- nd108 -->
<g id="node24" class="node"><title>nd108</title>
<g id="a_node24"><a xlink:title="nd108&#45;AppGraph">
<path fill="none" stroke="#000000" d="M362.547,-44.0543C362.547,-44.0543 358.672,-38.4457 358.672,-38.4457 357.136,-36.2229 357.136,-31.7771 358.672,-29.5543 358.672,-29.5543 362.547,-23.9457 362.547,-23.9457 364.083,-21.7229 368.321,-19.5023 371.023,-19.5045 371.023,-19.5045 376.427,-19.509 376.427,-19.509 379.129,-19.5113 381.831,-22.2155 381.831,-24.9174 381.831,-24.9174 381.831,-43.0826 381.831,-43.0826 381.831,-45.7845 379.129,-48.4887 376.427,-48.491 376.427,-48.491 371.023,-48.4955 371.023,-48.4955 368.321,-48.4977 364.083,-46.2771 362.547,-44.0543"/>
<text text-anchor="middle" x="370.1" y="-30.3" font-family="Times,serif" font-size="14.00">@</text>
</a>
</g>
</g>
<!-- nd105&#45;&gt;nd108 -->
<g id="edge17" class="edge"><title>nd105:s&#45;&gt;nd108:w</title>
<path fill="none" stroke="black" d="M313.1,-40C313.1,-20.9238 336.524,-34 355.6,-34"/>
</g>
<!-- nd105&#45;&gt;nd125 -->
<g id="edge24" class="edge"><title>nd105:n&#45;&gt;nd125:w</title>
<path fill="none" stroke="black" d="M313.1,-72C313.1,-83.68 330.245,-69.1571 338.9,-77 361.933,-97.8718 336.017,-141 367.1,-141"/>
</g>
<!-- ndcluster_nd110 -->
<g id="node25" class="node"><title>ndcluster_nd110</title>
<g id="a_node25"><a xlink:title="nd110">
<ellipse fill="orange" stroke="orange" cx="416.4" cy="-18" rx="1.8" ry="1.8"/>
</a>
</g>
</g>
<!-- nd108&#45;&gt;ndcluster_nd110 -->
<g id="edge16" class="edge"><title>nd108:e&#45;&gt;ndcluster_nd110:w</title>
<path fill="none" stroke="black" d="M383.1,-34C398.329,-34 398.171,-18 413.4,-18"/>
</g>
<!-- nd108&#45;&gt;nd123 -->
<g id="edge20" class="edge"><title>nd108:s&#45;&gt;nd123:w</title>
<path fill="none" stroke="black" d="M370.1,-18C370.1,-11.5402 379.246,-15.3859 384.6,-19 403.36,-31.6629 390.766,-61 413.4,-61"/>
</g>
<!-- nd123&#45;&gt;nd126 -->
<g id="edge27" class="edge"><title>nd123:e&#45;&gt;nd126:w</title>
<path fill="none" stroke="black" d="M419.4,-61C425.498,-61 427.752,-62.9709 431.2,-68 444.071,-86.7711 425.44,-169 448.2,-169"/>
</g>
<!-- nd126&#45;&gt;nd200 -->
<g id="edge30" class="edge"><title>nd126:e&#45;&gt;nd200:w</title>
<path fill="none" stroke="black" d="M451.8,-169C462.022,-169 464.578,-169 474.8,-169"/>
<text text-anchor="middle" x="463.3" y="-172.8" font-family="Times,serif" font-size="14.00">x</text>
</g>
</g>
</svg>
