<?xml version="1.0" encoding="UTF-8" standalone="no"?>
<!DOCTYPE svg PUBLIC "-//W3C//DTD SVG 1.1//EN"
 "http://www.w3.org/Graphics/SVG/1.1/DTD/svg11.dtd">
<!-- Generated by graphviz version 2.38.0 (20140413.2041)
 -->
<!-- Title: G Pages: 1 -->
<svg width="471pt" height="269pt"
 viewBox="0.00 0.00 471.20 269.00" xmlns="http://www.w3.org/2000/svg" xmlns:xlink="http://www.w3.org/1999/xlink">
<g id="graph0" class="graph" transform="scale(1 1) rotate(0) translate(4 265)">
<title>G</title>
<polygon fill="white" stroke="none" points="-4,4 -4,-265 467.2,-265 467.2,4 -4,4"/>
<g id="clust1" class="cluster"><title>cluster_nd395</title>
<polygon fill="none" stroke="orange" points="320.3,-160 320.3,-180 339.9,-180 339.9,-160 320.3,-160"/>
</g>
<g id="clust2" class="cluster"><title>cluster_nd328</title>
<polygon fill="none" stroke="orange" points="196.3,-210 196.3,-253 246.9,-253 246.9,-210 196.3,-210"/>
<text text-anchor="middle" x="221.6" y="-237.8" font-family="Times,serif" font-size="14.00">empty</text>
</g>
<g id="clust3" class="cluster"><title>cluster_nd338</title>
<polygon fill="none" stroke="orange" points="318.3,-71 318.3,-114 341.9,-114 341.9,-71 318.3,-71"/>
<text text-anchor="middle" x="330.1" y="-98.8" font-family="Times,serif" font-size="14.00">tl</text>
</g>
<g id="clust4" class="cluster"><title>cluster_nd347</title>
<polygon fill="none" stroke="orange" points="315.3,-8 315.3,-51 344.9,-51 344.9,-8 315.3,-8"/>
<text text-anchor="middle" x="330.1" y="-35.8" font-family="Times,serif" font-size="14.00">hd</text>
</g>
<!-- nd1 -->
<g id="node1" class="node"><title>nd1</title>
<ellipse fill="black" stroke="black" cx="1.8" cy="-159" rx="1.8" ry="1.8"/>
</g>
<!-- nd324 -->
<g id="node8" class="node"><title>nd324</title>
<g id="a_node8"><a xlink:title="nd324&#45;IfGraph">
<ellipse fill="none" stroke="#000000" cx="35.1" cy="-159" rx="14.5" ry="14.5"/>
<text text-anchor="middle" x="35.1" y="-155.3" font-family="Times,serif" font-size="14.00">if</text>
</a>
</g>
</g>
<!-- nd1&#45;&gt;nd324 -->
<g id="edge19" class="edge"><title>nd1:e&#45;&gt;nd324:w</title>
<path fill="none" stroke="red" d="M3.6,-159C6.43333,-159 8.46979,-159 10.307,-159"/>
<polygon fill="red" stroke="red" points="10.6,-162.5 20.6,-159 10.6,-155.5 10.6,-162.5"/>
</g>
<!-- nd34 -->
<g id="node2" class="node"><title>nd34</title>
<g id="a_node2"><a xlink:title="nd34&#45;ConstGraph">
<path fill="none" stroke="purple" d="M443.867,-192.5C443.867,-192.5 453.533,-192.5 453.533,-192.5 458.367,-192.5 463.2,-187.667 463.2,-182.833 463.2,-182.833 463.2,-173.167 463.2,-173.167 463.2,-168.333 458.367,-163.5 453.533,-163.5 453.533,-163.5 443.867,-163.5 443.867,-163.5 439.033,-163.5 434.2,-168.333 434.2,-173.167 434.2,-173.167 434.2,-182.833 434.2,-182.833 434.2,-187.667 439.033,-192.5 443.867,-192.5"/>
<text text-anchor="middle" x="448.7" y="-174.3" font-family="Times,serif" font-size="14.00">4</text>
</a>
</g>
</g>
<!-- nd39 -->
<g id="node3" class="node"><title>nd39</title>
<g id="a_node3"><a xlink:title="nd39&#45;ConstEmptyGraph">
<path fill="none" stroke="purple" d="M443.867,-150.5C443.867,-150.5 453.533,-150.5 453.533,-150.5 458.367,-150.5 463.2,-145.667 463.2,-140.833 463.2,-140.833 463.2,-131.167 463.2,-131.167 463.2,-126.333 458.367,-121.5 453.533,-121.5 453.533,-121.5 443.867,-121.5 443.867,-121.5 439.033,-121.5 434.2,-126.333 434.2,-131.167 434.2,-131.167 434.2,-140.833 434.2,-140.833 434.2,-145.667 439.033,-150.5 443.867,-150.5"/>
<text text-anchor="middle" x="448.7" y="-132.3" font-family="Times,serif" font-size="14.00">[]</text>
</a>
</g>
</g>
<!-- nd182 -->
<g id="node4" class="node"><title>nd182</title>
<g id="a_node4"><a xlink:title="nd182&#45;ConstListGraph">
<path fill="none" stroke="purple" d="M397.867,-171.5C397.867,-171.5 407.533,-171.5 407.533,-171.5 412.367,-171.5 417.2,-166.667 417.2,-161.833 417.2,-161.833 417.2,-152.167 417.2,-152.167 417.2,-147.333 412.367,-142.5 407.533,-142.5 407.533,-142.5 397.867,-142.5 397.867,-142.5 393.033,-142.5 388.2,-147.333 388.2,-152.167 388.2,-152.167 388.2,-161.833 388.2,-161.833 388.2,-166.667 393.033,-171.5 397.867,-171.5"/>
<text text-anchor="middle" x="402.7" y="-153.3" font-family="Times,serif" font-size="14.00">::</text>
</a>
</g>
</g>
<!-- nd182&#45;&gt;nd34 -->
<g id="edge1" class="edge"><title>nd182:n&#45;&gt;nd34:w</title>
<path fill="none" stroke="purple" d="M402.7,-173C402.7,-187.175 420.025,-178 434.2,-178"/>
</g>
<!-- nd182&#45;&gt;nd39 -->
<g id="edge2" class="edge"><title>nd182:s&#45;&gt;nd39:w</title>
<path fill="none" stroke="purple" d="M402.7,-141C402.7,-126.825 420.025,-136 434.2,-136"/>
</g>
<!-- nd386 -->
<g id="node5" class="node"><title>nd386</title>
<g id="a_node5"><a xlink:title="nd386&#45;ConstGraph">
<path fill="none" stroke="purple" d="M325.267,-151.5C325.267,-151.5 334.933,-151.5 334.933,-151.5 339.767,-151.5 344.6,-146.667 344.6,-141.833 344.6,-141.833 344.6,-132.167 344.6,-132.167 344.6,-127.333 339.767,-122.5 334.933,-122.5 334.933,-122.5 325.267,-122.5 325.267,-122.5 320.433,-122.5 315.6,-127.333 315.6,-132.167 315.6,-132.167 315.6,-141.833 315.6,-141.833 315.6,-146.667 320.433,-151.5 325.267,-151.5"/>
<text text-anchor="middle" x="330.1" y="-133.3" font-family="Times,serif" font-size="14.00">6</text>
</a>
</g>
</g>
<!-- nd391 -->
<g id="node6" class="node"><title>nd391</title>
<g id="a_node6"><a xlink:title="nd391&#45;RecurGraph">
<ellipse fill="none" stroke="#000000" cx="278.1" cy="-157" rx="11" ry="11"/>
<text text-anchor="middle" x="278.1" y="-153.3" font-family="Times,serif" font-size="14.00">rec</text>
</a>
</g>
</g>
<!-- ndcluster_nd395 -->
<g id="node7" class="node"><title>ndcluster_nd395</title>
<g id="a_node7"><a xlink:title="nd395">
<ellipse fill="orange" stroke="orange" cx="330.1" cy="-170" rx="1.8" ry="1.8"/>
</a>
</g>
</g>
<!-- nd391&#45;&gt;ndcluster_nd395 -->
<g id="edge22" class="edge"><title>nd391:n&#45;&gt;ndcluster_nd395:e</title>
<path fill="none" stroke="grey" d="M278.1,-169C278.1,-191.346 305.963,-171.178 328.3,-171.8 329.988,-171.847 330.644,-172.656 332.1,-171.8 332.889,-171.336 334.015,-170 333.1,-170"/>
</g>
<!-- nd391&#45;&gt;ndcluster_nd395 -->
<g id="edge23" class="edge"><title>nd391:e&#45;&gt;ndcluster_nd395:w</title>
<path fill="none" stroke="black" d="M290.1,-157C307.53,-157 309.67,-170 327.1,-170"/>
</g>
<!-- nd325 -->
<g id="node9" class="node"><title>nd325</title>
<g id="a_node9"><a xlink:title="nd325&#45;AppGraph">
<path fill="none" stroke="#000000" d="M124.547,-220.054C124.547,-220.054 120.672,-214.446 120.672,-214.446 119.136,-212.223 119.136,-207.777 120.672,-205.554 120.672,-205.554 124.547,-199.946 124.547,-199.946 126.083,-197.723 130.321,-195.502 133.023,-195.505 133.023,-195.505 138.427,-195.509 138.427,-195.509 141.129,-195.511 143.831,-198.215 143.831,-200.917 143.831,-200.917 143.831,-219.083 143.831,-219.083 143.831,-221.785 141.129,-224.489 138.427,-224.491 138.427,-224.491 133.023,-224.495 133.023,-224.495 130.321,-224.498 126.083,-222.277 124.547,-220.054"/>
<text text-anchor="middle" x="132.1" y="-206.3" font-family="Times,serif" font-size="14.00">@</text>
</a>
</g>
</g>
<!-- nd324&#45;&gt;nd325 -->
<g id="edge13" class="edge"><title>nd324:n&#45;&gt;nd325:w</title>
<path fill="none" stroke="black" d="M35.1,-175C35.1,-214.83 77.7701,-210 117.6,-210"/>
<text text-anchor="middle" x="83.6" y="-213.8" font-family="Times,serif" font-size="14.00">condition</text>
</g>
<!-- nd332 -->
<g id="node11" class="node"><title>nd332</title>
<g id="a_node11"><a xlink:title="nd332&#45;AppGraph">
<path fill="none" stroke="#000000" d="M124.547,-134.054C124.547,-134.054 120.672,-128.446 120.672,-128.446 119.136,-126.223 119.136,-121.777 120.672,-119.554 120.672,-119.554 124.547,-113.946 124.547,-113.946 126.083,-111.723 130.321,-109.502 133.023,-109.505 133.023,-109.505 138.427,-109.509 138.427,-109.509 141.129,-109.511 143.831,-112.215 143.831,-114.917 143.831,-114.917 143.831,-133.083 143.831,-133.083 143.831,-135.785 141.129,-138.489 138.427,-138.491 138.427,-138.491 133.023,-138.495 133.023,-138.495 130.321,-138.498 126.083,-136.277 124.547,-134.054"/>
<text text-anchor="middle" x="132.1" y="-120.3" font-family="Times,serif" font-size="14.00">@</text>
</a>
</g>
</g>
<!-- nd324&#45;&gt;nd332 -->
<g id="edge14" class="edge"><title>nd324:s&#45;&gt;nd332:w</title>
<path fill="none" stroke="grey" d="M35.1,-143C35.1,-126.977 69.9155,-124 117.6,-124"/>
<text text-anchor="middle" x="83.6" y="-131.8" font-family="Times,serif" font-size="14.00">is false</text>
</g>
<!-- nd352 -->
<g id="node19" class="node"><title>nd352</title>
<g id="a_node19"><a xlink:title="nd352&#45;ContractGraph">
<ellipse fill="black" stroke="black" cx="278.1" cy="-130" rx="1.8" ry="1.8"/>
</a>
</g>
</g>
<!-- nd324&#45;&gt;nd352 -->
<g id="edge16" class="edge"><title>nd324:e&#45;&gt;nd352:w</title>
<path fill="none" stroke="grey" d="M49.6,-159C137.509,-159 162.41,-169.281 246.9,-145 260.544,-141.079 260.904,-130 275.1,-130"/>
<text text-anchor="middle" x="171.6" y="-163.8" font-family="Times,serif" font-size="14.00">is true</text>
</g>
<!-- ndcluster_nd328 -->
<g id="node10" class="node"><title>ndcluster_nd328</title>
<g id="a_node10"><a xlink:title="nd328">
<ellipse fill="orange" stroke="orange" cx="221.1" cy="-220" rx="1.8" ry="1.8"/>
</a>
</g>
</g>
<!-- nd325&#45;&gt;ndcluster_nd328 -->
<g id="edge3" class="edge"><title>nd325:e&#45;&gt;ndcluster_nd328:w</title>
<path fill="none" stroke="black" d="M145.1,-210C177.847,-210 185.353,-220 218.1,-220"/>
</g>
<!-- nd353 -->
<g id="node20" class="node"><title>nd353</title>
<g id="a_node20"><a xlink:title="nd353&#45;ContractGraph">
<ellipse fill="black" stroke="black" cx="363.4" cy="-157" rx="1.8" ry="1.8"/>
</a>
</g>
</g>
<!-- nd325&#45;&gt;nd353 -->
<g id="edge17" class="edge"><title>nd325:s&#45;&gt;nd353:w</title>
<path fill="none" stroke="black" d="M132.1,-194C132.1,-154.886 180.986,-195 220.1,-195 220.1,-195 220.1,-195 331.1,-195 339.228,-195 339.584,-189.148 344.9,-183 353.883,-172.612 347.866,-157 361.6,-157"/>
</g>
<!-- nd333 -->
<g id="node12" class="node"><title>nd333</title>
<g id="a_node12"><a xlink:title="nd333&#45;AppGraph">
<path fill="none" stroke="#000000" d="M213.547,-134.054C213.547,-134.054 209.672,-128.446 209.672,-128.446 208.136,-126.223 208.136,-121.777 209.672,-119.554 209.672,-119.554 213.547,-113.946 213.547,-113.946 215.083,-111.723 219.321,-109.502 222.023,-109.505 222.023,-109.505 227.427,-109.509 227.427,-109.509 230.129,-109.511 232.831,-112.215 232.831,-114.917 232.831,-114.917 232.831,-133.083 232.831,-133.083 232.831,-135.785 230.129,-138.489 227.427,-138.491 227.427,-138.491 222.023,-138.495 222.023,-138.495 219.321,-138.498 215.083,-136.277 213.547,-134.054"/>
<text text-anchor="middle" x="221.1" y="-120.3" font-family="Times,serif" font-size="14.00">@</text>
</a>
</g>
</g>
<!-- nd332&#45;&gt;nd333 -->
<g id="edge9" class="edge"><title>nd332:e&#45;&gt;nd333:w</title>
<path fill="none" stroke="black" d="M145.1,-124C171.767,-124 178.433,-124 205.1,-124"/>
</g>
<!-- nd343 -->
<g id="node15" class="node"><title>nd343</title>
<g id="a_node15"><a xlink:title="nd343&#45;BinOpGraph">
<ellipse fill="none" stroke="#000000" cx="221.1" cy="-75" rx="14.5" ry="14.5"/>
<text text-anchor="middle" x="221.1" y="-71.3" font-family="Times,serif" font-size="14.00">+</text>
</a>
</g>
</g>
<!-- nd332&#45;&gt;nd343 -->
<g id="edge10" class="edge"><title>nd332:s&#45;&gt;nd343:w</title>
<path fill="none" stroke="black" d="M132.1,-108C132.1,-72.3945 169.494,-75 205.1,-75"/>
</g>
<!-- nd333&#45;&gt;nd391 -->
<g id="edge5" class="edge"><title>nd333:e&#45;&gt;nd391:w</title>
<path fill="none" stroke="black" d="M234.1,-124C254.53,-124 245.67,-157 266.1,-157"/>
</g>
<!-- nd335 -->
<g id="node13" class="node"><title>nd335</title>
<g id="a_node13"><a xlink:title="nd335&#45;AppGraph">
<path fill="none" stroke="#000000" d="M270.547,-102.054C270.547,-102.054 266.672,-96.4457 266.672,-96.4457 265.136,-94.2229 265.136,-89.7771 266.672,-87.5543 266.672,-87.5543 270.547,-81.9457 270.547,-81.9457 272.083,-79.7229 276.321,-77.5023 279.023,-77.5045 279.023,-77.5045 284.427,-77.509 284.427,-77.509 287.129,-77.5113 289.831,-80.2155 289.831,-82.9174 289.831,-82.9174 289.831,-101.083 289.831,-101.083 289.831,-103.785 287.129,-106.489 284.427,-106.491 284.427,-106.491 279.023,-106.495 279.023,-106.495 276.321,-106.498 272.083,-104.277 270.547,-102.054"/>
<text text-anchor="middle" x="278.1" y="-88.3" font-family="Times,serif" font-size="14.00">@</text>
</a>
</g>
</g>
<!-- nd333&#45;&gt;nd335 -->
<g id="edge6" class="edge"><title>nd333:s&#45;&gt;nd335:w</title>
<path fill="none" stroke="black" d="M221.1,-108C221.1,-102.954 258.554,-92 263.6,-92"/>
</g>
<!-- ndcluster_nd338 -->
<g id="node14" class="node"><title>ndcluster_nd338</title>
<g id="a_node14"><a xlink:title="nd338">
<ellipse fill="orange" stroke="orange" cx="330.1" cy="-81" rx="1.8" ry="1.8"/>
</a>
</g>
</g>
<!-- nd335&#45;&gt;ndcluster_nd338 -->
<g id="edge4" class="edge"><title>nd335:e&#45;&gt;ndcluster_nd338:w</title>
<path fill="none" stroke="black" d="M291.1,-92C307.83,-92 310.37,-81 327.1,-81"/>
</g>
<!-- nd351 -->
<g id="node18" class="node"><title>nd351</title>
<g id="a_node18"><a xlink:title="nd351&#45;ContractGraph">
<ellipse fill="black" stroke="black" cx="330.1" cy="-61" rx="1.8" ry="1.8"/>
</a>
</g>
</g>
<!-- nd335&#45;&gt;nd351 -->
<g id="edge12" class="edge"><title>nd335:s&#45;&gt;nd351:w</title>
<path fill="none" stroke="black" d="M278.1,-76C278.1,-75.2883 326.388,-61 327.1,-61"/>
</g>
<!-- nd344 -->
<g id="node16" class="node"><title>nd344</title>
<g id="a_node16"><a xlink:title="nd344&#45;AppGraph">
<path fill="none" stroke="#000000" d="M270.547,-60.0543C270.547,-60.0543 266.672,-54.4457 266.672,-54.4457 265.136,-52.2229 265.136,-47.7771 266.672,-45.5543 266.672,-45.5543 270.547,-39.9457 270.547,-39.9457 272.083,-37.7229 276.321,-35.5023 279.023,-35.5045 279.023,-35.5045 284.427,-35.509 284.427,-35.509 287.129,-35.5113 289.831,-38.2155 289.831,-40.9174 289.831,-40.9174 289.831,-59.0826 289.831,-59.0826 289.831,-61.7845 287.129,-64.4887 284.427,-64.491 284.427,-64.491 279.023,-64.4955 279.023,-64.4955 276.321,-64.4977 272.083,-62.2771 270.547,-60.0543"/>
<text text-anchor="middle" x="278.1" y="-46.3" font-family="Times,serif" font-size="14.00">@</text>
</a>
</g>
</g>
<!-- nd343&#45;&gt;nd344 -->
<g id="edge8" class="edge"><title>nd343:s&#45;&gt;nd344:w</title>
<path fill="none" stroke="black" d="M221.1,-59C221.1,-39.6922 244.292,-50 263.6,-50"/>
</g>
<!-- nd343&#45;&gt;nd352 -->
<g id="edge15" class="edge"><title>nd343:n&#45;&gt;nd352:w</title>
<path fill="none" stroke="black" d="M221.1,-91C221.1,-103.646 236.459,-95.8645 246.9,-103 261.226,-112.791 257.748,-130 275.1,-130"/>
</g>
<!-- ndcluster_nd347 -->
<g id="node17" class="node"><title>ndcluster_nd347</title>
<g id="a_node17"><a xlink:title="nd347">
<ellipse fill="orange" stroke="orange" cx="330.1" cy="-18" rx="1.8" ry="1.8"/>
</a>
</g>
</g>
<!-- nd344&#45;&gt;ndcluster_nd347 -->
<g id="edge7" class="edge"><title>nd344:e&#45;&gt;ndcluster_nd347:w</title>
<path fill="none" stroke="black" d="M291.1,-50C312.507,-50 305.693,-18 327.1,-18"/>
</g>
<!-- nd344&#45;&gt;nd351 -->
<g id="edge11" class="edge"><title>nd344:s&#45;&gt;nd351:w</title>
<path fill="none" stroke="black" d="M278.1,-34C278.1,-27.5402 286.608,-32.5867 292.6,-35 310.41,-42.173 307.9,-61 327.1,-61"/>
</g>
<!-- nd351&#45;&gt;nd353 -->
<g id="edge18" class="edge"><title>nd351:e&#45;&gt;nd353:w</title>
<path fill="none" stroke="black" d="M333.1,-61C339.198,-61 341.405,-63.0035 344.9,-68 356.435,-84.4888 341.477,-157 361.6,-157"/>
</g>
<!-- nd352&#45;&gt;nd386 -->
<g id="edge20" class="edge"><title>nd352:e&#45;&gt;nd386:w</title>
<path fill="none" stroke="black" d="M281.1,-130C292.911,-130 296.409,-128.222 307.6,-132 311.466,-133.305 311.22,-137 315.3,-137"/>
<text text-anchor="middle" x="304.1" y="-136.8" font-family="Times,serif" font-size="14.00">y</text>
</g>
<!-- nd353&#45;&gt;nd182 -->
<g id="edge21" class="edge"><title>nd353:e&#45;&gt;nd182:w</title>
<path fill="none" stroke="black" d="M365.2,-157C375.422,-157 377.978,-157 388.2,-157"/>
<text text-anchor="middle" x="376.7" y="-160.8" font-family="Times,serif" font-size="14.00">x</text>
</g>
</g>
</svg>
