<?xml version="1.0" encoding="UTF-8" standalone="no"?>
<!DOCTYPE svg PUBLIC "-//W3C//DTD SVG 1.1//EN"
 "http://www.w3.org/Graphics/SVG/1.1/DTD/svg11.dtd">
<!-- Generated by graphviz version 2.38.0 (20140413.2041)
 -->
<!-- Title: G Pages: 1 -->
<svg width="381pt" height="194pt"
 viewBox="0.00 0.00 380.60 193.50" xmlns="http://www.w3.org/2000/svg" xmlns:xlink="http://www.w3.org/1999/xlink">
<g id="graph0" class="graph" transform="scale(1 1) rotate(0) translate(4 189.5)">
<title>G</title>
<polygon fill="white" stroke="none" points="-4,4 -4,-189.5 376.6,-189.5 376.6,4 -4,4"/>
<g id="clust1" class="cluster"><title>cluster_nd60</title>
<polygon fill="none" stroke="orange" points="164.3,-135.5 164.3,-155.5 183.9,-155.5 183.9,-135.5 164.3,-135.5"/>
</g>
<g id="clust2" class="cluster"><title>cluster_nd140</title>
<polygon fill="none" stroke="orange" points="256.3,-157.5 256.3,-177.5 275.9,-177.5 275.9,-157.5 256.3,-157.5"/>
</g>
<!-- nd1 -->
<g id="node1" class="node"><title>nd1</title>
<ellipse fill="black" stroke="black" cx="1.8" cy="-115.5" rx="1.8" ry="1.8"/>
</g>
<!-- nd7 -->
<g id="node5" class="node"><title>nd7</title>
<g id="a_node5"><a xlink:title="nd7&#45;AppGraph">
<path fill="none" stroke="#000000" d="M27.5473,-125.554C27.5473,-125.554 23.6719,-119.946 23.6719,-119.946 22.136,-117.723 22.136,-113.277 23.6719,-111.054 23.6719,-111.054 27.5473,-105.446 27.5473,-105.446 29.0833,-103.223 33.3212,-101.002 36.0231,-101.005 36.0231,-101.005 41.4269,-101.009 41.4269,-101.009 44.1288,-101.011 46.8307,-103.715 46.8307,-106.417 46.8307,-106.417 46.8307,-124.583 46.8307,-124.583 46.8307,-127.285 44.1288,-129.989 41.4269,-129.991 41.4269,-129.991 36.0231,-129.995 36.0231,-129.995 33.3212,-129.998 29.0833,-127.777 27.5473,-125.554"/>
<text text-anchor="middle" x="35.1" y="-111.8" font-family="Times,serif" font-size="14.00">@</text>
</a>
</g>
</g>
<!-- nd1&#45;&gt;nd7 -->
<g id="edge13" class="edge"><title>nd1:e&#45;&gt;nd7:w</title>
<path fill="none" stroke="#b70000" d="M3.6,-115.5C11.1556,-115.5 13.0444,-115.5 20.6,-115.5"/>
</g>
<!-- ndcluster_nd60 -->
<g id="node2" class="node"><title>ndcluster_nd60</title>
<g id="a_node2"><a xlink:title="nd60">
<ellipse fill="orange" stroke="orange" cx="174.1" cy="-145.5" rx="1.8" ry="1.8"/>
</a>
</g>
</g>
<!-- nd136 -->
<g id="node3" class="node"><title>nd136</title>
<g id="a_node3"><a xlink:title="nd136&#45;RecurGraph">
<ellipse fill="none" stroke="#000000" cx="220.1" cy="-161.5" rx="11" ry="11"/>
<text text-anchor="middle" x="220.1" y="-157.8" font-family="Times,serif" font-size="14.00">rec</text>
</a>
</g>
</g>
<!-- ndcluster_nd60&#45;&gt;nd136 -->
<g id="edge14" class="edge"><title>ndcluster_nd60:e&#45;&gt;nd136:w</title>
<path fill="none" stroke="black" d="M177.1,-145.5C192.605,-145.5 192.595,-161.5 208.1,-161.5"/>
</g>
<!-- ndcluster_nd140 -->
<g id="node4" class="node"><title>ndcluster_nd140</title>
<g id="a_node4"><a xlink:title="nd140">
<ellipse fill="orange" stroke="orange" cx="266.1" cy="-167.5" rx="1.8" ry="1.8"/>
</a>
</g>
</g>
<!-- nd136&#45;&gt;ndcluster_nd140 -->
<g id="edge15" class="edge"><title>nd136:n&#45;&gt;ndcluster_nd140:e</title>
<path fill="none" stroke="grey" d="M220.1,-173.5C220.1,-194.915 250.135,-180.955 268.1,-169.3 268.868,-168.802 270.015,-167.5 269.1,-167.5"/>
</g>
<!-- nd136&#45;&gt;ndcluster_nd140 -->
<g id="edge16" class="edge"><title>nd136:e&#45;&gt;ndcluster_nd140:w</title>
<path fill="none" stroke="black" d="M232.1,-161.5C246.133,-161.5 249.067,-167.5 263.1,-167.5"/>
</g>
<!-- nd8 -->
<g id="node6" class="node"><title>nd8</title>
<g id="a_node6"><a xlink:title="nd8&#45;AppGraph">
<path fill="none" stroke="#000000" d="M73.5473,-145.554C73.5473,-145.554 69.6719,-139.946 69.6719,-139.946 68.136,-137.723 68.136,-133.277 69.6719,-131.054 69.6719,-131.054 73.5473,-125.446 73.5473,-125.446 75.0833,-123.223 79.3212,-121.002 82.0231,-121.005 82.0231,-121.005 87.4269,-121.009 87.4269,-121.009 90.1288,-121.011 92.8307,-123.715 92.8307,-126.417 92.8307,-126.417 92.8307,-144.583 92.8307,-144.583 92.8307,-147.285 90.1288,-149.989 87.4269,-149.991 87.4269,-149.991 82.0231,-149.995 82.0231,-149.995 79.3212,-149.998 75.0833,-147.777 73.5473,-145.554"/>
<text text-anchor="middle" x="81.1" y="-131.8" font-family="Times,serif" font-size="14.00">@</text>
</a>
</g>
</g>
<!-- nd7&#45;&gt;nd8 -->
<g id="edge11" class="edge"><title>nd7:e&#45;&gt;nd8:w</title>
<path fill="none" stroke="#b70000" d="M48.1,-115.5C60.2086,-115.5 54.4914,-135.5 66.6,-135.5"/>
</g>
<!-- nd50 -->
<g id="node14" class="node"><title>nd50</title>
<g id="a_node14"><a xlink:title="nd50&#45;ConstGraph">
<path fill="none" stroke="purple" d="M76.2667,-108C76.2667,-108 85.9333,-108 85.9333,-108 90.7667,-108 95.6,-103.167 95.6,-98.3333 95.6,-98.3333 95.6,-88.6667 95.6,-88.6667 95.6,-83.8333 90.7667,-79 85.9333,-79 85.9333,-79 76.2667,-79 76.2667,-79 71.4333,-79 66.6,-83.8333 66.6,-88.6667 66.6,-88.6667 66.6,-98.3333 66.6,-98.3333 66.6,-103.167 71.4333,-108 76.2667,-108"/>
<text text-anchor="middle" x="81.1" y="-89.8" font-family="Times,serif" font-size="14.00">0</text>
</a>
</g>
</g>
<!-- nd7&#45;&gt;nd50 -->
<g id="edge12" class="edge"><title>nd7:s&#45;&gt;nd50:w</title>
<path fill="none" stroke="black" d="M35.1,-99.5C35.1,-85.2483 52.3483,-93.5 66.6,-93.5"/>
</g>
<!-- nd8&#45;&gt;ndcluster_nd60 -->
<g id="edge9" class="edge"><title>nd8:e&#45;&gt;ndcluster_nd60:w</title>
<path fill="none" stroke="black" d="M94.1,-135.5C128.61,-135.5 136.59,-145.5 171.1,-145.5"/>
<text text-anchor="middle" x="127.6" y="-147.3" font-family="Times,serif" font-size="14.00">sum_tail</text>
</g>
<!-- nd12 -->
<g id="node7" class="node"><title>nd12</title>
<g id="a_node7"><a xlink:title="nd12&#45;BinOpGraph">
<ellipse fill="none" stroke="#000000" cx="174.1" cy="-107.5" rx="14.5" ry="14.5"/>
<text text-anchor="middle" x="174.1" y="-103.8" font-family="Times,serif" font-size="14.00">::</text>
</a>
</g>
</g>
<!-- nd8&#45;&gt;nd12 -->
<g id="edge10" class="edge"><title>nd8:s&#45;&gt;nd12:w</title>
<path fill="none" stroke="#b70000" d="M81.1,-119.5C81.1,-115.088 155.188,-107.5 159.6,-107.5"/>
</g>
<!-- nd16 -->
<g id="node8" class="node"><title>nd16</title>
<g id="a_node8"><a xlink:title="nd16&#45;ConstGraph">
<path fill="none" stroke="purple" d="M215.267,-137C215.267,-137 224.933,-137 224.933,-137 229.767,-137 234.6,-132.167 234.6,-127.333 234.6,-127.333 234.6,-117.667 234.6,-117.667 234.6,-112.833 229.767,-108 224.933,-108 224.933,-108 215.267,-108 215.267,-108 210.433,-108 205.6,-112.833 205.6,-117.667 205.6,-117.667 205.6,-127.333 205.6,-127.333 205.6,-132.167 210.433,-137 215.267,-137"/>
<text text-anchor="middle" x="220.1" y="-118.8" font-family="Times,serif" font-size="14.00">1</text>
</a>
</g>
</g>
<!-- nd12&#45;&gt;nd16 -->
<g id="edge7" class="edge"><title>nd12:n&#45;&gt;nd16:w</title>
<path fill="none" stroke="black" d="M174.1,-123.5C174.1,-137.507 191.593,-122.5 205.6,-122.5"/>
</g>
<!-- nd18 -->
<g id="node9" class="node"><title>nd18</title>
<g id="a_node9"><a xlink:title="nd18&#45;BinOpGraph">
<ellipse fill="none" stroke="#000000" cx="220.1" cy="-80.5" rx="14.5" ry="14.5"/>
<text text-anchor="middle" x="220.1" y="-76.8" font-family="Times,serif" font-size="14.00">::</text>
</a>
</g>
</g>
<!-- nd12&#45;&gt;nd18 -->
<g id="edge8" class="edge"><title>nd12:s&#45;&gt;nd18:w</title>
<path fill="none" stroke="#b70000" d="M174.1,-91.5C174.1,-76.6709 190.771,-80.5 205.6,-80.5"/>
</g>
<!-- nd22 -->
<g id="node10" class="node"><title>nd22</title>
<g id="a_node10"><a xlink:title="nd22&#45;ConstGraph">
<path fill="none" stroke="purple" d="M261.267,-113C261.267,-113 270.933,-113 270.933,-113 275.767,-113 280.6,-108.167 280.6,-103.333 280.6,-103.333 280.6,-93.6667 280.6,-93.6667 280.6,-88.8333 275.767,-84 270.933,-84 270.933,-84 261.267,-84 261.267,-84 256.433,-84 251.6,-88.8333 251.6,-93.6667 251.6,-93.6667 251.6,-103.333 251.6,-103.333 251.6,-108.167 256.433,-113 261.267,-113"/>
<text text-anchor="middle" x="266.1" y="-94.8" font-family="Times,serif" font-size="14.00">2</text>
</a>
</g>
</g>
<!-- nd18&#45;&gt;nd22 -->
<g id="edge5" class="edge"><title>nd18:n&#45;&gt;nd22:w</title>
<path fill="none" stroke="red" d="M229.41,-100.236C237.111,-100.268 247.435,-98.5 251.6,-98.5"/>
<polygon fill="red" stroke="red" points="230.684,-96.9757 220.1,-96.5 228.077,-103.472 230.684,-96.9757"/>
</g>
<!-- nd188 -->
<g id="node16" class="node"><title>nd188</title>
<g id="a_node16"><a xlink:title="nd188&#45;ConstListGraph">
<path fill="none" stroke="purple" d="M261.267,-71C261.267,-71 270.933,-71 270.933,-71 275.767,-71 280.6,-66.1667 280.6,-61.3333 280.6,-61.3333 280.6,-51.6667 280.6,-51.6667 280.6,-46.8333 275.767,-42 270.933,-42 270.933,-42 261.267,-42 261.267,-42 256.433,-42 251.6,-46.8333 251.6,-51.6667 251.6,-51.6667 251.6,-61.3333 251.6,-61.3333 251.6,-66.1667 256.433,-71 261.267,-71"/>
<text text-anchor="middle" x="266.1" y="-52.8" font-family="Times,serif" font-size="14.00">::</text>
</a>
</g>
</g>
<!-- nd18&#45;&gt;nd188 -->
<g id="edge6" class="edge"><title>nd18:s&#45;&gt;nd188:w</title>
<path fill="none" stroke="black" d="M220.1,-64.5C220.1,-50.0556 237.156,-56.5 251.6,-56.5"/>
</g>
<!-- nd28 -->
<g id="node11" class="node"><title>nd28</title>
<g id="a_node11"><a xlink:title="nd28&#45;ConstGraph">
<path fill="none" stroke="purple" d="M307.267,-92C307.267,-92 316.933,-92 316.933,-92 321.767,-92 326.6,-87.1667 326.6,-82.3333 326.6,-82.3333 326.6,-72.6667 326.6,-72.6667 326.6,-67.8333 321.767,-63 316.933,-63 316.933,-63 307.267,-63 307.267,-63 302.433,-63 297.6,-67.8333 297.6,-72.6667 297.6,-72.6667 297.6,-82.3333 297.6,-82.3333 297.6,-87.1667 302.433,-92 307.267,-92"/>
<text text-anchor="middle" x="312.1" y="-73.8" font-family="Times,serif" font-size="14.00">3</text>
</a>
</g>
</g>
<!-- nd34 -->
<g id="node12" class="node"><title>nd34</title>
<g id="a_node12"><a xlink:title="nd34&#45;ConstGraph">
<path fill="none" stroke="purple" d="M353.267,-71C353.267,-71 362.933,-71 362.933,-71 367.767,-71 372.6,-66.1667 372.6,-61.3333 372.6,-61.3333 372.6,-51.6667 372.6,-51.6667 372.6,-46.8333 367.767,-42 362.933,-42 362.933,-42 353.267,-42 353.267,-42 348.433,-42 343.6,-46.8333 343.6,-51.6667 343.6,-51.6667 343.6,-61.3333 343.6,-61.3333 343.6,-66.1667 348.433,-71 353.267,-71"/>
<text text-anchor="middle" x="358.1" y="-52.8" font-family="Times,serif" font-size="14.00">4</text>
</a>
</g>
</g>
<!-- nd39 -->
<g id="node13" class="node"><title>nd39</title>
<g id="a_node13"><a xlink:title="nd39&#45;ConstEmptyGraph">
<path fill="none" stroke="purple" d="M353.267,-29C353.267,-29 362.933,-29 362.933,-29 367.767,-29 372.6,-24.1667 372.6,-19.3333 372.6,-19.3333 372.6,-9.66667 372.6,-9.66667 372.6,-4.83333 367.767,-1.77636e-15 362.933,-1.77636e-15 362.933,-1.77636e-15 353.267,-1.77636e-15 353.267,-1.77636e-15 348.433,-1.77636e-15 343.6,-4.83333 343.6,-9.66667 343.6,-9.66667 343.6,-19.3333 343.6,-19.3333 343.6,-24.1667 348.433,-29 353.267,-29"/>
<text text-anchor="middle" x="358.1" y="-10.8" font-family="Times,serif" font-size="14.00">[]</text>
</a>
</g>
</g>
<!-- nd182 -->
<g id="node15" class="node"><title>nd182</title>
<g id="a_node15"><a xlink:title="nd182&#45;ConstListGraph">
<path fill="none" stroke="purple" d="M307.267,-50C307.267,-50 316.933,-50 316.933,-50 321.767,-50 326.6,-45.1667 326.6,-40.3333 326.6,-40.3333 326.6,-30.6667 326.6,-30.6667 326.6,-25.8333 321.767,-21 316.933,-21 316.933,-21 307.267,-21 307.267,-21 302.433,-21 297.6,-25.8333 297.6,-30.6667 297.6,-30.6667 297.6,-40.3333 297.6,-40.3333 297.6,-45.1667 302.433,-50 307.267,-50"/>
<text text-anchor="middle" x="312.1" y="-31.8" font-family="Times,serif" font-size="14.00">::</text>
</a>
</g>
</g>
<!-- nd182&#45;&gt;nd34 -->
<g id="edge1" class="edge"><title>nd182:n&#45;&gt;nd34:w</title>
<path fill="none" stroke="purple" d="M312.1,-51.5C312.1,-55.0438 340.056,-56.5 343.6,-56.5"/>
</g>
<!-- nd182&#45;&gt;nd39 -->
<g id="edge2" class="edge"><title>nd182:s&#45;&gt;nd39:w</title>
<path fill="none" stroke="purple" d="M312.1,-19.5C312.1,-5.32473 329.425,-14.5 343.6,-14.5"/>
</g>
<!-- nd188&#45;&gt;nd28 -->
<g id="edge3" class="edge"><title>nd188:n&#45;&gt;nd28:w</title>
<path fill="none" stroke="purple" d="M266.1,-72.5C266.1,-76.0438 294.056,-77.5 297.6,-77.5"/>
</g>
<!-- nd188&#45;&gt;nd182 -->
<g id="edge4" class="edge"><title>nd188:s&#45;&gt;nd182:w</title>
<path fill="none" stroke="purple" d="M266.1,-40.5C266.1,-26.3247 283.425,-35.5 297.6,-35.5"/>
</g>
</g>
</svg>
