<?xml version="1.0" encoding="UTF-8" standalone="no"?>
<!DOCTYPE svg PUBLIC "-//W3C//DTD SVG 1.1//EN"
 "http://www.w3.org/Graphics/SVG/1.1/DTD/svg11.dtd">
<!-- Generated by graphviz version 2.38.0 (20140413.2041)
 -->
<!-- Title: G Pages: 1 -->
<svg width="340pt" height="209pt"
 viewBox="0.00 0.00 339.60 208.50" xmlns="http://www.w3.org/2000/svg" xmlns:xlink="http://www.w3.org/1999/xlink">
<g id="graph0" class="graph" transform="scale(1 1) rotate(0) translate(4 204.5)">
<title>G</title>
<polygon fill="white" stroke="none" points="-4,4 -4,-204.5 335.6,-204.5 335.6,4 -4,4"/>
<g id="clust1" class="cluster"><title>cluster_nd140</title>
<polygon fill="none" stroke="orange" points="261.3,-160.5 261.3,-180.5 280.9,-180.5 280.9,-160.5 261.3,-160.5"/>
</g>
<g id="clust2" class="cluster"><title>cluster_nd64</title>
<polygon fill="none" stroke="orange" points="169.3,-156.5 169.3,-176.5 188.9,-176.5 188.9,-156.5 169.3,-156.5"/>
</g>
<!-- nd1 -->
<g id="node1" class="node"><title>nd1</title>
<ellipse fill="black" stroke="black" cx="1.8" cy="-119.5" rx="1.8" ry="1.8"/>
</g>
<!-- nd7 -->
<g id="node4" class="node"><title>nd7</title>
<g id="a_node4"><a xlink:title="nd7&#45;AppGraph">
<path fill="none" stroke="#000000" d="M27.5473,-129.554C27.5473,-129.554 23.6719,-123.946 23.6719,-123.946 22.136,-121.723 22.136,-117.277 23.6719,-115.054 23.6719,-115.054 27.5473,-109.446 27.5473,-109.446 29.0833,-107.223 33.3212,-105.002 36.0231,-105.005 36.0231,-105.005 41.4269,-105.009 41.4269,-105.009 44.1288,-105.011 46.8307,-107.715 46.8307,-110.417 46.8307,-110.417 46.8307,-128.583 46.8307,-128.583 46.8307,-131.285 44.1288,-133.989 41.4269,-133.991 41.4269,-133.991 36.0231,-133.995 36.0231,-133.995 33.3212,-133.998 29.0833,-131.777 27.5473,-129.554"/>
<text text-anchor="middle" x="35.1" y="-115.8" font-family="Times,serif" font-size="14.00">@</text>
</a>
</g>
</g>
<!-- nd1&#45;&gt;nd7 -->
<g id="edge13" class="edge"><title>nd1:e&#45;&gt;nd7:w</title>
<path fill="none" stroke="#b70000" d="M3.6,-119.5C11.1556,-119.5 13.0444,-119.5 20.6,-119.5"/>
</g>
<!-- nd136 -->
<g id="node2" class="node"><title>nd136</title>
<g id="a_node2"><a xlink:title="nd136&#45;RecurGraph">
<ellipse fill="none" stroke="#000000" cx="225.1" cy="-166.5" rx="11" ry="11"/>
<text text-anchor="middle" x="225.1" y="-162.8" font-family="Times,serif" font-size="14.00">rec</text>
</a>
</g>
</g>
<!-- ndcluster_nd140 -->
<g id="node3" class="node"><title>ndcluster_nd140</title>
<g id="a_node3"><a xlink:title="nd140">
<ellipse fill="orange" stroke="orange" cx="271.1" cy="-170.5" rx="1.8" ry="1.8"/>
</a>
</g>
</g>
<!-- nd136&#45;&gt;ndcluster_nd140 -->
<g id="edge17" class="edge"><title>nd136:n&#45;&gt;ndcluster_nd140:e</title>
<path fill="none" stroke="grey" d="M225.1,-178.5C225.1,-189.533 285.133,-170.5 274.1,-170.5"/>
</g>
<!-- nd136&#45;&gt;ndcluster_nd140 -->
<g id="edge18" class="edge"><title>nd136:e&#45;&gt;ndcluster_nd140:w</title>
<path fill="none" stroke="black" d="M237.1,-166.5C250.992,-166.5 254.208,-170.5 268.1,-170.5"/>
</g>
<!-- nd8 -->
<g id="node5" class="node"><title>nd8</title>
<g id="a_node5"><a xlink:title="nd8&#45;AppGraph">
<path fill="none" stroke="#000000" d="M73.5473,-149.554C73.5473,-149.554 69.6719,-143.946 69.6719,-143.946 68.136,-141.723 68.136,-137.277 69.6719,-135.054 69.6719,-135.054 73.5473,-129.446 73.5473,-129.446 75.0833,-127.223 79.3212,-125.002 82.0231,-125.005 82.0231,-125.005 87.4269,-125.009 87.4269,-125.009 90.1288,-125.011 92.8307,-127.715 92.8307,-130.417 92.8307,-130.417 92.8307,-148.583 92.8307,-148.583 92.8307,-151.285 90.1288,-153.989 87.4269,-153.991 87.4269,-153.991 82.0231,-153.995 82.0231,-153.995 79.3212,-153.998 75.0833,-151.777 73.5473,-149.554"/>
<text text-anchor="middle" x="81.1" y="-135.8" font-family="Times,serif" font-size="14.00">@</text>
</a>
</g>
</g>
<!-- nd7&#45;&gt;nd8 -->
<g id="edge11" class="edge"><title>nd7:e&#45;&gt;nd8:w</title>
<path fill="none" stroke="#b70000" d="M48.1,-119.5C60.2086,-119.5 54.4914,-139.5 66.6,-139.5"/>
</g>
<!-- nd50 -->
<g id="node11" class="node"><title>nd50</title>
<g id="a_node11"><a xlink:title="nd50&#45;ConstGraph">
<path fill="none" stroke="purple" d="M76.2667,-112C76.2667,-112 85.9333,-112 85.9333,-112 90.7667,-112 95.6,-107.167 95.6,-102.333 95.6,-102.333 95.6,-92.6667 95.6,-92.6667 95.6,-87.8333 90.7667,-83 85.9333,-83 85.9333,-83 76.2667,-83 76.2667,-83 71.4333,-83 66.6,-87.8333 66.6,-92.6667 66.6,-92.6667 66.6,-102.333 66.6,-102.333 66.6,-107.167 71.4333,-112 76.2667,-112"/>
<text text-anchor="middle" x="81.1" y="-93.8" font-family="Times,serif" font-size="14.00">0</text>
</a>
</g>
</g>
<!-- nd7&#45;&gt;nd50 -->
<g id="edge12" class="edge"><title>nd7:s&#45;&gt;nd50:w</title>
<path fill="none" stroke="black" d="M35.1,-103.5C35.1,-89.2483 52.3483,-97.5 66.6,-97.5"/>
</g>
<!-- nd200 -->
<g id="node15" class="node"><title>nd200</title>
<g id="a_node15"><a xlink:title="nd200&#45;ConstListGraph">
<path fill="none" stroke="purple" d="M122.267,-123C122.267,-123 131.933,-123 131.933,-123 136.767,-123 141.6,-118.167 141.6,-113.333 141.6,-113.333 141.6,-103.667 141.6,-103.667 141.6,-98.8333 136.767,-94 131.933,-94 131.933,-94 122.267,-94 122.267,-94 117.433,-94 112.6,-98.8333 112.6,-103.667 112.6,-103.667 112.6,-113.333 112.6,-113.333 112.6,-118.167 117.433,-123 122.267,-123"/>
<text text-anchor="middle" x="127.1" y="-104.8" font-family="Times,serif" font-size="14.00">::</text>
</a>
</g>
</g>
<!-- nd8&#45;&gt;nd200 -->
<g id="edge10" class="edge"><title>nd8:s&#45;&gt;nd200:w</title>
<path fill="none" stroke="black" d="M81.1,-123.5C81.1,-116.683 89.4091,-121.353 95.6,-118.5 103.561,-114.831 103.834,-108.5 112.6,-108.5"/>
</g>
<!-- nd62 -->
<g id="node16" class="node"><title>nd62</title>
<g id="a_node16"><a xlink:title="nd62&#45;AbsGraph">
<ellipse fill="none" stroke="#000000" cx="127.1" cy="-150.5" rx="14.5" ry="14.5"/>
<text text-anchor="middle" x="127.1" y="-146.8" font-family="Times,serif" font-size="14.00">fun</text>
</a>
</g>
</g>
<!-- nd8&#45;&gt;nd62 -->
<g id="edge9" class="edge"><title>nd8:e&#45;&gt;nd62:w</title>
<path fill="none" stroke="red" d="M94.1,-139.5C99.1819,-139.5 101.386,-142.604 103.769,-145.515"/>
<polygon fill="red" stroke="red" points="102.171,-148.632 112.6,-150.5 105.612,-142.536 102.171,-148.632"/>
</g>
<!-- nd16 -->
<g id="node6" class="node"><title>nd16</title>
<g id="a_node6"><a xlink:title="nd16&#45;ConstGraph">
<path fill="none" stroke="purple" d="M174.267,-140C174.267,-140 183.933,-140 183.933,-140 188.767,-140 193.6,-135.167 193.6,-130.333 193.6,-130.333 193.6,-120.667 193.6,-120.667 193.6,-115.833 188.767,-111 183.933,-111 183.933,-111 174.267,-111 174.267,-111 169.433,-111 164.6,-115.833 164.6,-120.667 164.6,-120.667 164.6,-130.333 164.6,-130.333 164.6,-135.167 169.433,-140 174.267,-140"/>
<text text-anchor="middle" x="179.1" y="-121.8" font-family="Times,serif" font-size="14.00">1</text>
</a>
</g>
</g>
<!-- nd22 -->
<g id="node7" class="node"><title>nd22</title>
<g id="a_node7"><a xlink:title="nd22&#45;ConstGraph">
<path fill="none" stroke="purple" d="M220.267,-116C220.267,-116 229.933,-116 229.933,-116 234.767,-116 239.6,-111.167 239.6,-106.333 239.6,-106.333 239.6,-96.6667 239.6,-96.6667 239.6,-91.8333 234.767,-87 229.933,-87 229.933,-87 220.267,-87 220.267,-87 215.433,-87 210.6,-91.8333 210.6,-96.6667 210.6,-96.6667 210.6,-106.333 210.6,-106.333 210.6,-111.167 215.433,-116 220.267,-116"/>
<text text-anchor="middle" x="225.1" y="-97.8" font-family="Times,serif" font-size="14.00">2</text>
</a>
</g>
</g>
<!-- nd28 -->
<g id="node8" class="node"><title>nd28</title>
<g id="a_node8"><a xlink:title="nd28&#45;ConstGraph">
<path fill="none" stroke="purple" d="M266.267,-92C266.267,-92 275.933,-92 275.933,-92 280.767,-92 285.6,-87.1667 285.6,-82.3333 285.6,-82.3333 285.6,-72.6667 285.6,-72.6667 285.6,-67.8333 280.767,-63 275.933,-63 275.933,-63 266.267,-63 266.267,-63 261.433,-63 256.6,-67.8333 256.6,-72.6667 256.6,-72.6667 256.6,-82.3333 256.6,-82.3333 256.6,-87.1667 261.433,-92 266.267,-92"/>
<text text-anchor="middle" x="271.1" y="-73.8" font-family="Times,serif" font-size="14.00">3</text>
</a>
</g>
</g>
<!-- nd34 -->
<g id="node9" class="node"><title>nd34</title>
<g id="a_node9"><a xlink:title="nd34&#45;ConstGraph">
<path fill="none" stroke="purple" d="M312.267,-71C312.267,-71 321.933,-71 321.933,-71 326.767,-71 331.6,-66.1667 331.6,-61.3333 331.6,-61.3333 331.6,-51.6667 331.6,-51.6667 331.6,-46.8333 326.767,-42 321.933,-42 321.933,-42 312.267,-42 312.267,-42 307.433,-42 302.6,-46.8333 302.6,-51.6667 302.6,-51.6667 302.6,-61.3333 302.6,-61.3333 302.6,-66.1667 307.433,-71 312.267,-71"/>
<text text-anchor="middle" x="317.1" y="-52.8" font-family="Times,serif" font-size="14.00">4</text>
</a>
</g>
</g>
<!-- nd39 -->
<g id="node10" class="node"><title>nd39</title>
<g id="a_node10"><a xlink:title="nd39&#45;ConstEmptyGraph">
<path fill="none" stroke="purple" d="M312.267,-29C312.267,-29 321.933,-29 321.933,-29 326.767,-29 331.6,-24.1667 331.6,-19.3333 331.6,-19.3333 331.6,-9.66667 331.6,-9.66667 331.6,-4.83333 326.767,-1.77636e-15 321.933,-1.77636e-15 321.933,-1.77636e-15 312.267,-1.77636e-15 312.267,-1.77636e-15 307.433,-1.77636e-15 302.6,-4.83333 302.6,-9.66667 302.6,-9.66667 302.6,-19.3333 302.6,-19.3333 302.6,-24.1667 307.433,-29 312.267,-29"/>
<text text-anchor="middle" x="317.1" y="-10.8" font-family="Times,serif" font-size="14.00">[]</text>
</a>
</g>
</g>
<!-- nd182 -->
<g id="node12" class="node"><title>nd182</title>
<g id="a_node12"><a xlink:title="nd182&#45;ConstListGraph">
<path fill="none" stroke="purple" d="M266.267,-50C266.267,-50 275.933,-50 275.933,-50 280.767,-50 285.6,-45.1667 285.6,-40.3333 285.6,-40.3333 285.6,-30.6667 285.6,-30.6667 285.6,-25.8333 280.767,-21 275.933,-21 275.933,-21 266.267,-21 266.267,-21 261.433,-21 256.6,-25.8333 256.6,-30.6667 256.6,-30.6667 256.6,-40.3333 256.6,-40.3333 256.6,-45.1667 261.433,-50 266.267,-50"/>
<text text-anchor="middle" x="271.1" y="-31.8" font-family="Times,serif" font-size="14.00">::</text>
</a>
</g>
</g>
<!-- nd182&#45;&gt;nd34 -->
<g id="edge1" class="edge"><title>nd182:n&#45;&gt;nd34:w</title>
<path fill="none" stroke="purple" d="M271.1,-51.5C271.1,-55.0438 299.056,-56.5 302.6,-56.5"/>
</g>
<!-- nd182&#45;&gt;nd39 -->
<g id="edge2" class="edge"><title>nd182:s&#45;&gt;nd39:w</title>
<path fill="none" stroke="purple" d="M271.1,-19.5C271.1,-5.32473 288.425,-14.5 302.6,-14.5"/>
</g>
<!-- nd188 -->
<g id="node13" class="node"><title>nd188</title>
<g id="a_node13"><a xlink:title="nd188&#45;ConstListGraph">
<path fill="none" stroke="purple" d="M220.267,-74C220.267,-74 229.933,-74 229.933,-74 234.767,-74 239.6,-69.1667 239.6,-64.3333 239.6,-64.3333 239.6,-54.6667 239.6,-54.6667 239.6,-49.8333 234.767,-45 229.933,-45 229.933,-45 220.267,-45 220.267,-45 215.433,-45 210.6,-49.8333 210.6,-54.6667 210.6,-54.6667 210.6,-64.3333 210.6,-64.3333 210.6,-69.1667 215.433,-74 220.267,-74"/>
<text text-anchor="middle" x="225.1" y="-55.8" font-family="Times,serif" font-size="14.00">::</text>
</a>
</g>
</g>
<!-- nd188&#45;&gt;nd28 -->
<g id="edge3" class="edge"><title>nd188:n&#45;&gt;nd28:w</title>
<path fill="none" stroke="purple" d="M225.1,-75.5C225.1,-82.5141 249.586,-77.5 256.6,-77.5"/>
</g>
<!-- nd188&#45;&gt;nd182 -->
<g id="edge4" class="edge"><title>nd188:s&#45;&gt;nd182:w</title>
<path fill="none" stroke="purple" d="M225.1,-43.5C225.1,-29.0556 242.156,-35.5 256.6,-35.5"/>
</g>
<!-- nd194 -->
<g id="node14" class="node"><title>nd194</title>
<g id="a_node14"><a xlink:title="nd194&#45;ConstListGraph">
<path fill="none" stroke="purple" d="M174.267,-98C174.267,-98 183.933,-98 183.933,-98 188.767,-98 193.6,-93.1667 193.6,-88.3333 193.6,-88.3333 193.6,-78.6667 193.6,-78.6667 193.6,-73.8333 188.767,-69 183.933,-69 183.933,-69 174.267,-69 174.267,-69 169.433,-69 164.6,-73.8333 164.6,-78.6667 164.6,-78.6667 164.6,-88.3333 164.6,-88.3333 164.6,-93.1667 169.433,-98 174.267,-98"/>
<text text-anchor="middle" x="179.1" y="-79.8" font-family="Times,serif" font-size="14.00">::</text>
</a>
</g>
</g>
<!-- nd194&#45;&gt;nd22 -->
<g id="edge5" class="edge"><title>nd194:n&#45;&gt;nd22:w</title>
<path fill="none" stroke="purple" d="M179.1,-99.5C179.1,-106.514 203.586,-101.5 210.6,-101.5"/>
</g>
<!-- nd194&#45;&gt;nd188 -->
<g id="edge6" class="edge"><title>nd194:s&#45;&gt;nd188:w</title>
<path fill="none" stroke="purple" d="M179.1,-67.5C179.1,-53.0556 196.156,-59.5 210.6,-59.5"/>
</g>
<!-- nd200&#45;&gt;nd16 -->
<g id="edge7" class="edge"><title>nd200:n&#45;&gt;nd16:w</title>
<path fill="none" stroke="purple" d="M127.1,-124.5C127.1,-132.836 156.264,-125.5 164.6,-125.5"/>
</g>
<!-- nd200&#45;&gt;nd194 -->
<g id="edge8" class="edge"><title>nd200:s&#45;&gt;nd194:w</title>
<path fill="none" stroke="purple" d="M127.1,-92.5C127.1,-75.3601 147.46,-83.5 164.6,-83.5"/>
</g>
<!-- ndcluster_nd64 -->
<g id="node17" class="node"><title>ndcluster_nd64</title>
<g id="a_node17"><a xlink:title="nd64">
<ellipse fill="orange" stroke="orange" cx="179.1" cy="-166.5" rx="1.8" ry="1.8"/>
</a>
</g>
</g>
<!-- nd62&#45;&gt;ndcluster_nd64 -->
<g id="edge15" class="edge"><title>nd62:n&#45;&gt;ndcluster_nd64:e</title>
<path fill="none" stroke="grey" d="M127.1,-166.5C127.1,-212.07 189.938,-166.5 182.1,-166.5"/>
<text text-anchor="middle" x="153.1" y="-189.3" font-family="Times,serif" font-size="14.00">x</text>
</g>
<!-- nd62&#45;&gt;ndcluster_nd64 -->
<g id="edge16" class="edge"><title>nd62:e&#45;&gt;ndcluster_nd64:w</title>
<path fill="none" stroke="black" d="M141.6,-150.5C158.502,-150.5 159.198,-166.5 176.1,-166.5"/>
</g>
<!-- ndcluster_nd64&#45;&gt;nd136 -->
<g id="edge14" class="edge"><title>ndcluster_nd64:e&#45;&gt;nd136:w</title>
<path fill="none" stroke="black" d="M182.1,-166.5C195.878,-166.5 199.322,-166.5 213.1,-166.5"/>
</g>
</g>
</svg>
