<?xml version="1.0" encoding="UTF-8" standalone="no"?>
<!DOCTYPE svg PUBLIC "-//W3C//DTD SVG 1.1//EN"
 "http://www.w3.org/Graphics/SVG/1.1/DTD/svg11.dtd">
<!-- Generated by graphviz version 2.38.0 (20140413.2041)
 -->
<!-- Title: G Pages: 1 -->
<svg width="412pt" height="261pt"
 viewBox="0.00 0.00 412.20 260.78" xmlns="http://www.w3.org/2000/svg" xmlns:xlink="http://www.w3.org/1999/xlink">
<g id="graph0" class="graph" transform="scale(1 1) rotate(0) translate(4 256.775)">
<title>G</title>
<polygon fill="white" stroke="none" points="-4,4 -4,-256.775 408.2,-256.775 408.2,4 -4,4"/>
<g id="clust1" class="cluster"><title>cluster_nd241</title>
<polygon fill="none" stroke="orange" points="169.3,-224.5 169.3,-244.5 188.9,-244.5 188.9,-224.5 169.3,-224.5"/>
</g>
<g id="clust2" class="cluster"><title>cluster_nd160</title>
<polygon fill="none" stroke="orange" points="167.3,-172.5 167.3,-215.5 190.9,-215.5 190.9,-172.5 167.3,-172.5"/>
<text text-anchor="middle" x="179.1" y="-200.3" font-family="Times,serif" font-size="14.00">tl</text>
</g>
<g id="clust3" class="cluster"><title>cluster_nd169</title>
<polygon fill="none" stroke="orange" points="164.3,-83.5 164.3,-126.5 193.9,-126.5 193.9,-83.5 164.3,-83.5"/>
<text text-anchor="middle" x="179.1" y="-111.3" font-family="Times,serif" font-size="14.00">hd</text>
</g>
<!-- nd1 -->
<g id="node1" class="node"><title>nd1</title>
<ellipse fill="black" stroke="black" cx="1.8" cy="-175.5" rx="1.8" ry="1.8"/>
</g>
<!-- nd154 -->
<g id="node12" class="node"><title>nd154</title>
<g id="a_node12"><a xlink:title="nd154&#45;AppGraph">
<path fill="none" stroke="#000000" d="M27.5473,-185.554C27.5473,-185.554 23.6719,-179.946 23.6719,-179.946 22.136,-177.723 22.136,-173.277 23.6719,-171.054 23.6719,-171.054 27.5473,-165.446 27.5473,-165.446 29.0833,-163.223 33.3212,-161.002 36.0231,-161.005 36.0231,-161.005 41.4269,-161.009 41.4269,-161.009 44.1288,-161.011 46.8307,-163.715 46.8307,-166.417 46.8307,-166.417 46.8307,-184.583 46.8307,-184.583 46.8307,-187.285 44.1288,-189.989 41.4269,-189.991 41.4269,-189.991 36.0231,-189.995 36.0231,-189.995 33.3212,-189.998 29.0833,-187.777 27.5473,-185.554"/>
<text text-anchor="middle" x="35.1" y="-171.8" font-family="Times,serif" font-size="14.00">@</text>
</a>
</g>
</g>
<!-- nd1&#45;&gt;nd154 -->
<g id="edge16" class="edge"><title>nd1:e&#45;&gt;nd154:w</title>
<path fill="none" stroke="#b70000" d="M3.6,-175.5C11.1556,-175.5 13.0444,-175.5 20.6,-175.5"/>
</g>
<!-- nd22 -->
<g id="node2" class="node"><title>nd22</title>
<g id="a_node2"><a xlink:title="nd22&#45;ConstGraph">
<path fill="none" stroke="purple" d="M292.867,-113C292.867,-113 302.533,-113 302.533,-113 307.367,-113 312.2,-108.167 312.2,-103.333 312.2,-103.333 312.2,-93.6667 312.2,-93.6667 312.2,-88.8333 307.367,-84 302.533,-84 302.533,-84 292.867,-84 292.867,-84 288.033,-84 283.2,-88.8333 283.2,-93.6667 283.2,-93.6667 283.2,-103.333 283.2,-103.333 283.2,-108.167 288.033,-113 292.867,-113"/>
<text text-anchor="middle" x="297.7" y="-94.8" font-family="Times,serif" font-size="14.00">2</text>
</a>
</g>
</g>
<!-- nd28 -->
<g id="node3" class="node"><title>nd28</title>
<g id="a_node3"><a xlink:title="nd28&#45;ConstGraph">
<path fill="none" stroke="purple" d="M338.867,-92C338.867,-92 348.533,-92 348.533,-92 353.367,-92 358.2,-87.1667 358.2,-82.3333 358.2,-82.3333 358.2,-72.6667 358.2,-72.6667 358.2,-67.8333 353.367,-63 348.533,-63 348.533,-63 338.867,-63 338.867,-63 334.033,-63 329.2,-67.8333 329.2,-72.6667 329.2,-72.6667 329.2,-82.3333 329.2,-82.3333 329.2,-87.1667 334.033,-92 338.867,-92"/>
<text text-anchor="middle" x="343.7" y="-73.8" font-family="Times,serif" font-size="14.00">3</text>
</a>
</g>
</g>
<!-- nd34 -->
<g id="node4" class="node"><title>nd34</title>
<g id="a_node4"><a xlink:title="nd34&#45;ConstGraph">
<path fill="none" stroke="purple" d="M384.867,-71C384.867,-71 394.533,-71 394.533,-71 399.367,-71 404.2,-66.1667 404.2,-61.3333 404.2,-61.3333 404.2,-51.6667 404.2,-51.6667 404.2,-46.8333 399.367,-42 394.533,-42 394.533,-42 384.867,-42 384.867,-42 380.033,-42 375.2,-46.8333 375.2,-51.6667 375.2,-51.6667 375.2,-61.3333 375.2,-61.3333 375.2,-66.1667 380.033,-71 384.867,-71"/>
<text text-anchor="middle" x="389.7" y="-52.8" font-family="Times,serif" font-size="14.00">4</text>
</a>
</g>
</g>
<!-- nd39 -->
<g id="node5" class="node"><title>nd39</title>
<g id="a_node5"><a xlink:title="nd39&#45;ConstEmptyGraph">
<path fill="none" stroke="purple" d="M384.867,-29C384.867,-29 394.533,-29 394.533,-29 399.367,-29 404.2,-24.1667 404.2,-19.3333 404.2,-19.3333 404.2,-9.66667 404.2,-9.66667 404.2,-4.83333 399.367,-1.77636e-15 394.533,-1.77636e-15 394.533,-1.77636e-15 384.867,-1.77636e-15 384.867,-1.77636e-15 380.033,-1.77636e-15 375.2,-4.83333 375.2,-9.66667 375.2,-9.66667 375.2,-19.3333 375.2,-19.3333 375.2,-24.1667 380.033,-29 384.867,-29"/>
<text text-anchor="middle" x="389.7" y="-10.8" font-family="Times,serif" font-size="14.00">[]</text>
</a>
</g>
</g>
<!-- nd182 -->
<g id="node6" class="node"><title>nd182</title>
<g id="a_node6"><a xlink:title="nd182&#45;ConstListGraph">
<path fill="none" stroke="purple" d="M338.867,-50C338.867,-50 348.533,-50 348.533,-50 353.367,-50 358.2,-45.1667 358.2,-40.3333 358.2,-40.3333 358.2,-30.6667 358.2,-30.6667 358.2,-25.8333 353.367,-21 348.533,-21 348.533,-21 338.867,-21 338.867,-21 334.033,-21 329.2,-25.8333 329.2,-30.6667 329.2,-30.6667 329.2,-40.3333 329.2,-40.3333 329.2,-45.1667 334.033,-50 338.867,-50"/>
<text text-anchor="middle" x="343.7" y="-31.8" font-family="Times,serif" font-size="14.00">::</text>
</a>
</g>
</g>
<!-- nd182&#45;&gt;nd34 -->
<g id="edge1" class="edge"><title>nd182:n&#45;&gt;nd34:w</title>
<path fill="none" stroke="purple" d="M343.7,-51.5C343.7,-55.0438 371.656,-56.5 375.2,-56.5"/>
</g>
<!-- nd182&#45;&gt;nd39 -->
<g id="edge2" class="edge"><title>nd182:s&#45;&gt;nd39:w</title>
<path fill="none" stroke="purple" d="M343.7,-19.5C343.7,-5.32473 361.025,-14.5 375.2,-14.5"/>
</g>
<!-- nd188 -->
<g id="node7" class="node"><title>nd188</title>
<g id="a_node7"><a xlink:title="nd188&#45;ConstListGraph">
<path fill="none" stroke="purple" d="M292.867,-71C292.867,-71 302.533,-71 302.533,-71 307.367,-71 312.2,-66.1667 312.2,-61.3333 312.2,-61.3333 312.2,-51.6667 312.2,-51.6667 312.2,-46.8333 307.367,-42 302.533,-42 302.533,-42 292.867,-42 292.867,-42 288.033,-42 283.2,-46.8333 283.2,-51.6667 283.2,-51.6667 283.2,-61.3333 283.2,-61.3333 283.2,-66.1667 288.033,-71 292.867,-71"/>
<text text-anchor="middle" x="297.7" y="-52.8" font-family="Times,serif" font-size="14.00">::</text>
</a>
</g>
</g>
<!-- nd188&#45;&gt;nd28 -->
<g id="edge3" class="edge"><title>nd188:n&#45;&gt;nd28:w</title>
<path fill="none" stroke="purple" d="M297.7,-72.5C297.7,-76.0438 325.656,-77.5 329.2,-77.5"/>
</g>
<!-- nd188&#45;&gt;nd182 -->
<g id="edge4" class="edge"><title>nd188:s&#45;&gt;nd182:w</title>
<path fill="none" stroke="purple" d="M297.7,-40.5C297.7,-26.3247 315.025,-35.5 329.2,-35.5"/>
</g>
<!-- nd194 -->
<g id="node8" class="node"><title>nd194</title>
<g id="a_node8"><a xlink:title="nd194&#45;ConstListGraph">
<path fill="none" stroke="purple" d="M226.267,-88C226.267,-88 235.933,-88 235.933,-88 240.767,-88 245.6,-83.1667 245.6,-78.3333 245.6,-78.3333 245.6,-68.6667 245.6,-68.6667 245.6,-63.8333 240.767,-59 235.933,-59 235.933,-59 226.267,-59 226.267,-59 221.433,-59 216.6,-63.8333 216.6,-68.6667 216.6,-68.6667 216.6,-78.3333 216.6,-78.3333 216.6,-83.1667 221.433,-88 226.267,-88"/>
<text text-anchor="middle" x="231.1" y="-69.8" font-family="Times,serif" font-size="14.00">::</text>
</a>
</g>
</g>
<!-- nd286 -->
<g id="node21" class="node"><title>nd286</title>
<g id="a_node21"><a xlink:title="nd286&#45;ContractGraph">
<ellipse fill="black" stroke="black" cx="264.4" cy="-92.5" rx="1.8" ry="1.8"/>
</a>
</g>
</g>
<!-- nd194&#45;&gt;nd286 -->
<g id="edge5" class="edge"><title>nd194:n&#45;&gt;nd286:w</title>
<path fill="none" stroke="black" d="M231.1,-89.5C231.1,-103.563 248.537,-92.5 262.6,-92.5"/>
</g>
<!-- nd287 -->
<g id="node22" class="node"><title>nd287</title>
<g id="a_node22"><a xlink:title="nd287&#45;ContractGraph">
<ellipse fill="black" stroke="black" cx="264.4" cy="-56.5" rx="1.8" ry="1.8"/>
</a>
</g>
</g>
<!-- nd194&#45;&gt;nd287 -->
<g id="edge6" class="edge"><title>nd194:s&#45;&gt;nd287:w</title>
<path fill="none" stroke="black" d="M231.1,-57.5C231.1,-43.4929 248.593,-56.5 262.6,-56.5"/>
</g>
<!-- nd232 -->
<g id="node9" class="node"><title>nd232</title>
<g id="a_node9"><a xlink:title="nd232&#45;ConstGraph">
<path fill="none" stroke="purple" d="M174.267,-164C174.267,-164 183.933,-164 183.933,-164 188.767,-164 193.6,-159.167 193.6,-154.333 193.6,-154.333 193.6,-144.667 193.6,-144.667 193.6,-139.833 188.767,-135 183.933,-135 183.933,-135 174.267,-135 174.267,-135 169.433,-135 164.6,-139.833 164.6,-144.667 164.6,-144.667 164.6,-154.333 164.6,-154.333 164.6,-159.167 169.433,-164 174.267,-164"/>
<text text-anchor="middle" x="179.1" y="-145.8" font-family="Times,serif" font-size="14.00">1</text>
</a>
</g>
</g>
<!-- nd237 -->
<g id="node10" class="node"><title>nd237</title>
<g id="a_node10"><a xlink:title="nd237&#45;RecurGraph">
<ellipse fill="none" stroke="#000000" cx="127.1" cy="-216.5" rx="11" ry="11"/>
<text text-anchor="middle" x="127.1" y="-212.8" font-family="Times,serif" font-size="14.00">rec</text>
</a>
</g>
</g>
<!-- ndcluster_nd241 -->
<g id="node11" class="node"><title>ndcluster_nd241</title>
<g id="a_node11"><a xlink:title="nd241">
<ellipse fill="orange" stroke="orange" cx="179.1" cy="-234.5" rx="1.8" ry="1.8"/>
</a>
</g>
</g>
<!-- nd237&#45;&gt;ndcluster_nd241 -->
<g id="edge22" class="edge"><title>nd237:n&#45;&gt;ndcluster_nd241:e</title>
<path fill="none" stroke="grey" d="M127.1,-228.5C127.1,-279.095 190.08,-234.5 182.1,-234.5"/>
</g>
<!-- nd237&#45;&gt;ndcluster_nd241 -->
<g id="edge23" class="edge"><title>nd237:e&#45;&gt;ndcluster_nd241:w</title>
<path fill="none" stroke="black" d="M139.1,-216.5C157.387,-216.5 157.813,-234.5 176.1,-234.5"/>
</g>
<!-- nd155 -->
<g id="node13" class="node"><title>nd155</title>
<g id="a_node13"><a xlink:title="nd155&#45;AppGraph">
<path fill="none" stroke="#000000" d="M73.5473,-202.554C73.5473,-202.554 69.6719,-196.946 69.6719,-196.946 68.136,-194.723 68.136,-190.277 69.6719,-188.054 69.6719,-188.054 73.5473,-182.446 73.5473,-182.446 75.0833,-180.223 79.3212,-178.002 82.0231,-178.005 82.0231,-178.005 87.4269,-178.009 87.4269,-178.009 90.1288,-178.011 92.8307,-180.715 92.8307,-183.417 92.8307,-183.417 92.8307,-201.583 92.8307,-201.583 92.8307,-204.285 90.1288,-206.989 87.4269,-206.991 87.4269,-206.991 82.0231,-206.995 82.0231,-206.995 79.3212,-206.998 75.0833,-204.777 73.5473,-202.554"/>
<text text-anchor="middle" x="81.1" y="-188.8" font-family="Times,serif" font-size="14.00">@</text>
</a>
</g>
</g>
<!-- nd154&#45;&gt;nd155 -->
<g id="edge12" class="edge"><title>nd154:e&#45;&gt;nd155:w</title>
<path fill="none" stroke="black" d="M48.1,-175.5C59.2665,-175.5 55.4335,-192.5 66.6,-192.5"/>
</g>
<!-- nd165 -->
<g id="node16" class="node"><title>nd165</title>
<g id="a_node16"><a xlink:title="nd165&#45;BinOpGraph">
<ellipse fill="none" stroke="#000000" cx="81.1" cy="-133.5" rx="14.5" ry="14.5"/>
<text text-anchor="middle" x="81.1" y="-129.8" font-family="Times,serif" font-size="14.00">+</text>
</a>
</g>
</g>
<!-- nd154&#45;&gt;nd165 -->
<g id="edge13" class="edge"><title>nd154:s&#45;&gt;nd165:w</title>
<path fill="none" stroke="#b70000" d="M35.1,-159.5C35.1,-141.347 48.447,-133.5 66.6,-133.5"/>
</g>
<!-- nd155&#45;&gt;nd237 -->
<g id="edge8" class="edge"><title>nd155:e&#45;&gt;nd237:w</title>
<path fill="none" stroke="black" d="M94.1,-192.5C108.274,-192.5 100.926,-216.5 115.1,-216.5"/>
</g>
<!-- nd157 -->
<g id="node14" class="node"><title>nd157</title>
<g id="a_node14"><a xlink:title="nd157&#45;AppGraph">
<path fill="none" stroke="#000000" d="M119.547,-187.554C119.547,-187.554 115.672,-181.946 115.672,-181.946 114.136,-179.723 114.136,-175.277 115.672,-173.054 115.672,-173.054 119.547,-167.446 119.547,-167.446 121.083,-165.223 125.321,-163.002 128.023,-163.005 128.023,-163.005 133.427,-163.009 133.427,-163.009 136.129,-163.011 138.831,-165.715 138.831,-168.417 138.831,-168.417 138.831,-186.583 138.831,-186.583 138.831,-189.285 136.129,-191.989 133.427,-191.991 133.427,-191.991 128.023,-191.995 128.023,-191.995 125.321,-191.998 121.083,-189.777 119.547,-187.554"/>
<text text-anchor="middle" x="127.1" y="-173.8" font-family="Times,serif" font-size="14.00">@</text>
</a>
</g>
</g>
<!-- nd155&#45;&gt;nd157 -->
<g id="edge9" class="edge"><title>nd155:s&#45;&gt;nd157:w</title>
<path fill="none" stroke="black" d="M81.1,-176.5C81.1,-162.493 98.5929,-177.5 112.6,-177.5"/>
</g>
<!-- ndcluster_nd160 -->
<g id="node15" class="node"><title>ndcluster_nd160</title>
<g id="a_node15"><a xlink:title="nd160">
<ellipse fill="orange" stroke="orange" cx="179.1" cy="-182.5" rx="1.8" ry="1.8"/>
</a>
</g>
</g>
<!-- nd157&#45;&gt;ndcluster_nd160 -->
<g id="edge7" class="edge"><title>nd157:e&#45;&gt;ndcluster_nd160:w</title>
<path fill="none" stroke="black" d="M140.1,-177.5C156.254,-177.5 159.946,-182.5 176.1,-182.5"/>
</g>
<!-- nd173 -->
<g id="node19" class="node"><title>nd173</title>
<g id="a_node19"><a xlink:title="nd173&#45;ContractGraph">
<ellipse fill="black" stroke="black" cx="179.1" cy="-73.5" rx="1.8" ry="1.8"/>
</a>
</g>
</g>
<!-- nd157&#45;&gt;nd173 -->
<g id="edge15" class="edge"><title>nd157:s&#45;&gt;nd173:w</title>
<path fill="none" stroke="black" d="M127.1,-161.5C127.1,-154.683 136.882,-161.42 141.6,-156.5 169.251,-127.668 136.151,-73.5 176.1,-73.5"/>
</g>
<!-- nd166 -->
<g id="node17" class="node"><title>nd166</title>
<g id="a_node17"><a xlink:title="nd166&#45;AppGraph">
<path fill="none" stroke="#000000" d="M119.547,-103.554C119.547,-103.554 115.672,-97.9457 115.672,-97.9457 114.136,-95.7229 114.136,-91.2771 115.672,-89.0543 115.672,-89.0543 119.547,-83.4457 119.547,-83.4457 121.083,-81.2229 125.321,-79.0023 128.023,-79.0045 128.023,-79.0045 133.427,-79.009 133.427,-79.009 136.129,-79.0113 138.831,-81.7155 138.831,-84.4174 138.831,-84.4174 138.831,-102.583 138.831,-102.583 138.831,-105.285 136.129,-107.989 133.427,-107.991 133.427,-107.991 128.023,-107.995 128.023,-107.995 125.321,-107.998 121.083,-105.777 119.547,-103.554"/>
<text text-anchor="middle" x="127.1" y="-89.8" font-family="Times,serif" font-size="14.00">@</text>
</a>
</g>
</g>
<!-- nd165&#45;&gt;nd166 -->
<g id="edge11" class="edge"><title>nd165:s&#45;&gt;nd166:w</title>
<path fill="none" stroke="#b70000" d="M81.1,-117.5C81.1,-99.8995 94.9995,-93.5 112.6,-93.5"/>
</g>
<!-- nd174 -->
<g id="node20" class="node"><title>nd174</title>
<g id="a_node20"><a xlink:title="nd174&#45;ContractGraph">
<ellipse fill="black" stroke="black" cx="127.1" cy="-148.5" rx="1.8" ry="1.8"/>
</a>
</g>
</g>
<!-- nd165&#45;&gt;nd174 -->
<g id="edge17" class="edge"><title>nd165:n&#45;&gt;nd174:w</title>
<path fill="none" stroke="black" d="M81.1,-149.5C81.1,-168.616 104.984,-148.5 124.1,-148.5"/>
</g>
<!-- ndcluster_nd169 -->
<g id="node18" class="node"><title>ndcluster_nd169</title>
<g id="a_node18"><a xlink:title="nd169">
<ellipse fill="orange" stroke="orange" cx="179.1" cy="-93.5" rx="1.8" ry="1.8"/>
</a>
</g>
</g>
<!-- nd166&#45;&gt;ndcluster_nd169 -->
<g id="edge10" class="edge"><title>nd166:e&#45;&gt;ndcluster_nd169:w</title>
<path fill="none" stroke="black" d="M140.1,-93.5C156.1,-93.5 160.1,-93.5 176.1,-93.5"/>
</g>
<!-- nd166&#45;&gt;nd173 -->
<g id="edge14" class="edge"><title>nd166:s&#45;&gt;nd173:w</title>
<path fill="none" stroke="#b70000" d="M127.1,-77.5C127.1,-55.6498 154.25,-73.5 176.1,-73.5"/>
</g>
<!-- nd173&#45;&gt;nd194 -->
<g id="edge19" class="edge"><title>nd173:e&#45;&gt;nd194:w</title>
<path fill="none" stroke="red" d="M182.1,-73.5C193.36,-73.5 198.419,-73.5 206.384,-73.5"/>
<polygon fill="red" stroke="red" points="206.6,-77.0001 216.6,-73.5 206.6,-70.0001 206.6,-77.0001"/>
<text text-anchor="middle" x="205.1" y="-77.3" font-family="Times,serif" font-size="14.00">x</text>
</g>
<!-- nd174&#45;&gt;nd232 -->
<g id="edge18" class="edge"><title>nd174:e&#45;&gt;nd232:w</title>
<path fill="none" stroke="black" d="M130.1,-148.5C145.306,-148.5 149.094,-149.5 164.3,-149.5"/>
<text text-anchor="middle" x="153.1" y="-152.3" font-family="Times,serif" font-size="14.00">y</text>
</g>
<!-- nd286&#45;&gt;nd22 -->
<g id="edge20" class="edge"><title>nd286:e&#45;&gt;nd22:w</title>
<path fill="none" stroke="black" d="M266.2,-92.5C274.212,-92.5 275.188,-98.5 283.2,-98.5"/>
</g>
<!-- nd287&#45;&gt;nd188 -->
<g id="edge21" class="edge"><title>nd287:e&#45;&gt;nd188:w</title>
<path fill="none" stroke="black" d="M266.2,-56.5C273.756,-56.5 275.644,-56.5 283.2,-56.5"/>
</g>
</g>
</svg>
