<?xml version="1.0" encoding="UTF-8" standalone="no"?>
<!DOCTYPE svg PUBLIC "-//W3C//DTD SVG 1.1//EN"
 "http://www.w3.org/Graphics/SVG/1.1/DTD/svg11.dtd">
<!-- Generated by graphviz version 2.38.0 (20140413.2041)
 -->
<!-- Title: G Pages: 1 -->
<svg width="361pt" height="180pt"
 viewBox="0.00 0.00 360.80 179.50" xmlns="http://www.w3.org/2000/svg" xmlns:xlink="http://www.w3.org/1999/xlink">
<g id="graph0" class="graph" transform="scale(1 1) rotate(0) translate(4 175.5)">
<title>G</title>
<polygon fill="white" stroke="none" points="-4,4 -4,-175.5 356.8,-175.5 356.8,4 -4,4"/>
<g id="clust1" class="cluster"><title>cluster_nd395</title>
<polygon fill="none" stroke="orange" points="166.6,-143.5 166.6,-163.5 186.2,-163.5 186.2,-143.5 166.6,-143.5"/>
</g>
<g id="clust2" class="cluster"><title>cluster_nd338</title>
<polygon fill="none" stroke="orange" points="164.6,-89.5 164.6,-132.5 188.2,-132.5 188.2,-89.5 164.6,-89.5"/>
<text text-anchor="middle" x="176.4" y="-117.3" font-family="Times,serif" font-size="14.00">tl</text>
</g>
<!-- nd1 -->
<g id="node1" class="node"><title>nd1</title>
<ellipse fill="black" stroke="black" cx="1.8" cy="-90.5" rx="1.8" ry="1.8"/>
</g>
<!-- nd332 -->
<g id="node8" class="node"><title>nd332</title>
<g id="a_node8"><a xlink:title="nd332&#45;AppGraph">
<path fill="none" stroke="#000000" d="M27.5473,-100.554C27.5473,-100.554 23.6719,-94.9457 23.6719,-94.9457 22.136,-92.7229 22.136,-88.2771 23.6719,-86.0543 23.6719,-86.0543 27.5473,-80.4457 27.5473,-80.4457 29.0833,-78.2229 33.3212,-76.0023 36.0231,-76.0045 36.0231,-76.0045 41.4269,-76.009 41.4269,-76.009 44.1288,-76.0113 46.8307,-78.7155 46.8307,-81.4174 46.8307,-81.4174 46.8307,-99.5826 46.8307,-99.5826 46.8307,-102.285 44.1288,-104.989 41.4269,-104.991 41.4269,-104.991 36.0231,-104.995 36.0231,-104.995 33.3212,-104.998 29.0833,-102.777 27.5473,-100.554"/>
<text text-anchor="middle" x="35.1" y="-86.8" font-family="Times,serif" font-size="14.00">@</text>
</a>
</g>
</g>
<!-- nd1&#45;&gt;nd332 -->
<g id="edge12" class="edge"><title>nd1:e&#45;&gt;nd332:w</title>
<path fill="none" stroke="#b70000" d="M3.6,-90.5C11.1556,-90.5 13.0444,-90.5 20.6,-90.5"/>
</g>
<!-- nd34 -->
<g id="node2" class="node"><title>nd34</title>
<g id="a_node2"><a xlink:title="nd34&#45;ConstGraph">
<path fill="none" stroke="purple" d="M287.467,-109C287.467,-109 297.133,-109 297.133,-109 301.967,-109 306.8,-104.167 306.8,-99.3333 306.8,-99.3333 306.8,-89.6667 306.8,-89.6667 306.8,-84.8333 301.967,-80 297.133,-80 297.133,-80 287.467,-80 287.467,-80 282.633,-80 277.8,-84.8333 277.8,-89.6667 277.8,-89.6667 277.8,-99.3333 277.8,-99.3333 277.8,-104.167 282.633,-109 287.467,-109"/>
<text text-anchor="middle" x="292.3" y="-90.8" font-family="Times,serif" font-size="14.00">4</text>
</a>
</g>
</g>
<!-- nd39 -->
<g id="node3" class="node"><title>nd39</title>
<g id="a_node3"><a xlink:title="nd39&#45;ConstEmptyGraph">
<path fill="none" stroke="purple" d="M333.467,-79C333.467,-79 343.133,-79 343.133,-79 347.967,-79 352.8,-74.1667 352.8,-69.3333 352.8,-69.3333 352.8,-59.6667 352.8,-59.6667 352.8,-54.8333 347.967,-50 343.133,-50 343.133,-50 333.467,-50 333.467,-50 328.633,-50 323.8,-54.8333 323.8,-59.6667 323.8,-59.6667 323.8,-69.3333 323.8,-69.3333 323.8,-74.1667 328.633,-79 333.467,-79"/>
<text text-anchor="middle" x="338.3" y="-60.8" font-family="Times,serif" font-size="14.00">[]</text>
</a>
</g>
</g>
<!-- nd182 -->
<g id="node4" class="node"><title>nd182</title>
<g id="a_node4"><a xlink:title="nd182&#45;ConstListGraph">
<path fill="none" stroke="purple" d="M220.867,-94C220.867,-94 230.533,-94 230.533,-94 235.367,-94 240.2,-89.1667 240.2,-84.3333 240.2,-84.3333 240.2,-74.6667 240.2,-74.6667 240.2,-69.8333 235.367,-65 230.533,-65 230.533,-65 220.867,-65 220.867,-65 216.033,-65 211.2,-69.8333 211.2,-74.6667 211.2,-74.6667 211.2,-84.3333 211.2,-84.3333 211.2,-89.1667 216.033,-94 220.867,-94"/>
<text text-anchor="middle" x="225.7" y="-75.8" font-family="Times,serif" font-size="14.00">::</text>
</a>
</g>
</g>
<!-- nd453 -->
<g id="node15" class="node"><title>nd453</title>
<g id="a_node15"><a xlink:title="nd453&#45;ContractGraph">
<ellipse fill="black" stroke="black" cx="259" cy="-94.5" rx="1.8" ry="1.8"/>
</a>
</g>
</g>
<!-- nd182&#45;&gt;nd453 -->
<g id="edge1" class="edge"><title>nd182:n&#45;&gt;nd453:w</title>
<path fill="none" stroke="black" d="M225.7,-95.5C225.7,-109.507 243.193,-94.5 257.2,-94.5"/>
</g>
<!-- nd454 -->
<g id="node16" class="node"><title>nd454</title>
<g id="a_node16"><a xlink:title="nd454&#45;ContractGraph">
<ellipse fill="black" stroke="black" cx="259" cy="-64.5" rx="1.8" ry="1.8"/>
</a>
</g>
</g>
<!-- nd182&#45;&gt;nd454 -->
<g id="edge2" class="edge"><title>nd182:s&#45;&gt;nd454:w</title>
<path fill="none" stroke="black" d="M225.7,-63.5C225.7,-49.4929 243.193,-64.5 257.2,-64.5"/>
</g>
<!-- nd386 -->
<g id="node5" class="node"><title>nd386</title>
<g id="a_node5"><a xlink:title="nd386&#45;ConstGraph">
<path fill="none" stroke="purple" d="M128.267,-71C128.267,-71 137.933,-71 137.933,-71 142.767,-71 147.6,-66.1667 147.6,-61.3333 147.6,-61.3333 147.6,-51.6667 147.6,-51.6667 147.6,-46.8333 142.767,-42 137.933,-42 137.933,-42 128.267,-42 128.267,-42 123.433,-42 118.6,-46.8333 118.6,-51.6667 118.6,-51.6667 118.6,-61.3333 118.6,-61.3333 118.6,-66.1667 123.433,-71 128.267,-71"/>
<text text-anchor="middle" x="133.1" y="-52.8" font-family="Times,serif" font-size="14.00">6</text>
</a>
</g>
</g>
<!-- nd391 -->
<g id="node6" class="node"><title>nd391</title>
<g id="a_node6"><a xlink:title="nd391&#45;RecurGraph">
<ellipse fill="none" stroke="#000000" cx="133.1" cy="-137.5" rx="11" ry="11"/>
<text text-anchor="middle" x="133.1" y="-133.8" font-family="Times,serif" font-size="14.00">rec</text>
</a>
</g>
</g>
<!-- ndcluster_nd395 -->
<g id="node7" class="node"><title>ndcluster_nd395</title>
<g id="a_node7"><a xlink:title="nd395">
<ellipse fill="orange" stroke="orange" cx="176.4" cy="-153.5" rx="1.8" ry="1.8"/>
</a>
</g>
</g>
<!-- nd391&#45;&gt;ndcluster_nd395 -->
<g id="edge15" class="edge"><title>nd391:n&#45;&gt;ndcluster_nd395:e</title>
<path fill="none" stroke="grey" d="M133.1,-149.5C133.1,-186.056 185.799,-153.5 179.4,-153.5"/>
</g>
<!-- nd391&#45;&gt;ndcluster_nd395 -->
<g id="edge16" class="edge"><title>nd391:e&#45;&gt;ndcluster_nd395:w</title>
<path fill="none" stroke="black" d="M145.1,-137.5C159.549,-137.5 158.951,-153.5 173.4,-153.5"/>
</g>
<!-- nd333 -->
<g id="node9" class="node"><title>nd333</title>
<g id="a_node9"><a xlink:title="nd333&#45;AppGraph">
<path fill="none" stroke="#000000" d="M73.5473,-123.554C73.5473,-123.554 69.6719,-117.946 69.6719,-117.946 68.136,-115.723 68.136,-111.277 69.6719,-109.054 69.6719,-109.054 73.5473,-103.446 73.5473,-103.446 75.0833,-101.223 79.3212,-99.0023 82.0231,-99.0045 82.0231,-99.0045 87.4269,-99.009 87.4269,-99.009 90.1288,-99.0113 92.8307,-101.715 92.8307,-104.417 92.8307,-104.417 92.8307,-122.583 92.8307,-122.583 92.8307,-125.285 90.1288,-127.989 87.4269,-127.991 87.4269,-127.991 82.0231,-127.995 82.0231,-127.995 79.3212,-127.998 75.0833,-125.777 73.5473,-123.554"/>
<text text-anchor="middle" x="81.1" y="-109.8" font-family="Times,serif" font-size="14.00">@</text>
</a>
</g>
</g>
<!-- nd332&#45;&gt;nd333 -->
<g id="edge9" class="edge"><title>nd332:e&#45;&gt;nd333:w</title>
<path fill="none" stroke="black" d="M48.1,-90.5C61.2186,-90.5 53.4814,-113.5 66.6,-113.5"/>
</g>
<!-- nd343 -->
<g id="node12" class="node"><title>nd343</title>
<g id="a_node12"><a xlink:title="nd343&#45;BinOpGraph">
<ellipse fill="none" stroke="#000000" cx="81.1" cy="-41.5" rx="14.5" ry="14.5"/>
<text text-anchor="middle" x="81.1" y="-37.8" font-family="Times,serif" font-size="14.00">+</text>
</a>
</g>
</g>
<!-- nd332&#45;&gt;nd343 -->
<g id="edge10" class="edge"><title>nd332:s&#45;&gt;nd343:w</title>
<path fill="none" stroke="red" d="M36.1746,-64.3315C39.4259,-50.0622 49.9674,-41.5 66.6,-41.5"/>
<polygon fill="red" stroke="red" points="32.6704,-64.1875 35.1,-74.5 39.6316,-64.9232 32.6704,-64.1875"/>
</g>
<!-- nd333&#45;&gt;nd391 -->
<g id="edge7" class="edge"><title>nd333:e&#45;&gt;nd391:w</title>
<path fill="none" stroke="black" d="M94.1,-113.5C110.155,-113.5 105.045,-137.5 121.1,-137.5"/>
</g>
<!-- nd335 -->
<g id="node10" class="node"><title>nd335</title>
<g id="a_node10"><a xlink:title="nd335&#45;AppGraph">
<path fill="none" stroke="#000000" d="M125.547,-108.554C125.547,-108.554 121.672,-102.946 121.672,-102.946 120.136,-100.723 120.136,-96.2771 121.672,-94.0543 121.672,-94.0543 125.547,-88.4457 125.547,-88.4457 127.083,-86.2229 131.321,-84.0023 134.023,-84.0045 134.023,-84.0045 139.427,-84.009 139.427,-84.009 142.129,-84.0113 144.831,-86.7155 144.831,-89.4174 144.831,-89.4174 144.831,-107.583 144.831,-107.583 144.831,-110.285 142.129,-112.989 139.427,-112.991 139.427,-112.991 134.023,-112.995 134.023,-112.995 131.321,-112.998 127.083,-110.777 125.547,-108.554"/>
<text text-anchor="middle" x="133.1" y="-94.8" font-family="Times,serif" font-size="14.00">@</text>
</a>
</g>
</g>
<!-- nd333&#45;&gt;nd335 -->
<g id="edge8" class="edge"><title>nd333:s&#45;&gt;nd335:w</title>
<path fill="none" stroke="black" d="M81.1,-97.5C81.1,-80.8274 101.927,-98.5 118.6,-98.5"/>
</g>
<!-- ndcluster_nd338 -->
<g id="node11" class="node"><title>ndcluster_nd338</title>
<g id="a_node11"><a xlink:title="nd338">
<ellipse fill="orange" stroke="orange" cx="176.4" cy="-99.5" rx="1.8" ry="1.8"/>
</a>
</g>
</g>
<!-- nd335&#45;&gt;ndcluster_nd338 -->
<g id="edge6" class="edge"><title>nd335:e&#45;&gt;ndcluster_nd338:w</title>
<path fill="none" stroke="black" d="M146.1,-98.5C158.241,-98.5 161.259,-99.5 173.4,-99.5"/>
</g>
<!-- nd351 -->
<g id="node13" class="node"><title>nd351</title>
<g id="a_node13"><a xlink:title="nd351&#45;ContractGraph">
<ellipse fill="black" stroke="black" cx="176.4" cy="-79.5" rx="1.8" ry="1.8"/>
</a>
</g>
</g>
<!-- nd335&#45;&gt;nd351 -->
<g id="edge11" class="edge"><title>nd335:s&#45;&gt;nd351:w</title>
<path fill="none" stroke="black" d="M133.1,-82.5C133.1,-73.5197 164.42,-79.5 173.4,-79.5"/>
</g>
<!-- nd343&#45;&gt;nd386 -->
<g id="edge13" class="edge"><title>nd343:n&#45;&gt;nd386:w</title>
<path fill="none" stroke="black" d="M81.1,-57.5C81.1,-74.1726 101.927,-56.5 118.6,-56.5"/>
<text text-anchor="middle" x="107.1" y="-64.3" font-family="Times,serif" font-size="14.00">y</text>
</g>
<!-- nd459 -->
<g id="node17" class="node"><title>nd459</title>
<g id="a_node17"><a xlink:title="nd459&#45;ConstGraph">
<path fill="none" stroke="purple" d="M128.267,-29C128.267,-29 137.933,-29 137.933,-29 142.767,-29 147.6,-24.1667 147.6,-19.3333 147.6,-19.3333 147.6,-9.66667 147.6,-9.66667 147.6,-4.83333 142.767,-1.77636e-15 137.933,-1.77636e-15 137.933,-1.77636e-15 128.267,-1.77636e-15 128.267,-1.77636e-15 123.433,-1.77636e-15 118.6,-4.83333 118.6,-9.66667 118.6,-9.66667 118.6,-19.3333 118.6,-19.3333 118.6,-24.1667 123.433,-29 128.267,-29"/>
<text text-anchor="middle" x="133.1" y="-10.8" font-family="Times,serif" font-size="14.00">4</text>
</a>
</g>
</g>
<!-- nd343&#45;&gt;nd459 -->
<g id="edge5" class="edge"><title>nd343:s&#45;&gt;nd459:w</title>
<path fill="none" stroke="black" d="M81.1,-25.5C81.1,-8.13109 101.231,-14.5 118.6,-14.5"/>
<text text-anchor="middle" x="107.1" y="-18.3" font-family="Times,serif" font-size="14.00">n</text>
</g>
<!-- nd351&#45;&gt;nd182 -->
<g id="edge14" class="edge"><title>nd351:e&#45;&gt;nd182:w</title>
<path fill="none" stroke="black" d="M179.4,-79.5C193.533,-79.5 197.067,-79.5 211.2,-79.5"/>
<text text-anchor="middle" x="199.7" y="-83.3" font-family="Times,serif" font-size="14.00">x</text>
</g>
<!-- nd441 -->
<g id="node14" class="node"><title>nd441</title>
<g id="a_node14"><a xlink:title="nd441&#45;ContractGraph">
<ellipse fill="black" stroke="black" cx="292.3" cy="-64.5" rx="1.8" ry="1.8"/>
</a>
</g>
</g>
<!-- nd441&#45;&gt;nd39 -->
<g id="edge4" class="edge"><title>nd441:e&#45;&gt;nd39:w</title>
<path fill="none" stroke="black" d="M295.3,-64.5C307.967,-64.5 311.133,-64.5 323.8,-64.5"/>
</g>
<!-- nd453&#45;&gt;nd34 -->
<g id="edge3" class="edge"><title>nd453:e&#45;&gt;nd34:w</title>
<path fill="none" stroke="black" d="M260.8,-94.5C268.356,-94.5 270.244,-94.5 277.8,-94.5"/>
</g>
<!-- nd454&#45;&gt;nd441 -->
<g id="edge17" class="edge"><title>nd454:e&#45;&gt;nd441:w</title>
<path fill="none" stroke="black" d="M260.8,-64.5C273.467,-64.5 276.633,-64.5 289.3,-64.5"/>
</g>
</g>
</svg>
