<?xml version="1.0" encoding="UTF-8" standalone="no"?>
<!DOCTYPE svg PUBLIC "-//W3C//DTD SVG 1.1//EN"
 "http://www.w3.org/Graphics/SVG/1.1/DTD/svg11.dtd">
<!-- Generated by graphviz version 2.38.0 (20140413.2041)
 -->
<!-- Title: G Pages: 1 -->
<svg width="366pt" height="169pt"
 viewBox="0.00 0.00 366.20 168.69" xmlns="http://www.w3.org/2000/svg" xmlns:xlink="http://www.w3.org/1999/xlink">
<g id="graph0" class="graph" transform="scale(1 1) rotate(0) translate(4 164.687)">
<title>G</title>
<polygon fill="white" stroke="none" points="-4,4 -4,-164.687 362.2,-164.687 362.2,4 -4,4"/>
<g id="clust1" class="cluster"><title>cluster_nd395</title>
<polygon fill="none" stroke="orange" points="169.3,-132.412 169.3,-152.412 188.9,-152.412 188.9,-132.412 169.3,-132.412"/>
</g>
<g id="clust2" class="cluster"><title>cluster_nd338</title>
<polygon fill="none" stroke="orange" points="167.3,-80.412 167.3,-123.412 190.9,-123.412 190.9,-80.412 167.3,-80.412"/>
<text text-anchor="middle" x="179.1" y="-108.212" font-family="Times,serif" font-size="14.00">tl</text>
</g>
<!-- nd1 -->
<g id="node1" class="node"><title>nd1</title>
<ellipse fill="black" stroke="black" cx="1.8" cy="-77.412" rx="1.8" ry="1.8"/>
</g>
<!-- nd332 -->
<g id="node8" class="node"><title>nd332</title>
<g id="a_node8"><a xlink:title="nd332&#45;AppGraph">
<path fill="none" stroke="#000000" d="M27.5473,-87.4662C27.5473,-87.4662 23.6719,-81.8577 23.6719,-81.8577 22.136,-79.6348 22.136,-75.1891 23.6719,-72.9662 23.6719,-72.9662 27.5473,-67.3577 27.5473,-67.3577 29.0833,-65.1348 33.3212,-62.9142 36.0231,-62.9165 36.0231,-62.9165 41.4269,-62.921 41.4269,-62.921 44.1288,-62.9232 46.8307,-65.6274 46.8307,-68.3293 46.8307,-68.3293 46.8307,-86.4946 46.8307,-86.4946 46.8307,-89.1965 44.1288,-91.9007 41.4269,-91.9029 41.4269,-91.9029 36.0231,-91.9075 36.0231,-91.9075 33.3212,-91.9097 29.0833,-89.6891 27.5473,-87.4662"/>
<text text-anchor="middle" x="35.1" y="-73.712" font-family="Times,serif" font-size="14.00">@</text>
</a>
</g>
</g>
<!-- nd1&#45;&gt;nd332 -->
<g id="edge12" class="edge"><title>nd1:e&#45;&gt;nd332:w</title>
<path fill="none" stroke="#b70000" d="M3.6,-77.412C11.1556,-77.412 13.0444,-77.412 20.6,-77.412"/>
</g>
<!-- nd34 -->
<g id="node2" class="node"><title>nd34</title>
<g id="a_node2"><a xlink:title="nd34&#45;ConstGraph">
<path fill="none" stroke="purple" d="M292.867,-76.912C292.867,-76.912 302.533,-76.912 302.533,-76.912 307.367,-76.912 312.2,-72.0786 312.2,-67.2453 312.2,-67.2453 312.2,-57.5786 312.2,-57.5786 312.2,-52.7453 307.367,-47.912 302.533,-47.912 302.533,-47.912 292.867,-47.912 292.867,-47.912 288.033,-47.912 283.2,-52.7453 283.2,-57.5786 283.2,-57.5786 283.2,-67.2453 283.2,-67.2453 283.2,-72.0786 288.033,-76.912 292.867,-76.912"/>
<text text-anchor="middle" x="297.7" y="-58.712" font-family="Times,serif" font-size="14.00">4</text>
</a>
</g>
</g>
<!-- nd39 -->
<g id="node3" class="node"><title>nd39</title>
<g id="a_node3"><a xlink:title="nd39&#45;ConstEmptyGraph">
<path fill="none" stroke="purple" d="M338.867,-47.912C338.867,-47.912 348.533,-47.912 348.533,-47.912 353.367,-47.912 358.2,-43.0786 358.2,-38.2453 358.2,-38.2453 358.2,-28.5786 358.2,-28.5786 358.2,-23.7453 353.367,-18.912 348.533,-18.912 348.533,-18.912 338.867,-18.912 338.867,-18.912 334.033,-18.912 329.2,-23.7453 329.2,-28.5786 329.2,-28.5786 329.2,-38.2453 329.2,-38.2453 329.2,-43.0786 334.033,-47.912 338.867,-47.912"/>
<text text-anchor="middle" x="343.7" y="-29.712" font-family="Times,serif" font-size="14.00">[]</text>
</a>
</g>
</g>
<!-- nd182 -->
<g id="node4" class="node"><title>nd182</title>
<g id="a_node4"><a xlink:title="nd182&#45;ConstListGraph">
<path fill="none" stroke="purple" d="M226.267,-62.912C226.267,-62.912 235.933,-62.912 235.933,-62.912 240.767,-62.912 245.6,-58.0786 245.6,-53.2453 245.6,-53.2453 245.6,-43.5786 245.6,-43.5786 245.6,-38.7453 240.767,-33.912 235.933,-33.912 235.933,-33.912 226.267,-33.912 226.267,-33.912 221.433,-33.912 216.6,-38.7453 216.6,-43.5786 216.6,-43.5786 216.6,-53.2453 216.6,-53.2453 216.6,-58.0786 221.433,-62.912 226.267,-62.912"/>
<text text-anchor="middle" x="231.1" y="-44.712" font-family="Times,serif" font-size="14.00">::</text>
</a>
</g>
</g>
<!-- nd453 -->
<g id="node16" class="node"><title>nd453</title>
<g id="a_node16"><a xlink:title="nd453&#45;ContractGraph">
<ellipse fill="black" stroke="black" cx="264.4" cy="-62.412" rx="1.8" ry="1.8"/>
</a>
</g>
</g>
<!-- nd182&#45;&gt;nd453 -->
<g id="edge1" class="edge"><title>nd182:n&#45;&gt;nd453:w</title>
<path fill="none" stroke="black" d="M231.1,-64.412C231.1,-78.4402 248.572,-62.412 262.6,-62.412"/>
</g>
<!-- nd454 -->
<g id="node17" class="node"><title>nd454</title>
<g id="a_node17"><a xlink:title="nd454&#45;ContractGraph">
<ellipse fill="black" stroke="black" cx="264.4" cy="-33.412" rx="1.8" ry="1.8"/>
</a>
</g>
</g>
<!-- nd182&#45;&gt;nd454 -->
<g id="edge2" class="edge"><title>nd182:s&#45;&gt;nd454:w</title>
<path fill="none" stroke="black" d="M231.1,-32.412C231.1,-18.4049 248.593,-33.412 262.6,-33.412"/>
</g>
<!-- nd386 -->
<g id="node5" class="node"><title>nd386</title>
<g id="a_node5"><a xlink:title="nd386&#45;ConstGraph">
<path fill="none" stroke="purple" d="M174.267,-55.912C174.267,-55.912 183.933,-55.912 183.933,-55.912 188.767,-55.912 193.6,-51.0786 193.6,-46.2453 193.6,-46.2453 193.6,-36.5786 193.6,-36.5786 193.6,-31.7453 188.767,-26.912 183.933,-26.912 183.933,-26.912 174.267,-26.912 174.267,-26.912 169.433,-26.912 164.6,-31.7453 164.6,-36.5786 164.6,-36.5786 164.6,-46.2453 164.6,-46.2453 164.6,-51.0786 169.433,-55.912 174.267,-55.912"/>
<text text-anchor="middle" x="179.1" y="-37.712" font-family="Times,serif" font-size="14.00">6</text>
</a>
</g>
</g>
<!-- nd391 -->
<g id="node6" class="node"><title>nd391</title>
<g id="a_node6"><a xlink:title="nd391&#45;RecurGraph">
<ellipse fill="none" stroke="#000000" cx="127.1" cy="-124.412" rx="11" ry="11"/>
<text text-anchor="middle" x="127.1" y="-120.712" font-family="Times,serif" font-size="14.00">rec</text>
</a>
</g>
</g>
<!-- ndcluster_nd395 -->
<g id="node7" class="node"><title>ndcluster_nd395</title>
<g id="a_node7"><a xlink:title="nd395">
<ellipse fill="orange" stroke="orange" cx="179.1" cy="-142.412" rx="1.8" ry="1.8"/>
</a>
</g>
</g>
<!-- nd391&#45;&gt;ndcluster_nd395 -->
<g id="edge16" class="edge"><title>nd391:n&#45;&gt;ndcluster_nd395:e</title>
<path fill="none" stroke="grey" d="M127.1,-136.412C127.1,-187.007 190.08,-142.412 182.1,-142.412"/>
</g>
<!-- nd391&#45;&gt;ndcluster_nd395 -->
<g id="edge17" class="edge"><title>nd391:e&#45;&gt;ndcluster_nd395:w</title>
<path fill="none" stroke="black" d="M139.1,-124.412C157.387,-124.412 157.813,-142.412 176.1,-142.412"/>
</g>
<!-- nd333 -->
<g id="node9" class="node"><title>nd333</title>
<g id="a_node9"><a xlink:title="nd333&#45;AppGraph">
<path fill="none" stroke="#000000" d="M73.5473,-110.466C73.5473,-110.466 69.6719,-104.858 69.6719,-104.858 68.136,-102.635 68.136,-98.1891 69.6719,-95.9662 69.6719,-95.9662 73.5473,-90.3577 73.5473,-90.3577 75.0833,-88.1348 79.3212,-85.9142 82.0231,-85.9165 82.0231,-85.9165 87.4269,-85.921 87.4269,-85.921 90.1288,-85.9232 92.8307,-88.6274 92.8307,-91.3293 92.8307,-91.3293 92.8307,-109.495 92.8307,-109.495 92.8307,-112.197 90.1288,-114.901 87.4269,-114.903 87.4269,-114.903 82.0231,-114.907 82.0231,-114.907 79.3212,-114.91 75.0833,-112.689 73.5473,-110.466"/>
<text text-anchor="middle" x="81.1" y="-96.712" font-family="Times,serif" font-size="14.00">@</text>
</a>
</g>
</g>
<!-- nd332&#45;&gt;nd333 -->
<g id="edge9" class="edge"><title>nd332:e&#45;&gt;nd333:w</title>
<path fill="none" stroke="black" d="M48.1,-77.412C61.2186,-77.412 53.4814,-100.412 66.6,-100.412"/>
</g>
<!-- nd343 -->
<g id="node12" class="node"><title>nd343</title>
<g id="a_node12"><a xlink:title="nd343&#45;BinOpGraph">
<ellipse fill="none" stroke="#000000" cx="81.1" cy="-26.412" rx="14.5" ry="14.5"/>
<text text-anchor="middle" x="81.1" y="-22.712" font-family="Times,serif" font-size="14.00">+</text>
</a>
</g>
</g>
<!-- nd332&#45;&gt;nd343 -->
<g id="edge10" class="edge"><title>nd332:s&#45;&gt;nd343:w</title>
<path fill="none" stroke="#b70000" d="M35.1,-61.412C35.1,-40.4841 45.6721,-26.412 66.6,-26.412"/>
</g>
<!-- nd333&#45;&gt;nd391 -->
<g id="edge7" class="edge"><title>nd333:e&#45;&gt;nd391:w</title>
<path fill="none" stroke="black" d="M94.1,-100.412C108.274,-100.412 100.926,-124.412 115.1,-124.412"/>
</g>
<!-- nd335 -->
<g id="node10" class="node"><title>nd335</title>
<g id="a_node10"><a xlink:title="nd335&#45;AppGraph">
<path fill="none" stroke="#000000" d="M119.547,-95.4662C119.547,-95.4662 115.672,-89.8577 115.672,-89.8577 114.136,-87.6348 114.136,-83.1891 115.672,-80.9662 115.672,-80.9662 119.547,-75.3577 119.547,-75.3577 121.083,-73.1348 125.321,-70.9142 128.023,-70.9165 128.023,-70.9165 133.427,-70.921 133.427,-70.921 136.129,-70.9232 138.831,-73.6274 138.831,-76.3293 138.831,-76.3293 138.831,-94.4946 138.831,-94.4946 138.831,-97.1965 136.129,-99.9007 133.427,-99.9029 133.427,-99.9029 128.023,-99.9075 128.023,-99.9075 125.321,-99.9097 121.083,-97.6891 119.547,-95.4662"/>
<text text-anchor="middle" x="127.1" y="-81.712" font-family="Times,serif" font-size="14.00">@</text>
</a>
</g>
</g>
<!-- nd333&#45;&gt;nd335 -->
<g id="edge8" class="edge"><title>nd333:s&#45;&gt;nd335:w</title>
<path fill="none" stroke="black" d="M81.1,-84.412C81.1,-70.4049 98.5929,-85.412 112.6,-85.412"/>
</g>
<!-- ndcluster_nd338 -->
<g id="node11" class="node"><title>ndcluster_nd338</title>
<g id="a_node11"><a xlink:title="nd338">
<ellipse fill="orange" stroke="orange" cx="179.1" cy="-90.412" rx="1.8" ry="1.8"/>
</a>
</g>
</g>
<!-- nd335&#45;&gt;ndcluster_nd338 -->
<g id="edge6" class="edge"><title>nd335:e&#45;&gt;ndcluster_nd338:w</title>
<path fill="none" stroke="black" d="M140.1,-85.412C156.254,-85.412 159.946,-90.412 176.1,-90.412"/>
</g>
<!-- nd351 -->
<g id="node13" class="node"><title>nd351</title>
<g id="a_node13"><a xlink:title="nd351&#45;ContractGraph">
<ellipse fill="black" stroke="black" cx="179.1" cy="-70.412" rx="1.8" ry="1.8"/>
</a>
</g>
</g>
<!-- nd335&#45;&gt;nd351 -->
<g id="edge11" class="edge"><title>nd335:s&#45;&gt;nd351:w</title>
<path fill="none" stroke="black" d="M127.1,-69.412C127.1,-47.6297 154.318,-70.412 176.1,-70.412"/>
</g>
<!-- nd352 -->
<g id="node14" class="node"><title>nd352</title>
<g id="a_node14"><a xlink:title="nd352&#45;ContractGraph">
<ellipse fill="black" stroke="black" cx="127.1" cy="-41.412" rx="1.8" ry="1.8"/>
</a>
</g>
</g>
<!-- nd343&#45;&gt;nd352 -->
<g id="edge13" class="edge"><title>nd343:n&#45;&gt;nd352:w</title>
<path fill="none" stroke="black" d="M81.1,-42.412C81.1,-61.5282 104.984,-41.412 124.1,-41.412"/>
</g>
<!-- nd343&#45;&gt;nd453 -->
<g id="edge5" class="edge"><title>nd343:s&#45;&gt;nd453:w</title>
<path fill="none" stroke="#b70000" d="M81.1,-10.412C81.1,9.66689 106.021,-6.41196 126.1,-6.41196 126.1,-6.41196 126.1,-6.41196 232.1,-6.41196 260.441,-6.41196 234.259,-62.412 262.6,-62.412"/>
</g>
<!-- nd351&#45;&gt;nd182 -->
<g id="edge15" class="edge"><title>nd351:e&#45;&gt;nd182:w</title>
<path fill="none" stroke="black" d="M182.1,-70.412C200.286,-70.412 198.414,-48.412 216.6,-48.412"/>
<text text-anchor="middle" x="205.1" y="-60.212" font-family="Times,serif" font-size="14.00">x</text>
</g>
<!-- nd352&#45;&gt;nd386 -->
<g id="edge14" class="edge"><title>nd352:e&#45;&gt;nd386:w</title>
<path fill="none" stroke="black" d="M130.1,-41.412C145.433,-41.412 149.267,-41.412 164.6,-41.412"/>
<text text-anchor="middle" x="153.1" y="-45.212" font-family="Times,serif" font-size="14.00">y</text>
</g>
<!-- nd441 -->
<g id="node15" class="node"><title>nd441</title>
<g id="a_node15"><a xlink:title="nd441&#45;ContractGraph">
<ellipse fill="black" stroke="black" cx="297.7" cy="-33.412" rx="1.8" ry="1.8"/>
</a>
</g>
</g>
<!-- nd441&#45;&gt;nd39 -->
<g id="edge4" class="edge"><title>nd441:e&#45;&gt;nd39:w</title>
<path fill="none" stroke="black" d="M300.7,-33.412C313.367,-33.412 316.533,-33.412 329.2,-33.412"/>
</g>
<!-- nd453&#45;&gt;nd34 -->
<g id="edge3" class="edge"><title>nd453:e&#45;&gt;nd34:w</title>
<path fill="none" stroke="red" d="M266.2,-62.412C269.033,-62.412 271.07,-62.412 272.907,-62.412"/>
<polygon fill="red" stroke="red" points="273.2,-65.9121 283.2,-62.412 273.2,-58.9121 273.2,-65.9121"/>
</g>
<!-- nd454&#45;&gt;nd441 -->
<g id="edge18" class="edge"><title>nd454:e&#45;&gt;nd441:w</title>
<path fill="none" stroke="black" d="M266.2,-33.412C278.867,-33.412 282.033,-33.412 294.7,-33.412"/>
</g>
</g>
</svg>
