<?xml version="1.0" encoding="UTF-8" standalone="no"?>
<!DOCTYPE svg PUBLIC "-//W3C//DTD SVG 1.1//EN"
 "http://www.w3.org/Graphics/SVG/1.1/DTD/svg11.dtd">
<!-- Generated by graphviz version 2.38.0 (20140413.2041)
 -->
<!-- Title: G Pages: 1 -->
<svg width="647pt" height="231pt"
 viewBox="0.00 0.00 647.20 231.00" xmlns="http://www.w3.org/2000/svg" xmlns:xlink="http://www.w3.org/1999/xlink">
<g id="graph0" class="graph" transform="scale(1 1) rotate(0) translate(4 227)">
<title>G</title>
<polygon fill="white" stroke="none" points="-4,4 -4,-227 643.2,-227 643.2,4 -4,4"/>
<g id="clust1" class="cluster"><title>cluster_nd241</title>
<polygon fill="none" stroke="orange" points="337.3,-160 337.3,-180 356.9,-180 356.9,-160 337.3,-160"/>
</g>
<g id="clust2" class="cluster"><title>cluster_nd150</title>
<polygon fill="none" stroke="orange" points="430.3,-172 430.3,-215 480.9,-215 480.9,-172 430.3,-172"/>
<text text-anchor="middle" x="455.6" y="-199.8" font-family="Times,serif" font-size="14.00">empty</text>
</g>
<g id="clust3" class="cluster"><title>cluster_nd160</title>
<polygon fill="none" stroke="orange" points="335.3,-71 335.3,-114 358.9,-114 358.9,-71 335.3,-71"/>
<text text-anchor="middle" x="347.1" y="-98.8" font-family="Times,serif" font-size="14.00">tl</text>
</g>
<g id="clust4" class="cluster"><title>cluster_nd169</title>
<polygon fill="none" stroke="orange" points="332.3,-8 332.3,-51 361.9,-51 361.9,-8 332.3,-8"/>
<text text-anchor="middle" x="347.1" y="-35.8" font-family="Times,serif" font-size="14.00">hd</text>
</g>
<!-- nd1 -->
<g id="node1" class="node"><title>nd1</title>
<ellipse fill="black" stroke="black" cx="1.8" cy="-159" rx="1.8" ry="1.8"/>
</g>
<!-- nd146 -->
<g id="node12" class="node"><title>nd146</title>
<g id="a_node12"><a xlink:title="nd146&#45;IfGraph">
<ellipse fill="none" stroke="#000000" cx="35.1" cy="-159" rx="14.5" ry="14.5"/>
<text text-anchor="middle" x="35.1" y="-155.3" font-family="Times,serif" font-size="14.00">if</text>
</a>
</g>
</g>
<!-- nd1&#45;&gt;nd146 -->
<g id="edge23" class="edge"><title>nd1:e&#45;&gt;nd146:w</title>
<path fill="none" stroke="#b70000" d="M3.6,-159C11.1556,-159 13.0444,-159 20.6,-159"/>
</g>
<!-- nd22 -->
<g id="node2" class="node"><title>nd22</title>
<g id="a_node2"><a xlink:title="nd22&#45;ConstGraph">
<path fill="none" stroke="purple" d="M527.867,-163.5C527.867,-163.5 537.533,-163.5 537.533,-163.5 542.367,-163.5 547.2,-158.667 547.2,-153.833 547.2,-153.833 547.2,-144.167 547.2,-144.167 547.2,-139.333 542.367,-134.5 537.533,-134.5 537.533,-134.5 527.867,-134.5 527.867,-134.5 523.033,-134.5 518.2,-139.333 518.2,-144.167 518.2,-144.167 518.2,-153.833 518.2,-153.833 518.2,-158.667 523.033,-163.5 527.867,-163.5"/>
<text text-anchor="middle" x="532.7" y="-145.3" font-family="Times,serif" font-size="14.00">2</text>
</a>
</g>
</g>
<!-- nd28 -->
<g id="node3" class="node"><title>nd28</title>
<g id="a_node3"><a xlink:title="nd28&#45;ConstGraph">
<path fill="none" stroke="purple" d="M573.867,-136.5C573.867,-136.5 583.533,-136.5 583.533,-136.5 588.367,-136.5 593.2,-131.667 593.2,-126.833 593.2,-126.833 593.2,-117.167 593.2,-117.167 593.2,-112.333 588.367,-107.5 583.533,-107.5 583.533,-107.5 573.867,-107.5 573.867,-107.5 569.033,-107.5 564.2,-112.333 564.2,-117.167 564.2,-117.167 564.2,-126.833 564.2,-126.833 564.2,-131.667 569.033,-136.5 573.867,-136.5"/>
<text text-anchor="middle" x="578.7" y="-118.3" font-family="Times,serif" font-size="14.00">3</text>
</a>
</g>
</g>
<!-- nd34 -->
<g id="node4" class="node"><title>nd34</title>
<g id="a_node4"><a xlink:title="nd34&#45;ConstGraph">
<path fill="none" stroke="purple" d="M619.867,-115.5C619.867,-115.5 629.533,-115.5 629.533,-115.5 634.367,-115.5 639.2,-110.667 639.2,-105.833 639.2,-105.833 639.2,-96.1667 639.2,-96.1667 639.2,-91.3333 634.367,-86.5 629.533,-86.5 629.533,-86.5 619.867,-86.5 619.867,-86.5 615.033,-86.5 610.2,-91.3333 610.2,-96.1667 610.2,-96.1667 610.2,-105.833 610.2,-105.833 610.2,-110.667 615.033,-115.5 619.867,-115.5"/>
<text text-anchor="middle" x="624.7" y="-97.3" font-family="Times,serif" font-size="14.00">4</text>
</a>
</g>
</g>
<!-- nd39 -->
<g id="node5" class="node"><title>nd39</title>
<g id="a_node5"><a xlink:title="nd39&#45;ConstEmptyGraph">
<path fill="none" stroke="purple" d="M619.867,-73.5C619.867,-73.5 629.533,-73.5 629.533,-73.5 634.367,-73.5 639.2,-68.6667 639.2,-63.8333 639.2,-63.8333 639.2,-54.1667 639.2,-54.1667 639.2,-49.3333 634.367,-44.5 629.533,-44.5 629.533,-44.5 619.867,-44.5 619.867,-44.5 615.033,-44.5 610.2,-49.3333 610.2,-54.1667 610.2,-54.1667 610.2,-63.8333 610.2,-63.8333 610.2,-68.6667 615.033,-73.5 619.867,-73.5"/>
<text text-anchor="middle" x="624.7" y="-55.3" font-family="Times,serif" font-size="14.00">[]</text>
</a>
</g>
</g>
<!-- nd182 -->
<g id="node6" class="node"><title>nd182</title>
<g id="a_node6"><a xlink:title="nd182&#45;ConstListGraph">
<path fill="none" stroke="purple" d="M573.867,-94.5C573.867,-94.5 583.533,-94.5 583.533,-94.5 588.367,-94.5 593.2,-89.6667 593.2,-84.8333 593.2,-84.8333 593.2,-75.1667 593.2,-75.1667 593.2,-70.3333 588.367,-65.5 583.533,-65.5 583.533,-65.5 573.867,-65.5 573.867,-65.5 569.033,-65.5 564.2,-70.3333 564.2,-75.1667 564.2,-75.1667 564.2,-84.8333 564.2,-84.8333 564.2,-89.6667 569.033,-94.5 573.867,-94.5"/>
<text text-anchor="middle" x="578.7" y="-76.3" font-family="Times,serif" font-size="14.00">::</text>
</a>
</g>
</g>
<!-- nd182&#45;&gt;nd34 -->
<g id="edge1" class="edge"><title>nd182:n&#45;&gt;nd34:w</title>
<path fill="none" stroke="purple" d="M578.7,-96C578.7,-99.5438 606.656,-101 610.2,-101"/>
</g>
<!-- nd182&#45;&gt;nd39 -->
<g id="edge2" class="edge"><title>nd182:s&#45;&gt;nd39:w</title>
<path fill="none" stroke="purple" d="M578.7,-64C578.7,-49.8247 596.025,-59 610.2,-59"/>
</g>
<!-- nd188 -->
<g id="node7" class="node"><title>nd188</title>
<g id="a_node7"><a xlink:title="nd188&#45;ConstListGraph">
<path fill="none" stroke="purple" d="M527.867,-115.5C527.867,-115.5 537.533,-115.5 537.533,-115.5 542.367,-115.5 547.2,-110.667 547.2,-105.833 547.2,-105.833 547.2,-96.1667 547.2,-96.1667 547.2,-91.3333 542.367,-86.5 537.533,-86.5 537.533,-86.5 527.867,-86.5 527.867,-86.5 523.033,-86.5 518.2,-91.3333 518.2,-96.1667 518.2,-96.1667 518.2,-105.833 518.2,-105.833 518.2,-110.667 523.033,-115.5 527.867,-115.5"/>
<text text-anchor="middle" x="532.7" y="-97.3" font-family="Times,serif" font-size="14.00">::</text>
</a>
</g>
</g>
<!-- nd188&#45;&gt;nd28 -->
<g id="edge3" class="edge"><title>nd188:n&#45;&gt;nd28:w</title>
<path fill="none" stroke="purple" d="M532.7,-117C532.7,-131.175 550.025,-122 564.2,-122"/>
</g>
<!-- nd188&#45;&gt;nd182 -->
<g id="edge4" class="edge"><title>nd188:s&#45;&gt;nd182:w</title>
<path fill="none" stroke="purple" d="M532.7,-85C532.7,-70.8247 550.025,-80 564.2,-80"/>
</g>
<!-- nd194 -->
<g id="node8" class="node"><title>nd194</title>
<g id="a_node8"><a xlink:title="nd194&#45;ConstListGraph">
<path fill="none" stroke="purple" d="M450.267,-112.5C450.267,-112.5 459.933,-112.5 459.933,-112.5 464.767,-112.5 469.6,-107.667 469.6,-102.833 469.6,-102.833 469.6,-93.1667 469.6,-93.1667 469.6,-88.3333 464.767,-83.5 459.933,-83.5 459.933,-83.5 450.267,-83.5 450.267,-83.5 445.433,-83.5 440.6,-88.3333 440.6,-93.1667 440.6,-93.1667 440.6,-102.833 440.6,-102.833 440.6,-107.667 445.433,-112.5 450.267,-112.5"/>
<text text-anchor="middle" x="455.1" y="-94.3" font-family="Times,serif" font-size="14.00">::</text>
</a>
</g>
</g>
<!-- nd286 -->
<g id="node26" class="node"><title>nd286</title>
<g id="a_node26"><a xlink:title="nd286&#45;ContractGraph">
<ellipse fill="black" stroke="black" cx="499.4" cy="-149" rx="1.8" ry="1.8"/>
</a>
</g>
</g>
<!-- nd194&#45;&gt;nd286 -->
<g id="edge5" class="edge"><title>nd194:n&#45;&gt;nd286:w</title>
<path fill="none" stroke="black" d="M455.1,-114C455.1,-126.646 471.139,-117.959 480.9,-126 490.65,-134.032 484.967,-149 497.6,-149"/>
</g>
<!-- nd287 -->
<g id="node27" class="node"><title>nd287</title>
<g id="a_node27"><a xlink:title="nd287&#45;ContractGraph">
<ellipse fill="black" stroke="black" cx="499.4" cy="-101" rx="1.8" ry="1.8"/>
</a>
</g>
</g>
<!-- nd194&#45;&gt;nd287 -->
<g id="edge6" class="edge"><title>nd194:s&#45;&gt;nd287:w</title>
<path fill="none" stroke="black" d="M455.1,-82C455.1,-75.5402 463.468,-80.9674 469.6,-83 483.643,-87.6551 482.806,-101 497.6,-101"/>
</g>
<!-- nd232 -->
<g id="node9" class="node"><title>nd232</title>
<g id="a_node9"><a xlink:title="nd232&#45;ConstGraph">
<path fill="none" stroke="purple" d="M342.267,-151.5C342.267,-151.5 351.933,-151.5 351.933,-151.5 356.767,-151.5 361.6,-146.667 361.6,-141.833 361.6,-141.833 361.6,-132.167 361.6,-132.167 361.6,-127.333 356.767,-122.5 351.933,-122.5 351.933,-122.5 342.267,-122.5 342.267,-122.5 337.433,-122.5 332.6,-127.333 332.6,-132.167 332.6,-132.167 332.6,-141.833 332.6,-141.833 332.6,-146.667 337.433,-151.5 342.267,-151.5"/>
<text text-anchor="middle" x="347.1" y="-133.3" font-family="Times,serif" font-size="14.00">1</text>
</a>
</g>
</g>
<!-- nd237 -->
<g id="node10" class="node"><title>nd237</title>
<g id="a_node10"><a xlink:title="nd237&#45;RecurGraph">
<ellipse fill="none" stroke="#000000" cx="295.1" cy="-157" rx="11" ry="11"/>
<text text-anchor="middle" x="295.1" y="-153.3" font-family="Times,serif" font-size="14.00">rec</text>
</a>
</g>
</g>
<!-- ndcluster_nd241 -->
<g id="node11" class="node"><title>ndcluster_nd241</title>
<g id="a_node11"><a xlink:title="nd241">
<ellipse fill="orange" stroke="orange" cx="347.1" cy="-170" rx="1.8" ry="1.8"/>
</a>
</g>
</g>
<!-- nd237&#45;&gt;ndcluster_nd241 -->
<g id="edge28" class="edge"><title>nd237:n&#45;&gt;ndcluster_nd241:e</title>
<path fill="none" stroke="grey" d="M295.1,-169C295.1,-191.346 322.963,-171.178 345.3,-171.8 346.988,-171.847 347.644,-172.656 349.1,-171.8 349.889,-171.336 351.015,-170 350.1,-170"/>
</g>
<!-- nd237&#45;&gt;ndcluster_nd241 -->
<g id="edge29" class="edge"><title>nd237:e&#45;&gt;ndcluster_nd241:w</title>
<path fill="none" stroke="black" d="M307.1,-157C324.53,-157 326.67,-170 344.1,-170"/>
</g>
<!-- nd147 -->
<g id="node13" class="node"><title>nd147</title>
<g id="a_node13"><a xlink:title="nd147&#45;AppGraph">
<path fill="none" stroke="#000000" d="M385.547,-192.054C385.547,-192.054 381.672,-186.446 381.672,-186.446 380.136,-184.223 380.136,-179.777 381.672,-177.554 381.672,-177.554 385.547,-171.946 385.547,-171.946 387.083,-169.723 391.321,-167.502 394.023,-167.505 394.023,-167.505 399.427,-167.509 399.427,-167.509 402.129,-167.511 404.831,-170.215 404.831,-172.917 404.831,-172.917 404.831,-191.083 404.831,-191.083 404.831,-193.785 402.129,-196.489 399.427,-196.491 399.427,-196.491 394.023,-196.495 394.023,-196.495 391.321,-196.498 387.083,-194.277 385.547,-192.054"/>
<text text-anchor="middle" x="393.1" y="-178.3" font-family="Times,serif" font-size="14.00">@</text>
</a>
</g>
</g>
<!-- nd146&#45;&gt;nd147 -->
<g id="edge17" class="edge"><title>nd146:n&#45;&gt;nd147:w</title>
<path fill="none" stroke="#b70000" d="M35.1,-175C35.1,-212.945 80.1553,-195 118.1,-195 118.1,-195 118.1,-195 348.1,-195 362.836,-195 363.864,-182 378.6,-182"/>
<text text-anchor="middle" x="246.6" y="-198.8" font-family="Times,serif" font-size="14.00">condition</text>
</g>
<!-- nd154 -->
<g id="node15" class="node"><title>nd154</title>
<g id="a_node15"><a xlink:title="nd154&#45;AppGraph">
<path fill="none" stroke="#000000" d="M111.547,-134.054C111.547,-134.054 107.672,-128.446 107.672,-128.446 106.136,-126.223 106.136,-121.777 107.672,-119.554 107.672,-119.554 111.547,-113.946 111.547,-113.946 113.083,-111.723 117.321,-109.502 120.023,-109.505 120.023,-109.505 125.427,-109.509 125.427,-109.509 128.129,-109.511 130.831,-112.215 130.831,-114.917 130.831,-114.917 130.831,-133.083 130.831,-133.083 130.831,-135.785 128.129,-138.489 125.427,-138.491 125.427,-138.491 120.023,-138.495 120.023,-138.495 117.321,-138.498 113.083,-136.277 111.547,-134.054"/>
<text text-anchor="middle" x="119.1" y="-120.3" font-family="Times,serif" font-size="14.00">@</text>
</a>
</g>
</g>
<!-- nd146&#45;&gt;nd154 -->
<g id="edge18" class="edge"><title>nd146:s&#45;&gt;nd154:w</title>
<path fill="none" stroke="grey" d="M35.1,-143C35.1,-130.923 78.9954,-124 104.6,-124"/>
<text text-anchor="middle" x="77.1" y="-132.8" font-family="Times,serif" font-size="14.00">is false</text>
</g>
<!-- nd174 -->
<g id="node23" class="node"><title>nd174</title>
<g id="a_node23"><a xlink:title="nd174&#45;ContractGraph">
<ellipse fill="black" stroke="black" cx="295.1" cy="-130" rx="1.8" ry="1.8"/>
</a>
</g>
</g>
<!-- nd146&#45;&gt;nd174 -->
<g id="edge20" class="edge"><title>nd146:e&#45;&gt;nd174:w</title>
<path fill="none" stroke="grey" d="M49.6,-159C122.311,-159 140.561,-154.864 212.6,-145 248.224,-140.122 256.143,-130 292.1,-130"/>
<text text-anchor="middle" x="158.6" y="-157.8" font-family="Times,serif" font-size="14.00">is true</text>
</g>
<!-- ndcluster_nd150 -->
<g id="node14" class="node"><title>ndcluster_nd150</title>
<g id="a_node14"><a xlink:title="nd150">
<ellipse fill="orange" stroke="orange" cx="455.1" cy="-182" rx="1.8" ry="1.8"/>
</a>
</g>
</g>
<!-- nd147&#45;&gt;ndcluster_nd150 -->
<g id="edge7" class="edge"><title>nd147:e&#45;&gt;ndcluster_nd150:w</title>
<path fill="none" stroke="black" d="M406.1,-182C426.544,-182 431.656,-182 452.1,-182"/>
</g>
<!-- nd283 -->
<g id="node25" class="node"><title>nd283</title>
<g id="a_node25"><a xlink:title="nd283&#45;ConstListGraph">
<path fill="none" stroke="purple" d="M450.267,-161.5C450.267,-161.5 459.933,-161.5 459.933,-161.5 464.767,-161.5 469.6,-156.667 469.6,-151.833 469.6,-151.833 469.6,-142.167 469.6,-142.167 469.6,-137.333 464.767,-132.5 459.933,-132.5 459.933,-132.5 450.267,-132.5 450.267,-132.5 445.433,-132.5 440.6,-137.333 440.6,-142.167 440.6,-142.167 440.6,-151.833 440.6,-151.833 440.6,-156.667 445.433,-161.5 450.267,-161.5"/>
<text text-anchor="middle" x="455.1" y="-143.3" font-family="Times,serif" font-size="14.00">::</text>
</a>
</g>
</g>
<!-- nd147&#45;&gt;nd283 -->
<g id="edge21" class="edge"><title>nd147:s&#45;&gt;nd283:w</title>
<path fill="none" stroke="red" d="M395.45,-156.033C401.993,-144.94 421.128,-147 439.1,-147"/>
<polygon fill="red" stroke="red" points="391.988,-155.464 393.1,-166 398.801,-157.07 391.988,-155.464"/>
<text text-anchor="middle" x="419.1" y="-150.8" font-family="Times,serif" font-size="14.00">x</text>
</g>
<!-- nd155 -->
<g id="node16" class="node"><title>nd155</title>
<g id="a_node16"><a xlink:title="nd155&#45;AppGraph">
<path fill="none" stroke="#000000" d="M190.547,-134.054C190.547,-134.054 186.672,-128.446 186.672,-128.446 185.136,-126.223 185.136,-121.777 186.672,-119.554 186.672,-119.554 190.547,-113.946 190.547,-113.946 192.083,-111.723 196.321,-109.502 199.023,-109.505 199.023,-109.505 204.427,-109.509 204.427,-109.509 207.129,-109.511 209.831,-112.215 209.831,-114.917 209.831,-114.917 209.831,-133.083 209.831,-133.083 209.831,-135.785 207.129,-138.489 204.427,-138.491 204.427,-138.491 199.023,-138.495 199.023,-138.495 196.321,-138.498 192.083,-136.277 190.547,-134.054"/>
<text text-anchor="middle" x="198.1" y="-120.3" font-family="Times,serif" font-size="14.00">@</text>
</a>
</g>
</g>
<!-- nd154&#45;&gt;nd155 -->
<g id="edge13" class="edge"><title>nd154:e&#45;&gt;nd155:w</title>
<path fill="none" stroke="black" d="M132.1,-124C154.989,-124 160.711,-124 183.6,-124"/>
</g>
<!-- nd165 -->
<g id="node19" class="node"><title>nd165</title>
<g id="a_node19"><a xlink:title="nd165&#45;BinOpGraph">
<ellipse fill="none" stroke="#000000" cx="198.1" cy="-75" rx="14.5" ry="14.5"/>
<text text-anchor="middle" x="198.1" y="-71.3" font-family="Times,serif" font-size="14.00">+</text>
</a>
</g>
</g>
<!-- nd154&#45;&gt;nd165 -->
<g id="edge14" class="edge"><title>nd154:s&#45;&gt;nd165:w</title>
<path fill="none" stroke="black" d="M119.1,-108C119.1,-75.7992 151.399,-75 183.6,-75"/>
</g>
<!-- nd155&#45;&gt;nd237 -->
<g id="edge9" class="edge"><title>nd155:e&#45;&gt;nd237:w</title>
<path fill="none" stroke="black" d="M211.1,-124C246.301,-124 247.899,-157 283.1,-157"/>
</g>
<!-- nd157 -->
<g id="node17" class="node"><title>nd157</title>
<g id="a_node17"><a xlink:title="nd157&#45;AppGraph">
<path fill="none" stroke="#000000" d="M287.547,-103.054C287.547,-103.054 283.672,-97.4457 283.672,-97.4457 282.136,-95.2229 282.136,-90.7771 283.672,-88.5543 283.672,-88.5543 287.547,-82.9457 287.547,-82.9457 289.083,-80.7229 293.321,-78.5023 296.023,-78.5045 296.023,-78.5045 301.427,-78.509 301.427,-78.509 304.129,-78.5113 306.831,-81.2155 306.831,-83.9174 306.831,-83.9174 306.831,-102.083 306.831,-102.083 306.831,-104.785 304.129,-107.489 301.427,-107.491 301.427,-107.491 296.023,-107.495 296.023,-107.495 293.321,-107.498 289.083,-105.277 287.547,-103.054"/>
<text text-anchor="middle" x="295.1" y="-89.3" font-family="Times,serif" font-size="14.00">@</text>
</a>
</g>
</g>
<!-- nd155&#45;&gt;nd157 -->
<g id="edge10" class="edge"><title>nd155:s&#45;&gt;nd157:w</title>
<path fill="none" stroke="black" d="M198.1,-108C198.1,-89.3661 261.966,-93 280.6,-93"/>
</g>
<!-- ndcluster_nd160 -->
<g id="node18" class="node"><title>ndcluster_nd160</title>
<g id="a_node18"><a xlink:title="nd160">
<ellipse fill="orange" stroke="orange" cx="347.1" cy="-81" rx="1.8" ry="1.8"/>
</a>
</g>
</g>
<!-- nd157&#45;&gt;ndcluster_nd160 -->
<g id="edge8" class="edge"><title>nd157:e&#45;&gt;ndcluster_nd160:w</title>
<path fill="none" stroke="black" d="M308.1,-93C324.965,-93 327.235,-81 344.1,-81"/>
</g>
<!-- nd173 -->
<g id="node22" class="node"><title>nd173</title>
<g id="a_node22"><a xlink:title="nd173&#45;ContractGraph">
<ellipse fill="black" stroke="black" cx="347.1" cy="-61" rx="1.8" ry="1.8"/>
</a>
</g>
</g>
<!-- nd157&#45;&gt;nd173 -->
<g id="edge16" class="edge"><title>nd157:s&#45;&gt;nd173:w</title>
<path fill="none" stroke="black" d="M295.1,-77C295.1,-76.642 343.742,-61 344.1,-61"/>
</g>
<!-- nd166 -->
<g id="node20" class="node"><title>nd166</title>
<g id="a_node20"><a xlink:title="nd166&#45;AppGraph">
<path fill="none" stroke="#000000" d="M287.547,-61.0543C287.547,-61.0543 283.672,-55.4457 283.672,-55.4457 282.136,-53.2229 282.136,-48.7771 283.672,-46.5543 283.672,-46.5543 287.547,-40.9457 287.547,-40.9457 289.083,-38.7229 293.321,-36.5023 296.023,-36.5045 296.023,-36.5045 301.427,-36.509 301.427,-36.509 304.129,-36.5113 306.831,-39.2155 306.831,-41.9174 306.831,-41.9174 306.831,-60.0826 306.831,-60.0826 306.831,-62.7845 304.129,-65.4887 301.427,-65.491 301.427,-65.491 296.023,-65.4955 296.023,-65.4955 293.321,-65.4977 289.083,-63.2771 287.547,-61.0543"/>
<text text-anchor="middle" x="295.1" y="-47.3" font-family="Times,serif" font-size="14.00">@</text>
</a>
</g>
</g>
<!-- nd165&#45;&gt;nd166 -->
<g id="edge12" class="edge"><title>nd165:s&#45;&gt;nd166:w</title>
<path fill="none" stroke="black" d="M198.1,-59C198.1,-22.1613 243.761,-51 280.6,-51"/>
</g>
<!-- nd165&#45;&gt;nd174 -->
<g id="edge19" class="edge"><title>nd165:n&#45;&gt;nd174:w</title>
<path fill="none" stroke="black" d="M198.1,-91C198.1,-99.9237 264.407,-117.462 272.6,-121 281.363,-124.784 282.555,-130 292.1,-130"/>
</g>
<!-- ndcluster_nd169 -->
<g id="node21" class="node"><title>ndcluster_nd169</title>
<g id="a_node21"><a xlink:title="nd169">
<ellipse fill="orange" stroke="orange" cx="347.1" cy="-18" rx="1.8" ry="1.8"/>
</a>
</g>
</g>
<!-- nd166&#45;&gt;ndcluster_nd169 -->
<g id="edge11" class="edge"><title>nd166:e&#45;&gt;ndcluster_nd169:w</title>
<path fill="none" stroke="black" d="M308.1,-51C329.805,-51 322.395,-18 344.1,-18"/>
</g>
<!-- nd166&#45;&gt;nd173 -->
<g id="edge15" class="edge"><title>nd166:s&#45;&gt;nd173:w</title>
<path fill="none" stroke="black" d="M295.1,-35C295.1,-28.5402 303.577,-33.6662 309.6,-36 327.257,-42.8412 325.164,-61 344.1,-61"/>
</g>
<!-- nd175 -->
<g id="node24" class="node"><title>nd175</title>
<g id="a_node24"><a xlink:title="nd175&#45;ContractGraph">
<ellipse fill="black" stroke="black" cx="393.1" cy="-69" rx="1.8" ry="1.8"/>
</a>
</g>
</g>
<!-- nd173&#45;&gt;nd175 -->
<g id="edge22" class="edge"><title>nd173:e&#45;&gt;nd175:w</title>
<path fill="none" stroke="black" d="M350.1,-61C368.23,-61 371.97,-69 390.1,-69"/>
</g>
<!-- nd174&#45;&gt;nd232 -->
<g id="edge24" class="edge"><title>nd174:e&#45;&gt;nd232:w</title>
<path fill="none" stroke="black" d="M298.1,-130C309.911,-130 313.409,-128.222 324.6,-132 328.466,-133.305 328.22,-137 332.3,-137"/>
<text text-anchor="middle" x="321.1" y="-135.8" font-family="Times,serif" font-size="14.00">y</text>
</g>
<!-- nd175&#45;&gt;nd194 -->
<g id="edge25" class="edge"><title>nd175:e&#45;&gt;nd194:w</title>
<path fill="none" stroke="black" d="M396.1,-69C419.151,-69 416.049,-98 439.1,-98"/>
<text text-anchor="middle" x="419.1" y="-93.8" font-family="Times,serif" font-size="14.00">x</text>
</g>
<!-- nd283&#45;&gt;nd286 -->
<g id="edge30" class="edge"><title>nd283:n&#45;&gt;nd286:w</title>
<path fill="none" stroke="black" d="M455.1,-163C455.1,-169.46 463.344,-163.609 469.6,-162 482.888,-158.582 483.88,-149 497.6,-149"/>
</g>
<!-- nd283&#45;&gt;nd287 -->
<g id="edge31" class="edge"><title>nd283:s&#45;&gt;nd287:w</title>
<path fill="none" stroke="black" d="M455.1,-131C455.1,-118.354 470.675,-126.441 480.9,-119 489.724,-112.579 486.687,-101 497.6,-101"/>
</g>
<!-- nd286&#45;&gt;nd22 -->
<g id="edge26" class="edge"><title>nd286:e&#45;&gt;nd22:w</title>
<path fill="none" stroke="black" d="M501.2,-149C508.756,-149 510.644,-149 518.2,-149"/>
</g>
<!-- nd287&#45;&gt;nd188 -->
<g id="edge27" class="edge"><title>nd287:e&#45;&gt;nd188:w</title>
<path fill="none" stroke="black" d="M501.2,-101C508.756,-101 510.644,-101 518.2,-101"/>
</g>
</g>
</svg>
