<?xml version="1.0" encoding="UTF-8" standalone="no"?>
<!DOCTYPE svg PUBLIC "-//W3C//DTD SVG 1.1//EN"
 "http://www.w3.org/Graphics/SVG/1.1/DTD/svg11.dtd">
<!-- Generated by graphviz version 2.38.0 (20140413.2041)
 -->
<!-- Title: G Pages: 1 -->
<svg width="535pt" height="242pt"
 viewBox="0.00 0.00 535.20 241.50" xmlns="http://www.w3.org/2000/svg" xmlns:xlink="http://www.w3.org/1999/xlink">
<g id="graph0" class="graph" transform="scale(1 1) rotate(0) translate(4 237.5)">
<title>G</title>
<polygon fill="white" stroke="none" points="-4,4 -4,-237.5 531.2,-237.5 531.2,4 -4,4"/>
<g id="clust1" class="cluster"><title>cluster_nd140</title>
<polygon fill="none" stroke="orange" points="163.3,-205.5 163.3,-225.5 182.9,-225.5 182.9,-205.5 163.3,-205.5"/>
</g>
<g id="clust2" class="cluster"><title>cluster_nd91</title>
<polygon fill="none" stroke="orange" points="161.3,-153.5 161.3,-196.5 184.9,-196.5 184.9,-153.5 161.3,-153.5"/>
<text text-anchor="middle" x="173.1" y="-181.3" font-family="Times,serif" font-size="14.00">tl</text>
</g>
<!-- nd1 -->
<g id="node1" class="node"><title>nd1</title>
<ellipse fill="black" stroke="black" cx="1.8" cy="-145.5" rx="1.8" ry="1.8"/>
</g>
<!-- nd84 -->
<g id="node14" class="node"><title>nd84</title>
<g id="a_node14"><a xlink:title="nd84&#45;AppGraph">
<path fill="none" stroke="#000000" d="M27.5473,-155.554C27.5473,-155.554 23.6719,-149.946 23.6719,-149.946 22.136,-147.723 22.136,-143.277 23.6719,-141.054 23.6719,-141.054 27.5473,-135.446 27.5473,-135.446 29.0833,-133.223 33.3212,-131.002 36.0231,-131.005 36.0231,-131.005 41.4269,-131.009 41.4269,-131.009 44.1288,-131.011 46.8307,-133.715 46.8307,-136.417 46.8307,-136.417 46.8307,-154.583 46.8307,-154.583 46.8307,-157.285 44.1288,-159.989 41.4269,-159.991 41.4269,-159.991 36.0231,-159.995 36.0231,-159.995 33.3212,-159.998 29.0833,-157.777 27.5473,-155.554"/>
<text text-anchor="middle" x="35.1" y="-141.8" font-family="Times,serif" font-size="14.00">@</text>
</a>
</g>
</g>
<!-- nd1&#45;&gt;nd84 -->
<g id="edge20" class="edge"><title>nd1:e&#45;&gt;nd84:w</title>
<path fill="none" stroke="#b70000" d="M3.6,-145.5C11.1556,-145.5 13.0444,-145.5 20.6,-145.5"/>
</g>
<!-- nd136 -->
<g id="node2" class="node"><title>nd136</title>
<g id="a_node2"><a xlink:title="nd136&#45;RecurGraph">
<ellipse fill="none" stroke="#000000" cx="127.1" cy="-197.5" rx="11" ry="11"/>
<text text-anchor="middle" x="127.1" y="-193.8" font-family="Times,serif" font-size="14.00">rec</text>
</a>
</g>
</g>
<!-- ndcluster_nd140 -->
<g id="node3" class="node"><title>ndcluster_nd140</title>
<g id="a_node3"><a xlink:title="nd140">
<ellipse fill="orange" stroke="orange" cx="173.1" cy="-215.5" rx="1.8" ry="1.8"/>
</a>
</g>
</g>
<!-- nd136&#45;&gt;ndcluster_nd140 -->
<g id="edge24" class="edge"><title>nd136:n&#45;&gt;ndcluster_nd140:e</title>
<path fill="none" stroke="grey" d="M127.1,-209.5C127.1,-251.455 183.047,-215.5 176.1,-215.5"/>
</g>
<!-- nd136&#45;&gt;ndcluster_nd140 -->
<g id="edge25" class="edge"><title>nd136:e&#45;&gt;ndcluster_nd140:w</title>
<path fill="none" stroke="black" d="M139.1,-197.5C155.032,-197.5 154.168,-215.5 170.1,-215.5"/>
</g>
<!-- nd16 -->
<g id="node4" class="node"><title>nd16</title>
<g id="a_node4"><a xlink:title="nd16&#45;ConstGraph">
<path fill="none" stroke="purple" d="M369.867,-135C369.867,-135 379.533,-135 379.533,-135 384.367,-135 389.2,-130.167 389.2,-125.333 389.2,-125.333 389.2,-115.667 389.2,-115.667 389.2,-110.833 384.367,-106 379.533,-106 379.533,-106 369.867,-106 369.867,-106 365.033,-106 360.2,-110.833 360.2,-115.667 360.2,-115.667 360.2,-125.333 360.2,-125.333 360.2,-130.167 365.033,-135 369.867,-135"/>
<text text-anchor="middle" x="374.7" y="-116.8" font-family="Times,serif" font-size="14.00">1</text>
</a>
</g>
</g>
<!-- nd22 -->
<g id="node5" class="node"><title>nd22</title>
<g id="a_node5"><a xlink:title="nd22&#45;ConstGraph">
<path fill="none" stroke="purple" d="M415.867,-113C415.867,-113 425.533,-113 425.533,-113 430.367,-113 435.2,-108.167 435.2,-103.333 435.2,-103.333 435.2,-93.6667 435.2,-93.6667 435.2,-88.8333 430.367,-84 425.533,-84 425.533,-84 415.867,-84 415.867,-84 411.033,-84 406.2,-88.8333 406.2,-93.6667 406.2,-93.6667 406.2,-103.333 406.2,-103.333 406.2,-108.167 411.033,-113 415.867,-113"/>
<text text-anchor="middle" x="420.7" y="-94.8" font-family="Times,serif" font-size="14.00">2</text>
</a>
</g>
</g>
<!-- nd28 -->
<g id="node6" class="node"><title>nd28</title>
<g id="a_node6"><a xlink:title="nd28&#45;ConstGraph">
<path fill="none" stroke="purple" d="M461.867,-92C461.867,-92 471.533,-92 471.533,-92 476.367,-92 481.2,-87.1667 481.2,-82.3333 481.2,-82.3333 481.2,-72.6667 481.2,-72.6667 481.2,-67.8333 476.367,-63 471.533,-63 471.533,-63 461.867,-63 461.867,-63 457.033,-63 452.2,-67.8333 452.2,-72.6667 452.2,-72.6667 452.2,-82.3333 452.2,-82.3333 452.2,-87.1667 457.033,-92 461.867,-92"/>
<text text-anchor="middle" x="466.7" y="-73.8" font-family="Times,serif" font-size="14.00">3</text>
</a>
</g>
</g>
<!-- nd34 -->
<g id="node7" class="node"><title>nd34</title>
<g id="a_node7"><a xlink:title="nd34&#45;ConstGraph">
<path fill="none" stroke="purple" d="M507.867,-71C507.867,-71 517.533,-71 517.533,-71 522.367,-71 527.2,-66.1667 527.2,-61.3333 527.2,-61.3333 527.2,-51.6667 527.2,-51.6667 527.2,-46.8333 522.367,-42 517.533,-42 517.533,-42 507.867,-42 507.867,-42 503.033,-42 498.2,-46.8333 498.2,-51.6667 498.2,-51.6667 498.2,-61.3333 498.2,-61.3333 498.2,-66.1667 503.033,-71 507.867,-71"/>
<text text-anchor="middle" x="512.7" y="-52.8" font-family="Times,serif" font-size="14.00">4</text>
</a>
</g>
</g>
<!-- nd39 -->
<g id="node8" class="node"><title>nd39</title>
<g id="a_node8"><a xlink:title="nd39&#45;ConstEmptyGraph">
<path fill="none" stroke="purple" d="M507.867,-29C507.867,-29 517.533,-29 517.533,-29 522.367,-29 527.2,-24.1667 527.2,-19.3333 527.2,-19.3333 527.2,-9.66667 527.2,-9.66667 527.2,-4.83333 522.367,-1.77636e-15 517.533,-1.77636e-15 517.533,-1.77636e-15 507.867,-1.77636e-15 507.867,-1.77636e-15 503.033,-1.77636e-15 498.2,-4.83333 498.2,-9.66667 498.2,-9.66667 498.2,-19.3333 498.2,-19.3333 498.2,-24.1667 503.033,-29 507.867,-29"/>
<text text-anchor="middle" x="512.7" y="-10.8" font-family="Times,serif" font-size="14.00">[]</text>
</a>
</g>
</g>
<!-- nd50 -->
<g id="node9" class="node"><title>nd50</title>
<g id="a_node9"><a xlink:title="nd50&#45;ConstGraph">
<path fill="none" stroke="purple" d="M220.267,-129C220.267,-129 229.933,-129 229.933,-129 234.767,-129 239.6,-124.167 239.6,-119.333 239.6,-119.333 239.6,-109.667 239.6,-109.667 239.6,-104.833 234.767,-100 229.933,-100 229.933,-100 220.267,-100 220.267,-100 215.433,-100 210.6,-104.833 210.6,-109.667 210.6,-109.667 210.6,-119.333 210.6,-119.333 210.6,-124.167 215.433,-129 220.267,-129"/>
<text text-anchor="middle" x="225.1" y="-110.8" font-family="Times,serif" font-size="14.00">0</text>
</a>
</g>
</g>
<!-- nd182 -->
<g id="node10" class="node"><title>nd182</title>
<g id="a_node10"><a xlink:title="nd182&#45;ConstListGraph">
<path fill="none" stroke="purple" d="M461.867,-50C461.867,-50 471.533,-50 471.533,-50 476.367,-50 481.2,-45.1667 481.2,-40.3333 481.2,-40.3333 481.2,-30.6667 481.2,-30.6667 481.2,-25.8333 476.367,-21 471.533,-21 471.533,-21 461.867,-21 461.867,-21 457.033,-21 452.2,-25.8333 452.2,-30.6667 452.2,-30.6667 452.2,-40.3333 452.2,-40.3333 452.2,-45.1667 457.033,-50 461.867,-50"/>
<text text-anchor="middle" x="466.7" y="-31.8" font-family="Times,serif" font-size="14.00">::</text>
</a>
</g>
</g>
<!-- nd182&#45;&gt;nd34 -->
<g id="edge1" class="edge"><title>nd182:n&#45;&gt;nd34:w</title>
<path fill="none" stroke="purple" d="M466.7,-51.5C466.7,-55.0438 494.656,-56.5 498.2,-56.5"/>
</g>
<!-- nd182&#45;&gt;nd39 -->
<g id="edge2" class="edge"><title>nd182:s&#45;&gt;nd39:w</title>
<path fill="none" stroke="purple" d="M466.7,-19.5C466.7,-5.32473 484.025,-14.5 498.2,-14.5"/>
</g>
<!-- nd188 -->
<g id="node11" class="node"><title>nd188</title>
<g id="a_node11"><a xlink:title="nd188&#45;ConstListGraph">
<path fill="none" stroke="purple" d="M415.867,-71C415.867,-71 425.533,-71 425.533,-71 430.367,-71 435.2,-66.1667 435.2,-61.3333 435.2,-61.3333 435.2,-51.6667 435.2,-51.6667 435.2,-46.8333 430.367,-42 425.533,-42 425.533,-42 415.867,-42 415.867,-42 411.033,-42 406.2,-46.8333 406.2,-51.6667 406.2,-51.6667 406.2,-61.3333 406.2,-61.3333 406.2,-66.1667 411.033,-71 415.867,-71"/>
<text text-anchor="middle" x="420.7" y="-52.8" font-family="Times,serif" font-size="14.00">::</text>
</a>
</g>
</g>
<!-- nd188&#45;&gt;nd28 -->
<g id="edge3" class="edge"><title>nd188:n&#45;&gt;nd28:w</title>
<path fill="none" stroke="purple" d="M420.7,-72.5C420.7,-76.0438 448.656,-77.5 452.2,-77.5"/>
</g>
<!-- nd188&#45;&gt;nd182 -->
<g id="edge4" class="edge"><title>nd188:s&#45;&gt;nd182:w</title>
<path fill="none" stroke="purple" d="M420.7,-40.5C420.7,-26.3247 438.025,-35.5 452.2,-35.5"/>
</g>
<!-- nd194 -->
<g id="node12" class="node"><title>nd194</title>
<g id="a_node12"><a xlink:title="nd194&#45;ConstListGraph">
<path fill="none" stroke="purple" d="M369.867,-92C369.867,-92 379.533,-92 379.533,-92 384.367,-92 389.2,-87.1667 389.2,-82.3333 389.2,-82.3333 389.2,-72.6667 389.2,-72.6667 389.2,-67.8333 384.367,-63 379.533,-63 379.533,-63 369.867,-63 369.867,-63 365.033,-63 360.2,-67.8333 360.2,-72.6667 360.2,-72.6667 360.2,-82.3333 360.2,-82.3333 360.2,-87.1667 365.033,-92 369.867,-92"/>
<text text-anchor="middle" x="374.7" y="-73.8" font-family="Times,serif" font-size="14.00">::</text>
</a>
</g>
</g>
<!-- nd194&#45;&gt;nd22 -->
<g id="edge5" class="edge"><title>nd194:n&#45;&gt;nd22:w</title>
<path fill="none" stroke="purple" d="M374.7,-93.5C374.7,-100.588 399.112,-98.5 406.2,-98.5"/>
</g>
<!-- nd194&#45;&gt;nd188 -->
<g id="edge6" class="edge"><title>nd194:s&#45;&gt;nd188:w</title>
<path fill="none" stroke="purple" d="M374.7,-61.5C374.7,-47.3247 392.025,-56.5 406.2,-56.5"/>
</g>
<!-- nd200 -->
<g id="node13" class="node"><title>nd200</title>
<g id="a_node13"><a xlink:title="nd200&#45;ConstListGraph">
<path fill="none" stroke="purple" d="M220.267,-171C220.267,-171 229.933,-171 229.933,-171 234.767,-171 239.6,-166.167 239.6,-161.333 239.6,-161.333 239.6,-151.667 239.6,-151.667 239.6,-146.833 234.767,-142 229.933,-142 229.933,-142 220.267,-142 220.267,-142 215.433,-142 210.6,-146.833 210.6,-151.667 210.6,-151.667 210.6,-161.333 210.6,-161.333 210.6,-166.167 215.433,-171 220.267,-171"/>
<text text-anchor="middle" x="225.1" y="-152.8" font-family="Times,serif" font-size="14.00">::</text>
</a>
</g>
</g>
<!-- nd222 -->
<g id="node25" class="node"><title>nd222</title>
<g id="a_node25"><a xlink:title="nd222&#45;ContractGraph">
<ellipse fill="black" stroke="black" cx="308.1" cy="-120.5" rx="1.8" ry="1.8"/>
</a>
</g>
</g>
<!-- nd200&#45;&gt;nd222 -->
<g id="edge7" class="edge"><title>nd200:n&#45;&gt;nd222:w</title>
<path fill="none" stroke="black" d="M225.1,-172.5C225.1,-185.478 245.609,-184.045 285.6,-149.5 297.354,-139.347 289.568,-120.5 305.1,-120.5"/>
</g>
<!-- nd223 -->
<g id="node26" class="node"><title>nd223</title>
<g id="a_node26"><a xlink:title="nd223&#45;ContractGraph">
<ellipse fill="black" stroke="black" cx="308.1" cy="-77.5" rx="1.8" ry="1.8"/>
</a>
</g>
</g>
<!-- nd200&#45;&gt;nd223 -->
<g id="edge8" class="edge"><title>nd200:s&#45;&gt;nd223:w</title>
<path fill="none" stroke="black" d="M225.1,-140.5C225.1,-133.683 233.713,-138.937 239.6,-135.5 273.181,-115.897 266.216,-77.5 305.1,-77.5"/>
</g>
<!-- nd85 -->
<g id="node15" class="node"><title>nd85</title>
<g id="a_node15"><a xlink:title="nd85&#45;AppGraph">
<path fill="none" stroke="#000000" d="M73.5473,-183.554C73.5473,-183.554 69.6719,-177.946 69.6719,-177.946 68.136,-175.723 68.136,-171.277 69.6719,-169.054 69.6719,-169.054 73.5473,-163.446 73.5473,-163.446 75.0833,-161.223 79.3212,-159.002 82.0231,-159.005 82.0231,-159.005 87.4269,-159.009 87.4269,-159.009 90.1288,-159.011 92.8307,-161.715 92.8307,-164.417 92.8307,-164.417 92.8307,-182.583 92.8307,-182.583 92.8307,-185.285 90.1288,-187.989 87.4269,-187.991 87.4269,-187.991 82.0231,-187.995 82.0231,-187.995 79.3212,-187.998 75.0833,-185.777 73.5473,-183.554"/>
<text text-anchor="middle" x="81.1" y="-169.8" font-family="Times,serif" font-size="14.00">@</text>
</a>
</g>
</g>
<!-- nd84&#45;&gt;nd85 -->
<g id="edge16" class="edge"><title>nd84:e&#45;&gt;nd85:w</title>
<path fill="none" stroke="black" d="M48.1,-145.5C63.0154,-145.5 51.6846,-173.5 66.6,-173.5"/>
</g>
<!-- nd105 -->
<g id="node18" class="node"><title>nd105</title>
<g id="a_node18"><a xlink:title="nd105&#45;BinOpGraph">
<ellipse fill="none" stroke="#000000" cx="127.1" cy="-101.5" rx="14.5" ry="14.5"/>
<text text-anchor="middle" x="127.1" y="-97.8" font-family="Times,serif" font-size="14.00">+</text>
</a>
</g>
</g>
<!-- nd84&#45;&gt;nd105 -->
<g id="edge17" class="edge"><title>nd84:s&#45;&gt;nd105:w</title>
<path fill="none" stroke="#b70000" d="M35.1,-129.5C35.1,-92.8765 75.9765,-101.5 112.6,-101.5"/>
</g>
<!-- nd85&#45;&gt;nd136 -->
<g id="edge10" class="edge"><title>nd85:e&#45;&gt;nd136:w</title>
<path fill="none" stroke="black" d="M94.1,-173.5C108.274,-173.5 100.926,-197.5 115.1,-197.5"/>
</g>
<!-- nd89 -->
<g id="node16" class="node"><title>nd89</title>
<g id="a_node16"><a xlink:title="nd89&#45;AppGraph">
<path fill="none" stroke="#000000" d="M119.547,-168.554C119.547,-168.554 115.672,-162.946 115.672,-162.946 114.136,-160.723 114.136,-156.277 115.672,-154.054 115.672,-154.054 119.547,-148.446 119.547,-148.446 121.083,-146.223 125.321,-144.002 128.023,-144.005 128.023,-144.005 133.427,-144.009 133.427,-144.009 136.129,-144.011 138.831,-146.715 138.831,-149.417 138.831,-149.417 138.831,-167.583 138.831,-167.583 138.831,-170.285 136.129,-172.989 133.427,-172.991 133.427,-172.991 128.023,-172.995 128.023,-172.995 125.321,-172.998 121.083,-170.777 119.547,-168.554"/>
<text text-anchor="middle" x="127.1" y="-154.8" font-family="Times,serif" font-size="14.00">@</text>
</a>
</g>
</g>
<!-- nd85&#45;&gt;nd89 -->
<g id="edge11" class="edge"><title>nd85:s&#45;&gt;nd89:w</title>
<path fill="none" stroke="black" d="M81.1,-157.5C81.1,-143.493 98.5929,-158.5 112.6,-158.5"/>
</g>
<!-- ndcluster_nd91 -->
<g id="node17" class="node"><title>ndcluster_nd91</title>
<g id="a_node17"><a xlink:title="nd91">
<ellipse fill="orange" stroke="orange" cx="173.1" cy="-163.5" rx="1.8" ry="1.8"/>
</a>
</g>
</g>
<!-- nd89&#45;&gt;ndcluster_nd91 -->
<g id="edge9" class="edge"><title>nd89:e&#45;&gt;ndcluster_nd91:w</title>
<path fill="none" stroke="black" d="M140.1,-158.5C153.617,-158.5 156.583,-163.5 170.1,-163.5"/>
</g>
<!-- nd123 -->
<g id="node20" class="node"><title>nd123</title>
<g id="a_node20"><a xlink:title="nd123&#45;ContractGraph">
<ellipse fill="black" stroke="black" cx="173.1" cy="-143.5" rx="1.8" ry="1.8"/>
</a>
</g>
</g>
<!-- nd89&#45;&gt;nd123 -->
<g id="edge19" class="edge"><title>nd89:s&#45;&gt;nd123:w</title>
<path fill="none" stroke="black" d="M127.1,-142.5C127.1,-123.384 150.984,-143.5 170.1,-143.5"/>
</g>
<!-- nd108 -->
<g id="node19" class="node"><title>nd108</title>
<g id="a_node19"><a xlink:title="nd108&#45;AppGraph">
<path fill="none" stroke="#000000" d="M165.547,-96.5543C165.547,-96.5543 161.672,-90.9457 161.672,-90.9457 160.136,-88.7229 160.136,-84.2771 161.672,-82.0543 161.672,-82.0543 165.547,-76.4457 165.547,-76.4457 167.083,-74.2229 171.321,-72.0023 174.023,-72.0045 174.023,-72.0045 179.427,-72.009 179.427,-72.009 182.129,-72.0113 184.831,-74.7155 184.831,-77.4174 184.831,-77.4174 184.831,-95.5826 184.831,-95.5826 184.831,-98.2845 182.129,-100.989 179.427,-100.991 179.427,-100.991 174.023,-100.995 174.023,-100.995 171.321,-100.998 167.083,-98.7771 165.547,-96.5543"/>
<text text-anchor="middle" x="173.1" y="-82.8" font-family="Times,serif" font-size="14.00">@</text>
</a>
</g>
</g>
<!-- nd105&#45;&gt;nd108 -->
<g id="edge15" class="edge"><title>nd105:s&#45;&gt;nd108:w</title>
<path fill="none" stroke="#b70000" d="M127.1,-85.5C127.1,-71.4929 144.593,-86.5 158.6,-86.5"/>
</g>
<!-- nd125 -->
<g id="node21" class="node"><title>nd125</title>
<g id="a_node21"><a xlink:title="nd125&#45;ContractGraph">
<ellipse fill="black" stroke="black" cx="173.1" cy="-115.5" rx="1.8" ry="1.8"/>
</a>
</g>
</g>
<!-- nd105&#45;&gt;nd125 -->
<g id="edge21" class="edge"><title>nd105:n&#45;&gt;nd125:w</title>
<path fill="none" stroke="black" d="M127.1,-117.5C127.1,-136.632 150.968,-115.5 170.1,-115.5"/>
</g>
<!-- nd219 -->
<g id="node24" class="node"><title>nd219</title>
<g id="a_node24"><a xlink:title="nd219&#45;ConstListGraph">
<path fill="none" stroke="purple" d="M220.267,-87C220.267,-87 229.933,-87 229.933,-87 234.767,-87 239.6,-82.1667 239.6,-77.3333 239.6,-77.3333 239.6,-67.6667 239.6,-67.6667 239.6,-62.8333 234.767,-58 229.933,-58 229.933,-58 220.267,-58 220.267,-58 215.433,-58 210.6,-62.8333 210.6,-67.6667 210.6,-67.6667 210.6,-77.3333 210.6,-77.3333 210.6,-82.1667 215.433,-87 220.267,-87"/>
<text text-anchor="middle" x="225.1" y="-68.8" font-family="Times,serif" font-size="14.00">::</text>
</a>
</g>
</g>
<!-- nd108&#45;&gt;nd219 -->
<g id="edge18" class="edge"><title>nd108:s&#45;&gt;nd219:w</title>
<path fill="none" stroke="black" d="M173.1,-70.5C173.1,-53.8096 193.91,-72.5 210.6,-72.5"/>
<text text-anchor="middle" x="199.1" y="-75.3" font-family="Times,serif" font-size="14.00">x</text>
</g>
<!-- nd112 -->
<g id="node27" class="node"><title>nd112</title>
<g id="a_node27"><a xlink:title="nd112&#45;AbsGraph">
<ellipse fill="none" stroke="#000000" cx="225.1" cy="-30.5" rx="14.5" ry="14.5"/>
<text text-anchor="middle" x="225.1" y="-26.8" font-family="Times,serif" font-size="14.00">fun</text>
</a>
</g>
</g>
<!-- nd108&#45;&gt;nd112 -->
<g id="edge14" class="edge"><title>nd108:e&#45;&gt;nd112:w</title>
<path fill="none" stroke="red" d="M186.1,-86.5C194.675,-86.5 197.765,-83.5818 202.6,-76.5 206.668,-70.5419 203.93,-50.6302 205.372,-39.0496"/>
<polygon fill="red" stroke="red" points="208.369,-40.8574 210.6,-30.5 202.397,-37.2057 208.369,-40.8574"/>
</g>
<!-- nd123&#45;&gt;nd200 -->
<g id="edge23" class="edge"><title>nd123:e&#45;&gt;nd200:w</title>
<path fill="none" stroke="black" d="M176.1,-143.5C192.486,-143.5 194.214,-156.5 210.6,-156.5"/>
<text text-anchor="middle" x="199.1" y="-158.3" font-family="Times,serif" font-size="14.00">x</text>
</g>
<!-- nd125&#45;&gt;nd50 -->
<g id="edge22" class="edge"><title>nd125:e&#45;&gt;nd50:w</title>
<path fill="none" stroke="black" d="M176.1,-115.5C191.44,-115.5 195.26,-114.5 210.6,-114.5"/>
<text text-anchor="middle" x="199.1" y="-118.3" font-family="Times,serif" font-size="14.00">y</text>
</g>
<!-- nd209 -->
<g id="node22" class="node"><title>nd209</title>
<g id="a_node22"><a xlink:title="nd209&#45;ContractGraph">
<ellipse fill="black" stroke="black" cx="341.4" cy="-120.5" rx="1.8" ry="1.8"/>
</a>
</g>
</g>
<!-- nd209&#45;&gt;nd16 -->
<g id="edge26" class="edge"><title>nd209:e&#45;&gt;nd16:w</title>
<path fill="none" stroke="black" d="M343.2,-120.5C350.756,-120.5 352.644,-120.5 360.2,-120.5"/>
</g>
<!-- nd210 -->
<g id="node23" class="node"><title>nd210</title>
<g id="a_node23"><a xlink:title="nd210&#45;ContractGraph">
<ellipse fill="black" stroke="black" cx="341.4" cy="-77.5" rx="1.8" ry="1.8"/>
</a>
</g>
</g>
<!-- nd210&#45;&gt;nd194 -->
<g id="edge27" class="edge"><title>nd210:e&#45;&gt;nd194:w</title>
<path fill="none" stroke="black" d="M343.2,-77.5C350.756,-77.5 352.644,-77.5 360.2,-77.5"/>
</g>
<!-- nd219&#45;&gt;nd222 -->
<g id="edge30" class="edge"><title>nd219:n&#45;&gt;nd222:w</title>
<path fill="none" stroke="black" d="M225.1,-88.5C225.1,-95.3168 233.224,-91.0889 239.6,-93.5 269.052,-104.637 273.613,-120.5 305.1,-120.5"/>
</g>
<!-- nd219&#45;&gt;nd223 -->
<g id="edge31" class="edge"><title>nd219:s&#45;&gt;nd223:w</title>
<path fill="none" stroke="black" d="M225.1,-56.5C225.1,-50.0402 233.546,-55.2475 239.6,-57.5 243.765,-59.0498 243.581,-61.6022 247.6,-63.5 271.384,-74.7309 278.798,-77.5 305.1,-77.5"/>
</g>
<!-- nd222&#45;&gt;nd209 -->
<g id="edge28" class="edge"><title>nd222:e&#45;&gt;nd209:w</title>
<path fill="none" stroke="black" d="M311.1,-120.5C323.767,-120.5 326.933,-120.5 339.6,-120.5"/>
</g>
<!-- nd223&#45;&gt;nd210 -->
<g id="edge29" class="edge"><title>nd223:e&#45;&gt;nd210:w</title>
<path fill="none" stroke="black" d="M311.1,-77.5C323.767,-77.5 326.933,-77.5 339.6,-77.5"/>
</g>
<!-- nd113 -->
<g id="node28" class="node"><title>nd113</title>
<g id="a_node28"><a xlink:title="nd113&#45;UnOpGraph">
<ellipse fill="none" stroke="#000000" cx="308.1" cy="-36.5" rx="14.5" ry="14.5"/>
<text text-anchor="middle" x="308.1" y="-32.8" font-family="Times,serif" font-size="14.00">hd</text>
</a>
</g>
</g>
<!-- nd112&#45;&gt;nd113 -->
<g id="edge12" class="edge"><title>nd112:e&#45;&gt;nd113:w</title>
<path fill="none" stroke="black" d="M239.6,-30.5C260.064,-30.5 265.791,-27.3668 285.6,-32.5 289.448,-33.4972 289.625,-36.5 293.6,-36.5"/>
</g>
<!-- nd112&#45;&gt;nd113 -->
<g id="edge13" class="edge"><title>nd112:n&#45;&gt;nd113:e</title>
<path fill="none" stroke="grey" d="M225.1,-46.5C225.1,-56.5099 237.593,-45.7223 247.6,-45.5 264.485,-45.125 269.471,-40.4905 285.6,-45.5 289.721,-46.7798 289.479,-49.7202 293.6,-51 306.121,-54.8889 313.515,-59.9463 323.1,-51 324.281,-49.8981 325.715,-36.5 324.1,-36.5"/>
<text text-anchor="middle" x="266.6" y="-50.3" font-family="Times,serif" font-size="14.00">op_arg</text>
</g>
</g>
</svg>
