<?xml version="1.0" encoding="UTF-8" standalone="no"?>
<!DOCTYPE svg PUBLIC "-//W3C//DTD SVG 1.1//EN"
 "http://www.w3.org/Graphics/SVG/1.1/DTD/svg11.dtd">
<!-- Generated by graphviz version 2.38.0 (20140413.2041)
 -->
<!-- Title: G Pages: 1 -->
<svg width="662pt" height="208pt"
 viewBox="0.00 0.00 662.00 208.19" xmlns="http://www.w3.org/2000/svg" xmlns:xlink="http://www.w3.org/1999/xlink">
<g id="graph0" class="graph" transform="scale(0.954991 0.954991) rotate(0) translate(4 214)">
<title>G</title>
<polygon fill="white" stroke="none" points="-4,4 -4,-214 689.2,-214 689.2,4 -4,4"/>
<g id="clust1" class="cluster"><title>cluster_nd140</title>
<polygon fill="none" stroke="orange" points="337.3,-160 337.3,-180 356.9,-180 356.9,-160 337.3,-160"/>
</g>
<g id="clust2" class="cluster"><title>cluster_nd70</title>
<polygon fill="none" stroke="orange" points="430.3,-159 430.3,-202 480.9,-202 480.9,-159 430.3,-159"/>
<text text-anchor="middle" x="455.6" y="-186.8" font-family="Times,serif" font-size="14.00">empty</text>
</g>
<g id="clust3" class="cluster"><title>cluster_nd91</title>
<polygon fill="none" stroke="orange" points="335.3,-71 335.3,-114 358.9,-114 358.9,-71 335.3,-71"/>
<text text-anchor="middle" x="347.1" y="-98.8" font-family="Times,serif" font-size="14.00">tl</text>
</g>
<g id="clust4" class="cluster"><title>cluster_nd110</title>
<polygon fill="none" stroke="orange" points="332.3,-8 332.3,-51 361.9,-51 361.9,-8 332.3,-8"/>
<text text-anchor="middle" x="347.1" y="-35.8" font-family="Times,serif" font-size="14.00">hd</text>
</g>
<!-- nd1 -->
<g id="node1" class="node"><title>nd1</title>
<ellipse fill="black" stroke="black" cx="1.8" cy="-159" rx="1.8" ry="1.8"/>
</g>
<!-- nd67 -->
<g id="node14" class="node"><title>nd67</title>
<g id="a_node14"><a xlink:title="nd67&#45;IfGraph">
<ellipse fill="none" stroke="#000000" cx="35.1" cy="-159" rx="14.5" ry="14.5"/>
<text text-anchor="middle" x="35.1" y="-155.3" font-family="Times,serif" font-size="14.00">if</text>
</a>
</g>
</g>
<!-- nd1&#45;&gt;nd67 -->
<g id="edge25" class="edge"><title>nd1:e&#45;&gt;nd67:w</title>
<path fill="none" stroke="#b70000" d="M3.6,-159C11.1556,-159 13.0444,-159 20.6,-159"/>
</g>
<!-- nd136 -->
<g id="node2" class="node"><title>nd136</title>
<g id="a_node2"><a xlink:title="nd136&#45;RecurGraph">
<ellipse fill="none" stroke="#000000" cx="295.1" cy="-157" rx="11" ry="11"/>
<text text-anchor="middle" x="295.1" y="-153.3" font-family="Times,serif" font-size="14.00">rec</text>
</a>
</g>
</g>
<!-- ndcluster_nd140 -->
<g id="node3" class="node"><title>ndcluster_nd140</title>
<g id="a_node3"><a xlink:title="nd140">
<ellipse fill="orange" stroke="orange" cx="347.1" cy="-170" rx="1.8" ry="1.8"/>
</a>
</g>
</g>
<!-- nd136&#45;&gt;ndcluster_nd140 -->
<g id="edge28" class="edge"><title>nd136:n&#45;&gt;ndcluster_nd140:e</title>
<path fill="none" stroke="grey" d="M295.1,-169C295.1,-191.346 322.963,-171.178 345.3,-171.8 346.988,-171.847 347.644,-172.656 349.1,-171.8 349.889,-171.336 351.015,-170 350.1,-170"/>
</g>
<!-- nd136&#45;&gt;ndcluster_nd140 -->
<g id="edge29" class="edge"><title>nd136:e&#45;&gt;ndcluster_nd140:w</title>
<path fill="none" stroke="black" d="M307.1,-157C324.53,-157 326.67,-170 344.1,-170"/>
</g>
<!-- nd16 -->
<g id="node4" class="node"><title>nd16</title>
<g id="a_node4"><a xlink:title="nd16&#45;ConstGraph">
<path fill="none" stroke="purple" d="M527.867,-151.5C527.867,-151.5 537.533,-151.5 537.533,-151.5 542.367,-151.5 547.2,-146.667 547.2,-141.833 547.2,-141.833 547.2,-132.167 547.2,-132.167 547.2,-127.333 542.367,-122.5 537.533,-122.5 537.533,-122.5 527.867,-122.5 527.867,-122.5 523.033,-122.5 518.2,-127.333 518.2,-132.167 518.2,-132.167 518.2,-141.833 518.2,-141.833 518.2,-146.667 523.033,-151.5 527.867,-151.5"/>
<text text-anchor="middle" x="532.7" y="-133.3" font-family="Times,serif" font-size="14.00">1</text>
</a>
</g>
</g>
<!-- nd22 -->
<g id="node5" class="node"><title>nd22</title>
<g id="a_node5"><a xlink:title="nd22&#45;ConstGraph">
<path fill="none" stroke="purple" d="M573.867,-124.5C573.867,-124.5 583.533,-124.5 583.533,-124.5 588.367,-124.5 593.2,-119.667 593.2,-114.833 593.2,-114.833 593.2,-105.167 593.2,-105.167 593.2,-100.333 588.367,-95.5 583.533,-95.5 583.533,-95.5 573.867,-95.5 573.867,-95.5 569.033,-95.5 564.2,-100.333 564.2,-105.167 564.2,-105.167 564.2,-114.833 564.2,-114.833 564.2,-119.667 569.033,-124.5 573.867,-124.5"/>
<text text-anchor="middle" x="578.7" y="-106.3" font-family="Times,serif" font-size="14.00">2</text>
</a>
</g>
</g>
<!-- nd28 -->
<g id="node6" class="node"><title>nd28</title>
<g id="a_node6"><a xlink:title="nd28&#45;ConstGraph">
<path fill="none" stroke="purple" d="M619.867,-103.5C619.867,-103.5 629.533,-103.5 629.533,-103.5 634.367,-103.5 639.2,-98.6667 639.2,-93.8333 639.2,-93.8333 639.2,-84.1667 639.2,-84.1667 639.2,-79.3333 634.367,-74.5 629.533,-74.5 629.533,-74.5 619.867,-74.5 619.867,-74.5 615.033,-74.5 610.2,-79.3333 610.2,-84.1667 610.2,-84.1667 610.2,-93.8333 610.2,-93.8333 610.2,-98.6667 615.033,-103.5 619.867,-103.5"/>
<text text-anchor="middle" x="624.7" y="-85.3" font-family="Times,serif" font-size="14.00">3</text>
</a>
</g>
</g>
<!-- nd34 -->
<g id="node7" class="node"><title>nd34</title>
<g id="a_node7"><a xlink:title="nd34&#45;ConstGraph">
<path fill="none" stroke="purple" d="M665.867,-82.5C665.867,-82.5 675.533,-82.5 675.533,-82.5 680.367,-82.5 685.2,-77.6667 685.2,-72.8333 685.2,-72.8333 685.2,-63.1667 685.2,-63.1667 685.2,-58.3333 680.367,-53.5 675.533,-53.5 675.533,-53.5 665.867,-53.5 665.867,-53.5 661.033,-53.5 656.2,-58.3333 656.2,-63.1667 656.2,-63.1667 656.2,-72.8333 656.2,-72.8333 656.2,-77.6667 661.033,-82.5 665.867,-82.5"/>
<text text-anchor="middle" x="670.7" y="-64.3" font-family="Times,serif" font-size="14.00">4</text>
</a>
</g>
</g>
<!-- nd39 -->
<g id="node8" class="node"><title>nd39</title>
<g id="a_node8"><a xlink:title="nd39&#45;ConstEmptyGraph">
<path fill="none" stroke="purple" d="M665.867,-40.5C665.867,-40.5 675.533,-40.5 675.533,-40.5 680.367,-40.5 685.2,-35.6667 685.2,-30.8333 685.2,-30.8333 685.2,-21.1667 685.2,-21.1667 685.2,-16.3333 680.367,-11.5 675.533,-11.5 675.533,-11.5 665.867,-11.5 665.867,-11.5 661.033,-11.5 656.2,-16.3333 656.2,-21.1667 656.2,-21.1667 656.2,-30.8333 656.2,-30.8333 656.2,-35.6667 661.033,-40.5 665.867,-40.5"/>
<text text-anchor="middle" x="670.7" y="-22.3" font-family="Times,serif" font-size="14.00">[]</text>
</a>
</g>
</g>
<!-- nd50 -->
<g id="node9" class="node"><title>nd50</title>
<g id="a_node9"><a xlink:title="nd50&#45;ConstGraph">
<path fill="none" stroke="purple" d="M342.267,-151.5C342.267,-151.5 351.933,-151.5 351.933,-151.5 356.767,-151.5 361.6,-146.667 361.6,-141.833 361.6,-141.833 361.6,-132.167 361.6,-132.167 361.6,-127.333 356.767,-122.5 351.933,-122.5 351.933,-122.5 342.267,-122.5 342.267,-122.5 337.433,-122.5 332.6,-127.333 332.6,-132.167 332.6,-132.167 332.6,-141.833 332.6,-141.833 332.6,-146.667 337.433,-151.5 342.267,-151.5"/>
<text text-anchor="middle" x="347.1" y="-133.3" font-family="Times,serif" font-size="14.00">0</text>
</a>
</g>
</g>
<!-- nd182 -->
<g id="node10" class="node"><title>nd182</title>
<g id="a_node10"><a xlink:title="nd182&#45;ConstListGraph">
<path fill="none" stroke="purple" d="M619.867,-61.5C619.867,-61.5 629.533,-61.5 629.533,-61.5 634.367,-61.5 639.2,-56.6667 639.2,-51.8333 639.2,-51.8333 639.2,-42.1667 639.2,-42.1667 639.2,-37.3333 634.367,-32.5 629.533,-32.5 629.533,-32.5 619.867,-32.5 619.867,-32.5 615.033,-32.5 610.2,-37.3333 610.2,-42.1667 610.2,-42.1667 610.2,-51.8333 610.2,-51.8333 610.2,-56.6667 615.033,-61.5 619.867,-61.5"/>
<text text-anchor="middle" x="624.7" y="-43.3" font-family="Times,serif" font-size="14.00">::</text>
</a>
</g>
</g>
<!-- nd182&#45;&gt;nd34 -->
<g id="edge1" class="edge"><title>nd182:n&#45;&gt;nd34:w</title>
<path fill="none" stroke="purple" d="M624.7,-63C624.7,-66.5438 652.656,-68 656.2,-68"/>
</g>
<!-- nd182&#45;&gt;nd39 -->
<g id="edge2" class="edge"><title>nd182:s&#45;&gt;nd39:w</title>
<path fill="none" stroke="purple" d="M624.7,-31C624.7,-16.8247 642.025,-26 656.2,-26"/>
</g>
<!-- nd188 -->
<g id="node11" class="node"><title>nd188</title>
<g id="a_node11"><a xlink:title="nd188&#45;ConstListGraph">
<path fill="none" stroke="purple" d="M573.867,-82.5C573.867,-82.5 583.533,-82.5 583.533,-82.5 588.367,-82.5 593.2,-77.6667 593.2,-72.8333 593.2,-72.8333 593.2,-63.1667 593.2,-63.1667 593.2,-58.3333 588.367,-53.5 583.533,-53.5 583.533,-53.5 573.867,-53.5 573.867,-53.5 569.033,-53.5 564.2,-58.3333 564.2,-63.1667 564.2,-63.1667 564.2,-72.8333 564.2,-72.8333 564.2,-77.6667 569.033,-82.5 573.867,-82.5"/>
<text text-anchor="middle" x="578.7" y="-64.3" font-family="Times,serif" font-size="14.00">::</text>
</a>
</g>
</g>
<!-- nd188&#45;&gt;nd28 -->
<g id="edge3" class="edge"><title>nd188:n&#45;&gt;nd28:w</title>
<path fill="none" stroke="purple" d="M578.7,-84C578.7,-87.5438 606.656,-89 610.2,-89"/>
</g>
<!-- nd188&#45;&gt;nd182 -->
<g id="edge4" class="edge"><title>nd188:s&#45;&gt;nd182:w</title>
<path fill="none" stroke="purple" d="M578.7,-52C578.7,-37.8247 596.025,-47 610.2,-47"/>
</g>
<!-- nd194 -->
<g id="node12" class="node"><title>nd194</title>
<g id="a_node12"><a xlink:title="nd194&#45;ConstListGraph">
<path fill="none" stroke="purple" d="M527.867,-103.5C527.867,-103.5 537.533,-103.5 537.533,-103.5 542.367,-103.5 547.2,-98.6667 547.2,-93.8333 547.2,-93.8333 547.2,-84.1667 547.2,-84.1667 547.2,-79.3333 542.367,-74.5 537.533,-74.5 537.533,-74.5 527.867,-74.5 527.867,-74.5 523.033,-74.5 518.2,-79.3333 518.2,-84.1667 518.2,-84.1667 518.2,-93.8333 518.2,-93.8333 518.2,-98.6667 523.033,-103.5 527.867,-103.5"/>
<text text-anchor="middle" x="532.7" y="-85.3" font-family="Times,serif" font-size="14.00">::</text>
</a>
</g>
</g>
<!-- nd194&#45;&gt;nd22 -->
<g id="edge5" class="edge"><title>nd194:n&#45;&gt;nd22:w</title>
<path fill="none" stroke="purple" d="M532.7,-105C532.7,-119.175 550.025,-110 564.2,-110"/>
</g>
<!-- nd194&#45;&gt;nd188 -->
<g id="edge6" class="edge"><title>nd194:s&#45;&gt;nd188:w</title>
<path fill="none" stroke="purple" d="M532.7,-73C532.7,-58.8247 550.025,-68 564.2,-68"/>
</g>
<!-- nd200 -->
<g id="node13" class="node"><title>nd200</title>
<g id="a_node13"><a xlink:title="nd200&#45;ConstListGraph">
<path fill="none" stroke="purple" d="M450.267,-100.5C450.267,-100.5 459.933,-100.5 459.933,-100.5 464.767,-100.5 469.6,-95.6667 469.6,-90.8333 469.6,-90.8333 469.6,-81.1667 469.6,-81.1667 469.6,-76.3333 464.767,-71.5 459.933,-71.5 459.933,-71.5 450.267,-71.5 450.267,-71.5 445.433,-71.5 440.6,-76.3333 440.6,-81.1667 440.6,-81.1667 440.6,-90.8333 440.6,-90.8333 440.6,-95.6667 445.433,-100.5 450.267,-100.5"/>
<text text-anchor="middle" x="455.1" y="-82.3" font-family="Times,serif" font-size="14.00">::</text>
</a>
</g>
</g>
<!-- nd209 -->
<g id="node28" class="node"><title>nd209</title>
<g id="a_node28"><a xlink:title="nd209&#45;ContractGraph">
<ellipse fill="black" stroke="black" cx="499.4" cy="-137" rx="1.8" ry="1.8"/>
</a>
</g>
</g>
<!-- nd200&#45;&gt;nd209 -->
<g id="edge7" class="edge"><title>nd200:n&#45;&gt;nd209:w</title>
<path fill="none" stroke="black" d="M455.1,-102C455.1,-114.646 471.139,-105.959 480.9,-114 490.65,-122.032 484.967,-137 497.6,-137"/>
</g>
<!-- nd210 -->
<g id="node29" class="node"><title>nd210</title>
<g id="a_node29"><a xlink:title="nd210&#45;ContractGraph">
<ellipse fill="black" stroke="black" cx="499.4" cy="-89" rx="1.8" ry="1.8"/>
</a>
</g>
</g>
<!-- nd200&#45;&gt;nd210 -->
<g id="edge8" class="edge"><title>nd200:s&#45;&gt;nd210:w</title>
<path fill="none" stroke="black" d="M455.1,-70C455.1,-63.5402 463.468,-68.9674 469.6,-71 483.643,-75.6551 482.806,-89 497.6,-89"/>
</g>
<!-- nd68 -->
<g id="node15" class="node"><title>nd68</title>
<g id="a_node15"><a xlink:title="nd68&#45;AppGraph">
<path fill="none" stroke="#000000" d="M385.547,-179.054C385.547,-179.054 381.672,-173.446 381.672,-173.446 380.136,-171.223 380.136,-166.777 381.672,-164.554 381.672,-164.554 385.547,-158.946 385.547,-158.946 387.083,-156.723 391.321,-154.502 394.023,-154.505 394.023,-154.505 399.427,-154.509 399.427,-154.509 402.129,-154.511 404.831,-157.215 404.831,-159.917 404.831,-159.917 404.831,-178.083 404.831,-178.083 404.831,-180.785 402.129,-183.489 399.427,-183.491 399.427,-183.491 394.023,-183.495 394.023,-183.495 391.321,-183.498 387.083,-181.277 385.547,-179.054"/>
<text text-anchor="middle" x="393.1" y="-165.3" font-family="Times,serif" font-size="14.00">@</text>
</a>
</g>
</g>
<!-- nd67&#45;&gt;nd68 -->
<g id="edge19" class="edge"><title>nd67:n&#45;&gt;nd68:w</title>
<path fill="none" stroke="#b70000" d="M35.1,-175C35.1,-212.945 80.1553,-195 118.1,-195 118.1,-195 118.1,-195 348.1,-195 365.912,-195 360.788,-169 378.6,-169"/>
<text text-anchor="middle" x="246.6" y="-198.8" font-family="Times,serif" font-size="14.00">condition</text>
</g>
<!-- nd84 -->
<g id="node17" class="node"><title>nd84</title>
<g id="a_node17"><a xlink:title="nd84&#45;AppGraph">
<path fill="none" stroke="#000000" d="M111.547,-134.054C111.547,-134.054 107.672,-128.446 107.672,-128.446 106.136,-126.223 106.136,-121.777 107.672,-119.554 107.672,-119.554 111.547,-113.946 111.547,-113.946 113.083,-111.723 117.321,-109.502 120.023,-109.505 120.023,-109.505 125.427,-109.509 125.427,-109.509 128.129,-109.511 130.831,-112.215 130.831,-114.917 130.831,-114.917 130.831,-133.083 130.831,-133.083 130.831,-135.785 128.129,-138.489 125.427,-138.491 125.427,-138.491 120.023,-138.495 120.023,-138.495 117.321,-138.498 113.083,-136.277 111.547,-134.054"/>
<text text-anchor="middle" x="119.1" y="-120.3" font-family="Times,serif" font-size="14.00">@</text>
</a>
</g>
</g>
<!-- nd67&#45;&gt;nd84 -->
<g id="edge20" class="edge"><title>nd67:s&#45;&gt;nd84:w</title>
<path fill="none" stroke="grey" d="M35.1,-143C35.1,-130.923 78.9954,-124 104.6,-124"/>
<text text-anchor="middle" x="77.1" y="-132.8" font-family="Times,serif" font-size="14.00">is false</text>
</g>
<!-- nd125 -->
<g id="node25" class="node"><title>nd125</title>
<g id="a_node25"><a xlink:title="nd125&#45;ContractGraph">
<ellipse fill="black" stroke="black" cx="295.1" cy="-130" rx="1.8" ry="1.8"/>
</a>
</g>
</g>
<!-- nd67&#45;&gt;nd125 -->
<g id="edge22" class="edge"><title>nd67:e&#45;&gt;nd125:w</title>
<path fill="none" stroke="grey" d="M49.6,-159C122.311,-159 140.561,-154.864 212.6,-145 248.224,-140.122 256.143,-130 292.1,-130"/>
<text text-anchor="middle" x="158.6" y="-157.8" font-family="Times,serif" font-size="14.00">is true</text>
</g>
<!-- ndcluster_nd70 -->
<g id="node16" class="node"><title>ndcluster_nd70</title>
<g id="a_node16"><a xlink:title="nd70">
<ellipse fill="orange" stroke="orange" cx="455.1" cy="-169" rx="1.8" ry="1.8"/>
</a>
</g>
</g>
<!-- nd68&#45;&gt;ndcluster_nd70 -->
<g id="edge9" class="edge"><title>nd68:e&#45;&gt;ndcluster_nd70:w</title>
<path fill="none" stroke="black" d="M406.1,-169C426.544,-169 431.656,-169 452.1,-169"/>
</g>
<!-- nd206 -->
<g id="node27" class="node"><title>nd206</title>
<g id="a_node27"><a xlink:title="nd206&#45;ConstListGraph">
<path fill="none" stroke="purple" d="M450.267,-149.5C450.267,-149.5 459.933,-149.5 459.933,-149.5 464.767,-149.5 469.6,-144.667 469.6,-139.833 469.6,-139.833 469.6,-130.167 469.6,-130.167 469.6,-125.333 464.767,-120.5 459.933,-120.5 459.933,-120.5 450.267,-120.5 450.267,-120.5 445.433,-120.5 440.6,-125.333 440.6,-130.167 440.6,-130.167 440.6,-139.833 440.6,-139.833 440.6,-144.667 445.433,-149.5 450.267,-149.5"/>
<text text-anchor="middle" x="455.1" y="-131.3" font-family="Times,serif" font-size="14.00">::</text>
</a>
</g>
</g>
<!-- nd68&#45;&gt;nd206 -->
<g id="edge23" class="edge"><title>nd68:s&#45;&gt;nd206:w</title>
<path fill="none" stroke="red" d="M395.464,-143.187C402.044,-132.39 421.262,-135 439.1,-135"/>
<polygon fill="red" stroke="red" points="392.039,-142.458 393.1,-153 398.845,-144.098 392.039,-142.458"/>
<text text-anchor="middle" x="419.1" y="-137.8" font-family="Times,serif" font-size="14.00">x</text>
</g>
<!-- nd85 -->
<g id="node18" class="node"><title>nd85</title>
<g id="a_node18"><a xlink:title="nd85&#45;AppGraph">
<path fill="none" stroke="#000000" d="M190.547,-134.054C190.547,-134.054 186.672,-128.446 186.672,-128.446 185.136,-126.223 185.136,-121.777 186.672,-119.554 186.672,-119.554 190.547,-113.946 190.547,-113.946 192.083,-111.723 196.321,-109.502 199.023,-109.505 199.023,-109.505 204.427,-109.509 204.427,-109.509 207.129,-109.511 209.831,-112.215 209.831,-114.917 209.831,-114.917 209.831,-133.083 209.831,-133.083 209.831,-135.785 207.129,-138.489 204.427,-138.491 204.427,-138.491 199.023,-138.495 199.023,-138.495 196.321,-138.498 192.083,-136.277 190.547,-134.054"/>
<text text-anchor="middle" x="198.1" y="-120.3" font-family="Times,serif" font-size="14.00">@</text>
</a>
</g>
</g>
<!-- nd84&#45;&gt;nd85 -->
<g id="edge15" class="edge"><title>nd84:e&#45;&gt;nd85:w</title>
<path fill="none" stroke="black" d="M132.1,-124C154.989,-124 160.711,-124 183.6,-124"/>
</g>
<!-- nd105 -->
<g id="node21" class="node"><title>nd105</title>
<g id="a_node21"><a xlink:title="nd105&#45;BinOpGraph">
<ellipse fill="none" stroke="#000000" cx="198.1" cy="-75" rx="14.5" ry="14.5"/>
<text text-anchor="middle" x="198.1" y="-71.3" font-family="Times,serif" font-size="14.00">+</text>
</a>
</g>
</g>
<!-- nd84&#45;&gt;nd105 -->
<g id="edge16" class="edge"><title>nd84:s&#45;&gt;nd105:w</title>
<path fill="none" stroke="black" d="M119.1,-108C119.1,-75.7992 151.399,-75 183.6,-75"/>
</g>
<!-- nd85&#45;&gt;nd136 -->
<g id="edge11" class="edge"><title>nd85:e&#45;&gt;nd136:w</title>
<path fill="none" stroke="black" d="M211.1,-124C246.301,-124 247.899,-157 283.1,-157"/>
</g>
<!-- nd89 -->
<g id="node19" class="node"><title>nd89</title>
<g id="a_node19"><a xlink:title="nd89&#45;AppGraph">
<path fill="none" stroke="#000000" d="M287.547,-103.054C287.547,-103.054 283.672,-97.4457 283.672,-97.4457 282.136,-95.2229 282.136,-90.7771 283.672,-88.5543 283.672,-88.5543 287.547,-82.9457 287.547,-82.9457 289.083,-80.7229 293.321,-78.5023 296.023,-78.5045 296.023,-78.5045 301.427,-78.509 301.427,-78.509 304.129,-78.5113 306.831,-81.2155 306.831,-83.9174 306.831,-83.9174 306.831,-102.083 306.831,-102.083 306.831,-104.785 304.129,-107.489 301.427,-107.491 301.427,-107.491 296.023,-107.495 296.023,-107.495 293.321,-107.498 289.083,-105.277 287.547,-103.054"/>
<text text-anchor="middle" x="295.1" y="-89.3" font-family="Times,serif" font-size="14.00">@</text>
</a>
</g>
</g>
<!-- nd85&#45;&gt;nd89 -->
<g id="edge12" class="edge"><title>nd85:s&#45;&gt;nd89:w</title>
<path fill="none" stroke="black" d="M198.1,-108C198.1,-89.3661 261.966,-93 280.6,-93"/>
</g>
<!-- ndcluster_nd91 -->
<g id="node20" class="node"><title>ndcluster_nd91</title>
<g id="a_node20"><a xlink:title="nd91">
<ellipse fill="orange" stroke="orange" cx="347.1" cy="-81" rx="1.8" ry="1.8"/>
</a>
</g>
</g>
<!-- nd89&#45;&gt;ndcluster_nd91 -->
<g id="edge10" class="edge"><title>nd89:e&#45;&gt;ndcluster_nd91:w</title>
<path fill="none" stroke="black" d="M308.1,-93C324.965,-93 327.235,-81 344.1,-81"/>
</g>
<!-- nd123 -->
<g id="node24" class="node"><title>nd123</title>
<g id="a_node24"><a xlink:title="nd123&#45;ContractGraph">
<ellipse fill="black" stroke="black" cx="347.1" cy="-61" rx="1.8" ry="1.8"/>
</a>
</g>
</g>
<!-- nd89&#45;&gt;nd123 -->
<g id="edge18" class="edge"><title>nd89:s&#45;&gt;nd123:w</title>
<path fill="none" stroke="black" d="M295.1,-77C295.1,-76.642 343.742,-61 344.1,-61"/>
</g>
<!-- nd108 -->
<g id="node22" class="node"><title>nd108</title>
<g id="a_node22"><a xlink:title="nd108&#45;AppGraph">
<path fill="none" stroke="#000000" d="M287.547,-61.0543C287.547,-61.0543 283.672,-55.4457 283.672,-55.4457 282.136,-53.2229 282.136,-48.7771 283.672,-46.5543 283.672,-46.5543 287.547,-40.9457 287.547,-40.9457 289.083,-38.7229 293.321,-36.5023 296.023,-36.5045 296.023,-36.5045 301.427,-36.509 301.427,-36.509 304.129,-36.5113 306.831,-39.2155 306.831,-41.9174 306.831,-41.9174 306.831,-60.0826 306.831,-60.0826 306.831,-62.7845 304.129,-65.4887 301.427,-65.491 301.427,-65.491 296.023,-65.4955 296.023,-65.4955 293.321,-65.4977 289.083,-63.2771 287.547,-61.0543"/>
<text text-anchor="middle" x="295.1" y="-47.3" font-family="Times,serif" font-size="14.00">@</text>
</a>
</g>
</g>
<!-- nd105&#45;&gt;nd108 -->
<g id="edge14" class="edge"><title>nd105:s&#45;&gt;nd108:w</title>
<path fill="none" stroke="black" d="M198.1,-59C198.1,-22.1613 243.761,-51 280.6,-51"/>
</g>
<!-- nd105&#45;&gt;nd125 -->
<g id="edge21" class="edge"><title>nd105:n&#45;&gt;nd125:w</title>
<path fill="none" stroke="black" d="M198.1,-91C198.1,-99.9237 264.407,-117.462 272.6,-121 281.363,-124.784 282.555,-130 292.1,-130"/>
</g>
<!-- ndcluster_nd110 -->
<g id="node23" class="node"><title>ndcluster_nd110</title>
<g id="a_node23"><a xlink:title="nd110">
<ellipse fill="orange" stroke="orange" cx="347.1" cy="-18" rx="1.8" ry="1.8"/>
</a>
</g>
</g>
<!-- nd108&#45;&gt;ndcluster_nd110 -->
<g id="edge13" class="edge"><title>nd108:e&#45;&gt;ndcluster_nd110:w</title>
<path fill="none" stroke="black" d="M308.1,-51C329.805,-51 322.395,-18 344.1,-18"/>
</g>
<!-- nd108&#45;&gt;nd123 -->
<g id="edge17" class="edge"><title>nd108:s&#45;&gt;nd123:w</title>
<path fill="none" stroke="black" d="M295.1,-35C295.1,-28.5402 303.577,-33.6662 309.6,-36 327.257,-42.8412 325.164,-61 344.1,-61"/>
</g>
<!-- nd126 -->
<g id="node26" class="node"><title>nd126</title>
<g id="a_node26"><a xlink:title="nd126&#45;ContractGraph">
<ellipse fill="black" stroke="black" cx="393.1" cy="-69" rx="1.8" ry="1.8"/>
</a>
</g>
</g>
<!-- nd123&#45;&gt;nd126 -->
<g id="edge24" class="edge"><title>nd123:e&#45;&gt;nd126:w</title>
<path fill="none" stroke="black" d="M350.1,-61C368.23,-61 371.97,-69 390.1,-69"/>
</g>
<!-- nd125&#45;&gt;nd50 -->
<g id="edge26" class="edge"><title>nd125:e&#45;&gt;nd50:w</title>
<path fill="none" stroke="black" d="M298.1,-130C309.911,-130 313.409,-128.222 324.6,-132 328.466,-133.305 328.22,-137 332.3,-137"/>
<text text-anchor="middle" x="321.1" y="-135.8" font-family="Times,serif" font-size="14.00">y</text>
</g>
<!-- nd126&#45;&gt;nd200 -->
<g id="edge27" class="edge"><title>nd126:e&#45;&gt;nd200:w</title>
<path fill="none" stroke="black" d="M396.1,-69C416.65,-69 418.55,-86 439.1,-86"/>
<text text-anchor="middle" x="419.1" y="-84.8" font-family="Times,serif" font-size="14.00">x</text>
</g>
<!-- nd206&#45;&gt;nd209 -->
<g id="edge32" class="edge"><title>nd206:n&#45;&gt;nd209:w</title>
<path fill="none" stroke="black" d="M455.1,-151C455.1,-157.46 463.344,-151.609 469.6,-150 482.888,-146.582 483.88,-137 497.6,-137"/>
</g>
<!-- nd206&#45;&gt;nd210 -->
<g id="edge33" class="edge"><title>nd206:s&#45;&gt;nd210:w</title>
<path fill="none" stroke="black" d="M455.1,-119C455.1,-106.354 470.675,-114.441 480.9,-107 489.724,-100.579 486.687,-89 497.6,-89"/>
</g>
<!-- nd209&#45;&gt;nd16 -->
<g id="edge30" class="edge"><title>nd209:e&#45;&gt;nd16:w</title>
<path fill="none" stroke="black" d="M501.2,-137C508.756,-137 510.644,-137 518.2,-137"/>
</g>
<!-- nd210&#45;&gt;nd194 -->
<g id="edge31" class="edge"><title>nd210:e&#45;&gt;nd194:w</title>
<path fill="none" stroke="black" d="M501.2,-89C508.756,-89 510.644,-89 518.2,-89"/>
</g>
</g>
</svg>
