<?xml version="1.0" encoding="UTF-8" standalone="no"?>
<!DOCTYPE svg PUBLIC "-//W3C//DTD SVG 1.1//EN"
 "http://www.w3.org/Graphics/SVG/1.1/DTD/svg11.dtd">
<!-- Generated by graphviz version 2.38.0 (20140413.2041)
 -->
<!-- Title: G Pages: 1 -->
<svg width="425pt" height="269pt"
 viewBox="0.00 0.00 425.20 269.00" xmlns="http://www.w3.org/2000/svg" xmlns:xlink="http://www.w3.org/1999/xlink">
<g id="graph0" class="graph" transform="scale(1 1) rotate(0) translate(4 265)">
<title>G</title>
<polygon fill="white" stroke="none" points="-4,4 -4,-265 421.2,-265 421.2,4 -4,4"/>
<g id="clust1" class="cluster"><title>cluster_nd472</title>
<polygon fill="none" stroke="orange" points="320.3,-160 320.3,-180 339.9,-180 339.9,-160 320.3,-160"/>
</g>
<g id="clust2" class="cluster"><title>cluster_nd405</title>
<polygon fill="none" stroke="orange" points="196.3,-210 196.3,-253 246.9,-253 246.9,-210 196.3,-210"/>
<text text-anchor="middle" x="221.6" y="-237.8" font-family="Times,serif" font-size="14.00">empty</text>
</g>
<g id="clust3" class="cluster"><title>cluster_nd415</title>
<polygon fill="none" stroke="orange" points="318.3,-71 318.3,-114 341.9,-114 341.9,-71 318.3,-71"/>
<text text-anchor="middle" x="330.1" y="-98.8" font-family="Times,serif" font-size="14.00">tl</text>
</g>
<g id="clust4" class="cluster"><title>cluster_nd424</title>
<polygon fill="none" stroke="orange" points="315.3,-8 315.3,-51 344.9,-51 344.9,-8 315.3,-8"/>
<text text-anchor="middle" x="330.1" y="-35.8" font-family="Times,serif" font-size="14.00">hd</text>
</g>
<!-- nd1 -->
<g id="node1" class="node"><title>nd1</title>
<ellipse fill="black" stroke="black" cx="1.8" cy="-159" rx="1.8" ry="1.8"/>
</g>
<!-- nd401 -->
<g id="node6" class="node"><title>nd401</title>
<g id="a_node6"><a xlink:title="nd401&#45;IfGraph">
<ellipse fill="none" stroke="#000000" cx="35.1" cy="-159" rx="14.5" ry="14.5"/>
<text text-anchor="middle" x="35.1" y="-155.3" font-family="Times,serif" font-size="14.00">if</text>
</a>
</g>
</g>
<!-- nd1&#45;&gt;nd401 -->
<g id="edge17" class="edge"><title>nd1:e&#45;&gt;nd401:w</title>
<path fill="none" stroke="red" d="M3.6,-159C6.43333,-159 8.46979,-159 10.307,-159"/>
<polygon fill="red" stroke="red" points="10.6,-162.5 20.6,-159 10.6,-155.5 10.6,-162.5"/>
</g>
<!-- nd39 -->
<g id="node2" class="node"><title>nd39</title>
<g id="a_node2"><a xlink:title="nd39&#45;ConstEmptyGraph">
<path fill="none" stroke="purple" d="M397.867,-171.5C397.867,-171.5 407.533,-171.5 407.533,-171.5 412.367,-171.5 417.2,-166.667 417.2,-161.833 417.2,-161.833 417.2,-152.167 417.2,-152.167 417.2,-147.333 412.367,-142.5 407.533,-142.5 407.533,-142.5 397.867,-142.5 397.867,-142.5 393.033,-142.5 388.2,-147.333 388.2,-152.167 388.2,-152.167 388.2,-161.833 388.2,-161.833 388.2,-166.667 393.033,-171.5 397.867,-171.5"/>
<text text-anchor="middle" x="402.7" y="-153.3" font-family="Times,serif" font-size="14.00">[]</text>
</a>
</g>
</g>
<!-- nd463 -->
<g id="node3" class="node"><title>nd463</title>
<g id="a_node3"><a xlink:title="nd463&#45;ConstGraph">
<path fill="none" stroke="purple" d="M325.267,-151.5C325.267,-151.5 334.933,-151.5 334.933,-151.5 339.767,-151.5 344.6,-146.667 344.6,-141.833 344.6,-141.833 344.6,-132.167 344.6,-132.167 344.6,-127.333 339.767,-122.5 334.933,-122.5 334.933,-122.5 325.267,-122.5 325.267,-122.5 320.433,-122.5 315.6,-127.333 315.6,-132.167 315.6,-132.167 315.6,-141.833 315.6,-141.833 315.6,-146.667 320.433,-151.5 325.267,-151.5"/>
<text text-anchor="middle" x="330.1" y="-133.3" font-family="Times,serif" font-size="14.00">10</text>
</a>
</g>
</g>
<!-- nd468 -->
<g id="node4" class="node"><title>nd468</title>
<g id="a_node4"><a xlink:title="nd468&#45;RecurGraph">
<ellipse fill="none" stroke="#000000" cx="278.1" cy="-157" rx="11" ry="11"/>
<text text-anchor="middle" x="278.1" y="-153.3" font-family="Times,serif" font-size="14.00">rec</text>
</a>
</g>
</g>
<!-- ndcluster_nd472 -->
<g id="node5" class="node"><title>ndcluster_nd472</title>
<g id="a_node5"><a xlink:title="nd472">
<ellipse fill="orange" stroke="orange" cx="330.1" cy="-170" rx="1.8" ry="1.8"/>
</a>
</g>
</g>
<!-- nd468&#45;&gt;ndcluster_nd472 -->
<g id="edge20" class="edge"><title>nd468:n&#45;&gt;ndcluster_nd472:e</title>
<path fill="none" stroke="grey" d="M278.1,-169C278.1,-191.346 305.963,-171.178 328.3,-171.8 329.988,-171.847 330.644,-172.656 332.1,-171.8 332.889,-171.336 334.015,-170 333.1,-170"/>
</g>
<!-- nd468&#45;&gt;ndcluster_nd472 -->
<g id="edge21" class="edge"><title>nd468:e&#45;&gt;ndcluster_nd472:w</title>
<path fill="none" stroke="black" d="M290.1,-157C307.53,-157 309.67,-170 327.1,-170"/>
</g>
<!-- nd402 -->
<g id="node7" class="node"><title>nd402</title>
<g id="a_node7"><a xlink:title="nd402&#45;AppGraph">
<path fill="none" stroke="#000000" d="M124.547,-220.054C124.547,-220.054 120.672,-214.446 120.672,-214.446 119.136,-212.223 119.136,-207.777 120.672,-205.554 120.672,-205.554 124.547,-199.946 124.547,-199.946 126.083,-197.723 130.321,-195.502 133.023,-195.505 133.023,-195.505 138.427,-195.509 138.427,-195.509 141.129,-195.511 143.831,-198.215 143.831,-200.917 143.831,-200.917 143.831,-219.083 143.831,-219.083 143.831,-221.785 141.129,-224.489 138.427,-224.491 138.427,-224.491 133.023,-224.495 133.023,-224.495 130.321,-224.498 126.083,-222.277 124.547,-220.054"/>
<text text-anchor="middle" x="132.1" y="-206.3" font-family="Times,serif" font-size="14.00">@</text>
</a>
</g>
</g>
<!-- nd401&#45;&gt;nd402 -->
<g id="edge11" class="edge"><title>nd401:n&#45;&gt;nd402:w</title>
<path fill="none" stroke="black" d="M35.1,-175C35.1,-214.83 77.7701,-210 117.6,-210"/>
<text text-anchor="middle" x="83.6" y="-214.8" font-family="Times,serif" font-size="14.00">condition</text>
</g>
<!-- nd409 -->
<g id="node9" class="node"><title>nd409</title>
<g id="a_node9"><a xlink:title="nd409&#45;AppGraph">
<path fill="none" stroke="#000000" d="M124.547,-134.054C124.547,-134.054 120.672,-128.446 120.672,-128.446 119.136,-126.223 119.136,-121.777 120.672,-119.554 120.672,-119.554 124.547,-113.946 124.547,-113.946 126.083,-111.723 130.321,-109.502 133.023,-109.505 133.023,-109.505 138.427,-109.509 138.427,-109.509 141.129,-109.511 143.831,-112.215 143.831,-114.917 143.831,-114.917 143.831,-133.083 143.831,-133.083 143.831,-135.785 141.129,-138.489 138.427,-138.491 138.427,-138.491 133.023,-138.495 133.023,-138.495 130.321,-138.498 126.083,-136.277 124.547,-134.054"/>
<text text-anchor="middle" x="132.1" y="-120.3" font-family="Times,serif" font-size="14.00">@</text>
</a>
</g>
</g>
<!-- nd401&#45;&gt;nd409 -->
<g id="edge12" class="edge"><title>nd401:s&#45;&gt;nd409:w</title>
<path fill="none" stroke="grey" d="M35.1,-143C35.1,-126.977 69.9155,-124 117.6,-124"/>
<text text-anchor="middle" x="83.6" y="-131.8" font-family="Times,serif" font-size="14.00">is false</text>
</g>
<!-- nd429 -->
<g id="node17" class="node"><title>nd429</title>
<g id="a_node17"><a xlink:title="nd429&#45;ContractGraph">
<ellipse fill="black" stroke="black" cx="278.1" cy="-130" rx="1.8" ry="1.8"/>
</a>
</g>
</g>
<!-- nd401&#45;&gt;nd429 -->
<g id="edge14" class="edge"><title>nd401:e&#45;&gt;nd429:w</title>
<path fill="none" stroke="grey" d="M49.6,-159C137.509,-159 162.41,-169.281 246.9,-145 260.544,-141.079 260.904,-130 275.1,-130"/>
<text text-anchor="middle" x="171.6" y="-164.8" font-family="Times,serif" font-size="14.00">is true</text>
</g>
<!-- ndcluster_nd405 -->
<g id="node8" class="node"><title>ndcluster_nd405</title>
<g id="a_node8"><a xlink:title="nd405">
<ellipse fill="orange" stroke="orange" cx="221.1" cy="-220" rx="1.8" ry="1.8"/>
</a>
</g>
</g>
<!-- nd402&#45;&gt;ndcluster_nd405 -->
<g id="edge1" class="edge"><title>nd402:e&#45;&gt;ndcluster_nd405:w</title>
<path fill="none" stroke="black" d="M145.1,-210C177.847,-210 185.353,-220 218.1,-220"/>
</g>
<!-- nd430 -->
<g id="node18" class="node"><title>nd430</title>
<g id="a_node18"><a xlink:title="nd430&#45;ContractGraph">
<ellipse fill="black" stroke="black" cx="363.4" cy="-157" rx="1.8" ry="1.8"/>
</a>
</g>
</g>
<!-- nd402&#45;&gt;nd430 -->
<g id="edge15" class="edge"><title>nd402:s&#45;&gt;nd430:w</title>
<path fill="none" stroke="black" d="M132.1,-194C132.1,-174.443 200.543,-195 220.1,-195 220.1,-195 220.1,-195 331.1,-195 339.228,-195 339.584,-189.148 344.9,-183 353.883,-172.612 347.866,-157 361.6,-157"/>
</g>
<!-- nd410 -->
<g id="node10" class="node"><title>nd410</title>
<g id="a_node10"><a xlink:title="nd410&#45;AppGraph">
<path fill="none" stroke="#000000" d="M213.547,-134.054C213.547,-134.054 209.672,-128.446 209.672,-128.446 208.136,-126.223 208.136,-121.777 209.672,-119.554 209.672,-119.554 213.547,-113.946 213.547,-113.946 215.083,-111.723 219.321,-109.502 222.023,-109.505 222.023,-109.505 227.427,-109.509 227.427,-109.509 230.129,-109.511 232.831,-112.215 232.831,-114.917 232.831,-114.917 232.831,-133.083 232.831,-133.083 232.831,-135.785 230.129,-138.489 227.427,-138.491 227.427,-138.491 222.023,-138.495 222.023,-138.495 219.321,-138.498 215.083,-136.277 213.547,-134.054"/>
<text text-anchor="middle" x="221.1" y="-120.3" font-family="Times,serif" font-size="14.00">@</text>
</a>
</g>
</g>
<!-- nd409&#45;&gt;nd410 -->
<g id="edge7" class="edge"><title>nd409:e&#45;&gt;nd410:w</title>
<path fill="none" stroke="black" d="M145.1,-124C171.767,-124 178.433,-124 205.1,-124"/>
</g>
<!-- nd420 -->
<g id="node13" class="node"><title>nd420</title>
<g id="a_node13"><a xlink:title="nd420&#45;BinOpGraph">
<ellipse fill="none" stroke="#000000" cx="221.1" cy="-75" rx="14.5" ry="14.5"/>
<text text-anchor="middle" x="221.1" y="-71.3" font-family="Times,serif" font-size="14.00">+</text>
</a>
</g>
</g>
<!-- nd409&#45;&gt;nd420 -->
<g id="edge8" class="edge"><title>nd409:s&#45;&gt;nd420:w</title>
<path fill="none" stroke="black" d="M132.1,-108C132.1,-72.3945 169.494,-75 205.1,-75"/>
</g>
<!-- nd410&#45;&gt;nd468 -->
<g id="edge3" class="edge"><title>nd410:e&#45;&gt;nd468:w</title>
<path fill="none" stroke="black" d="M234.1,-124C254.53,-124 245.67,-157 266.1,-157"/>
</g>
<!-- nd412 -->
<g id="node11" class="node"><title>nd412</title>
<g id="a_node11"><a xlink:title="nd412&#45;AppGraph">
<path fill="none" stroke="#000000" d="M270.547,-102.054C270.547,-102.054 266.672,-96.4457 266.672,-96.4457 265.136,-94.2229 265.136,-89.7771 266.672,-87.5543 266.672,-87.5543 270.547,-81.9457 270.547,-81.9457 272.083,-79.7229 276.321,-77.5023 279.023,-77.5045 279.023,-77.5045 284.427,-77.509 284.427,-77.509 287.129,-77.5113 289.831,-80.2155 289.831,-82.9174 289.831,-82.9174 289.831,-101.083 289.831,-101.083 289.831,-103.785 287.129,-106.489 284.427,-106.491 284.427,-106.491 279.023,-106.495 279.023,-106.495 276.321,-106.498 272.083,-104.277 270.547,-102.054"/>
<text text-anchor="middle" x="278.1" y="-88.3" font-family="Times,serif" font-size="14.00">@</text>
</a>
</g>
</g>
<!-- nd410&#45;&gt;nd412 -->
<g id="edge4" class="edge"><title>nd410:s&#45;&gt;nd412:w</title>
<path fill="none" stroke="black" d="M221.1,-108C221.1,-102.954 258.554,-92 263.6,-92"/>
</g>
<!-- ndcluster_nd415 -->
<g id="node12" class="node"><title>ndcluster_nd415</title>
<g id="a_node12"><a xlink:title="nd415">
<ellipse fill="orange" stroke="orange" cx="330.1" cy="-81" rx="1.8" ry="1.8"/>
</a>
</g>
</g>
<!-- nd412&#45;&gt;ndcluster_nd415 -->
<g id="edge2" class="edge"><title>nd412:e&#45;&gt;ndcluster_nd415:w</title>
<path fill="none" stroke="black" d="M291.1,-92C307.83,-92 310.37,-81 327.1,-81"/>
</g>
<!-- nd428 -->
<g id="node16" class="node"><title>nd428</title>
<g id="a_node16"><a xlink:title="nd428&#45;ContractGraph">
<ellipse fill="black" stroke="black" cx="330.1" cy="-61" rx="1.8" ry="1.8"/>
</a>
</g>
</g>
<!-- nd412&#45;&gt;nd428 -->
<g id="edge10" class="edge"><title>nd412:s&#45;&gt;nd428:w</title>
<path fill="none" stroke="black" d="M278.1,-76C278.1,-75.2883 326.388,-61 327.1,-61"/>
</g>
<!-- nd421 -->
<g id="node14" class="node"><title>nd421</title>
<g id="a_node14"><a xlink:title="nd421&#45;AppGraph">
<path fill="none" stroke="#000000" d="M270.547,-60.0543C270.547,-60.0543 266.672,-54.4457 266.672,-54.4457 265.136,-52.2229 265.136,-47.7771 266.672,-45.5543 266.672,-45.5543 270.547,-39.9457 270.547,-39.9457 272.083,-37.7229 276.321,-35.5023 279.023,-35.5045 279.023,-35.5045 284.427,-35.509 284.427,-35.509 287.129,-35.5113 289.831,-38.2155 289.831,-40.9174 289.831,-40.9174 289.831,-59.0826 289.831,-59.0826 289.831,-61.7845 287.129,-64.4887 284.427,-64.491 284.427,-64.491 279.023,-64.4955 279.023,-64.4955 276.321,-64.4977 272.083,-62.2771 270.547,-60.0543"/>
<text text-anchor="middle" x="278.1" y="-46.3" font-family="Times,serif" font-size="14.00">@</text>
</a>
</g>
</g>
<!-- nd420&#45;&gt;nd421 -->
<g id="edge6" class="edge"><title>nd420:s&#45;&gt;nd421:w</title>
<path fill="none" stroke="black" d="M221.1,-59C221.1,-39.6922 244.292,-50 263.6,-50"/>
</g>
<!-- nd420&#45;&gt;nd429 -->
<g id="edge13" class="edge"><title>nd420:n&#45;&gt;nd429:w</title>
<path fill="none" stroke="black" d="M221.1,-91C221.1,-103.646 236.459,-95.8645 246.9,-103 261.226,-112.791 257.748,-130 275.1,-130"/>
</g>
<!-- ndcluster_nd424 -->
<g id="node15" class="node"><title>ndcluster_nd424</title>
<g id="a_node15"><a xlink:title="nd424">
<ellipse fill="orange" stroke="orange" cx="330.1" cy="-18" rx="1.8" ry="1.8"/>
</a>
</g>
</g>
<!-- nd421&#45;&gt;ndcluster_nd424 -->
<g id="edge5" class="edge"><title>nd421:e&#45;&gt;ndcluster_nd424:w</title>
<path fill="none" stroke="black" d="M291.1,-50C312.507,-50 305.693,-18 327.1,-18"/>
</g>
<!-- nd421&#45;&gt;nd428 -->
<g id="edge9" class="edge"><title>nd421:s&#45;&gt;nd428:w</title>
<path fill="none" stroke="black" d="M278.1,-34C278.1,-27.5402 286.608,-32.5867 292.6,-35 310.41,-42.173 307.9,-61 327.1,-61"/>
</g>
<!-- nd428&#45;&gt;nd430 -->
<g id="edge16" class="edge"><title>nd428:e&#45;&gt;nd430:w</title>
<path fill="none" stroke="black" d="M333.1,-61C339.198,-61 341.405,-63.0035 344.9,-68 356.435,-84.4888 341.477,-157 361.6,-157"/>
</g>
<!-- nd429&#45;&gt;nd463 -->
<g id="edge18" class="edge"><title>nd429:e&#45;&gt;nd463:w</title>
<path fill="none" stroke="black" d="M281.1,-130C292.911,-130 296.409,-128.222 307.6,-132 311.466,-133.305 311.22,-137 315.3,-137"/>
<text text-anchor="middle" x="304.1" y="-136.8" font-family="Times,serif" font-size="14.00">y</text>
</g>
<!-- nd430&#45;&gt;nd39 -->
<g id="edge19" class="edge"><title>nd430:e&#45;&gt;nd39:w</title>
<path fill="none" stroke="black" d="M365.2,-157C375.422,-157 377.978,-157 388.2,-157"/>
<text text-anchor="middle" x="376.7" y="-160.8" font-family="Times,serif" font-size="14.00">x</text>
</g>
</g>
</svg>
