<?xml version="1.0" encoding="UTF-8" standalone="no"?>
<!DOCTYPE svg PUBLIC "-//W3C//DTD SVG 1.1//EN"
 "http://www.w3.org/Graphics/SVG/1.1/DTD/svg11.dtd">
<!-- Generated by graphviz version 2.38.0 (20140413.2041)
 -->
<!-- Title: G Pages: 1 -->
<svg width="292pt" height="154pt"
 viewBox="0.00 0.00 292.20 153.50" xmlns="http://www.w3.org/2000/svg" xmlns:xlink="http://www.w3.org/1999/xlink">
<g id="graph0" class="graph" transform="scale(1 1) rotate(0) translate(4 149.5)">
<title>G</title>
<polygon fill="white" stroke="none" points="-4,4 -4,-149.5 288.2,-149.5 288.2,4 -4,4"/>
<g id="clust1" class="cluster"><title>cluster_nd318</title>
<polygon fill="none" stroke="orange" points="256.6,-110.5 256.6,-130.5 276.2,-130.5 276.2,-110.5 256.6,-110.5"/>
</g>
<g id="clust2" class="cluster"><title>cluster_nd245</title>
<polygon fill="none" stroke="orange" points="169.3,-105.5 169.3,-125.5 188.9,-125.5 188.9,-105.5 169.3,-105.5"/>
</g>
<!-- nd1 -->
<g id="node1" class="node"><title>nd1</title>
<ellipse fill="black" stroke="black" cx="1.8" cy="-71.5" rx="1.8" ry="1.8"/>
</g>
<!-- nd154 -->
<g id="node7" class="node"><title>nd154</title>
<g id="a_node7"><a xlink:title="nd154&#45;AppGraph">
<path fill="none" stroke="#000000" d="M27.5473,-81.5543C27.5473,-81.5543 23.6719,-75.9457 23.6719,-75.9457 22.136,-73.7229 22.136,-69.2771 23.6719,-67.0543 23.6719,-67.0543 27.5473,-61.4457 27.5473,-61.4457 29.0833,-59.2229 33.3212,-57.0023 36.0231,-57.0045 36.0231,-57.0045 41.4269,-57.009 41.4269,-57.009 44.1288,-57.0113 46.8307,-59.7155 46.8307,-62.4174 46.8307,-62.4174 46.8307,-80.5826 46.8307,-80.5826 46.8307,-83.2845 44.1288,-85.9887 41.4269,-85.991 41.4269,-85.991 36.0231,-85.9955 36.0231,-85.9955 33.3212,-85.9977 29.0833,-83.7771 27.5473,-81.5543"/>
<text text-anchor="middle" x="35.1" y="-67.8" font-family="Times,serif" font-size="14.00">@</text>
</a>
</g>
</g>
<!-- nd1&#45;&gt;nd154 -->
<g id="edge8" class="edge"><title>nd1:e&#45;&gt;nd154:w</title>
<path fill="none" stroke="#b70000" d="M3.6,-71.5C11.1556,-71.5 13.0444,-71.5 20.6,-71.5"/>
</g>
<!-- nd28 -->
<g id="node2" class="node"><title>nd28</title>
<g id="a_node2"><a xlink:title="nd28&#45;ConstGraph">
<path fill="none" stroke="purple" d="M174.267,-92C174.267,-92 183.933,-92 183.933,-92 188.767,-92 193.6,-87.1667 193.6,-82.3333 193.6,-82.3333 193.6,-72.6667 193.6,-72.6667 193.6,-67.8333 188.767,-63 183.933,-63 183.933,-63 174.267,-63 174.267,-63 169.433,-63 164.6,-67.8333 164.6,-72.6667 164.6,-72.6667 164.6,-82.3333 164.6,-82.3333 164.6,-87.1667 169.433,-92 174.267,-92"/>
<text text-anchor="middle" x="179.1" y="-73.8" font-family="Times,serif" font-size="14.00">3</text>
</a>
</g>
</g>
<!-- nd34 -->
<g id="node3" class="node"><title>nd34</title>
<g id="a_node3"><a xlink:title="nd34&#45;ConstGraph">
<path fill="none" stroke="purple" d="M220.267,-71C220.267,-71 229.933,-71 229.933,-71 234.767,-71 239.6,-66.1667 239.6,-61.3333 239.6,-61.3333 239.6,-51.6667 239.6,-51.6667 239.6,-46.8333 234.767,-42 229.933,-42 229.933,-42 220.267,-42 220.267,-42 215.433,-42 210.6,-46.8333 210.6,-51.6667 210.6,-51.6667 210.6,-61.3333 210.6,-61.3333 210.6,-66.1667 215.433,-71 220.267,-71"/>
<text text-anchor="middle" x="225.1" y="-52.8" font-family="Times,serif" font-size="14.00">4</text>
</a>
</g>
</g>
<!-- nd39 -->
<g id="node4" class="node"><title>nd39</title>
<g id="a_node4"><a xlink:title="nd39&#45;ConstEmptyGraph">
<path fill="none" stroke="purple" d="M220.267,-29C220.267,-29 229.933,-29 229.933,-29 234.767,-29 239.6,-24.1667 239.6,-19.3333 239.6,-19.3333 239.6,-9.66667 239.6,-9.66667 239.6,-4.83333 234.767,-1.77636e-15 229.933,-1.77636e-15 229.933,-1.77636e-15 220.267,-1.77636e-15 220.267,-1.77636e-15 215.433,-1.77636e-15 210.6,-4.83333 210.6,-9.66667 210.6,-9.66667 210.6,-19.3333 210.6,-19.3333 210.6,-24.1667 215.433,-29 220.267,-29"/>
<text text-anchor="middle" x="225.1" y="-10.8" font-family="Times,serif" font-size="14.00">[]</text>
</a>
</g>
</g>
<!-- nd182 -->
<g id="node5" class="node"><title>nd182</title>
<g id="a_node5"><a xlink:title="nd182&#45;ConstListGraph">
<path fill="none" stroke="purple" d="M174.267,-50C174.267,-50 183.933,-50 183.933,-50 188.767,-50 193.6,-45.1667 193.6,-40.3333 193.6,-40.3333 193.6,-30.6667 193.6,-30.6667 193.6,-25.8333 188.767,-21 183.933,-21 183.933,-21 174.267,-21 174.267,-21 169.433,-21 164.6,-25.8333 164.6,-30.6667 164.6,-30.6667 164.6,-40.3333 164.6,-40.3333 164.6,-45.1667 169.433,-50 174.267,-50"/>
<text text-anchor="middle" x="179.1" y="-31.8" font-family="Times,serif" font-size="14.00">::</text>
</a>
</g>
</g>
<!-- nd182&#45;&gt;nd34 -->
<g id="edge1" class="edge"><title>nd182:n&#45;&gt;nd34:w</title>
<path fill="none" stroke="purple" d="M179.1,-51.5C179.1,-55.0438 207.056,-56.5 210.6,-56.5"/>
</g>
<!-- nd182&#45;&gt;nd39 -->
<g id="edge2" class="edge"><title>nd182:s&#45;&gt;nd39:w</title>
<path fill="none" stroke="purple" d="M179.1,-19.5C179.1,-5.32473 196.425,-14.5 210.6,-14.5"/>
</g>
<!-- nd188 -->
<g id="node6" class="node"><title>nd188</title>
<g id="a_node6"><a xlink:title="nd188&#45;ConstListGraph">
<path fill="none" stroke="purple" d="M122.267,-75C122.267,-75 131.933,-75 131.933,-75 136.767,-75 141.6,-70.1667 141.6,-65.3333 141.6,-65.3333 141.6,-55.6667 141.6,-55.6667 141.6,-50.8333 136.767,-46 131.933,-46 131.933,-46 122.267,-46 122.267,-46 117.433,-46 112.6,-50.8333 112.6,-55.6667 112.6,-55.6667 112.6,-65.3333 112.6,-65.3333 112.6,-70.1667 117.433,-75 122.267,-75"/>
<text text-anchor="middle" x="127.1" y="-56.8" font-family="Times,serif" font-size="14.00">::</text>
</a>
</g>
</g>
<!-- nd188&#45;&gt;nd28 -->
<g id="edge3" class="edge"><title>nd188:n&#45;&gt;nd28:w</title>
<path fill="none" stroke="purple" d="M127.1,-76.5C127.1,-84.8363 156.264,-77.5 164.6,-77.5"/>
</g>
<!-- nd188&#45;&gt;nd182 -->
<g id="edge4" class="edge"><title>nd188:s&#45;&gt;nd182:w</title>
<path fill="none" stroke="purple" d="M127.1,-44.5C127.1,-27.3601 147.46,-35.5 164.6,-35.5"/>
</g>
<!-- nd155 -->
<g id="node8" class="node"><title>nd155</title>
<g id="a_node8"><a xlink:title="nd155&#45;AppGraph">
<path fill="none" stroke="#000000" d="M73.5473,-101.554C73.5473,-101.554 69.6719,-95.9457 69.6719,-95.9457 68.136,-93.7229 68.136,-89.2771 69.6719,-87.0543 69.6719,-87.0543 73.5473,-81.4457 73.5473,-81.4457 75.0833,-79.2229 79.3212,-77.0023 82.0231,-77.0045 82.0231,-77.0045 87.4269,-77.009 87.4269,-77.009 90.1288,-77.0113 92.8307,-79.7155 92.8307,-82.4174 92.8307,-82.4174 92.8307,-100.583 92.8307,-100.583 92.8307,-103.285 90.1288,-105.989 87.4269,-105.991 87.4269,-105.991 82.0231,-105.995 82.0231,-105.995 79.3212,-105.998 75.0833,-103.777 73.5473,-101.554"/>
<text text-anchor="middle" x="81.1" y="-87.8" font-family="Times,serif" font-size="14.00">@</text>
</a>
</g>
</g>
<!-- nd154&#45;&gt;nd155 -->
<g id="edge6" class="edge"><title>nd154:e&#45;&gt;nd155:w</title>
<path fill="none" stroke="#b70000" d="M48.1,-71.5C60.2086,-71.5 54.4914,-91.5 66.6,-91.5"/>
</g>
<!-- nd309 -->
<g id="node9" class="node"><title>nd309</title>
<g id="a_node9"><a xlink:title="nd309&#45;ConstGraph">
<path fill="none" stroke="purple" d="M76.2667,-64C76.2667,-64 85.9333,-64 85.9333,-64 90.7667,-64 95.6,-59.1667 95.6,-54.3333 95.6,-54.3333 95.6,-44.6667 95.6,-44.6667 95.6,-39.8333 90.7667,-35 85.9333,-35 85.9333,-35 76.2667,-35 76.2667,-35 71.4333,-35 66.6,-39.8333 66.6,-44.6667 66.6,-44.6667 66.6,-54.3333 66.6,-54.3333 66.6,-59.1667 71.4333,-64 76.2667,-64"/>
<text text-anchor="middle" x="81.1" y="-45.8" font-family="Times,serif" font-size="14.00">3</text>
</a>
</g>
</g>
<!-- nd154&#45;&gt;nd309 -->
<g id="edge7" class="edge"><title>nd154:s&#45;&gt;nd309:w</title>
<path fill="none" stroke="black" d="M35.1,-55.5C35.1,-41.2483 52.3483,-49.5 66.6,-49.5"/>
</g>
<!-- nd155&#45;&gt;nd188 -->
<g id="edge9" class="edge"><title>nd155:s&#45;&gt;nd188:w</title>
<path fill="none" stroke="black" d="M81.1,-75.5C81.1,-68.6832 89.4091,-73.3535 95.6,-70.5 103.561,-66.8307 103.834,-60.5 112.6,-60.5"/>
</g>
<!-- nd242 -->
<g id="node12" class="node"><title>nd242</title>
<g id="a_node12"><a xlink:title="nd242&#45;AbsGraph">
<ellipse fill="none" stroke="#000000" cx="127.1" cy="-102.5" rx="14.5" ry="14.5"/>
<text text-anchor="middle" x="127.1" y="-98.8" font-family="Times,serif" font-size="14.00">fun</text>
</a>
</g>
</g>
<!-- nd155&#45;&gt;nd242 -->
<g id="edge5" class="edge"><title>nd155:e&#45;&gt;nd242:w</title>
<path fill="none" stroke="red" d="M94.1,-91.5C99.1819,-91.5 101.386,-94.6045 103.769,-97.515"/>
<polygon fill="red" stroke="red" points="102.171,-100.632 112.6,-102.5 105.612,-94.5361 102.171,-100.632"/>
</g>
<!-- nd314 -->
<g id="node10" class="node"><title>nd314</title>
<g id="a_node10"><a xlink:title="nd314&#45;RecurGraph">
<ellipse fill="none" stroke="#000000" cx="225.1" cy="-115.5" rx="11" ry="11"/>
<text text-anchor="middle" x="225.1" y="-111.8" font-family="Times,serif" font-size="14.00">rec</text>
</a>
</g>
</g>
<!-- ndcluster_nd318 -->
<g id="node11" class="node"><title>ndcluster_nd318</title>
<g id="a_node11"><a xlink:title="nd318">
<ellipse fill="orange" stroke="orange" cx="266.4" cy="-120.5" rx="1.8" ry="1.8"/>
</a>
</g>
</g>
<!-- nd314&#45;&gt;ndcluster_nd318 -->
<g id="edge13" class="edge"><title>nd314:n&#45;&gt;ndcluster_nd318:e</title>
<path fill="none" stroke="grey" d="M225.1,-127.5C225.1,-132.409 231.221,-127.039 236.1,-126.5 250.489,-124.911 256.424,-130.432 268.4,-122.3 269.157,-121.786 270.315,-120.5 269.4,-120.5"/>
</g>
<!-- nd314&#45;&gt;ndcluster_nd318 -->
<g id="edge14" class="edge"><title>nd314:e&#45;&gt;ndcluster_nd318:w</title>
<path fill="none" stroke="black" d="M237.1,-115.5C248.998,-115.5 251.502,-120.5 263.4,-120.5"/>
</g>
<!-- ndcluster_nd245 -->
<g id="node13" class="node"><title>ndcluster_nd245</title>
<g id="a_node13"><a xlink:title="nd245">
<ellipse fill="orange" stroke="orange" cx="179.1" cy="-115.5" rx="1.8" ry="1.8"/>
</a>
</g>
</g>
<!-- nd242&#45;&gt;ndcluster_nd245 -->
<g id="edge11" class="edge"><title>nd242:n&#45;&gt;ndcluster_nd245:e</title>
<path fill="none" stroke="grey" d="M127.1,-118.5C127.1,-142.506 160.547,-129.703 181.1,-117.3 181.884,-116.827 183.015,-115.5 182.1,-115.5"/>
<text text-anchor="middle" x="153.1" y="-134.3" font-family="Times,serif" font-size="14.00">x</text>
</g>
<!-- nd242&#45;&gt;ndcluster_nd245 -->
<g id="edge12" class="edge"><title>nd242:e&#45;&gt;ndcluster_nd245:w</title>
<path fill="none" stroke="black" d="M141.6,-102.5C157.986,-102.5 159.714,-115.5 176.1,-115.5"/>
</g>
<!-- ndcluster_nd245&#45;&gt;nd314 -->
<g id="edge10" class="edge"><title>ndcluster_nd245:e&#45;&gt;nd314:w</title>
<path fill="none" stroke="black" d="M182.1,-115.5C195.878,-115.5 199.322,-115.5 213.1,-115.5"/>
</g>
</g>
</svg>
