<?xml version="1.0" encoding="UTF-8" standalone="no"?>
<!DOCTYPE svg PUBLIC "-//W3C//DTD SVG 1.1//EN"
 "http://www.w3.org/Graphics/SVG/1.1/DTD/svg11.dtd">
<!-- Generated by graphviz version 2.38.0 (20140413.2041)
 -->
<!-- Title: G Pages: 1 -->
<svg width="314pt" height="143pt"
 viewBox="0.00 0.00 314.20 142.78" xmlns="http://www.w3.org/2000/svg" xmlns:xlink="http://www.w3.org/1999/xlink">
<g id="graph0" class="graph" transform="scale(1 1) rotate(0) translate(4 138.775)">
<title>G</title>
<polygon fill="white" stroke="none" points="-4,4 -4,-138.775 310.2,-138.775 310.2,4 -4,4"/>
<g id="clust1" class="cluster"><title>cluster_nd395</title>
<polygon fill="none" stroke="orange" points="169.3,-106.5 169.3,-126.5 188.9,-126.5 188.9,-106.5 169.3,-106.5"/>
</g>
<g id="clust2" class="cluster"><title>cluster_nd338</title>
<polygon fill="none" stroke="orange" points="167.3,-52.5 167.3,-95.5 190.9,-95.5 190.9,-52.5 167.3,-52.5"/>
<text text-anchor="middle" x="179.1" y="-80.3" font-family="Times,serif" font-size="14.00">tl</text>
</g>
<!-- nd1 -->
<g id="node1" class="node"><title>nd1</title>
<ellipse fill="black" stroke="black" cx="1.8" cy="-69.5" rx="1.8" ry="1.8"/>
</g>
<!-- nd332 -->
<g id="node7" class="node"><title>nd332</title>
<g id="a_node7"><a xlink:title="nd332&#45;AppGraph">
<path fill="none" stroke="#000000" d="M27.5473,-79.5543C27.5473,-79.5543 23.6719,-73.9457 23.6719,-73.9457 22.136,-71.7229 22.136,-67.2771 23.6719,-65.0543 23.6719,-65.0543 27.5473,-59.4457 27.5473,-59.4457 29.0833,-57.2229 33.3212,-55.0023 36.0231,-55.0045 36.0231,-55.0045 41.4269,-55.009 41.4269,-55.009 44.1288,-55.0113 46.8307,-57.7155 46.8307,-60.4174 46.8307,-60.4174 46.8307,-78.5826 46.8307,-78.5826 46.8307,-81.2845 44.1288,-83.9887 41.4269,-83.991 41.4269,-83.991 36.0231,-83.9955 36.0231,-83.9955 33.3212,-83.9977 29.0833,-81.7771 27.5473,-79.5543"/>
<text text-anchor="middle" x="35.1" y="-65.8" font-family="Times,serif" font-size="14.00">@</text>
</a>
</g>
</g>
<!-- nd1&#45;&gt;nd332 -->
<g id="edge10" class="edge"><title>nd1:e&#45;&gt;nd332:w</title>
<path fill="none" stroke="#b70000" d="M3.6,-69.5C11.1556,-69.5 13.0444,-69.5 20.6,-69.5"/>
</g>
<!-- nd34 -->
<g id="node2" class="node"><title>nd34</title>
<g id="a_node2"><a xlink:title="nd34&#45;ConstGraph">
<path fill="none" stroke="purple" d="M240.867,-59C240.867,-59 250.533,-59 250.533,-59 255.367,-59 260.2,-54.1667 260.2,-49.3333 260.2,-49.3333 260.2,-39.6667 260.2,-39.6667 260.2,-34.8333 255.367,-30 250.533,-30 250.533,-30 240.867,-30 240.867,-30 236.033,-30 231.2,-34.8333 231.2,-39.6667 231.2,-39.6667 231.2,-49.3333 231.2,-49.3333 231.2,-54.1667 236.033,-59 240.867,-59"/>
<text text-anchor="middle" x="245.7" y="-40.8" font-family="Times,serif" font-size="14.00">4</text>
</a>
</g>
</g>
<!-- nd39 -->
<g id="node3" class="node"><title>nd39</title>
<g id="a_node3"><a xlink:title="nd39&#45;ConstEmptyGraph">
<path fill="none" stroke="purple" d="M286.867,-29C286.867,-29 296.533,-29 296.533,-29 301.367,-29 306.2,-24.1667 306.2,-19.3333 306.2,-19.3333 306.2,-9.66667 306.2,-9.66667 306.2,-4.83333 301.367,-1.77636e-15 296.533,-1.77636e-15 296.533,-1.77636e-15 286.867,-1.77636e-15 286.867,-1.77636e-15 282.033,-1.77636e-15 277.2,-4.83333 277.2,-9.66667 277.2,-9.66667 277.2,-19.3333 277.2,-19.3333 277.2,-24.1667 282.033,-29 286.867,-29"/>
<text text-anchor="middle" x="291.7" y="-10.8" font-family="Times,serif" font-size="14.00">[]</text>
</a>
</g>
</g>
<!-- nd182 -->
<g id="node4" class="node"><title>nd182</title>
<g id="a_node4"><a xlink:title="nd182&#45;ConstListGraph">
<path fill="none" stroke="purple" d="M174.267,-44C174.267,-44 183.933,-44 183.933,-44 188.767,-44 193.6,-39.1667 193.6,-34.3333 193.6,-34.3333 193.6,-24.6667 193.6,-24.6667 193.6,-19.8333 188.767,-15 183.933,-15 183.933,-15 174.267,-15 174.267,-15 169.433,-15 164.6,-19.8333 164.6,-24.6667 164.6,-24.6667 164.6,-34.3333 164.6,-34.3333 164.6,-39.1667 169.433,-44 174.267,-44"/>
<text text-anchor="middle" x="179.1" y="-25.8" font-family="Times,serif" font-size="14.00">::</text>
</a>
</g>
</g>
<!-- nd453 -->
<g id="node12" class="node"><title>nd453</title>
<g id="a_node12"><a xlink:title="nd453&#45;ContractGraph">
<ellipse fill="black" stroke="black" cx="212.4" cy="-44.5" rx="1.8" ry="1.8"/>
</a>
</g>
</g>
<!-- nd182&#45;&gt;nd453 -->
<g id="edge1" class="edge"><title>nd182:n&#45;&gt;nd453:w</title>
<path fill="none" stroke="black" d="M179.1,-45.5C179.1,-52.5035 203.596,-44.5 210.6,-44.5"/>
</g>
<!-- nd454 -->
<g id="node13" class="node"><title>nd454</title>
<g id="a_node13"><a xlink:title="nd454&#45;ContractGraph">
<ellipse fill="black" stroke="black" cx="212.4" cy="-14.5" rx="1.8" ry="1.8"/>
</a>
</g>
</g>
<!-- nd182&#45;&gt;nd454 -->
<g id="edge2" class="edge"><title>nd182:s&#45;&gt;nd454:w</title>
<path fill="none" stroke="black" d="M179.1,-13.5C179.1,0.507053 196.593,-14.5 210.6,-14.5"/>
</g>
<!-- nd391 -->
<g id="node5" class="node"><title>nd391</title>
<g id="a_node5"><a xlink:title="nd391&#45;RecurGraph">
<ellipse fill="none" stroke="#000000" cx="127.1" cy="-98.5" rx="11" ry="11"/>
<text text-anchor="middle" x="127.1" y="-94.8" font-family="Times,serif" font-size="14.00">rec</text>
</a>
</g>
</g>
<!-- ndcluster_nd395 -->
<g id="node6" class="node"><title>ndcluster_nd395</title>
<g id="a_node6"><a xlink:title="nd395">
<ellipse fill="orange" stroke="orange" cx="179.1" cy="-116.5" rx="1.8" ry="1.8"/>
</a>
</g>
</g>
<!-- nd391&#45;&gt;ndcluster_nd395 -->
<g id="edge12" class="edge"><title>nd391:n&#45;&gt;ndcluster_nd395:e</title>
<path fill="none" stroke="grey" d="M127.1,-110.5C127.1,-161.095 190.08,-116.5 182.1,-116.5"/>
</g>
<!-- nd391&#45;&gt;ndcluster_nd395 -->
<g id="edge13" class="edge"><title>nd391:e&#45;&gt;ndcluster_nd395:w</title>
<path fill="none" stroke="black" d="M139.1,-98.5C157.387,-98.5 157.813,-116.5 176.1,-116.5"/>
</g>
<!-- nd333 -->
<g id="node8" class="node"><title>nd333</title>
<g id="a_node8"><a xlink:title="nd333&#45;AppGraph">
<path fill="none" stroke="#000000" d="M73.5473,-99.5543C73.5473,-99.5543 69.6719,-93.9457 69.6719,-93.9457 68.136,-91.7229 68.136,-87.2771 69.6719,-85.0543 69.6719,-85.0543 73.5473,-79.4457 73.5473,-79.4457 75.0833,-77.2229 79.3212,-75.0023 82.0231,-75.0045 82.0231,-75.0045 87.4269,-75.009 87.4269,-75.009 90.1288,-75.0113 92.8307,-77.7155 92.8307,-80.4174 92.8307,-80.4174 92.8307,-98.5826 92.8307,-98.5826 92.8307,-101.285 90.1288,-103.989 87.4269,-103.991 87.4269,-103.991 82.0231,-103.995 82.0231,-103.995 79.3212,-103.998 75.0833,-101.777 73.5473,-99.5543"/>
<text text-anchor="middle" x="81.1" y="-85.8" font-family="Times,serif" font-size="14.00">@</text>
</a>
</g>
</g>
<!-- nd332&#45;&gt;nd333 -->
<g id="edge8" class="edge"><title>nd332:e&#45;&gt;nd333:w</title>
<path fill="none" stroke="#b70000" d="M48.1,-69.5C60.2086,-69.5 54.4914,-89.5 66.6,-89.5"/>
</g>
<!-- nd463 -->
<g id="node14" class="node"><title>nd463</title>
<g id="a_node14"><a xlink:title="nd463&#45;ConstGraph">
<path fill="none" stroke="purple" d="M76.2667,-62C76.2667,-62 85.9333,-62 85.9333,-62 90.7667,-62 95.6,-57.1667 95.6,-52.3333 95.6,-52.3333 95.6,-42.6667 95.6,-42.6667 95.6,-37.8333 90.7667,-33 85.9333,-33 85.9333,-33 76.2667,-33 76.2667,-33 71.4333,-33 66.6,-37.8333 66.6,-42.6667 66.6,-42.6667 66.6,-52.3333 66.6,-52.3333 66.6,-57.1667 71.4333,-62 76.2667,-62"/>
<text text-anchor="middle" x="81.1" y="-43.8" font-family="Times,serif" font-size="14.00">10</text>
</a>
</g>
</g>
<!-- nd332&#45;&gt;nd463 -->
<g id="edge9" class="edge"><title>nd332:s&#45;&gt;nd463:w</title>
<path fill="none" stroke="black" d="M35.1,-53.5C35.1,-39.2483 52.3483,-47.5 66.6,-47.5"/>
</g>
<!-- nd333&#45;&gt;nd391 -->
<g id="edge6" class="edge"><title>nd333:e&#45;&gt;nd391:w</title>
<path fill="none" stroke="black" d="M94.1,-89.5C104.254,-89.5 104.946,-98.5 115.1,-98.5"/>
</g>
<!-- nd335 -->
<g id="node9" class="node"><title>nd335</title>
<g id="a_node9"><a xlink:title="nd335&#45;AppGraph">
<path fill="none" stroke="#000000" d="M119.547,-69.5543C119.547,-69.5543 115.672,-63.9457 115.672,-63.9457 114.136,-61.7229 114.136,-57.2771 115.672,-55.0543 115.672,-55.0543 119.547,-49.4457 119.547,-49.4457 121.083,-47.2229 125.321,-45.0023 128.023,-45.0045 128.023,-45.0045 133.427,-45.009 133.427,-45.009 136.129,-45.0113 138.831,-47.7155 138.831,-50.4174 138.831,-50.4174 138.831,-68.5826 138.831,-68.5826 138.831,-71.2845 136.129,-73.9887 133.427,-73.991 133.427,-73.991 128.023,-73.9955 128.023,-73.9955 125.321,-73.9977 121.083,-71.7771 119.547,-69.5543"/>
<text text-anchor="middle" x="127.1" y="-55.8" font-family="Times,serif" font-size="14.00">@</text>
</a>
</g>
</g>
<!-- nd333&#45;&gt;nd335 -->
<g id="edge7" class="edge"><title>nd333:s&#45;&gt;nd335:w</title>
<path fill="none" stroke="#b70000" d="M81.1,-73.5C81.1,-66.6832 89.3467,-71.214 95.6,-68.5 103.442,-65.0963 104.051,-59.5 112.6,-59.5"/>
</g>
<!-- nd335&#45;&gt;nd182 -->
<g id="edge11" class="edge"><title>nd335:s&#45;&gt;nd182:w</title>
<path fill="none" stroke="black" d="M127.1,-43.5C127.1,-25.7097 146.81,-29.5 164.6,-29.5"/>
<text text-anchor="middle" x="153.1" y="-33.3" font-family="Times,serif" font-size="14.00">x</text>
</g>
<!-- ndcluster_nd338 -->
<g id="node10" class="node"><title>ndcluster_nd338</title>
<g id="a_node10"><a xlink:title="nd338">
<ellipse fill="orange" stroke="orange" cx="179.1" cy="-62.5" rx="1.8" ry="1.8"/>
</a>
</g>
</g>
<!-- nd335&#45;&gt;ndcluster_nd338 -->
<g id="edge5" class="edge"><title>nd335:e&#45;&gt;ndcluster_nd338:w</title>
<path fill="none" stroke="red" d="M140.1,-59.5C152.142,-59.5 157.34,-61.1875 165.959,-62.0312"/>
<polygon fill="red" stroke="red" points="165.949,-65.5344 176.1,-62.5 166.272,-58.5419 165.949,-65.5344"/>
</g>
<!-- nd441 -->
<g id="node11" class="node"><title>nd441</title>
<g id="a_node11"><a xlink:title="nd441&#45;ContractGraph">
<ellipse fill="black" stroke="black" cx="245.7" cy="-14.5" rx="1.8" ry="1.8"/>
</a>
</g>
</g>
<!-- nd441&#45;&gt;nd39 -->
<g id="edge4" class="edge"><title>nd441:e&#45;&gt;nd39:w</title>
<path fill="none" stroke="black" d="M248.7,-14.5C261.367,-14.5 264.533,-14.5 277.2,-14.5"/>
</g>
<!-- nd453&#45;&gt;nd34 -->
<g id="edge3" class="edge"><title>nd453:e&#45;&gt;nd34:w</title>
<path fill="none" stroke="black" d="M214.2,-44.5C221.756,-44.5 223.644,-44.5 231.2,-44.5"/>
</g>
<!-- nd454&#45;&gt;nd441 -->
<g id="edge14" class="edge"><title>nd454:e&#45;&gt;nd441:w</title>
<path fill="none" stroke="black" d="M214.2,-14.5C226.867,-14.5 230.033,-14.5 242.7,-14.5"/>
</g>
</g>
</svg>
