<?xml version="1.0" encoding="UTF-8" standalone="no"?>
<!DOCTYPE svg PUBLIC "-//W3C//DTD SVG 1.1//EN"
 "http://www.w3.org/Graphics/SVG/1.1/DTD/svg11.dtd">
<!-- Generated by graphviz version 2.38.0 (20140413.2041)
 -->
<!-- Title: G Pages: 1 -->
<svg width="320pt" height="219pt"
 viewBox="0.00 0.00 320.20 218.78" xmlns="http://www.w3.org/2000/svg" xmlns:xlink="http://www.w3.org/1999/xlink">
<g id="graph0" class="graph" transform="scale(1 1) rotate(0) translate(4 214.775)">
<title>G</title>
<polygon fill="white" stroke="none" points="-4,4 -4,-214.775 316.2,-214.775 316.2,4 -4,4"/>
<g id="clust1" class="cluster"><title>cluster_nd395</title>
<polygon fill="none" stroke="orange" points="169.3,-182.5 169.3,-202.5 188.9,-202.5 188.9,-182.5 169.3,-182.5"/>
</g>
<g id="clust2" class="cluster"><title>cluster_nd338</title>
<polygon fill="none" stroke="orange" points="167.3,-130.5 167.3,-173.5 190.9,-173.5 190.9,-130.5 167.3,-130.5"/>
<text text-anchor="middle" x="179.1" y="-158.3" font-family="Times,serif" font-size="14.00">tl</text>
</g>
<g id="clust3" class="cluster"><title>cluster_nd347</title>
<polygon fill="none" stroke="orange" points="164.3,-41.5 164.3,-84.5 193.9,-84.5 193.9,-41.5 164.3,-41.5"/>
<text text-anchor="middle" x="179.1" y="-69.3" font-family="Times,serif" font-size="14.00">hd</text>
</g>
<!-- nd1 -->
<g id="node1" class="node"><title>nd1</title>
<ellipse fill="black" stroke="black" cx="1.8" cy="-133.5" rx="1.8" ry="1.8"/>
</g>
<!-- nd332 -->
<g id="node8" class="node"><title>nd332</title>
<g id="a_node8"><a xlink:title="nd332&#45;AppGraph">
<path fill="none" stroke="#000000" d="M27.5473,-143.554C27.5473,-143.554 23.6719,-137.946 23.6719,-137.946 22.136,-135.723 22.136,-131.277 23.6719,-129.054 23.6719,-129.054 27.5473,-123.446 27.5473,-123.446 29.0833,-121.223 33.3212,-119.002 36.0231,-119.005 36.0231,-119.005 41.4269,-119.009 41.4269,-119.009 44.1288,-119.011 46.8307,-121.715 46.8307,-124.417 46.8307,-124.417 46.8307,-142.583 46.8307,-142.583 46.8307,-145.285 44.1288,-147.989 41.4269,-147.991 41.4269,-147.991 36.0231,-147.995 36.0231,-147.995 33.3212,-147.998 29.0833,-145.777 27.5473,-143.554"/>
<text text-anchor="middle" x="35.1" y="-129.8" font-family="Times,serif" font-size="14.00">@</text>
</a>
</g>
</g>
<!-- nd1&#45;&gt;nd332 -->
<g id="edge14" class="edge"><title>nd1:e&#45;&gt;nd332:w</title>
<path fill="none" stroke="#b70000" d="M3.6,-133.5C11.1556,-133.5 13.0444,-133.5 20.6,-133.5"/>
</g>
<!-- nd34 -->
<g id="node2" class="node"><title>nd34</title>
<g id="a_node2"><a xlink:title="nd34&#45;ConstGraph">
<path fill="none" stroke="purple" d="M292.867,-71C292.867,-71 302.533,-71 302.533,-71 307.367,-71 312.2,-66.1667 312.2,-61.3333 312.2,-61.3333 312.2,-51.6667 312.2,-51.6667 312.2,-46.8333 307.367,-42 302.533,-42 302.533,-42 292.867,-42 292.867,-42 288.033,-42 283.2,-46.8333 283.2,-51.6667 283.2,-51.6667 283.2,-61.3333 283.2,-61.3333 283.2,-66.1667 288.033,-71 292.867,-71"/>
<text text-anchor="middle" x="297.7" y="-52.8" font-family="Times,serif" font-size="14.00">4</text>
</a>
</g>
</g>
<!-- nd39 -->
<g id="node3" class="node"><title>nd39</title>
<g id="a_node3"><a xlink:title="nd39&#45;ConstEmptyGraph">
<path fill="none" stroke="purple" d="M292.867,-29C292.867,-29 302.533,-29 302.533,-29 307.367,-29 312.2,-24.1667 312.2,-19.3333 312.2,-19.3333 312.2,-9.66667 312.2,-9.66667 312.2,-4.83333 307.367,-1.77636e-15 302.533,-1.77636e-15 302.533,-1.77636e-15 292.867,-1.77636e-15 292.867,-1.77636e-15 288.033,-1.77636e-15 283.2,-4.83333 283.2,-9.66667 283.2,-9.66667 283.2,-19.3333 283.2,-19.3333 283.2,-24.1667 288.033,-29 292.867,-29"/>
<text text-anchor="middle" x="297.7" y="-10.8" font-family="Times,serif" font-size="14.00">[]</text>
</a>
</g>
</g>
<!-- nd182 -->
<g id="node4" class="node"><title>nd182</title>
<g id="a_node4"><a xlink:title="nd182&#45;ConstListGraph">
<path fill="none" stroke="purple" d="M226.267,-46C226.267,-46 235.933,-46 235.933,-46 240.767,-46 245.6,-41.1667 245.6,-36.3333 245.6,-36.3333 245.6,-26.6667 245.6,-26.6667 245.6,-21.8333 240.767,-17 235.933,-17 235.933,-17 226.267,-17 226.267,-17 221.433,-17 216.6,-21.8333 216.6,-26.6667 216.6,-26.6667 216.6,-36.3333 216.6,-36.3333 216.6,-41.1667 221.433,-46 226.267,-46"/>
<text text-anchor="middle" x="231.1" y="-27.8" font-family="Times,serif" font-size="14.00">::</text>
</a>
</g>
</g>
<!-- nd440 -->
<g id="node17" class="node"><title>nd440</title>
<g id="a_node17"><a xlink:title="nd440&#45;ContractGraph">
<ellipse fill="black" stroke="black" cx="264.4" cy="-50.5" rx="1.8" ry="1.8"/>
</a>
</g>
</g>
<!-- nd182&#45;&gt;nd440 -->
<g id="edge1" class="edge"><title>nd182:n&#45;&gt;nd440:w</title>
<path fill="none" stroke="black" d="M231.1,-47.5C231.1,-61.5633 248.537,-50.5 262.6,-50.5"/>
</g>
<!-- nd441 -->
<g id="node18" class="node"><title>nd441</title>
<g id="a_node18"><a xlink:title="nd441&#45;ContractGraph">
<ellipse fill="black" stroke="black" cx="264.4" cy="-14.5" rx="1.8" ry="1.8"/>
</a>
</g>
</g>
<!-- nd182&#45;&gt;nd441 -->
<g id="edge2" class="edge"><title>nd182:s&#45;&gt;nd441:w</title>
<path fill="none" stroke="black" d="M231.1,-15.5C231.1,-1.49295 248.593,-14.5 262.6,-14.5"/>
</g>
<!-- nd386 -->
<g id="node5" class="node"><title>nd386</title>
<g id="a_node5"><a xlink:title="nd386&#45;ConstGraph">
<path fill="none" stroke="purple" d="M174.267,-122C174.267,-122 183.933,-122 183.933,-122 188.767,-122 193.6,-117.167 193.6,-112.333 193.6,-112.333 193.6,-102.667 193.6,-102.667 193.6,-97.8333 188.767,-93 183.933,-93 183.933,-93 174.267,-93 174.267,-93 169.433,-93 164.6,-97.8333 164.6,-102.667 164.6,-102.667 164.6,-112.333 164.6,-112.333 164.6,-117.167 169.433,-122 174.267,-122"/>
<text text-anchor="middle" x="179.1" y="-103.8" font-family="Times,serif" font-size="14.00">6</text>
</a>
</g>
</g>
<!-- nd391 -->
<g id="node6" class="node"><title>nd391</title>
<g id="a_node6"><a xlink:title="nd391&#45;RecurGraph">
<ellipse fill="none" stroke="#000000" cx="127.1" cy="-174.5" rx="11" ry="11"/>
<text text-anchor="middle" x="127.1" y="-170.8" font-family="Times,serif" font-size="14.00">rec</text>
</a>
</g>
</g>
<!-- ndcluster_nd395 -->
<g id="node7" class="node"><title>ndcluster_nd395</title>
<g id="a_node7"><a xlink:title="nd395">
<ellipse fill="orange" stroke="orange" cx="179.1" cy="-192.5" rx="1.8" ry="1.8"/>
</a>
</g>
</g>
<!-- nd391&#45;&gt;ndcluster_nd395 -->
<g id="edge18" class="edge"><title>nd391:n&#45;&gt;ndcluster_nd395:e</title>
<path fill="none" stroke="grey" d="M127.1,-186.5C127.1,-237.095 190.08,-192.5 182.1,-192.5"/>
</g>
<!-- nd391&#45;&gt;ndcluster_nd395 -->
<g id="edge19" class="edge"><title>nd391:e&#45;&gt;ndcluster_nd395:w</title>
<path fill="none" stroke="black" d="M139.1,-174.5C157.387,-174.5 157.813,-192.5 176.1,-192.5"/>
</g>
<!-- nd333 -->
<g id="node9" class="node"><title>nd333</title>
<g id="a_node9"><a xlink:title="nd333&#45;AppGraph">
<path fill="none" stroke="#000000" d="M73.5473,-160.554C73.5473,-160.554 69.6719,-154.946 69.6719,-154.946 68.136,-152.723 68.136,-148.277 69.6719,-146.054 69.6719,-146.054 73.5473,-140.446 73.5473,-140.446 75.0833,-138.223 79.3212,-136.002 82.0231,-136.005 82.0231,-136.005 87.4269,-136.009 87.4269,-136.009 90.1288,-136.011 92.8307,-138.715 92.8307,-141.417 92.8307,-141.417 92.8307,-159.583 92.8307,-159.583 92.8307,-162.285 90.1288,-164.989 87.4269,-164.991 87.4269,-164.991 82.0231,-164.995 82.0231,-164.995 79.3212,-164.998 75.0833,-162.777 73.5473,-160.554"/>
<text text-anchor="middle" x="81.1" y="-146.8" font-family="Times,serif" font-size="14.00">@</text>
</a>
</g>
</g>
<!-- nd332&#45;&gt;nd333 -->
<g id="edge10" class="edge"><title>nd332:e&#45;&gt;nd333:w</title>
<path fill="none" stroke="black" d="M48.1,-133.5C59.2665,-133.5 55.4335,-150.5 66.6,-150.5"/>
</g>
<!-- nd343 -->
<g id="node12" class="node"><title>nd343</title>
<g id="a_node12"><a xlink:title="nd343&#45;BinOpGraph">
<ellipse fill="none" stroke="#000000" cx="81.1" cy="-91.5" rx="14.5" ry="14.5"/>
<text text-anchor="middle" x="81.1" y="-87.8" font-family="Times,serif" font-size="14.00">+</text>
</a>
</g>
</g>
<!-- nd332&#45;&gt;nd343 -->
<g id="edge11" class="edge"><title>nd332:s&#45;&gt;nd343:w</title>
<path fill="none" stroke="#b70000" d="M35.1,-117.5C35.1,-99.347 48.447,-91.5 66.6,-91.5"/>
</g>
<!-- nd333&#45;&gt;nd391 -->
<g id="edge6" class="edge"><title>nd333:e&#45;&gt;nd391:w</title>
<path fill="none" stroke="black" d="M94.1,-150.5C108.274,-150.5 100.926,-174.5 115.1,-174.5"/>
</g>
<!-- nd335 -->
<g id="node10" class="node"><title>nd335</title>
<g id="a_node10"><a xlink:title="nd335&#45;AppGraph">
<path fill="none" stroke="#000000" d="M119.547,-145.554C119.547,-145.554 115.672,-139.946 115.672,-139.946 114.136,-137.723 114.136,-133.277 115.672,-131.054 115.672,-131.054 119.547,-125.446 119.547,-125.446 121.083,-123.223 125.321,-121.002 128.023,-121.005 128.023,-121.005 133.427,-121.009 133.427,-121.009 136.129,-121.011 138.831,-123.715 138.831,-126.417 138.831,-126.417 138.831,-144.583 138.831,-144.583 138.831,-147.285 136.129,-149.989 133.427,-149.991 133.427,-149.991 128.023,-149.995 128.023,-149.995 125.321,-149.998 121.083,-147.777 119.547,-145.554"/>
<text text-anchor="middle" x="127.1" y="-131.8" font-family="Times,serif" font-size="14.00">@</text>
</a>
</g>
</g>
<!-- nd333&#45;&gt;nd335 -->
<g id="edge7" class="edge"><title>nd333:s&#45;&gt;nd335:w</title>
<path fill="none" stroke="black" d="M81.1,-134.5C81.1,-120.493 98.5929,-135.5 112.6,-135.5"/>
</g>
<!-- ndcluster_nd338 -->
<g id="node11" class="node"><title>ndcluster_nd338</title>
<g id="a_node11"><a xlink:title="nd338">
<ellipse fill="orange" stroke="orange" cx="179.1" cy="-140.5" rx="1.8" ry="1.8"/>
</a>
</g>
</g>
<!-- nd335&#45;&gt;ndcluster_nd338 -->
<g id="edge5" class="edge"><title>nd335:e&#45;&gt;ndcluster_nd338:w</title>
<path fill="none" stroke="black" d="M140.1,-135.5C156.254,-135.5 159.946,-140.5 176.1,-140.5"/>
</g>
<!-- nd351 -->
<g id="node15" class="node"><title>nd351</title>
<g id="a_node15"><a xlink:title="nd351&#45;ContractGraph">
<ellipse fill="black" stroke="black" cx="179.1" cy="-31.5" rx="1.8" ry="1.8"/>
</a>
</g>
</g>
<!-- nd335&#45;&gt;nd351 -->
<g id="edge13" class="edge"><title>nd335:s&#45;&gt;nd351:w</title>
<path fill="none" stroke="black" d="M127.1,-119.5C127.1,-112.683 136.882,-119.42 141.6,-114.5 169.251,-85.6677 136.151,-31.5 176.1,-31.5"/>
</g>
<!-- nd344 -->
<g id="node13" class="node"><title>nd344</title>
<g id="a_node13"><a xlink:title="nd344&#45;AppGraph">
<path fill="none" stroke="#000000" d="M119.547,-61.5543C119.547,-61.5543 115.672,-55.9457 115.672,-55.9457 114.136,-53.7229 114.136,-49.2771 115.672,-47.0543 115.672,-47.0543 119.547,-41.4457 119.547,-41.4457 121.083,-39.2229 125.321,-37.0023 128.023,-37.0045 128.023,-37.0045 133.427,-37.009 133.427,-37.009 136.129,-37.0113 138.831,-39.7155 138.831,-42.4174 138.831,-42.4174 138.831,-60.5826 138.831,-60.5826 138.831,-63.2845 136.129,-65.9887 133.427,-65.991 133.427,-65.991 128.023,-65.9955 128.023,-65.9955 125.321,-65.9977 121.083,-63.7771 119.547,-61.5543"/>
<text text-anchor="middle" x="127.1" y="-47.8" font-family="Times,serif" font-size="14.00">@</text>
</a>
</g>
</g>
<!-- nd343&#45;&gt;nd344 -->
<g id="edge9" class="edge"><title>nd343:s&#45;&gt;nd344:w</title>
<path fill="none" stroke="#b70000" d="M81.1,-75.5C81.1,-57.8995 94.9995,-51.5 112.6,-51.5"/>
</g>
<!-- nd352 -->
<g id="node16" class="node"><title>nd352</title>
<g id="a_node16"><a xlink:title="nd352&#45;ContractGraph">
<ellipse fill="black" stroke="black" cx="127.1" cy="-106.5" rx="1.8" ry="1.8"/>
</a>
</g>
</g>
<!-- nd343&#45;&gt;nd352 -->
<g id="edge15" class="edge"><title>nd343:n&#45;&gt;nd352:w</title>
<path fill="none" stroke="black" d="M81.1,-107.5C81.1,-126.616 104.984,-106.5 124.1,-106.5"/>
</g>
<!-- ndcluster_nd347 -->
<g id="node14" class="node"><title>ndcluster_nd347</title>
<g id="a_node14"><a xlink:title="nd347">
<ellipse fill="orange" stroke="orange" cx="179.1" cy="-51.5" rx="1.8" ry="1.8"/>
</a>
</g>
</g>
<!-- nd344&#45;&gt;ndcluster_nd347 -->
<g id="edge8" class="edge"><title>nd344:e&#45;&gt;ndcluster_nd347:w</title>
<path fill="none" stroke="black" d="M140.1,-51.5C156.1,-51.5 160.1,-51.5 176.1,-51.5"/>
</g>
<!-- nd344&#45;&gt;nd351 -->
<g id="edge12" class="edge"><title>nd344:s&#45;&gt;nd351:w</title>
<path fill="none" stroke="#b70000" d="M127.1,-35.5C127.1,-13.6498 154.25,-31.5 176.1,-31.5"/>
</g>
<!-- nd351&#45;&gt;nd182 -->
<g id="edge17" class="edge"><title>nd351:e&#45;&gt;nd182:w</title>
<path fill="none" stroke="red" d="M182.1,-31.5C193.36,-31.5 198.419,-31.5 206.384,-31.5"/>
<polygon fill="red" stroke="red" points="206.6,-35.0001 216.6,-31.5 206.6,-28.0001 206.6,-35.0001"/>
<text text-anchor="middle" x="205.1" y="-36.3" font-family="Times,serif" font-size="14.00">x</text>
</g>
<!-- nd352&#45;&gt;nd386 -->
<g id="edge16" class="edge"><title>nd352:e&#45;&gt;nd386:w</title>
<path fill="none" stroke="black" d="M130.1,-106.5C145.306,-106.5 149.094,-107.5 164.3,-107.5"/>
<text text-anchor="middle" x="153.1" y="-110.3" font-family="Times,serif" font-size="14.00">y</text>
</g>
<!-- nd440&#45;&gt;nd34 -->
<g id="edge3" class="edge"><title>nd440:e&#45;&gt;nd34:w</title>
<path fill="none" stroke="black" d="M266.2,-50.5C274.212,-50.5 275.188,-56.5 283.2,-56.5"/>
</g>
<!-- nd441&#45;&gt;nd39 -->
<g id="edge4" class="edge"><title>nd441:e&#45;&gt;nd39:w</title>
<path fill="none" stroke="black" d="M266.2,-14.5C273.756,-14.5 275.644,-14.5 283.2,-14.5"/>
</g>
</g>
</svg>
