<?xml version="1.0" encoding="UTF-8" standalone="no"?>
<!DOCTYPE svg PUBLIC "-//W3C//DTD SVG 1.1//EN"
 "http://www.w3.org/Graphics/SVG/1.1/DTD/svg11.dtd">
<!-- Generated by graphviz version 2.38.0 (20140413.2041)
 -->
<!-- Title: G Pages: 1 -->
<svg width="321pt" height="135pt"
 viewBox="0.00 0.00 321.20 134.50" xmlns="http://www.w3.org/2000/svg" xmlns:xlink="http://www.w3.org/1999/xlink">
<g id="graph0" class="graph" transform="scale(1 1) rotate(0) translate(4 130.5)">
<title>G</title>
<polygon fill="white" stroke="none" points="-4,4 -4,-130.5 317.2,-130.5 317.2,4 -4,4"/>
<g id="clust1" class="cluster"><title>cluster_nd140</title>
<polygon fill="none" stroke="orange" points="130.6,-98.5 130.6,-118.5 150.2,-118.5 150.2,-98.5 130.6,-98.5"/>
</g>
<!-- nd1 -->
<g id="node1" class="node"><title>nd1</title>
<ellipse fill="black" stroke="black" cx="1.8" cy="-84.5" rx="1.8" ry="1.8"/>
</g>
<!-- nd84 -->
<g id="node11" class="node"><title>nd84</title>
<g id="a_node11"><a xlink:title="nd84&#45;AppGraph">
<path fill="none" stroke="#000000" d="M23.5473,-94.5543C23.5473,-94.5543 19.6719,-88.9457 19.6719,-88.9457 18.136,-86.7229 18.136,-82.2771 19.6719,-80.0543 19.6719,-80.0543 23.5473,-74.4457 23.5473,-74.4457 25.0833,-72.2229 29.3212,-70.0023 32.0231,-70.0045 32.0231,-70.0045 37.4269,-70.009 37.4269,-70.009 40.1288,-70.0113 42.8307,-72.7155 42.8307,-75.4174 42.8307,-75.4174 42.8307,-93.5826 42.8307,-93.5826 42.8307,-96.2845 40.1288,-98.9887 37.4269,-98.991 37.4269,-98.991 32.0231,-98.9955 32.0231,-98.9955 29.3212,-98.9977 25.0833,-96.7771 23.5473,-94.5543"/>
<text text-anchor="middle" x="31.1" y="-80.8" font-family="Times,serif" font-size="14.00">@</text>
</a>
</g>
</g>
<!-- nd1&#45;&gt;nd84 -->
<g id="edge11" class="edge"><title>nd1:e&#45;&gt;nd84:w</title>
<path fill="none" stroke="#b70000" d="M3.6,-84.5C9.37778,-84.5 10.8222,-84.5 16.6,-84.5"/>
</g>
<!-- nd136 -->
<g id="node2" class="node"><title>nd136</title>
<g id="a_node2"><a xlink:title="nd136&#45;RecurGraph">
<ellipse fill="none" stroke="#000000" cx="111.6" cy="-103.5" rx="11" ry="11"/>
<text text-anchor="middle" x="111.6" y="-99.8" font-family="Times,serif" font-size="14.00">rec</text>
</a>
</g>
</g>
<!-- ndcluster_nd140 -->
<g id="node3" class="node"><title>ndcluster_nd140</title>
<g id="a_node3"><a xlink:title="nd140">
<ellipse fill="orange" stroke="orange" cx="140.4" cy="-108.5" rx="1.8" ry="1.8"/>
</a>
</g>
</g>
<!-- nd136&#45;&gt;ndcluster_nd140 -->
<g id="edge12" class="edge"><title>nd136:n&#45;&gt;ndcluster_nd140:e</title>
<path fill="none" stroke="grey" d="M111.6,-115.5C111.6,-129.972 157.872,-108.5 143.4,-108.5"/>
</g>
<!-- nd136&#45;&gt;ndcluster_nd140 -->
<g id="edge13" class="edge"><title>nd136:e&#45;&gt;ndcluster_nd140:w</title>
<path fill="none" stroke="black" d="M122.6,-103.5C129.543,-103.5 130.457,-108.5 137.4,-108.5"/>
</g>
<!-- nd22 -->
<g id="node4" class="node"><title>nd22</title>
<g id="a_node4"><a xlink:title="nd22&#45;ConstGraph">
<path fill="none" stroke="purple" d="M209.867,-113C209.867,-113 219.533,-113 219.533,-113 224.367,-113 229.2,-108.167 229.2,-103.333 229.2,-103.333 229.2,-93.6667 229.2,-93.6667 229.2,-88.8333 224.367,-84 219.533,-84 219.533,-84 209.867,-84 209.867,-84 205.033,-84 200.2,-88.8333 200.2,-93.6667 200.2,-93.6667 200.2,-103.333 200.2,-103.333 200.2,-108.167 205.033,-113 209.867,-113"/>
<text text-anchor="middle" x="214.7" y="-94.8" font-family="Times,serif" font-size="14.00">2</text>
</a>
</g>
</g>
<!-- nd28 -->
<g id="node5" class="node"><title>nd28</title>
<g id="a_node5"><a xlink:title="nd28&#45;ConstGraph">
<path fill="none" stroke="purple" d="M251.867,-92C251.867,-92 261.533,-92 261.533,-92 266.367,-92 271.2,-87.1667 271.2,-82.3333 271.2,-82.3333 271.2,-72.6667 271.2,-72.6667 271.2,-67.8333 266.367,-63 261.533,-63 261.533,-63 251.867,-63 251.867,-63 247.033,-63 242.2,-67.8333 242.2,-72.6667 242.2,-72.6667 242.2,-82.3333 242.2,-82.3333 242.2,-87.1667 247.033,-92 251.867,-92"/>
<text text-anchor="middle" x="256.7" y="-73.8" font-family="Times,serif" font-size="14.00">3</text>
</a>
</g>
</g>
<!-- nd34 -->
<g id="node6" class="node"><title>nd34</title>
<g id="a_node6"><a xlink:title="nd34&#45;ConstGraph">
<path fill="none" stroke="purple" d="M293.867,-71C293.867,-71 303.533,-71 303.533,-71 308.367,-71 313.2,-66.1667 313.2,-61.3333 313.2,-61.3333 313.2,-51.6667 313.2,-51.6667 313.2,-46.8333 308.367,-42 303.533,-42 303.533,-42 293.867,-42 293.867,-42 289.033,-42 284.2,-46.8333 284.2,-51.6667 284.2,-51.6667 284.2,-61.3333 284.2,-61.3333 284.2,-66.1667 289.033,-71 293.867,-71"/>
<text text-anchor="middle" x="298.7" y="-52.8" font-family="Times,serif" font-size="14.00">4</text>
</a>
</g>
</g>
<!-- nd39 -->
<g id="node7" class="node"><title>nd39</title>
<g id="a_node7"><a xlink:title="nd39&#45;ConstEmptyGraph">
<path fill="none" stroke="purple" d="M293.867,-29C293.867,-29 303.533,-29 303.533,-29 308.367,-29 313.2,-24.1667 313.2,-19.3333 313.2,-19.3333 313.2,-9.66667 313.2,-9.66667 313.2,-4.83333 308.367,-1.77636e-15 303.533,-1.77636e-15 303.533,-1.77636e-15 293.867,-1.77636e-15 293.867,-1.77636e-15 289.033,-1.77636e-15 284.2,-4.83333 284.2,-9.66667 284.2,-9.66667 284.2,-19.3333 284.2,-19.3333 284.2,-24.1667 289.033,-29 293.867,-29"/>
<text text-anchor="middle" x="298.7" y="-10.8" font-family="Times,serif" font-size="14.00">[]</text>
</a>
</g>
</g>
<!-- nd182 -->
<g id="node8" class="node"><title>nd182</title>
<g id="a_node8"><a xlink:title="nd182&#45;ConstListGraph">
<path fill="none" stroke="purple" d="M251.867,-50C251.867,-50 261.533,-50 261.533,-50 266.367,-50 271.2,-45.1667 271.2,-40.3333 271.2,-40.3333 271.2,-30.6667 271.2,-30.6667 271.2,-25.8333 266.367,-21 261.533,-21 261.533,-21 251.867,-21 251.867,-21 247.033,-21 242.2,-25.8333 242.2,-30.6667 242.2,-30.6667 242.2,-40.3333 242.2,-40.3333 242.2,-45.1667 247.033,-50 251.867,-50"/>
<text text-anchor="middle" x="256.7" y="-31.8" font-family="Times,serif" font-size="14.00">::</text>
</a>
</g>
</g>
<!-- nd182&#45;&gt;nd34 -->
<g id="edge1" class="edge"><title>nd182:n&#45;&gt;nd34:w</title>
<path fill="none" stroke="purple" d="M256.7,-51.5C256.7,-54.6056 281.094,-56.5 284.2,-56.5"/>
</g>
<!-- nd182&#45;&gt;nd39 -->
<g id="edge2" class="edge"><title>nd182:s&#45;&gt;nd39:w</title>
<path fill="none" stroke="purple" d="M256.7,-19.5C256.7,-7.0774 271.777,-14.5 284.2,-14.5"/>
</g>
<!-- nd188 -->
<g id="node9" class="node"><title>nd188</title>
<g id="a_node9"><a xlink:title="nd188&#45;ConstListGraph">
<path fill="none" stroke="purple" d="M209.867,-71C209.867,-71 219.533,-71 219.533,-71 224.367,-71 229.2,-66.1667 229.2,-61.3333 229.2,-61.3333 229.2,-51.6667 229.2,-51.6667 229.2,-46.8333 224.367,-42 219.533,-42 219.533,-42 209.867,-42 209.867,-42 205.033,-42 200.2,-46.8333 200.2,-51.6667 200.2,-51.6667 200.2,-61.3333 200.2,-61.3333 200.2,-66.1667 205.033,-71 209.867,-71"/>
<text text-anchor="middle" x="214.7" y="-52.8" font-family="Times,serif" font-size="14.00">::</text>
</a>
</g>
</g>
<!-- nd188&#45;&gt;nd28 -->
<g id="edge3" class="edge"><title>nd188:n&#45;&gt;nd28:w</title>
<path fill="none" stroke="purple" d="M214.7,-72.5C214.7,-75.6056 239.094,-77.5 242.2,-77.5"/>
</g>
<!-- nd188&#45;&gt;nd182 -->
<g id="edge4" class="edge"><title>nd188:s&#45;&gt;nd182:w</title>
<path fill="none" stroke="purple" d="M214.7,-40.5C214.7,-28.0774 229.777,-35.5 242.2,-35.5"/>
</g>
<!-- nd194 -->
<g id="node10" class="node"><title>nd194</title>
<g id="a_node10"><a xlink:title="nd194&#45;ConstListGraph">
<path fill="none" stroke="purple" d="M167.867,-92C167.867,-92 177.533,-92 177.533,-92 182.367,-92 187.2,-87.1667 187.2,-82.3333 187.2,-82.3333 187.2,-72.6667 187.2,-72.6667 187.2,-67.8333 182.367,-63 177.533,-63 177.533,-63 167.867,-63 167.867,-63 163.033,-63 158.2,-67.8333 158.2,-72.6667 158.2,-72.6667 158.2,-82.3333 158.2,-82.3333 158.2,-87.1667 163.033,-92 167.867,-92"/>
<text text-anchor="middle" x="172.7" y="-73.8" font-family="Times,serif" font-size="14.00">::</text>
</a>
</g>
</g>
<!-- nd194&#45;&gt;nd22 -->
<g id="edge5" class="edge"><title>nd194:n&#45;&gt;nd22:w</title>
<path fill="none" stroke="purple" d="M172.7,-93.5C172.7,-105.923 187.777,-98.5 200.2,-98.5"/>
</g>
<!-- nd194&#45;&gt;nd188 -->
<g id="edge6" class="edge"><title>nd194:s&#45;&gt;nd188:w</title>
<path fill="none" stroke="purple" d="M172.7,-61.5C172.7,-49.0774 187.777,-56.5 200.2,-56.5"/>
</g>
<!-- nd85 -->
<g id="node12" class="node"><title>nd85</title>
<g id="a_node12"><a xlink:title="nd85&#45;AppGraph">
<path fill="none" stroke="#000000" d="M65.5473,-108.554C65.5473,-108.554 61.6719,-102.946 61.6719,-102.946 60.136,-100.723 60.136,-96.2771 61.6719,-94.0543 61.6719,-94.0543 65.5473,-88.4457 65.5473,-88.4457 67.0833,-86.2229 71.3212,-84.0023 74.0231,-84.0045 74.0231,-84.0045 79.4269,-84.009 79.4269,-84.009 82.1288,-84.0113 84.8307,-86.7155 84.8307,-89.4174 84.8307,-89.4174 84.8307,-107.583 84.8307,-107.583 84.8307,-110.285 82.1288,-112.989 79.4269,-112.991 79.4269,-112.991 74.0231,-112.995 74.0231,-112.995 71.3212,-112.998 67.0833,-110.777 65.5473,-108.554"/>
<text text-anchor="middle" x="73.1" y="-94.8" font-family="Times,serif" font-size="14.00">@</text>
</a>
</g>
</g>
<!-- nd84&#45;&gt;nd85 -->
<g id="edge9" class="edge"><title>nd84:e&#45;&gt;nd85:w</title>
<path fill="none" stroke="#b70000" d="M44.1,-84.5C53.0581,-84.5 49.6419,-98.5 58.6,-98.5"/>
</g>
<!-- nd232 -->
<g id="node15" class="node"><title>nd232</title>
<g id="a_node15"><a xlink:title="nd232&#45;ConstGraph">
<path fill="none" stroke="purple" d="M68.2667,-71C68.2667,-71 77.9333,-71 77.9333,-71 82.7667,-71 87.6,-66.1667 87.6,-61.3333 87.6,-61.3333 87.6,-51.6667 87.6,-51.6667 87.6,-46.8333 82.7667,-42 77.9333,-42 77.9333,-42 68.2667,-42 68.2667,-42 63.4333,-42 58.6,-46.8333 58.6,-51.6667 58.6,-51.6667 58.6,-61.3333 58.6,-61.3333 58.6,-66.1667 63.4333,-71 68.2667,-71"/>
<text text-anchor="middle" x="73.1" y="-52.8" font-family="Times,serif" font-size="14.00">1</text>
</a>
</g>
</g>
<!-- nd84&#45;&gt;nd232 -->
<g id="edge10" class="edge"><title>nd84:s&#45;&gt;nd232:w</title>
<path fill="none" stroke="black" d="M31.1,-68.5C31.1,-55.1648 45.2648,-56.5 58.6,-56.5"/>
</g>
<!-- nd85&#45;&gt;nd136 -->
<g id="edge8" class="edge"><title>nd85:e&#45;&gt;nd136:w</title>
<path fill="none" stroke="black" d="M86.1,-98.5C92.9168,-98.5 93.7832,-103.5 100.6,-103.5"/>
</g>
<!-- nd223 -->
<g id="node14" class="node"><title>nd223</title>
<g id="a_node14"><a xlink:title="nd223&#45;ContractGraph">
<ellipse fill="black" stroke="black" cx="111.6" cy="-77.5" rx="1.8" ry="1.8"/>
</a>
</g>
</g>
<!-- nd85&#45;&gt;nd223 -->
<g id="edge7" class="edge"><title>nd85:s&#45;&gt;nd223:w</title>
<path fill="none" stroke="red" d="M73.1,-82.5C73.1,-79.7614 87.9965,-78.4251 98.6013,-77.8574"/>
<polygon fill="red" stroke="red" points="98.7314,-81.355 108.6,-77.5 98.4813,-74.3595 98.7314,-81.355"/>
</g>
<!-- nd210 -->
<g id="node13" class="node"><title>nd210</title>
<g id="a_node13"><a xlink:title="nd210&#45;ContractGraph">
<ellipse fill="black" stroke="black" cx="140.4" cy="-77.5" rx="1.8" ry="1.8"/>
</a>
</g>
</g>
<!-- nd210&#45;&gt;nd194 -->
<g id="edge14" class="edge"><title>nd210:e&#45;&gt;nd194:w</title>
<path fill="none" stroke="black" d="M143.4,-77.5C149.978,-77.5 151.622,-77.5 158.2,-77.5"/>
</g>
<!-- nd223&#45;&gt;nd210 -->
<g id="edge15" class="edge"><title>nd223:e&#45;&gt;nd210:w</title>
<path fill="none" stroke="black" d="M114.6,-77.5C124.733,-77.5 127.267,-77.5 137.4,-77.5"/>
</g>
</g>
</svg>
