<?xml version="1.0" encoding="UTF-8" standalone="no"?>
<!DOCTYPE svg PUBLIC "-//W3C//DTD SVG 1.1//EN"
 "http://www.w3.org/Graphics/SVG/1.1/DTD/svg11.dtd">
<!-- Generated by graphviz version 2.38.0 (20140413.2041)
 -->
<!-- Title: G Pages: 1 -->
<svg width="441pt" height="283pt"
 viewBox="0.00 0.00 441.20 282.50" xmlns="http://www.w3.org/2000/svg" xmlns:xlink="http://www.w3.org/1999/xlink">
<g id="graph0" class="graph" transform="scale(1 1) rotate(0) translate(4 278.5)">
<title>G</title>
<polygon fill="white" stroke="none" points="-4,4 -4,-278.5 437.2,-278.5 437.2,4 -4,4"/>
<g id="clust1" class="cluster"><title>cluster_nd472</title>
<polygon fill="none" stroke="orange" points="336.3,-169.5 336.3,-189.5 355.9,-189.5 355.9,-169.5 336.3,-169.5"/>
</g>
<g id="clust2" class="cluster"><title>cluster_nd415</title>
<polygon fill="none" stroke="orange" points="334.3,-75.5 334.3,-118.5 357.9,-118.5 357.9,-75.5 334.3,-75.5"/>
<text text-anchor="middle" x="346.1" y="-103.3" font-family="Times,serif" font-size="14.00">tl</text>
</g>
<g id="clust3" class="cluster"><title>cluster_nd424</title>
<polygon fill="none" stroke="orange" points="331.3,-24.5 331.3,-67.5 360.9,-67.5 360.9,-24.5 331.3,-24.5"/>
<text text-anchor="middle" x="346.1" y="-52.3" font-family="Times,serif" font-size="14.00">hd</text>
</g>
<!-- nd1 -->
<g id="node1" class="node"><title>nd1</title>
<ellipse fill="black" stroke="black" cx="1.8" cy="-136.5" rx="1.8" ry="1.8"/>
</g>
<!-- nd401 -->
<g id="node6" class="node"><title>nd401</title>
<g id="a_node6"><a xlink:title="nd401&#45;IfGraph">
<ellipse fill="none" stroke="#000000" cx="35.1" cy="-136.5" rx="14.5" ry="14.5"/>
<text text-anchor="middle" x="35.1" y="-132.8" font-family="Times,serif" font-size="14.00">if</text>
</a>
</g>
</g>
<!-- nd1&#45;&gt;nd401 -->
<g id="edge19" class="edge"><title>nd1:e&#45;&gt;nd401:w</title>
<path fill="none" stroke="#b70000" d="M3.6,-136.5C11.1556,-136.5 13.0444,-136.5 20.6,-136.5"/>
</g>
<!-- nd39 -->
<g id="node2" class="node"><title>nd39</title>
<g id="a_node2"><a xlink:title="nd39&#45;ConstEmptyGraph">
<path fill="none" stroke="purple" d="M413.867,-29C413.867,-29 423.533,-29 423.533,-29 428.367,-29 433.2,-24.1667 433.2,-19.3333 433.2,-19.3333 433.2,-9.66667 433.2,-9.66667 433.2,-4.83333 428.367,-1.77636e-15 423.533,-1.77636e-15 423.533,-1.77636e-15 413.867,-1.77636e-15 413.867,-1.77636e-15 409.033,-1.77636e-15 404.2,-4.83333 404.2,-9.66667 404.2,-9.66667 404.2,-19.3333 404.2,-19.3333 404.2,-24.1667 409.033,-29 413.867,-29"/>
<text text-anchor="middle" x="418.7" y="-10.8" font-family="Times,serif" font-size="14.00">[]</text>
</a>
</g>
</g>
<!-- nd463 -->
<g id="node3" class="node"><title>nd463</title>
<g id="a_node3"><a xlink:title="nd463&#45;ConstGraph">
<path fill="none" stroke="purple" d="M341.267,-156C341.267,-156 350.933,-156 350.933,-156 355.767,-156 360.6,-151.167 360.6,-146.333 360.6,-146.333 360.6,-136.667 360.6,-136.667 360.6,-131.833 355.767,-127 350.933,-127 350.933,-127 341.267,-127 341.267,-127 336.433,-127 331.6,-131.833 331.6,-136.667 331.6,-136.667 331.6,-146.333 331.6,-146.333 331.6,-151.167 336.433,-156 341.267,-156"/>
<text text-anchor="middle" x="346.1" y="-137.8" font-family="Times,serif" font-size="14.00">10</text>
</a>
</g>
</g>
<!-- nd468 -->
<g id="node4" class="node"><title>nd468</title>
<g id="a_node4"><a xlink:title="nd468&#45;RecurGraph">
<ellipse fill="none" stroke="#000000" cx="294.1" cy="-165.5" rx="11" ry="11"/>
<text text-anchor="middle" x="294.1" y="-161.8" font-family="Times,serif" font-size="14.00">rec</text>
</a>
</g>
</g>
<!-- ndcluster_nd472 -->
<g id="node5" class="node"><title>ndcluster_nd472</title>
<g id="a_node5"><a xlink:title="nd472">
<ellipse fill="orange" stroke="orange" cx="346.1" cy="-179.5" rx="1.8" ry="1.8"/>
</a>
</g>
</g>
<!-- nd468&#45;&gt;ndcluster_nd472 -->
<g id="edge22" class="edge"><title>nd468:n&#45;&gt;ndcluster_nd472:e</title>
<path fill="none" stroke="grey" d="M294.1,-177.5C294.1,-224.624 356.966,-179.5 349.1,-179.5"/>
</g>
<!-- nd468&#45;&gt;ndcluster_nd472 -->
<g id="edge23" class="edge"><title>nd468:e&#45;&gt;ndcluster_nd472:w</title>
<path fill="none" stroke="black" d="M306.1,-165.5C323.682,-165.5 325.518,-179.5 343.1,-179.5"/>
</g>
<!-- nd402 -->
<g id="node7" class="node"><title>nd402</title>
<g id="a_node7"><a xlink:title="nd402&#45;AppGraph">
<path fill="none" stroke="#000000" d="M124.547,-196.554C124.547,-196.554 120.672,-190.946 120.672,-190.946 119.136,-188.723 119.136,-184.277 120.672,-182.054 120.672,-182.054 124.547,-176.446 124.547,-176.446 126.083,-174.223 130.321,-172.002 133.023,-172.005 133.023,-172.005 138.427,-172.009 138.427,-172.009 141.129,-172.011 143.831,-174.715 143.831,-177.417 143.831,-177.417 143.831,-195.583 143.831,-195.583 143.831,-198.285 141.129,-200.989 138.427,-200.991 138.427,-200.991 133.023,-200.995 133.023,-200.995 130.321,-200.998 126.083,-198.777 124.547,-196.554"/>
<text text-anchor="middle" x="132.1" y="-182.8" font-family="Times,serif" font-size="14.00">@</text>
</a>
</g>
</g>
<!-- nd401&#45;&gt;nd402 -->
<g id="edge13" class="edge"><title>nd401:n&#45;&gt;nd402:w</title>
<path fill="none" stroke="#b70000" d="M35.1,-152.5C35.1,-192.158 77.9416,-186.5 117.6,-186.5"/>
<text text-anchor="middle" x="83.6" y="-190.3" font-family="Times,serif" font-size="14.00">condition</text>
</g>
<!-- nd409 -->
<g id="node8" class="node"><title>nd409</title>
<g id="a_node8"><a xlink:title="nd409&#45;AppGraph">
<path fill="none" stroke="#000000" d="M124.547,-111.554C124.547,-111.554 120.672,-105.946 120.672,-105.946 119.136,-103.723 119.136,-99.2771 120.672,-97.0543 120.672,-97.0543 124.547,-91.4457 124.547,-91.4457 126.083,-89.2229 130.321,-87.0023 133.023,-87.0045 133.023,-87.0045 138.427,-87.009 138.427,-87.009 141.129,-87.0113 143.831,-89.7155 143.831,-92.4174 143.831,-92.4174 143.831,-110.583 143.831,-110.583 143.831,-113.285 141.129,-115.989 138.427,-115.991 138.427,-115.991 133.023,-115.995 133.023,-115.995 130.321,-115.998 126.083,-113.777 124.547,-111.554"/>
<text text-anchor="middle" x="132.1" y="-97.8" font-family="Times,serif" font-size="14.00">@</text>
</a>
</g>
</g>
<!-- nd401&#45;&gt;nd409 -->
<g id="edge14" class="edge"><title>nd401:s&#45;&gt;nd409:w</title>
<path fill="none" stroke="grey" d="M35.1,-120.5C35.1,-104.477 69.9155,-101.5 117.6,-101.5"/>
<text text-anchor="middle" x="83.6" y="-109.3" font-family="Times,serif" font-size="14.00">is false</text>
</g>
<!-- nd429 -->
<g id="node16" class="node"><title>nd429</title>
<g id="a_node16"><a xlink:title="nd429&#45;ContractGraph">
<ellipse fill="black" stroke="black" cx="294.1" cy="-136.5" rx="1.8" ry="1.8"/>
</a>
</g>
</g>
<!-- nd401&#45;&gt;nd429 -->
<g id="edge16" class="edge"><title>nd401:e&#45;&gt;nd429:w</title>
<path fill="none" stroke="grey" d="M49.6,-136.5C156.933,-136.5 183.767,-136.5 291.1,-136.5"/>
<text text-anchor="middle" x="171.6" y="-141.3" font-family="Times,serif" font-size="14.00">is true</text>
</g>
<!-- nd514 -->
<g id="node18" class="node"><title>nd514</title>
<g id="a_node18"><a xlink:title="nd514&#45;ConstEmptyGraph">
<path fill="none" stroke="purple" d="M206.267,-186C206.267,-186 215.933,-186 215.933,-186 220.767,-186 225.6,-181.167 225.6,-176.333 225.6,-176.333 225.6,-166.667 225.6,-166.667 225.6,-161.833 220.767,-157 215.933,-157 215.933,-157 206.267,-157 206.267,-157 201.433,-157 196.6,-161.833 196.6,-166.667 196.6,-166.667 196.6,-176.333 196.6,-176.333 196.6,-181.167 201.433,-186 206.267,-186"/>
<text text-anchor="middle" x="211.1" y="-167.8" font-family="Times,serif" font-size="14.00">[]</text>
</a>
</g>
</g>
<!-- nd402&#45;&gt;nd514 -->
<g id="edge17" class="edge"><title>nd402:s&#45;&gt;nd514:w</title>
<path fill="none" stroke="black" d="M132.1,-170.5C132.1,-141.83 167.93,-171.5 196.6,-171.5"/>
<text text-anchor="middle" x="171.6" y="-174.3" font-family="Times,serif" font-size="14.00">x</text>
</g>
<!-- nd406 -->
<g id="node19" class="node"><title>nd406</title>
<g id="a_node19"><a xlink:title="nd406&#45;AbsGraph">
<ellipse fill="none" stroke="#000000" cx="211.1" cy="-213.5" rx="14.5" ry="14.5"/>
<text text-anchor="middle" x="211.1" y="-209.8" font-family="Times,serif" font-size="14.00">fun</text>
</a>
</g>
</g>
<!-- nd402&#45;&gt;nd406 -->
<g id="edge3" class="edge"><title>nd402:e&#45;&gt;nd406:w</title>
<path fill="none" stroke="red" d="M145.1,-186.5C155.296,-186.5 173.421,-203.311 186.962,-210.403"/>
<polygon fill="red" stroke="red" points="186.009,-213.773 196.6,-213.5 188.15,-207.108 186.009,-213.773"/>
</g>
<!-- nd410 -->
<g id="node9" class="node"><title>nd410</title>
<g id="a_node9"><a xlink:title="nd410&#45;AppGraph">
<path fill="none" stroke="#000000" d="M203.547,-111.554C203.547,-111.554 199.672,-105.946 199.672,-105.946 198.136,-103.723 198.136,-99.2771 199.672,-97.0543 199.672,-97.0543 203.547,-91.4457 203.547,-91.4457 205.083,-89.2229 209.321,-87.0023 212.023,-87.0045 212.023,-87.0045 217.427,-87.009 217.427,-87.009 220.129,-87.0113 222.831,-89.7155 222.831,-92.4174 222.831,-92.4174 222.831,-110.583 222.831,-110.583 222.831,-113.285 220.129,-115.989 217.427,-115.991 217.427,-115.991 212.023,-115.995 212.023,-115.995 209.321,-115.998 205.083,-113.777 203.547,-111.554"/>
<text text-anchor="middle" x="211.1" y="-97.8" font-family="Times,serif" font-size="14.00">@</text>
</a>
</g>
</g>
<!-- nd409&#45;&gt;nd410 -->
<g id="edge9" class="edge"><title>nd409:e&#45;&gt;nd410:w</title>
<path fill="none" stroke="black" d="M145.1,-101.5C167.989,-101.5 173.711,-101.5 196.6,-101.5"/>
</g>
<!-- nd420 -->
<g id="node12" class="node"><title>nd420</title>
<g id="a_node12"><a xlink:title="nd420&#45;BinOpGraph">
<ellipse fill="none" stroke="#000000" cx="211.1" cy="-52.5" rx="14.5" ry="14.5"/>
<text text-anchor="middle" x="211.1" y="-48.8" font-family="Times,serif" font-size="14.00">+</text>
</a>
</g>
</g>
<!-- nd409&#45;&gt;nd420 -->
<g id="edge10" class="edge"><title>nd409:s&#45;&gt;nd420:w</title>
<path fill="none" stroke="black" d="M132.1,-85.5C132.1,-53.2992 164.399,-52.5 196.6,-52.5"/>
</g>
<!-- nd410&#45;&gt;nd468 -->
<g id="edge5" class="edge"><title>nd410:e&#45;&gt;nd468:w</title>
<path fill="none" stroke="black" d="M224.1,-101.5C262.487,-101.5 243.713,-165.5 282.1,-165.5"/>
</g>
<!-- nd412 -->
<g id="node10" class="node"><title>nd412</title>
<g id="a_node10"><a xlink:title="nd412&#45;AppGraph">
<path fill="none" stroke="#000000" d="M286.547,-95.5543C286.547,-95.5543 282.672,-89.9457 282.672,-89.9457 281.136,-87.7229 281.136,-83.2771 282.672,-81.0543 282.672,-81.0543 286.547,-75.4457 286.547,-75.4457 288.083,-73.2229 292.321,-71.0023 295.023,-71.0045 295.023,-71.0045 300.427,-71.009 300.427,-71.009 303.129,-71.0113 305.831,-73.7155 305.831,-76.4174 305.831,-76.4174 305.831,-94.5826 305.831,-94.5826 305.831,-97.2845 303.129,-99.9887 300.427,-99.991 300.427,-99.991 295.023,-99.9955 295.023,-99.9955 292.321,-99.9977 288.083,-97.7771 286.547,-95.5543"/>
<text text-anchor="middle" x="294.1" y="-81.8" font-family="Times,serif" font-size="14.00">@</text>
</a>
</g>
</g>
<!-- nd410&#45;&gt;nd412 -->
<g id="edge6" class="edge"><title>nd410:s&#45;&gt;nd412:w</title>
<path fill="none" stroke="black" d="M211.1,-85.5C211.1,-70.2778 264.378,-85.5 279.6,-85.5"/>
</g>
<!-- ndcluster_nd415 -->
<g id="node11" class="node"><title>ndcluster_nd415</title>
<g id="a_node11"><a xlink:title="nd415">
<ellipse fill="orange" stroke="orange" cx="346.1" cy="-85.5" rx="1.8" ry="1.8"/>
</a>
</g>
</g>
<!-- nd412&#45;&gt;ndcluster_nd415 -->
<g id="edge4" class="edge"><title>nd412:e&#45;&gt;ndcluster_nd415:w</title>
<path fill="none" stroke="black" d="M307.1,-85.5C323.1,-85.5 327.1,-85.5 343.1,-85.5"/>
</g>
<!-- nd428 -->
<g id="node15" class="node"><title>nd428</title>
<g id="a_node15"><a xlink:title="nd428&#45;ContractGraph">
<ellipse fill="black" stroke="black" cx="346.1" cy="-14.5" rx="1.8" ry="1.8"/>
</a>
</g>
</g>
<!-- nd412&#45;&gt;nd428 -->
<g id="edge12" class="edge"><title>nd412:s&#45;&gt;nd428:w</title>
<path fill="none" stroke="black" d="M294.1,-69.5C294.1,-60.5419 302.858,-62.3756 308.6,-55.5 323.866,-37.2211 319.285,-14.5 343.1,-14.5"/>
</g>
<!-- nd421 -->
<g id="node13" class="node"><title>nd421</title>
<g id="a_node13"><a xlink:title="nd421&#45;AppGraph">
<path fill="none" stroke="#000000" d="M286.547,-44.5543C286.547,-44.5543 282.672,-38.9457 282.672,-38.9457 281.136,-36.7229 281.136,-32.2771 282.672,-30.0543 282.672,-30.0543 286.547,-24.4457 286.547,-24.4457 288.083,-22.2229 292.321,-20.0023 295.023,-20.0045 295.023,-20.0045 300.427,-20.009 300.427,-20.009 303.129,-20.0113 305.831,-22.7155 305.831,-25.4174 305.831,-25.4174 305.831,-43.5826 305.831,-43.5826 305.831,-46.2845 303.129,-48.9887 300.427,-48.991 300.427,-48.991 295.023,-48.9955 295.023,-48.9955 292.321,-48.9977 288.083,-46.7771 286.547,-44.5543"/>
<text text-anchor="middle" x="294.1" y="-30.8" font-family="Times,serif" font-size="14.00">@</text>
</a>
</g>
</g>
<!-- nd420&#45;&gt;nd421 -->
<g id="edge8" class="edge"><title>nd420:s&#45;&gt;nd421:w</title>
<path fill="none" stroke="black" d="M211.1,-36.5C211.1,-6.04258 249.143,-34.5 279.6,-34.5"/>
</g>
<!-- nd420&#45;&gt;nd429 -->
<g id="edge15" class="edge"><title>nd420:n&#45;&gt;nd429:w</title>
<path fill="none" stroke="black" d="M211.1,-68.5C211.1,-76.1046 266.196,-95.1494 271.6,-100.5 284.53,-113.303 272.904,-136.5 291.1,-136.5"/>
</g>
<!-- ndcluster_nd424 -->
<g id="node14" class="node"><title>ndcluster_nd424</title>
<g id="a_node14"><a xlink:title="nd424">
<ellipse fill="orange" stroke="orange" cx="346.1" cy="-34.5" rx="1.8" ry="1.8"/>
</a>
</g>
</g>
<!-- nd421&#45;&gt;ndcluster_nd424 -->
<g id="edge7" class="edge"><title>nd421:e&#45;&gt;ndcluster_nd424:w</title>
<path fill="none" stroke="black" d="M307.1,-34.5C323.1,-34.5 327.1,-34.5 343.1,-34.5"/>
</g>
<!-- nd421&#45;&gt;nd428 -->
<g id="edge11" class="edge"><title>nd421:s&#45;&gt;nd428:w</title>
<path fill="none" stroke="black" d="M294.1,-18.5C294.1,3.35022 321.25,-14.5 343.1,-14.5"/>
</g>
<!-- nd430 -->
<g id="node17" class="node"><title>nd430</title>
<g id="a_node17"><a xlink:title="nd430&#45;ContractGraph">
<ellipse fill="black" stroke="black" cx="379.4" cy="-14.5" rx="1.8" ry="1.8"/>
</a>
</g>
</g>
<!-- nd428&#45;&gt;nd430 -->
<g id="edge18" class="edge"><title>nd428:e&#45;&gt;nd430:w</title>
<path fill="none" stroke="black" d="M349.1,-14.5C361.767,-14.5 364.933,-14.5 377.6,-14.5"/>
</g>
<!-- nd429&#45;&gt;nd463 -->
<g id="edge20" class="edge"><title>nd429:e&#45;&gt;nd463:w</title>
<path fill="none" stroke="black" d="M297.1,-136.5C299.02,-136.5 329.38,-141.5 331.3,-141.5"/>
<text text-anchor="middle" x="320.1" y="-144.3" font-family="Times,serif" font-size="14.00">y</text>
</g>
<!-- nd430&#45;&gt;nd39 -->
<g id="edge21" class="edge"><title>nd430:e&#45;&gt;nd39:w</title>
<path fill="none" stroke="black" d="M381.2,-14.5C391.422,-14.5 393.978,-14.5 404.2,-14.5"/>
<text text-anchor="middle" x="392.7" y="-18.3" font-family="Times,serif" font-size="14.00">x</text>
</g>
<!-- nd407 -->
<g id="node20" class="node"><title>nd407</title>
<g id="a_node20"><a xlink:title="nd407&#45;UnOpGraph">
<ellipse fill="none" stroke="#000000" cx="294.1" cy="-221.5" rx="14.5" ry="14.5"/>
<text text-anchor="middle" x="294.1" y="-217.8" font-family="Times,serif" font-size="14.00">empty</text>
</a>
</g>
</g>
<!-- nd406&#45;&gt;nd407 -->
<g id="edge1" class="edge"><title>nd406:e&#45;&gt;nd407:w</title>
<path fill="none" stroke="black" d="M225.6,-213.5C246.218,-213.5 251.343,-215.66 271.6,-219.5 275.201,-220.183 275.935,-221.5 279.6,-221.5"/>
</g>
<!-- nd406&#45;&gt;nd407 -->
<g id="edge2" class="edge"><title>nd406:n&#45;&gt;nd407:e</title>
<path fill="none" stroke="grey" d="M211.1,-229.5C211.1,-273.151 277.19,-265.785 309.1,-236 310.281,-234.898 311.715,-221.5 310.1,-221.5"/>
<text text-anchor="middle" x="252.6" y="-263.3" font-family="Times,serif" font-size="14.00">op_arg</text>
</g>
</g>
</svg>
