<?xml version="1.0" encoding="UTF-8" standalone="no"?>
<!DOCTYPE svg PUBLIC "-//W3C//DTD SVG 1.1//EN"
 "http://www.w3.org/Graphics/SVG/1.1/DTD/svg11.dtd">
<!-- Generated by graphviz version 2.38.0 (20140413.2041)
 -->
<!-- Title: G Pages: 1 -->
<svg width="205pt" height="118pt"
 viewBox="0.00 0.00 204.90 117.50" xmlns="http://www.w3.org/2000/svg" xmlns:xlink="http://www.w3.org/1999/xlink">
<g id="graph0" class="graph" transform="scale(1 1) rotate(0) translate(4 113.5)">
<title>G</title>
<polygon fill="white" stroke="none" points="-4,4 -4,-113.5 200.9,-113.5 200.9,4 -4,4"/>
<g id="clust1" class="cluster"><title>cluster_nd395</title>
<polygon fill="none" stroke="orange" points="169.3,-8 169.3,-28 188.9,-28 188.9,-8 169.3,-8"/>
</g>
<g id="clust2" class="cluster"><title>cluster_nd322</title>
<polygon fill="none" stroke="orange" points="71.3,-38 71.3,-58 90.9,-58 90.9,-38 71.3,-38"/>
</g>
<!-- nd1 -->
<g id="node1" class="node"><title>nd1</title>
<ellipse fill="black" stroke="black" cx="1.8" cy="-35" rx="1.8" ry="1.8"/>
</g>
<!-- nd255 -->
<g id="node5" class="node"><title>nd255</title>
<g id="a_node5"><a xlink:title="nd255&#45;AppGraph">
<path fill="none" stroke="#000000" d="M27.5473,-45.0543C27.5473,-45.0543 23.6719,-39.4457 23.6719,-39.4457 22.136,-37.2229 22.136,-32.7771 23.6719,-30.5543 23.6719,-30.5543 27.5473,-24.9457 27.5473,-24.9457 29.0833,-22.7229 33.3212,-20.5023 36.0231,-20.5045 36.0231,-20.5045 41.4269,-20.509 41.4269,-20.509 44.1288,-20.5113 46.8307,-23.2155 46.8307,-25.9174 46.8307,-25.9174 46.8307,-44.0826 46.8307,-44.0826 46.8307,-46.7845 44.1288,-49.4887 41.4269,-49.491 41.4269,-49.491 36.0231,-49.4955 36.0231,-49.4955 33.3212,-49.4977 29.0833,-47.2771 27.5473,-45.0543"/>
<text text-anchor="middle" x="35.1" y="-31.3" font-family="Times,serif" font-size="14.00">@</text>
</a>
</g>
</g>
<!-- nd1&#45;&gt;nd255 -->
<g id="edge5" class="edge"><title>nd1:e&#45;&gt;nd255:w</title>
<path fill="none" stroke="#b70000" d="M3.6,-35C11.1556,-35 13.0444,-35 20.6,-35"/>
</g>
<!-- nd34 -->
<g id="node2" class="node"><title>nd34</title>
<g id="a_node2"><a xlink:title="nd34&#45;ConstGraph">
<path fill="none" stroke="purple" d="M174.267,-109.5C174.267,-109.5 183.933,-109.5 183.933,-109.5 188.767,-109.5 193.6,-104.667 193.6,-99.8333 193.6,-99.8333 193.6,-90.1667 193.6,-90.1667 193.6,-85.3333 188.767,-80.5 183.933,-80.5 183.933,-80.5 174.267,-80.5 174.267,-80.5 169.433,-80.5 164.6,-85.3333 164.6,-90.1667 164.6,-90.1667 164.6,-99.8333 164.6,-99.8333 164.6,-104.667 169.433,-109.5 174.267,-109.5"/>
<text text-anchor="middle" x="179.1" y="-91.3" font-family="Times,serif" font-size="14.00">4</text>
</a>
</g>
</g>
<!-- nd39 -->
<g id="node3" class="node"><title>nd39</title>
<g id="a_node3"><a xlink:title="nd39&#45;ConstEmptyGraph">
<path fill="none" stroke="purple" d="M174.267,-67.5C174.267,-67.5 183.933,-67.5 183.933,-67.5 188.767,-67.5 193.6,-62.6667 193.6,-57.8333 193.6,-57.8333 193.6,-48.1667 193.6,-48.1667 193.6,-43.3333 188.767,-38.5 183.933,-38.5 183.933,-38.5 174.267,-38.5 174.267,-38.5 169.433,-38.5 164.6,-43.3333 164.6,-48.1667 164.6,-48.1667 164.6,-57.8333 164.6,-57.8333 164.6,-62.6667 169.433,-67.5 174.267,-67.5"/>
<text text-anchor="middle" x="179.1" y="-49.3" font-family="Times,serif" font-size="14.00">[]</text>
</a>
</g>
</g>
<!-- nd182 -->
<g id="node4" class="node"><title>nd182</title>
<g id="a_node4"><a xlink:title="nd182&#45;ConstListGraph">
<path fill="none" stroke="purple" d="M128.267,-82.5C128.267,-82.5 137.933,-82.5 137.933,-82.5 142.767,-82.5 147.6,-77.6667 147.6,-72.8333 147.6,-72.8333 147.6,-63.1667 147.6,-63.1667 147.6,-58.3333 142.767,-53.5 137.933,-53.5 137.933,-53.5 128.267,-53.5 128.267,-53.5 123.433,-53.5 118.6,-58.3333 118.6,-63.1667 118.6,-63.1667 118.6,-72.8333 118.6,-72.8333 118.6,-77.6667 123.433,-82.5 128.267,-82.5"/>
<text text-anchor="middle" x="133.1" y="-64.3" font-family="Times,serif" font-size="14.00">::</text>
</a>
</g>
</g>
<!-- nd182&#45;&gt;nd34 -->
<g id="edge1" class="edge"><title>nd182:n&#45;&gt;nd34:w</title>
<path fill="none" stroke="purple" d="M133.1,-84C133.1,-98.8291 149.771,-95 164.6,-95"/>
</g>
<!-- nd182&#45;&gt;nd39 -->
<g id="edge2" class="edge"><title>nd182:s&#45;&gt;nd39:w</title>
<path fill="none" stroke="purple" d="M133.1,-52C133.1,-37.9929 150.593,-53 164.6,-53"/>
</g>
<!-- nd386 -->
<g id="node6" class="node"><title>nd386</title>
<g id="a_node6"><a xlink:title="nd386&#45;ConstGraph">
<path fill="none" stroke="purple" d="M76.2667,-29.5C76.2667,-29.5 85.9333,-29.5 85.9333,-29.5 90.7667,-29.5 95.6,-24.6667 95.6,-19.8333 95.6,-19.8333 95.6,-10.1667 95.6,-10.1667 95.6,-5.33333 90.7667,-0.5 85.9333,-0.5 85.9333,-0.5 76.2667,-0.5 76.2667,-0.5 71.4333,-0.5 66.6,-5.33333 66.6,-10.1667 66.6,-10.1667 66.6,-19.8333 66.6,-19.8333 66.6,-24.6667 71.4333,-29.5 76.2667,-29.5"/>
<text text-anchor="middle" x="81.1" y="-11.3" font-family="Times,serif" font-size="14.00">6</text>
</a>
</g>
</g>
<!-- nd255&#45;&gt;nd386 -->
<g id="edge4" class="edge"><title>nd255:s&#45;&gt;nd386:w</title>
<path fill="none" stroke="black" d="M35.1,-19C35.1,-4.88758 52.4876,-15 66.6,-15"/>
</g>
<!-- ndcluster_nd322 -->
<g id="node9" class="node"><title>ndcluster_nd322</title>
<g id="a_node9"><a xlink:title="nd322">
<ellipse fill="orange" stroke="orange" cx="81.1" cy="-48" rx="1.8" ry="1.8"/>
</a>
</g>
</g>
<!-- nd255&#45;&gt;ndcluster_nd322 -->
<g id="edge3" class="edge"><title>nd255:e&#45;&gt;ndcluster_nd322:w</title>
<path fill="none" stroke="red" d="M48.1,-35C58.3174,-35 61.814,-41.427 68.041,-45.243"/>
<polygon fill="red" stroke="red" points="67.5305,-48.7321 78.1,-48 69.3809,-41.9811 67.5305,-48.7321"/>
</g>
<!-- nd391 -->
<g id="node7" class="node"><title>nd391</title>
<g id="a_node7"><a xlink:title="nd391&#45;RecurGraph">
<ellipse fill="none" stroke="#000000" cx="133.1" cy="-23" rx="11" ry="11"/>
<text text-anchor="middle" x="133.1" y="-19.3" font-family="Times,serif" font-size="14.00">rec</text>
</a>
</g>
</g>
<!-- ndcluster_nd395 -->
<g id="node8" class="node"><title>ndcluster_nd395</title>
<g id="a_node8"><a xlink:title="nd395">
<ellipse fill="orange" stroke="orange" cx="179.1" cy="-18" rx="1.8" ry="1.8"/>
</a>
</g>
</g>
<!-- nd391&#45;&gt;ndcluster_nd395 -->
<g id="edge8" class="edge"><title>nd391:n&#45;&gt;ndcluster_nd395:e</title>
<path fill="none" stroke="grey" d="M133.1,-35C133.1,-46.5256 193.626,-18 182.1,-18"/>
</g>
<!-- nd391&#45;&gt;ndcluster_nd395 -->
<g id="edge9" class="edge"><title>nd391:e&#45;&gt;ndcluster_nd395:w</title>
<path fill="none" stroke="black" d="M145.1,-23C159.056,-23 162.144,-18 176.1,-18"/>
</g>
<!-- ndcluster_nd322&#45;&gt;nd182 -->
<g id="edge7" class="edge"><title>ndcluster_nd322:e&#45;&gt;nd182:w</title>
<path fill="none" stroke="black" d="M84.1,-48C101.824,-48 100.876,-68 118.6,-68"/>
<text text-anchor="middle" x="107.1" y="-69.8" font-family="Times,serif" font-size="14.00">x</text>
</g>
<!-- ndcluster_nd322&#45;&gt;nd391 -->
<g id="edge6" class="edge"><title>ndcluster_nd322:e&#45;&gt;nd391:w</title>
<path fill="none" stroke="black" d="M84.1,-48C103.946,-48 101.254,-23 121.1,-23"/>
</g>
</g>
</svg>
