<?xml version="1.0" encoding="UTF-8" standalone="no"?>
<!DOCTYPE svg PUBLIC "-//W3C//DTD SVG 1.1//EN"
 "http://www.w3.org/Graphics/SVG/1.1/DTD/svg11.dtd">
<!-- Generated by graphviz version 2.38.0 (20140413.2041)
 -->
<!-- Title: G Pages: 1 -->
<svg width="372pt" height="163pt"
 viewBox="0.00 0.00 372.20 162.78" xmlns="http://www.w3.org/2000/svg" xmlns:xlink="http://www.w3.org/1999/xlink">
<g id="graph0" class="graph" transform="scale(1 1) rotate(0) translate(4 158.775)">
<title>G</title>
<polygon fill="white" stroke="none" points="-4,4 -4,-158.775 368.2,-158.775 368.2,4 -4,4"/>
<g id="clust1" class="cluster"><title>cluster_nd395</title>
<polygon fill="none" stroke="orange" points="175.3,-126.5 175.3,-146.5 194.9,-146.5 194.9,-126.5 175.3,-126.5"/>
</g>
<g id="clust2" class="cluster"><title>cluster_nd338</title>
<polygon fill="none" stroke="orange" points="173.3,-74.5 173.3,-117.5 196.9,-117.5 196.9,-74.5 173.3,-74.5"/>
<text text-anchor="middle" x="185.1" y="-102.3" font-family="Times,serif" font-size="14.00">tl</text>
</g>
<!-- nd1 -->
<g id="node1" class="node"><title>nd1</title>
<ellipse fill="black" stroke="black" cx="1.8" cy="-74.5" rx="1.8" ry="1.8"/>
</g>
<!-- nd332 -->
<g id="node8" class="node"><title>nd332</title>
<g id="a_node8"><a xlink:title="nd332&#45;AppGraph">
<path fill="none" stroke="#000000" d="M27.5473,-84.5543C27.5473,-84.5543 23.6719,-78.9457 23.6719,-78.9457 22.136,-76.7229 22.136,-72.2771 23.6719,-70.0543 23.6719,-70.0543 27.5473,-64.4457 27.5473,-64.4457 29.0833,-62.2229 33.3212,-60.0023 36.0231,-60.0045 36.0231,-60.0045 41.4269,-60.009 41.4269,-60.009 44.1288,-60.0113 46.8307,-62.7155 46.8307,-65.4174 46.8307,-65.4174 46.8307,-83.5826 46.8307,-83.5826 46.8307,-86.2845 44.1288,-88.9887 41.4269,-88.991 41.4269,-88.991 36.0231,-88.9955 36.0231,-88.9955 33.3212,-88.9977 29.0833,-86.7771 27.5473,-84.5543"/>
<text text-anchor="middle" x="35.1" y="-70.8" font-family="Times,serif" font-size="14.00">@</text>
</a>
</g>
</g>
<!-- nd1&#45;&gt;nd332 -->
<g id="edge12" class="edge"><title>nd1:e&#45;&gt;nd332:w</title>
<path fill="none" stroke="#b70000" d="M3.6,-74.5C11.1556,-74.5 13.0444,-74.5 20.6,-74.5"/>
</g>
<!-- nd34 -->
<g id="node2" class="node"><title>nd34</title>
<g id="a_node2"><a xlink:title="nd34&#45;ConstGraph">
<path fill="none" stroke="purple" d="M298.867,-94C298.867,-94 308.533,-94 308.533,-94 313.367,-94 318.2,-89.1667 318.2,-84.3333 318.2,-84.3333 318.2,-74.6667 318.2,-74.6667 318.2,-69.8333 313.367,-65 308.533,-65 308.533,-65 298.867,-65 298.867,-65 294.033,-65 289.2,-69.8333 289.2,-74.6667 289.2,-74.6667 289.2,-84.3333 289.2,-84.3333 289.2,-89.1667 294.033,-94 298.867,-94"/>
<text text-anchor="middle" x="303.7" y="-75.8" font-family="Times,serif" font-size="14.00">4</text>
</a>
</g>
</g>
<!-- nd39 -->
<g id="node3" class="node"><title>nd39</title>
<g id="a_node3"><a xlink:title="nd39&#45;ConstEmptyGraph">
<path fill="none" stroke="purple" d="M344.867,-64C344.867,-64 354.533,-64 354.533,-64 359.367,-64 364.2,-59.1667 364.2,-54.3333 364.2,-54.3333 364.2,-44.6667 364.2,-44.6667 364.2,-39.8333 359.367,-35 354.533,-35 354.533,-35 344.867,-35 344.867,-35 340.033,-35 335.2,-39.8333 335.2,-44.6667 335.2,-44.6667 335.2,-54.3333 335.2,-54.3333 335.2,-59.1667 340.033,-64 344.867,-64"/>
<text text-anchor="middle" x="349.7" y="-45.8" font-family="Times,serif" font-size="14.00">[]</text>
</a>
</g>
</g>
<!-- nd182 -->
<g id="node4" class="node"><title>nd182</title>
<g id="a_node4"><a xlink:title="nd182&#45;ConstListGraph">
<path fill="none" stroke="purple" d="M232.267,-79C232.267,-79 241.933,-79 241.933,-79 246.767,-79 251.6,-74.1667 251.6,-69.3333 251.6,-69.3333 251.6,-59.6667 251.6,-59.6667 251.6,-54.8333 246.767,-50 241.933,-50 241.933,-50 232.267,-50 232.267,-50 227.433,-50 222.6,-54.8333 222.6,-59.6667 222.6,-59.6667 222.6,-69.3333 222.6,-69.3333 222.6,-74.1667 227.433,-79 232.267,-79"/>
<text text-anchor="middle" x="237.1" y="-60.8" font-family="Times,serif" font-size="14.00">::</text>
</a>
</g>
</g>
<!-- nd453 -->
<g id="node16" class="node"><title>nd453</title>
<g id="a_node16"><a xlink:title="nd453&#45;ContractGraph">
<ellipse fill="black" stroke="black" cx="270.4" cy="-79.5" rx="1.8" ry="1.8"/>
</a>
</g>
</g>
<!-- nd182&#45;&gt;nd453 -->
<g id="edge1" class="edge"><title>nd182:n&#45;&gt;nd453:w</title>
<path fill="none" stroke="black" d="M237.1,-80.5C237.1,-94.5071 254.593,-79.5 268.6,-79.5"/>
</g>
<!-- nd454 -->
<g id="node17" class="node"><title>nd454</title>
<g id="a_node17"><a xlink:title="nd454&#45;ContractGraph">
<ellipse fill="black" stroke="black" cx="270.4" cy="-49.5" rx="1.8" ry="1.8"/>
</a>
</g>
</g>
<!-- nd182&#45;&gt;nd454 -->
<g id="edge2" class="edge"><title>nd182:s&#45;&gt;nd454:w</title>
<path fill="none" stroke="black" d="M237.1,-48.5C237.1,-34.4929 254.593,-49.5 268.6,-49.5"/>
</g>
<!-- nd386 -->
<g id="node5" class="node"><title>nd386</title>
<g id="a_node5"><a xlink:title="nd386&#45;ConstGraph">
<path fill="none" stroke="purple" d="M180.267,-50C180.267,-50 189.933,-50 189.933,-50 194.767,-50 199.6,-45.1667 199.6,-40.3333 199.6,-40.3333 199.6,-30.6667 199.6,-30.6667 199.6,-25.8333 194.767,-21 189.933,-21 189.933,-21 180.267,-21 180.267,-21 175.433,-21 170.6,-25.8333 170.6,-30.6667 170.6,-30.6667 170.6,-40.3333 170.6,-40.3333 170.6,-45.1667 175.433,-50 180.267,-50"/>
<text text-anchor="middle" x="185.1" y="-31.8" font-family="Times,serif" font-size="14.00">6</text>
</a>
</g>
</g>
<!-- nd391 -->
<g id="node6" class="node"><title>nd391</title>
<g id="a_node6"><a xlink:title="nd391&#45;RecurGraph">
<ellipse fill="none" stroke="#000000" cx="133.1" cy="-118.5" rx="11" ry="11"/>
<text text-anchor="middle" x="133.1" y="-114.8" font-family="Times,serif" font-size="14.00">rec</text>
</a>
</g>
</g>
<!-- ndcluster_nd395 -->
<g id="node7" class="node"><title>ndcluster_nd395</title>
<g id="a_node7"><a xlink:title="nd395">
<ellipse fill="orange" stroke="orange" cx="185.1" cy="-136.5" rx="1.8" ry="1.8"/>
</a>
</g>
</g>
<!-- nd391&#45;&gt;ndcluster_nd395 -->
<g id="edge16" class="edge"><title>nd391:n&#45;&gt;ndcluster_nd395:e</title>
<path fill="none" stroke="grey" d="M133.1,-130.5C133.1,-181.095 196.08,-136.5 188.1,-136.5"/>
</g>
<!-- nd391&#45;&gt;ndcluster_nd395 -->
<g id="edge17" class="edge"><title>nd391:e&#45;&gt;ndcluster_nd395:w</title>
<path fill="none" stroke="black" d="M145.1,-118.5C163.387,-118.5 163.813,-136.5 182.1,-136.5"/>
</g>
<!-- nd333 -->
<g id="node9" class="node"><title>nd333</title>
<g id="a_node9"><a xlink:title="nd333&#45;AppGraph">
<path fill="none" stroke="#000000" d="M73.5473,-104.554C73.5473,-104.554 69.6719,-98.9457 69.6719,-98.9457 68.136,-96.7229 68.136,-92.2771 69.6719,-90.0543 69.6719,-90.0543 73.5473,-84.4457 73.5473,-84.4457 75.0833,-82.2229 79.3212,-80.0023 82.0231,-80.0045 82.0231,-80.0045 87.4269,-80.009 87.4269,-80.009 90.1288,-80.0113 92.8307,-82.7155 92.8307,-85.4174 92.8307,-85.4174 92.8307,-103.583 92.8307,-103.583 92.8307,-106.285 90.1288,-108.989 87.4269,-108.991 87.4269,-108.991 82.0231,-108.995 82.0231,-108.995 79.3212,-108.998 75.0833,-106.777 73.5473,-104.554"/>
<text text-anchor="middle" x="81.1" y="-90.8" font-family="Times,serif" font-size="14.00">@</text>
</a>
</g>
</g>
<!-- nd332&#45;&gt;nd333 -->
<g id="edge9" class="edge"><title>nd332:e&#45;&gt;nd333:w</title>
<path fill="none" stroke="black" d="M48.1,-74.5C60.2086,-74.5 54.4914,-94.5 66.6,-94.5"/>
</g>
<!-- nd343 -->
<g id="node12" class="node"><title>nd343</title>
<g id="a_node12"><a xlink:title="nd343&#45;BinOpGraph">
<ellipse fill="none" stroke="#000000" cx="81.1" cy="-29.5" rx="14.5" ry="14.5"/>
<text text-anchor="middle" x="81.1" y="-25.8" font-family="Times,serif" font-size="14.00">+</text>
</a>
</g>
</g>
<!-- nd332&#45;&gt;nd343 -->
<g id="edge10" class="edge"><title>nd332:s&#45;&gt;nd343:w</title>
<path fill="none" stroke="#b70000" d="M35.1,-58.5C35.1,-39.4705 47.5705,-29.5 66.6,-29.5"/>
</g>
<!-- nd333&#45;&gt;nd391 -->
<g id="edge7" class="edge"><title>nd333:e&#45;&gt;nd391:w</title>
<path fill="none" stroke="black" d="M94.1,-94.5C110.155,-94.5 105.045,-118.5 121.1,-118.5"/>
</g>
<!-- nd335 -->
<g id="node10" class="node"><title>nd335</title>
<g id="a_node10"><a xlink:title="nd335&#45;AppGraph">
<path fill="none" stroke="#000000" d="M125.547,-89.5543C125.547,-89.5543 121.672,-83.9457 121.672,-83.9457 120.136,-81.7229 120.136,-77.2771 121.672,-75.0543 121.672,-75.0543 125.547,-69.4457 125.547,-69.4457 127.083,-67.2229 131.321,-65.0023 134.023,-65.0045 134.023,-65.0045 139.427,-65.009 139.427,-65.009 142.129,-65.0113 144.831,-67.7155 144.831,-70.4174 144.831,-70.4174 144.831,-88.5826 144.831,-88.5826 144.831,-91.2845 142.129,-93.9887 139.427,-93.991 139.427,-93.991 134.023,-93.9955 134.023,-93.9955 131.321,-93.9977 127.083,-91.7771 125.547,-89.5543"/>
<text text-anchor="middle" x="133.1" y="-75.8" font-family="Times,serif" font-size="14.00">@</text>
</a>
</g>
</g>
<!-- nd333&#45;&gt;nd335 -->
<g id="edge8" class="edge"><title>nd333:s&#45;&gt;nd335:w</title>
<path fill="none" stroke="black" d="M81.1,-78.5C81.1,-61.8274 101.927,-79.5 118.6,-79.5"/>
</g>
<!-- ndcluster_nd338 -->
<g id="node11" class="node"><title>ndcluster_nd338</title>
<g id="a_node11"><a xlink:title="nd338">
<ellipse fill="orange" stroke="orange" cx="185.1" cy="-84.5" rx="1.8" ry="1.8"/>
</a>
</g>
</g>
<!-- nd335&#45;&gt;ndcluster_nd338 -->
<g id="edge6" class="edge"><title>nd335:e&#45;&gt;ndcluster_nd338:w</title>
<path fill="none" stroke="black" d="M146.1,-79.5C162.254,-79.5 165.946,-84.5 182.1,-84.5"/>
</g>
<!-- nd351 -->
<g id="node13" class="node"><title>nd351</title>
<g id="a_node13"><a xlink:title="nd351&#45;ContractGraph">
<ellipse fill="black" stroke="black" cx="185.1" cy="-64.5" rx="1.8" ry="1.8"/>
</a>
</g>
</g>
<!-- nd335&#45;&gt;nd351 -->
<g id="edge11" class="edge"><title>nd335:s&#45;&gt;nd351:w</title>
<path fill="none" stroke="black" d="M133.1,-63.5C133.1,-41.7177 160.318,-64.5 182.1,-64.5"/>
</g>
<!-- nd352 -->
<g id="node14" class="node"><title>nd352</title>
<g id="a_node14"><a xlink:title="nd352&#45;ContractGraph">
<ellipse fill="black" stroke="black" cx="133.1" cy="-43.5" rx="1.8" ry="1.8"/>
</a>
</g>
</g>
<!-- nd343&#45;&gt;nd352 -->
<g id="edge13" class="edge"><title>nd343:n&#45;&gt;nd352:w</title>
<path fill="none" stroke="black" d="M81.1,-45.5C81.1,-67.2959 108.304,-43.5 130.1,-43.5"/>
</g>
<!-- nd459 -->
<g id="node18" class="node"><title>nd459</title>
<g id="a_node18"><a xlink:title="nd459&#45;ConstGraph">
<path fill="none" stroke="purple" d="M128.267,-29C128.267,-29 137.933,-29 137.933,-29 142.767,-29 147.6,-24.1667 147.6,-19.3333 147.6,-19.3333 147.6,-9.66667 147.6,-9.66667 147.6,-4.83333 142.767,-1.77636e-15 137.933,-1.77636e-15 137.933,-1.77636e-15 128.267,-1.77636e-15 128.267,-1.77636e-15 123.433,-1.77636e-15 118.6,-4.83333 118.6,-9.66667 118.6,-9.66667 118.6,-19.3333 118.6,-19.3333 118.6,-24.1667 123.433,-29 128.267,-29"/>
<text text-anchor="middle" x="133.1" y="-10.8" font-family="Times,serif" font-size="14.00">4</text>
</a>
</g>
</g>
<!-- nd343&#45;&gt;nd459 -->
<g id="edge5" class="edge"><title>nd343:s&#45;&gt;nd459:w</title>
<path fill="none" stroke="red" d="M81.1,-13.5C81.1,-0.083774 94.5862,-8.90681 108.542,-12.8651"/>
<polygon fill="red" stroke="red" points="108.168,-16.3502 118.6,-14.5 109.291,-9.4409 108.168,-16.3502"/>
<text text-anchor="middle" x="107.1" y="-17.3" font-family="Times,serif" font-size="14.00">n</text>
</g>
<!-- nd351&#45;&gt;nd182 -->
<g id="edge15" class="edge"><title>nd351:e&#45;&gt;nd182:w</title>
<path fill="none" stroke="black" d="M188.1,-64.5C203.433,-64.5 207.267,-64.5 222.6,-64.5"/>
<text text-anchor="middle" x="211.1" y="-68.3" font-family="Times,serif" font-size="14.00">x</text>
</g>
<!-- nd352&#45;&gt;nd386 -->
<g id="edge14" class="edge"><title>nd352:e&#45;&gt;nd386:w</title>
<path fill="none" stroke="black" d="M136.1,-43.5C151.84,-43.5 154.86,-35.5 170.6,-35.5"/>
<text text-anchor="middle" x="159.1" y="-43.3" font-family="Times,serif" font-size="14.00">y</text>
</g>
<!-- nd441 -->
<g id="node15" class="node"><title>nd441</title>
<g id="a_node15"><a xlink:title="nd441&#45;ContractGraph">
<ellipse fill="black" stroke="black" cx="303.7" cy="-49.5" rx="1.8" ry="1.8"/>
</a>
</g>
</g>
<!-- nd441&#45;&gt;nd39 -->
<g id="edge4" class="edge"><title>nd441:e&#45;&gt;nd39:w</title>
<path fill="none" stroke="black" d="M306.7,-49.5C319.367,-49.5 322.533,-49.5 335.2,-49.5"/>
</g>
<!-- nd453&#45;&gt;nd34 -->
<g id="edge3" class="edge"><title>nd453:e&#45;&gt;nd34:w</title>
<path fill="none" stroke="black" d="M272.2,-79.5C279.756,-79.5 281.644,-79.5 289.2,-79.5"/>
</g>
<!-- nd454&#45;&gt;nd441 -->
<g id="edge18" class="edge"><title>nd454:e&#45;&gt;nd441:w</title>
<path fill="none" stroke="black" d="M272.2,-49.5C284.867,-49.5 288.033,-49.5 300.7,-49.5"/>
</g>
</g>
</svg>
