<?xml version="1.0" encoding="UTF-8" standalone="no"?>
<!DOCTYPE svg PUBLIC "-//W3C//DTD SVG 1.1//EN"
 "http://www.w3.org/Graphics/SVG/1.1/DTD/svg11.dtd">
<!-- Generated by graphviz version 2.38.0 (20140413.2041)
 -->
<!-- Title: G Pages: 1 -->
<svg width="469pt" height="176pt"
 viewBox="0.00 0.00 468.60 176.18" xmlns="http://www.w3.org/2000/svg" xmlns:xlink="http://www.w3.org/1999/xlink">
<g id="graph0" class="graph" transform="scale(1 1) rotate(0) translate(4 172.185)">
<title>G</title>
<polygon fill="white" stroke="none" points="-4,4 -4,-172.185 464.6,-172.185 464.6,4 -4,4"/>
<g id="clust1" class="cluster"><title>cluster_nd241</title>
<polygon fill="none" stroke="orange" points="169.3,-138.5 169.3,-158.5 188.9,-158.5 188.9,-138.5 169.3,-138.5"/>
</g>
<!-- nd1 -->
<g id="node1" class="node"><title>nd1</title>
<ellipse fill="black" stroke="black" cx="1.8" cy="-105.5" rx="1.8" ry="1.8"/>
</g>
<!-- nd154 -->
<g id="node11" class="node"><title>nd154</title>
<g id="a_node11"><a xlink:title="nd154&#45;AppGraph">
<path fill="none" stroke="#000000" d="M27.5473,-115.554C27.5473,-115.554 23.6719,-109.946 23.6719,-109.946 22.136,-107.723 22.136,-103.277 23.6719,-101.054 23.6719,-101.054 27.5473,-95.4457 27.5473,-95.4457 29.0833,-93.2229 33.3212,-91.0023 36.0231,-91.0045 36.0231,-91.0045 41.4269,-91.009 41.4269,-91.009 44.1288,-91.0113 46.8307,-93.7155 46.8307,-96.4174 46.8307,-96.4174 46.8307,-114.583 46.8307,-114.583 46.8307,-117.285 44.1288,-119.989 41.4269,-119.991 41.4269,-119.991 36.0231,-119.995 36.0231,-119.995 33.3212,-119.998 29.0833,-117.777 27.5473,-115.554"/>
<text text-anchor="middle" x="35.1" y="-101.8" font-family="Times,serif" font-size="14.00">@</text>
</a>
</g>
</g>
<!-- nd1&#45;&gt;nd154 -->
<g id="edge14" class="edge"><title>nd1:e&#45;&gt;nd154:w</title>
<path fill="none" stroke="#b70000" d="M3.6,-105.5C11.1556,-105.5 13.0444,-105.5 20.6,-105.5"/>
</g>
<!-- nd22 -->
<g id="node2" class="node"><title>nd22</title>
<g id="a_node2"><a xlink:title="nd22&#45;ConstGraph">
<path fill="none" stroke="purple" d="M303.267,-101C303.267,-101 312.933,-101 312.933,-101 317.767,-101 322.6,-96.1667 322.6,-91.3333 322.6,-91.3333 322.6,-81.6667 322.6,-81.6667 322.6,-76.8333 317.767,-72 312.933,-72 312.933,-72 303.267,-72 303.267,-72 298.433,-72 293.6,-76.8333 293.6,-81.6667 293.6,-81.6667 293.6,-91.3333 293.6,-91.3333 293.6,-96.1667 298.433,-101 303.267,-101"/>
<text text-anchor="middle" x="308.1" y="-82.8" font-family="Times,serif" font-size="14.00">2</text>
</a>
</g>
</g>
<!-- nd28 -->
<g id="node3" class="node"><title>nd28</title>
<g id="a_node3"><a xlink:title="nd28&#45;ConstGraph">
<path fill="none" stroke="purple" d="M395.267,-92C395.267,-92 404.933,-92 404.933,-92 409.767,-92 414.6,-87.1667 414.6,-82.3333 414.6,-82.3333 414.6,-72.6667 414.6,-72.6667 414.6,-67.8333 409.767,-63 404.933,-63 404.933,-63 395.267,-63 395.267,-63 390.433,-63 385.6,-67.8333 385.6,-72.6667 385.6,-72.6667 385.6,-82.3333 385.6,-82.3333 385.6,-87.1667 390.433,-92 395.267,-92"/>
<text text-anchor="middle" x="400.1" y="-73.8" font-family="Times,serif" font-size="14.00">3</text>
</a>
</g>
</g>
<!-- nd34 -->
<g id="node4" class="node"><title>nd34</title>
<g id="a_node4"><a xlink:title="nd34&#45;ConstGraph">
<path fill="none" stroke="purple" d="M441.267,-71C441.267,-71 450.933,-71 450.933,-71 455.767,-71 460.6,-66.1667 460.6,-61.3333 460.6,-61.3333 460.6,-51.6667 460.6,-51.6667 460.6,-46.8333 455.767,-42 450.933,-42 450.933,-42 441.267,-42 441.267,-42 436.433,-42 431.6,-46.8333 431.6,-51.6667 431.6,-51.6667 431.6,-61.3333 431.6,-61.3333 431.6,-66.1667 436.433,-71 441.267,-71"/>
<text text-anchor="middle" x="446.1" y="-52.8" font-family="Times,serif" font-size="14.00">4</text>
</a>
</g>
</g>
<!-- nd39 -->
<g id="node5" class="node"><title>nd39</title>
<g id="a_node5"><a xlink:title="nd39&#45;ConstEmptyGraph">
<path fill="none" stroke="purple" d="M441.267,-29C441.267,-29 450.933,-29 450.933,-29 455.767,-29 460.6,-24.1667 460.6,-19.3333 460.6,-19.3333 460.6,-9.66667 460.6,-9.66667 460.6,-4.83333 455.767,-1.77636e-15 450.933,-1.77636e-15 450.933,-1.77636e-15 441.267,-1.77636e-15 441.267,-1.77636e-15 436.433,-1.77636e-15 431.6,-4.83333 431.6,-9.66667 431.6,-9.66667 431.6,-19.3333 431.6,-19.3333 431.6,-24.1667 436.433,-29 441.267,-29"/>
<text text-anchor="middle" x="446.1" y="-10.8" font-family="Times,serif" font-size="14.00">[]</text>
</a>
</g>
</g>
<!-- nd182 -->
<g id="node6" class="node"><title>nd182</title>
<g id="a_node6"><a xlink:title="nd182&#45;ConstListGraph">
<path fill="none" stroke="purple" d="M395.267,-50C395.267,-50 404.933,-50 404.933,-50 409.767,-50 414.6,-45.1667 414.6,-40.3333 414.6,-40.3333 414.6,-30.6667 414.6,-30.6667 414.6,-25.8333 409.767,-21 404.933,-21 404.933,-21 395.267,-21 395.267,-21 390.433,-21 385.6,-25.8333 385.6,-30.6667 385.6,-30.6667 385.6,-40.3333 385.6,-40.3333 385.6,-45.1667 390.433,-50 395.267,-50"/>
<text text-anchor="middle" x="400.1" y="-31.8" font-family="Times,serif" font-size="14.00">::</text>
</a>
</g>
</g>
<!-- nd182&#45;&gt;nd34 -->
<g id="edge1" class="edge"><title>nd182:n&#45;&gt;nd34:w</title>
<path fill="none" stroke="purple" d="M400.1,-51.5C400.1,-55.0438 428.056,-56.5 431.6,-56.5"/>
</g>
<!-- nd182&#45;&gt;nd39 -->
<g id="edge2" class="edge"><title>nd182:s&#45;&gt;nd39:w</title>
<path fill="none" stroke="purple" d="M400.1,-19.5C400.1,-5.32473 417.425,-14.5 431.6,-14.5"/>
</g>
<!-- nd188 -->
<g id="node7" class="node"><title>nd188</title>
<g id="a_node7"><a xlink:title="nd188&#45;ConstListGraph">
<path fill="none" stroke="purple" d="M349.267,-71C349.267,-71 358.933,-71 358.933,-71 363.767,-71 368.6,-66.1667 368.6,-61.3333 368.6,-61.3333 368.6,-51.6667 368.6,-51.6667 368.6,-46.8333 363.767,-42 358.933,-42 358.933,-42 349.267,-42 349.267,-42 344.433,-42 339.6,-46.8333 339.6,-51.6667 339.6,-51.6667 339.6,-61.3333 339.6,-61.3333 339.6,-66.1667 344.433,-71 349.267,-71"/>
<text text-anchor="middle" x="354.1" y="-52.8" font-family="Times,serif" font-size="14.00">::</text>
</a>
</g>
</g>
<!-- nd188&#45;&gt;nd28 -->
<g id="edge3" class="edge"><title>nd188:n&#45;&gt;nd28:w</title>
<path fill="none" stroke="purple" d="M354.1,-72.5C354.1,-86.6753 371.425,-77.5 385.6,-77.5"/>
</g>
<!-- nd188&#45;&gt;nd182 -->
<g id="edge4" class="edge"><title>nd188:s&#45;&gt;nd182:w</title>
<path fill="none" stroke="purple" d="M354.1,-40.5C354.1,-26.3247 371.425,-35.5 385.6,-35.5"/>
</g>
<!-- nd194 -->
<g id="node8" class="node"><title>nd194</title>
<g id="a_node8"><a xlink:title="nd194&#45;ConstListGraph">
<path fill="none" stroke="purple" d="M174.267,-86C174.267,-86 183.933,-86 183.933,-86 188.767,-86 193.6,-81.1667 193.6,-76.3333 193.6,-76.3333 193.6,-66.6667 193.6,-66.6667 193.6,-61.8333 188.767,-57 183.933,-57 183.933,-57 174.267,-57 174.267,-57 169.433,-57 164.6,-61.8333 164.6,-66.6667 164.6,-66.6667 164.6,-76.3333 164.6,-76.3333 164.6,-81.1667 169.433,-86 174.267,-86"/>
<text text-anchor="middle" x="179.1" y="-67.8" font-family="Times,serif" font-size="14.00">::</text>
</a>
</g>
</g>
<!-- nd299 -->
<g id="node15" class="node"><title>nd299</title>
<g id="a_node15"><a xlink:title="nd299&#45;ContractGraph">
<ellipse fill="black" stroke="black" cx="262.1" cy="-86.5" rx="1.8" ry="1.8"/>
</a>
</g>
</g>
<!-- nd194&#45;&gt;nd299 -->
<g id="edge5" class="edge"><title>nd194:n&#45;&gt;nd299:w</title>
<path fill="none" stroke="black" d="M179.1,-87.5C179.1,-96.3896 250.21,-86.5 259.1,-86.5"/>
</g>
<!-- nd300 -->
<g id="node16" class="node"><title>nd300</title>
<g id="a_node16"><a xlink:title="nd300&#45;ContractGraph">
<ellipse fill="black" stroke="black" cx="262.1" cy="-56.5" rx="1.8" ry="1.8"/>
</a>
</g>
</g>
<!-- nd194&#45;&gt;nd300 -->
<g id="edge6" class="edge"><title>nd194:s&#45;&gt;nd300:w</title>
<path fill="none" stroke="black" d="M179.1,-55.5C179.1,-19.9417 223.542,-56.5 259.1,-56.5"/>
</g>
<!-- nd237 -->
<g id="node9" class="node"><title>nd237</title>
<g id="a_node9"><a xlink:title="nd237&#45;RecurGraph">
<ellipse fill="none" stroke="#000000" cx="127.1" cy="-134.5" rx="11" ry="11"/>
<text text-anchor="middle" x="127.1" y="-130.8" font-family="Times,serif" font-size="14.00">rec</text>
</a>
</g>
</g>
<!-- ndcluster_nd241 -->
<g id="node10" class="node"><title>ndcluster_nd241</title>
<g id="a_node10"><a xlink:title="nd241">
<ellipse fill="orange" stroke="orange" cx="179.1" cy="-148.5" rx="1.8" ry="1.8"/>
</a>
</g>
</g>
<!-- nd237&#45;&gt;ndcluster_nd241 -->
<g id="edge18" class="edge"><title>nd237:n&#45;&gt;ndcluster_nd241:e</title>
<path fill="none" stroke="grey" d="M127.1,-146.5C127.1,-193.624 189.966,-148.5 182.1,-148.5"/>
</g>
<!-- nd237&#45;&gt;ndcluster_nd241 -->
<g id="edge19" class="edge"><title>nd237:e&#45;&gt;ndcluster_nd241:w</title>
<path fill="none" stroke="black" d="M139.1,-134.5C156.682,-134.5 158.518,-148.5 176.1,-148.5"/>
</g>
<!-- nd155 -->
<g id="node12" class="node"><title>nd155</title>
<g id="a_node12"><a xlink:title="nd155&#45;AppGraph">
<path fill="none" stroke="#000000" d="M73.5473,-135.554C73.5473,-135.554 69.6719,-129.946 69.6719,-129.946 68.136,-127.723 68.136,-123.277 69.6719,-121.054 69.6719,-121.054 73.5473,-115.446 73.5473,-115.446 75.0833,-113.223 79.3212,-111.002 82.0231,-111.005 82.0231,-111.005 87.4269,-111.009 87.4269,-111.009 90.1288,-111.011 92.8307,-113.715 92.8307,-116.417 92.8307,-116.417 92.8307,-134.583 92.8307,-134.583 92.8307,-137.285 90.1288,-139.989 87.4269,-139.991 87.4269,-139.991 82.0231,-139.995 82.0231,-139.995 79.3212,-139.998 75.0833,-137.777 73.5473,-135.554"/>
<text text-anchor="middle" x="81.1" y="-121.8" font-family="Times,serif" font-size="14.00">@</text>
</a>
</g>
</g>
<!-- nd154&#45;&gt;nd155 -->
<g id="edge12" class="edge"><title>nd154:e&#45;&gt;nd155:w</title>
<path fill="none" stroke="#b70000" d="M48.1,-105.5C60.2086,-105.5 54.4914,-125.5 66.6,-125.5"/>
</g>
<!-- nd309 -->
<g id="node17" class="node"><title>nd309</title>
<g id="a_node17"><a xlink:title="nd309&#45;ConstGraph">
<path fill="none" stroke="purple" d="M76.2667,-98C76.2667,-98 85.9333,-98 85.9333,-98 90.7667,-98 95.6,-93.1667 95.6,-88.3333 95.6,-88.3333 95.6,-78.6667 95.6,-78.6667 95.6,-73.8333 90.7667,-69 85.9333,-69 85.9333,-69 76.2667,-69 76.2667,-69 71.4333,-69 66.6,-73.8333 66.6,-78.6667 66.6,-78.6667 66.6,-88.3333 66.6,-88.3333 66.6,-93.1667 71.4333,-98 76.2667,-98"/>
<text text-anchor="middle" x="81.1" y="-79.8" font-family="Times,serif" font-size="14.00">3</text>
</a>
</g>
</g>
<!-- nd154&#45;&gt;nd309 -->
<g id="edge13" class="edge"><title>nd154:s&#45;&gt;nd309:w</title>
<path fill="none" stroke="black" d="M35.1,-89.5C35.1,-75.2483 52.3483,-83.5 66.6,-83.5"/>
</g>
<!-- nd155&#45;&gt;nd237 -->
<g id="edge10" class="edge"><title>nd155:e&#45;&gt;nd237:w</title>
<path fill="none" stroke="black" d="M94.1,-125.5C104.254,-125.5 104.946,-134.5 115.1,-134.5"/>
</g>
<!-- nd157 -->
<g id="node13" class="node"><title>nd157</title>
<g id="a_node13"><a xlink:title="nd157&#45;AppGraph">
<path fill="none" stroke="#000000" d="M119.547,-105.554C119.547,-105.554 115.672,-99.9457 115.672,-99.9457 114.136,-97.7229 114.136,-93.2771 115.672,-91.0543 115.672,-91.0543 119.547,-85.4457 119.547,-85.4457 121.083,-83.2229 125.321,-81.0023 128.023,-81.0045 128.023,-81.0045 133.427,-81.009 133.427,-81.009 136.129,-81.0113 138.831,-83.7155 138.831,-86.4174 138.831,-86.4174 138.831,-104.583 138.831,-104.583 138.831,-107.285 136.129,-109.989 133.427,-109.991 133.427,-109.991 128.023,-109.995 128.023,-109.995 125.321,-109.998 121.083,-107.777 119.547,-105.554"/>
<text text-anchor="middle" x="127.1" y="-91.8" font-family="Times,serif" font-size="14.00">@</text>
</a>
</g>
</g>
<!-- nd155&#45;&gt;nd157 -->
<g id="edge11" class="edge"><title>nd155:s&#45;&gt;nd157:w</title>
<path fill="none" stroke="#b70000" d="M81.1,-109.5C81.1,-102.683 89.3467,-107.214 95.6,-104.5 103.442,-101.096 104.051,-95.5 112.6,-95.5"/>
</g>
<!-- nd157&#45;&gt;nd194 -->
<g id="edge15" class="edge"><title>nd157:s&#45;&gt;nd194:w</title>
<path fill="none" stroke="black" d="M127.1,-79.5C127.1,-62.4583 147.558,-71.5 164.6,-71.5"/>
<text text-anchor="middle" x="153.1" y="-74.3" font-family="Times,serif" font-size="14.00">x</text>
</g>
<!-- nd161 -->
<g id="node18" class="node"><title>nd161</title>
<g id="a_node18"><a xlink:title="nd161&#45;AbsGraph">
<ellipse fill="none" stroke="#000000" cx="179.1" cy="-113.5" rx="14.5" ry="14.5"/>
<text text-anchor="middle" x="179.1" y="-109.8" font-family="Times,serif" font-size="14.00">fun</text>
</a>
</g>
</g>
<!-- nd157&#45;&gt;nd161 -->
<g id="edge9" class="edge"><title>nd157:e&#45;&gt;nd161:w</title>
<path fill="none" stroke="red" d="M140.1,-95.5C149.178,-95.5 151.018,-103.625 155.346,-108.958"/>
<polygon fill="red" stroke="red" points="154.081,-112.236 164.6,-113.5 157.165,-105.952 154.081,-112.236"/>
</g>
<!-- nd287 -->
<g id="node14" class="node"><title>nd287</title>
<g id="a_node14"><a xlink:title="nd287&#45;ContractGraph">
<ellipse fill="black" stroke="black" cx="308.1" cy="-56.5" rx="1.8" ry="1.8"/>
</a>
</g>
</g>
<!-- nd287&#45;&gt;nd188 -->
<g id="edge17" class="edge"><title>nd287:e&#45;&gt;nd188:w</title>
<path fill="none" stroke="black" d="M311.1,-56.5C323.767,-56.5 326.933,-56.5 339.6,-56.5"/>
</g>
<!-- nd299&#45;&gt;nd22 -->
<g id="edge16" class="edge"><title>nd299:e&#45;&gt;nd22:w</title>
<path fill="none" stroke="black" d="M265.1,-86.5C277.767,-86.5 280.933,-86.5 293.6,-86.5"/>
</g>
<!-- nd300&#45;&gt;nd287 -->
<g id="edge20" class="edge"><title>nd300:e&#45;&gt;nd287:w</title>
<path fill="none" stroke="black" d="M265.1,-56.5C282.878,-56.5 287.322,-56.5 305.1,-56.5"/>
</g>
<!-- nd162 -->
<g id="node19" class="node"><title>nd162</title>
<g id="a_node19"><a xlink:title="nd162&#45;UnOpGraph">
<ellipse fill="none" stroke="#000000" cx="262.1" cy="-124.5" rx="14.5" ry="14.5"/>
<text text-anchor="middle" x="262.1" y="-120.8" font-family="Times,serif" font-size="14.00">tl</text>
</a>
</g>
</g>
<!-- nd161&#45;&gt;nd162 -->
<g id="edge7" class="edge"><title>nd161:e&#45;&gt;nd162:w</title>
<path fill="none" stroke="black" d="M193.6,-113.5C214.28,-113.5 219.889,-114.244 239.6,-120.5 243.389,-121.703 243.625,-124.5 247.6,-124.5"/>
</g>
<!-- nd161&#45;&gt;nd162 -->
<g id="edge8" class="edge"><title>nd161:n&#45;&gt;nd162:e</title>
<path fill="none" stroke="grey" d="M179.1,-129.5C179.1,-134.97 273.101,-142.732 277.1,-139 278.281,-137.898 279.715,-124.5 278.1,-124.5"/>
<text text-anchor="middle" x="220.6" y="-142.3" font-family="Times,serif" font-size="14.00">op_arg</text>
</g>
</g>
</svg>
