<?xml version="1.0" encoding="UTF-8" standalone="no"?>
<!DOCTYPE svg PUBLIC "-//W3C//DTD SVG 1.1//EN"
 "http://www.w3.org/Graphics/SVG/1.1/DTD/svg11.dtd">
<!-- Generated by graphviz version 2.38.0 (20140413.2041)
 -->
<!-- Title: G Pages: 1 -->
<svg width="452pt" height="206pt"
 viewBox="0.00 0.00 452.20 205.78" xmlns="http://www.w3.org/2000/svg" xmlns:xlink="http://www.w3.org/1999/xlink">
<g id="graph0" class="graph" transform="scale(1 1) rotate(0) translate(4 201.775)">
<title>G</title>
<polygon fill="white" stroke="none" points="-4,4 -4,-201.775 448.2,-201.775 448.2,4 -4,4"/>
<g id="clust1" class="cluster"><title>cluster_nd140</title>
<polygon fill="none" stroke="orange" points="169.3,-169.5 169.3,-189.5 188.9,-189.5 188.9,-169.5 169.3,-169.5"/>
</g>
<g id="clust2" class="cluster"><title>cluster_nd91</title>
<polygon fill="none" stroke="orange" points="167.3,-115.5 167.3,-158.5 190.9,-158.5 190.9,-115.5 167.3,-115.5"/>
<text text-anchor="middle" x="179.1" y="-143.3" font-family="Times,serif" font-size="14.00">tl</text>
</g>
<!-- nd1 -->
<g id="node1" class="node"><title>nd1</title>
<ellipse fill="black" stroke="black" cx="1.8" cy="-132.5" rx="1.8" ry="1.8"/>
</g>
<!-- nd84 -->
<g id="node13" class="node"><title>nd84</title>
<g id="a_node13"><a xlink:title="nd84&#45;AppGraph">
<path fill="none" stroke="#000000" d="M27.5473,-142.554C27.5473,-142.554 23.6719,-136.946 23.6719,-136.946 22.136,-134.723 22.136,-130.277 23.6719,-128.054 23.6719,-128.054 27.5473,-122.446 27.5473,-122.446 29.0833,-120.223 33.3212,-118.002 36.0231,-118.005 36.0231,-118.005 41.4269,-118.009 41.4269,-118.009 44.1288,-118.011 46.8307,-120.715 46.8307,-123.417 46.8307,-123.417 46.8307,-141.583 46.8307,-141.583 46.8307,-144.285 44.1288,-146.989 41.4269,-146.991 41.4269,-146.991 36.0231,-146.995 36.0231,-146.995 33.3212,-146.998 29.0833,-144.777 27.5473,-142.554"/>
<text text-anchor="middle" x="35.1" y="-128.8" font-family="Times,serif" font-size="14.00">@</text>
</a>
</g>
</g>
<!-- nd1&#45;&gt;nd84 -->
<g id="edge14" class="edge"><title>nd1:e&#45;&gt;nd84:w</title>
<path fill="none" stroke="#b70000" d="M3.6,-132.5C11.1556,-132.5 13.0444,-132.5 20.6,-132.5"/>
</g>
<!-- nd136 -->
<g id="node2" class="node"><title>nd136</title>
<g id="a_node2"><a xlink:title="nd136&#45;RecurGraph">
<ellipse fill="none" stroke="#000000" cx="127.1" cy="-161.5" rx="11" ry="11"/>
<text text-anchor="middle" x="127.1" y="-157.8" font-family="Times,serif" font-size="14.00">rec</text>
</a>
</g>
</g>
<!-- ndcluster_nd140 -->
<g id="node3" class="node"><title>ndcluster_nd140</title>
<g id="a_node3"><a xlink:title="nd140">
<ellipse fill="orange" stroke="orange" cx="179.1" cy="-179.5" rx="1.8" ry="1.8"/>
</a>
</g>
</g>
<!-- nd136&#45;&gt;ndcluster_nd140 -->
<g id="edge16" class="edge"><title>nd136:n&#45;&gt;ndcluster_nd140:e</title>
<path fill="none" stroke="grey" d="M127.1,-173.5C127.1,-224.095 190.08,-179.5 182.1,-179.5"/>
</g>
<!-- nd136&#45;&gt;ndcluster_nd140 -->
<g id="edge17" class="edge"><title>nd136:e&#45;&gt;ndcluster_nd140:w</title>
<path fill="none" stroke="black" d="M139.1,-161.5C157.387,-161.5 157.813,-179.5 176.1,-179.5"/>
</g>
<!-- nd16 -->
<g id="node4" class="node"><title>nd16</title>
<g id="a_node4"><a xlink:title="nd16&#45;ConstGraph">
<path fill="none" stroke="purple" d="M240.867,-122C240.867,-122 250.533,-122 250.533,-122 255.367,-122 260.2,-117.167 260.2,-112.333 260.2,-112.333 260.2,-102.667 260.2,-102.667 260.2,-97.8333 255.367,-93 250.533,-93 250.533,-93 240.867,-93 240.867,-93 236.033,-93 231.2,-97.8333 231.2,-102.667 231.2,-102.667 231.2,-112.333 231.2,-112.333 231.2,-117.167 236.033,-122 240.867,-122"/>
<text text-anchor="middle" x="245.7" y="-103.8" font-family="Times,serif" font-size="14.00">1</text>
</a>
</g>
</g>
<!-- nd22 -->
<g id="node5" class="node"><title>nd22</title>
<g id="a_node5"><a xlink:title="nd22&#45;ConstGraph">
<path fill="none" stroke="purple" d="M332.867,-113C332.867,-113 342.533,-113 342.533,-113 347.367,-113 352.2,-108.167 352.2,-103.333 352.2,-103.333 352.2,-93.6667 352.2,-93.6667 352.2,-88.8333 347.367,-84 342.533,-84 342.533,-84 332.867,-84 332.867,-84 328.033,-84 323.2,-88.8333 323.2,-93.6667 323.2,-93.6667 323.2,-103.333 323.2,-103.333 323.2,-108.167 328.033,-113 332.867,-113"/>
<text text-anchor="middle" x="337.7" y="-94.8" font-family="Times,serif" font-size="14.00">2</text>
</a>
</g>
</g>
<!-- nd28 -->
<g id="node6" class="node"><title>nd28</title>
<g id="a_node6"><a xlink:title="nd28&#45;ConstGraph">
<path fill="none" stroke="purple" d="M378.867,-92C378.867,-92 388.533,-92 388.533,-92 393.367,-92 398.2,-87.1667 398.2,-82.3333 398.2,-82.3333 398.2,-72.6667 398.2,-72.6667 398.2,-67.8333 393.367,-63 388.533,-63 388.533,-63 378.867,-63 378.867,-63 374.033,-63 369.2,-67.8333 369.2,-72.6667 369.2,-72.6667 369.2,-82.3333 369.2,-82.3333 369.2,-87.1667 374.033,-92 378.867,-92"/>
<text text-anchor="middle" x="383.7" y="-73.8" font-family="Times,serif" font-size="14.00">3</text>
</a>
</g>
</g>
<!-- nd34 -->
<g id="node7" class="node"><title>nd34</title>
<g id="a_node7"><a xlink:title="nd34&#45;ConstGraph">
<path fill="none" stroke="purple" d="M424.867,-71C424.867,-71 434.533,-71 434.533,-71 439.367,-71 444.2,-66.1667 444.2,-61.3333 444.2,-61.3333 444.2,-51.6667 444.2,-51.6667 444.2,-46.8333 439.367,-42 434.533,-42 434.533,-42 424.867,-42 424.867,-42 420.033,-42 415.2,-46.8333 415.2,-51.6667 415.2,-51.6667 415.2,-61.3333 415.2,-61.3333 415.2,-66.1667 420.033,-71 424.867,-71"/>
<text text-anchor="middle" x="429.7" y="-52.8" font-family="Times,serif" font-size="14.00">4</text>
</a>
</g>
</g>
<!-- nd39 -->
<g id="node8" class="node"><title>nd39</title>
<g id="a_node8"><a xlink:title="nd39&#45;ConstEmptyGraph">
<path fill="none" stroke="purple" d="M424.867,-29C424.867,-29 434.533,-29 434.533,-29 439.367,-29 444.2,-24.1667 444.2,-19.3333 444.2,-19.3333 444.2,-9.66667 444.2,-9.66667 444.2,-4.83333 439.367,-1.77636e-15 434.533,-1.77636e-15 434.533,-1.77636e-15 424.867,-1.77636e-15 424.867,-1.77636e-15 420.033,-1.77636e-15 415.2,-4.83333 415.2,-9.66667 415.2,-9.66667 415.2,-19.3333 415.2,-19.3333 415.2,-24.1667 420.033,-29 424.867,-29"/>
<text text-anchor="middle" x="429.7" y="-10.8" font-family="Times,serif" font-size="14.00">[]</text>
</a>
</g>
</g>
<!-- nd182 -->
<g id="node9" class="node"><title>nd182</title>
<g id="a_node9"><a xlink:title="nd182&#45;ConstListGraph">
<path fill="none" stroke="purple" d="M378.867,-50C378.867,-50 388.533,-50 388.533,-50 393.367,-50 398.2,-45.1667 398.2,-40.3333 398.2,-40.3333 398.2,-30.6667 398.2,-30.6667 398.2,-25.8333 393.367,-21 388.533,-21 388.533,-21 378.867,-21 378.867,-21 374.033,-21 369.2,-25.8333 369.2,-30.6667 369.2,-30.6667 369.2,-40.3333 369.2,-40.3333 369.2,-45.1667 374.033,-50 378.867,-50"/>
<text text-anchor="middle" x="383.7" y="-31.8" font-family="Times,serif" font-size="14.00">::</text>
</a>
</g>
</g>
<!-- nd182&#45;&gt;nd34 -->
<g id="edge1" class="edge"><title>nd182:n&#45;&gt;nd34:w</title>
<path fill="none" stroke="purple" d="M383.7,-51.5C383.7,-55.0438 411.656,-56.5 415.2,-56.5"/>
</g>
<!-- nd182&#45;&gt;nd39 -->
<g id="edge2" class="edge"><title>nd182:s&#45;&gt;nd39:w</title>
<path fill="none" stroke="purple" d="M383.7,-19.5C383.7,-5.32473 401.025,-14.5 415.2,-14.5"/>
</g>
<!-- nd188 -->
<g id="node10" class="node"><title>nd188</title>
<g id="a_node10"><a xlink:title="nd188&#45;ConstListGraph">
<path fill="none" stroke="purple" d="M332.867,-71C332.867,-71 342.533,-71 342.533,-71 347.367,-71 352.2,-66.1667 352.2,-61.3333 352.2,-61.3333 352.2,-51.6667 352.2,-51.6667 352.2,-46.8333 347.367,-42 342.533,-42 342.533,-42 332.867,-42 332.867,-42 328.033,-42 323.2,-46.8333 323.2,-51.6667 323.2,-51.6667 323.2,-61.3333 323.2,-61.3333 323.2,-66.1667 328.033,-71 332.867,-71"/>
<text text-anchor="middle" x="337.7" y="-52.8" font-family="Times,serif" font-size="14.00">::</text>
</a>
</g>
</g>
<!-- nd188&#45;&gt;nd28 -->
<g id="edge3" class="edge"><title>nd188:n&#45;&gt;nd28:w</title>
<path fill="none" stroke="purple" d="M337.7,-72.5C337.7,-76.0438 365.656,-77.5 369.2,-77.5"/>
</g>
<!-- nd188&#45;&gt;nd182 -->
<g id="edge4" class="edge"><title>nd188:s&#45;&gt;nd182:w</title>
<path fill="none" stroke="purple" d="M337.7,-40.5C337.7,-26.3247 355.025,-35.5 369.2,-35.5"/>
</g>
<!-- nd194 -->
<g id="node11" class="node"><title>nd194</title>
<g id="a_node11"><a xlink:title="nd194&#45;ConstListGraph">
<path fill="none" stroke="purple" d="M286.867,-92C286.867,-92 296.533,-92 296.533,-92 301.367,-92 306.2,-87.1667 306.2,-82.3333 306.2,-82.3333 306.2,-72.6667 306.2,-72.6667 306.2,-67.8333 301.367,-63 296.533,-63 296.533,-63 286.867,-63 286.867,-63 282.033,-63 277.2,-67.8333 277.2,-72.6667 277.2,-72.6667 277.2,-82.3333 277.2,-82.3333 277.2,-87.1667 282.033,-92 286.867,-92"/>
<text text-anchor="middle" x="291.7" y="-73.8" font-family="Times,serif" font-size="14.00">::</text>
</a>
</g>
</g>
<!-- nd194&#45;&gt;nd22 -->
<g id="edge5" class="edge"><title>nd194:n&#45;&gt;nd22:w</title>
<path fill="none" stroke="purple" d="M291.7,-93.5C291.7,-107.675 309.025,-98.5 323.2,-98.5"/>
</g>
<!-- nd194&#45;&gt;nd188 -->
<g id="edge6" class="edge"><title>nd194:s&#45;&gt;nd188:w</title>
<path fill="none" stroke="purple" d="M291.7,-61.5C291.7,-47.3247 309.025,-56.5 323.2,-56.5"/>
</g>
<!-- nd200 -->
<g id="node12" class="node"><title>nd200</title>
<g id="a_node12"><a xlink:title="nd200&#45;ConstListGraph">
<path fill="none" stroke="purple" d="M174.267,-107C174.267,-107 183.933,-107 183.933,-107 188.767,-107 193.6,-102.167 193.6,-97.3333 193.6,-97.3333 193.6,-87.6667 193.6,-87.6667 193.6,-82.8333 188.767,-78 183.933,-78 183.933,-78 174.267,-78 174.267,-78 169.433,-78 164.6,-82.8333 164.6,-87.6667 164.6,-87.6667 164.6,-97.3333 164.6,-97.3333 164.6,-102.167 169.433,-107 174.267,-107"/>
<text text-anchor="middle" x="179.1" y="-88.8" font-family="Times,serif" font-size="14.00">::</text>
</a>
</g>
</g>
<!-- nd222 -->
<g id="node18" class="node"><title>nd222</title>
<g id="a_node18"><a xlink:title="nd222&#45;ContractGraph">
<ellipse fill="black" stroke="black" cx="212.4" cy="-107.5" rx="1.8" ry="1.8"/>
</a>
</g>
</g>
<!-- nd200&#45;&gt;nd222 -->
<g id="edge7" class="edge"><title>nd200:n&#45;&gt;nd222:w</title>
<path fill="none" stroke="black" d="M179.1,-108.5C179.1,-115.504 203.596,-107.5 210.6,-107.5"/>
</g>
<!-- nd223 -->
<g id="node19" class="node"><title>nd223</title>
<g id="a_node19"><a xlink:title="nd223&#45;ContractGraph">
<ellipse fill="black" stroke="black" cx="212.4" cy="-77.5" rx="1.8" ry="1.8"/>
</a>
</g>
</g>
<!-- nd200&#45;&gt;nd223 -->
<g id="edge8" class="edge"><title>nd200:s&#45;&gt;nd223:w</title>
<path fill="none" stroke="black" d="M179.1,-76.5C179.1,-62.4929 196.593,-77.5 210.6,-77.5"/>
</g>
<!-- nd85 -->
<g id="node14" class="node"><title>nd85</title>
<g id="a_node14"><a xlink:title="nd85&#45;AppGraph">
<path fill="none" stroke="#000000" d="M73.5473,-162.554C73.5473,-162.554 69.6719,-156.946 69.6719,-156.946 68.136,-154.723 68.136,-150.277 69.6719,-148.054 69.6719,-148.054 73.5473,-142.446 73.5473,-142.446 75.0833,-140.223 79.3212,-138.002 82.0231,-138.005 82.0231,-138.005 87.4269,-138.009 87.4269,-138.009 90.1288,-138.011 92.8307,-140.715 92.8307,-143.417 92.8307,-143.417 92.8307,-161.583 92.8307,-161.583 92.8307,-164.285 90.1288,-166.989 87.4269,-166.991 87.4269,-166.991 82.0231,-166.995 82.0231,-166.995 79.3212,-166.998 75.0833,-164.777 73.5473,-162.554"/>
<text text-anchor="middle" x="81.1" y="-148.8" font-family="Times,serif" font-size="14.00">@</text>
</a>
</g>
</g>
<!-- nd84&#45;&gt;nd85 -->
<g id="edge12" class="edge"><title>nd84:e&#45;&gt;nd85:w</title>
<path fill="none" stroke="#b70000" d="M48.1,-132.5C60.2086,-132.5 54.4914,-152.5 66.6,-152.5"/>
</g>
<!-- nd232 -->
<g id="node20" class="node"><title>nd232</title>
<g id="a_node20"><a xlink:title="nd232&#45;ConstGraph">
<path fill="none" stroke="purple" d="M76.2667,-125C76.2667,-125 85.9333,-125 85.9333,-125 90.7667,-125 95.6,-120.167 95.6,-115.333 95.6,-115.333 95.6,-105.667 95.6,-105.667 95.6,-100.833 90.7667,-96 85.9333,-96 85.9333,-96 76.2667,-96 76.2667,-96 71.4333,-96 66.6,-100.833 66.6,-105.667 66.6,-105.667 66.6,-115.333 66.6,-115.333 66.6,-120.167 71.4333,-125 76.2667,-125"/>
<text text-anchor="middle" x="81.1" y="-106.8" font-family="Times,serif" font-size="14.00">1</text>
</a>
</g>
</g>
<!-- nd84&#45;&gt;nd232 -->
<g id="edge13" class="edge"><title>nd84:s&#45;&gt;nd232:w</title>
<path fill="none" stroke="black" d="M35.1,-116.5C35.1,-102.248 52.3483,-110.5 66.6,-110.5"/>
</g>
<!-- nd85&#45;&gt;nd136 -->
<g id="edge10" class="edge"><title>nd85:e&#45;&gt;nd136:w</title>
<path fill="none" stroke="black" d="M94.1,-152.5C104.254,-152.5 104.946,-161.5 115.1,-161.5"/>
</g>
<!-- nd89 -->
<g id="node15" class="node"><title>nd89</title>
<g id="a_node15"><a xlink:title="nd89&#45;AppGraph">
<path fill="none" stroke="#000000" d="M119.547,-132.554C119.547,-132.554 115.672,-126.946 115.672,-126.946 114.136,-124.723 114.136,-120.277 115.672,-118.054 115.672,-118.054 119.547,-112.446 119.547,-112.446 121.083,-110.223 125.321,-108.002 128.023,-108.005 128.023,-108.005 133.427,-108.009 133.427,-108.009 136.129,-108.011 138.831,-110.715 138.831,-113.417 138.831,-113.417 138.831,-131.583 138.831,-131.583 138.831,-134.285 136.129,-136.989 133.427,-136.991 133.427,-136.991 128.023,-136.995 128.023,-136.995 125.321,-136.998 121.083,-134.777 119.547,-132.554"/>
<text text-anchor="middle" x="127.1" y="-118.8" font-family="Times,serif" font-size="14.00">@</text>
</a>
</g>
</g>
<!-- nd85&#45;&gt;nd89 -->
<g id="edge11" class="edge"><title>nd85:s&#45;&gt;nd89:w</title>
<path fill="none" stroke="#b70000" d="M81.1,-136.5C81.1,-129.683 89.3467,-134.214 95.6,-131.5 103.442,-128.096 104.051,-122.5 112.6,-122.5"/>
</g>
<!-- nd89&#45;&gt;nd200 -->
<g id="edge15" class="edge"><title>nd89:s&#45;&gt;nd200:w</title>
<path fill="none" stroke="red" d="M127.1,-106.5C127.1,-92.0454 140.111,-91.8373 154.533,-92.2675"/>
<polygon fill="red" stroke="red" points="154.522,-95.7681 164.6,-92.5 154.684,-88.7699 154.522,-95.7681"/>
<text text-anchor="middle" x="153.1" y="-95.3" font-family="Times,serif" font-size="14.00">x</text>
</g>
<!-- ndcluster_nd91 -->
<g id="node16" class="node"><title>ndcluster_nd91</title>
<g id="a_node16"><a xlink:title="nd91">
<ellipse fill="orange" stroke="orange" cx="179.1" cy="-125.5" rx="1.8" ry="1.8"/>
</a>
</g>
</g>
<!-- nd89&#45;&gt;ndcluster_nd91 -->
<g id="edge9" class="edge"><title>nd89:e&#45;&gt;ndcluster_nd91:w</title>
<path fill="none" stroke="black" d="M140.1,-122.5C156.155,-122.5 160.045,-125.5 176.1,-125.5"/>
</g>
<!-- nd210 -->
<g id="node17" class="node"><title>nd210</title>
<g id="a_node17"><a xlink:title="nd210&#45;ContractGraph">
<ellipse fill="black" stroke="black" cx="245.7" cy="-77.5" rx="1.8" ry="1.8"/>
</a>
</g>
</g>
<!-- nd210&#45;&gt;nd194 -->
<g id="edge19" class="edge"><title>nd210:e&#45;&gt;nd194:w</title>
<path fill="none" stroke="black" d="M248.7,-77.5C261.367,-77.5 264.533,-77.5 277.2,-77.5"/>
</g>
<!-- nd222&#45;&gt;nd16 -->
<g id="edge18" class="edge"><title>nd222:e&#45;&gt;nd16:w</title>
<path fill="none" stroke="black" d="M214.2,-107.5C221.756,-107.5 223.644,-107.5 231.2,-107.5"/>
</g>
<!-- nd223&#45;&gt;nd210 -->
<g id="edge20" class="edge"><title>nd223:e&#45;&gt;nd210:w</title>
<path fill="none" stroke="black" d="M214.2,-77.5C226.867,-77.5 230.033,-77.5 242.7,-77.5"/>
</g>
</g>
</svg>
