<?xml version="1.0" encoding="UTF-8" standalone="no"?>
<!DOCTYPE svg PUBLIC "-//W3C//DTD SVG 1.1//EN"
 "http://www.w3.org/Graphics/SVG/1.1/DTD/svg11.dtd">
<!-- Generated by graphviz version 2.38.0 (20140413.2041)
 -->
<!-- Title: G Pages: 1 -->
<svg width="504pt" height="247pt"
 viewBox="0.00 0.00 503.80 247.45" xmlns="http://www.w3.org/2000/svg" xmlns:xlink="http://www.w3.org/1999/xlink">
<g id="graph0" class="graph" transform="scale(1 1) rotate(0) translate(4 243.453)">
<title>G</title>
<polygon fill="white" stroke="none" points="-4,4 -4,-243.453 499.8,-243.453 499.8,4 -4,4"/>
<g id="clust1" class="cluster"><title>cluster_nd318</title>
<polygon fill="none" stroke="orange" points="286.3,-210.5 286.3,-230.5 305.9,-230.5 305.9,-210.5 286.3,-210.5"/>
</g>
<g id="clust2" class="cluster"><title>cluster_nd261</title>
<polygon fill="none" stroke="orange" points="284.3,-113.5 284.3,-156.5 307.9,-156.5 307.9,-113.5 284.3,-113.5"/>
<text text-anchor="middle" x="296.1" y="-141.3" font-family="Times,serif" font-size="14.00">tl</text>
</g>
<g id="clust3" class="cluster"><title>cluster_nd270</title>
<polygon fill="none" stroke="orange" points="281.3,-62.5 281.3,-105.5 310.9,-105.5 310.9,-62.5 281.3,-62.5"/>
<text text-anchor="middle" x="296.1" y="-90.3" font-family="Times,serif" font-size="14.00">hd</text>
</g>
<!-- nd1 -->
<g id="node1" class="node"><title>nd1</title>
<ellipse fill="black" stroke="black" cx="1.8" cy="-174.5" rx="1.8" ry="1.8"/>
</g>
<!-- nd247 -->
<g id="node10" class="node"><title>nd247</title>
<g id="a_node10"><a xlink:title="nd247&#45;IfGraph">
<ellipse fill="none" stroke="#000000" cx="35.1" cy="-174.5" rx="14.5" ry="14.5"/>
<text text-anchor="middle" x="35.1" y="-170.8" font-family="Times,serif" font-size="14.00">if</text>
</a>
</g>
</g>
<!-- nd1&#45;&gt;nd247 -->
<g id="edge21" class="edge"><title>nd1:e&#45;&gt;nd247:w</title>
<path fill="none" stroke="#b70000" d="M3.6,-174.5C11.1556,-174.5 13.0444,-174.5 20.6,-174.5"/>
</g>
<!-- nd28 -->
<g id="node2" class="node"><title>nd28</title>
<g id="a_node2"><a xlink:title="nd28&#45;ConstGraph">
<path fill="none" stroke="purple" d="M430.467,-92C430.467,-92 440.133,-92 440.133,-92 444.967,-92 449.8,-87.1667 449.8,-82.3333 449.8,-82.3333 449.8,-72.6667 449.8,-72.6667 449.8,-67.8333 444.967,-63 440.133,-63 440.133,-63 430.467,-63 430.467,-63 425.633,-63 420.8,-67.8333 420.8,-72.6667 420.8,-72.6667 420.8,-82.3333 420.8,-82.3333 420.8,-87.1667 425.633,-92 430.467,-92"/>
<text text-anchor="middle" x="435.3" y="-73.8" font-family="Times,serif" font-size="14.00">3</text>
</a>
</g>
</g>
<!-- nd34 -->
<g id="node3" class="node"><title>nd34</title>
<g id="a_node3"><a xlink:title="nd34&#45;ConstGraph">
<path fill="none" stroke="purple" d="M476.467,-71C476.467,-71 486.133,-71 486.133,-71 490.967,-71 495.8,-66.1667 495.8,-61.3333 495.8,-61.3333 495.8,-51.6667 495.8,-51.6667 495.8,-46.8333 490.967,-42 486.133,-42 486.133,-42 476.467,-42 476.467,-42 471.633,-42 466.8,-46.8333 466.8,-51.6667 466.8,-51.6667 466.8,-61.3333 466.8,-61.3333 466.8,-66.1667 471.633,-71 476.467,-71"/>
<text text-anchor="middle" x="481.3" y="-52.8" font-family="Times,serif" font-size="14.00">4</text>
</a>
</g>
</g>
<!-- nd39 -->
<g id="node4" class="node"><title>nd39</title>
<g id="a_node4"><a xlink:title="nd39&#45;ConstEmptyGraph">
<path fill="none" stroke="purple" d="M476.467,-29C476.467,-29 486.133,-29 486.133,-29 490.967,-29 495.8,-24.1667 495.8,-19.3333 495.8,-19.3333 495.8,-9.66667 495.8,-9.66667 495.8,-4.83333 490.967,-1.77636e-15 486.133,-1.77636e-15 486.133,-1.77636e-15 476.467,-1.77636e-15 476.467,-1.77636e-15 471.633,-1.77636e-15 466.8,-4.83333 466.8,-9.66667 466.8,-9.66667 466.8,-19.3333 466.8,-19.3333 466.8,-24.1667 471.633,-29 476.467,-29"/>
<text text-anchor="middle" x="481.3" y="-10.8" font-family="Times,serif" font-size="14.00">[]</text>
</a>
</g>
</g>
<!-- nd182 -->
<g id="node5" class="node"><title>nd182</title>
<g id="a_node5"><a xlink:title="nd182&#45;ConstListGraph">
<path fill="none" stroke="purple" d="M430.467,-50C430.467,-50 440.133,-50 440.133,-50 444.967,-50 449.8,-45.1667 449.8,-40.3333 449.8,-40.3333 449.8,-30.6667 449.8,-30.6667 449.8,-25.8333 444.967,-21 440.133,-21 440.133,-21 430.467,-21 430.467,-21 425.633,-21 420.8,-25.8333 420.8,-30.6667 420.8,-30.6667 420.8,-40.3333 420.8,-40.3333 420.8,-45.1667 425.633,-50 430.467,-50"/>
<text text-anchor="middle" x="435.3" y="-31.8" font-family="Times,serif" font-size="14.00">::</text>
</a>
</g>
</g>
<!-- nd182&#45;&gt;nd34 -->
<g id="edge1" class="edge"><title>nd182:n&#45;&gt;nd34:w</title>
<path fill="none" stroke="purple" d="M435.3,-51.5C435.3,-55.0438 463.256,-56.5 466.8,-56.5"/>
</g>
<!-- nd182&#45;&gt;nd39 -->
<g id="edge2" class="edge"><title>nd182:s&#45;&gt;nd39:w</title>
<path fill="none" stroke="purple" d="M435.3,-19.5C435.3,-5.32473 452.625,-14.5 466.8,-14.5"/>
</g>
<!-- nd188 -->
<g id="node6" class="node"><title>nd188</title>
<g id="a_node6"><a xlink:title="nd188&#45;ConstListGraph">
<path fill="none" stroke="purple" d="M363.867,-67C363.867,-67 373.533,-67 373.533,-67 378.367,-67 383.2,-62.1667 383.2,-57.3333 383.2,-57.3333 383.2,-47.6667 383.2,-47.6667 383.2,-42.8333 378.367,-38 373.533,-38 373.533,-38 363.867,-38 363.867,-38 359.033,-38 354.2,-42.8333 354.2,-47.6667 354.2,-47.6667 354.2,-57.3333 354.2,-57.3333 354.2,-62.1667 359.033,-67 363.867,-67"/>
<text text-anchor="middle" x="368.7" y="-48.8" font-family="Times,serif" font-size="14.00">::</text>
</a>
</g>
</g>
<!-- nd363 -->
<g id="node21" class="node"><title>nd363</title>
<g id="a_node21"><a xlink:title="nd363&#45;ContractGraph">
<ellipse fill="black" stroke="black" cx="402" cy="-71.5" rx="1.8" ry="1.8"/>
</a>
</g>
</g>
<!-- nd188&#45;&gt;nd363 -->
<g id="edge3" class="edge"><title>nd188:n&#45;&gt;nd363:w</title>
<path fill="none" stroke="black" d="M368.7,-68.5C368.7,-82.5633 386.137,-71.5 400.2,-71.5"/>
</g>
<!-- nd364 -->
<g id="node22" class="node"><title>nd364</title>
<g id="a_node22"><a xlink:title="nd364&#45;ContractGraph">
<ellipse fill="black" stroke="black" cx="402" cy="-35.5" rx="1.8" ry="1.8"/>
</a>
</g>
</g>
<!-- nd188&#45;&gt;nd364 -->
<g id="edge4" class="edge"><title>nd188:s&#45;&gt;nd364:w</title>
<path fill="none" stroke="black" d="M368.7,-36.5C368.7,-22.4929 386.193,-35.5 400.2,-35.5"/>
</g>
<!-- nd309 -->
<g id="node7" class="node"><title>nd309</title>
<g id="a_node7"><a xlink:title="nd309&#45;ConstGraph">
<path fill="none" stroke="purple" d="M291.267,-194C291.267,-194 300.933,-194 300.933,-194 305.767,-194 310.6,-189.167 310.6,-184.333 310.6,-184.333 310.6,-174.667 310.6,-174.667 310.6,-169.833 305.767,-165 300.933,-165 300.933,-165 291.267,-165 291.267,-165 286.433,-165 281.6,-169.833 281.6,-174.667 281.6,-174.667 281.6,-184.333 281.6,-184.333 281.6,-189.167 286.433,-194 291.267,-194"/>
<text text-anchor="middle" x="296.1" y="-175.8" font-family="Times,serif" font-size="14.00">3</text>
</a>
</g>
</g>
<!-- nd314 -->
<g id="node8" class="node"><title>nd314</title>
<g id="a_node8"><a xlink:title="nd314&#45;RecurGraph">
<ellipse fill="none" stroke="#000000" cx="244.1" cy="-204.5" rx="11" ry="11"/>
<text text-anchor="middle" x="244.1" y="-200.8" font-family="Times,serif" font-size="14.00">rec</text>
</a>
</g>
</g>
<!-- ndcluster_nd318 -->
<g id="node9" class="node"><title>ndcluster_nd318</title>
<g id="a_node9"><a xlink:title="nd318">
<ellipse fill="orange" stroke="orange" cx="296.1" cy="-220.5" rx="1.8" ry="1.8"/>
</a>
</g>
</g>
<!-- nd314&#45;&gt;ndcluster_nd318 -->
<g id="edge24" class="edge"><title>nd314:n&#45;&gt;ndcluster_nd318:e</title>
<path fill="none" stroke="grey" d="M244.1,-216.5C244.1,-265.299 307.013,-220.5 299.1,-220.5"/>
</g>
<!-- nd314&#45;&gt;ndcluster_nd318 -->
<g id="edge25" class="edge"><title>nd314:e&#45;&gt;ndcluster_nd318:w</title>
<path fill="none" stroke="black" d="M256.1,-204.5C274.016,-204.5 275.184,-220.5 293.1,-220.5"/>
</g>
<!-- nd255 -->
<g id="node11" class="node"><title>nd255</title>
<g id="a_node11"><a xlink:title="nd255&#45;AppGraph">
<path fill="none" stroke="#000000" d="M111.547,-149.554C111.547,-149.554 107.672,-143.946 107.672,-143.946 106.136,-141.723 106.136,-137.277 107.672,-135.054 107.672,-135.054 111.547,-129.446 111.547,-129.446 113.083,-127.223 117.321,-125.002 120.023,-125.005 120.023,-125.005 125.427,-125.009 125.427,-125.009 128.129,-125.011 130.831,-127.715 130.831,-130.417 130.831,-130.417 130.831,-148.583 130.831,-148.583 130.831,-151.285 128.129,-153.989 125.427,-153.991 125.427,-153.991 120.023,-153.995 120.023,-153.995 117.321,-153.998 113.083,-151.777 111.547,-149.554"/>
<text text-anchor="middle" x="119.1" y="-135.8" font-family="Times,serif" font-size="14.00">@</text>
</a>
</g>
</g>
<!-- nd247&#45;&gt;nd255 -->
<g id="edge17" class="edge"><title>nd247:s&#45;&gt;nd255:w</title>
<path fill="none" stroke="grey" d="M35.1,-158.5C35.1,-146.423 78.9954,-139.5 104.6,-139.5"/>
<text text-anchor="middle" x="77.1" y="-148.3" font-family="Times,serif" font-size="14.00">is false</text>
</g>
<!-- nd275 -->
<g id="node19" class="node"><title>nd275</title>
<g id="a_node19"><a xlink:title="nd275&#45;ContractGraph">
<ellipse fill="black" stroke="black" cx="244.1" cy="-174.5" rx="1.8" ry="1.8"/>
</a>
</g>
</g>
<!-- nd247&#45;&gt;nd275 -->
<g id="edge19" class="edge"><title>nd247:e&#45;&gt;nd275:w</title>
<path fill="none" stroke="grey" d="M49.6,-174.5C134.711,-174.5 155.989,-174.5 241.1,-174.5"/>
<text text-anchor="middle" x="158.6" y="-178.3" font-family="Times,serif" font-size="14.00">is true</text>
</g>
<!-- nd368 -->
<g id="node23" class="node"><title>nd368</title>
<g id="a_node23"><a xlink:title="nd368&#45;ConstGraph">
<path fill="none" stroke="purple" d="M114.267,-224C114.267,-224 123.933,-224 123.933,-224 128.767,-224 133.6,-219.167 133.6,-214.333 133.6,-214.333 133.6,-204.667 133.6,-204.667 133.6,-199.833 128.767,-195 123.933,-195 123.933,-195 114.267,-195 114.267,-195 109.433,-195 104.6,-199.833 104.6,-204.667 104.6,-204.667 104.6,-214.333 104.6,-214.333 104.6,-219.167 109.433,-224 114.267,-224"/>
<text text-anchor="middle" x="119.1" y="-205.8" font-family="Times,serif" font-size="14.00">false</text>
</a>
</g>
</g>
<!-- nd247&#45;&gt;nd368 -->
<g id="edge7" class="edge"><title>nd247:n&#45;&gt;nd368:w</title>
<path fill="none" stroke="red" d="M36.7729,-200.51C44.3842,-219.47 76.5804,-209.5 104.6,-209.5"/>
<polygon fill="red" stroke="red" points="40.2005,-199.786 35.1,-190.5 33.2963,-200.94 40.2005,-199.786"/>
</g>
<!-- nd256 -->
<g id="node12" class="node"><title>nd256</title>
<g id="a_node12"><a xlink:title="nd256&#45;AppGraph">
<path fill="none" stroke="#000000" d="M190.547,-149.554C190.547,-149.554 186.672,-143.946 186.672,-143.946 185.136,-141.723 185.136,-137.277 186.672,-135.054 186.672,-135.054 190.547,-129.446 190.547,-129.446 192.083,-127.223 196.321,-125.002 199.023,-125.005 199.023,-125.005 204.427,-125.009 204.427,-125.009 207.129,-125.011 209.831,-127.715 209.831,-130.417 209.831,-130.417 209.831,-148.583 209.831,-148.583 209.831,-151.285 207.129,-153.989 204.427,-153.991 204.427,-153.991 199.023,-153.995 199.023,-153.995 196.321,-153.998 192.083,-151.777 190.547,-149.554"/>
<text text-anchor="middle" x="198.1" y="-135.8" font-family="Times,serif" font-size="14.00">@</text>
</a>
</g>
</g>
<!-- nd255&#45;&gt;nd256 -->
<g id="edge13" class="edge"><title>nd255:e&#45;&gt;nd256:w</title>
<path fill="none" stroke="black" d="M132.1,-139.5C154.989,-139.5 160.711,-139.5 183.6,-139.5"/>
</g>
<!-- nd266 -->
<g id="node15" class="node"><title>nd266</title>
<g id="a_node15"><a xlink:title="nd266&#45;BinOpGraph">
<ellipse fill="none" stroke="#000000" cx="198.1" cy="-90.5" rx="14.5" ry="14.5"/>
<text text-anchor="middle" x="198.1" y="-86.8" font-family="Times,serif" font-size="14.00">+</text>
</a>
</g>
</g>
<!-- nd255&#45;&gt;nd266 -->
<g id="edge14" class="edge"><title>nd255:s&#45;&gt;nd266:w</title>
<path fill="none" stroke="black" d="M119.1,-123.5C119.1,-91.2992 151.399,-90.5 183.6,-90.5"/>
</g>
<!-- nd256&#45;&gt;nd314 -->
<g id="edge9" class="edge"><title>nd256:e&#45;&gt;nd314:w</title>
<path fill="none" stroke="black" d="M211.1,-139.5C241.459,-139.5 201.741,-204.5 232.1,-204.5"/>
</g>
<!-- nd258 -->
<g id="node13" class="node"><title>nd258</title>
<g id="a_node13"><a xlink:title="nd258&#45;AppGraph">
<path fill="none" stroke="#000000" d="M236.547,-133.554C236.547,-133.554 232.672,-127.946 232.672,-127.946 231.136,-125.723 231.136,-121.277 232.672,-119.054 232.672,-119.054 236.547,-113.446 236.547,-113.446 238.083,-111.223 242.321,-109.002 245.023,-109.005 245.023,-109.005 250.427,-109.009 250.427,-109.009 253.129,-109.011 255.831,-111.715 255.831,-114.417 255.831,-114.417 255.831,-132.583 255.831,-132.583 255.831,-135.285 253.129,-137.989 250.427,-137.991 250.427,-137.991 245.023,-137.995 245.023,-137.995 242.321,-137.998 238.083,-135.777 236.547,-133.554"/>
<text text-anchor="middle" x="244.1" y="-119.8" font-family="Times,serif" font-size="14.00">@</text>
</a>
</g>
</g>
<!-- nd256&#45;&gt;nd258 -->
<g id="edge10" class="edge"><title>nd256:s&#45;&gt;nd258:w</title>
<path fill="none" stroke="black" d="M198.1,-123.5C198.1,-109.5 215.6,-123.5 229.6,-123.5"/>
</g>
<!-- ndcluster_nd261 -->
<g id="node14" class="node"><title>ndcluster_nd261</title>
<g id="a_node14"><a xlink:title="nd261">
<ellipse fill="orange" stroke="orange" cx="296.1" cy="-123.5" rx="1.8" ry="1.8"/>
</a>
</g>
</g>
<!-- nd258&#45;&gt;ndcluster_nd261 -->
<g id="edge8" class="edge"><title>nd258:e&#45;&gt;ndcluster_nd261:w</title>
<path fill="none" stroke="black" d="M257.1,-123.5C273.1,-123.5 277.1,-123.5 293.1,-123.5"/>
</g>
<!-- nd274 -->
<g id="node18" class="node"><title>nd274</title>
<g id="a_node18"><a xlink:title="nd274&#45;ContractGraph">
<ellipse fill="black" stroke="black" cx="296.1" cy="-52.5" rx="1.8" ry="1.8"/>
</a>
</g>
</g>
<!-- nd258&#45;&gt;nd274 -->
<g id="edge16" class="edge"><title>nd258:s&#45;&gt;nd274:w</title>
<path fill="none" stroke="black" d="M244.1,-107.5C244.1,-98.5419 252.858,-100.376 258.6,-93.5 273.866,-75.2211 269.285,-52.5 293.1,-52.5"/>
</g>
<!-- nd267 -->
<g id="node16" class="node"><title>nd267</title>
<g id="a_node16"><a xlink:title="nd267&#45;AppGraph">
<path fill="none" stroke="#000000" d="M236.547,-82.5543C236.547,-82.5543 232.672,-76.9457 232.672,-76.9457 231.136,-74.7229 231.136,-70.2771 232.672,-68.0543 232.672,-68.0543 236.547,-62.4457 236.547,-62.4457 238.083,-60.2229 242.321,-58.0023 245.023,-58.0045 245.023,-58.0045 250.427,-58.009 250.427,-58.009 253.129,-58.0113 255.831,-60.7155 255.831,-63.4174 255.831,-63.4174 255.831,-81.5826 255.831,-81.5826 255.831,-84.2845 253.129,-86.9887 250.427,-86.991 250.427,-86.991 245.023,-86.9955 245.023,-86.9955 242.321,-86.9977 238.083,-84.7771 236.547,-82.5543"/>
<text text-anchor="middle" x="244.1" y="-68.8" font-family="Times,serif" font-size="14.00">@</text>
</a>
</g>
</g>
<!-- nd266&#45;&gt;nd267 -->
<g id="edge12" class="edge"><title>nd266:s&#45;&gt;nd267:w</title>
<path fill="none" stroke="black" d="M198.1,-74.5C198.1,-60.4718 215.572,-72.5 229.6,-72.5"/>
</g>
<!-- nd266&#45;&gt;nd275 -->
<g id="edge18" class="edge"><title>nd266:n&#45;&gt;nd275:w</title>
<path fill="none" stroke="black" d="M198.1,-106.5C198.1,-114.865 207.372,-111.97 212.6,-118.5 221.327,-129.4 227.137,-174.5 241.1,-174.5"/>
</g>
<!-- ndcluster_nd270 -->
<g id="node17" class="node"><title>ndcluster_nd270</title>
<g id="a_node17"><a xlink:title="nd270">
<ellipse fill="orange" stroke="orange" cx="296.1" cy="-72.5" rx="1.8" ry="1.8"/>
</a>
</g>
</g>
<!-- nd267&#45;&gt;ndcluster_nd270 -->
<g id="edge11" class="edge"><title>nd267:e&#45;&gt;ndcluster_nd270:w</title>
<path fill="none" stroke="black" d="M257.1,-72.5C273.1,-72.5 277.1,-72.5 293.1,-72.5"/>
</g>
<!-- nd267&#45;&gt;nd274 -->
<g id="edge15" class="edge"><title>nd267:s&#45;&gt;nd274:w</title>
<path fill="none" stroke="black" d="M244.1,-56.5C244.1,-34.6498 271.25,-52.5 293.1,-52.5"/>
</g>
<!-- nd276 -->
<g id="node20" class="node"><title>nd276</title>
<g id="a_node20"><a xlink:title="nd276&#45;ContractGraph">
<ellipse fill="black" stroke="black" cx="329.4" cy="-52.5" rx="1.8" ry="1.8"/>
</a>
</g>
</g>
<!-- nd274&#45;&gt;nd276 -->
<g id="edge20" class="edge"><title>nd274:e&#45;&gt;nd276:w</title>
<path fill="none" stroke="black" d="M299.1,-52.5C311.767,-52.5 314.933,-52.5 327.6,-52.5"/>
</g>
<!-- nd275&#45;&gt;nd309 -->
<g id="edge22" class="edge"><title>nd275:e&#45;&gt;nd309:w</title>
<path fill="none" stroke="black" d="M247.1,-174.5C262.462,-174.5 265.938,-179.5 281.3,-179.5"/>
<text text-anchor="middle" x="270.1" y="-182.3" font-family="Times,serif" font-size="14.00">y</text>
</g>
<!-- nd276&#45;&gt;nd188 -->
<g id="edge23" class="edge"><title>nd276:e&#45;&gt;nd188:w</title>
<path fill="none" stroke="black" d="M331.2,-52.5C341.422,-52.5 343.978,-52.5 354.2,-52.5"/>
<text text-anchor="middle" x="342.7" y="-56.3" font-family="Times,serif" font-size="14.00">x</text>
</g>
<!-- nd363&#45;&gt;nd28 -->
<g id="edge5" class="edge"><title>nd363:e&#45;&gt;nd28:w</title>
<path fill="none" stroke="black" d="M403.8,-71.5C411.812,-71.5 412.788,-77.5 420.8,-77.5"/>
</g>
<!-- nd364&#45;&gt;nd182 -->
<g id="edge6" class="edge"><title>nd364:e&#45;&gt;nd182:w</title>
<path fill="none" stroke="black" d="M403.8,-35.5C411.356,-35.5 413.244,-35.5 420.8,-35.5"/>
</g>
</g>
</svg>
