<?xml version="1.0" encoding="UTF-8" standalone="no"?>
<!DOCTYPE svg PUBLIC "-//W3C//DTD SVG 1.1//EN"
 "http://www.w3.org/Graphics/SVG/1.1/DTD/svg11.dtd">
<!-- Generated by graphviz version 2.38.0 (20140413.2041)
 -->
<!-- Title: G Pages: 1 -->
<svg width="596pt" height="289pt"
 viewBox="0.00 0.00 595.80 289.45" xmlns="http://www.w3.org/2000/svg" xmlns:xlink="http://www.w3.org/1999/xlink">
<g id="graph0" class="graph" transform="scale(1 1) rotate(0) translate(4 285.453)">
<title>G</title>
<polygon fill="white" stroke="none" points="-4,4 -4,-285.453 591.8,-285.453 591.8,4 -4,4"/>
<g id="clust1" class="cluster"><title>cluster_nd140</title>
<polygon fill="none" stroke="orange" points="286.3,-252.5 286.3,-272.5 305.9,-272.5 305.9,-252.5 286.3,-252.5"/>
</g>
<g id="clust2" class="cluster"><title>cluster_nd91</title>
<polygon fill="none" stroke="orange" points="284.3,-155.5 284.3,-198.5 307.9,-198.5 307.9,-155.5 284.3,-155.5"/>
<text text-anchor="middle" x="296.1" y="-183.3" font-family="Times,serif" font-size="14.00">tl</text>
</g>
<g id="clust3" class="cluster"><title>cluster_nd110</title>
<polygon fill="none" stroke="orange" points="281.3,-104.5 281.3,-147.5 310.9,-147.5 310.9,-104.5 281.3,-104.5"/>
<text text-anchor="middle" x="296.1" y="-132.3" font-family="Times,serif" font-size="14.00">hd</text>
</g>
<!-- nd1 -->
<g id="node1" class="node"><title>nd1</title>
<ellipse fill="black" stroke="black" cx="1.8" cy="-216.5" rx="1.8" ry="1.8"/>
</g>
<!-- nd67 -->
<g id="node14" class="node"><title>nd67</title>
<g id="a_node14"><a xlink:title="nd67&#45;IfGraph">
<ellipse fill="none" stroke="#000000" cx="35.1" cy="-216.5" rx="14.5" ry="14.5"/>
<text text-anchor="middle" x="35.1" y="-212.8" font-family="Times,serif" font-size="14.00">if</text>
</a>
</g>
</g>
<!-- nd1&#45;&gt;nd67 -->
<g id="edge23" class="edge"><title>nd1:e&#45;&gt;nd67:w</title>
<path fill="none" stroke="#b70000" d="M3.6,-216.5C11.1556,-216.5 13.0444,-216.5 20.6,-216.5"/>
</g>
<!-- nd136 -->
<g id="node2" class="node"><title>nd136</title>
<g id="a_node2"><a xlink:title="nd136&#45;RecurGraph">
<ellipse fill="none" stroke="#000000" cx="244.1" cy="-246.5" rx="11" ry="11"/>
<text text-anchor="middle" x="244.1" y="-242.8" font-family="Times,serif" font-size="14.00">rec</text>
</a>
</g>
</g>
<!-- ndcluster_nd140 -->
<g id="node3" class="node"><title>ndcluster_nd140</title>
<g id="a_node3"><a xlink:title="nd140">
<ellipse fill="orange" stroke="orange" cx="296.1" cy="-262.5" rx="1.8" ry="1.8"/>
</a>
</g>
</g>
<!-- nd136&#45;&gt;ndcluster_nd140 -->
<g id="edge26" class="edge"><title>nd136:n&#45;&gt;ndcluster_nd140:e</title>
<path fill="none" stroke="grey" d="M244.1,-258.5C244.1,-307.299 307.013,-262.5 299.1,-262.5"/>
</g>
<!-- nd136&#45;&gt;ndcluster_nd140 -->
<g id="edge27" class="edge"><title>nd136:e&#45;&gt;ndcluster_nd140:w</title>
<path fill="none" stroke="black" d="M256.1,-246.5C274.016,-246.5 275.184,-262.5 293.1,-262.5"/>
</g>
<!-- nd16 -->
<g id="node4" class="node"><title>nd16</title>
<g id="a_node4"><a xlink:title="nd16&#45;ConstGraph">
<path fill="none" stroke="purple" d="M430.467,-134C430.467,-134 440.133,-134 440.133,-134 444.967,-134 449.8,-129.167 449.8,-124.333 449.8,-124.333 449.8,-114.667 449.8,-114.667 449.8,-109.833 444.967,-105 440.133,-105 440.133,-105 430.467,-105 430.467,-105 425.633,-105 420.8,-109.833 420.8,-114.667 420.8,-114.667 420.8,-124.333 420.8,-124.333 420.8,-129.167 425.633,-134 430.467,-134"/>
<text text-anchor="middle" x="435.3" y="-115.8" font-family="Times,serif" font-size="14.00">1</text>
</a>
</g>
</g>
<!-- nd22 -->
<g id="node5" class="node"><title>nd22</title>
<g id="a_node5"><a xlink:title="nd22&#45;ConstGraph">
<path fill="none" stroke="purple" d="M476.467,-113C476.467,-113 486.133,-113 486.133,-113 490.967,-113 495.8,-108.167 495.8,-103.333 495.8,-103.333 495.8,-93.6667 495.8,-93.6667 495.8,-88.8333 490.967,-84 486.133,-84 486.133,-84 476.467,-84 476.467,-84 471.633,-84 466.8,-88.8333 466.8,-93.6667 466.8,-93.6667 466.8,-103.333 466.8,-103.333 466.8,-108.167 471.633,-113 476.467,-113"/>
<text text-anchor="middle" x="481.3" y="-94.8" font-family="Times,serif" font-size="14.00">2</text>
</a>
</g>
</g>
<!-- nd28 -->
<g id="node6" class="node"><title>nd28</title>
<g id="a_node6"><a xlink:title="nd28&#45;ConstGraph">
<path fill="none" stroke="purple" d="M522.467,-92C522.467,-92 532.133,-92 532.133,-92 536.967,-92 541.8,-87.1667 541.8,-82.3333 541.8,-82.3333 541.8,-72.6667 541.8,-72.6667 541.8,-67.8333 536.967,-63 532.133,-63 532.133,-63 522.467,-63 522.467,-63 517.633,-63 512.8,-67.8333 512.8,-72.6667 512.8,-72.6667 512.8,-82.3333 512.8,-82.3333 512.8,-87.1667 517.633,-92 522.467,-92"/>
<text text-anchor="middle" x="527.3" y="-73.8" font-family="Times,serif" font-size="14.00">3</text>
</a>
</g>
</g>
<!-- nd34 -->
<g id="node7" class="node"><title>nd34</title>
<g id="a_node7"><a xlink:title="nd34&#45;ConstGraph">
<path fill="none" stroke="purple" d="M568.467,-71C568.467,-71 578.133,-71 578.133,-71 582.967,-71 587.8,-66.1667 587.8,-61.3333 587.8,-61.3333 587.8,-51.6667 587.8,-51.6667 587.8,-46.8333 582.967,-42 578.133,-42 578.133,-42 568.467,-42 568.467,-42 563.633,-42 558.8,-46.8333 558.8,-51.6667 558.8,-51.6667 558.8,-61.3333 558.8,-61.3333 558.8,-66.1667 563.633,-71 568.467,-71"/>
<text text-anchor="middle" x="573.3" y="-52.8" font-family="Times,serif" font-size="14.00">4</text>
</a>
</g>
</g>
<!-- nd39 -->
<g id="node8" class="node"><title>nd39</title>
<g id="a_node8"><a xlink:title="nd39&#45;ConstEmptyGraph">
<path fill="none" stroke="purple" d="M568.467,-29C568.467,-29 578.133,-29 578.133,-29 582.967,-29 587.8,-24.1667 587.8,-19.3333 587.8,-19.3333 587.8,-9.66667 587.8,-9.66667 587.8,-4.83333 582.967,-1.77636e-15 578.133,-1.77636e-15 578.133,-1.77636e-15 568.467,-1.77636e-15 568.467,-1.77636e-15 563.633,-1.77636e-15 558.8,-4.83333 558.8,-9.66667 558.8,-9.66667 558.8,-19.3333 558.8,-19.3333 558.8,-24.1667 563.633,-29 568.467,-29"/>
<text text-anchor="middle" x="573.3" y="-10.8" font-family="Times,serif" font-size="14.00">[]</text>
</a>
</g>
</g>
<!-- nd50 -->
<g id="node9" class="node"><title>nd50</title>
<g id="a_node9"><a xlink:title="nd50&#45;ConstGraph">
<path fill="none" stroke="purple" d="M291.267,-236C291.267,-236 300.933,-236 300.933,-236 305.767,-236 310.6,-231.167 310.6,-226.333 310.6,-226.333 310.6,-216.667 310.6,-216.667 310.6,-211.833 305.767,-207 300.933,-207 300.933,-207 291.267,-207 291.267,-207 286.433,-207 281.6,-211.833 281.6,-216.667 281.6,-216.667 281.6,-226.333 281.6,-226.333 281.6,-231.167 286.433,-236 291.267,-236"/>
<text text-anchor="middle" x="296.1" y="-217.8" font-family="Times,serif" font-size="14.00">0</text>
</a>
</g>
</g>
<!-- nd182 -->
<g id="node10" class="node"><title>nd182</title>
<g id="a_node10"><a xlink:title="nd182&#45;ConstListGraph">
<path fill="none" stroke="purple" d="M522.467,-50C522.467,-50 532.133,-50 532.133,-50 536.967,-50 541.8,-45.1667 541.8,-40.3333 541.8,-40.3333 541.8,-30.6667 541.8,-30.6667 541.8,-25.8333 536.967,-21 532.133,-21 532.133,-21 522.467,-21 522.467,-21 517.633,-21 512.8,-25.8333 512.8,-30.6667 512.8,-30.6667 512.8,-40.3333 512.8,-40.3333 512.8,-45.1667 517.633,-50 522.467,-50"/>
<text text-anchor="middle" x="527.3" y="-31.8" font-family="Times,serif" font-size="14.00">::</text>
</a>
</g>
</g>
<!-- nd182&#45;&gt;nd34 -->
<g id="edge1" class="edge"><title>nd182:n&#45;&gt;nd34:w</title>
<path fill="none" stroke="purple" d="M527.3,-51.5C527.3,-55.0438 555.256,-56.5 558.8,-56.5"/>
</g>
<!-- nd182&#45;&gt;nd39 -->
<g id="edge2" class="edge"><title>nd182:s&#45;&gt;nd39:w</title>
<path fill="none" stroke="purple" d="M527.3,-19.5C527.3,-5.32473 544.625,-14.5 558.8,-14.5"/>
</g>
<!-- nd188 -->
<g id="node11" class="node"><title>nd188</title>
<g id="a_node11"><a xlink:title="nd188&#45;ConstListGraph">
<path fill="none" stroke="purple" d="M476.467,-71C476.467,-71 486.133,-71 486.133,-71 490.967,-71 495.8,-66.1667 495.8,-61.3333 495.8,-61.3333 495.8,-51.6667 495.8,-51.6667 495.8,-46.8333 490.967,-42 486.133,-42 486.133,-42 476.467,-42 476.467,-42 471.633,-42 466.8,-46.8333 466.8,-51.6667 466.8,-51.6667 466.8,-61.3333 466.8,-61.3333 466.8,-66.1667 471.633,-71 476.467,-71"/>
<text text-anchor="middle" x="481.3" y="-52.8" font-family="Times,serif" font-size="14.00">::</text>
</a>
</g>
</g>
<!-- nd188&#45;&gt;nd28 -->
<g id="edge3" class="edge"><title>nd188:n&#45;&gt;nd28:w</title>
<path fill="none" stroke="purple" d="M481.3,-72.5C481.3,-76.0438 509.256,-77.5 512.8,-77.5"/>
</g>
<!-- nd188&#45;&gt;nd182 -->
<g id="edge4" class="edge"><title>nd188:s&#45;&gt;nd182:w</title>
<path fill="none" stroke="purple" d="M481.3,-40.5C481.3,-26.3247 498.625,-35.5 512.8,-35.5"/>
</g>
<!-- nd194 -->
<g id="node12" class="node"><title>nd194</title>
<g id="a_node12"><a xlink:title="nd194&#45;ConstListGraph">
<path fill="none" stroke="purple" d="M430.467,-92C430.467,-92 440.133,-92 440.133,-92 444.967,-92 449.8,-87.1667 449.8,-82.3333 449.8,-82.3333 449.8,-72.6667 449.8,-72.6667 449.8,-67.8333 444.967,-63 440.133,-63 440.133,-63 430.467,-63 430.467,-63 425.633,-63 420.8,-67.8333 420.8,-72.6667 420.8,-72.6667 420.8,-82.3333 420.8,-82.3333 420.8,-87.1667 425.633,-92 430.467,-92"/>
<text text-anchor="middle" x="435.3" y="-73.8" font-family="Times,serif" font-size="14.00">::</text>
</a>
</g>
</g>
<!-- nd194&#45;&gt;nd22 -->
<g id="edge5" class="edge"><title>nd194:n&#45;&gt;nd22:w</title>
<path fill="none" stroke="purple" d="M435.3,-93.5C435.3,-97.0438 463.256,-98.5 466.8,-98.5"/>
</g>
<!-- nd194&#45;&gt;nd188 -->
<g id="edge6" class="edge"><title>nd194:s&#45;&gt;nd188:w</title>
<path fill="none" stroke="purple" d="M435.3,-61.5C435.3,-47.3247 452.625,-56.5 466.8,-56.5"/>
</g>
<!-- nd200 -->
<g id="node13" class="node"><title>nd200</title>
<g id="a_node13"><a xlink:title="nd200&#45;ConstListGraph">
<path fill="none" stroke="purple" d="M363.867,-109C363.867,-109 373.533,-109 373.533,-109 378.367,-109 383.2,-104.167 383.2,-99.3333 383.2,-99.3333 383.2,-89.6667 383.2,-89.6667 383.2,-84.8333 378.367,-80 373.533,-80 373.533,-80 363.867,-80 363.867,-80 359.033,-80 354.2,-84.8333 354.2,-89.6667 354.2,-89.6667 354.2,-99.3333 354.2,-99.3333 354.2,-104.167 359.033,-109 363.867,-109"/>
<text text-anchor="middle" x="368.7" y="-90.8" font-family="Times,serif" font-size="14.00">::</text>
</a>
</g>
</g>
<!-- nd209 -->
<g id="node25" class="node"><title>nd209</title>
<g id="a_node25"><a xlink:title="nd209&#45;ContractGraph">
<ellipse fill="black" stroke="black" cx="402" cy="-113.5" rx="1.8" ry="1.8"/>
</a>
</g>
</g>
<!-- nd200&#45;&gt;nd209 -->
<g id="edge7" class="edge"><title>nd200:n&#45;&gt;nd209:w</title>
<path fill="none" stroke="black" d="M368.7,-110.5C368.7,-124.563 386.137,-113.5 400.2,-113.5"/>
</g>
<!-- nd210 -->
<g id="node26" class="node"><title>nd210</title>
<g id="a_node26"><a xlink:title="nd210&#45;ContractGraph">
<ellipse fill="black" stroke="black" cx="402" cy="-77.5" rx="1.8" ry="1.8"/>
</a>
</g>
</g>
<!-- nd200&#45;&gt;nd210 -->
<g id="edge8" class="edge"><title>nd200:s&#45;&gt;nd210:w</title>
<path fill="none" stroke="black" d="M368.7,-78.5C368.7,-64.4929 386.193,-77.5 400.2,-77.5"/>
</g>
<!-- nd84 -->
<g id="node15" class="node"><title>nd84</title>
<g id="a_node15"><a xlink:title="nd84&#45;AppGraph">
<path fill="none" stroke="#000000" d="M111.547,-191.554C111.547,-191.554 107.672,-185.946 107.672,-185.946 106.136,-183.723 106.136,-179.277 107.672,-177.054 107.672,-177.054 111.547,-171.446 111.547,-171.446 113.083,-169.223 117.321,-167.002 120.023,-167.005 120.023,-167.005 125.427,-167.009 125.427,-167.009 128.129,-167.011 130.831,-169.715 130.831,-172.417 130.831,-172.417 130.831,-190.583 130.831,-190.583 130.831,-193.285 128.129,-195.989 125.427,-195.991 125.427,-195.991 120.023,-195.995 120.023,-195.995 117.321,-195.998 113.083,-193.777 111.547,-191.554"/>
<text text-anchor="middle" x="119.1" y="-177.8" font-family="Times,serif" font-size="14.00">@</text>
</a>
</g>
</g>
<!-- nd67&#45;&gt;nd84 -->
<g id="edge19" class="edge"><title>nd67:s&#45;&gt;nd84:w</title>
<path fill="none" stroke="grey" d="M35.1,-200.5C35.1,-188.423 78.9954,-181.5 104.6,-181.5"/>
<text text-anchor="middle" x="77.1" y="-190.3" font-family="Times,serif" font-size="14.00">is false</text>
</g>
<!-- nd125 -->
<g id="node23" class="node"><title>nd125</title>
<g id="a_node23"><a xlink:title="nd125&#45;ContractGraph">
<ellipse fill="black" stroke="black" cx="244.1" cy="-216.5" rx="1.8" ry="1.8"/>
</a>
</g>
</g>
<!-- nd67&#45;&gt;nd125 -->
<g id="edge21" class="edge"><title>nd67:e&#45;&gt;nd125:w</title>
<path fill="none" stroke="grey" d="M49.6,-216.5C134.711,-216.5 155.989,-216.5 241.1,-216.5"/>
<text text-anchor="middle" x="158.6" y="-220.3" font-family="Times,serif" font-size="14.00">is true</text>
</g>
<!-- nd214 -->
<g id="node27" class="node"><title>nd214</title>
<g id="a_node27"><a xlink:title="nd214&#45;ConstGraph">
<path fill="none" stroke="purple" d="M114.267,-266C114.267,-266 123.933,-266 123.933,-266 128.767,-266 133.6,-261.167 133.6,-256.333 133.6,-256.333 133.6,-246.667 133.6,-246.667 133.6,-241.833 128.767,-237 123.933,-237 123.933,-237 114.267,-237 114.267,-237 109.433,-237 104.6,-241.833 104.6,-246.667 104.6,-246.667 104.6,-256.333 104.6,-256.333 104.6,-261.167 109.433,-266 114.267,-266"/>
<text text-anchor="middle" x="119.1" y="-247.8" font-family="Times,serif" font-size="14.00">false</text>
</a>
</g>
</g>
<!-- nd67&#45;&gt;nd214 -->
<g id="edge9" class="edge"><title>nd67:n&#45;&gt;nd214:w</title>
<path fill="none" stroke="red" d="M36.7729,-242.51C44.3842,-261.47 76.5804,-251.5 104.6,-251.5"/>
<polygon fill="red" stroke="red" points="40.2005,-241.786 35.1,-232.5 33.2963,-242.94 40.2005,-241.786"/>
</g>
<!-- nd85 -->
<g id="node16" class="node"><title>nd85</title>
<g id="a_node16"><a xlink:title="nd85&#45;AppGraph">
<path fill="none" stroke="#000000" d="M190.547,-191.554C190.547,-191.554 186.672,-185.946 186.672,-185.946 185.136,-183.723 185.136,-179.277 186.672,-177.054 186.672,-177.054 190.547,-171.446 190.547,-171.446 192.083,-169.223 196.321,-167.002 199.023,-167.005 199.023,-167.005 204.427,-167.009 204.427,-167.009 207.129,-167.011 209.831,-169.715 209.831,-172.417 209.831,-172.417 209.831,-190.583 209.831,-190.583 209.831,-193.285 207.129,-195.989 204.427,-195.991 204.427,-195.991 199.023,-195.995 199.023,-195.995 196.321,-195.998 192.083,-193.777 190.547,-191.554"/>
<text text-anchor="middle" x="198.1" y="-177.8" font-family="Times,serif" font-size="14.00">@</text>
</a>
</g>
</g>
<!-- nd84&#45;&gt;nd85 -->
<g id="edge15" class="edge"><title>nd84:e&#45;&gt;nd85:w</title>
<path fill="none" stroke="black" d="M132.1,-181.5C154.989,-181.5 160.711,-181.5 183.6,-181.5"/>
</g>
<!-- nd105 -->
<g id="node19" class="node"><title>nd105</title>
<g id="a_node19"><a xlink:title="nd105&#45;BinOpGraph">
<ellipse fill="none" stroke="#000000" cx="198.1" cy="-132.5" rx="14.5" ry="14.5"/>
<text text-anchor="middle" x="198.1" y="-128.8" font-family="Times,serif" font-size="14.00">+</text>
</a>
</g>
</g>
<!-- nd84&#45;&gt;nd105 -->
<g id="edge16" class="edge"><title>nd84:s&#45;&gt;nd105:w</title>
<path fill="none" stroke="black" d="M119.1,-165.5C119.1,-133.299 151.399,-132.5 183.6,-132.5"/>
</g>
<!-- nd85&#45;&gt;nd136 -->
<g id="edge11" class="edge"><title>nd85:e&#45;&gt;nd136:w</title>
<path fill="none" stroke="black" d="M211.1,-181.5C241.459,-181.5 201.741,-246.5 232.1,-246.5"/>
</g>
<!-- nd89 -->
<g id="node17" class="node"><title>nd89</title>
<g id="a_node17"><a xlink:title="nd89&#45;AppGraph">
<path fill="none" stroke="#000000" d="M236.547,-175.554C236.547,-175.554 232.672,-169.946 232.672,-169.946 231.136,-167.723 231.136,-163.277 232.672,-161.054 232.672,-161.054 236.547,-155.446 236.547,-155.446 238.083,-153.223 242.321,-151.002 245.023,-151.005 245.023,-151.005 250.427,-151.009 250.427,-151.009 253.129,-151.011 255.831,-153.715 255.831,-156.417 255.831,-156.417 255.831,-174.583 255.831,-174.583 255.831,-177.285 253.129,-179.989 250.427,-179.991 250.427,-179.991 245.023,-179.995 245.023,-179.995 242.321,-179.998 238.083,-177.777 236.547,-175.554"/>
<text text-anchor="middle" x="244.1" y="-161.8" font-family="Times,serif" font-size="14.00">@</text>
</a>
</g>
</g>
<!-- nd85&#45;&gt;nd89 -->
<g id="edge12" class="edge"><title>nd85:s&#45;&gt;nd89:w</title>
<path fill="none" stroke="black" d="M198.1,-165.5C198.1,-151.5 215.6,-165.5 229.6,-165.5"/>
</g>
<!-- ndcluster_nd91 -->
<g id="node18" class="node"><title>ndcluster_nd91</title>
<g id="a_node18"><a xlink:title="nd91">
<ellipse fill="orange" stroke="orange" cx="296.1" cy="-165.5" rx="1.8" ry="1.8"/>
</a>
</g>
</g>
<!-- nd89&#45;&gt;ndcluster_nd91 -->
<g id="edge10" class="edge"><title>nd89:e&#45;&gt;ndcluster_nd91:w</title>
<path fill="none" stroke="black" d="M257.1,-165.5C273.1,-165.5 277.1,-165.5 293.1,-165.5"/>
</g>
<!-- nd123 -->
<g id="node22" class="node"><title>nd123</title>
<g id="a_node22"><a xlink:title="nd123&#45;ContractGraph">
<ellipse fill="black" stroke="black" cx="296.1" cy="-94.5" rx="1.8" ry="1.8"/>
</a>
</g>
</g>
<!-- nd89&#45;&gt;nd123 -->
<g id="edge18" class="edge"><title>nd89:s&#45;&gt;nd123:w</title>
<path fill="none" stroke="black" d="M244.1,-149.5C244.1,-140.542 252.858,-142.376 258.6,-135.5 273.866,-117.221 269.285,-94.5 293.1,-94.5"/>
</g>
<!-- nd108 -->
<g id="node20" class="node"><title>nd108</title>
<g id="a_node20"><a xlink:title="nd108&#45;AppGraph">
<path fill="none" stroke="#000000" d="M236.547,-124.554C236.547,-124.554 232.672,-118.946 232.672,-118.946 231.136,-116.723 231.136,-112.277 232.672,-110.054 232.672,-110.054 236.547,-104.446 236.547,-104.446 238.083,-102.223 242.321,-100.002 245.023,-100.005 245.023,-100.005 250.427,-100.009 250.427,-100.009 253.129,-100.011 255.831,-102.715 255.831,-105.417 255.831,-105.417 255.831,-123.583 255.831,-123.583 255.831,-126.285 253.129,-128.989 250.427,-128.991 250.427,-128.991 245.023,-128.995 245.023,-128.995 242.321,-128.998 238.083,-126.777 236.547,-124.554"/>
<text text-anchor="middle" x="244.1" y="-110.8" font-family="Times,serif" font-size="14.00">@</text>
</a>
</g>
</g>
<!-- nd105&#45;&gt;nd108 -->
<g id="edge14" class="edge"><title>nd105:s&#45;&gt;nd108:w</title>
<path fill="none" stroke="black" d="M198.1,-116.5C198.1,-102.472 215.572,-114.5 229.6,-114.5"/>
</g>
<!-- nd105&#45;&gt;nd125 -->
<g id="edge20" class="edge"><title>nd105:n&#45;&gt;nd125:w</title>
<path fill="none" stroke="black" d="M198.1,-148.5C198.1,-156.865 207.372,-153.97 212.6,-160.5 221.327,-171.4 227.137,-216.5 241.1,-216.5"/>
</g>
<!-- ndcluster_nd110 -->
<g id="node21" class="node"><title>ndcluster_nd110</title>
<g id="a_node21"><a xlink:title="nd110">
<ellipse fill="orange" stroke="orange" cx="296.1" cy="-114.5" rx="1.8" ry="1.8"/>
</a>
</g>
</g>
<!-- nd108&#45;&gt;ndcluster_nd110 -->
<g id="edge13" class="edge"><title>nd108:e&#45;&gt;ndcluster_nd110:w</title>
<path fill="none" stroke="black" d="M257.1,-114.5C273.1,-114.5 277.1,-114.5 293.1,-114.5"/>
</g>
<!-- nd108&#45;&gt;nd123 -->
<g id="edge17" class="edge"><title>nd108:s&#45;&gt;nd123:w</title>
<path fill="none" stroke="black" d="M244.1,-98.5C244.1,-76.6498 271.25,-94.5 293.1,-94.5"/>
</g>
<!-- nd126 -->
<g id="node24" class="node"><title>nd126</title>
<g id="a_node24"><a xlink:title="nd126&#45;ContractGraph">
<ellipse fill="black" stroke="black" cx="329.4" cy="-94.5" rx="1.8" ry="1.8"/>
</a>
</g>
</g>
<!-- nd123&#45;&gt;nd126 -->
<g id="edge22" class="edge"><title>nd123:e&#45;&gt;nd126:w</title>
<path fill="none" stroke="black" d="M299.1,-94.5C311.767,-94.5 314.933,-94.5 327.6,-94.5"/>
</g>
<!-- nd125&#45;&gt;nd50 -->
<g id="edge24" class="edge"><title>nd125:e&#45;&gt;nd50:w</title>
<path fill="none" stroke="black" d="M247.1,-216.5C262.462,-216.5 265.938,-221.5 281.3,-221.5"/>
<text text-anchor="middle" x="270.1" y="-224.3" font-family="Times,serif" font-size="14.00">y</text>
</g>
<!-- nd126&#45;&gt;nd200 -->
<g id="edge25" class="edge"><title>nd126:e&#45;&gt;nd200:w</title>
<path fill="none" stroke="black" d="M331.2,-94.5C341.422,-94.5 343.978,-94.5 354.2,-94.5"/>
<text text-anchor="middle" x="342.7" y="-98.3" font-family="Times,serif" font-size="14.00">x</text>
</g>
<!-- nd209&#45;&gt;nd16 -->
<g id="edge28" class="edge"><title>nd209:e&#45;&gt;nd16:w</title>
<path fill="none" stroke="black" d="M403.8,-113.5C411.812,-113.5 412.788,-119.5 420.8,-119.5"/>
</g>
<!-- nd210&#45;&gt;nd194 -->
<g id="edge29" class="edge"><title>nd210:e&#45;&gt;nd194:w</title>
<path fill="none" stroke="black" d="M403.8,-77.5C411.356,-77.5 413.244,-77.5 420.8,-77.5"/>
</g>
</g>
</svg>
