<?xml version="1.0" encoding="UTF-8" standalone="no"?>
<!DOCTYPE svg PUBLIC "-//W3C//DTD SVG 1.1//EN"
 "http://www.w3.org/Graphics/SVG/1.1/DTD/svg11.dtd">
<!-- Generated by graphviz version 2.38.0 (20140413.2041)
 -->
<!-- Title: G Pages: 1 -->
<svg width="64pt" height="38pt"
 viewBox="0.00 0.00 63.60 37.50" xmlns="http://www.w3.org/2000/svg" xmlns:xlink="http://www.w3.org/1999/xlink">
<g id="graph0" class="graph" transform="scale(1 1) rotate(0) translate(4 33.5)">
<title>G</title>
<polygon fill="white" stroke="none" points="-4,4 -4,-33.5 59.6,-33.5 59.6,4 -4,4"/>
<!-- nd1 -->
<g id="node1" class="node"><title>nd1</title>
<ellipse fill="black" stroke="black" cx="1.8" cy="-14.5" rx="1.8" ry="1.8"/>
</g>
<!-- nd463 -->
<g id="node2" class="node"><title>nd463</title>
<g id="a_node2"><a xlink:title="nd463&#45;ConstGraph">
<path fill="none" stroke="purple" d="M36.2667,-29C36.2667,-29 45.9333,-29 45.9333,-29 50.7667,-29 55.6,-24.1667 55.6,-19.3333 55.6,-19.3333 55.6,-9.66667 55.6,-9.66667 55.6,-4.83333 50.7667,-0 45.9333,-0 45.9333,-0 36.2667,-0 36.2667,-0 31.4333,-0 26.6,-4.83333 26.6,-9.66667 26.6,-9.66667 26.6,-19.3333 26.6,-19.3333 26.6,-24.1667 31.4333,-29 36.2667,-29"/>
<text text-anchor="middle" x="41.1" y="-10.8" font-family="Times,serif" font-size="14.00">10</text>
</a>
</g>
</g>
<!-- nd1&#45;&gt;nd463 -->
<g id="edge1" class="edge"><title>nd1:e&#45;&gt;nd463:w</title>
<path fill="none" stroke="red" d="M3.6,-14.5C9.35,-14.5 12.6742,-14.5 16.3017,-14.5"/>
<polygon fill="red" stroke="red" points="16.6,-18.0001 26.6,-14.5 16.6,-11.0001 16.6,-18.0001"/>
<text text-anchor="middle" x="15.1" y="-18.3" font-family="Times,serif" font-size="14.00">y</text>
</g>
</g>
</svg>
