<?xml version="1.0" encoding="UTF-8" standalone="no"?>
<!DOCTYPE svg PUBLIC "-//W3C//DTD SVG 1.1//EN"
 "http://www.w3.org/Graphics/SVG/1.1/DTD/svg11.dtd">
<!-- Generated by graphviz version 2.38.0 (20140413.2041)
 -->
<!-- Title: G Pages: 1 -->
<svg width="489pt" height="226pt"
 viewBox="0.00 0.00 489.20 225.50" xmlns="http://www.w3.org/2000/svg" xmlns:xlink="http://www.w3.org/1999/xlink">
<g id="graph0" class="graph" transform="scale(1 1) rotate(0) translate(4 221.5)">
<title>G</title>
<polygon fill="white" stroke="none" points="-4,4 -4,-221.5 485.2,-221.5 485.2,4 -4,4"/>
<g id="clust1" class="cluster"><title>cluster_nd241</title>
<polygon fill="none" stroke="orange" points="163.3,-189.5 163.3,-209.5 182.9,-209.5 182.9,-189.5 163.3,-189.5"/>
</g>
<g id="clust2" class="cluster"><title>cluster_nd160</title>
<polygon fill="none" stroke="orange" points="161.3,-137.5 161.3,-180.5 184.9,-180.5 184.9,-137.5 161.3,-137.5"/>
<text text-anchor="middle" x="173.1" y="-165.3" font-family="Times,serif" font-size="14.00">tl</text>
</g>
<!-- nd1 -->
<g id="node1" class="node"><title>nd1</title>
<ellipse fill="black" stroke="black" cx="1.8" cy="-129.5" rx="1.8" ry="1.8"/>
</g>
<!-- nd154 -->
<g id="node12" class="node"><title>nd154</title>
<g id="a_node12"><a xlink:title="nd154&#45;AppGraph">
<path fill="none" stroke="#000000" d="M27.5473,-139.554C27.5473,-139.554 23.6719,-133.946 23.6719,-133.946 22.136,-131.723 22.136,-127.277 23.6719,-125.054 23.6719,-125.054 27.5473,-119.446 27.5473,-119.446 29.0833,-117.223 33.3212,-115.002 36.0231,-115.005 36.0231,-115.005 41.4269,-115.009 41.4269,-115.009 44.1288,-115.011 46.8307,-117.715 46.8307,-120.417 46.8307,-120.417 46.8307,-138.583 46.8307,-138.583 46.8307,-141.285 44.1288,-143.989 41.4269,-143.991 41.4269,-143.991 36.0231,-143.995 36.0231,-143.995 33.3212,-143.998 29.0833,-141.777 27.5473,-139.554"/>
<text text-anchor="middle" x="35.1" y="-125.8" font-family="Times,serif" font-size="14.00">@</text>
</a>
</g>
</g>
<!-- nd1&#45;&gt;nd154 -->
<g id="edge18" class="edge"><title>nd1:e&#45;&gt;nd154:w</title>
<path fill="none" stroke="#b70000" d="M3.6,-129.5C11.1556,-129.5 13.0444,-129.5 20.6,-129.5"/>
</g>
<!-- nd22 -->
<g id="node2" class="node"><title>nd22</title>
<g id="a_node2"><a xlink:title="nd22&#45;ConstGraph">
<path fill="none" stroke="purple" d="M369.867,-119C369.867,-119 379.533,-119 379.533,-119 384.367,-119 389.2,-114.167 389.2,-109.333 389.2,-109.333 389.2,-99.6667 389.2,-99.6667 389.2,-94.8333 384.367,-90 379.533,-90 379.533,-90 369.867,-90 369.867,-90 365.033,-90 360.2,-94.8333 360.2,-99.6667 360.2,-99.6667 360.2,-109.333 360.2,-109.333 360.2,-114.167 365.033,-119 369.867,-119"/>
<text text-anchor="middle" x="374.7" y="-100.8" font-family="Times,serif" font-size="14.00">2</text>
</a>
</g>
</g>
<!-- nd28 -->
<g id="node3" class="node"><title>nd28</title>
<g id="a_node3"><a xlink:title="nd28&#45;ConstGraph">
<path fill="none" stroke="purple" d="M415.867,-97C415.867,-97 425.533,-97 425.533,-97 430.367,-97 435.2,-92.1667 435.2,-87.3333 435.2,-87.3333 435.2,-77.6667 435.2,-77.6667 435.2,-72.8333 430.367,-68 425.533,-68 425.533,-68 415.867,-68 415.867,-68 411.033,-68 406.2,-72.8333 406.2,-77.6667 406.2,-77.6667 406.2,-87.3333 406.2,-87.3333 406.2,-92.1667 411.033,-97 415.867,-97"/>
<text text-anchor="middle" x="420.7" y="-78.8" font-family="Times,serif" font-size="14.00">3</text>
</a>
</g>
</g>
<!-- nd34 -->
<g id="node4" class="node"><title>nd34</title>
<g id="a_node4"><a xlink:title="nd34&#45;ConstGraph">
<path fill="none" stroke="purple" d="M461.867,-76C461.867,-76 471.533,-76 471.533,-76 476.367,-76 481.2,-71.1667 481.2,-66.3333 481.2,-66.3333 481.2,-56.6667 481.2,-56.6667 481.2,-51.8333 476.367,-47 471.533,-47 471.533,-47 461.867,-47 461.867,-47 457.033,-47 452.2,-51.8333 452.2,-56.6667 452.2,-56.6667 452.2,-66.3333 452.2,-66.3333 452.2,-71.1667 457.033,-76 461.867,-76"/>
<text text-anchor="middle" x="466.7" y="-57.8" font-family="Times,serif" font-size="14.00">4</text>
</a>
</g>
</g>
<!-- nd39 -->
<g id="node5" class="node"><title>nd39</title>
<g id="a_node5"><a xlink:title="nd39&#45;ConstEmptyGraph">
<path fill="none" stroke="purple" d="M461.867,-34C461.867,-34 471.533,-34 471.533,-34 476.367,-34 481.2,-29.1667 481.2,-24.3333 481.2,-24.3333 481.2,-14.6667 481.2,-14.6667 481.2,-9.83333 476.367,-5 471.533,-5 471.533,-5 461.867,-5 461.867,-5 457.033,-5 452.2,-9.83333 452.2,-14.6667 452.2,-14.6667 452.2,-24.3333 452.2,-24.3333 452.2,-29.1667 457.033,-34 461.867,-34"/>
<text text-anchor="middle" x="466.7" y="-15.8" font-family="Times,serif" font-size="14.00">[]</text>
</a>
</g>
</g>
<!-- nd182 -->
<g id="node6" class="node"><title>nd182</title>
<g id="a_node6"><a xlink:title="nd182&#45;ConstListGraph">
<path fill="none" stroke="purple" d="M415.867,-55C415.867,-55 425.533,-55 425.533,-55 430.367,-55 435.2,-50.1667 435.2,-45.3333 435.2,-45.3333 435.2,-35.6667 435.2,-35.6667 435.2,-30.8333 430.367,-26 425.533,-26 425.533,-26 415.867,-26 415.867,-26 411.033,-26 406.2,-30.8333 406.2,-35.6667 406.2,-35.6667 406.2,-45.3333 406.2,-45.3333 406.2,-50.1667 411.033,-55 415.867,-55"/>
<text text-anchor="middle" x="420.7" y="-36.8" font-family="Times,serif" font-size="14.00">::</text>
</a>
</g>
</g>
<!-- nd182&#45;&gt;nd34 -->
<g id="edge1" class="edge"><title>nd182:n&#45;&gt;nd34:w</title>
<path fill="none" stroke="purple" d="M420.7,-56.5C420.7,-60.0438 448.656,-61.5 452.2,-61.5"/>
</g>
<!-- nd182&#45;&gt;nd39 -->
<g id="edge2" class="edge"><title>nd182:s&#45;&gt;nd39:w</title>
<path fill="none" stroke="purple" d="M420.7,-24.5C420.7,-10.3247 438.025,-19.5 452.2,-19.5"/>
</g>
<!-- nd188 -->
<g id="node7" class="node"><title>nd188</title>
<g id="a_node7"><a xlink:title="nd188&#45;ConstListGraph">
<path fill="none" stroke="purple" d="M369.867,-76C369.867,-76 379.533,-76 379.533,-76 384.367,-76 389.2,-71.1667 389.2,-66.3333 389.2,-66.3333 389.2,-56.6667 389.2,-56.6667 389.2,-51.8333 384.367,-47 379.533,-47 379.533,-47 369.867,-47 369.867,-47 365.033,-47 360.2,-51.8333 360.2,-56.6667 360.2,-56.6667 360.2,-66.3333 360.2,-66.3333 360.2,-71.1667 365.033,-76 369.867,-76"/>
<text text-anchor="middle" x="374.7" y="-57.8" font-family="Times,serif" font-size="14.00">::</text>
</a>
</g>
</g>
<!-- nd188&#45;&gt;nd28 -->
<g id="edge3" class="edge"><title>nd188:n&#45;&gt;nd28:w</title>
<path fill="none" stroke="purple" d="M374.7,-77.5C374.7,-84.5876 399.112,-82.5 406.2,-82.5"/>
</g>
<!-- nd188&#45;&gt;nd182 -->
<g id="edge4" class="edge"><title>nd188:s&#45;&gt;nd182:w</title>
<path fill="none" stroke="purple" d="M374.7,-45.5C374.7,-31.3247 392.025,-40.5 406.2,-40.5"/>
</g>
<!-- nd194 -->
<g id="node8" class="node"><title>nd194</title>
<g id="a_node8"><a xlink:title="nd194&#45;ConstListGraph">
<path fill="none" stroke="purple" d="M220.267,-155C220.267,-155 229.933,-155 229.933,-155 234.767,-155 239.6,-150.167 239.6,-145.333 239.6,-145.333 239.6,-135.667 239.6,-135.667 239.6,-130.833 234.767,-126 229.933,-126 229.933,-126 220.267,-126 220.267,-126 215.433,-126 210.6,-130.833 210.6,-135.667 210.6,-135.667 210.6,-145.333 210.6,-145.333 210.6,-150.167 215.433,-155 220.267,-155"/>
<text text-anchor="middle" x="225.1" y="-136.8" font-family="Times,serif" font-size="14.00">::</text>
</a>
</g>
</g>
<!-- nd299 -->
<g id="node23" class="node"><title>nd299</title>
<g id="a_node23"><a xlink:title="nd299&#45;ContractGraph">
<ellipse fill="black" stroke="black" cx="308.1" cy="-104.5" rx="1.8" ry="1.8"/>
</a>
</g>
</g>
<!-- nd194&#45;&gt;nd299 -->
<g id="edge5" class="edge"><title>nd194:n&#45;&gt;nd299:w</title>
<path fill="none" stroke="black" d="M225.1,-156.5C225.1,-169.478 245.609,-168.045 285.6,-133.5 297.354,-123.347 289.568,-104.5 305.1,-104.5"/>
</g>
<!-- nd300 -->
<g id="node24" class="node"><title>nd300</title>
<g id="a_node24"><a xlink:title="nd300&#45;ContractGraph">
<ellipse fill="black" stroke="black" cx="308.1" cy="-61.5" rx="1.8" ry="1.8"/>
</a>
</g>
</g>
<!-- nd194&#45;&gt;nd300 -->
<g id="edge6" class="edge"><title>nd194:s&#45;&gt;nd300:w</title>
<path fill="none" stroke="black" d="M225.1,-124.5C225.1,-117.683 233.713,-122.937 239.6,-119.5 273.181,-99.8966 266.216,-61.5 305.1,-61.5"/>
</g>
<!-- nd232 -->
<g id="node9" class="node"><title>nd232</title>
<g id="a_node9"><a xlink:title="nd232&#45;ConstGraph">
<path fill="none" stroke="purple" d="M220.267,-113C220.267,-113 229.933,-113 229.933,-113 234.767,-113 239.6,-108.167 239.6,-103.333 239.6,-103.333 239.6,-93.6667 239.6,-93.6667 239.6,-88.8333 234.767,-84 229.933,-84 229.933,-84 220.267,-84 220.267,-84 215.433,-84 210.6,-88.8333 210.6,-93.6667 210.6,-93.6667 210.6,-103.333 210.6,-103.333 210.6,-108.167 215.433,-113 220.267,-113"/>
<text text-anchor="middle" x="225.1" y="-94.8" font-family="Times,serif" font-size="14.00">1</text>
</a>
</g>
</g>
<!-- nd237 -->
<g id="node10" class="node"><title>nd237</title>
<g id="a_node10"><a xlink:title="nd237&#45;RecurGraph">
<ellipse fill="none" stroke="#000000" cx="127.1" cy="-181.5" rx="11" ry="11"/>
<text text-anchor="middle" x="127.1" y="-177.8" font-family="Times,serif" font-size="14.00">rec</text>
</a>
</g>
</g>
<!-- ndcluster_nd241 -->
<g id="node11" class="node"><title>ndcluster_nd241</title>
<g id="a_node11"><a xlink:title="nd241">
<ellipse fill="orange" stroke="orange" cx="173.1" cy="-199.5" rx="1.8" ry="1.8"/>
</a>
</g>
</g>
<!-- nd237&#45;&gt;ndcluster_nd241 -->
<g id="edge24" class="edge"><title>nd237:n&#45;&gt;ndcluster_nd241:e</title>
<path fill="none" stroke="grey" d="M127.1,-193.5C127.1,-235.455 183.047,-199.5 176.1,-199.5"/>
</g>
<!-- nd237&#45;&gt;ndcluster_nd241 -->
<g id="edge25" class="edge"><title>nd237:e&#45;&gt;ndcluster_nd241:w</title>
<path fill="none" stroke="black" d="M139.1,-181.5C155.032,-181.5 154.168,-199.5 170.1,-199.5"/>
</g>
<!-- nd155 -->
<g id="node13" class="node"><title>nd155</title>
<g id="a_node13"><a xlink:title="nd155&#45;AppGraph">
<path fill="none" stroke="#000000" d="M73.5473,-167.554C73.5473,-167.554 69.6719,-161.946 69.6719,-161.946 68.136,-159.723 68.136,-155.277 69.6719,-153.054 69.6719,-153.054 73.5473,-147.446 73.5473,-147.446 75.0833,-145.223 79.3212,-143.002 82.0231,-143.005 82.0231,-143.005 87.4269,-143.009 87.4269,-143.009 90.1288,-143.011 92.8307,-145.715 92.8307,-148.417 92.8307,-148.417 92.8307,-166.583 92.8307,-166.583 92.8307,-169.285 90.1288,-171.989 87.4269,-171.991 87.4269,-171.991 82.0231,-171.995 82.0231,-171.995 79.3212,-171.998 75.0833,-169.777 73.5473,-167.554"/>
<text text-anchor="middle" x="81.1" y="-153.8" font-family="Times,serif" font-size="14.00">@</text>
</a>
</g>
</g>
<!-- nd154&#45;&gt;nd155 -->
<g id="edge14" class="edge"><title>nd154:e&#45;&gt;nd155:w</title>
<path fill="none" stroke="black" d="M48.1,-129.5C63.0154,-129.5 51.6846,-157.5 66.6,-157.5"/>
</g>
<!-- nd165 -->
<g id="node16" class="node"><title>nd165</title>
<g id="a_node16"><a xlink:title="nd165&#45;BinOpGraph">
<ellipse fill="none" stroke="#000000" cx="127.1" cy="-85.5" rx="14.5" ry="14.5"/>
<text text-anchor="middle" x="127.1" y="-81.8" font-family="Times,serif" font-size="14.00">+</text>
</a>
</g>
</g>
<!-- nd154&#45;&gt;nd165 -->
<g id="edge15" class="edge"><title>nd154:s&#45;&gt;nd165:w</title>
<path fill="none" stroke="#b70000" d="M35.1,-113.5C35.1,-76.8765 75.9765,-85.5 112.6,-85.5"/>
</g>
<!-- nd155&#45;&gt;nd237 -->
<g id="edge10" class="edge"><title>nd155:e&#45;&gt;nd237:w</title>
<path fill="none" stroke="black" d="M94.1,-157.5C108.274,-157.5 100.926,-181.5 115.1,-181.5"/>
</g>
<!-- nd157 -->
<g id="node14" class="node"><title>nd157</title>
<g id="a_node14"><a xlink:title="nd157&#45;AppGraph">
<path fill="none" stroke="#000000" d="M119.547,-152.554C119.547,-152.554 115.672,-146.946 115.672,-146.946 114.136,-144.723 114.136,-140.277 115.672,-138.054 115.672,-138.054 119.547,-132.446 119.547,-132.446 121.083,-130.223 125.321,-128.002 128.023,-128.005 128.023,-128.005 133.427,-128.009 133.427,-128.009 136.129,-128.011 138.831,-130.715 138.831,-133.417 138.831,-133.417 138.831,-151.583 138.831,-151.583 138.831,-154.285 136.129,-156.989 133.427,-156.991 133.427,-156.991 128.023,-156.995 128.023,-156.995 125.321,-156.998 121.083,-154.777 119.547,-152.554"/>
<text text-anchor="middle" x="127.1" y="-138.8" font-family="Times,serif" font-size="14.00">@</text>
</a>
</g>
</g>
<!-- nd155&#45;&gt;nd157 -->
<g id="edge11" class="edge"><title>nd155:s&#45;&gt;nd157:w</title>
<path fill="none" stroke="black" d="M81.1,-141.5C81.1,-127.493 98.5929,-142.5 112.6,-142.5"/>
</g>
<!-- ndcluster_nd160 -->
<g id="node15" class="node"><title>ndcluster_nd160</title>
<g id="a_node15"><a xlink:title="nd160">
<ellipse fill="orange" stroke="orange" cx="173.1" cy="-147.5" rx="1.8" ry="1.8"/>
</a>
</g>
</g>
<!-- nd157&#45;&gt;ndcluster_nd160 -->
<g id="edge9" class="edge"><title>nd157:e&#45;&gt;ndcluster_nd160:w</title>
<path fill="none" stroke="black" d="M140.1,-142.5C153.617,-142.5 156.583,-147.5 170.1,-147.5"/>
</g>
<!-- nd173 -->
<g id="node18" class="node"><title>nd173</title>
<g id="a_node18"><a xlink:title="nd173&#45;ContractGraph">
<ellipse fill="black" stroke="black" cx="173.1" cy="-127.5" rx="1.8" ry="1.8"/>
</a>
</g>
</g>
<!-- nd157&#45;&gt;nd173 -->
<g id="edge17" class="edge"><title>nd157:s&#45;&gt;nd173:w</title>
<path fill="none" stroke="black" d="M127.1,-126.5C127.1,-107.384 150.984,-127.5 170.1,-127.5"/>
</g>
<!-- nd166 -->
<g id="node17" class="node"><title>nd166</title>
<g id="a_node17"><a xlink:title="nd166&#45;AppGraph">
<path fill="none" stroke="#000000" d="M165.547,-80.5543C165.547,-80.5543 161.672,-74.9457 161.672,-74.9457 160.136,-72.7229 160.136,-68.2771 161.672,-66.0543 161.672,-66.0543 165.547,-60.4457 165.547,-60.4457 167.083,-58.2229 171.321,-56.0023 174.023,-56.0045 174.023,-56.0045 179.427,-56.009 179.427,-56.009 182.129,-56.0113 184.831,-58.7155 184.831,-61.4174 184.831,-61.4174 184.831,-79.5826 184.831,-79.5826 184.831,-82.2845 182.129,-84.9887 179.427,-84.991 179.427,-84.991 174.023,-84.9955 174.023,-84.9955 171.321,-84.9977 167.083,-82.7771 165.547,-80.5543"/>
<text text-anchor="middle" x="173.1" y="-66.8" font-family="Times,serif" font-size="14.00">@</text>
</a>
</g>
</g>
<!-- nd165&#45;&gt;nd166 -->
<g id="edge13" class="edge"><title>nd165:s&#45;&gt;nd166:w</title>
<path fill="none" stroke="#b70000" d="M127.1,-69.5C127.1,-55.4929 144.593,-70.5 158.6,-70.5"/>
</g>
<!-- nd174 -->
<g id="node19" class="node"><title>nd174</title>
<g id="a_node19"><a xlink:title="nd174&#45;ContractGraph">
<ellipse fill="black" stroke="black" cx="173.1" cy="-99.5" rx="1.8" ry="1.8"/>
</a>
</g>
</g>
<!-- nd165&#45;&gt;nd174 -->
<g id="edge19" class="edge"><title>nd165:n&#45;&gt;nd174:w</title>
<path fill="none" stroke="black" d="M127.1,-101.5C127.1,-120.632 150.968,-99.5 170.1,-99.5"/>
</g>
<!-- nd296 -->
<g id="node22" class="node"><title>nd296</title>
<g id="a_node22"><a xlink:title="nd296&#45;ConstListGraph">
<path fill="none" stroke="purple" d="M220.267,-71C220.267,-71 229.933,-71 229.933,-71 234.767,-71 239.6,-66.1667 239.6,-61.3333 239.6,-61.3333 239.6,-51.6667 239.6,-51.6667 239.6,-46.8333 234.767,-42 229.933,-42 229.933,-42 220.267,-42 220.267,-42 215.433,-42 210.6,-46.8333 210.6,-51.6667 210.6,-51.6667 210.6,-61.3333 210.6,-61.3333 210.6,-66.1667 215.433,-71 220.267,-71"/>
<text text-anchor="middle" x="225.1" y="-52.8" font-family="Times,serif" font-size="14.00">::</text>
</a>
</g>
</g>
<!-- nd166&#45;&gt;nd296 -->
<g id="edge16" class="edge"><title>nd166:s&#45;&gt;nd296:w</title>
<path fill="none" stroke="black" d="M173.1,-54.5C173.1,-37.8096 193.91,-56.5 210.6,-56.5"/>
<text text-anchor="middle" x="199.1" y="-59.3" font-family="Times,serif" font-size="14.00">x</text>
</g>
<!-- nd170 -->
<g id="node25" class="node"><title>nd170</title>
<g id="a_node25"><a xlink:title="nd170&#45;AbsGraph">
<ellipse fill="none" stroke="#000000" cx="225.1" cy="-14.5" rx="14.5" ry="14.5"/>
<text text-anchor="middle" x="225.1" y="-10.8" font-family="Times,serif" font-size="14.00">fun</text>
</a>
</g>
</g>
<!-- nd166&#45;&gt;nd170 -->
<g id="edge12" class="edge"><title>nd166:e&#45;&gt;nd170:w</title>
<path fill="none" stroke="#b70000" d="M186.1,-70.5C194.675,-70.5 197.765,-67.5818 202.6,-60.5 208.45,-51.9311 200.224,-14.5 210.6,-14.5"/>
</g>
<!-- nd173&#45;&gt;nd194 -->
<g id="edge21" class="edge"><title>nd173:e&#45;&gt;nd194:w</title>
<path fill="none" stroke="black" d="M176.1,-127.5C192.486,-127.5 194.214,-140.5 210.6,-140.5"/>
<text text-anchor="middle" x="199.1" y="-142.3" font-family="Times,serif" font-size="14.00">x</text>
</g>
<!-- nd174&#45;&gt;nd232 -->
<g id="edge20" class="edge"><title>nd174:e&#45;&gt;nd232:w</title>
<path fill="none" stroke="black" d="M176.1,-99.5C191.44,-99.5 195.26,-98.5 210.6,-98.5"/>
<text text-anchor="middle" x="199.1" y="-103.3" font-family="Times,serif" font-size="14.00">y</text>
</g>
<!-- nd286 -->
<g id="node20" class="node"><title>nd286</title>
<g id="a_node20"><a xlink:title="nd286&#45;ContractGraph">
<ellipse fill="black" stroke="black" cx="341.4" cy="-104.5" rx="1.8" ry="1.8"/>
</a>
</g>
</g>
<!-- nd286&#45;&gt;nd22 -->
<g id="edge22" class="edge"><title>nd286:e&#45;&gt;nd22:w</title>
<path fill="none" stroke="black" d="M343.2,-104.5C350.756,-104.5 352.644,-104.5 360.2,-104.5"/>
</g>
<!-- nd287 -->
<g id="node21" class="node"><title>nd287</title>
<g id="a_node21"><a xlink:title="nd287&#45;ContractGraph">
<ellipse fill="black" stroke="black" cx="341.4" cy="-61.5" rx="1.8" ry="1.8"/>
</a>
</g>
</g>
<!-- nd287&#45;&gt;nd188 -->
<g id="edge23" class="edge"><title>nd287:e&#45;&gt;nd188:w</title>
<path fill="none" stroke="black" d="M343.2,-61.5C350.756,-61.5 352.644,-61.5 360.2,-61.5"/>
</g>
<!-- nd296&#45;&gt;nd299 -->
<g id="edge28" class="edge"><title>nd296:n&#45;&gt;nd299:w</title>
<path fill="none" stroke="black" d="M225.1,-72.5C225.1,-79.3168 233.224,-75.0889 239.6,-77.5 269.052,-88.6371 273.613,-104.5 305.1,-104.5"/>
</g>
<!-- nd296&#45;&gt;nd300 -->
<g id="edge29" class="edge"><title>nd296:s&#45;&gt;nd300:w</title>
<path fill="none" stroke="black" d="M225.1,-40.5C225.1,-34.0402 233.546,-39.2475 239.6,-41.5 243.765,-43.0498 243.581,-45.6022 247.6,-47.5 271.384,-58.7309 278.798,-61.5 305.1,-61.5"/>
</g>
<!-- nd299&#45;&gt;nd286 -->
<g id="edge26" class="edge"><title>nd299:e&#45;&gt;nd286:w</title>
<path fill="none" stroke="black" d="M311.1,-104.5C323.767,-104.5 326.933,-104.5 339.6,-104.5"/>
</g>
<!-- nd300&#45;&gt;nd287 -->
<g id="edge27" class="edge"><title>nd300:e&#45;&gt;nd287:w</title>
<path fill="none" stroke="black" d="M311.1,-61.5C323.767,-61.5 326.933,-61.5 339.6,-61.5"/>
</g>
<!-- nd171 -->
<g id="node26" class="node"><title>nd171</title>
<g id="a_node26"><a xlink:title="nd171&#45;UnOpGraph">
<ellipse fill="none" stroke="#000000" cx="308.1" cy="-20.5" rx="14.5" ry="14.5"/>
<text text-anchor="middle" x="308.1" y="-16.8" font-family="Times,serif" font-size="14.00">hd</text>
</a>
</g>
</g>
<!-- nd170&#45;&gt;nd171 -->
<g id="edge7" class="edge"><title>nd170:e&#45;&gt;nd171:w</title>
<path fill="none" stroke="red" d="M239.6,-14.5C257.426,-14.5 264.069,-12.1225 283.868,-17.5465"/>
<polygon fill="red" stroke="red" points="283.015,-20.9452 293.6,-20.5 285.047,-14.2469 283.015,-20.9452"/>
</g>
<!-- nd170&#45;&gt;nd171 -->
<g id="edge8" class="edge"><title>nd170:n&#45;&gt;nd171:e</title>
<path fill="none" stroke="grey" d="M225.1,-30.5C225.1,-40.5099 237.593,-29.7223 247.6,-29.5 264.485,-29.125 269.471,-24.4905 285.6,-29.5 289.721,-30.7798 289.479,-33.7202 293.6,-35 306.121,-38.8889 313.515,-43.9463 323.1,-35 324.281,-33.8981 325.715,-20.5 324.1,-20.5"/>
<text text-anchor="middle" x="266.6" y="-34.3" font-family="Times,serif" font-size="14.00">op_arg</text>
</g>
</g>
</svg>
