<?xml version="1.0" encoding="UTF-8" standalone="no"?>
<!DOCTYPE svg PUBLIC "-//W3C//DTD SVG 1.1//EN"
 "http://www.w3.org/Graphics/SVG/1.1/DTD/svg11.dtd">
<!-- Generated by graphviz version 2.38.0 (20140413.2041)
 -->
<!-- Title: G Pages: 1 -->
<svg width="662pt" height="203pt"
 viewBox="0.00 0.00 662.00 203.22" xmlns="http://www.w3.org/2000/svg" xmlns:xlink="http://www.w3.org/1999/xlink">
<g id="graph0" class="graph" transform="scale(0.993696 0.993696) rotate(0) translate(4 200.505)">
<title>G</title>
<polygon fill="white" stroke="none" points="-4,4 -4,-200.505 662.2,-200.505 662.2,4 -4,4"/>
<g id="clust1" class="cluster"><title>cluster_nd140</title>
<polygon fill="none" stroke="orange" points="286.3,-157.242 286.3,-177.242 305.9,-177.242 305.9,-157.242 286.3,-157.242"/>
</g>
<g id="clust2" class="cluster"><title>cluster_nd91</title>
<polygon fill="none" stroke="orange" points="284.3,-68.2423 284.3,-111.242 307.9,-111.242 307.9,-68.2423 284.3,-68.2423"/>
<text text-anchor="middle" x="296.1" y="-96.0423" font-family="Times,serif" font-size="14.00">tl</text>
</g>
<g id="clust3" class="cluster"><title>cluster_nd110</title>
<polygon fill="none" stroke="orange" points="281.3,-17.2423 281.3,-60.2423 310.9,-60.2423 310.9,-17.2423 281.3,-17.2423"/>
<text text-anchor="middle" x="296.1" y="-45.0423" font-family="Times,serif" font-size="14.00">hd</text>
</g>
<!-- nd1 -->
<g id="node1" class="node"><title>nd1</title>
<ellipse fill="black" stroke="black" cx="1.8" cy="-155.242" rx="1.8" ry="1.8"/>
</g>
<!-- nd67 -->
<g id="node14" class="node"><title>nd67</title>
<g id="a_node14"><a xlink:title="nd67&#45;IfGraph">
<ellipse fill="none" stroke="#000000" cx="35.1" cy="-155.242" rx="14.5" ry="14.5"/>
<text text-anchor="middle" x="35.1" y="-151.542" font-family="Times,serif" font-size="14.00">if</text>
</a>
</g>
</g>
<!-- nd1&#45;&gt;nd67 -->
<g id="edge24" class="edge"><title>nd1:e&#45;&gt;nd67:w</title>
<path fill="none" stroke="#b70000" d="M3.6,-155.242C11.1556,-155.242 13.0444,-155.242 20.6,-155.242"/>
</g>
<!-- nd136 -->
<g id="node2" class="node"><title>nd136</title>
<g id="a_node2"><a xlink:title="nd136&#45;RecurGraph">
<ellipse fill="none" stroke="#000000" cx="244.1" cy="-154.242" rx="11" ry="11"/>
<text text-anchor="middle" x="244.1" y="-150.542" font-family="Times,serif" font-size="14.00">rec</text>
</a>
</g>
</g>
<!-- ndcluster_nd140 -->
<g id="node3" class="node"><title>ndcluster_nd140</title>
<g id="a_node3"><a xlink:title="nd140">
<ellipse fill="orange" stroke="orange" cx="296.1" cy="-167.242" rx="1.8" ry="1.8"/>
</a>
</g>
</g>
<!-- nd136&#45;&gt;ndcluster_nd140 -->
<g id="edge27" class="edge"><title>nd136:n&#45;&gt;ndcluster_nd140:e</title>
<path fill="none" stroke="grey" d="M244.1,-166.242C244.1,-188.588 271.963,-168.42 294.3,-169.042 295.988,-169.089 296.644,-169.899 298.1,-169.042 298.889,-168.578 300.015,-167.242 299.1,-167.242"/>
</g>
<!-- nd136&#45;&gt;ndcluster_nd140 -->
<g id="edge28" class="edge"><title>nd136:e&#45;&gt;ndcluster_nd140:w</title>
<path fill="none" stroke="black" d="M256.1,-154.242C273.53,-154.242 275.67,-167.242 293.1,-167.242"/>
</g>
<!-- nd16 -->
<g id="node4" class="node"><title>nd16</title>
<g id="a_node4"><a xlink:title="nd16&#45;ConstGraph">
<path fill="none" stroke="purple" d="M500.867,-164.742C500.867,-164.742 510.533,-164.742 510.533,-164.742 515.367,-164.742 520.2,-159.909 520.2,-155.076 520.2,-155.076 520.2,-145.409 520.2,-145.409 520.2,-140.576 515.367,-135.742 510.533,-135.742 510.533,-135.742 500.867,-135.742 500.867,-135.742 496.033,-135.742 491.2,-140.576 491.2,-145.409 491.2,-145.409 491.2,-155.076 491.2,-155.076 491.2,-159.909 496.033,-164.742 500.867,-164.742"/>
<text text-anchor="middle" x="505.7" y="-146.542" font-family="Times,serif" font-size="14.00">1</text>
</a>
</g>
</g>
<!-- nd22 -->
<g id="node5" class="node"><title>nd22</title>
<g id="a_node5"><a xlink:title="nd22&#45;ConstGraph">
<path fill="none" stroke="purple" d="M546.867,-137.742C546.867,-137.742 556.533,-137.742 556.533,-137.742 561.367,-137.742 566.2,-132.909 566.2,-128.076 566.2,-128.076 566.2,-118.409 566.2,-118.409 566.2,-113.576 561.367,-108.742 556.533,-108.742 556.533,-108.742 546.867,-108.742 546.867,-108.742 542.033,-108.742 537.2,-113.576 537.2,-118.409 537.2,-118.409 537.2,-128.076 537.2,-128.076 537.2,-132.909 542.033,-137.742 546.867,-137.742"/>
<text text-anchor="middle" x="551.7" y="-119.542" font-family="Times,serif" font-size="14.00">2</text>
</a>
</g>
</g>
<!-- nd28 -->
<g id="node6" class="node"><title>nd28</title>
<g id="a_node6"><a xlink:title="nd28&#45;ConstGraph">
<path fill="none" stroke="purple" d="M592.867,-116.742C592.867,-116.742 602.533,-116.742 602.533,-116.742 607.367,-116.742 612.2,-111.909 612.2,-107.076 612.2,-107.076 612.2,-97.409 612.2,-97.409 612.2,-92.5756 607.367,-87.7423 602.533,-87.7423 602.533,-87.7423 592.867,-87.7423 592.867,-87.7423 588.033,-87.7423 583.2,-92.5756 583.2,-97.409 583.2,-97.409 583.2,-107.076 583.2,-107.076 583.2,-111.909 588.033,-116.742 592.867,-116.742"/>
<text text-anchor="middle" x="597.7" y="-98.5423" font-family="Times,serif" font-size="14.00">3</text>
</a>
</g>
</g>
<!-- nd34 -->
<g id="node7" class="node"><title>nd34</title>
<g id="a_node7"><a xlink:title="nd34&#45;ConstGraph">
<path fill="none" stroke="purple" d="M638.867,-95.7423C638.867,-95.7423 648.533,-95.7423 648.533,-95.7423 653.367,-95.7423 658.2,-90.909 658.2,-86.0756 658.2,-86.0756 658.2,-76.409 658.2,-76.409 658.2,-71.5756 653.367,-66.7423 648.533,-66.7423 648.533,-66.7423 638.867,-66.7423 638.867,-66.7423 634.033,-66.7423 629.2,-71.5756 629.2,-76.409 629.2,-76.409 629.2,-86.0756 629.2,-86.0756 629.2,-90.909 634.033,-95.7423 638.867,-95.7423"/>
<text text-anchor="middle" x="643.7" y="-77.5423" font-family="Times,serif" font-size="14.00">4</text>
</a>
</g>
</g>
<!-- nd39 -->
<g id="node8" class="node"><title>nd39</title>
<g id="a_node8"><a xlink:title="nd39&#45;ConstEmptyGraph">
<path fill="none" stroke="purple" d="M638.867,-53.7423C638.867,-53.7423 648.533,-53.7423 648.533,-53.7423 653.367,-53.7423 658.2,-48.909 658.2,-44.0756 658.2,-44.0756 658.2,-34.409 658.2,-34.409 658.2,-29.5756 653.367,-24.7423 648.533,-24.7423 648.533,-24.7423 638.867,-24.7423 638.867,-24.7423 634.033,-24.7423 629.2,-29.5756 629.2,-34.409 629.2,-34.409 629.2,-44.0756 629.2,-44.0756 629.2,-48.909 634.033,-53.7423 638.867,-53.7423"/>
<text text-anchor="middle" x="643.7" y="-35.5423" font-family="Times,serif" font-size="14.00">[]</text>
</a>
</g>
</g>
<!-- nd50 -->
<g id="node9" class="node"><title>nd50</title>
<g id="a_node9"><a xlink:title="nd50&#45;ConstGraph">
<path fill="none" stroke="purple" d="M291.267,-148.742C291.267,-148.742 300.933,-148.742 300.933,-148.742 305.767,-148.742 310.6,-143.909 310.6,-139.076 310.6,-139.076 310.6,-129.409 310.6,-129.409 310.6,-124.576 305.767,-119.742 300.933,-119.742 300.933,-119.742 291.267,-119.742 291.267,-119.742 286.433,-119.742 281.6,-124.576 281.6,-129.409 281.6,-129.409 281.6,-139.076 281.6,-139.076 281.6,-143.909 286.433,-148.742 291.267,-148.742"/>
<text text-anchor="middle" x="296.1" y="-130.542" font-family="Times,serif" font-size="14.00">0</text>
</a>
</g>
</g>
<!-- nd182 -->
<g id="node10" class="node"><title>nd182</title>
<g id="a_node10"><a xlink:title="nd182&#45;ConstListGraph">
<path fill="none" stroke="purple" d="M592.867,-74.7423C592.867,-74.7423 602.533,-74.7423 602.533,-74.7423 607.367,-74.7423 612.2,-69.909 612.2,-65.0756 612.2,-65.0756 612.2,-55.409 612.2,-55.409 612.2,-50.5756 607.367,-45.7423 602.533,-45.7423 602.533,-45.7423 592.867,-45.7423 592.867,-45.7423 588.033,-45.7423 583.2,-50.5756 583.2,-55.409 583.2,-55.409 583.2,-65.0756 583.2,-65.0756 583.2,-69.909 588.033,-74.7423 592.867,-74.7423"/>
<text text-anchor="middle" x="597.7" y="-56.5423" font-family="Times,serif" font-size="14.00">::</text>
</a>
</g>
</g>
<!-- nd182&#45;&gt;nd34 -->
<g id="edge1" class="edge"><title>nd182:n&#45;&gt;nd34:w</title>
<path fill="none" stroke="purple" d="M597.7,-76.2423C597.7,-79.7861 625.656,-81.2423 629.2,-81.2423"/>
</g>
<!-- nd182&#45;&gt;nd39 -->
<g id="edge2" class="edge"><title>nd182:s&#45;&gt;nd39:w</title>
<path fill="none" stroke="purple" d="M597.7,-44.2423C597.7,-30.067 615.025,-39.2423 629.2,-39.2423"/>
</g>
<!-- nd188 -->
<g id="node11" class="node"><title>nd188</title>
<g id="a_node11"><a xlink:title="nd188&#45;ConstListGraph">
<path fill="none" stroke="purple" d="M546.867,-95.7423C546.867,-95.7423 556.533,-95.7423 556.533,-95.7423 561.367,-95.7423 566.2,-90.909 566.2,-86.0756 566.2,-86.0756 566.2,-76.409 566.2,-76.409 566.2,-71.5756 561.367,-66.7423 556.533,-66.7423 556.533,-66.7423 546.867,-66.7423 546.867,-66.7423 542.033,-66.7423 537.2,-71.5756 537.2,-76.409 537.2,-76.409 537.2,-86.0756 537.2,-86.0756 537.2,-90.909 542.033,-95.7423 546.867,-95.7423"/>
<text text-anchor="middle" x="551.7" y="-77.5423" font-family="Times,serif" font-size="14.00">::</text>
</a>
</g>
</g>
<!-- nd188&#45;&gt;nd28 -->
<g id="edge3" class="edge"><title>nd188:n&#45;&gt;nd28:w</title>
<path fill="none" stroke="purple" d="M551.7,-97.2423C551.7,-100.786 579.656,-102.242 583.2,-102.242"/>
</g>
<!-- nd188&#45;&gt;nd182 -->
<g id="edge4" class="edge"><title>nd188:s&#45;&gt;nd182:w</title>
<path fill="none" stroke="purple" d="M551.7,-65.2423C551.7,-51.067 569.025,-60.2423 583.2,-60.2423"/>
</g>
<!-- nd194 -->
<g id="node12" class="node"><title>nd194</title>
<g id="a_node12"><a xlink:title="nd194&#45;ConstListGraph">
<path fill="none" stroke="purple" d="M500.867,-116.742C500.867,-116.742 510.533,-116.742 510.533,-116.742 515.367,-116.742 520.2,-111.909 520.2,-107.076 520.2,-107.076 520.2,-97.409 520.2,-97.409 520.2,-92.5756 515.367,-87.7423 510.533,-87.7423 510.533,-87.7423 500.867,-87.7423 500.867,-87.7423 496.033,-87.7423 491.2,-92.5756 491.2,-97.409 491.2,-97.409 491.2,-107.076 491.2,-107.076 491.2,-111.909 496.033,-116.742 500.867,-116.742"/>
<text text-anchor="middle" x="505.7" y="-98.5423" font-family="Times,serif" font-size="14.00">::</text>
</a>
</g>
</g>
<!-- nd194&#45;&gt;nd22 -->
<g id="edge5" class="edge"><title>nd194:n&#45;&gt;nd22:w</title>
<path fill="none" stroke="purple" d="M505.7,-118.242C505.7,-132.418 523.025,-123.242 537.2,-123.242"/>
</g>
<!-- nd194&#45;&gt;nd188 -->
<g id="edge6" class="edge"><title>nd194:s&#45;&gt;nd188:w</title>
<path fill="none" stroke="purple" d="M505.7,-86.2423C505.7,-72.067 523.025,-81.2423 537.2,-81.2423"/>
</g>
<!-- nd200 -->
<g id="node13" class="node"><title>nd200</title>
<g id="a_node13"><a xlink:title="nd200&#45;ConstListGraph">
<path fill="none" stroke="purple" d="M434.267,-113.742C434.267,-113.742 443.933,-113.742 443.933,-113.742 448.767,-113.742 453.6,-108.909 453.6,-104.076 453.6,-104.076 453.6,-94.409 453.6,-94.409 453.6,-89.5756 448.767,-84.7423 443.933,-84.7423 443.933,-84.7423 434.267,-84.7423 434.267,-84.7423 429.433,-84.7423 424.6,-89.5756 424.6,-94.409 424.6,-94.409 424.6,-104.076 424.6,-104.076 424.6,-108.909 429.433,-113.742 434.267,-113.742"/>
<text text-anchor="middle" x="439.1" y="-95.5423" font-family="Times,serif" font-size="14.00">::</text>
</a>
</g>
</g>
<!-- nd209 -->
<g id="node26" class="node"><title>nd209</title>
<g id="a_node26"><a xlink:title="nd209&#45;ContractGraph">
<ellipse fill="black" stroke="black" cx="472.4" cy="-150.242" rx="1.8" ry="1.8"/>
</a>
</g>
</g>
<!-- nd200&#45;&gt;nd209 -->
<g id="edge7" class="edge"><title>nd200:n&#45;&gt;nd209:w</title>
<path fill="none" stroke="black" d="M439.1,-115.242C439.1,-123.607 447.849,-121.167 453.6,-127.242 462.339,-136.474 457.889,-150.242 470.6,-150.242"/>
</g>
<!-- nd210 -->
<g id="node27" class="node"><title>nd210</title>
<g id="a_node27"><a xlink:title="nd210&#45;ContractGraph">
<ellipse fill="black" stroke="black" cx="472.4" cy="-102.242" rx="1.8" ry="1.8"/>
</a>
</g>
</g>
<!-- nd200&#45;&gt;nd210 -->
<g id="edge8" class="edge"><title>nd200:s&#45;&gt;nd210:w</title>
<path fill="none" stroke="black" d="M439.1,-83.2423C439.1,-76.7825 447.759,-81.4826 453.6,-84.2423 463.549,-88.9433 459.596,-102.242 470.6,-102.242"/>
</g>
<!-- nd84 -->
<g id="node15" class="node"><title>nd84</title>
<g id="a_node15"><a xlink:title="nd84&#45;AppGraph">
<path fill="none" stroke="#000000" d="M111.547,-130.297C111.547,-130.297 107.672,-124.688 107.672,-124.688 106.136,-122.465 106.136,-118.019 107.672,-115.797 107.672,-115.797 111.547,-110.188 111.547,-110.188 113.083,-107.965 117.321,-105.745 120.023,-105.747 120.023,-105.747 125.427,-105.751 125.427,-105.751 128.129,-105.754 130.831,-108.458 130.831,-111.16 130.831,-111.16 130.831,-129.325 130.831,-129.325 130.831,-132.027 128.129,-134.731 125.427,-134.733 125.427,-134.733 120.023,-134.738 120.023,-134.738 117.321,-134.74 113.083,-132.519 111.547,-130.297"/>
<text text-anchor="middle" x="119.1" y="-116.542" font-family="Times,serif" font-size="14.00">@</text>
</a>
</g>
</g>
<!-- nd67&#45;&gt;nd84 -->
<g id="edge20" class="edge"><title>nd67:s&#45;&gt;nd84:w</title>
<path fill="none" stroke="grey" d="M35.1,-139.242C35.1,-127.165 78.9954,-120.242 104.6,-120.242"/>
<text text-anchor="middle" x="77.1" y="-129.042" font-family="Times,serif" font-size="14.00">is false</text>
</g>
<!-- nd125 -->
<g id="node23" class="node"><title>nd125</title>
<g id="a_node23"><a xlink:title="nd125&#45;ContractGraph">
<ellipse fill="black" stroke="black" cx="244.1" cy="-127.242" rx="1.8" ry="1.8"/>
</a>
</g>
</g>
<!-- nd67&#45;&gt;nd125 -->
<g id="edge22" class="edge"><title>nd67:e&#45;&gt;nd125:w</title>
<path fill="none" stroke="grey" d="M49.6,-155.242C122.311,-155.242 142.545,-160.717 212.6,-141.242 226.197,-137.463 226.988,-127.242 241.1,-127.242"/>
<text text-anchor="middle" x="158.6" y="-158.042" font-family="Times,serif" font-size="14.00">is true</text>
</g>
<!-- nd73 -->
<g id="node28" class="node"><title>nd73</title>
<g id="a_node28"><a xlink:title="nd73&#45;UnOpGraph">
<ellipse fill="none" stroke="#000000" cx="342.1" cy="-158.242" rx="14.5" ry="14.5"/>
<text text-anchor="middle" x="342.1" y="-154.542" font-family="Times,serif" font-size="14.00">empty</text>
</a>
</g>
</g>
<!-- nd67&#45;&gt;nd73 -->
<g id="edge9" class="edge"><title>nd67:n&#45;&gt;nd73:w</title>
<path fill="none" stroke="#b70000" d="M35.1,-171.242C35.1,-209.294 80.0487,-192.242 118.1,-192.242 118.1,-192.242 118.1,-192.242 297.1,-192.242 305.228,-192.242 305.347,-186.177 310.9,-180.242 319.287,-171.278 315.324,-158.242 327.6,-158.242"/>
</g>
<!-- nd85 -->
<g id="node16" class="node"><title>nd85</title>
<g id="a_node16"><a xlink:title="nd85&#45;AppGraph">
<path fill="none" stroke="#000000" d="M190.547,-130.297C190.547,-130.297 186.672,-124.688 186.672,-124.688 185.136,-122.465 185.136,-118.019 186.672,-115.797 186.672,-115.797 190.547,-110.188 190.547,-110.188 192.083,-107.965 196.321,-105.745 199.023,-105.747 199.023,-105.747 204.427,-105.751 204.427,-105.751 207.129,-105.754 209.831,-108.458 209.831,-111.16 209.831,-111.16 209.831,-129.325 209.831,-129.325 209.831,-132.027 207.129,-134.731 204.427,-134.733 204.427,-134.733 199.023,-134.738 199.023,-134.738 196.321,-134.74 192.083,-132.519 190.547,-130.297"/>
<text text-anchor="middle" x="198.1" y="-116.542" font-family="Times,serif" font-size="14.00">@</text>
</a>
</g>
</g>
<!-- nd84&#45;&gt;nd85 -->
<g id="edge16" class="edge"><title>nd84:e&#45;&gt;nd85:w</title>
<path fill="none" stroke="black" d="M132.1,-120.242C154.989,-120.242 160.711,-120.242 183.6,-120.242"/>
</g>
<!-- nd105 -->
<g id="node19" class="node"><title>nd105</title>
<g id="a_node19"><a xlink:title="nd105&#45;BinOpGraph">
<ellipse fill="none" stroke="#000000" cx="198.1" cy="-71.2423" rx="14.5" ry="14.5"/>
<text text-anchor="middle" x="198.1" y="-67.5423" font-family="Times,serif" font-size="14.00">+</text>
</a>
</g>
</g>
<!-- nd84&#45;&gt;nd105 -->
<g id="edge17" class="edge"><title>nd84:s&#45;&gt;nd105:w</title>
<path fill="none" stroke="black" d="M119.1,-104.242C119.1,-72.0415 151.399,-71.2423 183.6,-71.2423"/>
</g>
<!-- nd85&#45;&gt;nd136 -->
<g id="edge12" class="edge"><title>nd85:e&#45;&gt;nd136:w</title>
<path fill="none" stroke="black" d="M211.1,-120.242C228.861,-120.242 214.339,-154.242 232.1,-154.242"/>
</g>
<!-- nd89 -->
<g id="node17" class="node"><title>nd89</title>
<g id="a_node17"><a xlink:title="nd89&#45;AppGraph">
<path fill="none" stroke="#000000" d="M236.547,-88.2965C236.547,-88.2965 232.672,-82.688 232.672,-82.688 231.136,-80.4652 231.136,-76.0194 232.672,-73.7965 232.672,-73.7965 236.547,-68.188 236.547,-68.188 238.083,-65.9652 242.321,-63.7445 245.023,-63.7468 245.023,-63.7468 250.427,-63.7513 250.427,-63.7513 253.129,-63.7536 255.831,-66.4577 255.831,-69.1597 255.831,-69.1597 255.831,-87.3249 255.831,-87.3249 255.831,-90.0268 253.129,-92.731 250.427,-92.7333 250.427,-92.7333 245.023,-92.7378 245.023,-92.7378 242.321,-92.74 238.083,-90.5194 236.547,-88.2965"/>
<text text-anchor="middle" x="244.1" y="-74.5423" font-family="Times,serif" font-size="14.00">@</text>
</a>
</g>
</g>
<!-- nd85&#45;&gt;nd89 -->
<g id="edge13" class="edge"><title>nd85:s&#45;&gt;nd89:w</title>
<path fill="none" stroke="black" d="M198.1,-104.242C198.1,-104.171 229.529,-78.2423 229.6,-78.2423"/>
</g>
<!-- ndcluster_nd91 -->
<g id="node18" class="node"><title>ndcluster_nd91</title>
<g id="a_node18"><a xlink:title="nd91">
<ellipse fill="orange" stroke="orange" cx="296.1" cy="-78.2423" rx="1.8" ry="1.8"/>
</a>
</g>
</g>
<!-- nd89&#45;&gt;ndcluster_nd91 -->
<g id="edge11" class="edge"><title>nd89:e&#45;&gt;ndcluster_nd91:w</title>
<path fill="none" stroke="black" d="M257.1,-78.2423C273.1,-78.2423 277.1,-78.2423 293.1,-78.2423"/>
</g>
<!-- nd123 -->
<g id="node22" class="node"><title>nd123</title>
<g id="a_node22"><a xlink:title="nd123&#45;ContractGraph">
<ellipse fill="black" stroke="black" cx="296.1" cy="-7.24229" rx="1.8" ry="1.8"/>
</a>
</g>
</g>
<!-- nd89&#45;&gt;nd123 -->
<g id="edge19" class="edge"><title>nd89:s&#45;&gt;nd123:w</title>
<path fill="none" stroke="black" d="M244.1,-62.2423C244.1,-53.2842 252.858,-55.1179 258.6,-48.2423 273.866,-29.9634 269.285,-7.24229 293.1,-7.24229"/>
</g>
<!-- nd108 -->
<g id="node20" class="node"><title>nd108</title>
<g id="a_node20"><a xlink:title="nd108&#45;AppGraph">
<path fill="none" stroke="#000000" d="M236.547,-37.2965C236.547,-37.2965 232.672,-31.688 232.672,-31.688 231.136,-29.4652 231.136,-25.0194 232.672,-22.7965 232.672,-22.7965 236.547,-17.188 236.547,-17.188 238.083,-14.9652 242.321,-12.7445 245.023,-12.7468 245.023,-12.7468 250.427,-12.7513 250.427,-12.7513 253.129,-12.7536 255.831,-15.4577 255.831,-18.1597 255.831,-18.1597 255.831,-36.3249 255.831,-36.3249 255.831,-39.0268 253.129,-41.731 250.427,-41.7333 250.427,-41.7333 245.023,-41.7378 245.023,-41.7378 242.321,-41.74 238.083,-39.5194 236.547,-37.2965"/>
<text text-anchor="middle" x="244.1" y="-23.5423" font-family="Times,serif" font-size="14.00">@</text>
</a>
</g>
</g>
<!-- nd105&#45;&gt;nd108 -->
<g id="edge15" class="edge"><title>nd105:s&#45;&gt;nd108:w</title>
<path fill="none" stroke="black" d="M198.1,-55.2423C198.1,-36.5109 210.869,-27.2423 229.6,-27.2423"/>
</g>
<!-- nd105&#45;&gt;nd125 -->
<g id="edge21" class="edge"><title>nd105:n&#45;&gt;nd125:w</title>
<path fill="none" stroke="black" d="M198.1,-87.2423C198.1,-95.6074 206.389,-93.6393 212.6,-99.2423 225.785,-111.136 223.343,-127.242 241.1,-127.242"/>
</g>
<!-- ndcluster_nd110 -->
<g id="node21" class="node"><title>ndcluster_nd110</title>
<g id="a_node21"><a xlink:title="nd110">
<ellipse fill="orange" stroke="orange" cx="296.1" cy="-27.2423" rx="1.8" ry="1.8"/>
</a>
</g>
</g>
<!-- nd108&#45;&gt;ndcluster_nd110 -->
<g id="edge14" class="edge"><title>nd108:e&#45;&gt;ndcluster_nd110:w</title>
<path fill="none" stroke="black" d="M257.1,-27.2423C273.1,-27.2423 277.1,-27.2423 293.1,-27.2423"/>
</g>
<!-- nd108&#45;&gt;nd123 -->
<g id="edge18" class="edge"><title>nd108:s&#45;&gt;nd123:w</title>
<path fill="none" stroke="black" d="M244.1,-11.2423C244.1,10.6079 271.25,-7.24229 293.1,-7.24229"/>
</g>
<!-- nd126 -->
<g id="node24" class="node"><title>nd126</title>
<g id="a_node24"><a xlink:title="nd126&#45;ContractGraph">
<ellipse fill="black" stroke="black" cx="342.1" cy="-92.2423" rx="1.8" ry="1.8"/>
</a>
</g>
</g>
<!-- nd123&#45;&gt;nd126 -->
<g id="edge23" class="edge"><title>nd123:e&#45;&gt;nd126:w</title>
<path fill="none" stroke="black" d="M299.1,-7.24229C340.852,-7.24229 297.348,-92.2423 339.1,-92.2423"/>
</g>
<!-- nd125&#45;&gt;nd50 -->
<g id="edge25" class="edge"><title>nd125:e&#45;&gt;nd50:w</title>
<path fill="none" stroke="black" d="M247.1,-127.242C258.911,-127.242 262.409,-125.464 273.6,-129.242 277.466,-130.548 277.22,-134.242 281.3,-134.242"/>
<text text-anchor="middle" x="270.1" y="-133.042" font-family="Times,serif" font-size="14.00">y</text>
</g>
<!-- nd126&#45;&gt;nd200 -->
<g id="edge26" class="edge"><title>nd126:e&#45;&gt;nd200:w</title>
<path fill="none" stroke="black" d="M345.1,-92.2423C380.57,-92.2423 389.13,-99.2423 424.6,-99.2423"/>
<text text-anchor="middle" x="390.6" y="-102.042" font-family="Times,serif" font-size="14.00">x</text>
</g>
<!-- nd206 -->
<g id="node25" class="node"><title>nd206</title>
<g id="a_node25"><a xlink:title="nd206&#45;ConstListGraph">
<path fill="none" stroke="purple" d="M434.267,-162.742C434.267,-162.742 443.933,-162.742 443.933,-162.742 448.767,-162.742 453.6,-157.909 453.6,-153.076 453.6,-153.076 453.6,-143.409 453.6,-143.409 453.6,-138.576 448.767,-133.742 443.933,-133.742 443.933,-133.742 434.267,-133.742 434.267,-133.742 429.433,-133.742 424.6,-138.576 424.6,-143.409 424.6,-143.409 424.6,-153.076 424.6,-153.076 424.6,-157.909 429.433,-162.742 434.267,-162.742"/>
<text text-anchor="middle" x="439.1" y="-144.542" font-family="Times,serif" font-size="14.00">::</text>
</a>
</g>
</g>
<!-- nd206&#45;&gt;nd209 -->
<g id="edge31" class="edge"><title>nd206:n&#45;&gt;nd209:w</title>
<path fill="none" stroke="black" d="M439.1,-164.242C439.1,-170.702 447.556,-165.523 453.6,-163.242 462.499,-159.884 461.088,-150.242 470.6,-150.242"/>
</g>
<!-- nd206&#45;&gt;nd210 -->
<g id="edge32" class="edge"><title>nd206:s&#45;&gt;nd210:w</title>
<path fill="none" stroke="black" d="M439.1,-132.242C439.1,-123.877 447.494,-125.96 453.6,-120.242 461.632,-112.72 459.596,-102.242 470.6,-102.242"/>
</g>
<!-- nd209&#45;&gt;nd16 -->
<g id="edge29" class="edge"><title>nd209:e&#45;&gt;nd16:w</title>
<path fill="none" stroke="black" d="M474.2,-150.242C481.756,-150.242 483.644,-150.242 491.2,-150.242"/>
</g>
<!-- nd210&#45;&gt;nd194 -->
<g id="edge30" class="edge"><title>nd210:e&#45;&gt;nd194:w</title>
<path fill="none" stroke="black" d="M474.2,-102.242C481.756,-102.242 483.644,-102.242 491.2,-102.242"/>
</g>
<!-- nd73&#45;&gt;nd206 -->
<g id="edge10" class="edge"><title>nd73:e&#45;&gt;nd206:w</title>
<path fill="none" stroke="red" d="M366.741,-157.838C389.166,-155.967 397.752,-148.242 424.6,-148.242"/>
<polygon fill="red" stroke="red" points="366.453,-154.347 356.6,-158.242 366.732,-161.341 366.453,-154.347"/>
<text text-anchor="middle" x="390.6" y="-161.042" font-family="Times,serif" font-size="14.00">op_arg, x</text>
</g>
</g>
</svg>
