<?xml version="1.0" encoding="UTF-8" standalone="no"?>
<!DOCTYPE svg PUBLIC "-//W3C//DTD SVG 1.1//EN"
 "http://www.w3.org/Graphics/SVG/1.1/DTD/svg11.dtd">
<!-- Generated by graphviz version 2.38.0 (20140413.2041)
 -->
<!-- Title: G Pages: 1 -->
<svg width="528pt" height="205pt"
 viewBox="0.00 0.00 528.20 204.51" xmlns="http://www.w3.org/2000/svg" xmlns:xlink="http://www.w3.org/1999/xlink">
<g id="graph0" class="graph" transform="scale(1 1) rotate(0) translate(4 200.505)">
<title>G</title>
<polygon fill="white" stroke="none" points="-4,4 -4,-200.505 524.2,-200.505 524.2,4 -4,4"/>
<g id="clust1" class="cluster"><title>cluster_nd395</title>
<polygon fill="none" stroke="orange" points="286.3,-157.242 286.3,-177.242 305.9,-177.242 305.9,-157.242 286.3,-157.242"/>
</g>
<g id="clust2" class="cluster"><title>cluster_nd338</title>
<polygon fill="none" stroke="orange" points="284.3,-68.2423 284.3,-111.242 307.9,-111.242 307.9,-68.2423 284.3,-68.2423"/>
<text text-anchor="middle" x="296.1" y="-96.0423" font-family="Times,serif" font-size="14.00">tl</text>
</g>
<g id="clust3" class="cluster"><title>cluster_nd347</title>
<polygon fill="none" stroke="orange" points="281.3,-17.2423 281.3,-60.2423 310.9,-60.2423 310.9,-17.2423 281.3,-17.2423"/>
<text text-anchor="middle" x="296.1" y="-45.0423" font-family="Times,serif" font-size="14.00">hd</text>
</g>
<!-- nd1 -->
<g id="node1" class="node"><title>nd1</title>
<ellipse fill="black" stroke="black" cx="1.8" cy="-155.242" rx="1.8" ry="1.8"/>
</g>
<!-- nd324 -->
<g id="node8" class="node"><title>nd324</title>
<g id="a_node8"><a xlink:title="nd324&#45;IfGraph">
<ellipse fill="none" stroke="#000000" cx="35.1" cy="-155.242" rx="14.5" ry="14.5"/>
<text text-anchor="middle" x="35.1" y="-151.542" font-family="Times,serif" font-size="14.00">if</text>
</a>
</g>
</g>
<!-- nd1&#45;&gt;nd324 -->
<g id="edge20" class="edge"><title>nd1:e&#45;&gt;nd324:w</title>
<path fill="none" stroke="#b70000" d="M3.6,-155.242C11.1556,-155.242 13.0444,-155.242 20.6,-155.242"/>
</g>
<!-- nd34 -->
<g id="node2" class="node"><title>nd34</title>
<g id="a_node2"><a xlink:title="nd34&#45;ConstGraph">
<path fill="none" stroke="purple" d="M500.867,-119.742C500.867,-119.742 510.533,-119.742 510.533,-119.742 515.367,-119.742 520.2,-114.909 520.2,-110.076 520.2,-110.076 520.2,-100.409 520.2,-100.409 520.2,-95.5756 515.367,-90.7423 510.533,-90.7423 510.533,-90.7423 500.867,-90.7423 500.867,-90.7423 496.033,-90.7423 491.2,-95.5756 491.2,-100.409 491.2,-100.409 491.2,-110.076 491.2,-110.076 491.2,-114.909 496.033,-119.742 500.867,-119.742"/>
<text text-anchor="middle" x="505.7" y="-101.542" font-family="Times,serif" font-size="14.00">4</text>
</a>
</g>
</g>
<!-- nd39 -->
<g id="node3" class="node"><title>nd39</title>
<g id="a_node3"><a xlink:title="nd39&#45;ConstEmptyGraph">
<path fill="none" stroke="purple" d="M500.867,-71.7423C500.867,-71.7423 510.533,-71.7423 510.533,-71.7423 515.367,-71.7423 520.2,-66.909 520.2,-62.0756 520.2,-62.0756 520.2,-52.409 520.2,-52.409 520.2,-47.5756 515.367,-42.7423 510.533,-42.7423 510.533,-42.7423 500.867,-42.7423 500.867,-42.7423 496.033,-42.7423 491.2,-47.5756 491.2,-52.409 491.2,-52.409 491.2,-62.0756 491.2,-62.0756 491.2,-66.909 496.033,-71.7423 500.867,-71.7423"/>
<text text-anchor="middle" x="505.7" y="-53.5423" font-family="Times,serif" font-size="14.00">[]</text>
</a>
</g>
</g>
<!-- nd182 -->
<g id="node4" class="node"><title>nd182</title>
<g id="a_node4"><a xlink:title="nd182&#45;ConstListGraph">
<path fill="none" stroke="purple" d="M434.267,-68.7423C434.267,-68.7423 443.933,-68.7423 443.933,-68.7423 448.767,-68.7423 453.6,-63.909 453.6,-59.0756 453.6,-59.0756 453.6,-49.409 453.6,-49.409 453.6,-44.5756 448.767,-39.7423 443.933,-39.7423 443.933,-39.7423 434.267,-39.7423 434.267,-39.7423 429.433,-39.7423 424.6,-44.5756 424.6,-49.409 424.6,-49.409 424.6,-59.0756 424.6,-59.0756 424.6,-63.909 429.433,-68.7423 434.267,-68.7423"/>
<text text-anchor="middle" x="439.1" y="-50.5423" font-family="Times,serif" font-size="14.00">::</text>
</a>
</g>
</g>
<!-- nd440 -->
<g id="node20" class="node"><title>nd440</title>
<g id="a_node20"><a xlink:title="nd440&#45;ContractGraph">
<ellipse fill="black" stroke="black" cx="472.4" cy="-105.242" rx="1.8" ry="1.8"/>
</a>
</g>
</g>
<!-- nd182&#45;&gt;nd440 -->
<g id="edge1" class="edge"><title>nd182:n&#45;&gt;nd440:w</title>
<path fill="none" stroke="black" d="M439.1,-70.2423C439.1,-78.6074 447.849,-76.1673 453.6,-82.2423 462.339,-91.4736 457.889,-105.242 470.6,-105.242"/>
</g>
<!-- nd441 -->
<g id="node21" class="node"><title>nd441</title>
<g id="a_node21"><a xlink:title="nd441&#45;ContractGraph">
<ellipse fill="black" stroke="black" cx="472.4" cy="-57.2423" rx="1.8" ry="1.8"/>
</a>
</g>
</g>
<!-- nd182&#45;&gt;nd441 -->
<g id="edge2" class="edge"><title>nd182:s&#45;&gt;nd441:w</title>
<path fill="none" stroke="black" d="M439.1,-38.2423C439.1,-31.7825 447.759,-36.4826 453.6,-39.2423 463.549,-43.9433 459.596,-57.2423 470.6,-57.2423"/>
</g>
<!-- nd386 -->
<g id="node5" class="node"><title>nd386</title>
<g id="a_node5"><a xlink:title="nd386&#45;ConstGraph">
<path fill="none" stroke="purple" d="M291.267,-148.742C291.267,-148.742 300.933,-148.742 300.933,-148.742 305.767,-148.742 310.6,-143.909 310.6,-139.076 310.6,-139.076 310.6,-129.409 310.6,-129.409 310.6,-124.576 305.767,-119.742 300.933,-119.742 300.933,-119.742 291.267,-119.742 291.267,-119.742 286.433,-119.742 281.6,-124.576 281.6,-129.409 281.6,-129.409 281.6,-139.076 281.6,-139.076 281.6,-143.909 286.433,-148.742 291.267,-148.742"/>
<text text-anchor="middle" x="296.1" y="-130.542" font-family="Times,serif" font-size="14.00">6</text>
</a>
</g>
</g>
<!-- nd391 -->
<g id="node6" class="node"><title>nd391</title>
<g id="a_node6"><a xlink:title="nd391&#45;RecurGraph">
<ellipse fill="none" stroke="#000000" cx="244.1" cy="-154.242" rx="11" ry="11"/>
<text text-anchor="middle" x="244.1" y="-150.542" font-family="Times,serif" font-size="14.00">rec</text>
</a>
</g>
</g>
<!-- ndcluster_nd395 -->
<g id="node7" class="node"><title>ndcluster_nd395</title>
<g id="a_node7"><a xlink:title="nd395">
<ellipse fill="orange" stroke="orange" cx="296.1" cy="-167.242" rx="1.8" ry="1.8"/>
</a>
</g>
</g>
<!-- nd391&#45;&gt;ndcluster_nd395 -->
<g id="edge23" class="edge"><title>nd391:n&#45;&gt;ndcluster_nd395:e</title>
<path fill="none" stroke="grey" d="M244.1,-166.242C244.1,-188.588 271.963,-168.42 294.3,-169.042 295.988,-169.089 296.644,-169.899 298.1,-169.042 298.889,-168.578 300.015,-167.242 299.1,-167.242"/>
</g>
<!-- nd391&#45;&gt;ndcluster_nd395 -->
<g id="edge24" class="edge"><title>nd391:e&#45;&gt;ndcluster_nd395:w</title>
<path fill="none" stroke="black" d="M256.1,-154.242C273.53,-154.242 275.67,-167.242 293.1,-167.242"/>
</g>
<!-- nd332 -->
<g id="node9" class="node"><title>nd332</title>
<g id="a_node9"><a xlink:title="nd332&#45;AppGraph">
<path fill="none" stroke="#000000" d="M111.547,-130.297C111.547,-130.297 107.672,-124.688 107.672,-124.688 106.136,-122.465 106.136,-118.019 107.672,-115.797 107.672,-115.797 111.547,-110.188 111.547,-110.188 113.083,-107.965 117.321,-105.745 120.023,-105.747 120.023,-105.747 125.427,-105.751 125.427,-105.751 128.129,-105.754 130.831,-108.458 130.831,-111.16 130.831,-111.16 130.831,-129.325 130.831,-129.325 130.831,-132.027 128.129,-134.731 125.427,-134.733 125.427,-134.733 120.023,-134.738 120.023,-134.738 117.321,-134.74 113.083,-132.519 111.547,-130.297"/>
<text text-anchor="middle" x="119.1" y="-116.542" font-family="Times,serif" font-size="14.00">@</text>
</a>
</g>
</g>
<!-- nd324&#45;&gt;nd332 -->
<g id="edge16" class="edge"><title>nd324:s&#45;&gt;nd332:w</title>
<path fill="none" stroke="grey" d="M35.1,-139.242C35.1,-127.165 78.9954,-120.242 104.6,-120.242"/>
<text text-anchor="middle" x="77.1" y="-129.042" font-family="Times,serif" font-size="14.00">is false</text>
</g>
<!-- nd352 -->
<g id="node17" class="node"><title>nd352</title>
<g id="a_node17"><a xlink:title="nd352&#45;ContractGraph">
<ellipse fill="black" stroke="black" cx="244.1" cy="-127.242" rx="1.8" ry="1.8"/>
</a>
</g>
</g>
<!-- nd324&#45;&gt;nd352 -->
<g id="edge18" class="edge"><title>nd324:e&#45;&gt;nd352:w</title>
<path fill="none" stroke="grey" d="M49.6,-155.242C122.311,-155.242 142.545,-160.717 212.6,-141.242 226.197,-137.463 226.988,-127.242 241.1,-127.242"/>
<text text-anchor="middle" x="158.6" y="-158.042" font-family="Times,serif" font-size="14.00">is true</text>
</g>
<!-- nd330 -->
<g id="node22" class="node"><title>nd330</title>
<g id="a_node22"><a xlink:title="nd330&#45;UnOpGraph">
<ellipse fill="none" stroke="#000000" cx="342.1" cy="-124.242" rx="14.5" ry="14.5"/>
<text text-anchor="middle" x="342.1" y="-120.542" font-family="Times,serif" font-size="14.00">empty</text>
</a>
</g>
</g>
<!-- nd324&#45;&gt;nd330 -->
<g id="edge5" class="edge"><title>nd324:n&#45;&gt;nd330:w</title>
<path fill="none" stroke="red" d="M35.1,-171.242C35.1,-209.294 80.0487,-192.242 118.1,-192.242 118.1,-192.242 118.1,-192.242 297.1,-192.242 325.824,-192.242 302.757,-141.105 317.724,-127.522"/>
<polygon fill="red" stroke="red" points="319.213,-130.716 327.6,-124.242 317.007,-124.073 319.213,-130.716"/>
</g>
<!-- nd333 -->
<g id="node10" class="node"><title>nd333</title>
<g id="a_node10"><a xlink:title="nd333&#45;AppGraph">
<path fill="none" stroke="#000000" d="M190.547,-130.297C190.547,-130.297 186.672,-124.688 186.672,-124.688 185.136,-122.465 185.136,-118.019 186.672,-115.797 186.672,-115.797 190.547,-110.188 190.547,-110.188 192.083,-107.965 196.321,-105.745 199.023,-105.747 199.023,-105.747 204.427,-105.751 204.427,-105.751 207.129,-105.754 209.831,-108.458 209.831,-111.16 209.831,-111.16 209.831,-129.325 209.831,-129.325 209.831,-132.027 207.129,-134.731 204.427,-134.733 204.427,-134.733 199.023,-134.738 199.023,-134.738 196.321,-134.74 192.083,-132.519 190.547,-130.297"/>
<text text-anchor="middle" x="198.1" y="-116.542" font-family="Times,serif" font-size="14.00">@</text>
</a>
</g>
</g>
<!-- nd332&#45;&gt;nd333 -->
<g id="edge12" class="edge"><title>nd332:e&#45;&gt;nd333:w</title>
<path fill="none" stroke="black" d="M132.1,-120.242C154.989,-120.242 160.711,-120.242 183.6,-120.242"/>
</g>
<!-- nd343 -->
<g id="node13" class="node"><title>nd343</title>
<g id="a_node13"><a xlink:title="nd343&#45;BinOpGraph">
<ellipse fill="none" stroke="#000000" cx="198.1" cy="-71.2423" rx="14.5" ry="14.5"/>
<text text-anchor="middle" x="198.1" y="-67.5423" font-family="Times,serif" font-size="14.00">+</text>
</a>
</g>
</g>
<!-- nd332&#45;&gt;nd343 -->
<g id="edge13" class="edge"><title>nd332:s&#45;&gt;nd343:w</title>
<path fill="none" stroke="black" d="M119.1,-104.242C119.1,-72.0415 151.399,-71.2423 183.6,-71.2423"/>
</g>
<!-- nd333&#45;&gt;nd391 -->
<g id="edge8" class="edge"><title>nd333:e&#45;&gt;nd391:w</title>
<path fill="none" stroke="black" d="M211.1,-120.242C228.861,-120.242 214.339,-154.242 232.1,-154.242"/>
</g>
<!-- nd335 -->
<g id="node11" class="node"><title>nd335</title>
<g id="a_node11"><a xlink:title="nd335&#45;AppGraph">
<path fill="none" stroke="#000000" d="M236.547,-88.2965C236.547,-88.2965 232.672,-82.688 232.672,-82.688 231.136,-80.4652 231.136,-76.0194 232.672,-73.7965 232.672,-73.7965 236.547,-68.188 236.547,-68.188 238.083,-65.9652 242.321,-63.7445 245.023,-63.7468 245.023,-63.7468 250.427,-63.7513 250.427,-63.7513 253.129,-63.7536 255.831,-66.4577 255.831,-69.1597 255.831,-69.1597 255.831,-87.3249 255.831,-87.3249 255.831,-90.0268 253.129,-92.731 250.427,-92.7333 250.427,-92.7333 245.023,-92.7378 245.023,-92.7378 242.321,-92.74 238.083,-90.5194 236.547,-88.2965"/>
<text text-anchor="middle" x="244.1" y="-74.5423" font-family="Times,serif" font-size="14.00">@</text>
</a>
</g>
</g>
<!-- nd333&#45;&gt;nd335 -->
<g id="edge9" class="edge"><title>nd333:s&#45;&gt;nd335:w</title>
<path fill="none" stroke="black" d="M198.1,-104.242C198.1,-104.171 229.529,-78.2423 229.6,-78.2423"/>
</g>
<!-- ndcluster_nd338 -->
<g id="node12" class="node"><title>ndcluster_nd338</title>
<g id="a_node12"><a xlink:title="nd338">
<ellipse fill="orange" stroke="orange" cx="296.1" cy="-78.2423" rx="1.8" ry="1.8"/>
</a>
</g>
</g>
<!-- nd335&#45;&gt;ndcluster_nd338 -->
<g id="edge7" class="edge"><title>nd335:e&#45;&gt;ndcluster_nd338:w</title>
<path fill="none" stroke="black" d="M257.1,-78.2423C273.1,-78.2423 277.1,-78.2423 293.1,-78.2423"/>
</g>
<!-- nd351 -->
<g id="node16" class="node"><title>nd351</title>
<g id="a_node16"><a xlink:title="nd351&#45;ContractGraph">
<ellipse fill="black" stroke="black" cx="296.1" cy="-7.24229" rx="1.8" ry="1.8"/>
</a>
</g>
</g>
<!-- nd335&#45;&gt;nd351 -->
<g id="edge15" class="edge"><title>nd335:s&#45;&gt;nd351:w</title>
<path fill="none" stroke="black" d="M244.1,-62.2423C244.1,-53.2842 252.858,-55.1179 258.6,-48.2423 273.866,-29.9634 269.285,-7.24229 293.1,-7.24229"/>
</g>
<!-- nd344 -->
<g id="node14" class="node"><title>nd344</title>
<g id="a_node14"><a xlink:title="nd344&#45;AppGraph">
<path fill="none" stroke="#000000" d="M236.547,-37.2965C236.547,-37.2965 232.672,-31.688 232.672,-31.688 231.136,-29.4652 231.136,-25.0194 232.672,-22.7965 232.672,-22.7965 236.547,-17.188 236.547,-17.188 238.083,-14.9652 242.321,-12.7445 245.023,-12.7468 245.023,-12.7468 250.427,-12.7513 250.427,-12.7513 253.129,-12.7536 255.831,-15.4577 255.831,-18.1597 255.831,-18.1597 255.831,-36.3249 255.831,-36.3249 255.831,-39.0268 253.129,-41.731 250.427,-41.7333 250.427,-41.7333 245.023,-41.7378 245.023,-41.7378 242.321,-41.74 238.083,-39.5194 236.547,-37.2965"/>
<text text-anchor="middle" x="244.1" y="-23.5423" font-family="Times,serif" font-size="14.00">@</text>
</a>
</g>
</g>
<!-- nd343&#45;&gt;nd344 -->
<g id="edge11" class="edge"><title>nd343:s&#45;&gt;nd344:w</title>
<path fill="none" stroke="black" d="M198.1,-55.2423C198.1,-36.5109 210.869,-27.2423 229.6,-27.2423"/>
</g>
<!-- nd343&#45;&gt;nd352 -->
<g id="edge17" class="edge"><title>nd343:n&#45;&gt;nd352:w</title>
<path fill="none" stroke="black" d="M198.1,-87.2423C198.1,-95.6074 206.389,-93.6393 212.6,-99.2423 225.785,-111.136 223.343,-127.242 241.1,-127.242"/>
</g>
<!-- ndcluster_nd347 -->
<g id="node15" class="node"><title>ndcluster_nd347</title>
<g id="a_node15"><a xlink:title="nd347">
<ellipse fill="orange" stroke="orange" cx="296.1" cy="-27.2423" rx="1.8" ry="1.8"/>
</a>
</g>
</g>
<!-- nd344&#45;&gt;ndcluster_nd347 -->
<g id="edge10" class="edge"><title>nd344:e&#45;&gt;ndcluster_nd347:w</title>
<path fill="none" stroke="black" d="M257.1,-27.2423C273.1,-27.2423 277.1,-27.2423 293.1,-27.2423"/>
</g>
<!-- nd344&#45;&gt;nd351 -->
<g id="edge14" class="edge"><title>nd344:s&#45;&gt;nd351:w</title>
<path fill="none" stroke="black" d="M244.1,-11.2423C244.1,10.6079 271.25,-7.24229 293.1,-7.24229"/>
</g>
<!-- nd353 -->
<g id="node18" class="node"><title>nd353</title>
<g id="a_node18"><a xlink:title="nd353&#45;ContractGraph">
<ellipse fill="black" stroke="black" cx="342.1" cy="-44.2423" rx="1.8" ry="1.8"/>
</a>
</g>
</g>
<!-- nd351&#45;&gt;nd353 -->
<g id="edge19" class="edge"><title>nd351:e&#45;&gt;nd353:w</title>
<path fill="none" stroke="black" d="M299.1,-7.24229C323.317,-7.24229 314.883,-44.2423 339.1,-44.2423"/>
</g>
<!-- nd352&#45;&gt;nd386 -->
<g id="edge21" class="edge"><title>nd352:e&#45;&gt;nd386:w</title>
<path fill="none" stroke="black" d="M247.1,-127.242C258.911,-127.242 262.409,-125.464 273.6,-129.242 277.466,-130.548 277.22,-134.242 281.3,-134.242"/>
<text text-anchor="middle" x="270.1" y="-133.042" font-family="Times,serif" font-size="14.00">y</text>
</g>
<!-- nd353&#45;&gt;nd182 -->
<g id="edge22" class="edge"><title>nd353:e&#45;&gt;nd182:w</title>
<path fill="none" stroke="black" d="M345.1,-44.2423C380.712,-44.2423 388.988,-54.2423 424.6,-54.2423"/>
<text text-anchor="middle" x="390.6" y="-57.0423" font-family="Times,serif" font-size="14.00">x</text>
</g>
<!-- nd437 -->
<g id="node19" class="node"><title>nd437</title>
<g id="a_node19"><a xlink:title="nd437&#45;ConstListGraph">
<path fill="none" stroke="purple" d="M434.267,-117.742C434.267,-117.742 443.933,-117.742 443.933,-117.742 448.767,-117.742 453.6,-112.909 453.6,-108.076 453.6,-108.076 453.6,-98.409 453.6,-98.409 453.6,-93.5756 448.767,-88.7423 443.933,-88.7423 443.933,-88.7423 434.267,-88.7423 434.267,-88.7423 429.433,-88.7423 424.6,-93.5756 424.6,-98.409 424.6,-98.409 424.6,-108.076 424.6,-108.076 424.6,-112.909 429.433,-117.742 434.267,-117.742"/>
<text text-anchor="middle" x="439.1" y="-99.5423" font-family="Times,serif" font-size="14.00">::</text>
</a>
</g>
</g>
<!-- nd437&#45;&gt;nd440 -->
<g id="edge25" class="edge"><title>nd437:n&#45;&gt;nd440:w</title>
<path fill="none" stroke="black" d="M439.1,-119.242C439.1,-125.702 447.556,-120.523 453.6,-118.242 462.499,-114.884 461.088,-105.242 470.6,-105.242"/>
</g>
<!-- nd437&#45;&gt;nd441 -->
<g id="edge26" class="edge"><title>nd437:s&#45;&gt;nd441:w</title>
<path fill="none" stroke="black" d="M439.1,-87.2423C439.1,-78.8772 447.494,-80.9605 453.6,-75.2423 461.632,-67.7203 459.596,-57.2423 470.6,-57.2423"/>
</g>
<!-- nd440&#45;&gt;nd34 -->
<g id="edge3" class="edge"><title>nd440:e&#45;&gt;nd34:w</title>
<path fill="none" stroke="black" d="M474.2,-105.242C481.756,-105.242 483.644,-105.242 491.2,-105.242"/>
</g>
<!-- nd441&#45;&gt;nd39 -->
<g id="edge4" class="edge"><title>nd441:e&#45;&gt;nd39:w</title>
<path fill="none" stroke="black" d="M474.2,-57.2423C481.756,-57.2423 483.644,-57.2423 491.2,-57.2423"/>
</g>
<!-- nd330&#45;&gt;nd437 -->
<g id="edge6" class="edge"><title>nd330:e&#45;&gt;nd437:w</title>
<path fill="none" stroke="black" d="M356.6,-124.242C388.231,-124.242 392.969,-103.242 424.6,-103.242"/>
<text text-anchor="middle" x="390.6" y="-127.042" font-family="Times,serif" font-size="14.00">op_arg, x</text>
</g>
</g>
</svg>
