<?xml version="1.0" encoding="UTF-8" standalone="no"?>
<!DOCTYPE svg PUBLIC "-//W3C//DTD SVG 1.1//EN"
 "http://www.w3.org/Graphics/SVG/1.1/DTD/svg11.dtd">
<!-- Generated by graphviz version 2.38.0 (20140413.2041)
 -->
<!-- Title: G Pages: 1 -->
<svg width="483pt" height="160pt"
 viewBox="0.00 0.00 483.20 159.50" xmlns="http://www.w3.org/2000/svg" xmlns:xlink="http://www.w3.org/1999/xlink">
<g id="graph0" class="graph" transform="scale(1 1) rotate(0) translate(4 155.5)">
<title>G</title>
<polygon fill="white" stroke="none" points="-4,4 -4,-155.5 479.2,-155.5 479.2,4 -4,4"/>
<g id="clust1" class="cluster"><title>cluster_nd140</title>
<polygon fill="none" stroke="orange" points="200.3,-123.5 200.3,-143.5 219.9,-143.5 219.9,-123.5 200.3,-123.5"/>
</g>
<!-- nd1 -->
<g id="node1" class="node"><title>nd1</title>
<ellipse fill="black" stroke="black" cx="1.8" cy="-102.5" rx="1.8" ry="1.8"/>
</g>
<!-- nd84 -->
<g id="node13" class="node"><title>nd84</title>
<g id="a_node13"><a xlink:title="nd84&#45;AppGraph">
<path fill="none" stroke="#000000" d="M27.5473,-112.554C27.5473,-112.554 23.6719,-106.946 23.6719,-106.946 22.136,-104.723 22.136,-100.277 23.6719,-98.0543 23.6719,-98.0543 27.5473,-92.4457 27.5473,-92.4457 29.0833,-90.2229 33.3212,-88.0023 36.0231,-88.0045 36.0231,-88.0045 41.4269,-88.009 41.4269,-88.009 44.1288,-88.0113 46.8307,-90.7155 46.8307,-93.4174 46.8307,-93.4174 46.8307,-111.583 46.8307,-111.583 46.8307,-114.285 44.1288,-116.989 41.4269,-116.991 41.4269,-116.991 36.0231,-116.995 36.0231,-116.995 33.3212,-116.998 29.0833,-114.777 27.5473,-112.554"/>
<text text-anchor="middle" x="35.1" y="-98.8" font-family="Times,serif" font-size="14.00">@</text>
</a>
</g>
</g>
<!-- nd1&#45;&gt;nd84 -->
<g id="edge14" class="edge"><title>nd1:e&#45;&gt;nd84:w</title>
<path fill="none" stroke="#b70000" d="M3.6,-102.5C11.1556,-102.5 13.0444,-102.5 20.6,-102.5"/>
</g>
<!-- nd136 -->
<g id="node2" class="node"><title>nd136</title>
<g id="a_node2"><a xlink:title="nd136&#45;RecurGraph">
<ellipse fill="none" stroke="#000000" cx="127.1" cy="-131.5" rx="11" ry="11"/>
<text text-anchor="middle" x="127.1" y="-127.8" font-family="Times,serif" font-size="14.00">rec</text>
</a>
</g>
</g>
<!-- ndcluster_nd140 -->
<g id="node3" class="node"><title>ndcluster_nd140</title>
<g id="a_node3"><a xlink:title="nd140">
<ellipse fill="orange" stroke="orange" cx="210.1" cy="-133.5" rx="1.8" ry="1.8"/>
</a>
</g>
</g>
<!-- nd136&#45;&gt;ndcluster_nd140 -->
<g id="edge15" class="edge"><title>nd136:n&#45;&gt;ndcluster_nd140:e</title>
<path fill="none" stroke="grey" d="M127.1,-143.5C127.1,-148.409 133.213,-142.96 138.1,-142.5 170.999,-139.404 184.466,-153.419 212.1,-135.3 212.865,-134.798 214.015,-133.5 213.1,-133.5"/>
</g>
<!-- nd136&#45;&gt;ndcluster_nd140 -->
<g id="edge16" class="edge"><title>nd136:e&#45;&gt;ndcluster_nd140:w</title>
<path fill="none" stroke="black" d="M139.1,-131.5C169.335,-131.5 176.865,-133.5 207.1,-133.5"/>
</g>
<!-- nd16 -->
<g id="node4" class="node"><title>nd16</title>
<g id="a_node4"><a xlink:title="nd16&#45;ConstGraph">
<path fill="none" stroke="purple" d="M271.867,-122C271.867,-122 281.533,-122 281.533,-122 286.367,-122 291.2,-117.167 291.2,-112.333 291.2,-112.333 291.2,-102.667 291.2,-102.667 291.2,-97.8333 286.367,-93 281.533,-93 281.533,-93 271.867,-93 271.867,-93 267.033,-93 262.2,-97.8333 262.2,-102.667 262.2,-102.667 262.2,-112.333 262.2,-112.333 262.2,-117.167 267.033,-122 271.867,-122"/>
<text text-anchor="middle" x="276.7" y="-103.8" font-family="Times,serif" font-size="14.00">1</text>
</a>
</g>
</g>
<!-- nd22 -->
<g id="node5" class="node"><title>nd22</title>
<g id="a_node5"><a xlink:title="nd22&#45;ConstGraph">
<path fill="none" stroke="purple" d="M363.867,-113C363.867,-113 373.533,-113 373.533,-113 378.367,-113 383.2,-108.167 383.2,-103.333 383.2,-103.333 383.2,-93.6667 383.2,-93.6667 383.2,-88.8333 378.367,-84 373.533,-84 373.533,-84 363.867,-84 363.867,-84 359.033,-84 354.2,-88.8333 354.2,-93.6667 354.2,-93.6667 354.2,-103.333 354.2,-103.333 354.2,-108.167 359.033,-113 363.867,-113"/>
<text text-anchor="middle" x="368.7" y="-94.8" font-family="Times,serif" font-size="14.00">2</text>
</a>
</g>
</g>
<!-- nd28 -->
<g id="node6" class="node"><title>nd28</title>
<g id="a_node6"><a xlink:title="nd28&#45;ConstGraph">
<path fill="none" stroke="purple" d="M409.867,-92C409.867,-92 419.533,-92 419.533,-92 424.367,-92 429.2,-87.1667 429.2,-82.3333 429.2,-82.3333 429.2,-72.6667 429.2,-72.6667 429.2,-67.8333 424.367,-63 419.533,-63 419.533,-63 409.867,-63 409.867,-63 405.033,-63 400.2,-67.8333 400.2,-72.6667 400.2,-72.6667 400.2,-82.3333 400.2,-82.3333 400.2,-87.1667 405.033,-92 409.867,-92"/>
<text text-anchor="middle" x="414.7" y="-73.8" font-family="Times,serif" font-size="14.00">3</text>
</a>
</g>
</g>
<!-- nd34 -->
<g id="node7" class="node"><title>nd34</title>
<g id="a_node7"><a xlink:title="nd34&#45;ConstGraph">
<path fill="none" stroke="purple" d="M455.867,-71C455.867,-71 465.533,-71 465.533,-71 470.367,-71 475.2,-66.1667 475.2,-61.3333 475.2,-61.3333 475.2,-51.6667 475.2,-51.6667 475.2,-46.8333 470.367,-42 465.533,-42 465.533,-42 455.867,-42 455.867,-42 451.033,-42 446.2,-46.8333 446.2,-51.6667 446.2,-51.6667 446.2,-61.3333 446.2,-61.3333 446.2,-66.1667 451.033,-71 455.867,-71"/>
<text text-anchor="middle" x="460.7" y="-52.8" font-family="Times,serif" font-size="14.00">4</text>
</a>
</g>
</g>
<!-- nd39 -->
<g id="node8" class="node"><title>nd39</title>
<g id="a_node8"><a xlink:title="nd39&#45;ConstEmptyGraph">
<path fill="none" stroke="purple" d="M455.867,-29C455.867,-29 465.533,-29 465.533,-29 470.367,-29 475.2,-24.1667 475.2,-19.3333 475.2,-19.3333 475.2,-9.66667 475.2,-9.66667 475.2,-4.83333 470.367,-1.77636e-15 465.533,-1.77636e-15 465.533,-1.77636e-15 455.867,-1.77636e-15 455.867,-1.77636e-15 451.033,-1.77636e-15 446.2,-4.83333 446.2,-9.66667 446.2,-9.66667 446.2,-19.3333 446.2,-19.3333 446.2,-24.1667 451.033,-29 455.867,-29"/>
<text text-anchor="middle" x="460.7" y="-10.8" font-family="Times,serif" font-size="14.00">[]</text>
</a>
</g>
</g>
<!-- nd182 -->
<g id="node9" class="node"><title>nd182</title>
<g id="a_node9"><a xlink:title="nd182&#45;ConstListGraph">
<path fill="none" stroke="purple" d="M409.867,-50C409.867,-50 419.533,-50 419.533,-50 424.367,-50 429.2,-45.1667 429.2,-40.3333 429.2,-40.3333 429.2,-30.6667 429.2,-30.6667 429.2,-25.8333 424.367,-21 419.533,-21 419.533,-21 409.867,-21 409.867,-21 405.033,-21 400.2,-25.8333 400.2,-30.6667 400.2,-30.6667 400.2,-40.3333 400.2,-40.3333 400.2,-45.1667 405.033,-50 409.867,-50"/>
<text text-anchor="middle" x="414.7" y="-31.8" font-family="Times,serif" font-size="14.00">::</text>
</a>
</g>
</g>
<!-- nd182&#45;&gt;nd34 -->
<g id="edge1" class="edge"><title>nd182:n&#45;&gt;nd34:w</title>
<path fill="none" stroke="purple" d="M414.7,-51.5C414.7,-55.0438 442.656,-56.5 446.2,-56.5"/>
</g>
<!-- nd182&#45;&gt;nd39 -->
<g id="edge2" class="edge"><title>nd182:s&#45;&gt;nd39:w</title>
<path fill="none" stroke="purple" d="M414.7,-19.5C414.7,-5.32473 432.025,-14.5 446.2,-14.5"/>
</g>
<!-- nd188 -->
<g id="node10" class="node"><title>nd188</title>
<g id="a_node10"><a xlink:title="nd188&#45;ConstListGraph">
<path fill="none" stroke="purple" d="M363.867,-71C363.867,-71 373.533,-71 373.533,-71 378.367,-71 383.2,-66.1667 383.2,-61.3333 383.2,-61.3333 383.2,-51.6667 383.2,-51.6667 383.2,-46.8333 378.367,-42 373.533,-42 373.533,-42 363.867,-42 363.867,-42 359.033,-42 354.2,-46.8333 354.2,-51.6667 354.2,-51.6667 354.2,-61.3333 354.2,-61.3333 354.2,-66.1667 359.033,-71 363.867,-71"/>
<text text-anchor="middle" x="368.7" y="-52.8" font-family="Times,serif" font-size="14.00">::</text>
</a>
</g>
</g>
<!-- nd188&#45;&gt;nd28 -->
<g id="edge3" class="edge"><title>nd188:n&#45;&gt;nd28:w</title>
<path fill="none" stroke="purple" d="M368.7,-72.5C368.7,-76.0438 396.656,-77.5 400.2,-77.5"/>
</g>
<!-- nd188&#45;&gt;nd182 -->
<g id="edge4" class="edge"><title>nd188:s&#45;&gt;nd182:w</title>
<path fill="none" stroke="purple" d="M368.7,-40.5C368.7,-26.3247 386.025,-35.5 400.2,-35.5"/>
</g>
<!-- nd194 -->
<g id="node11" class="node"><title>nd194</title>
<g id="a_node11"><a xlink:title="nd194&#45;ConstListGraph">
<path fill="none" stroke="purple" d="M317.867,-92C317.867,-92 327.533,-92 327.533,-92 332.367,-92 337.2,-87.1667 337.2,-82.3333 337.2,-82.3333 337.2,-72.6667 337.2,-72.6667 337.2,-67.8333 332.367,-63 327.533,-63 327.533,-63 317.867,-63 317.867,-63 313.033,-63 308.2,-67.8333 308.2,-72.6667 308.2,-72.6667 308.2,-82.3333 308.2,-82.3333 308.2,-87.1667 313.033,-92 317.867,-92"/>
<text text-anchor="middle" x="322.7" y="-73.8" font-family="Times,serif" font-size="14.00">::</text>
</a>
</g>
</g>
<!-- nd194&#45;&gt;nd22 -->
<g id="edge5" class="edge"><title>nd194:n&#45;&gt;nd22:w</title>
<path fill="none" stroke="purple" d="M322.7,-93.5C322.7,-107.675 340.025,-98.5 354.2,-98.5"/>
</g>
<!-- nd194&#45;&gt;nd188 -->
<g id="edge6" class="edge"><title>nd194:s&#45;&gt;nd188:w</title>
<path fill="none" stroke="purple" d="M322.7,-61.5C322.7,-47.3247 340.025,-56.5 354.2,-56.5"/>
</g>
<!-- nd200 -->
<g id="node12" class="node"><title>nd200</title>
<g id="a_node12"><a xlink:title="nd200&#45;ConstListGraph">
<path fill="none" stroke="purple" d="M205.267,-107C205.267,-107 214.933,-107 214.933,-107 219.767,-107 224.6,-102.167 224.6,-97.3333 224.6,-97.3333 224.6,-87.6667 224.6,-87.6667 224.6,-82.8333 219.767,-78 214.933,-78 214.933,-78 205.267,-78 205.267,-78 200.433,-78 195.6,-82.8333 195.6,-87.6667 195.6,-87.6667 195.6,-97.3333 195.6,-97.3333 195.6,-102.167 200.433,-107 205.267,-107"/>
<text text-anchor="middle" x="210.1" y="-88.8" font-family="Times,serif" font-size="14.00">::</text>
</a>
</g>
</g>
<!-- nd222 -->
<g id="node16" class="node"><title>nd222</title>
<g id="a_node16"><a xlink:title="nd222&#45;ContractGraph">
<ellipse fill="black" stroke="black" cx="243.4" cy="-107.5" rx="1.8" ry="1.8"/>
</a>
</g>
</g>
<!-- nd200&#45;&gt;nd222 -->
<g id="edge7" class="edge"><title>nd200:n&#45;&gt;nd222:w</title>
<path fill="none" stroke="black" d="M210.1,-108.5C210.1,-122.507 227.593,-107.5 241.6,-107.5"/>
</g>
<!-- nd223 -->
<g id="node17" class="node"><title>nd223</title>
<g id="a_node17"><a xlink:title="nd223&#45;ContractGraph">
<ellipse fill="black" stroke="black" cx="243.4" cy="-77.5" rx="1.8" ry="1.8"/>
</a>
</g>
</g>
<!-- nd200&#45;&gt;nd223 -->
<g id="edge8" class="edge"><title>nd200:s&#45;&gt;nd223:w</title>
<path fill="none" stroke="black" d="M210.1,-76.5C210.1,-62.4929 227.593,-77.5 241.6,-77.5"/>
</g>
<!-- nd85 -->
<g id="node14" class="node"><title>nd85</title>
<g id="a_node14"><a xlink:title="nd85&#45;AppGraph">
<path fill="none" stroke="#000000" d="M73.5473,-132.554C73.5473,-132.554 69.6719,-126.946 69.6719,-126.946 68.136,-124.723 68.136,-120.277 69.6719,-118.054 69.6719,-118.054 73.5473,-112.446 73.5473,-112.446 75.0833,-110.223 79.3212,-108.002 82.0231,-108.005 82.0231,-108.005 87.4269,-108.009 87.4269,-108.009 90.1288,-108.011 92.8307,-110.715 92.8307,-113.417 92.8307,-113.417 92.8307,-131.583 92.8307,-131.583 92.8307,-134.285 90.1288,-136.989 87.4269,-136.991 87.4269,-136.991 82.0231,-136.995 82.0231,-136.995 79.3212,-136.998 75.0833,-134.777 73.5473,-132.554"/>
<text text-anchor="middle" x="81.1" y="-118.8" font-family="Times,serif" font-size="14.00">@</text>
</a>
</g>
</g>
<!-- nd84&#45;&gt;nd85 -->
<g id="edge12" class="edge"><title>nd84:e&#45;&gt;nd85:w</title>
<path fill="none" stroke="#b70000" d="M48.1,-102.5C60.2086,-102.5 54.4914,-122.5 66.6,-122.5"/>
</g>
<!-- nd232 -->
<g id="node18" class="node"><title>nd232</title>
<g id="a_node18"><a xlink:title="nd232&#45;ConstGraph">
<path fill="none" stroke="purple" d="M76.2667,-95C76.2667,-95 85.9333,-95 85.9333,-95 90.7667,-95 95.6,-90.1667 95.6,-85.3333 95.6,-85.3333 95.6,-75.6667 95.6,-75.6667 95.6,-70.8333 90.7667,-66 85.9333,-66 85.9333,-66 76.2667,-66 76.2667,-66 71.4333,-66 66.6,-70.8333 66.6,-75.6667 66.6,-75.6667 66.6,-85.3333 66.6,-85.3333 66.6,-90.1667 71.4333,-95 76.2667,-95"/>
<text text-anchor="middle" x="81.1" y="-76.8" font-family="Times,serif" font-size="14.00">1</text>
</a>
</g>
</g>
<!-- nd84&#45;&gt;nd232 -->
<g id="edge13" class="edge"><title>nd84:s&#45;&gt;nd232:w</title>
<path fill="none" stroke="black" d="M35.1,-86.5C35.1,-72.2483 52.3483,-80.5 66.6,-80.5"/>
</g>
<!-- nd85&#45;&gt;nd136 -->
<g id="edge11" class="edge"><title>nd85:e&#45;&gt;nd136:w</title>
<path fill="none" stroke="black" d="M94.1,-122.5C104.254,-122.5 104.946,-131.5 115.1,-131.5"/>
</g>
<!-- nd94 -->
<g id="node19" class="node"><title>nd94</title>
<g id="a_node19"><a xlink:title="nd94&#45;UnOpGraph">
<ellipse fill="none" stroke="#000000" cx="127.1" cy="-92.5" rx="14.5" ry="14.5"/>
<text text-anchor="middle" x="127.1" y="-88.8" font-family="Times,serif" font-size="14.00">tl</text>
</a>
</g>
</g>
<!-- nd85&#45;&gt;nd94 -->
<g id="edge9" class="edge"><title>nd85:s&#45;&gt;nd94:w</title>
<path fill="none" stroke="red" d="M81.1,-106.5C81.1,-99.6832 89.3467,-104.214 95.6,-101.5 99.031,-100.011 101.077,-98.1021 103.01,-96.4259"/>
<polygon fill="red" stroke="red" points="104.671,-99.5277 112.6,-92.5 102.019,-93.0495 104.671,-99.5277"/>
</g>
<!-- nd210 -->
<g id="node15" class="node"><title>nd210</title>
<g id="a_node15"><a xlink:title="nd210&#45;ContractGraph">
<ellipse fill="black" stroke="black" cx="276.7" cy="-77.5" rx="1.8" ry="1.8"/>
</a>
</g>
</g>
<!-- nd210&#45;&gt;nd194 -->
<g id="edge18" class="edge"><title>nd210:e&#45;&gt;nd194:w</title>
<path fill="none" stroke="black" d="M279.7,-77.5C292.367,-77.5 295.533,-77.5 308.2,-77.5"/>
</g>
<!-- nd222&#45;&gt;nd16 -->
<g id="edge17" class="edge"><title>nd222:e&#45;&gt;nd16:w</title>
<path fill="none" stroke="black" d="M245.2,-107.5C252.756,-107.5 254.644,-107.5 262.2,-107.5"/>
</g>
<!-- nd223&#45;&gt;nd210 -->
<g id="edge19" class="edge"><title>nd223:e&#45;&gt;nd210:w</title>
<path fill="none" stroke="black" d="M245.2,-77.5C257.867,-77.5 261.033,-77.5 273.7,-77.5"/>
</g>
<!-- nd94&#45;&gt;nd200 -->
<g id="edge10" class="edge"><title>nd94:e&#45;&gt;nd200:w</title>
<path fill="none" stroke="black" d="M141.6,-92.5C165.6,-92.5 171.6,-92.5 195.6,-92.5"/>
<text text-anchor="middle" x="168.6" y="-96.3" font-family="Times,serif" font-size="14.00">op_arg</text>
</g>
</g>
</svg>
