<?xml version="1.0" encoding="UTF-8" standalone="no"?>
<!DOCTYPE svg PUBLIC "-//W3C//DTD SVG 1.1//EN"
 "http://www.w3.org/Graphics/SVG/1.1/DTD/svg11.dtd">
<!-- Generated by graphviz version 2.38.0 (20140413.2041)
 -->
<!-- Title: G Pages: 1 -->
<svg width="662pt" height="212pt"
 viewBox="0.00 0.00 662.00 211.98" xmlns="http://www.w3.org/2000/svg" xmlns:xlink="http://www.w3.org/1999/xlink">
<g id="graph0" class="graph" transform="scale(0.961371 0.961371) rotate(0) translate(4 216.5)">
<title>G</title>
<polygon fill="white" stroke="none" points="-4,4 -4,-216.5 684.6,-216.5 684.6,4 -4,4"/>
<g id="clust1" class="cluster"><title>cluster_nd241</title>
<polygon fill="none" stroke="orange" points="337.3,-162.5 337.3,-182.5 356.9,-182.5 356.9,-162.5 337.3,-162.5"/>
</g>
<g id="clust2" class="cluster"><title>cluster_nd160</title>
<polygon fill="none" stroke="orange" points="335.3,-73.5 335.3,-116.5 358.9,-116.5 358.9,-73.5 335.3,-73.5"/>
<text text-anchor="middle" x="347.1" y="-101.3" font-family="Times,serif" font-size="14.00">tl</text>
</g>
<g id="clust3" class="cluster"><title>cluster_nd169</title>
<polygon fill="none" stroke="orange" points="332.3,-22.5 332.3,-65.5 361.9,-65.5 361.9,-22.5 332.3,-22.5"/>
<text text-anchor="middle" x="347.1" y="-50.3" font-family="Times,serif" font-size="14.00">hd</text>
</g>
<!-- nd1 -->
<g id="node1" class="node"><title>nd1</title>
<ellipse fill="black" stroke="black" cx="1.8" cy="-151.5" rx="1.8" ry="1.8"/>
</g>
<!-- nd146 -->
<g id="node12" class="node"><title>nd146</title>
<g id="a_node12"><a xlink:title="nd146&#45;IfGraph">
<ellipse fill="none" stroke="#000000" cx="35.1" cy="-151.5" rx="14.5" ry="14.5"/>
<text text-anchor="middle" x="35.1" y="-147.8" font-family="Times,serif" font-size="14.00">if</text>
</a>
</g>
</g>
<!-- nd1&#45;&gt;nd146 -->
<g id="edge25" class="edge"><title>nd1:e&#45;&gt;nd146:w</title>
<path fill="none" stroke="#b70000" d="M3.6,-151.5C11.1556,-151.5 13.0444,-151.5 20.6,-151.5"/>
</g>
<!-- nd22 -->
<g id="node2" class="node"><title>nd22</title>
<g id="a_node2"><a xlink:title="nd22&#45;ConstGraph">
<path fill="none" stroke="purple" d="M569.267,-126C569.267,-126 578.933,-126 578.933,-126 583.767,-126 588.6,-121.167 588.6,-116.333 588.6,-116.333 588.6,-106.667 588.6,-106.667 588.6,-101.833 583.767,-97 578.933,-97 578.933,-97 569.267,-97 569.267,-97 564.433,-97 559.6,-101.833 559.6,-106.667 559.6,-106.667 559.6,-116.333 559.6,-116.333 559.6,-121.167 564.433,-126 569.267,-126"/>
<text text-anchor="middle" x="574.1" y="-107.8" font-family="Times,serif" font-size="14.00">2</text>
</a>
</g>
</g>
<!-- nd28 -->
<g id="node3" class="node"><title>nd28</title>
<g id="a_node3"><a xlink:title="nd28&#45;ConstGraph">
<path fill="none" stroke="purple" d="M615.267,-92C615.267,-92 624.933,-92 624.933,-92 629.767,-92 634.6,-87.1667 634.6,-82.3333 634.6,-82.3333 634.6,-72.6667 634.6,-72.6667 634.6,-67.8333 629.767,-63 624.933,-63 624.933,-63 615.267,-63 615.267,-63 610.433,-63 605.6,-67.8333 605.6,-72.6667 605.6,-72.6667 605.6,-82.3333 605.6,-82.3333 605.6,-87.1667 610.433,-92 615.267,-92"/>
<text text-anchor="middle" x="620.1" y="-73.8" font-family="Times,serif" font-size="14.00">3</text>
</a>
</g>
</g>
<!-- nd34 -->
<g id="node4" class="node"><title>nd34</title>
<g id="a_node4"><a xlink:title="nd34&#45;ConstGraph">
<path fill="none" stroke="purple" d="M661.267,-71C661.267,-71 670.933,-71 670.933,-71 675.767,-71 680.6,-66.1667 680.6,-61.3333 680.6,-61.3333 680.6,-51.6667 680.6,-51.6667 680.6,-46.8333 675.767,-42 670.933,-42 670.933,-42 661.267,-42 661.267,-42 656.433,-42 651.6,-46.8333 651.6,-51.6667 651.6,-51.6667 651.6,-61.3333 651.6,-61.3333 651.6,-66.1667 656.433,-71 661.267,-71"/>
<text text-anchor="middle" x="666.1" y="-52.8" font-family="Times,serif" font-size="14.00">4</text>
</a>
</g>
</g>
<!-- nd39 -->
<g id="node5" class="node"><title>nd39</title>
<g id="a_node5"><a xlink:title="nd39&#45;ConstEmptyGraph">
<path fill="none" stroke="purple" d="M661.267,-29C661.267,-29 670.933,-29 670.933,-29 675.767,-29 680.6,-24.1667 680.6,-19.3333 680.6,-19.3333 680.6,-9.66667 680.6,-9.66667 680.6,-4.83333 675.767,-0 670.933,-0 670.933,-0 661.267,-0 661.267,-0 656.433,-0 651.6,-4.83333 651.6,-9.66667 651.6,-9.66667 651.6,-19.3333 651.6,-19.3333 651.6,-24.1667 656.433,-29 661.267,-29"/>
<text text-anchor="middle" x="666.1" y="-10.8" font-family="Times,serif" font-size="14.00">[]</text>
</a>
</g>
</g>
<!-- nd182 -->
<g id="node6" class="node"><title>nd182</title>
<g id="a_node6"><a xlink:title="nd182&#45;ConstListGraph">
<path fill="none" stroke="purple" d="M615.267,-50C615.267,-50 624.933,-50 624.933,-50 629.767,-50 634.6,-45.1667 634.6,-40.3333 634.6,-40.3333 634.6,-30.6667 634.6,-30.6667 634.6,-25.8333 629.767,-21 624.933,-21 624.933,-21 615.267,-21 615.267,-21 610.433,-21 605.6,-25.8333 605.6,-30.6667 605.6,-30.6667 605.6,-40.3333 605.6,-40.3333 605.6,-45.1667 610.433,-50 615.267,-50"/>
<text text-anchor="middle" x="620.1" y="-31.8" font-family="Times,serif" font-size="14.00">::</text>
</a>
</g>
</g>
<!-- nd182&#45;&gt;nd34 -->
<g id="edge1" class="edge"><title>nd182:n&#45;&gt;nd34:w</title>
<path fill="none" stroke="purple" d="M620.1,-51.5C620.1,-55.0438 648.056,-56.5 651.6,-56.5"/>
</g>
<!-- nd182&#45;&gt;nd39 -->
<g id="edge2" class="edge"><title>nd182:s&#45;&gt;nd39:w</title>
<path fill="none" stroke="purple" d="M620.1,-19.5C620.1,-5.32473 637.425,-14.5 651.6,-14.5"/>
</g>
<!-- nd188 -->
<g id="node7" class="node"><title>nd188</title>
<g id="a_node7"><a xlink:title="nd188&#45;ConstListGraph">
<path fill="none" stroke="purple" d="M569.267,-74C569.267,-74 578.933,-74 578.933,-74 583.767,-74 588.6,-69.1667 588.6,-64.3333 588.6,-64.3333 588.6,-54.6667 588.6,-54.6667 588.6,-49.8333 583.767,-45 578.933,-45 578.933,-45 569.267,-45 569.267,-45 564.433,-45 559.6,-49.8333 559.6,-54.6667 559.6,-54.6667 559.6,-64.3333 559.6,-64.3333 559.6,-69.1667 564.433,-74 569.267,-74"/>
<text text-anchor="middle" x="574.1" y="-55.8" font-family="Times,serif" font-size="14.00">::</text>
</a>
</g>
</g>
<!-- nd188&#45;&gt;nd28 -->
<g id="edge3" class="edge"><title>nd188:n&#45;&gt;nd28:w</title>
<path fill="none" stroke="purple" d="M574.1,-75.5C574.1,-89.5282 591.572,-77.5 605.6,-77.5"/>
</g>
<!-- nd188&#45;&gt;nd182 -->
<g id="edge4" class="edge"><title>nd188:s&#45;&gt;nd182:w</title>
<path fill="none" stroke="purple" d="M574.1,-43.5C574.1,-29.0556 591.156,-35.5 605.6,-35.5"/>
</g>
<!-- nd194 -->
<g id="node8" class="node"><title>nd194</title>
<g id="a_node8"><a xlink:title="nd194&#45;ConstListGraph">
<path fill="none" stroke="purple" d="M440.267,-73C440.267,-73 449.933,-73 449.933,-73 454.767,-73 459.6,-68.1667 459.6,-63.3333 459.6,-63.3333 459.6,-53.6667 459.6,-53.6667 459.6,-48.8333 454.767,-44 449.933,-44 449.933,-44 440.267,-44 440.267,-44 435.433,-44 430.6,-48.8333 430.6,-53.6667 430.6,-53.6667 430.6,-63.3333 430.6,-63.3333 430.6,-68.1667 435.433,-73 440.267,-73"/>
<text text-anchor="middle" x="445.1" y="-54.8" font-family="Times,serif" font-size="14.00">::</text>
</a>
</g>
</g>
<!-- nd286 -->
<g id="node25" class="node"><title>nd286</title>
<g id="a_node25"><a xlink:title="nd286&#45;ContractGraph">
<ellipse fill="black" stroke="black" cx="528.1" cy="-111.5" rx="1.8" ry="1.8"/>
</a>
</g>
</g>
<!-- nd194&#45;&gt;nd286 -->
<g id="edge5" class="edge"><title>nd194:n&#45;&gt;nd286:w</title>
<path fill="none" stroke="black" d="M445.1,-74.5C445.1,-84.2935 515.306,-111.5 525.1,-111.5"/>
</g>
<!-- nd287 -->
<g id="node26" class="node"><title>nd287</title>
<g id="a_node26"><a xlink:title="nd287&#45;ContractGraph">
<ellipse fill="black" stroke="black" cx="528.1" cy="-59.5" rx="1.8" ry="1.8"/>
</a>
</g>
</g>
<!-- nd194&#45;&gt;nd287 -->
<g id="edge6" class="edge"><title>nd194:s&#45;&gt;nd287:w</title>
<path fill="none" stroke="black" d="M445.1,-42.5C445.1,-36.0402 453.217,-42.5077 459.6,-43.5 489.211,-48.1032 495.133,-59.5 525.1,-59.5"/>
</g>
<!-- nd232 -->
<g id="node9" class="node"><title>nd232</title>
<g id="a_node9"><a xlink:title="nd232&#45;ConstGraph">
<path fill="none" stroke="purple" d="M342.267,-154C342.267,-154 351.933,-154 351.933,-154 356.767,-154 361.6,-149.167 361.6,-144.333 361.6,-144.333 361.6,-134.667 361.6,-134.667 361.6,-129.833 356.767,-125 351.933,-125 351.933,-125 342.267,-125 342.267,-125 337.433,-125 332.6,-129.833 332.6,-134.667 332.6,-134.667 332.6,-144.333 332.6,-144.333 332.6,-149.167 337.433,-154 342.267,-154"/>
<text text-anchor="middle" x="347.1" y="-135.8" font-family="Times,serif" font-size="14.00">1</text>
</a>
</g>
</g>
<!-- nd237 -->
<g id="node10" class="node"><title>nd237</title>
<g id="a_node10"><a xlink:title="nd237&#45;RecurGraph">
<ellipse fill="none" stroke="#000000" cx="295.1" cy="-159.5" rx="11" ry="11"/>
<text text-anchor="middle" x="295.1" y="-155.8" font-family="Times,serif" font-size="14.00">rec</text>
</a>
</g>
</g>
<!-- ndcluster_nd241 -->
<g id="node11" class="node"><title>ndcluster_nd241</title>
<g id="a_node11"><a xlink:title="nd241">
<ellipse fill="orange" stroke="orange" cx="347.1" cy="-172.5" rx="1.8" ry="1.8"/>
</a>
</g>
</g>
<!-- nd237&#45;&gt;ndcluster_nd241 -->
<g id="edge30" class="edge"><title>nd237:n&#45;&gt;ndcluster_nd241:e</title>
<path fill="none" stroke="grey" d="M295.1,-171.5C295.1,-193.846 322.963,-173.678 345.3,-174.3 346.988,-174.347 347.644,-175.156 349.1,-174.3 349.889,-173.836 351.015,-172.5 350.1,-172.5"/>
</g>
<!-- nd237&#45;&gt;ndcluster_nd241 -->
<g id="edge31" class="edge"><title>nd237:e&#45;&gt;ndcluster_nd241:w</title>
<path fill="none" stroke="black" d="M307.1,-159.5C324.53,-159.5 326.67,-172.5 344.1,-172.5"/>
</g>
<!-- nd147 -->
<g id="node13" class="node"><title>nd147</title>
<g id="a_node13"><a xlink:title="nd147&#45;AppGraph">
<path fill="none" stroke="#000000" d="M385.547,-160.554C385.547,-160.554 381.672,-154.946 381.672,-154.946 380.136,-152.723 380.136,-148.277 381.672,-146.054 381.672,-146.054 385.547,-140.446 385.547,-140.446 387.083,-138.223 391.321,-136.002 394.023,-136.005 394.023,-136.005 399.427,-136.009 399.427,-136.009 402.129,-136.011 404.831,-138.715 404.831,-141.417 404.831,-141.417 404.831,-159.583 404.831,-159.583 404.831,-162.285 402.129,-164.989 399.427,-164.991 399.427,-164.991 394.023,-164.995 394.023,-164.995 391.321,-164.998 387.083,-162.777 385.547,-160.554"/>
<text text-anchor="middle" x="393.1" y="-146.8" font-family="Times,serif" font-size="14.00">@</text>
</a>
</g>
</g>
<!-- nd146&#45;&gt;nd147 -->
<g id="edge19" class="edge"><title>nd146:n&#45;&gt;nd147:w</title>
<path fill="none" stroke="#b70000" d="M35.1,-167.5C35.1,-206.725 78.8754,-197.5 118.1,-197.5 118.1,-197.5 118.1,-197.5 348.1,-197.5 356.228,-197.5 356.98,-191.97 361.9,-185.5 372.332,-171.78 361.364,-150.5 378.6,-150.5"/>
<text text-anchor="middle" x="246.6" y="-201.3" font-family="Times,serif" font-size="14.00">condition</text>
</g>
<!-- nd154 -->
<g id="node14" class="node"><title>nd154</title>
<g id="a_node14"><a xlink:title="nd154&#45;AppGraph">
<path fill="none" stroke="#000000" d="M111.547,-126.554C111.547,-126.554 107.672,-120.946 107.672,-120.946 106.136,-118.723 106.136,-114.277 107.672,-112.054 107.672,-112.054 111.547,-106.446 111.547,-106.446 113.083,-104.223 117.321,-102.002 120.023,-102.005 120.023,-102.005 125.427,-102.009 125.427,-102.009 128.129,-102.011 130.831,-104.715 130.831,-107.417 130.831,-107.417 130.831,-125.583 130.831,-125.583 130.831,-128.285 128.129,-130.989 125.427,-130.991 125.427,-130.991 120.023,-130.995 120.023,-130.995 117.321,-130.998 113.083,-128.777 111.547,-126.554"/>
<text text-anchor="middle" x="119.1" y="-112.8" font-family="Times,serif" font-size="14.00">@</text>
</a>
</g>
</g>
<!-- nd146&#45;&gt;nd154 -->
<g id="edge20" class="edge"><title>nd146:s&#45;&gt;nd154:w</title>
<path fill="none" stroke="grey" d="M35.1,-135.5C35.1,-123.423 78.9954,-116.5 104.6,-116.5"/>
<text text-anchor="middle" x="77.1" y="-125.3" font-family="Times,serif" font-size="14.00">is false</text>
</g>
<!-- nd174 -->
<g id="node22" class="node"><title>nd174</title>
<g id="a_node22"><a xlink:title="nd174&#45;ContractGraph">
<ellipse fill="black" stroke="black" cx="295.1" cy="-132.5" rx="1.8" ry="1.8"/>
</a>
</g>
</g>
<!-- nd146&#45;&gt;nd174 -->
<g id="edge22" class="edge"><title>nd146:e&#45;&gt;nd174:w</title>
<path fill="none" stroke="grey" d="M49.6,-151.5C103.654,-151.5 238.046,-132.5 292.1,-132.5"/>
<text text-anchor="middle" x="158.6" y="-148.3" font-family="Times,serif" font-size="14.00">is true</text>
</g>
<!-- nd283 -->
<g id="node24" class="node"><title>nd283</title>
<g id="a_node24"><a xlink:title="nd283&#45;ConstListGraph">
<path fill="none" stroke="purple" d="M440.267,-122C440.267,-122 449.933,-122 449.933,-122 454.767,-122 459.6,-117.167 459.6,-112.333 459.6,-112.333 459.6,-102.667 459.6,-102.667 459.6,-97.8333 454.767,-93 449.933,-93 449.933,-93 440.267,-93 440.267,-93 435.433,-93 430.6,-97.8333 430.6,-102.667 430.6,-102.667 430.6,-112.333 430.6,-112.333 430.6,-117.167 435.433,-122 440.267,-122"/>
<text text-anchor="middle" x="445.1" y="-103.8" font-family="Times,serif" font-size="14.00">::</text>
</a>
</g>
</g>
<!-- nd147&#45;&gt;nd283 -->
<g id="edge23" class="edge"><title>nd147:s&#45;&gt;nd283:w</title>
<path fill="none" stroke="black" d="M393.1,-134.5C393.1,-113.963 410.063,-107.5 430.6,-107.5"/>
<text text-anchor="middle" x="419.1" y="-112.3" font-family="Times,serif" font-size="14.00">x</text>
</g>
<!-- nd151 -->
<g id="node27" class="node"><title>nd151</title>
<g id="a_node27"><a xlink:title="nd151&#45;AbsGraph">
<ellipse fill="none" stroke="#000000" cx="445.1" cy="-150.5" rx="14.5" ry="14.5"/>
<text text-anchor="middle" x="445.1" y="-146.8" font-family="Times,serif" font-size="14.00">fun</text>
</a>
</g>
</g>
<!-- nd147&#45;&gt;nd151 -->
<g id="edge9" class="edge"><title>nd147:e&#45;&gt;nd151:w</title>
<path fill="none" stroke="red" d="M406.1,-150.5C412.565,-150.5 416.151,-150.5 420.278,-150.5"/>
<polygon fill="red" stroke="red" points="420.6,-154 430.6,-150.5 420.6,-147 420.6,-154"/>
</g>
<!-- nd155 -->
<g id="node15" class="node"><title>nd155</title>
<g id="a_node15"><a xlink:title="nd155&#45;AppGraph">
<path fill="none" stroke="#000000" d="M190.547,-126.554C190.547,-126.554 186.672,-120.946 186.672,-120.946 185.136,-118.723 185.136,-114.277 186.672,-112.054 186.672,-112.054 190.547,-106.446 190.547,-106.446 192.083,-104.223 196.321,-102.002 199.023,-102.005 199.023,-102.005 204.427,-102.009 204.427,-102.009 207.129,-102.011 209.831,-104.715 209.831,-107.417 209.831,-107.417 209.831,-125.583 209.831,-125.583 209.831,-128.285 207.129,-130.989 204.427,-130.991 204.427,-130.991 199.023,-130.995 199.023,-130.995 196.321,-130.998 192.083,-128.777 190.547,-126.554"/>
<text text-anchor="middle" x="198.1" y="-112.8" font-family="Times,serif" font-size="14.00">@</text>
</a>
</g>
</g>
<!-- nd154&#45;&gt;nd155 -->
<g id="edge15" class="edge"><title>nd154:e&#45;&gt;nd155:w</title>
<path fill="none" stroke="black" d="M132.1,-116.5C154.989,-116.5 160.711,-116.5 183.6,-116.5"/>
</g>
<!-- nd165 -->
<g id="node18" class="node"><title>nd165</title>
<g id="a_node18"><a xlink:title="nd165&#45;BinOpGraph">
<ellipse fill="none" stroke="#000000" cx="198.1" cy="-67.5" rx="14.5" ry="14.5"/>
<text text-anchor="middle" x="198.1" y="-63.8" font-family="Times,serif" font-size="14.00">+</text>
</a>
</g>
</g>
<!-- nd154&#45;&gt;nd165 -->
<g id="edge16" class="edge"><title>nd154:s&#45;&gt;nd165:w</title>
<path fill="none" stroke="black" d="M119.1,-100.5C119.1,-68.2992 151.399,-67.5 183.6,-67.5"/>
</g>
<!-- nd155&#45;&gt;nd237 -->
<g id="edge11" class="edge"><title>nd155:e&#45;&gt;nd237:w</title>
<path fill="none" stroke="black" d="M211.1,-116.5C248.372,-116.5 245.828,-159.5 283.1,-159.5"/>
</g>
<!-- nd157 -->
<g id="node16" class="node"><title>nd157</title>
<g id="a_node16"><a xlink:title="nd157&#45;AppGraph">
<path fill="none" stroke="#000000" d="M287.547,-93.5543C287.547,-93.5543 283.672,-87.9457 283.672,-87.9457 282.136,-85.7229 282.136,-81.2771 283.672,-79.0543 283.672,-79.0543 287.547,-73.4457 287.547,-73.4457 289.083,-71.2229 293.321,-69.0023 296.023,-69.0045 296.023,-69.0045 301.427,-69.009 301.427,-69.009 304.129,-69.0113 306.831,-71.7155 306.831,-74.4174 306.831,-74.4174 306.831,-92.5826 306.831,-92.5826 306.831,-95.2845 304.129,-97.9887 301.427,-97.991 301.427,-97.991 296.023,-97.9955 296.023,-97.9955 293.321,-97.9977 289.083,-95.7771 287.547,-93.5543"/>
<text text-anchor="middle" x="295.1" y="-79.8" font-family="Times,serif" font-size="14.00">@</text>
</a>
</g>
</g>
<!-- nd155&#45;&gt;nd157 -->
<g id="edge12" class="edge"><title>nd155:s&#45;&gt;nd157:w</title>
<path fill="none" stroke="black" d="M198.1,-100.5C198.1,-81.7815 261.881,-83.5 280.6,-83.5"/>
</g>
<!-- ndcluster_nd160 -->
<g id="node17" class="node"><title>ndcluster_nd160</title>
<g id="a_node17"><a xlink:title="nd160">
<ellipse fill="orange" stroke="orange" cx="347.1" cy="-83.5" rx="1.8" ry="1.8"/>
</a>
</g>
</g>
<!-- nd157&#45;&gt;ndcluster_nd160 -->
<g id="edge10" class="edge"><title>nd157:e&#45;&gt;ndcluster_nd160:w</title>
<path fill="none" stroke="black" d="M308.1,-83.5C324.1,-83.5 328.1,-83.5 344.1,-83.5"/>
</g>
<!-- nd173 -->
<g id="node21" class="node"><title>nd173</title>
<g id="a_node21"><a xlink:title="nd173&#45;ContractGraph">
<ellipse fill="black" stroke="black" cx="347.1" cy="-12.5" rx="1.8" ry="1.8"/>
</a>
</g>
</g>
<!-- nd157&#45;&gt;nd173 -->
<g id="edge18" class="edge"><title>nd157:s&#45;&gt;nd173:w</title>
<path fill="none" stroke="black" d="M295.1,-67.5C295.1,-58.5419 303.858,-60.3756 309.6,-53.5 324.866,-35.2211 320.285,-12.5 344.1,-12.5"/>
</g>
<!-- nd166 -->
<g id="node19" class="node"><title>nd166</title>
<g id="a_node19"><a xlink:title="nd166&#45;AppGraph">
<path fill="none" stroke="#000000" d="M287.547,-42.5543C287.547,-42.5543 283.672,-36.9457 283.672,-36.9457 282.136,-34.7229 282.136,-30.2771 283.672,-28.0543 283.672,-28.0543 287.547,-22.4457 287.547,-22.4457 289.083,-20.2229 293.321,-18.0023 296.023,-18.0045 296.023,-18.0045 301.427,-18.009 301.427,-18.009 304.129,-18.0113 306.831,-20.7155 306.831,-23.4174 306.831,-23.4174 306.831,-41.5826 306.831,-41.5826 306.831,-44.2845 304.129,-46.9887 301.427,-46.991 301.427,-46.991 296.023,-46.9955 296.023,-46.9955 293.321,-46.9977 289.083,-44.7771 287.547,-42.5543"/>
<text text-anchor="middle" x="295.1" y="-28.8" font-family="Times,serif" font-size="14.00">@</text>
</a>
</g>
</g>
<!-- nd165&#45;&gt;nd166 -->
<g id="edge14" class="edge"><title>nd165:s&#45;&gt;nd166:w</title>
<path fill="none" stroke="black" d="M198.1,-51.5C198.1,-13.8735 242.974,-32.5 280.6,-32.5"/>
</g>
<!-- nd165&#45;&gt;nd174 -->
<g id="edge21" class="edge"><title>nd165:n&#45;&gt;nd174:w</title>
<path fill="none" stroke="black" d="M198.1,-83.5C198.1,-92.4658 265.051,-109.663 272.6,-114.5 282.531,-120.863 280.305,-132.5 292.1,-132.5"/>
</g>
<!-- ndcluster_nd169 -->
<g id="node20" class="node"><title>ndcluster_nd169</title>
<g id="a_node20"><a xlink:title="nd169">
<ellipse fill="orange" stroke="orange" cx="347.1" cy="-32.5" rx="1.8" ry="1.8"/>
</a>
</g>
</g>
<!-- nd166&#45;&gt;ndcluster_nd169 -->
<g id="edge13" class="edge"><title>nd166:e&#45;&gt;ndcluster_nd169:w</title>
<path fill="none" stroke="black" d="M308.1,-32.5C324.1,-32.5 328.1,-32.5 344.1,-32.5"/>
</g>
<!-- nd166&#45;&gt;nd173 -->
<g id="edge17" class="edge"><title>nd166:s&#45;&gt;nd173:w</title>
<path fill="none" stroke="black" d="M295.1,-16.5C295.1,5.35022 322.25,-12.5 344.1,-12.5"/>
</g>
<!-- nd175 -->
<g id="node23" class="node"><title>nd175</title>
<g id="a_node23"><a xlink:title="nd175&#45;ContractGraph">
<ellipse fill="black" stroke="black" cx="393.1" cy="-40.5" rx="1.8" ry="1.8"/>
</a>
</g>
</g>
<!-- nd173&#45;&gt;nd175 -->
<g id="edge24" class="edge"><title>nd173:e&#45;&gt;nd175:w</title>
<path fill="none" stroke="black" d="M350.1,-12.5C371.801,-12.5 368.399,-40.5 390.1,-40.5"/>
</g>
<!-- nd174&#45;&gt;nd232 -->
<g id="edge26" class="edge"><title>nd174:e&#45;&gt;nd232:w</title>
<path fill="none" stroke="black" d="M298.1,-132.5C309.911,-132.5 313.409,-130.722 324.6,-134.5 328.466,-135.805 328.22,-139.5 332.3,-139.5"/>
<text text-anchor="middle" x="321.1" y="-138.3" font-family="Times,serif" font-size="14.00">y</text>
</g>
<!-- nd175&#45;&gt;nd194 -->
<g id="edge27" class="edge"><title>nd175:e&#45;&gt;nd194:w</title>
<path fill="none" stroke="black" d="M396.1,-40.5C413.395,-40.5 413.305,-58.5 430.6,-58.5"/>
<text text-anchor="middle" x="419.1" y="-60.3" font-family="Times,serif" font-size="14.00">x</text>
</g>
<!-- nd283&#45;&gt;nd286 -->
<g id="edge32" class="edge"><title>nd283:n&#45;&gt;nd286:w</title>
<path fill="none" stroke="black" d="M445.1,-123.5C445.1,-129.96 453.185,-123.258 459.6,-122.5 488.915,-119.036 495.581,-111.5 525.1,-111.5"/>
</g>
<!-- nd283&#45;&gt;nd287 -->
<g id="edge33" class="edge"><title>nd283:s&#45;&gt;nd287:w</title>
<path fill="none" stroke="black" d="M445.1,-91.5C445.1,-81.9264 515.526,-59.5 525.1,-59.5"/>
</g>
<!-- nd286&#45;&gt;nd22 -->
<g id="edge28" class="edge"><title>nd286:e&#45;&gt;nd22:w</title>
<path fill="none" stroke="black" d="M531.1,-111.5C543.767,-111.5 546.933,-111.5 559.6,-111.5"/>
</g>
<!-- nd287&#45;&gt;nd188 -->
<g id="edge29" class="edge"><title>nd287:e&#45;&gt;nd188:w</title>
<path fill="none" stroke="black" d="M531.1,-59.5C543.767,-59.5 546.933,-59.5 559.6,-59.5"/>
</g>
<!-- nd152 -->
<g id="node28" class="node"><title>nd152</title>
<g id="a_node28"><a xlink:title="nd152&#45;UnOpGraph">
<ellipse fill="none" stroke="#000000" cx="528.1" cy="-151.5" rx="14.5" ry="14.5"/>
<text text-anchor="middle" x="528.1" y="-147.8" font-family="Times,serif" font-size="14.00">empty</text>
</a>
</g>
</g>
<!-- nd151&#45;&gt;nd152 -->
<g id="edge7" class="edge"><title>nd151:e&#45;&gt;nd152:w</title>
<path fill="none" stroke="black" d="M459.6,-150.5C483.604,-150.5 489.596,-151.5 513.6,-151.5"/>
</g>
<!-- nd151&#45;&gt;nd152 -->
<g id="edge8" class="edge"><title>nd151:n&#45;&gt;nd152:e</title>
<path fill="none" stroke="grey" d="M445.1,-166.5C445.1,-210.056 511.335,-195.802 543.1,-166 544.278,-164.895 545.715,-151.5 544.1,-151.5"/>
<text text-anchor="middle" x="486.6" y="-197.3" font-family="Times,serif" font-size="14.00">op_arg</text>
</g>
</g>
</svg>
