<?xml version="1.0" encoding="UTF-8" standalone="no"?>
<!DOCTYPE svg PUBLIC "-//W3C//DTD SVG 1.1//EN"
 "http://www.w3.org/Graphics/SVG/1.1/DTD/svg11.dtd">
<!-- Generated by graphviz version 2.38.0 (20140413.2041)
 -->
<!-- Title: G Pages: 1 -->
<svg width="297pt" height="185pt"
 viewBox="0.00 0.00 296.90 184.50" xmlns="http://www.w3.org/2000/svg" xmlns:xlink="http://www.w3.org/1999/xlink">
<g id="graph0" class="graph" transform="scale(1 1) rotate(0) translate(4 180.5)">
<title>G</title>
<polygon fill="white" stroke="none" points="-4,4 -4,-180.5 292.9,-180.5 292.9,4 -4,4"/>
<g id="clust1" class="cluster"><title>cluster_nd241</title>
<polygon fill="none" stroke="orange" points="261.3,-136.5 261.3,-156.5 280.9,-156.5 280.9,-136.5 261.3,-136.5"/>
</g>
<g id="clust2" class="cluster"><title>cluster_nd144</title>
<polygon fill="none" stroke="orange" points="169.3,-132.5 169.3,-152.5 188.9,-152.5 188.9,-132.5 169.3,-132.5"/>
</g>
<!-- nd1 -->
<g id="node1" class="node"><title>nd1</title>
<ellipse fill="black" stroke="black" cx="1.8" cy="-95.5" rx="1.8" ry="1.8"/>
</g>
<!-- nd84 -->
<g id="node9" class="node"><title>nd84</title>
<g id="a_node9"><a xlink:title="nd84&#45;AppGraph">
<path fill="none" stroke="#000000" d="M27.5473,-105.554C27.5473,-105.554 23.6719,-99.9457 23.6719,-99.9457 22.136,-97.7229 22.136,-93.2771 23.6719,-91.0543 23.6719,-91.0543 27.5473,-85.4457 27.5473,-85.4457 29.0833,-83.2229 33.3212,-81.0023 36.0231,-81.0045 36.0231,-81.0045 41.4269,-81.009 41.4269,-81.009 44.1288,-81.0113 46.8307,-83.7155 46.8307,-86.4174 46.8307,-86.4174 46.8307,-104.583 46.8307,-104.583 46.8307,-107.285 44.1288,-109.989 41.4269,-109.991 41.4269,-109.991 36.0231,-109.995 36.0231,-109.995 33.3212,-109.998 29.0833,-107.777 27.5473,-105.554"/>
<text text-anchor="middle" x="35.1" y="-91.8" font-family="Times,serif" font-size="14.00">@</text>
</a>
</g>
</g>
<!-- nd1&#45;&gt;nd84 -->
<g id="edge10" class="edge"><title>nd1:e&#45;&gt;nd84:w</title>
<path fill="none" stroke="#b70000" d="M3.6,-95.5C11.1556,-95.5 13.0444,-95.5 20.6,-95.5"/>
</g>
<!-- nd22 -->
<g id="node2" class="node"><title>nd22</title>
<g id="a_node2"><a xlink:title="nd22&#45;ConstGraph">
<path fill="none" stroke="purple" d="M174.267,-116C174.267,-116 183.933,-116 183.933,-116 188.767,-116 193.6,-111.167 193.6,-106.333 193.6,-106.333 193.6,-96.6667 193.6,-96.6667 193.6,-91.8333 188.767,-87 183.933,-87 183.933,-87 174.267,-87 174.267,-87 169.433,-87 164.6,-91.8333 164.6,-96.6667 164.6,-96.6667 164.6,-106.333 164.6,-106.333 164.6,-111.167 169.433,-116 174.267,-116"/>
<text text-anchor="middle" x="179.1" y="-97.8" font-family="Times,serif" font-size="14.00">2</text>
</a>
</g>
</g>
<!-- nd28 -->
<g id="node3" class="node"><title>nd28</title>
<g id="a_node3"><a xlink:title="nd28&#45;ConstGraph">
<path fill="none" stroke="purple" d="M220.267,-92C220.267,-92 229.933,-92 229.933,-92 234.767,-92 239.6,-87.1667 239.6,-82.3333 239.6,-82.3333 239.6,-72.6667 239.6,-72.6667 239.6,-67.8333 234.767,-63 229.933,-63 229.933,-63 220.267,-63 220.267,-63 215.433,-63 210.6,-67.8333 210.6,-72.6667 210.6,-72.6667 210.6,-82.3333 210.6,-82.3333 210.6,-87.1667 215.433,-92 220.267,-92"/>
<text text-anchor="middle" x="225.1" y="-73.8" font-family="Times,serif" font-size="14.00">3</text>
</a>
</g>
</g>
<!-- nd34 -->
<g id="node4" class="node"><title>nd34</title>
<g id="a_node4"><a xlink:title="nd34&#45;ConstGraph">
<path fill="none" stroke="purple" d="M266.267,-71C266.267,-71 275.933,-71 275.933,-71 280.767,-71 285.6,-66.1667 285.6,-61.3333 285.6,-61.3333 285.6,-51.6667 285.6,-51.6667 285.6,-46.8333 280.767,-42 275.933,-42 275.933,-42 266.267,-42 266.267,-42 261.433,-42 256.6,-46.8333 256.6,-51.6667 256.6,-51.6667 256.6,-61.3333 256.6,-61.3333 256.6,-66.1667 261.433,-71 266.267,-71"/>
<text text-anchor="middle" x="271.1" y="-52.8" font-family="Times,serif" font-size="14.00">4</text>
</a>
</g>
</g>
<!-- nd39 -->
<g id="node5" class="node"><title>nd39</title>
<g id="a_node5"><a xlink:title="nd39&#45;ConstEmptyGraph">
<path fill="none" stroke="purple" d="M266.267,-29C266.267,-29 275.933,-29 275.933,-29 280.767,-29 285.6,-24.1667 285.6,-19.3333 285.6,-19.3333 285.6,-9.66667 285.6,-9.66667 285.6,-4.83333 280.767,-1.77636e-15 275.933,-1.77636e-15 275.933,-1.77636e-15 266.267,-1.77636e-15 266.267,-1.77636e-15 261.433,-1.77636e-15 256.6,-4.83333 256.6,-9.66667 256.6,-9.66667 256.6,-19.3333 256.6,-19.3333 256.6,-24.1667 261.433,-29 266.267,-29"/>
<text text-anchor="middle" x="271.1" y="-10.8" font-family="Times,serif" font-size="14.00">[]</text>
</a>
</g>
</g>
<!-- nd182 -->
<g id="node6" class="node"><title>nd182</title>
<g id="a_node6"><a xlink:title="nd182&#45;ConstListGraph">
<path fill="none" stroke="purple" d="M220.267,-50C220.267,-50 229.933,-50 229.933,-50 234.767,-50 239.6,-45.1667 239.6,-40.3333 239.6,-40.3333 239.6,-30.6667 239.6,-30.6667 239.6,-25.8333 234.767,-21 229.933,-21 229.933,-21 220.267,-21 220.267,-21 215.433,-21 210.6,-25.8333 210.6,-30.6667 210.6,-30.6667 210.6,-40.3333 210.6,-40.3333 210.6,-45.1667 215.433,-50 220.267,-50"/>
<text text-anchor="middle" x="225.1" y="-31.8" font-family="Times,serif" font-size="14.00">::</text>
</a>
</g>
</g>
<!-- nd182&#45;&gt;nd34 -->
<g id="edge1" class="edge"><title>nd182:n&#45;&gt;nd34:w</title>
<path fill="none" stroke="purple" d="M225.1,-51.5C225.1,-55.0438 253.056,-56.5 256.6,-56.5"/>
</g>
<!-- nd182&#45;&gt;nd39 -->
<g id="edge2" class="edge"><title>nd182:s&#45;&gt;nd39:w</title>
<path fill="none" stroke="purple" d="M225.1,-19.5C225.1,-5.32473 242.425,-14.5 256.6,-14.5"/>
</g>
<!-- nd188 -->
<g id="node7" class="node"><title>nd188</title>
<g id="a_node7"><a xlink:title="nd188&#45;ConstListGraph">
<path fill="none" stroke="purple" d="M174.267,-74C174.267,-74 183.933,-74 183.933,-74 188.767,-74 193.6,-69.1667 193.6,-64.3333 193.6,-64.3333 193.6,-54.6667 193.6,-54.6667 193.6,-49.8333 188.767,-45 183.933,-45 183.933,-45 174.267,-45 174.267,-45 169.433,-45 164.6,-49.8333 164.6,-54.6667 164.6,-54.6667 164.6,-64.3333 164.6,-64.3333 164.6,-69.1667 169.433,-74 174.267,-74"/>
<text text-anchor="middle" x="179.1" y="-55.8" font-family="Times,serif" font-size="14.00">::</text>
</a>
</g>
</g>
<!-- nd188&#45;&gt;nd28 -->
<g id="edge3" class="edge"><title>nd188:n&#45;&gt;nd28:w</title>
<path fill="none" stroke="purple" d="M179.1,-75.5C179.1,-82.5141 203.586,-77.5 210.6,-77.5"/>
</g>
<!-- nd188&#45;&gt;nd182 -->
<g id="edge4" class="edge"><title>nd188:s&#45;&gt;nd182:w</title>
<path fill="none" stroke="purple" d="M179.1,-43.5C179.1,-29.0556 196.156,-35.5 210.6,-35.5"/>
</g>
<!-- nd194 -->
<g id="node8" class="node"><title>nd194</title>
<g id="a_node8"><a xlink:title="nd194&#45;ConstListGraph">
<path fill="none" stroke="purple" d="M122.267,-99C122.267,-99 131.933,-99 131.933,-99 136.767,-99 141.6,-94.1667 141.6,-89.3333 141.6,-89.3333 141.6,-79.6667 141.6,-79.6667 141.6,-74.8333 136.767,-70 131.933,-70 131.933,-70 122.267,-70 122.267,-70 117.433,-70 112.6,-74.8333 112.6,-79.6667 112.6,-79.6667 112.6,-89.3333 112.6,-89.3333 112.6,-94.1667 117.433,-99 122.267,-99"/>
<text text-anchor="middle" x="127.1" y="-80.8" font-family="Times,serif" font-size="14.00">::</text>
</a>
</g>
</g>
<!-- nd194&#45;&gt;nd22 -->
<g id="edge5" class="edge"><title>nd194:n&#45;&gt;nd22:w</title>
<path fill="none" stroke="purple" d="M127.1,-100.5C127.1,-108.836 156.264,-101.5 164.6,-101.5"/>
</g>
<!-- nd194&#45;&gt;nd188 -->
<g id="edge6" class="edge"><title>nd194:s&#45;&gt;nd188:w</title>
<path fill="none" stroke="purple" d="M127.1,-68.5C127.1,-51.3601 147.46,-59.5 164.6,-59.5"/>
</g>
<!-- nd85 -->
<g id="node10" class="node"><title>nd85</title>
<g id="a_node10"><a xlink:title="nd85&#45;AppGraph">
<path fill="none" stroke="#000000" d="M73.5473,-125.554C73.5473,-125.554 69.6719,-119.946 69.6719,-119.946 68.136,-117.723 68.136,-113.277 69.6719,-111.054 69.6719,-111.054 73.5473,-105.446 73.5473,-105.446 75.0833,-103.223 79.3212,-101.002 82.0231,-101.005 82.0231,-101.005 87.4269,-101.009 87.4269,-101.009 90.1288,-101.011 92.8307,-103.715 92.8307,-106.417 92.8307,-106.417 92.8307,-124.583 92.8307,-124.583 92.8307,-127.285 90.1288,-129.989 87.4269,-129.991 87.4269,-129.991 82.0231,-129.995 82.0231,-129.995 79.3212,-129.998 75.0833,-127.777 73.5473,-125.554"/>
<text text-anchor="middle" x="81.1" y="-111.8" font-family="Times,serif" font-size="14.00">@</text>
</a>
</g>
</g>
<!-- nd84&#45;&gt;nd85 -->
<g id="edge8" class="edge"><title>nd84:e&#45;&gt;nd85:w</title>
<path fill="none" stroke="#b70000" d="M48.1,-95.5C60.2086,-95.5 54.4914,-115.5 66.6,-115.5"/>
</g>
<!-- nd232 -->
<g id="node11" class="node"><title>nd232</title>
<g id="a_node11"><a xlink:title="nd232&#45;ConstGraph">
<path fill="none" stroke="purple" d="M76.2667,-88C76.2667,-88 85.9333,-88 85.9333,-88 90.7667,-88 95.6,-83.1667 95.6,-78.3333 95.6,-78.3333 95.6,-68.6667 95.6,-68.6667 95.6,-63.8333 90.7667,-59 85.9333,-59 85.9333,-59 76.2667,-59 76.2667,-59 71.4333,-59 66.6,-63.8333 66.6,-68.6667 66.6,-68.6667 66.6,-78.3333 66.6,-78.3333 66.6,-83.1667 71.4333,-88 76.2667,-88"/>
<text text-anchor="middle" x="81.1" y="-69.8" font-family="Times,serif" font-size="14.00">1</text>
</a>
</g>
</g>
<!-- nd84&#45;&gt;nd232 -->
<g id="edge9" class="edge"><title>nd84:s&#45;&gt;nd232:w</title>
<path fill="none" stroke="black" d="M35.1,-79.5C35.1,-65.2483 52.3483,-73.5 66.6,-73.5"/>
</g>
<!-- nd85&#45;&gt;nd194 -->
<g id="edge14" class="edge"><title>nd85:s&#45;&gt;nd194:w</title>
<path fill="none" stroke="black" d="M81.1,-99.5C81.1,-92.6832 89.4091,-97.3535 95.6,-94.5 103.561,-90.8307 103.834,-84.5 112.6,-84.5"/>
</g>
<!-- nd141 -->
<g id="node14" class="node"><title>nd141</title>
<g id="a_node14"><a xlink:title="nd141&#45;AbsGraph">
<ellipse fill="none" stroke="#000000" cx="127.1" cy="-126.5" rx="14.5" ry="14.5"/>
<text text-anchor="middle" x="127.1" y="-122.8" font-family="Times,serif" font-size="14.00">fun</text>
</a>
</g>
</g>
<!-- nd85&#45;&gt;nd141 -->
<g id="edge7" class="edge"><title>nd85:e&#45;&gt;nd141:w</title>
<path fill="none" stroke="red" d="M94.1,-115.5C99.1819,-115.5 101.386,-118.604 103.769,-121.515"/>
<polygon fill="red" stroke="red" points="102.171,-124.632 112.6,-126.5 105.612,-118.536 102.171,-124.632"/>
</g>
<!-- nd237 -->
<g id="node12" class="node"><title>nd237</title>
<g id="a_node12"><a xlink:title="nd237&#45;RecurGraph">
<ellipse fill="none" stroke="#000000" cx="225.1" cy="-142.5" rx="11" ry="11"/>
<text text-anchor="middle" x="225.1" y="-138.8" font-family="Times,serif" font-size="14.00">rec</text>
</a>
</g>
</g>
<!-- ndcluster_nd241 -->
<g id="node13" class="node"><title>ndcluster_nd241</title>
<g id="a_node13"><a xlink:title="nd241">
<ellipse fill="orange" stroke="orange" cx="271.1" cy="-146.5" rx="1.8" ry="1.8"/>
</a>
</g>
</g>
<!-- nd237&#45;&gt;ndcluster_nd241 -->
<g id="edge15" class="edge"><title>nd237:n&#45;&gt;ndcluster_nd241:e</title>
<path fill="none" stroke="grey" d="M225.1,-154.5C225.1,-165.533 285.133,-146.5 274.1,-146.5"/>
</g>
<!-- nd237&#45;&gt;ndcluster_nd241 -->
<g id="edge16" class="edge"><title>nd237:e&#45;&gt;ndcluster_nd241:w</title>
<path fill="none" stroke="black" d="M237.1,-142.5C250.992,-142.5 254.208,-146.5 268.1,-146.5"/>
</g>
<!-- ndcluster_nd144 -->
<g id="node15" class="node"><title>ndcluster_nd144</title>
<g id="a_node15"><a xlink:title="nd144">
<ellipse fill="orange" stroke="orange" cx="179.1" cy="-142.5" rx="1.8" ry="1.8"/>
</a>
</g>
</g>
<!-- nd141&#45;&gt;ndcluster_nd144 -->
<g id="edge12" class="edge"><title>nd141:n&#45;&gt;ndcluster_nd144:e</title>
<path fill="none" stroke="grey" d="M127.1,-142.5C127.1,-188.07 189.938,-142.5 182.1,-142.5"/>
<text text-anchor="middle" x="153.1" y="-165.3" font-family="Times,serif" font-size="14.00">x</text>
</g>
<!-- nd141&#45;&gt;ndcluster_nd144 -->
<g id="edge13" class="edge"><title>nd141:e&#45;&gt;ndcluster_nd144:w</title>
<path fill="none" stroke="black" d="M141.6,-126.5C158.502,-126.5 159.198,-142.5 176.1,-142.5"/>
</g>
<!-- ndcluster_nd144&#45;&gt;nd237 -->
<g id="edge11" class="edge"><title>ndcluster_nd144:e&#45;&gt;nd237:w</title>
<path fill="none" stroke="black" d="M182.1,-142.5C195.878,-142.5 199.322,-142.5 213.1,-142.5"/>
</g>
</g>
</svg>
