<?xml version="1.0" encoding="UTF-8" standalone="no"?>
<!DOCTYPE svg PUBLIC "-//W3C//DTD SVG 1.1//EN"
 "http://www.w3.org/Graphics/SVG/1.1/DTD/svg11.dtd">
<!-- Generated by graphviz version 2.38.0 (20140413.2041)
 -->
<!-- Title: G Pages: 1 -->
<svg width="345pt" height="97pt"
 viewBox="0.00 0.00 345.20 96.50" xmlns="http://www.w3.org/2000/svg" xmlns:xlink="http://www.w3.org/1999/xlink">
<g id="graph0" class="graph" transform="scale(1 1) rotate(0) translate(4 92.5)">
<title>G</title>
<polygon fill="white" stroke="none" points="-4,4 -4,-92.5 341.2,-92.5 341.2,4 -4,4"/>
<g id="clust1" class="cluster"><title>cluster_nd395</title>
<polygon fill="none" stroke="orange" points="200.3,-60.5 200.3,-80.5 219.9,-80.5 219.9,-60.5 200.3,-60.5"/>
</g>
<!-- nd1 -->
<g id="node1" class="node"><title>nd1</title>
<ellipse fill="black" stroke="black" cx="1.8" cy="-39.5" rx="1.8" ry="1.8"/>
</g>
<!-- nd332 -->
<g id="node7" class="node"><title>nd332</title>
<g id="a_node7"><a xlink:title="nd332&#45;AppGraph">
<path fill="none" stroke="#000000" d="M27.5473,-49.5543C27.5473,-49.5543 23.6719,-43.9457 23.6719,-43.9457 22.136,-41.7229 22.136,-37.2771 23.6719,-35.0543 23.6719,-35.0543 27.5473,-29.4457 27.5473,-29.4457 29.0833,-27.2229 33.3212,-25.0023 36.0231,-25.0045 36.0231,-25.0045 41.4269,-25.009 41.4269,-25.009 44.1288,-25.0113 46.8307,-27.7155 46.8307,-30.4174 46.8307,-30.4174 46.8307,-48.5826 46.8307,-48.5826 46.8307,-51.2845 44.1288,-53.9887 41.4269,-53.991 41.4269,-53.991 36.0231,-53.9955 36.0231,-53.9955 33.3212,-53.9977 29.0833,-51.7771 27.5473,-49.5543"/>
<text text-anchor="middle" x="35.1" y="-35.8" font-family="Times,serif" font-size="14.00">@</text>
</a>
</g>
</g>
<!-- nd1&#45;&gt;nd332 -->
<g id="edge10" class="edge"><title>nd1:e&#45;&gt;nd332:w</title>
<path fill="none" stroke="#b70000" d="M3.6,-39.5C11.1556,-39.5 13.0444,-39.5 20.6,-39.5"/>
</g>
<!-- nd34 -->
<g id="node2" class="node"><title>nd34</title>
<g id="a_node2"><a xlink:title="nd34&#45;ConstGraph">
<path fill="none" stroke="purple" d="M271.867,-59C271.867,-59 281.533,-59 281.533,-59 286.367,-59 291.2,-54.1667 291.2,-49.3333 291.2,-49.3333 291.2,-39.6667 291.2,-39.6667 291.2,-34.8333 286.367,-30 281.533,-30 281.533,-30 271.867,-30 271.867,-30 267.033,-30 262.2,-34.8333 262.2,-39.6667 262.2,-39.6667 262.2,-49.3333 262.2,-49.3333 262.2,-54.1667 267.033,-59 271.867,-59"/>
<text text-anchor="middle" x="276.7" y="-40.8" font-family="Times,serif" font-size="14.00">4</text>
</a>
</g>
</g>
<!-- nd39 -->
<g id="node3" class="node"><title>nd39</title>
<g id="a_node3"><a xlink:title="nd39&#45;ConstEmptyGraph">
<path fill="none" stroke="purple" d="M317.867,-29C317.867,-29 327.533,-29 327.533,-29 332.367,-29 337.2,-24.1667 337.2,-19.3333 337.2,-19.3333 337.2,-9.66667 337.2,-9.66667 337.2,-4.83333 332.367,-1.77636e-15 327.533,-1.77636e-15 327.533,-1.77636e-15 317.867,-1.77636e-15 317.867,-1.77636e-15 313.033,-1.77636e-15 308.2,-4.83333 308.2,-9.66667 308.2,-9.66667 308.2,-19.3333 308.2,-19.3333 308.2,-24.1667 313.033,-29 317.867,-29"/>
<text text-anchor="middle" x="322.7" y="-10.8" font-family="Times,serif" font-size="14.00">[]</text>
</a>
</g>
</g>
<!-- nd182 -->
<g id="node4" class="node"><title>nd182</title>
<g id="a_node4"><a xlink:title="nd182&#45;ConstListGraph">
<path fill="none" stroke="purple" d="M205.267,-44C205.267,-44 214.933,-44 214.933,-44 219.767,-44 224.6,-39.1667 224.6,-34.3333 224.6,-34.3333 224.6,-24.6667 224.6,-24.6667 224.6,-19.8333 219.767,-15 214.933,-15 214.933,-15 205.267,-15 205.267,-15 200.433,-15 195.6,-19.8333 195.6,-24.6667 195.6,-24.6667 195.6,-34.3333 195.6,-34.3333 195.6,-39.1667 200.433,-44 205.267,-44"/>
<text text-anchor="middle" x="210.1" y="-25.8" font-family="Times,serif" font-size="14.00">::</text>
</a>
</g>
</g>
<!-- nd453 -->
<g id="node10" class="node"><title>nd453</title>
<g id="a_node10"><a xlink:title="nd453&#45;ContractGraph">
<ellipse fill="black" stroke="black" cx="243.4" cy="-44.5" rx="1.8" ry="1.8"/>
</a>
</g>
</g>
<!-- nd182&#45;&gt;nd453 -->
<g id="edge1" class="edge"><title>nd182:n&#45;&gt;nd453:w</title>
<path fill="none" stroke="black" d="M210.1,-45.5C210.1,-59.5071 227.593,-44.5 241.6,-44.5"/>
</g>
<!-- nd454 -->
<g id="node11" class="node"><title>nd454</title>
<g id="a_node11"><a xlink:title="nd454&#45;ContractGraph">
<ellipse fill="black" stroke="black" cx="243.4" cy="-14.5" rx="1.8" ry="1.8"/>
</a>
</g>
</g>
<!-- nd182&#45;&gt;nd454 -->
<g id="edge2" class="edge"><title>nd182:s&#45;&gt;nd454:w</title>
<path fill="none" stroke="black" d="M210.1,-13.5C210.1,0.507053 227.593,-14.5 241.6,-14.5"/>
</g>
<!-- nd391 -->
<g id="node5" class="node"><title>nd391</title>
<g id="a_node5"><a xlink:title="nd391&#45;RecurGraph">
<ellipse fill="none" stroke="#000000" cx="127.1" cy="-68.5" rx="11" ry="11"/>
<text text-anchor="middle" x="127.1" y="-64.8" font-family="Times,serif" font-size="14.00">rec</text>
</a>
</g>
</g>
<!-- ndcluster_nd395 -->
<g id="node6" class="node"><title>ndcluster_nd395</title>
<g id="a_node6"><a xlink:title="nd395">
<ellipse fill="orange" stroke="orange" cx="210.1" cy="-70.5" rx="1.8" ry="1.8"/>
</a>
</g>
</g>
<!-- nd391&#45;&gt;ndcluster_nd395 -->
<g id="edge11" class="edge"><title>nd391:n&#45;&gt;ndcluster_nd395:e</title>
<path fill="none" stroke="grey" d="M127.1,-80.5C127.1,-85.409 133.213,-79.9599 138.1,-79.5 170.999,-76.4041 184.466,-90.4185 212.1,-72.3 212.865,-71.7982 214.015,-70.5 213.1,-70.5"/>
</g>
<!-- nd391&#45;&gt;ndcluster_nd395 -->
<g id="edge12" class="edge"><title>nd391:e&#45;&gt;ndcluster_nd395:w</title>
<path fill="none" stroke="black" d="M139.1,-68.5C169.335,-68.5 176.865,-70.5 207.1,-70.5"/>
</g>
<!-- nd333 -->
<g id="node8" class="node"><title>nd333</title>
<g id="a_node8"><a xlink:title="nd333&#45;AppGraph">
<path fill="none" stroke="#000000" d="M73.5473,-69.5543C73.5473,-69.5543 69.6719,-63.9457 69.6719,-63.9457 68.136,-61.7229 68.136,-57.2771 69.6719,-55.0543 69.6719,-55.0543 73.5473,-49.4457 73.5473,-49.4457 75.0833,-47.2229 79.3212,-45.0023 82.0231,-45.0045 82.0231,-45.0045 87.4269,-45.009 87.4269,-45.009 90.1288,-45.0113 92.8307,-47.7155 92.8307,-50.4174 92.8307,-50.4174 92.8307,-68.5826 92.8307,-68.5826 92.8307,-71.2845 90.1288,-73.9887 87.4269,-73.991 87.4269,-73.991 82.0231,-73.9955 82.0231,-73.9955 79.3212,-73.9977 75.0833,-71.7771 73.5473,-69.5543"/>
<text text-anchor="middle" x="81.1" y="-55.8" font-family="Times,serif" font-size="14.00">@</text>
</a>
</g>
</g>
<!-- nd332&#45;&gt;nd333 -->
<g id="edge8" class="edge"><title>nd332:e&#45;&gt;nd333:w</title>
<path fill="none" stroke="#b70000" d="M48.1,-39.5C60.2086,-39.5 54.4914,-59.5 66.6,-59.5"/>
</g>
<!-- nd463 -->
<g id="node12" class="node"><title>nd463</title>
<g id="a_node12"><a xlink:title="nd463&#45;ConstGraph">
<path fill="none" stroke="purple" d="M76.2667,-32C76.2667,-32 85.9333,-32 85.9333,-32 90.7667,-32 95.6,-27.1667 95.6,-22.3333 95.6,-22.3333 95.6,-12.6667 95.6,-12.6667 95.6,-7.83333 90.7667,-3 85.9333,-3 85.9333,-3 76.2667,-3 76.2667,-3 71.4333,-3 66.6,-7.83333 66.6,-12.6667 66.6,-12.6667 66.6,-22.3333 66.6,-22.3333 66.6,-27.1667 71.4333,-32 76.2667,-32"/>
<text text-anchor="middle" x="81.1" y="-13.8" font-family="Times,serif" font-size="14.00">10</text>
</a>
</g>
</g>
<!-- nd332&#45;&gt;nd463 -->
<g id="edge9" class="edge"><title>nd332:s&#45;&gt;nd463:w</title>
<path fill="none" stroke="black" d="M35.1,-23.5C35.1,-9.24829 52.3483,-17.5 66.6,-17.5"/>
</g>
<!-- nd333&#45;&gt;nd391 -->
<g id="edge7" class="edge"><title>nd333:e&#45;&gt;nd391:w</title>
<path fill="none" stroke="black" d="M94.1,-59.5C104.254,-59.5 104.946,-68.5 115.1,-68.5"/>
</g>
<!-- nd340 -->
<g id="node13" class="node"><title>nd340</title>
<g id="a_node13"><a xlink:title="nd340&#45;UnOpGraph">
<ellipse fill="none" stroke="#000000" cx="127.1" cy="-29.5" rx="14.5" ry="14.5"/>
<text text-anchor="middle" x="127.1" y="-25.8" font-family="Times,serif" font-size="14.00">tl</text>
</a>
</g>
</g>
<!-- nd333&#45;&gt;nd340 -->
<g id="edge5" class="edge"><title>nd333:s&#45;&gt;nd340:w</title>
<path fill="none" stroke="#b70000" d="M81.1,-43.5C81.1,-36.6832 89.3467,-41.214 95.6,-38.5 103.442,-35.0963 104.051,-29.5 112.6,-29.5"/>
</g>
<!-- nd441 -->
<g id="node9" class="node"><title>nd441</title>
<g id="a_node9"><a xlink:title="nd441&#45;ContractGraph">
<ellipse fill="black" stroke="black" cx="276.7" cy="-14.5" rx="1.8" ry="1.8"/>
</a>
</g>
</g>
<!-- nd441&#45;&gt;nd39 -->
<g id="edge4" class="edge"><title>nd441:e&#45;&gt;nd39:w</title>
<path fill="none" stroke="black" d="M279.7,-14.5C292.367,-14.5 295.533,-14.5 308.2,-14.5"/>
</g>
<!-- nd453&#45;&gt;nd34 -->
<g id="edge3" class="edge"><title>nd453:e&#45;&gt;nd34:w</title>
<path fill="none" stroke="black" d="M245.2,-44.5C252.756,-44.5 254.644,-44.5 262.2,-44.5"/>
</g>
<!-- nd454&#45;&gt;nd441 -->
<g id="edge13" class="edge"><title>nd454:e&#45;&gt;nd441:w</title>
<path fill="none" stroke="black" d="M245.2,-14.5C257.867,-14.5 261.033,-14.5 273.7,-14.5"/>
</g>
<!-- nd340&#45;&gt;nd182 -->
<g id="edge6" class="edge"><title>nd340:e&#45;&gt;nd182:w</title>
<path fill="none" stroke="red" d="M141.6,-29.5C161.85,-29.5 169.286,-29.5 185.531,-29.5"/>
<polygon fill="red" stroke="red" points="185.6,-33.0001 195.6,-29.5 185.6,-26.0001 185.6,-33.0001"/>
<text text-anchor="middle" x="168.6" y="-34.3" font-family="Times,serif" font-size="14.00">op_arg</text>
</g>
</g>
</svg>
