<?xml version="1.0" encoding="UTF-8" standalone="no"?>
<!DOCTYPE svg PUBLIC "-//W3C//DTD SVG 1.1//EN"
 "http://www.w3.org/Graphics/SVG/1.1/DTD/svg11.dtd">
<!-- Generated by graphviz version 2.38.0 (20140413.2041)
 -->
<!-- Title: G Pages: 1 -->
<svg width="550pt" height="268pt"
 viewBox="0.00 0.00 549.80 268.45" xmlns="http://www.w3.org/2000/svg" xmlns:xlink="http://www.w3.org/1999/xlink">
<g id="graph0" class="graph" transform="scale(1 1) rotate(0) translate(4 264.453)">
<title>G</title>
<polygon fill="white" stroke="none" points="-4,4 -4,-264.453 545.8,-264.453 545.8,4 -4,4"/>
<g id="clust1" class="cluster"><title>cluster_nd241</title>
<polygon fill="none" stroke="orange" points="286.3,-231.5 286.3,-251.5 305.9,-251.5 305.9,-231.5 286.3,-231.5"/>
</g>
<g id="clust2" class="cluster"><title>cluster_nd160</title>
<polygon fill="none" stroke="orange" points="284.3,-134.5 284.3,-177.5 307.9,-177.5 307.9,-134.5 284.3,-134.5"/>
<text text-anchor="middle" x="296.1" y="-162.3" font-family="Times,serif" font-size="14.00">tl</text>
</g>
<g id="clust3" class="cluster"><title>cluster_nd169</title>
<polygon fill="none" stroke="orange" points="281.3,-83.5 281.3,-126.5 310.9,-126.5 310.9,-83.5 281.3,-83.5"/>
<text text-anchor="middle" x="296.1" y="-111.3" font-family="Times,serif" font-size="14.00">hd</text>
</g>
<!-- nd1 -->
<g id="node1" class="node"><title>nd1</title>
<ellipse fill="black" stroke="black" cx="1.8" cy="-195.5" rx="1.8" ry="1.8"/>
</g>
<!-- nd146 -->
<g id="node12" class="node"><title>nd146</title>
<g id="a_node12"><a xlink:title="nd146&#45;IfGraph">
<ellipse fill="none" stroke="#000000" cx="35.1" cy="-195.5" rx="14.5" ry="14.5"/>
<text text-anchor="middle" x="35.1" y="-191.8" font-family="Times,serif" font-size="14.00">if</text>
</a>
</g>
</g>
<!-- nd1&#45;&gt;nd146 -->
<g id="edge21" class="edge"><title>nd1:e&#45;&gt;nd146:w</title>
<path fill="none" stroke="#b70000" d="M3.6,-195.5C11.1556,-195.5 13.0444,-195.5 20.6,-195.5"/>
</g>
<!-- nd22 -->
<g id="node2" class="node"><title>nd22</title>
<g id="a_node2"><a xlink:title="nd22&#45;ConstGraph">
<path fill="none" stroke="purple" d="M430.467,-113C430.467,-113 440.133,-113 440.133,-113 444.967,-113 449.8,-108.167 449.8,-103.333 449.8,-103.333 449.8,-93.6667 449.8,-93.6667 449.8,-88.8333 444.967,-84 440.133,-84 440.133,-84 430.467,-84 430.467,-84 425.633,-84 420.8,-88.8333 420.8,-93.6667 420.8,-93.6667 420.8,-103.333 420.8,-103.333 420.8,-108.167 425.633,-113 430.467,-113"/>
<text text-anchor="middle" x="435.3" y="-94.8" font-family="Times,serif" font-size="14.00">2</text>
</a>
</g>
</g>
<!-- nd28 -->
<g id="node3" class="node"><title>nd28</title>
<g id="a_node3"><a xlink:title="nd28&#45;ConstGraph">
<path fill="none" stroke="purple" d="M476.467,-92C476.467,-92 486.133,-92 486.133,-92 490.967,-92 495.8,-87.1667 495.8,-82.3333 495.8,-82.3333 495.8,-72.6667 495.8,-72.6667 495.8,-67.8333 490.967,-63 486.133,-63 486.133,-63 476.467,-63 476.467,-63 471.633,-63 466.8,-67.8333 466.8,-72.6667 466.8,-72.6667 466.8,-82.3333 466.8,-82.3333 466.8,-87.1667 471.633,-92 476.467,-92"/>
<text text-anchor="middle" x="481.3" y="-73.8" font-family="Times,serif" font-size="14.00">3</text>
</a>
</g>
</g>
<!-- nd34 -->
<g id="node4" class="node"><title>nd34</title>
<g id="a_node4"><a xlink:title="nd34&#45;ConstGraph">
<path fill="none" stroke="purple" d="M522.467,-71C522.467,-71 532.133,-71 532.133,-71 536.967,-71 541.8,-66.1667 541.8,-61.3333 541.8,-61.3333 541.8,-51.6667 541.8,-51.6667 541.8,-46.8333 536.967,-42 532.133,-42 532.133,-42 522.467,-42 522.467,-42 517.633,-42 512.8,-46.8333 512.8,-51.6667 512.8,-51.6667 512.8,-61.3333 512.8,-61.3333 512.8,-66.1667 517.633,-71 522.467,-71"/>
<text text-anchor="middle" x="527.3" y="-52.8" font-family="Times,serif" font-size="14.00">4</text>
</a>
</g>
</g>
<!-- nd39 -->
<g id="node5" class="node"><title>nd39</title>
<g id="a_node5"><a xlink:title="nd39&#45;ConstEmptyGraph">
<path fill="none" stroke="purple" d="M522.467,-29C522.467,-29 532.133,-29 532.133,-29 536.967,-29 541.8,-24.1667 541.8,-19.3333 541.8,-19.3333 541.8,-9.66667 541.8,-9.66667 541.8,-4.83333 536.967,-1.77636e-15 532.133,-1.77636e-15 532.133,-1.77636e-15 522.467,-1.77636e-15 522.467,-1.77636e-15 517.633,-1.77636e-15 512.8,-4.83333 512.8,-9.66667 512.8,-9.66667 512.8,-19.3333 512.8,-19.3333 512.8,-24.1667 517.633,-29 522.467,-29"/>
<text text-anchor="middle" x="527.3" y="-10.8" font-family="Times,serif" font-size="14.00">[]</text>
</a>
</g>
</g>
<!-- nd182 -->
<g id="node6" class="node"><title>nd182</title>
<g id="a_node6"><a xlink:title="nd182&#45;ConstListGraph">
<path fill="none" stroke="purple" d="M476.467,-50C476.467,-50 486.133,-50 486.133,-50 490.967,-50 495.8,-45.1667 495.8,-40.3333 495.8,-40.3333 495.8,-30.6667 495.8,-30.6667 495.8,-25.8333 490.967,-21 486.133,-21 486.133,-21 476.467,-21 476.467,-21 471.633,-21 466.8,-25.8333 466.8,-30.6667 466.8,-30.6667 466.8,-40.3333 466.8,-40.3333 466.8,-45.1667 471.633,-50 476.467,-50"/>
<text text-anchor="middle" x="481.3" y="-31.8" font-family="Times,serif" font-size="14.00">::</text>
</a>
</g>
</g>
<!-- nd182&#45;&gt;nd34 -->
<g id="edge1" class="edge"><title>nd182:n&#45;&gt;nd34:w</title>
<path fill="none" stroke="purple" d="M481.3,-51.5C481.3,-55.0438 509.256,-56.5 512.8,-56.5"/>
</g>
<!-- nd182&#45;&gt;nd39 -->
<g id="edge2" class="edge"><title>nd182:s&#45;&gt;nd39:w</title>
<path fill="none" stroke="purple" d="M481.3,-19.5C481.3,-5.32473 498.625,-14.5 512.8,-14.5"/>
</g>
<!-- nd188 -->
<g id="node7" class="node"><title>nd188</title>
<g id="a_node7"><a xlink:title="nd188&#45;ConstListGraph">
<path fill="none" stroke="purple" d="M430.467,-71C430.467,-71 440.133,-71 440.133,-71 444.967,-71 449.8,-66.1667 449.8,-61.3333 449.8,-61.3333 449.8,-51.6667 449.8,-51.6667 449.8,-46.8333 444.967,-42 440.133,-42 440.133,-42 430.467,-42 430.467,-42 425.633,-42 420.8,-46.8333 420.8,-51.6667 420.8,-51.6667 420.8,-61.3333 420.8,-61.3333 420.8,-66.1667 425.633,-71 430.467,-71"/>
<text text-anchor="middle" x="435.3" y="-52.8" font-family="Times,serif" font-size="14.00">::</text>
</a>
</g>
</g>
<!-- nd188&#45;&gt;nd28 -->
<g id="edge3" class="edge"><title>nd188:n&#45;&gt;nd28:w</title>
<path fill="none" stroke="purple" d="M435.3,-72.5C435.3,-76.0438 463.256,-77.5 466.8,-77.5"/>
</g>
<!-- nd188&#45;&gt;nd182 -->
<g id="edge4" class="edge"><title>nd188:s&#45;&gt;nd182:w</title>
<path fill="none" stroke="purple" d="M435.3,-40.5C435.3,-26.3247 452.625,-35.5 466.8,-35.5"/>
</g>
<!-- nd194 -->
<g id="node8" class="node"><title>nd194</title>
<g id="a_node8"><a xlink:title="nd194&#45;ConstListGraph">
<path fill="none" stroke="purple" d="M363.867,-88C363.867,-88 373.533,-88 373.533,-88 378.367,-88 383.2,-83.1667 383.2,-78.3333 383.2,-78.3333 383.2,-68.6667 383.2,-68.6667 383.2,-63.8333 378.367,-59 373.533,-59 373.533,-59 363.867,-59 363.867,-59 359.033,-59 354.2,-63.8333 354.2,-68.6667 354.2,-68.6667 354.2,-78.3333 354.2,-78.3333 354.2,-83.1667 359.033,-88 363.867,-88"/>
<text text-anchor="middle" x="368.7" y="-69.8" font-family="Times,serif" font-size="14.00">::</text>
</a>
</g>
</g>
<!-- nd286 -->
<g id="node23" class="node"><title>nd286</title>
<g id="a_node23"><a xlink:title="nd286&#45;ContractGraph">
<ellipse fill="black" stroke="black" cx="402" cy="-92.5" rx="1.8" ry="1.8"/>
</a>
</g>
</g>
<!-- nd194&#45;&gt;nd286 -->
<g id="edge5" class="edge"><title>nd194:n&#45;&gt;nd286:w</title>
<path fill="none" stroke="black" d="M368.7,-89.5C368.7,-103.563 386.137,-92.5 400.2,-92.5"/>
</g>
<!-- nd287 -->
<g id="node24" class="node"><title>nd287</title>
<g id="a_node24"><a xlink:title="nd287&#45;ContractGraph">
<ellipse fill="black" stroke="black" cx="402" cy="-56.5" rx="1.8" ry="1.8"/>
</a>
</g>
</g>
<!-- nd194&#45;&gt;nd287 -->
<g id="edge6" class="edge"><title>nd194:s&#45;&gt;nd287:w</title>
<path fill="none" stroke="black" d="M368.7,-57.5C368.7,-43.4929 386.193,-56.5 400.2,-56.5"/>
</g>
<!-- nd232 -->
<g id="node9" class="node"><title>nd232</title>
<g id="a_node9"><a xlink:title="nd232&#45;ConstGraph">
<path fill="none" stroke="purple" d="M291.267,-215C291.267,-215 300.933,-215 300.933,-215 305.767,-215 310.6,-210.167 310.6,-205.333 310.6,-205.333 310.6,-195.667 310.6,-195.667 310.6,-190.833 305.767,-186 300.933,-186 300.933,-186 291.267,-186 291.267,-186 286.433,-186 281.6,-190.833 281.6,-195.667 281.6,-195.667 281.6,-205.333 281.6,-205.333 281.6,-210.167 286.433,-215 291.267,-215"/>
<text text-anchor="middle" x="296.1" y="-196.8" font-family="Times,serif" font-size="14.00">1</text>
</a>
</g>
</g>
<!-- nd237 -->
<g id="node10" class="node"><title>nd237</title>
<g id="a_node10"><a xlink:title="nd237&#45;RecurGraph">
<ellipse fill="none" stroke="#000000" cx="244.1" cy="-225.5" rx="11" ry="11"/>
<text text-anchor="middle" x="244.1" y="-221.8" font-family="Times,serif" font-size="14.00">rec</text>
</a>
</g>
</g>
<!-- ndcluster_nd241 -->
<g id="node11" class="node"><title>ndcluster_nd241</title>
<g id="a_node11"><a xlink:title="nd241">
<ellipse fill="orange" stroke="orange" cx="296.1" cy="-241.5" rx="1.8" ry="1.8"/>
</a>
</g>
</g>
<!-- nd237&#45;&gt;ndcluster_nd241 -->
<g id="edge26" class="edge"><title>nd237:n&#45;&gt;ndcluster_nd241:e</title>
<path fill="none" stroke="grey" d="M244.1,-237.5C244.1,-286.299 307.013,-241.5 299.1,-241.5"/>
</g>
<!-- nd237&#45;&gt;ndcluster_nd241 -->
<g id="edge27" class="edge"><title>nd237:e&#45;&gt;ndcluster_nd241:w</title>
<path fill="none" stroke="black" d="M256.1,-225.5C274.016,-225.5 275.184,-241.5 293.1,-241.5"/>
</g>
<!-- nd154 -->
<g id="node13" class="node"><title>nd154</title>
<g id="a_node13"><a xlink:title="nd154&#45;AppGraph">
<path fill="none" stroke="#000000" d="M111.547,-170.554C111.547,-170.554 107.672,-164.946 107.672,-164.946 106.136,-162.723 106.136,-158.277 107.672,-156.054 107.672,-156.054 111.547,-150.446 111.547,-150.446 113.083,-148.223 117.321,-146.002 120.023,-146.005 120.023,-146.005 125.427,-146.009 125.427,-146.009 128.129,-146.011 130.831,-148.715 130.831,-151.417 130.831,-151.417 130.831,-169.583 130.831,-169.583 130.831,-172.285 128.129,-174.989 125.427,-174.991 125.427,-174.991 120.023,-174.995 120.023,-174.995 117.321,-174.998 113.083,-172.777 111.547,-170.554"/>
<text text-anchor="middle" x="119.1" y="-156.8" font-family="Times,serif" font-size="14.00">@</text>
</a>
</g>
</g>
<!-- nd146&#45;&gt;nd154 -->
<g id="edge17" class="edge"><title>nd146:s&#45;&gt;nd154:w</title>
<path fill="none" stroke="red" d="M35.1,-179.5C35.1,-168.885 69.0081,-162.252 94.6041,-160.801"/>
<polygon fill="red" stroke="red" points="94.7101,-164.3 104.6,-160.5 94.499,-157.303 94.7101,-164.3"/>
<text text-anchor="middle" x="77.1" y="-169.3" font-family="Times,serif" font-size="14.00">is false</text>
</g>
<!-- nd174 -->
<g id="node21" class="node"><title>nd174</title>
<g id="a_node21"><a xlink:title="nd174&#45;ContractGraph">
<ellipse fill="black" stroke="black" cx="244.1" cy="-195.5" rx="1.8" ry="1.8"/>
</a>
</g>
</g>
<!-- nd146&#45;&gt;nd174 -->
<g id="edge19" class="edge"><title>nd146:e&#45;&gt;nd174:w</title>
<path fill="none" stroke="grey" d="M49.6,-195.5C134.711,-195.5 155.989,-195.5 241.1,-195.5"/>
<text text-anchor="middle" x="158.6" y="-199.3" font-family="Times,serif" font-size="14.00">is true</text>
</g>
<!-- nd291 -->
<g id="node25" class="node"><title>nd291</title>
<g id="a_node25"><a xlink:title="nd291&#45;ConstGraph">
<path fill="none" stroke="purple" d="M114.267,-245C114.267,-245 123.933,-245 123.933,-245 128.767,-245 133.6,-240.167 133.6,-235.333 133.6,-235.333 133.6,-225.667 133.6,-225.667 133.6,-220.833 128.767,-216 123.933,-216 123.933,-216 114.267,-216 114.267,-216 109.433,-216 104.6,-220.833 104.6,-225.667 104.6,-225.667 104.6,-235.333 104.6,-235.333 104.6,-240.167 109.433,-245 114.267,-245"/>
<text text-anchor="middle" x="119.1" y="-226.8" font-family="Times,serif" font-size="14.00">false</text>
</a>
</g>
</g>
<!-- nd146&#45;&gt;nd291 -->
<g id="edge7" class="edge"><title>nd146:n&#45;&gt;nd291:w</title>
<path fill="none" stroke="black" d="M35.1,-211.5C35.1,-243.522 72.5776,-230.5 104.6,-230.5"/>
</g>
<!-- nd155 -->
<g id="node14" class="node"><title>nd155</title>
<g id="a_node14"><a xlink:title="nd155&#45;AppGraph">
<path fill="none" stroke="#000000" d="M190.547,-170.554C190.547,-170.554 186.672,-164.946 186.672,-164.946 185.136,-162.723 185.136,-158.277 186.672,-156.054 186.672,-156.054 190.547,-150.446 190.547,-150.446 192.083,-148.223 196.321,-146.002 199.023,-146.005 199.023,-146.005 204.427,-146.009 204.427,-146.009 207.129,-146.011 209.831,-148.715 209.831,-151.417 209.831,-151.417 209.831,-169.583 209.831,-169.583 209.831,-172.285 207.129,-174.989 204.427,-174.991 204.427,-174.991 199.023,-174.995 199.023,-174.995 196.321,-174.998 192.083,-172.777 190.547,-170.554"/>
<text text-anchor="middle" x="198.1" y="-156.8" font-family="Times,serif" font-size="14.00">@</text>
</a>
</g>
</g>
<!-- nd154&#45;&gt;nd155 -->
<g id="edge13" class="edge"><title>nd154:e&#45;&gt;nd155:w</title>
<path fill="none" stroke="black" d="M132.1,-160.5C154.989,-160.5 160.711,-160.5 183.6,-160.5"/>
</g>
<!-- nd165 -->
<g id="node17" class="node"><title>nd165</title>
<g id="a_node17"><a xlink:title="nd165&#45;BinOpGraph">
<ellipse fill="none" stroke="#000000" cx="198.1" cy="-111.5" rx="14.5" ry="14.5"/>
<text text-anchor="middle" x="198.1" y="-107.8" font-family="Times,serif" font-size="14.00">+</text>
</a>
</g>
</g>
<!-- nd154&#45;&gt;nd165 -->
<g id="edge14" class="edge"><title>nd154:s&#45;&gt;nd165:w</title>
<path fill="none" stroke="black" d="M119.1,-144.5C119.1,-112.299 151.399,-111.5 183.6,-111.5"/>
</g>
<!-- nd155&#45;&gt;nd237 -->
<g id="edge9" class="edge"><title>nd155:e&#45;&gt;nd237:w</title>
<path fill="none" stroke="black" d="M211.1,-160.5C241.459,-160.5 201.741,-225.5 232.1,-225.5"/>
</g>
<!-- nd157 -->
<g id="node15" class="node"><title>nd157</title>
<g id="a_node15"><a xlink:title="nd157&#45;AppGraph">
<path fill="none" stroke="#000000" d="M236.547,-154.554C236.547,-154.554 232.672,-148.946 232.672,-148.946 231.136,-146.723 231.136,-142.277 232.672,-140.054 232.672,-140.054 236.547,-134.446 236.547,-134.446 238.083,-132.223 242.321,-130.002 245.023,-130.005 245.023,-130.005 250.427,-130.009 250.427,-130.009 253.129,-130.011 255.831,-132.715 255.831,-135.417 255.831,-135.417 255.831,-153.583 255.831,-153.583 255.831,-156.285 253.129,-158.989 250.427,-158.991 250.427,-158.991 245.023,-158.995 245.023,-158.995 242.321,-158.998 238.083,-156.777 236.547,-154.554"/>
<text text-anchor="middle" x="244.1" y="-140.8" font-family="Times,serif" font-size="14.00">@</text>
</a>
</g>
</g>
<!-- nd155&#45;&gt;nd157 -->
<g id="edge10" class="edge"><title>nd155:s&#45;&gt;nd157:w</title>
<path fill="none" stroke="black" d="M198.1,-144.5C198.1,-130.5 215.6,-144.5 229.6,-144.5"/>
</g>
<!-- ndcluster_nd160 -->
<g id="node16" class="node"><title>ndcluster_nd160</title>
<g id="a_node16"><a xlink:title="nd160">
<ellipse fill="orange" stroke="orange" cx="296.1" cy="-144.5" rx="1.8" ry="1.8"/>
</a>
</g>
</g>
<!-- nd157&#45;&gt;ndcluster_nd160 -->
<g id="edge8" class="edge"><title>nd157:e&#45;&gt;ndcluster_nd160:w</title>
<path fill="none" stroke="black" d="M257.1,-144.5C273.1,-144.5 277.1,-144.5 293.1,-144.5"/>
</g>
<!-- nd173 -->
<g id="node20" class="node"><title>nd173</title>
<g id="a_node20"><a xlink:title="nd173&#45;ContractGraph">
<ellipse fill="black" stroke="black" cx="296.1" cy="-73.5" rx="1.8" ry="1.8"/>
</a>
</g>
</g>
<!-- nd157&#45;&gt;nd173 -->
<g id="edge16" class="edge"><title>nd157:s&#45;&gt;nd173:w</title>
<path fill="none" stroke="black" d="M244.1,-128.5C244.1,-119.542 252.858,-121.376 258.6,-114.5 273.866,-96.2211 269.285,-73.5 293.1,-73.5"/>
</g>
<!-- nd166 -->
<g id="node18" class="node"><title>nd166</title>
<g id="a_node18"><a xlink:title="nd166&#45;AppGraph">
<path fill="none" stroke="#000000" d="M236.547,-103.554C236.547,-103.554 232.672,-97.9457 232.672,-97.9457 231.136,-95.7229 231.136,-91.2771 232.672,-89.0543 232.672,-89.0543 236.547,-83.4457 236.547,-83.4457 238.083,-81.2229 242.321,-79.0023 245.023,-79.0045 245.023,-79.0045 250.427,-79.009 250.427,-79.009 253.129,-79.0113 255.831,-81.7155 255.831,-84.4174 255.831,-84.4174 255.831,-102.583 255.831,-102.583 255.831,-105.285 253.129,-107.989 250.427,-107.991 250.427,-107.991 245.023,-107.995 245.023,-107.995 242.321,-107.998 238.083,-105.777 236.547,-103.554"/>
<text text-anchor="middle" x="244.1" y="-89.8" font-family="Times,serif" font-size="14.00">@</text>
</a>
</g>
</g>
<!-- nd165&#45;&gt;nd166 -->
<g id="edge12" class="edge"><title>nd165:s&#45;&gt;nd166:w</title>
<path fill="none" stroke="black" d="M198.1,-95.5C198.1,-81.4718 215.572,-93.5 229.6,-93.5"/>
</g>
<!-- nd165&#45;&gt;nd174 -->
<g id="edge18" class="edge"><title>nd165:n&#45;&gt;nd174:w</title>
<path fill="none" stroke="black" d="M198.1,-127.5C198.1,-135.865 207.372,-132.97 212.6,-139.5 221.327,-150.4 227.137,-195.5 241.1,-195.5"/>
</g>
<!-- ndcluster_nd169 -->
<g id="node19" class="node"><title>ndcluster_nd169</title>
<g id="a_node19"><a xlink:title="nd169">
<ellipse fill="orange" stroke="orange" cx="296.1" cy="-93.5" rx="1.8" ry="1.8"/>
</a>
</g>
</g>
<!-- nd166&#45;&gt;ndcluster_nd169 -->
<g id="edge11" class="edge"><title>nd166:e&#45;&gt;ndcluster_nd169:w</title>
<path fill="none" stroke="black" d="M257.1,-93.5C273.1,-93.5 277.1,-93.5 293.1,-93.5"/>
</g>
<!-- nd166&#45;&gt;nd173 -->
<g id="edge15" class="edge"><title>nd166:s&#45;&gt;nd173:w</title>
<path fill="none" stroke="black" d="M244.1,-77.5C244.1,-55.6498 271.25,-73.5 293.1,-73.5"/>
</g>
<!-- nd175 -->
<g id="node22" class="node"><title>nd175</title>
<g id="a_node22"><a xlink:title="nd175&#45;ContractGraph">
<ellipse fill="black" stroke="black" cx="329.4" cy="-73.5" rx="1.8" ry="1.8"/>
</a>
</g>
</g>
<!-- nd173&#45;&gt;nd175 -->
<g id="edge20" class="edge"><title>nd173:e&#45;&gt;nd175:w</title>
<path fill="none" stroke="black" d="M299.1,-73.5C311.767,-73.5 314.933,-73.5 327.6,-73.5"/>
</g>
<!-- nd174&#45;&gt;nd232 -->
<g id="edge22" class="edge"><title>nd174:e&#45;&gt;nd232:w</title>
<path fill="none" stroke="black" d="M247.1,-195.5C262.462,-195.5 265.938,-200.5 281.3,-200.5"/>
<text text-anchor="middle" x="270.1" y="-203.3" font-family="Times,serif" font-size="14.00">y</text>
</g>
<!-- nd175&#45;&gt;nd194 -->
<g id="edge23" class="edge"><title>nd175:e&#45;&gt;nd194:w</title>
<path fill="none" stroke="black" d="M331.2,-73.5C341.422,-73.5 343.978,-73.5 354.2,-73.5"/>
<text text-anchor="middle" x="342.7" y="-77.3" font-family="Times,serif" font-size="14.00">x</text>
</g>
<!-- nd286&#45;&gt;nd22 -->
<g id="edge24" class="edge"><title>nd286:e&#45;&gt;nd22:w</title>
<path fill="none" stroke="black" d="M403.8,-92.5C411.812,-92.5 412.788,-98.5 420.8,-98.5"/>
</g>
<!-- nd287&#45;&gt;nd188 -->
<g id="edge25" class="edge"><title>nd287:e&#45;&gt;nd188:w</title>
<path fill="none" stroke="black" d="M403.8,-56.5C411.356,-56.5 413.244,-56.5 420.8,-56.5"/>
</g>
</g>
</svg>
