<?xml version="1.0" encoding="UTF-8" standalone="no"?>
<!DOCTYPE svg PUBLIC "-//W3C//DTD SVG 1.1//EN"
 "http://www.w3.org/Graphics/SVG/1.1/DTD/svg11.dtd">
<!-- Generated by graphviz version 2.38.0 (20140413.2041)
 -->
<!-- Title: G Pages: 1 -->
<svg width="200pt" height="97pt"
 viewBox="0.00 0.00 200.20 97.00" xmlns="http://www.w3.org/2000/svg" xmlns:xlink="http://www.w3.org/1999/xlink">
<g id="graph0" class="graph" transform="scale(1 1) rotate(0) translate(4 93)">
<title>G</title>
<polygon fill="white" stroke="none" points="-4,4 -4,-93 196.2,-93 196.2,4 -4,4"/>
<g id="clust1" class="cluster"><title>cluster_nd472</title>
<polygon fill="none" stroke="orange" points="164.6,-33.5 164.6,-53.5 184.2,-53.5 184.2,-33.5 164.6,-33.5"/>
</g>
<g id="clust2" class="cluster"><title>cluster_nd399</title>
<polygon fill="none" stroke="orange" points="71.3,-37.5 71.3,-57.5 90.9,-57.5 90.9,-37.5 71.3,-37.5"/>
</g>
<!-- nd1 -->
<g id="node1" class="node"><title>nd1</title>
<ellipse fill="black" stroke="black" cx="1.8" cy="-34.5" rx="1.8" ry="1.8"/>
</g>
<!-- nd332 -->
<g id="node3" class="node"><title>nd332</title>
<g id="a_node3"><a xlink:title="nd332&#45;AppGraph">
<path fill="none" stroke="#000000" d="M27.5473,-44.5543C27.5473,-44.5543 23.6719,-38.9457 23.6719,-38.9457 22.136,-36.7229 22.136,-32.2771 23.6719,-30.0543 23.6719,-30.0543 27.5473,-24.4457 27.5473,-24.4457 29.0833,-22.2229 33.3212,-20.0023 36.0231,-20.0045 36.0231,-20.0045 41.4269,-20.009 41.4269,-20.009 44.1288,-20.0113 46.8307,-22.7155 46.8307,-25.4174 46.8307,-25.4174 46.8307,-43.5826 46.8307,-43.5826 46.8307,-46.2845 44.1288,-48.9887 41.4269,-48.991 41.4269,-48.991 36.0231,-48.9955 36.0231,-48.9955 33.3212,-48.9977 29.0833,-46.7771 27.5473,-44.5543"/>
<text text-anchor="middle" x="35.1" y="-30.8" font-family="Times,serif" font-size="14.00">@</text>
</a>
</g>
</g>
<!-- nd1&#45;&gt;nd332 -->
<g id="edge3" class="edge"><title>nd1:e&#45;&gt;nd332:w</title>
<path fill="none" stroke="#b70000" d="M3.6,-34.5C11.1556,-34.5 13.0444,-34.5 20.6,-34.5"/>
</g>
<!-- nd39 -->
<g id="node2" class="node"><title>nd39</title>
<g id="a_node2"><a xlink:title="nd39&#45;ConstEmptyGraph">
<path fill="none" stroke="purple" d="M128.267,-89C128.267,-89 137.933,-89 137.933,-89 142.767,-89 147.6,-84.1667 147.6,-79.3333 147.6,-79.3333 147.6,-69.6667 147.6,-69.6667 147.6,-64.8333 142.767,-60 137.933,-60 137.933,-60 128.267,-60 128.267,-60 123.433,-60 118.6,-64.8333 118.6,-69.6667 118.6,-69.6667 118.6,-79.3333 118.6,-79.3333 118.6,-84.1667 123.433,-89 128.267,-89"/>
<text text-anchor="middle" x="133.1" y="-70.8" font-family="Times,serif" font-size="14.00">[]</text>
</a>
</g>
</g>
<!-- nd463 -->
<g id="node4" class="node"><title>nd463</title>
<g id="a_node4"><a xlink:title="nd463&#45;ConstGraph">
<path fill="none" stroke="purple" d="M76.2667,-29C76.2667,-29 85.9333,-29 85.9333,-29 90.7667,-29 95.6,-24.1667 95.6,-19.3333 95.6,-19.3333 95.6,-9.66667 95.6,-9.66667 95.6,-4.83333 90.7667,-1.77636e-15 85.9333,-1.77636e-15 85.9333,-1.77636e-15 76.2667,-1.77636e-15 76.2667,-1.77636e-15 71.4333,-1.77636e-15 66.6,-4.83333 66.6,-9.66667 66.6,-9.66667 66.6,-19.3333 66.6,-19.3333 66.6,-24.1667 71.4333,-29 76.2667,-29"/>
<text text-anchor="middle" x="81.1" y="-10.8" font-family="Times,serif" font-size="14.00">10</text>
</a>
</g>
</g>
<!-- nd332&#45;&gt;nd463 -->
<g id="edge2" class="edge"><title>nd332:s&#45;&gt;nd463:w</title>
<path fill="none" stroke="black" d="M35.1,-18.5C35.1,-4.38758 52.4876,-14.5 66.6,-14.5"/>
</g>
<!-- ndcluster_nd399 -->
<g id="node7" class="node"><title>ndcluster_nd399</title>
<g id="a_node7"><a xlink:title="nd399">
<ellipse fill="orange" stroke="orange" cx="81.1" cy="-47.5" rx="1.8" ry="1.8"/>
</a>
</g>
</g>
<!-- nd332&#45;&gt;ndcluster_nd399 -->
<g id="edge1" class="edge"><title>nd332:e&#45;&gt;ndcluster_nd399:w</title>
<path fill="none" stroke="red" d="M48.1,-34.5C58.3174,-34.5 61.814,-40.927 68.041,-44.743"/>
<polygon fill="red" stroke="red" points="67.5305,-48.2321 78.1,-47.5 69.3809,-41.4811 67.5305,-48.2321"/>
</g>
<!-- nd468 -->
<g id="node5" class="node"><title>nd468</title>
<g id="a_node5"><a xlink:title="nd468&#45;RecurGraph">
<ellipse fill="none" stroke="#000000" cx="133.1" cy="-35.5" rx="11" ry="11"/>
<text text-anchor="middle" x="133.1" y="-31.8" font-family="Times,serif" font-size="14.00">rec</text>
</a>
</g>
</g>
<!-- ndcluster_nd472 -->
<g id="node6" class="node"><title>ndcluster_nd472</title>
<g id="a_node6"><a xlink:title="nd472">
<ellipse fill="orange" stroke="orange" cx="174.4" cy="-43.5" rx="1.8" ry="1.8"/>
</a>
</g>
</g>
<!-- nd468&#45;&gt;ndcluster_nd472 -->
<g id="edge6" class="edge"><title>nd468:n&#45;&gt;ndcluster_nd472:e</title>
<path fill="none" stroke="grey" d="M133.1,-47.5C133.1,-57.1346 168.223,-50.3952 176.4,-45.3 177.177,-44.816 178.315,-43.5 177.4,-43.5"/>
</g>
<!-- nd468&#45;&gt;ndcluster_nd472 -->
<g id="edge7" class="edge"><title>nd468:e&#45;&gt;ndcluster_nd472:w</title>
<path fill="none" stroke="black" d="M145.1,-35.5C157.318,-35.5 159.182,-43.5 171.4,-43.5"/>
</g>
<!-- ndcluster_nd399&#45;&gt;nd39 -->
<g id="edge5" class="edge"><title>ndcluster_nd399:e&#45;&gt;nd39:w</title>
<path fill="none" stroke="black" d="M84.1,-47.5C103.571,-47.5 99.1292,-74.5 118.6,-74.5"/>
<text text-anchor="middle" x="107.1" y="-76.3" font-family="Times,serif" font-size="14.00">x</text>
</g>
<!-- ndcluster_nd399&#45;&gt;nd468 -->
<g id="edge4" class="edge"><title>ndcluster_nd399:e&#45;&gt;nd468:w</title>
<path fill="none" stroke="black" d="M84.1,-47.5C101.388,-47.5 103.812,-35.5 121.1,-35.5"/>
</g>
</g>
</svg>
