<?xml version="1.0" encoding="UTF-8" standalone="no"?>
<!DOCTYPE svg PUBLIC "-//W3C//DTD SVG 1.1//EN"
 "http://www.w3.org/Graphics/SVG/1.1/DTD/svg11.dtd">
<!-- Generated by graphviz version 2.38.0 (20140413.2041)
 -->
<!-- Title: G Pages: 1 -->
<svg width="515pt" height="197pt"
 viewBox="0.00 0.00 514.60 197.18" xmlns="http://www.w3.org/2000/svg" xmlns:xlink="http://www.w3.org/1999/xlink">
<g id="graph0" class="graph" transform="scale(1 1) rotate(0) translate(4 193.185)">
<title>G</title>
<polygon fill="white" stroke="none" points="-4,4 -4,-193.185 510.6,-193.185 510.6,4 -4,4"/>
<g id="clust1" class="cluster"><title>cluster_nd140</title>
<polygon fill="none" stroke="orange" points="169.3,-159.5 169.3,-179.5 188.9,-179.5 188.9,-159.5 169.3,-159.5"/>
</g>
<!-- nd1 -->
<g id="node1" class="node"><title>nd1</title>
<ellipse fill="black" stroke="black" cx="1.8" cy="-126.5" rx="1.8" ry="1.8"/>
</g>
<!-- nd84 -->
<g id="node13" class="node"><title>nd84</title>
<g id="a_node13"><a xlink:title="nd84&#45;AppGraph">
<path fill="none" stroke="#000000" d="M27.5473,-136.554C27.5473,-136.554 23.6719,-130.946 23.6719,-130.946 22.136,-128.723 22.136,-124.277 23.6719,-122.054 23.6719,-122.054 27.5473,-116.446 27.5473,-116.446 29.0833,-114.223 33.3212,-112.002 36.0231,-112.005 36.0231,-112.005 41.4269,-112.009 41.4269,-112.009 44.1288,-112.011 46.8307,-114.715 46.8307,-117.417 46.8307,-117.417 46.8307,-135.583 46.8307,-135.583 46.8307,-138.285 44.1288,-140.989 41.4269,-140.991 41.4269,-140.991 36.0231,-140.995 36.0231,-140.995 33.3212,-140.998 29.0833,-138.777 27.5473,-136.554"/>
<text text-anchor="middle" x="35.1" y="-122.8" font-family="Times,serif" font-size="14.00">@</text>
</a>
</g>
</g>
<!-- nd1&#45;&gt;nd84 -->
<g id="edge16" class="edge"><title>nd1:e&#45;&gt;nd84:w</title>
<path fill="none" stroke="#b70000" d="M3.6,-126.5C11.1556,-126.5 13.0444,-126.5 20.6,-126.5"/>
</g>
<!-- nd136 -->
<g id="node2" class="node"><title>nd136</title>
<g id="a_node2"><a xlink:title="nd136&#45;RecurGraph">
<ellipse fill="none" stroke="#000000" cx="127.1" cy="-155.5" rx="11" ry="11"/>
<text text-anchor="middle" x="127.1" y="-151.8" font-family="Times,serif" font-size="14.00">rec</text>
</a>
</g>
</g>
<!-- ndcluster_nd140 -->
<g id="node3" class="node"><title>ndcluster_nd140</title>
<g id="a_node3"><a xlink:title="nd140">
<ellipse fill="orange" stroke="orange" cx="179.1" cy="-169.5" rx="1.8" ry="1.8"/>
</a>
</g>
</g>
<!-- nd136&#45;&gt;ndcluster_nd140 -->
<g id="edge18" class="edge"><title>nd136:n&#45;&gt;ndcluster_nd140:e</title>
<path fill="none" stroke="grey" d="M127.1,-167.5C127.1,-214.624 189.966,-169.5 182.1,-169.5"/>
</g>
<!-- nd136&#45;&gt;ndcluster_nd140 -->
<g id="edge19" class="edge"><title>nd136:e&#45;&gt;ndcluster_nd140:w</title>
<path fill="none" stroke="black" d="M139.1,-155.5C156.682,-155.5 158.518,-169.5 176.1,-169.5"/>
</g>
<!-- nd16 -->
<g id="node4" class="node"><title>nd16</title>
<g id="a_node4"><a xlink:title="nd16&#45;ConstGraph">
<path fill="none" stroke="purple" d="M303.267,-122C303.267,-122 312.933,-122 312.933,-122 317.767,-122 322.6,-117.167 322.6,-112.333 322.6,-112.333 322.6,-102.667 322.6,-102.667 322.6,-97.8333 317.767,-93 312.933,-93 312.933,-93 303.267,-93 303.267,-93 298.433,-93 293.6,-97.8333 293.6,-102.667 293.6,-102.667 293.6,-112.333 293.6,-112.333 293.6,-117.167 298.433,-122 303.267,-122"/>
<text text-anchor="middle" x="308.1" y="-103.8" font-family="Times,serif" font-size="14.00">1</text>
</a>
</g>
</g>
<!-- nd22 -->
<g id="node5" class="node"><title>nd22</title>
<g id="a_node5"><a xlink:title="nd22&#45;ConstGraph">
<path fill="none" stroke="purple" d="M395.267,-113C395.267,-113 404.933,-113 404.933,-113 409.767,-113 414.6,-108.167 414.6,-103.333 414.6,-103.333 414.6,-93.6667 414.6,-93.6667 414.6,-88.8333 409.767,-84 404.933,-84 404.933,-84 395.267,-84 395.267,-84 390.433,-84 385.6,-88.8333 385.6,-93.6667 385.6,-93.6667 385.6,-103.333 385.6,-103.333 385.6,-108.167 390.433,-113 395.267,-113"/>
<text text-anchor="middle" x="400.1" y="-94.8" font-family="Times,serif" font-size="14.00">2</text>
</a>
</g>
</g>
<!-- nd28 -->
<g id="node6" class="node"><title>nd28</title>
<g id="a_node6"><a xlink:title="nd28&#45;ConstGraph">
<path fill="none" stroke="purple" d="M441.267,-92C441.267,-92 450.933,-92 450.933,-92 455.767,-92 460.6,-87.1667 460.6,-82.3333 460.6,-82.3333 460.6,-72.6667 460.6,-72.6667 460.6,-67.8333 455.767,-63 450.933,-63 450.933,-63 441.267,-63 441.267,-63 436.433,-63 431.6,-67.8333 431.6,-72.6667 431.6,-72.6667 431.6,-82.3333 431.6,-82.3333 431.6,-87.1667 436.433,-92 441.267,-92"/>
<text text-anchor="middle" x="446.1" y="-73.8" font-family="Times,serif" font-size="14.00">3</text>
</a>
</g>
</g>
<!-- nd34 -->
<g id="node7" class="node"><title>nd34</title>
<g id="a_node7"><a xlink:title="nd34&#45;ConstGraph">
<path fill="none" stroke="purple" d="M487.267,-71C487.267,-71 496.933,-71 496.933,-71 501.767,-71 506.6,-66.1667 506.6,-61.3333 506.6,-61.3333 506.6,-51.6667 506.6,-51.6667 506.6,-46.8333 501.767,-42 496.933,-42 496.933,-42 487.267,-42 487.267,-42 482.433,-42 477.6,-46.8333 477.6,-51.6667 477.6,-51.6667 477.6,-61.3333 477.6,-61.3333 477.6,-66.1667 482.433,-71 487.267,-71"/>
<text text-anchor="middle" x="492.1" y="-52.8" font-family="Times,serif" font-size="14.00">4</text>
</a>
</g>
</g>
<!-- nd39 -->
<g id="node8" class="node"><title>nd39</title>
<g id="a_node8"><a xlink:title="nd39&#45;ConstEmptyGraph">
<path fill="none" stroke="purple" d="M487.267,-29C487.267,-29 496.933,-29 496.933,-29 501.767,-29 506.6,-24.1667 506.6,-19.3333 506.6,-19.3333 506.6,-9.66667 506.6,-9.66667 506.6,-4.83333 501.767,-1.77636e-15 496.933,-1.77636e-15 496.933,-1.77636e-15 487.267,-1.77636e-15 487.267,-1.77636e-15 482.433,-1.77636e-15 477.6,-4.83333 477.6,-9.66667 477.6,-9.66667 477.6,-19.3333 477.6,-19.3333 477.6,-24.1667 482.433,-29 487.267,-29"/>
<text text-anchor="middle" x="492.1" y="-10.8" font-family="Times,serif" font-size="14.00">[]</text>
</a>
</g>
</g>
<!-- nd182 -->
<g id="node9" class="node"><title>nd182</title>
<g id="a_node9"><a xlink:title="nd182&#45;ConstListGraph">
<path fill="none" stroke="purple" d="M441.267,-50C441.267,-50 450.933,-50 450.933,-50 455.767,-50 460.6,-45.1667 460.6,-40.3333 460.6,-40.3333 460.6,-30.6667 460.6,-30.6667 460.6,-25.8333 455.767,-21 450.933,-21 450.933,-21 441.267,-21 441.267,-21 436.433,-21 431.6,-25.8333 431.6,-30.6667 431.6,-30.6667 431.6,-40.3333 431.6,-40.3333 431.6,-45.1667 436.433,-50 441.267,-50"/>
<text text-anchor="middle" x="446.1" y="-31.8" font-family="Times,serif" font-size="14.00">::</text>
</a>
</g>
</g>
<!-- nd182&#45;&gt;nd34 -->
<g id="edge1" class="edge"><title>nd182:n&#45;&gt;nd34:w</title>
<path fill="none" stroke="purple" d="M446.1,-51.5C446.1,-55.0438 474.056,-56.5 477.6,-56.5"/>
</g>
<!-- nd182&#45;&gt;nd39 -->
<g id="edge2" class="edge"><title>nd182:s&#45;&gt;nd39:w</title>
<path fill="none" stroke="purple" d="M446.1,-19.5C446.1,-5.32473 463.425,-14.5 477.6,-14.5"/>
</g>
<!-- nd188 -->
<g id="node10" class="node"><title>nd188</title>
<g id="a_node10"><a xlink:title="nd188&#45;ConstListGraph">
<path fill="none" stroke="purple" d="M395.267,-71C395.267,-71 404.933,-71 404.933,-71 409.767,-71 414.6,-66.1667 414.6,-61.3333 414.6,-61.3333 414.6,-51.6667 414.6,-51.6667 414.6,-46.8333 409.767,-42 404.933,-42 404.933,-42 395.267,-42 395.267,-42 390.433,-42 385.6,-46.8333 385.6,-51.6667 385.6,-51.6667 385.6,-61.3333 385.6,-61.3333 385.6,-66.1667 390.433,-71 395.267,-71"/>
<text text-anchor="middle" x="400.1" y="-52.8" font-family="Times,serif" font-size="14.00">::</text>
</a>
</g>
</g>
<!-- nd188&#45;&gt;nd28 -->
<g id="edge3" class="edge"><title>nd188:n&#45;&gt;nd28:w</title>
<path fill="none" stroke="purple" d="M400.1,-72.5C400.1,-76.0438 428.056,-77.5 431.6,-77.5"/>
</g>
<!-- nd188&#45;&gt;nd182 -->
<g id="edge4" class="edge"><title>nd188:s&#45;&gt;nd182:w</title>
<path fill="none" stroke="purple" d="M400.1,-40.5C400.1,-26.3247 417.425,-35.5 431.6,-35.5"/>
</g>
<!-- nd194 -->
<g id="node11" class="node"><title>nd194</title>
<g id="a_node11"><a xlink:title="nd194&#45;ConstListGraph">
<path fill="none" stroke="purple" d="M349.267,-92C349.267,-92 358.933,-92 358.933,-92 363.767,-92 368.6,-87.1667 368.6,-82.3333 368.6,-82.3333 368.6,-72.6667 368.6,-72.6667 368.6,-67.8333 363.767,-63 358.933,-63 358.933,-63 349.267,-63 349.267,-63 344.433,-63 339.6,-67.8333 339.6,-72.6667 339.6,-72.6667 339.6,-82.3333 339.6,-82.3333 339.6,-87.1667 344.433,-92 349.267,-92"/>
<text text-anchor="middle" x="354.1" y="-73.8" font-family="Times,serif" font-size="14.00">::</text>
</a>
</g>
</g>
<!-- nd194&#45;&gt;nd22 -->
<g id="edge5" class="edge"><title>nd194:n&#45;&gt;nd22:w</title>
<path fill="none" stroke="purple" d="M354.1,-93.5C354.1,-107.675 371.425,-98.5 385.6,-98.5"/>
</g>
<!-- nd194&#45;&gt;nd188 -->
<g id="edge6" class="edge"><title>nd194:s&#45;&gt;nd188:w</title>
<path fill="none" stroke="purple" d="M354.1,-61.5C354.1,-47.3247 371.425,-56.5 385.6,-56.5"/>
</g>
<!-- nd200 -->
<g id="node12" class="node"><title>nd200</title>
<g id="a_node12"><a xlink:title="nd200&#45;ConstListGraph">
<path fill="none" stroke="purple" d="M174.267,-107C174.267,-107 183.933,-107 183.933,-107 188.767,-107 193.6,-102.167 193.6,-97.3333 193.6,-97.3333 193.6,-87.6667 193.6,-87.6667 193.6,-82.8333 188.767,-78 183.933,-78 183.933,-78 174.267,-78 174.267,-78 169.433,-78 164.6,-82.8333 164.6,-87.6667 164.6,-87.6667 164.6,-97.3333 164.6,-97.3333 164.6,-102.167 169.433,-107 174.267,-107"/>
<text text-anchor="middle" x="179.1" y="-88.8" font-family="Times,serif" font-size="14.00">::</text>
</a>
</g>
</g>
<!-- nd222 -->
<g id="node17" class="node"><title>nd222</title>
<g id="a_node17"><a xlink:title="nd222&#45;ContractGraph">
<ellipse fill="black" stroke="black" cx="262.1" cy="-107.5" rx="1.8" ry="1.8"/>
</a>
</g>
</g>
<!-- nd200&#45;&gt;nd222 -->
<g id="edge7" class="edge"><title>nd200:n&#45;&gt;nd222:w</title>
<path fill="none" stroke="black" d="M179.1,-108.5C179.1,-117.39 250.21,-107.5 259.1,-107.5"/>
</g>
<!-- nd223 -->
<g id="node18" class="node"><title>nd223</title>
<g id="a_node18"><a xlink:title="nd223&#45;ContractGraph">
<ellipse fill="black" stroke="black" cx="262.1" cy="-77.5" rx="1.8" ry="1.8"/>
</a>
</g>
</g>
<!-- nd200&#45;&gt;nd223 -->
<g id="edge8" class="edge"><title>nd200:s&#45;&gt;nd223:w</title>
<path fill="none" stroke="black" d="M179.1,-76.5C179.1,-40.9417 223.542,-77.5 259.1,-77.5"/>
</g>
<!-- nd85 -->
<g id="node14" class="node"><title>nd85</title>
<g id="a_node14"><a xlink:title="nd85&#45;AppGraph">
<path fill="none" stroke="#000000" d="M73.5473,-156.554C73.5473,-156.554 69.6719,-150.946 69.6719,-150.946 68.136,-148.723 68.136,-144.277 69.6719,-142.054 69.6719,-142.054 73.5473,-136.446 73.5473,-136.446 75.0833,-134.223 79.3212,-132.002 82.0231,-132.005 82.0231,-132.005 87.4269,-132.009 87.4269,-132.009 90.1288,-132.011 92.8307,-134.715 92.8307,-137.417 92.8307,-137.417 92.8307,-155.583 92.8307,-155.583 92.8307,-158.285 90.1288,-160.989 87.4269,-160.991 87.4269,-160.991 82.0231,-160.995 82.0231,-160.995 79.3212,-160.998 75.0833,-158.777 73.5473,-156.554"/>
<text text-anchor="middle" x="81.1" y="-142.8" font-family="Times,serif" font-size="14.00">@</text>
</a>
</g>
</g>
<!-- nd84&#45;&gt;nd85 -->
<g id="edge14" class="edge"><title>nd84:e&#45;&gt;nd85:w</title>
<path fill="none" stroke="#b70000" d="M48.1,-126.5C60.2086,-126.5 54.4914,-146.5 66.6,-146.5"/>
</g>
<!-- nd232 -->
<g id="node19" class="node"><title>nd232</title>
<g id="a_node19"><a xlink:title="nd232&#45;ConstGraph">
<path fill="none" stroke="purple" d="M76.2667,-119C76.2667,-119 85.9333,-119 85.9333,-119 90.7667,-119 95.6,-114.167 95.6,-109.333 95.6,-109.333 95.6,-99.6667 95.6,-99.6667 95.6,-94.8333 90.7667,-90 85.9333,-90 85.9333,-90 76.2667,-90 76.2667,-90 71.4333,-90 66.6,-94.8333 66.6,-99.6667 66.6,-99.6667 66.6,-109.333 66.6,-109.333 66.6,-114.167 71.4333,-119 76.2667,-119"/>
<text text-anchor="middle" x="81.1" y="-100.8" font-family="Times,serif" font-size="14.00">1</text>
</a>
</g>
</g>
<!-- nd84&#45;&gt;nd232 -->
<g id="edge15" class="edge"><title>nd84:s&#45;&gt;nd232:w</title>
<path fill="none" stroke="black" d="M35.1,-110.5C35.1,-96.2483 52.3483,-104.5 66.6,-104.5"/>
</g>
<!-- nd85&#45;&gt;nd136 -->
<g id="edge12" class="edge"><title>nd85:e&#45;&gt;nd136:w</title>
<path fill="none" stroke="black" d="M94.1,-146.5C104.254,-146.5 104.946,-155.5 115.1,-155.5"/>
</g>
<!-- nd89 -->
<g id="node15" class="node"><title>nd89</title>
<g id="a_node15"><a xlink:title="nd89&#45;AppGraph">
<path fill="none" stroke="#000000" d="M119.547,-126.554C119.547,-126.554 115.672,-120.946 115.672,-120.946 114.136,-118.723 114.136,-114.277 115.672,-112.054 115.672,-112.054 119.547,-106.446 119.547,-106.446 121.083,-104.223 125.321,-102.002 128.023,-102.005 128.023,-102.005 133.427,-102.009 133.427,-102.009 136.129,-102.011 138.831,-104.715 138.831,-107.417 138.831,-107.417 138.831,-125.583 138.831,-125.583 138.831,-128.285 136.129,-130.989 133.427,-130.991 133.427,-130.991 128.023,-130.995 128.023,-130.995 125.321,-130.998 121.083,-128.777 119.547,-126.554"/>
<text text-anchor="middle" x="127.1" y="-112.8" font-family="Times,serif" font-size="14.00">@</text>
</a>
</g>
</g>
<!-- nd85&#45;&gt;nd89 -->
<g id="edge13" class="edge"><title>nd85:s&#45;&gt;nd89:w</title>
<path fill="none" stroke="#b70000" d="M81.1,-130.5C81.1,-123.683 89.3467,-128.214 95.6,-125.5 103.442,-122.096 104.051,-116.5 112.6,-116.5"/>
</g>
<!-- nd89&#45;&gt;nd200 -->
<g id="edge17" class="edge"><title>nd89:s&#45;&gt;nd200:w</title>
<path fill="none" stroke="black" d="M127.1,-100.5C127.1,-83.4583 147.558,-92.5 164.6,-92.5"/>
<text text-anchor="middle" x="153.1" y="-95.3" font-family="Times,serif" font-size="14.00">x</text>
</g>
<!-- nd93 -->
<g id="node20" class="node"><title>nd93</title>
<g id="a_node20"><a xlink:title="nd93&#45;AbsGraph">
<ellipse fill="none" stroke="#000000" cx="179.1" cy="-134.5" rx="14.5" ry="14.5"/>
<text text-anchor="middle" x="179.1" y="-130.8" font-family="Times,serif" font-size="14.00">fun</text>
</a>
</g>
</g>
<!-- nd89&#45;&gt;nd93 -->
<g id="edge11" class="edge"><title>nd89:e&#45;&gt;nd93:w</title>
<path fill="none" stroke="#b70000" d="M140.1,-116.5C153.612,-116.5 151.088,-134.5 164.6,-134.5"/>
</g>
<!-- nd210 -->
<g id="node16" class="node"><title>nd210</title>
<g id="a_node16"><a xlink:title="nd210&#45;ContractGraph">
<ellipse fill="black" stroke="black" cx="308.1" cy="-77.5" rx="1.8" ry="1.8"/>
</a>
</g>
</g>
<!-- nd210&#45;&gt;nd194 -->
<g id="edge21" class="edge"><title>nd210:e&#45;&gt;nd194:w</title>
<path fill="none" stroke="black" d="M311.1,-77.5C323.767,-77.5 326.933,-77.5 339.6,-77.5"/>
</g>
<!-- nd222&#45;&gt;nd16 -->
<g id="edge20" class="edge"><title>nd222:e&#45;&gt;nd16:w</title>
<path fill="none" stroke="black" d="M265.1,-107.5C277.767,-107.5 280.933,-107.5 293.6,-107.5"/>
</g>
<!-- nd223&#45;&gt;nd210 -->
<g id="edge22" class="edge"><title>nd223:e&#45;&gt;nd210:w</title>
<path fill="none" stroke="black" d="M265.1,-77.5C282.878,-77.5 287.322,-77.5 305.1,-77.5"/>
</g>
<!-- nd94 -->
<g id="node21" class="node"><title>nd94</title>
<g id="a_node21"><a xlink:title="nd94&#45;UnOpGraph">
<ellipse fill="none" stroke="#000000" cx="262.1" cy="-145.5" rx="14.5" ry="14.5"/>
<text text-anchor="middle" x="262.1" y="-141.8" font-family="Times,serif" font-size="14.00">tl</text>
</a>
</g>
</g>
<!-- nd93&#45;&gt;nd94 -->
<g id="edge9" class="edge"><title>nd93:e&#45;&gt;nd94:w</title>
<path fill="none" stroke="red" d="M193.6,-134.5C211.695,-134.5 218.251,-135.07 238.172,-142.083"/>
<polygon fill="red" stroke="red" points="237.006,-145.383 247.6,-145.5 239.391,-138.802 237.006,-145.383"/>
</g>
<!-- nd93&#45;&gt;nd94 -->
<g id="edge10" class="edge"><title>nd93:n&#45;&gt;nd94:e</title>
<path fill="none" stroke="grey" d="M179.1,-150.5C179.1,-155.97 273.101,-163.732 277.1,-160 278.281,-158.898 279.715,-145.5 278.1,-145.5"/>
<text text-anchor="middle" x="220.6" y="-163.3" font-family="Times,serif" font-size="14.00">op_arg</text>
</g>
</g>
</svg>
