<?xml version="1.0" encoding="UTF-8" standalone="no"?>
<!DOCTYPE svg PUBLIC "-//W3C//DTD SVG 1.1//EN"
 "http://www.w3.org/Graphics/SVG/1.1/DTD/svg11.dtd">
<!-- Generated by graphviz version 2.38.0 (20140413.2041)
 -->
<!-- Title: G Pages: 1 -->
<svg width="401pt" height="160pt"
 viewBox="0.00 0.00 400.80 160.34" xmlns="http://www.w3.org/2000/svg" xmlns:xlink="http://www.w3.org/1999/xlink">
<g id="graph0" class="graph" transform="scale(1 1) rotate(0) translate(4 156.341)">
<title>G</title>
<polygon fill="white" stroke="none" points="-4,4 -4,-156.341 396.8,-156.341 396.8,4 -4,4"/>
<g id="clust1" class="cluster"><title>cluster_nd318</title>
<polygon fill="none" stroke="orange" points="160.6,-112.5 160.6,-132.5 180.2,-132.5 180.2,-112.5 160.6,-112.5"/>
</g>
<g id="clust2" class="cluster"><title>cluster_nd261</title>
<polygon fill="none" stroke="orange" points="158.6,-60.5 158.6,-103.5 182.2,-103.5 182.2,-60.5 158.6,-60.5"/>
<text text-anchor="middle" x="170.4" y="-88.3" font-family="Times,serif" font-size="14.00">tl</text>
</g>
<!-- nd1 -->
<g id="node1" class="node"><title>nd1</title>
<ellipse fill="black" stroke="black" cx="1.8" cy="-78.5" rx="1.8" ry="1.8"/>
</g>
<!-- nd255 -->
<g id="node9" class="node"><title>nd255</title>
<g id="a_node9"><a xlink:title="nd255&#45;AppGraph">
<path fill="none" stroke="#000000" d="M27.5473,-88.5543C27.5473,-88.5543 23.6719,-82.9457 23.6719,-82.9457 22.136,-80.7229 22.136,-76.2771 23.6719,-74.0543 23.6719,-74.0543 27.5473,-68.4457 27.5473,-68.4457 29.0833,-66.2229 33.3212,-64.0023 36.0231,-64.0045 36.0231,-64.0045 41.4269,-64.009 41.4269,-64.009 44.1288,-64.0113 46.8307,-66.7155 46.8307,-69.4174 46.8307,-69.4174 46.8307,-87.5826 46.8307,-87.5826 46.8307,-90.2845 44.1288,-92.9887 41.4269,-92.991 41.4269,-92.991 36.0231,-92.9955 36.0231,-92.9955 33.3212,-92.9977 29.0833,-90.7771 27.5473,-88.5543"/>
<text text-anchor="middle" x="35.1" y="-74.8" font-family="Times,serif" font-size="14.00">@</text>
</a>
</g>
</g>
<!-- nd1&#45;&gt;nd255 -->
<g id="edge13" class="edge"><title>nd1:e&#45;&gt;nd255:w</title>
<path fill="none" stroke="#b70000" d="M3.6,-78.5C11.1556,-78.5 13.0444,-78.5 20.6,-78.5"/>
</g>
<!-- nd28 -->
<g id="node2" class="node"><title>nd28</title>
<g id="a_node2"><a xlink:title="nd28&#45;ConstGraph">
<path fill="none" stroke="purple" d="M281.467,-80C281.467,-80 291.133,-80 291.133,-80 295.967,-80 300.8,-75.1667 300.8,-70.3333 300.8,-70.3333 300.8,-60.6667 300.8,-60.6667 300.8,-55.8333 295.967,-51 291.133,-51 291.133,-51 281.467,-51 281.467,-51 276.633,-51 271.8,-55.8333 271.8,-60.6667 271.8,-60.6667 271.8,-70.3333 271.8,-70.3333 271.8,-75.1667 276.633,-80 281.467,-80"/>
<text text-anchor="middle" x="286.3" y="-61.8" font-family="Times,serif" font-size="14.00">3</text>
</a>
</g>
</g>
<!-- nd34 -->
<g id="node3" class="node"><title>nd34</title>
<g id="a_node3"><a xlink:title="nd34&#45;ConstGraph">
<path fill="none" stroke="purple" d="M373.467,-71C373.467,-71 383.133,-71 383.133,-71 387.967,-71 392.8,-66.1667 392.8,-61.3333 392.8,-61.3333 392.8,-51.6667 392.8,-51.6667 392.8,-46.8333 387.967,-42 383.133,-42 383.133,-42 373.467,-42 373.467,-42 368.633,-42 363.8,-46.8333 363.8,-51.6667 363.8,-51.6667 363.8,-61.3333 363.8,-61.3333 363.8,-66.1667 368.633,-71 373.467,-71"/>
<text text-anchor="middle" x="378.3" y="-52.8" font-family="Times,serif" font-size="14.00">4</text>
</a>
</g>
</g>
<!-- nd39 -->
<g id="node4" class="node"><title>nd39</title>
<g id="a_node4"><a xlink:title="nd39&#45;ConstEmptyGraph">
<path fill="none" stroke="purple" d="M373.467,-29C373.467,-29 383.133,-29 383.133,-29 387.967,-29 392.8,-24.1667 392.8,-19.3333 392.8,-19.3333 392.8,-9.66667 392.8,-9.66667 392.8,-4.83333 387.967,-1.77636e-15 383.133,-1.77636e-15 383.133,-1.77636e-15 373.467,-1.77636e-15 373.467,-1.77636e-15 368.633,-1.77636e-15 363.8,-4.83333 363.8,-9.66667 363.8,-9.66667 363.8,-19.3333 363.8,-19.3333 363.8,-24.1667 368.633,-29 373.467,-29"/>
<text text-anchor="middle" x="378.3" y="-10.8" font-family="Times,serif" font-size="14.00">[]</text>
</a>
</g>
</g>
<!-- nd182 -->
<g id="node5" class="node"><title>nd182</title>
<g id="a_node5"><a xlink:title="nd182&#45;ConstListGraph">
<path fill="none" stroke="purple" d="M327.467,-50C327.467,-50 337.133,-50 337.133,-50 341.967,-50 346.8,-45.1667 346.8,-40.3333 346.8,-40.3333 346.8,-30.6667 346.8,-30.6667 346.8,-25.8333 341.967,-21 337.133,-21 337.133,-21 327.467,-21 327.467,-21 322.633,-21 317.8,-25.8333 317.8,-30.6667 317.8,-30.6667 317.8,-40.3333 317.8,-40.3333 317.8,-45.1667 322.633,-50 327.467,-50"/>
<text text-anchor="middle" x="332.3" y="-31.8" font-family="Times,serif" font-size="14.00">::</text>
</a>
</g>
</g>
<!-- nd182&#45;&gt;nd34 -->
<g id="edge1" class="edge"><title>nd182:n&#45;&gt;nd34:w</title>
<path fill="none" stroke="purple" d="M332.3,-51.5C332.3,-65.6753 349.625,-56.5 363.8,-56.5"/>
</g>
<!-- nd182&#45;&gt;nd39 -->
<g id="edge2" class="edge"><title>nd182:s&#45;&gt;nd39:w</title>
<path fill="none" stroke="purple" d="M332.3,-19.5C332.3,-5.32473 349.625,-14.5 363.8,-14.5"/>
</g>
<!-- nd188 -->
<g id="node6" class="node"><title>nd188</title>
<g id="a_node6"><a xlink:title="nd188&#45;ConstListGraph">
<path fill="none" stroke="purple" d="M214.867,-65C214.867,-65 224.533,-65 224.533,-65 229.367,-65 234.2,-60.1667 234.2,-55.3333 234.2,-55.3333 234.2,-45.6667 234.2,-45.6667 234.2,-40.8333 229.367,-36 224.533,-36 224.533,-36 214.867,-36 214.867,-36 210.033,-36 205.2,-40.8333 205.2,-45.6667 205.2,-45.6667 205.2,-55.3333 205.2,-55.3333 205.2,-60.1667 210.033,-65 214.867,-65"/>
<text text-anchor="middle" x="219.7" y="-46.8" font-family="Times,serif" font-size="14.00">::</text>
</a>
</g>
</g>
<!-- nd376 -->
<g id="node15" class="node"><title>nd376</title>
<g id="a_node15"><a xlink:title="nd376&#45;ContractGraph">
<ellipse fill="black" stroke="black" cx="253" cy="-65.5" rx="1.8" ry="1.8"/>
</a>
</g>
</g>
<!-- nd188&#45;&gt;nd376 -->
<g id="edge3" class="edge"><title>nd188:n&#45;&gt;nd376:w</title>
<path fill="none" stroke="black" d="M219.7,-66.5C219.7,-80.5071 237.193,-65.5 251.2,-65.5"/>
</g>
<!-- nd377 -->
<g id="node16" class="node"><title>nd377</title>
<g id="a_node16"><a xlink:title="nd377&#45;ContractGraph">
<ellipse fill="black" stroke="black" cx="253" cy="-35.5" rx="1.8" ry="1.8"/>
</a>
</g>
</g>
<!-- nd188&#45;&gt;nd377 -->
<g id="edge4" class="edge"><title>nd188:s&#45;&gt;nd377:w</title>
<path fill="none" stroke="black" d="M219.7,-34.5C219.7,-20.4929 237.193,-35.5 251.2,-35.5"/>
</g>
<!-- nd314 -->
<g id="node7" class="node"><title>nd314</title>
<g id="a_node7"><a xlink:title="nd314&#45;RecurGraph">
<ellipse fill="none" stroke="#000000" cx="127.1" cy="-107.5" rx="11" ry="11"/>
<text text-anchor="middle" x="127.1" y="-103.8" font-family="Times,serif" font-size="14.00">rec</text>
</a>
</g>
</g>
<!-- ndcluster_nd318 -->
<g id="node8" class="node"><title>ndcluster_nd318</title>
<g id="a_node8"><a xlink:title="nd318">
<ellipse fill="orange" stroke="orange" cx="170.4" cy="-122.5" rx="1.8" ry="1.8"/>
</a>
</g>
</g>
<!-- nd314&#45;&gt;ndcluster_nd318 -->
<g id="edge15" class="edge"><title>nd314:n&#45;&gt;ndcluster_nd318:e</title>
<path fill="none" stroke="grey" d="M127.1,-119.5C127.1,-190.886 186.13,-122.5 173.4,-122.5"/>
</g>
<!-- nd314&#45;&gt;ndcluster_nd318 -->
<g id="edge16" class="edge"><title>nd314:e&#45;&gt;ndcluster_nd318:w</title>
<path fill="none" stroke="black" d="M139.1,-107.5C153.335,-107.5 153.165,-122.5 167.4,-122.5"/>
</g>
<!-- nd256 -->
<g id="node10" class="node"><title>nd256</title>
<g id="a_node10"><a xlink:title="nd256&#45;AppGraph">
<path fill="none" stroke="#000000" d="M73.5473,-108.554C73.5473,-108.554 69.6719,-102.946 69.6719,-102.946 68.136,-100.723 68.136,-96.2771 69.6719,-94.0543 69.6719,-94.0543 73.5473,-88.4457 73.5473,-88.4457 75.0833,-86.2229 79.3212,-84.0023 82.0231,-84.0045 82.0231,-84.0045 87.4269,-84.009 87.4269,-84.009 90.1288,-84.0113 92.8307,-86.7155 92.8307,-89.4174 92.8307,-89.4174 92.8307,-107.583 92.8307,-107.583 92.8307,-110.285 90.1288,-112.989 87.4269,-112.991 87.4269,-112.991 82.0231,-112.995 82.0231,-112.995 79.3212,-112.998 75.0833,-110.777 73.5473,-108.554"/>
<text text-anchor="middle" x="81.1" y="-94.8" font-family="Times,serif" font-size="14.00">@</text>
</a>
</g>
</g>
<!-- nd255&#45;&gt;nd256 -->
<g id="edge10" class="edge"><title>nd255:e&#45;&gt;nd256:w</title>
<path fill="none" stroke="#b70000" d="M48.1,-78.5C60.2086,-78.5 54.4914,-98.5 66.6,-98.5"/>
</g>
<!-- nd386 -->
<g id="node17" class="node"><title>nd386</title>
<g id="a_node17"><a xlink:title="nd386&#45;ConstGraph">
<path fill="none" stroke="purple" d="M76.2667,-71C76.2667,-71 85.9333,-71 85.9333,-71 90.7667,-71 95.6,-66.1667 95.6,-61.3333 95.6,-61.3333 95.6,-51.6667 95.6,-51.6667 95.6,-46.8333 90.7667,-42 85.9333,-42 85.9333,-42 76.2667,-42 76.2667,-42 71.4333,-42 66.6,-46.8333 66.6,-51.6667 66.6,-51.6667 66.6,-61.3333 66.6,-61.3333 66.6,-66.1667 71.4333,-71 76.2667,-71"/>
<text text-anchor="middle" x="81.1" y="-52.8" font-family="Times,serif" font-size="14.00">6</text>
</a>
</g>
</g>
<!-- nd255&#45;&gt;nd386 -->
<g id="edge11" class="edge"><title>nd255:s&#45;&gt;nd386:w</title>
<path fill="none" stroke="black" d="M35.1,-62.5C35.1,-48.2483 52.3483,-56.5 66.6,-56.5"/>
</g>
<!-- nd256&#45;&gt;nd314 -->
<g id="edge8" class="edge"><title>nd256:e&#45;&gt;nd314:w</title>
<path fill="none" stroke="black" d="M94.1,-98.5C104.254,-98.5 104.946,-107.5 115.1,-107.5"/>
</g>
<!-- nd258 -->
<g id="node11" class="node"><title>nd258</title>
<g id="a_node11"><a xlink:title="nd258&#45;AppGraph">
<path fill="none" stroke="#000000" d="M119.547,-78.5543C119.547,-78.5543 115.672,-72.9457 115.672,-72.9457 114.136,-70.7229 114.136,-66.2771 115.672,-64.0543 115.672,-64.0543 119.547,-58.4457 119.547,-58.4457 121.083,-56.2229 125.321,-54.0023 128.023,-54.0045 128.023,-54.0045 133.427,-54.009 133.427,-54.009 136.129,-54.0113 138.831,-56.7155 138.831,-59.4174 138.831,-59.4174 138.831,-77.5826 138.831,-77.5826 138.831,-80.2845 136.129,-82.9887 133.427,-82.991 133.427,-82.991 128.023,-82.9955 128.023,-82.9955 125.321,-82.9977 121.083,-80.7771 119.547,-78.5543"/>
<text text-anchor="middle" x="127.1" y="-64.8" font-family="Times,serif" font-size="14.00">@</text>
</a>
</g>
</g>
<!-- nd256&#45;&gt;nd258 -->
<g id="edge9" class="edge"><title>nd256:s&#45;&gt;nd258:w</title>
<path fill="none" stroke="#b70000" d="M81.1,-82.5C81.1,-75.6832 89.3467,-80.214 95.6,-77.5 103.442,-74.0963 104.051,-68.5 112.6,-68.5"/>
</g>
<!-- ndcluster_nd261 -->
<g id="node12" class="node"><title>ndcluster_nd261</title>
<g id="a_node12"><a xlink:title="nd261">
<ellipse fill="orange" stroke="orange" cx="170.4" cy="-70.5" rx="1.8" ry="1.8"/>
</a>
</g>
</g>
<!-- nd258&#45;&gt;ndcluster_nd261 -->
<g id="edge7" class="edge"><title>nd258:e&#45;&gt;ndcluster_nd261:w</title>
<path fill="none" stroke="black" d="M140.1,-68.5C152.266,-68.5 155.234,-70.5 167.4,-70.5"/>
</g>
<!-- nd274 -->
<g id="node13" class="node"><title>nd274</title>
<g id="a_node13"><a xlink:title="nd274&#45;ContractGraph">
<ellipse fill="black" stroke="black" cx="170.4" cy="-50.5" rx="1.8" ry="1.8"/>
</a>
</g>
</g>
<!-- nd258&#45;&gt;nd274 -->
<g id="edge12" class="edge"><title>nd258:s&#45;&gt;nd274:w</title>
<path fill="none" stroke="#b70000" d="M127.1,-52.5C127.1,-34.5668 149.467,-50.5 167.4,-50.5"/>
</g>
<!-- nd274&#45;&gt;nd188 -->
<g id="edge14" class="edge"><title>nd274:e&#45;&gt;nd188:w</title>
<path fill="none" stroke="red" d="M173.4,-50.5C183.338,-50.5 188.035,-50.5 194.86,-50.5"/>
<polygon fill="red" stroke="red" points="195.2,-54.0001 205.2,-50.5 195.2,-47.0001 195.2,-54.0001"/>
<text text-anchor="middle" x="193.7" y="-54.3" font-family="Times,serif" font-size="14.00">x</text>
</g>
<!-- nd364 -->
<g id="node14" class="node"><title>nd364</title>
<g id="a_node14"><a xlink:title="nd364&#45;ContractGraph">
<ellipse fill="black" stroke="black" cx="286.3" cy="-35.5" rx="1.8" ry="1.8"/>
</a>
</g>
</g>
<!-- nd364&#45;&gt;nd182 -->
<g id="edge6" class="edge"><title>nd364:e&#45;&gt;nd182:w</title>
<path fill="none" stroke="black" d="M289.3,-35.5C301.967,-35.5 305.133,-35.5 317.8,-35.5"/>
</g>
<!-- nd376&#45;&gt;nd28 -->
<g id="edge5" class="edge"><title>nd376:e&#45;&gt;nd28:w</title>
<path fill="none" stroke="black" d="M254.8,-65.5C262.356,-65.5 264.244,-65.5 271.8,-65.5"/>
</g>
<!-- nd377&#45;&gt;nd364 -->
<g id="edge17" class="edge"><title>nd377:e&#45;&gt;nd364:w</title>
<path fill="none" stroke="black" d="M254.8,-35.5C267.467,-35.5 270.633,-35.5 283.3,-35.5"/>
</g>
</g>
</svg>
