<?xml version="1.0" encoding="UTF-8" standalone="no"?>
<!DOCTYPE svg PUBLIC "-//W3C//DTD SVG 1.1//EN"
 "http://www.w3.org/Graphics/SVG/1.1/DTD/svg11.dtd">
<!-- Generated by graphviz version 2.38.0 (20140413.2041)
 -->
<!-- Title: G Pages: 1 -->
<svg width="387pt" height="179pt"
 viewBox="0.00 0.00 386.80 178.78" xmlns="http://www.w3.org/2000/svg" xmlns:xlink="http://www.w3.org/1999/xlink">
<g id="graph0" class="graph" transform="scale(1 1) rotate(0) translate(4 174.775)">
<title>G</title>
<polygon fill="white" stroke="none" points="-4,4 -4,-174.775 382.8,-174.775 382.8,4 -4,4"/>
<g id="clust1" class="cluster"><title>cluster_nd318</title>
<polygon fill="none" stroke="orange" points="169.3,-142.5 169.3,-162.5 188.9,-162.5 188.9,-142.5 169.3,-142.5"/>
</g>
<g id="clust2" class="cluster"><title>cluster_nd261</title>
<polygon fill="none" stroke="orange" points="167.3,-90.5 167.3,-133.5 190.9,-133.5 190.9,-90.5 167.3,-90.5"/>
<text text-anchor="middle" x="179.1" y="-118.3" font-family="Times,serif" font-size="14.00">tl</text>
</g>
<!-- nd1 -->
<g id="node1" class="node"><title>nd1</title>
<ellipse fill="black" stroke="black" cx="1.8" cy="-87.5" rx="1.8" ry="1.8"/>
</g>
<!-- nd255 -->
<g id="node10" class="node"><title>nd255</title>
<g id="a_node10"><a xlink:title="nd255&#45;AppGraph">
<path fill="none" stroke="#000000" d="M27.5473,-97.5543C27.5473,-97.5543 23.6719,-91.9457 23.6719,-91.9457 22.136,-89.7229 22.136,-85.2771 23.6719,-83.0543 23.6719,-83.0543 27.5473,-77.4457 27.5473,-77.4457 29.0833,-75.2229 33.3212,-73.0023 36.0231,-73.0045 36.0231,-73.0045 41.4269,-73.009 41.4269,-73.009 44.1288,-73.0113 46.8307,-75.7155 46.8307,-78.4174 46.8307,-78.4174 46.8307,-96.5826 46.8307,-96.5826 46.8307,-99.2845 44.1288,-101.989 41.4269,-101.991 41.4269,-101.991 36.0231,-101.995 36.0231,-101.995 33.3212,-101.998 29.0833,-99.7771 27.5473,-97.5543"/>
<text text-anchor="middle" x="35.1" y="-83.8" font-family="Times,serif" font-size="14.00">@</text>
</a>
</g>
</g>
<!-- nd1&#45;&gt;nd255 -->
<g id="edge14" class="edge"><title>nd1:e&#45;&gt;nd255:w</title>
<path fill="none" stroke="#b70000" d="M3.6,-87.5C11.1556,-87.5 13.0444,-87.5 20.6,-87.5"/>
</g>
<!-- nd28 -->
<g id="node2" class="node"><title>nd28</title>
<g id="a_node2"><a xlink:title="nd28&#45;ConstGraph">
<path fill="none" stroke="purple" d="M313.467,-92C313.467,-92 323.133,-92 323.133,-92 327.967,-92 332.8,-87.1667 332.8,-82.3333 332.8,-82.3333 332.8,-72.6667 332.8,-72.6667 332.8,-67.8333 327.967,-63 323.133,-63 323.133,-63 313.467,-63 313.467,-63 308.633,-63 303.8,-67.8333 303.8,-72.6667 303.8,-72.6667 303.8,-82.3333 303.8,-82.3333 303.8,-87.1667 308.633,-92 313.467,-92"/>
<text text-anchor="middle" x="318.3" y="-73.8" font-family="Times,serif" font-size="14.00">3</text>
</a>
</g>
</g>
<!-- nd34 -->
<g id="node3" class="node"><title>nd34</title>
<g id="a_node3"><a xlink:title="nd34&#45;ConstGraph">
<path fill="none" stroke="purple" d="M359.467,-71C359.467,-71 369.133,-71 369.133,-71 373.967,-71 378.8,-66.1667 378.8,-61.3333 378.8,-61.3333 378.8,-51.6667 378.8,-51.6667 378.8,-46.8333 373.967,-42 369.133,-42 369.133,-42 359.467,-42 359.467,-42 354.633,-42 349.8,-46.8333 349.8,-51.6667 349.8,-51.6667 349.8,-61.3333 349.8,-61.3333 349.8,-66.1667 354.633,-71 359.467,-71"/>
<text text-anchor="middle" x="364.3" y="-52.8" font-family="Times,serif" font-size="14.00">4</text>
</a>
</g>
</g>
<!-- nd39 -->
<g id="node4" class="node"><title>nd39</title>
<g id="a_node4"><a xlink:title="nd39&#45;ConstEmptyGraph">
<path fill="none" stroke="purple" d="M359.467,-29C359.467,-29 369.133,-29 369.133,-29 373.967,-29 378.8,-24.1667 378.8,-19.3333 378.8,-19.3333 378.8,-9.66667 378.8,-9.66667 378.8,-4.83333 373.967,-1.77636e-15 369.133,-1.77636e-15 369.133,-1.77636e-15 359.467,-1.77636e-15 359.467,-1.77636e-15 354.633,-1.77636e-15 349.8,-4.83333 349.8,-9.66667 349.8,-9.66667 349.8,-19.3333 349.8,-19.3333 349.8,-24.1667 354.633,-29 359.467,-29"/>
<text text-anchor="middle" x="364.3" y="-10.8" font-family="Times,serif" font-size="14.00">[]</text>
</a>
</g>
</g>
<!-- nd182 -->
<g id="node5" class="node"><title>nd182</title>
<g id="a_node5"><a xlink:title="nd182&#45;ConstListGraph">
<path fill="none" stroke="purple" d="M313.467,-50C313.467,-50 323.133,-50 323.133,-50 327.967,-50 332.8,-45.1667 332.8,-40.3333 332.8,-40.3333 332.8,-30.6667 332.8,-30.6667 332.8,-25.8333 327.967,-21 323.133,-21 323.133,-21 313.467,-21 313.467,-21 308.633,-21 303.8,-25.8333 303.8,-30.6667 303.8,-30.6667 303.8,-40.3333 303.8,-40.3333 303.8,-45.1667 308.633,-50 313.467,-50"/>
<text text-anchor="middle" x="318.3" y="-31.8" font-family="Times,serif" font-size="14.00">::</text>
</a>
</g>
</g>
<!-- nd182&#45;&gt;nd34 -->
<g id="edge1" class="edge"><title>nd182:n&#45;&gt;nd34:w</title>
<path fill="none" stroke="purple" d="M318.3,-51.5C318.3,-55.0438 346.256,-56.5 349.8,-56.5"/>
</g>
<!-- nd182&#45;&gt;nd39 -->
<g id="edge2" class="edge"><title>nd182:s&#45;&gt;nd39:w</title>
<path fill="none" stroke="purple" d="M318.3,-19.5C318.3,-5.32473 335.625,-14.5 349.8,-14.5"/>
</g>
<!-- nd188 -->
<g id="node6" class="node"><title>nd188</title>
<g id="a_node6"><a xlink:title="nd188&#45;ConstListGraph">
<path fill="none" stroke="purple" d="M226.267,-70C226.267,-70 235.933,-70 235.933,-70 240.767,-70 245.6,-65.1667 245.6,-60.3333 245.6,-60.3333 245.6,-50.6667 245.6,-50.6667 245.6,-45.8333 240.767,-41 235.933,-41 235.933,-41 226.267,-41 226.267,-41 221.433,-41 216.6,-45.8333 216.6,-50.6667 216.6,-50.6667 216.6,-60.3333 216.6,-60.3333 216.6,-65.1667 221.433,-70 226.267,-70"/>
<text text-anchor="middle" x="231.1" y="-51.8" font-family="Times,serif" font-size="14.00">::</text>
</a>
</g>
</g>
<!-- nd376 -->
<g id="node19" class="node"><title>nd376</title>
<g id="a_node19"><a xlink:title="nd376&#45;ContractGraph">
<ellipse fill="black" stroke="black" cx="264.4" cy="-70.5" rx="1.8" ry="1.8"/>
</a>
</g>
</g>
<!-- nd188&#45;&gt;nd376 -->
<g id="edge3" class="edge"><title>nd188:n&#45;&gt;nd376:w</title>
<path fill="none" stroke="black" d="M231.1,-71.5C231.1,-85.5071 248.593,-70.5 262.6,-70.5"/>
</g>
<!-- nd377 -->
<g id="node20" class="node"><title>nd377</title>
<g id="a_node20"><a xlink:title="nd377&#45;ContractGraph">
<ellipse fill="black" stroke="black" cx="264.4" cy="-36.5" rx="1.8" ry="1.8"/>
</a>
</g>
</g>
<!-- nd188&#45;&gt;nd377 -->
<g id="edge4" class="edge"><title>nd188:s&#45;&gt;nd377:w</title>
<path fill="none" stroke="black" d="M231.1,-39.5C231.1,-25.4367 248.537,-36.5 262.6,-36.5"/>
</g>
<!-- nd309 -->
<g id="node7" class="node"><title>nd309</title>
<g id="a_node7"><a xlink:title="nd309&#45;ConstGraph">
<path fill="none" stroke="purple" d="M174.267,-66C174.267,-66 183.933,-66 183.933,-66 188.767,-66 193.6,-61.1667 193.6,-56.3333 193.6,-56.3333 193.6,-46.6667 193.6,-46.6667 193.6,-41.8333 188.767,-37 183.933,-37 183.933,-37 174.267,-37 174.267,-37 169.433,-37 164.6,-41.8333 164.6,-46.6667 164.6,-46.6667 164.6,-56.3333 164.6,-56.3333 164.6,-61.1667 169.433,-66 174.267,-66"/>
<text text-anchor="middle" x="179.1" y="-47.8" font-family="Times,serif" font-size="14.00">3</text>
</a>
</g>
</g>
<!-- nd314 -->
<g id="node8" class="node"><title>nd314</title>
<g id="a_node8"><a xlink:title="nd314&#45;RecurGraph">
<ellipse fill="none" stroke="#000000" cx="127.1" cy="-134.5" rx="11" ry="11"/>
<text text-anchor="middle" x="127.1" y="-130.8" font-family="Times,serif" font-size="14.00">rec</text>
</a>
</g>
</g>
<!-- ndcluster_nd318 -->
<g id="node9" class="node"><title>ndcluster_nd318</title>
<g id="a_node9"><a xlink:title="nd318">
<ellipse fill="orange" stroke="orange" cx="179.1" cy="-152.5" rx="1.8" ry="1.8"/>
</a>
</g>
</g>
<!-- nd314&#45;&gt;ndcluster_nd318 -->
<g id="edge18" class="edge"><title>nd314:n&#45;&gt;ndcluster_nd318:e</title>
<path fill="none" stroke="grey" d="M127.1,-146.5C127.1,-197.095 190.08,-152.5 182.1,-152.5"/>
</g>
<!-- nd314&#45;&gt;ndcluster_nd318 -->
<g id="edge19" class="edge"><title>nd314:e&#45;&gt;ndcluster_nd318:w</title>
<path fill="none" stroke="black" d="M139.1,-134.5C157.387,-134.5 157.813,-152.5 176.1,-152.5"/>
</g>
<!-- nd256 -->
<g id="node11" class="node"><title>nd256</title>
<g id="a_node11"><a xlink:title="nd256&#45;AppGraph">
<path fill="none" stroke="#000000" d="M73.5473,-120.554C73.5473,-120.554 69.6719,-114.946 69.6719,-114.946 68.136,-112.723 68.136,-108.277 69.6719,-106.054 69.6719,-106.054 73.5473,-100.446 73.5473,-100.446 75.0833,-98.2229 79.3212,-96.0023 82.0231,-96.0045 82.0231,-96.0045 87.4269,-96.009 87.4269,-96.009 90.1288,-96.0113 92.8307,-98.7155 92.8307,-101.417 92.8307,-101.417 92.8307,-119.583 92.8307,-119.583 92.8307,-122.285 90.1288,-124.989 87.4269,-124.991 87.4269,-124.991 82.0231,-124.995 82.0231,-124.995 79.3212,-124.998 75.0833,-122.777 73.5473,-120.554"/>
<text text-anchor="middle" x="81.1" y="-106.8" font-family="Times,serif" font-size="14.00">@</text>
</a>
</g>
</g>
<!-- nd255&#45;&gt;nd256 -->
<g id="edge11" class="edge"><title>nd255:e&#45;&gt;nd256:w</title>
<path fill="none" stroke="black" d="M48.1,-87.5C61.2186,-87.5 53.4814,-110.5 66.6,-110.5"/>
</g>
<!-- nd266 -->
<g id="node14" class="node"><title>nd266</title>
<g id="a_node14"><a xlink:title="nd266&#45;BinOpGraph">
<ellipse fill="none" stroke="#000000" cx="81.1" cy="-36.5" rx="14.5" ry="14.5"/>
<text text-anchor="middle" x="81.1" y="-32.8" font-family="Times,serif" font-size="14.00">+</text>
</a>
</g>
</g>
<!-- nd255&#45;&gt;nd266 -->
<g id="edge12" class="edge"><title>nd255:s&#45;&gt;nd266:w</title>
<path fill="none" stroke="#b70000" d="M35.1,-71.5C35.1,-50.5721 45.6721,-36.5 66.6,-36.5"/>
</g>
<!-- nd256&#45;&gt;nd314 -->
<g id="edge9" class="edge"><title>nd256:e&#45;&gt;nd314:w</title>
<path fill="none" stroke="black" d="M94.1,-110.5C108.274,-110.5 100.926,-134.5 115.1,-134.5"/>
</g>
<!-- nd258 -->
<g id="node12" class="node"><title>nd258</title>
<g id="a_node12"><a xlink:title="nd258&#45;AppGraph">
<path fill="none" stroke="#000000" d="M119.547,-105.554C119.547,-105.554 115.672,-99.9457 115.672,-99.9457 114.136,-97.7229 114.136,-93.2771 115.672,-91.0543 115.672,-91.0543 119.547,-85.4457 119.547,-85.4457 121.083,-83.2229 125.321,-81.0023 128.023,-81.0045 128.023,-81.0045 133.427,-81.009 133.427,-81.009 136.129,-81.0113 138.831,-83.7155 138.831,-86.4174 138.831,-86.4174 138.831,-104.583 138.831,-104.583 138.831,-107.285 136.129,-109.989 133.427,-109.991 133.427,-109.991 128.023,-109.995 128.023,-109.995 125.321,-109.998 121.083,-107.777 119.547,-105.554"/>
<text text-anchor="middle" x="127.1" y="-91.8" font-family="Times,serif" font-size="14.00">@</text>
</a>
</g>
</g>
<!-- nd256&#45;&gt;nd258 -->
<g id="edge10" class="edge"><title>nd256:s&#45;&gt;nd258:w</title>
<path fill="none" stroke="black" d="M81.1,-94.5C81.1,-80.4929 98.5929,-95.5 112.6,-95.5"/>
</g>
<!-- ndcluster_nd261 -->
<g id="node13" class="node"><title>ndcluster_nd261</title>
<g id="a_node13"><a xlink:title="nd261">
<ellipse fill="orange" stroke="orange" cx="179.1" cy="-100.5" rx="1.8" ry="1.8"/>
</a>
</g>
</g>
<!-- nd258&#45;&gt;ndcluster_nd261 -->
<g id="edge8" class="edge"><title>nd258:e&#45;&gt;ndcluster_nd261:w</title>
<path fill="none" stroke="black" d="M140.1,-95.5C156.254,-95.5 159.946,-100.5 176.1,-100.5"/>
</g>
<!-- nd274 -->
<g id="node15" class="node"><title>nd274</title>
<g id="a_node15"><a xlink:title="nd274&#45;ContractGraph">
<ellipse fill="black" stroke="black" cx="179.1" cy="-80.5" rx="1.8" ry="1.8"/>
</a>
</g>
</g>
<!-- nd258&#45;&gt;nd274 -->
<g id="edge13" class="edge"><title>nd258:s&#45;&gt;nd274:w</title>
<path fill="none" stroke="black" d="M127.1,-79.5C127.1,-57.7177 154.318,-80.5 176.1,-80.5"/>
</g>
<!-- nd275 -->
<g id="node16" class="node"><title>nd275</title>
<g id="a_node16"><a xlink:title="nd275&#45;ContractGraph">
<ellipse fill="black" stroke="black" cx="127.1" cy="-51.5" rx="1.8" ry="1.8"/>
</a>
</g>
</g>
<!-- nd266&#45;&gt;nd275 -->
<g id="edge15" class="edge"><title>nd266:n&#45;&gt;nd275:w</title>
<path fill="none" stroke="black" d="M81.1,-52.5C81.1,-71.6163 104.984,-51.5 124.1,-51.5"/>
</g>
<!-- nd266&#45;&gt;nd376 -->
<g id="edge7" class="edge"><title>nd266:s&#45;&gt;nd376:w</title>
<path fill="none" stroke="#b70000" d="M81.1,-20.5C81.1,-0.421143 106.021,-16.5 126.1,-16.5 126.1,-16.5 126.1,-16.5 232.1,-16.5 259.664,-16.5 235.036,-70.5 262.6,-70.5"/>
</g>
<!-- nd274&#45;&gt;nd188 -->
<g id="edge17" class="edge"><title>nd274:e&#45;&gt;nd188:w</title>
<path fill="none" stroke="black" d="M182.1,-80.5C201.036,-80.5 197.664,-55.5 216.6,-55.5"/>
<text text-anchor="middle" x="205.1" y="-67.3" font-family="Times,serif" font-size="14.00">x</text>
</g>
<!-- nd275&#45;&gt;nd309 -->
<g id="edge16" class="edge"><title>nd275:e&#45;&gt;nd309:w</title>
<path fill="none" stroke="black" d="M130.1,-51.5C145.433,-51.5 149.267,-51.5 164.6,-51.5"/>
<text text-anchor="middle" x="153.1" y="-55.3" font-family="Times,serif" font-size="14.00">y</text>
</g>
<!-- nd363 -->
<g id="node17" class="node"><title>nd363</title>
<g id="a_node17"><a xlink:title="nd363&#45;ContractGraph">
<ellipse fill="black" stroke="black" cx="285" cy="-76.5" rx="1.8" ry="1.8"/>
</a>
</g>
</g>
<!-- nd363&#45;&gt;nd28 -->
<g id="edge5" class="edge"><title>nd363:e&#45;&gt;nd28:w</title>
<path fill="none" stroke="black" d="M286.8,-76.5C294.369,-76.5 296.231,-77.5 303.8,-77.5"/>
</g>
<!-- nd364 -->
<g id="node18" class="node"><title>nd364</title>
<g id="a_node18"><a xlink:title="nd364&#45;ContractGraph">
<ellipse fill="black" stroke="black" cx="285" cy="-35.5" rx="1.8" ry="1.8"/>
</a>
</g>
</g>
<!-- nd364&#45;&gt;nd182 -->
<g id="edge6" class="edge"><title>nd364:e&#45;&gt;nd182:w</title>
<path fill="none" stroke="black" d="M286.8,-35.5C294.356,-35.5 296.244,-35.5 303.8,-35.5"/>
</g>
<!-- nd376&#45;&gt;nd363 -->
<g id="edge20" class="edge"><title>nd376:e&#45;&gt;nd363:w</title>
<path fill="none" stroke="red" d="M266.2,-70.5C269.705,-70.5 271.864,-71.6484 273.854,-72.9404"/>
<polygon fill="red" stroke="red" points="272.609,-76.2115 283.2,-76.5 275.101,-69.6699 272.609,-76.2115"/>
</g>
<!-- nd377&#45;&gt;nd364 -->
<g id="edge21" class="edge"><title>nd377:e&#45;&gt;nd364:w</title>
<path fill="none" stroke="black" d="M266.2,-36.5C273.769,-36.5 275.631,-35.5 283.2,-35.5"/>
</g>
</g>
</svg>
