<?xml version="1.0" encoding="UTF-8" standalone="no"?>
<!DOCTYPE svg PUBLIC "-//W3C//DTD SVG 1.1//EN"
 "http://www.w3.org/Graphics/SVG/1.1/DTD/svg11.dtd">
<!-- Generated by graphviz version 2.38.0 (20140413.2041)
 -->
<!-- Title: G Pages: 1 -->
<svg width="473pt" height="287pt"
 viewBox="0.00 0.00 472.80 286.50" xmlns="http://www.w3.org/2000/svg" xmlns:xlink="http://www.w3.org/1999/xlink">
<g id="graph0" class="graph" transform="scale(1 1) rotate(0) translate(4 282.5)">
<title>G</title>
<polygon fill="white" stroke="none" points="-4,4 -4,-282.5 468.8,-282.5 468.8,4 -4,4"/>
<g id="clust1" class="cluster"><title>cluster_nd140</title>
<polygon fill="none" stroke="orange" points="163.3,-250.5 163.3,-270.5 182.9,-270.5 182.9,-250.5 163.3,-250.5"/>
</g>
<g id="clust2" class="cluster"><title>cluster_nd91</title>
<polygon fill="none" stroke="orange" points="161.3,-198.5 161.3,-241.5 184.9,-241.5 184.9,-198.5 161.3,-198.5"/>
<text text-anchor="middle" x="173.1" y="-226.3" font-family="Times,serif" font-size="14.00">tl</text>
</g>
<g id="clust3" class="cluster"><title>cluster_nd110</title>
<polygon fill="none" stroke="orange" points="210.3,-94.5 210.3,-137.5 239.9,-137.5 239.9,-94.5 210.3,-94.5"/>
<text text-anchor="middle" x="225.1" y="-122.3" font-family="Times,serif" font-size="14.00">hd</text>
</g>
<!-- nd1 -->
<g id="node1" class="node"><title>nd1</title>
<ellipse fill="black" stroke="black" cx="1.8" cy="-189.5" rx="1.8" ry="1.8"/>
</g>
<!-- nd84 -->
<g id="node14" class="node"><title>nd84</title>
<g id="a_node14"><a xlink:title="nd84&#45;AppGraph">
<path fill="none" stroke="#000000" d="M27.5473,-199.554C27.5473,-199.554 23.6719,-193.946 23.6719,-193.946 22.136,-191.723 22.136,-187.277 23.6719,-185.054 23.6719,-185.054 27.5473,-179.446 27.5473,-179.446 29.0833,-177.223 33.3212,-175.002 36.0231,-175.005 36.0231,-175.005 41.4269,-175.009 41.4269,-175.009 44.1288,-175.011 46.8307,-177.715 46.8307,-180.417 46.8307,-180.417 46.8307,-198.583 46.8307,-198.583 46.8307,-201.285 44.1288,-203.989 41.4269,-203.991 41.4269,-203.991 36.0231,-203.995 36.0231,-203.995 33.3212,-203.998 29.0833,-201.777 27.5473,-199.554"/>
<text text-anchor="middle" x="35.1" y="-185.8" font-family="Times,serif" font-size="14.00">@</text>
</a>
</g>
</g>
<!-- nd1&#45;&gt;nd84 -->
<g id="edge18" class="edge"><title>nd1:e&#45;&gt;nd84:w</title>
<path fill="none" stroke="#b70000" d="M3.6,-189.5C11.1556,-189.5 13.0444,-189.5 20.6,-189.5"/>
</g>
<!-- nd136 -->
<g id="node2" class="node"><title>nd136</title>
<g id="a_node2"><a xlink:title="nd136&#45;RecurGraph">
<ellipse fill="none" stroke="#000000" cx="127.1" cy="-242.5" rx="11" ry="11"/>
<text text-anchor="middle" x="127.1" y="-238.8" font-family="Times,serif" font-size="14.00">rec</text>
</a>
</g>
</g>
<!-- ndcluster_nd140 -->
<g id="node3" class="node"><title>ndcluster_nd140</title>
<g id="a_node3"><a xlink:title="nd140">
<ellipse fill="orange" stroke="orange" cx="173.1" cy="-260.5" rx="1.8" ry="1.8"/>
</a>
</g>
</g>
<!-- nd136&#45;&gt;ndcluster_nd140 -->
<g id="edge22" class="edge"><title>nd136:n&#45;&gt;ndcluster_nd140:e</title>
<path fill="none" stroke="grey" d="M127.1,-254.5C127.1,-296.455 183.047,-260.5 176.1,-260.5"/>
</g>
<!-- nd136&#45;&gt;ndcluster_nd140 -->
<g id="edge23" class="edge"><title>nd136:e&#45;&gt;ndcluster_nd140:w</title>
<path fill="none" stroke="black" d="M139.1,-242.5C155.032,-242.5 154.168,-260.5 170.1,-260.5"/>
</g>
<!-- nd16 -->
<g id="node4" class="node"><title>nd16</title>
<g id="a_node4"><a xlink:title="nd16&#45;ConstGraph">
<path fill="none" stroke="purple" d="M307.467,-138C307.467,-138 317.133,-138 317.133,-138 321.967,-138 326.8,-133.167 326.8,-128.333 326.8,-128.333 326.8,-118.667 326.8,-118.667 326.8,-113.833 321.967,-109 317.133,-109 317.133,-109 307.467,-109 307.467,-109 302.633,-109 297.8,-113.833 297.8,-118.667 297.8,-118.667 297.8,-128.333 297.8,-128.333 297.8,-133.167 302.633,-138 307.467,-138"/>
<text text-anchor="middle" x="312.3" y="-119.8" font-family="Times,serif" font-size="14.00">1</text>
</a>
</g>
</g>
<!-- nd22 -->
<g id="node5" class="node"><title>nd22</title>
<g id="a_node5"><a xlink:title="nd22&#45;ConstGraph">
<path fill="none" stroke="purple" d="M353.467,-113C353.467,-113 363.133,-113 363.133,-113 367.967,-113 372.8,-108.167 372.8,-103.333 372.8,-103.333 372.8,-93.6667 372.8,-93.6667 372.8,-88.8333 367.967,-84 363.133,-84 363.133,-84 353.467,-84 353.467,-84 348.633,-84 343.8,-88.8333 343.8,-93.6667 343.8,-93.6667 343.8,-103.333 343.8,-103.333 343.8,-108.167 348.633,-113 353.467,-113"/>
<text text-anchor="middle" x="358.3" y="-94.8" font-family="Times,serif" font-size="14.00">2</text>
</a>
</g>
</g>
<!-- nd28 -->
<g id="node6" class="node"><title>nd28</title>
<g id="a_node6"><a xlink:title="nd28&#45;ConstGraph">
<path fill="none" stroke="purple" d="M399.467,-92C399.467,-92 409.133,-92 409.133,-92 413.967,-92 418.8,-87.1667 418.8,-82.3333 418.8,-82.3333 418.8,-72.6667 418.8,-72.6667 418.8,-67.8333 413.967,-63 409.133,-63 409.133,-63 399.467,-63 399.467,-63 394.633,-63 389.8,-67.8333 389.8,-72.6667 389.8,-72.6667 389.8,-82.3333 389.8,-82.3333 389.8,-87.1667 394.633,-92 399.467,-92"/>
<text text-anchor="middle" x="404.3" y="-73.8" font-family="Times,serif" font-size="14.00">3</text>
</a>
</g>
</g>
<!-- nd34 -->
<g id="node7" class="node"><title>nd34</title>
<g id="a_node7"><a xlink:title="nd34&#45;ConstGraph">
<path fill="none" stroke="purple" d="M445.467,-71C445.467,-71 455.133,-71 455.133,-71 459.967,-71 464.8,-66.1667 464.8,-61.3333 464.8,-61.3333 464.8,-51.6667 464.8,-51.6667 464.8,-46.8333 459.967,-42 455.133,-42 455.133,-42 445.467,-42 445.467,-42 440.633,-42 435.8,-46.8333 435.8,-51.6667 435.8,-51.6667 435.8,-61.3333 435.8,-61.3333 435.8,-66.1667 440.633,-71 445.467,-71"/>
<text text-anchor="middle" x="450.3" y="-52.8" font-family="Times,serif" font-size="14.00">4</text>
</a>
</g>
</g>
<!-- nd39 -->
<g id="node8" class="node"><title>nd39</title>
<g id="a_node8"><a xlink:title="nd39&#45;ConstEmptyGraph">
<path fill="none" stroke="purple" d="M445.467,-29C445.467,-29 455.133,-29 455.133,-29 459.967,-29 464.8,-24.1667 464.8,-19.3333 464.8,-19.3333 464.8,-9.66667 464.8,-9.66667 464.8,-4.83333 459.967,-1.77636e-15 455.133,-1.77636e-15 455.133,-1.77636e-15 445.467,-1.77636e-15 445.467,-1.77636e-15 440.633,-1.77636e-15 435.8,-4.83333 435.8,-9.66667 435.8,-9.66667 435.8,-19.3333 435.8,-19.3333 435.8,-24.1667 440.633,-29 445.467,-29"/>
<text text-anchor="middle" x="450.3" y="-10.8" font-family="Times,serif" font-size="14.00">[]</text>
</a>
</g>
</g>
<!-- nd50 -->
<g id="node9" class="node"><title>nd50</title>
<g id="a_node9"><a xlink:title="nd50&#45;ConstGraph">
<path fill="none" stroke="purple" d="M220.267,-175C220.267,-175 229.933,-175 229.933,-175 234.767,-175 239.6,-170.167 239.6,-165.333 239.6,-165.333 239.6,-155.667 239.6,-155.667 239.6,-150.833 234.767,-146 229.933,-146 229.933,-146 220.267,-146 220.267,-146 215.433,-146 210.6,-150.833 210.6,-155.667 210.6,-155.667 210.6,-165.333 210.6,-165.333 210.6,-170.167 215.433,-175 220.267,-175"/>
<text text-anchor="middle" x="225.1" y="-156.8" font-family="Times,serif" font-size="14.00">0</text>
</a>
</g>
</g>
<!-- nd182 -->
<g id="node10" class="node"><title>nd182</title>
<g id="a_node10"><a xlink:title="nd182&#45;ConstListGraph">
<path fill="none" stroke="purple" d="M399.467,-50C399.467,-50 409.133,-50 409.133,-50 413.967,-50 418.8,-45.1667 418.8,-40.3333 418.8,-40.3333 418.8,-30.6667 418.8,-30.6667 418.8,-25.8333 413.967,-21 409.133,-21 409.133,-21 399.467,-21 399.467,-21 394.633,-21 389.8,-25.8333 389.8,-30.6667 389.8,-30.6667 389.8,-40.3333 389.8,-40.3333 389.8,-45.1667 394.633,-50 399.467,-50"/>
<text text-anchor="middle" x="404.3" y="-31.8" font-family="Times,serif" font-size="14.00">::</text>
</a>
</g>
</g>
<!-- nd182&#45;&gt;nd34 -->
<g id="edge1" class="edge"><title>nd182:n&#45;&gt;nd34:w</title>
<path fill="none" stroke="purple" d="M404.3,-51.5C404.3,-55.0438 432.256,-56.5 435.8,-56.5"/>
</g>
<!-- nd182&#45;&gt;nd39 -->
<g id="edge2" class="edge"><title>nd182:s&#45;&gt;nd39:w</title>
<path fill="none" stroke="purple" d="M404.3,-19.5C404.3,-5.32473 421.625,-14.5 435.8,-14.5"/>
</g>
<!-- nd188 -->
<g id="node11" class="node"><title>nd188</title>
<g id="a_node11"><a xlink:title="nd188&#45;ConstListGraph">
<path fill="none" stroke="purple" d="M353.467,-71C353.467,-71 363.133,-71 363.133,-71 367.967,-71 372.8,-66.1667 372.8,-61.3333 372.8,-61.3333 372.8,-51.6667 372.8,-51.6667 372.8,-46.8333 367.967,-42 363.133,-42 363.133,-42 353.467,-42 353.467,-42 348.633,-42 343.8,-46.8333 343.8,-51.6667 343.8,-51.6667 343.8,-61.3333 343.8,-61.3333 343.8,-66.1667 348.633,-71 353.467,-71"/>
<text text-anchor="middle" x="358.3" y="-52.8" font-family="Times,serif" font-size="14.00">::</text>
</a>
</g>
</g>
<!-- nd188&#45;&gt;nd28 -->
<g id="edge3" class="edge"><title>nd188:n&#45;&gt;nd28:w</title>
<path fill="none" stroke="purple" d="M358.3,-72.5C358.3,-76.0438 386.256,-77.5 389.8,-77.5"/>
</g>
<!-- nd188&#45;&gt;nd182 -->
<g id="edge4" class="edge"><title>nd188:s&#45;&gt;nd182:w</title>
<path fill="none" stroke="purple" d="M358.3,-40.5C358.3,-26.3247 375.625,-35.5 389.8,-35.5"/>
</g>
<!-- nd194 -->
<g id="node12" class="node"><title>nd194</title>
<g id="a_node12"><a xlink:title="nd194&#45;ConstListGraph">
<path fill="none" stroke="purple" d="M307.467,-92C307.467,-92 317.133,-92 317.133,-92 321.967,-92 326.8,-87.1667 326.8,-82.3333 326.8,-82.3333 326.8,-72.6667 326.8,-72.6667 326.8,-67.8333 321.967,-63 317.133,-63 317.133,-63 307.467,-63 307.467,-63 302.633,-63 297.8,-67.8333 297.8,-72.6667 297.8,-72.6667 297.8,-82.3333 297.8,-82.3333 297.8,-87.1667 302.633,-92 307.467,-92"/>
<text text-anchor="middle" x="312.3" y="-73.8" font-family="Times,serif" font-size="14.00">::</text>
</a>
</g>
</g>
<!-- nd194&#45;&gt;nd22 -->
<g id="edge5" class="edge"><title>nd194:n&#45;&gt;nd22:w</title>
<path fill="none" stroke="purple" d="M312.3,-93.5C312.3,-107.675 329.625,-98.5 343.8,-98.5"/>
</g>
<!-- nd194&#45;&gt;nd188 -->
<g id="edge6" class="edge"><title>nd194:s&#45;&gt;nd188:w</title>
<path fill="none" stroke="purple" d="M312.3,-61.5C312.3,-47.3247 329.625,-56.5 343.8,-56.5"/>
</g>
<!-- nd200 -->
<g id="node13" class="node"><title>nd200</title>
<g id="a_node13"><a xlink:title="nd200&#45;ConstListGraph">
<path fill="none" stroke="purple" d="M220.267,-217C220.267,-217 229.933,-217 229.933,-217 234.767,-217 239.6,-212.167 239.6,-207.333 239.6,-207.333 239.6,-197.667 239.6,-197.667 239.6,-192.833 234.767,-188 229.933,-188 229.933,-188 220.267,-188 220.267,-188 215.433,-188 210.6,-192.833 210.6,-197.667 210.6,-197.667 210.6,-207.333 210.6,-207.333 210.6,-212.167 215.433,-217 220.267,-217"/>
<text text-anchor="middle" x="225.1" y="-198.8" font-family="Times,serif" font-size="14.00">::</text>
</a>
</g>
</g>
<!-- nd222 -->
<g id="node26" class="node"><title>nd222</title>
<g id="a_node26"><a xlink:title="nd222&#45;ContractGraph">
<ellipse fill="black" stroke="black" cx="258.4" cy="-123.5" rx="1.8" ry="1.8"/>
</a>
</g>
</g>
<!-- nd200&#45;&gt;nd222 -->
<g id="edge7" class="edge"><title>nd200:n&#45;&gt;nd222:w</title>
<path fill="none" stroke="black" d="M225.1,-218.5C225.1,-224.96 234.648,-221.648 239.6,-217.5 252.242,-206.909 245.469,-197.692 248.6,-181.5 251.07,-168.726 243.589,-123.5 256.6,-123.5"/>
</g>
<!-- nd223 -->
<g id="node27" class="node"><title>nd223</title>
<g id="a_node27"><a xlink:title="nd223&#45;ContractGraph">
<ellipse fill="black" stroke="black" cx="258.4" cy="-77.5" rx="1.8" ry="1.8"/>
</a>
</g>
</g>
<!-- nd200&#45;&gt;nd223 -->
<g id="edge8" class="edge"><title>nd200:s&#45;&gt;nd223:w</title>
<path fill="none" stroke="black" d="M225.1,-186.5C225.1,-179.557 235.416,-186.801 239.9,-181.5 255.017,-163.629 233.193,-77.5 256.6,-77.5"/>
</g>
<!-- nd85 -->
<g id="node15" class="node"><title>nd85</title>
<g id="a_node15"><a xlink:title="nd85&#45;AppGraph">
<path fill="none" stroke="#000000" d="M73.5473,-228.554C73.5473,-228.554 69.6719,-222.946 69.6719,-222.946 68.136,-220.723 68.136,-216.277 69.6719,-214.054 69.6719,-214.054 73.5473,-208.446 73.5473,-208.446 75.0833,-206.223 79.3212,-204.002 82.0231,-204.005 82.0231,-204.005 87.4269,-204.009 87.4269,-204.009 90.1288,-204.011 92.8307,-206.715 92.8307,-209.417 92.8307,-209.417 92.8307,-227.583 92.8307,-227.583 92.8307,-230.285 90.1288,-232.989 87.4269,-232.991 87.4269,-232.991 82.0231,-232.995 82.0231,-232.995 79.3212,-232.998 75.0833,-230.777 73.5473,-228.554"/>
<text text-anchor="middle" x="81.1" y="-214.8" font-family="Times,serif" font-size="14.00">@</text>
</a>
</g>
</g>
<!-- nd84&#45;&gt;nd85 -->
<g id="edge14" class="edge"><title>nd84:e&#45;&gt;nd85:w</title>
<path fill="none" stroke="black" d="M48.1,-189.5C63.3882,-189.5 51.3118,-218.5 66.6,-218.5"/>
</g>
<!-- nd105 -->
<g id="node18" class="node"><title>nd105</title>
<g id="a_node18"><a xlink:title="nd105&#45;BinOpGraph">
<ellipse fill="none" stroke="#000000" cx="127.1" cy="-145.5" rx="14.5" ry="14.5"/>
<text text-anchor="middle" x="127.1" y="-141.8" font-family="Times,serif" font-size="14.00">+</text>
</a>
</g>
</g>
<!-- nd84&#45;&gt;nd105 -->
<g id="edge15" class="edge"><title>nd84:s&#45;&gt;nd105:w</title>
<path fill="none" stroke="#b70000" d="M35.1,-173.5C35.1,-136.876 75.9765,-145.5 112.6,-145.5"/>
</g>
<!-- nd85&#45;&gt;nd136 -->
<g id="edge10" class="edge"><title>nd85:e&#45;&gt;nd136:w</title>
<path fill="none" stroke="black" d="M94.1,-218.5C108.274,-218.5 100.926,-242.5 115.1,-242.5"/>
</g>
<!-- nd89 -->
<g id="node16" class="node"><title>nd89</title>
<g id="a_node16"><a xlink:title="nd89&#45;AppGraph">
<path fill="none" stroke="#000000" d="M119.547,-213.554C119.547,-213.554 115.672,-207.946 115.672,-207.946 114.136,-205.723 114.136,-201.277 115.672,-199.054 115.672,-199.054 119.547,-193.446 119.547,-193.446 121.083,-191.223 125.321,-189.002 128.023,-189.005 128.023,-189.005 133.427,-189.009 133.427,-189.009 136.129,-189.011 138.831,-191.715 138.831,-194.417 138.831,-194.417 138.831,-212.583 138.831,-212.583 138.831,-215.285 136.129,-217.989 133.427,-217.991 133.427,-217.991 128.023,-217.995 128.023,-217.995 125.321,-217.998 121.083,-215.777 119.547,-213.554"/>
<text text-anchor="middle" x="127.1" y="-199.8" font-family="Times,serif" font-size="14.00">@</text>
</a>
</g>
</g>
<!-- nd85&#45;&gt;nd89 -->
<g id="edge11" class="edge"><title>nd85:s&#45;&gt;nd89:w</title>
<path fill="none" stroke="black" d="M81.1,-202.5C81.1,-188.493 98.5929,-203.5 112.6,-203.5"/>
</g>
<!-- ndcluster_nd91 -->
<g id="node17" class="node"><title>ndcluster_nd91</title>
<g id="a_node17"><a xlink:title="nd91">
<ellipse fill="orange" stroke="orange" cx="173.1" cy="-208.5" rx="1.8" ry="1.8"/>
</a>
</g>
</g>
<!-- nd89&#45;&gt;ndcluster_nd91 -->
<g id="edge9" class="edge"><title>nd89:e&#45;&gt;ndcluster_nd91:w</title>
<path fill="none" stroke="black" d="M140.1,-203.5C153.617,-203.5 156.583,-208.5 170.1,-208.5"/>
</g>
<!-- nd123 -->
<g id="node21" class="node"><title>nd123</title>
<g id="a_node21"><a xlink:title="nd123&#45;ContractGraph">
<ellipse fill="black" stroke="black" cx="173.1" cy="-188.5" rx="1.8" ry="1.8"/>
</a>
</g>
</g>
<!-- nd89&#45;&gt;nd123 -->
<g id="edge17" class="edge"><title>nd89:s&#45;&gt;nd123:w</title>
<path fill="none" stroke="black" d="M127.1,-187.5C127.1,-168.384 150.984,-188.5 170.1,-188.5"/>
</g>
<!-- nd108 -->
<g id="node19" class="node"><title>nd108</title>
<g id="a_node19"><a xlink:title="nd108&#45;AppGraph">
<path fill="none" stroke="#000000" d="M165.547,-114.554C165.547,-114.554 161.672,-108.946 161.672,-108.946 160.136,-106.723 160.136,-102.277 161.672,-100.054 161.672,-100.054 165.547,-94.4457 165.547,-94.4457 167.083,-92.2229 171.321,-90.0023 174.023,-90.0045 174.023,-90.0045 179.427,-90.009 179.427,-90.009 182.129,-90.0113 184.831,-92.7155 184.831,-95.4174 184.831,-95.4174 184.831,-113.583 184.831,-113.583 184.831,-116.285 182.129,-118.989 179.427,-118.991 179.427,-118.991 174.023,-118.995 174.023,-118.995 171.321,-118.998 167.083,-116.777 165.547,-114.554"/>
<text text-anchor="middle" x="173.1" y="-100.8" font-family="Times,serif" font-size="14.00">@</text>
</a>
</g>
</g>
<!-- nd105&#45;&gt;nd108 -->
<g id="edge13" class="edge"><title>nd105:s&#45;&gt;nd108:w</title>
<path fill="none" stroke="#b70000" d="M127.1,-129.5C127.1,-111.627 140.727,-104.5 158.6,-104.5"/>
</g>
<!-- nd125 -->
<g id="node22" class="node"><title>nd125</title>
<g id="a_node22"><a xlink:title="nd125&#45;ContractGraph">
<ellipse fill="black" stroke="black" cx="173.1" cy="-160.5" rx="1.8" ry="1.8"/>
</a>
</g>
</g>
<!-- nd105&#45;&gt;nd125 -->
<g id="edge19" class="edge"><title>nd105:n&#45;&gt;nd125:w</title>
<path fill="none" stroke="black" d="M127.1,-161.5C127.1,-180.616 150.984,-160.5 170.1,-160.5"/>
</g>
<!-- ndcluster_nd110 -->
<g id="node20" class="node"><title>ndcluster_nd110</title>
<g id="a_node20"><a xlink:title="nd110">
<ellipse fill="orange" stroke="orange" cx="225.1" cy="-104.5" rx="1.8" ry="1.8"/>
</a>
</g>
</g>
<!-- nd108&#45;&gt;ndcluster_nd110 -->
<g id="edge12" class="edge"><title>nd108:e&#45;&gt;ndcluster_nd110:w</title>
<path fill="none" stroke="black" d="M186.1,-104.5C202.1,-104.5 206.1,-104.5 222.1,-104.5"/>
</g>
<!-- nd219 -->
<g id="node25" class="node"><title>nd219</title>
<g id="a_node25"><a xlink:title="nd219&#45;ConstListGraph">
<path fill="none" stroke="purple" d="M220.267,-86C220.267,-86 229.933,-86 229.933,-86 234.767,-86 239.6,-81.1667 239.6,-76.3333 239.6,-76.3333 239.6,-66.6667 239.6,-66.6667 239.6,-61.8333 234.767,-57 229.933,-57 229.933,-57 220.267,-57 220.267,-57 215.433,-57 210.6,-61.8333 210.6,-66.6667 210.6,-66.6667 210.6,-76.3333 210.6,-76.3333 210.6,-81.1667 215.433,-86 220.267,-86"/>
<text text-anchor="middle" x="225.1" y="-67.8" font-family="Times,serif" font-size="14.00">::</text>
</a>
</g>
</g>
<!-- nd108&#45;&gt;nd219 -->
<g id="edge16" class="edge"><title>nd108:s&#45;&gt;nd219:w</title>
<path fill="none" stroke="red" d="M175.979,-78.644C181.97,-70.8095 196.383,-71.5 210.3,-71.5"/>
<polygon fill="red" stroke="red" points="172.544,-77.9197 173.1,-88.5 179.264,-79.8825 172.544,-77.9197"/>
<text text-anchor="middle" x="199.1" y="-76.3" font-family="Times,serif" font-size="14.00">x</text>
</g>
<!-- nd123&#45;&gt;nd200 -->
<g id="edge21" class="edge"><title>nd123:e&#45;&gt;nd200:w</title>
<path fill="none" stroke="black" d="M176.1,-188.5C192.524,-188.5 193.876,-202.5 210.3,-202.5"/>
<text text-anchor="middle" x="199.1" y="-204.3" font-family="Times,serif" font-size="14.00">x</text>
</g>
<!-- nd125&#45;&gt;nd50 -->
<g id="edge20" class="edge"><title>nd125:e&#45;&gt;nd50:w</title>
<path fill="none" stroke="black" d="M176.1,-160.5C191.3,-160.5 195.1,-160.5 210.3,-160.5"/>
<text text-anchor="middle" x="199.1" y="-165.3" font-family="Times,serif" font-size="14.00">y</text>
</g>
<!-- nd209 -->
<g id="node23" class="node"><title>nd209</title>
<g id="a_node23"><a xlink:title="nd209&#45;ContractGraph">
<ellipse fill="black" stroke="black" cx="279" cy="-123.5" rx="1.8" ry="1.8"/>
</a>
</g>
</g>
<!-- nd209&#45;&gt;nd16 -->
<g id="edge24" class="edge"><title>nd209:e&#45;&gt;nd16:w</title>
<path fill="none" stroke="black" d="M280.8,-123.5C288.356,-123.5 290.244,-123.5 297.8,-123.5"/>
</g>
<!-- nd210 -->
<g id="node24" class="node"><title>nd210</title>
<g id="a_node24"><a xlink:title="nd210&#45;ContractGraph">
<ellipse fill="black" stroke="black" cx="279" cy="-77.5" rx="1.8" ry="1.8"/>
</a>
</g>
</g>
<!-- nd210&#45;&gt;nd194 -->
<g id="edge25" class="edge"><title>nd210:e&#45;&gt;nd194:w</title>
<path fill="none" stroke="black" d="M280.8,-77.5C288.356,-77.5 290.244,-77.5 297.8,-77.5"/>
</g>
<!-- nd219&#45;&gt;nd222 -->
<g id="edge28" class="edge"><title>nd219:n&#45;&gt;nd222:w</title>
<path fill="none" stroke="black" d="M225.1,-87.5C225.1,-94.3138 234.588,-87.2321 239.9,-91.5 252.406,-101.548 240.558,-123.5 256.6,-123.5"/>
</g>
<!-- nd219&#45;&gt;nd223 -->
<g id="edge29" class="edge"><title>nd219:s&#45;&gt;nd223:w</title>
<path fill="none" stroke="black" d="M225.1,-55.5C225.1,-49.0402 233.869,-53.5195 239.6,-56.5 250.254,-62.0405 244.592,-77.5 256.6,-77.5"/>
</g>
<!-- nd222&#45;&gt;nd209 -->
<g id="edge26" class="edge"><title>nd222:e&#45;&gt;nd209:w</title>
<path fill="none" stroke="black" d="M260.2,-123.5C267.756,-123.5 269.644,-123.5 277.2,-123.5"/>
</g>
<!-- nd223&#45;&gt;nd210 -->
<g id="edge27" class="edge"><title>nd223:e&#45;&gt;nd210:w</title>
<path fill="none" stroke="black" d="M260.2,-77.5C267.756,-77.5 269.644,-77.5 277.2,-77.5"/>
</g>
</g>
</svg>
