<?xml version="1.0" encoding="UTF-8" standalone="no"?>
<!DOCTYPE svg PUBLIC "-//W3C//DTD SVG 1.1//EN"
 "http://www.w3.org/Graphics/SVG/1.1/DTD/svg11.dtd">
<!-- Generated by graphviz version 2.38.0 (20140413.2041)
 -->
<!-- Title: G Pages: 1 -->
<svg width="437pt" height="139pt"
 viewBox="0.00 0.00 437.20 138.50" xmlns="http://www.w3.org/2000/svg" xmlns:xlink="http://www.w3.org/1999/xlink">
<g id="graph0" class="graph" transform="scale(1 1) rotate(0) translate(4 134.5)">
<title>G</title>
<polygon fill="white" stroke="none" points="-4,4 -4,-134.5 433.2,-134.5 433.2,4 -4,4"/>
<g id="clust1" class="cluster"><title>cluster_nd241</title>
<polygon fill="none" stroke="orange" points="200.3,-102.5 200.3,-122.5 219.9,-122.5 219.9,-102.5 200.3,-102.5"/>
</g>
<!-- nd1 -->
<g id="node1" class="node"><title>nd1</title>
<ellipse fill="black" stroke="black" cx="1.8" cy="-81.5" rx="1.8" ry="1.8"/>
</g>
<!-- nd154 -->
<g id="node11" class="node"><title>nd154</title>
<g id="a_node11"><a xlink:title="nd154&#45;AppGraph">
<path fill="none" stroke="#000000" d="M27.5473,-91.5543C27.5473,-91.5543 23.6719,-85.9457 23.6719,-85.9457 22.136,-83.7229 22.136,-79.2771 23.6719,-77.0543 23.6719,-77.0543 27.5473,-71.4457 27.5473,-71.4457 29.0833,-69.2229 33.3212,-67.0023 36.0231,-67.0045 36.0231,-67.0045 41.4269,-67.009 41.4269,-67.009 44.1288,-67.0113 46.8307,-69.7155 46.8307,-72.4174 46.8307,-72.4174 46.8307,-90.5826 46.8307,-90.5826 46.8307,-93.2845 44.1288,-95.9887 41.4269,-95.991 41.4269,-95.991 36.0231,-95.9955 36.0231,-95.9955 33.3212,-95.9977 29.0833,-93.7771 27.5473,-91.5543"/>
<text text-anchor="middle" x="35.1" y="-77.8" font-family="Times,serif" font-size="14.00">@</text>
</a>
</g>
</g>
<!-- nd1&#45;&gt;nd154 -->
<g id="edge12" class="edge"><title>nd1:e&#45;&gt;nd154:w</title>
<path fill="none" stroke="#b70000" d="M3.6,-81.5C11.1556,-81.5 13.0444,-81.5 20.6,-81.5"/>
</g>
<!-- nd22 -->
<g id="node2" class="node"><title>nd22</title>
<g id="a_node2"><a xlink:title="nd22&#45;ConstGraph">
<path fill="none" stroke="purple" d="M271.867,-101C271.867,-101 281.533,-101 281.533,-101 286.367,-101 291.2,-96.1667 291.2,-91.3333 291.2,-91.3333 291.2,-81.6667 291.2,-81.6667 291.2,-76.8333 286.367,-72 281.533,-72 281.533,-72 271.867,-72 271.867,-72 267.033,-72 262.2,-76.8333 262.2,-81.6667 262.2,-81.6667 262.2,-91.3333 262.2,-91.3333 262.2,-96.1667 267.033,-101 271.867,-101"/>
<text text-anchor="middle" x="276.7" y="-82.8" font-family="Times,serif" font-size="14.00">2</text>
</a>
</g>
</g>
<!-- nd28 -->
<g id="node3" class="node"><title>nd28</title>
<g id="a_node3"><a xlink:title="nd28&#45;ConstGraph">
<path fill="none" stroke="purple" d="M363.867,-92C363.867,-92 373.533,-92 373.533,-92 378.367,-92 383.2,-87.1667 383.2,-82.3333 383.2,-82.3333 383.2,-72.6667 383.2,-72.6667 383.2,-67.8333 378.367,-63 373.533,-63 373.533,-63 363.867,-63 363.867,-63 359.033,-63 354.2,-67.8333 354.2,-72.6667 354.2,-72.6667 354.2,-82.3333 354.2,-82.3333 354.2,-87.1667 359.033,-92 363.867,-92"/>
<text text-anchor="middle" x="368.7" y="-73.8" font-family="Times,serif" font-size="14.00">3</text>
</a>
</g>
</g>
<!-- nd34 -->
<g id="node4" class="node"><title>nd34</title>
<g id="a_node4"><a xlink:title="nd34&#45;ConstGraph">
<path fill="none" stroke="purple" d="M409.867,-71C409.867,-71 419.533,-71 419.533,-71 424.367,-71 429.2,-66.1667 429.2,-61.3333 429.2,-61.3333 429.2,-51.6667 429.2,-51.6667 429.2,-46.8333 424.367,-42 419.533,-42 419.533,-42 409.867,-42 409.867,-42 405.033,-42 400.2,-46.8333 400.2,-51.6667 400.2,-51.6667 400.2,-61.3333 400.2,-61.3333 400.2,-66.1667 405.033,-71 409.867,-71"/>
<text text-anchor="middle" x="414.7" y="-52.8" font-family="Times,serif" font-size="14.00">4</text>
</a>
</g>
</g>
<!-- nd39 -->
<g id="node5" class="node"><title>nd39</title>
<g id="a_node5"><a xlink:title="nd39&#45;ConstEmptyGraph">
<path fill="none" stroke="purple" d="M409.867,-29C409.867,-29 419.533,-29 419.533,-29 424.367,-29 429.2,-24.1667 429.2,-19.3333 429.2,-19.3333 429.2,-9.66667 429.2,-9.66667 429.2,-4.83333 424.367,-1.77636e-15 419.533,-1.77636e-15 419.533,-1.77636e-15 409.867,-1.77636e-15 409.867,-1.77636e-15 405.033,-1.77636e-15 400.2,-4.83333 400.2,-9.66667 400.2,-9.66667 400.2,-19.3333 400.2,-19.3333 400.2,-24.1667 405.033,-29 409.867,-29"/>
<text text-anchor="middle" x="414.7" y="-10.8" font-family="Times,serif" font-size="14.00">[]</text>
</a>
</g>
</g>
<!-- nd182 -->
<g id="node6" class="node"><title>nd182</title>
<g id="a_node6"><a xlink:title="nd182&#45;ConstListGraph">
<path fill="none" stroke="purple" d="M363.867,-50C363.867,-50 373.533,-50 373.533,-50 378.367,-50 383.2,-45.1667 383.2,-40.3333 383.2,-40.3333 383.2,-30.6667 383.2,-30.6667 383.2,-25.8333 378.367,-21 373.533,-21 373.533,-21 363.867,-21 363.867,-21 359.033,-21 354.2,-25.8333 354.2,-30.6667 354.2,-30.6667 354.2,-40.3333 354.2,-40.3333 354.2,-45.1667 359.033,-50 363.867,-50"/>
<text text-anchor="middle" x="368.7" y="-31.8" font-family="Times,serif" font-size="14.00">::</text>
</a>
</g>
</g>
<!-- nd182&#45;&gt;nd34 -->
<g id="edge1" class="edge"><title>nd182:n&#45;&gt;nd34:w</title>
<path fill="none" stroke="purple" d="M368.7,-51.5C368.7,-55.0438 396.656,-56.5 400.2,-56.5"/>
</g>
<!-- nd182&#45;&gt;nd39 -->
<g id="edge2" class="edge"><title>nd182:s&#45;&gt;nd39:w</title>
<path fill="none" stroke="purple" d="M368.7,-19.5C368.7,-5.32473 386.025,-14.5 400.2,-14.5"/>
</g>
<!-- nd188 -->
<g id="node7" class="node"><title>nd188</title>
<g id="a_node7"><a xlink:title="nd188&#45;ConstListGraph">
<path fill="none" stroke="purple" d="M317.867,-71C317.867,-71 327.533,-71 327.533,-71 332.367,-71 337.2,-66.1667 337.2,-61.3333 337.2,-61.3333 337.2,-51.6667 337.2,-51.6667 337.2,-46.8333 332.367,-42 327.533,-42 327.533,-42 317.867,-42 317.867,-42 313.033,-42 308.2,-46.8333 308.2,-51.6667 308.2,-51.6667 308.2,-61.3333 308.2,-61.3333 308.2,-66.1667 313.033,-71 317.867,-71"/>
<text text-anchor="middle" x="322.7" y="-52.8" font-family="Times,serif" font-size="14.00">::</text>
</a>
</g>
</g>
<!-- nd188&#45;&gt;nd28 -->
<g id="edge3" class="edge"><title>nd188:n&#45;&gt;nd28:w</title>
<path fill="none" stroke="purple" d="M322.7,-72.5C322.7,-86.6753 340.025,-77.5 354.2,-77.5"/>
</g>
<!-- nd188&#45;&gt;nd182 -->
<g id="edge4" class="edge"><title>nd188:s&#45;&gt;nd182:w</title>
<path fill="none" stroke="purple" d="M322.7,-40.5C322.7,-26.3247 340.025,-35.5 354.2,-35.5"/>
</g>
<!-- nd194 -->
<g id="node8" class="node"><title>nd194</title>
<g id="a_node8"><a xlink:title="nd194&#45;ConstListGraph">
<path fill="none" stroke="purple" d="M205.267,-86C205.267,-86 214.933,-86 214.933,-86 219.767,-86 224.6,-81.1667 224.6,-76.3333 224.6,-76.3333 224.6,-66.6667 224.6,-66.6667 224.6,-61.8333 219.767,-57 214.933,-57 214.933,-57 205.267,-57 205.267,-57 200.433,-57 195.6,-61.8333 195.6,-66.6667 195.6,-66.6667 195.6,-76.3333 195.6,-76.3333 195.6,-81.1667 200.433,-86 205.267,-86"/>
<text text-anchor="middle" x="210.1" y="-67.8" font-family="Times,serif" font-size="14.00">::</text>
</a>
</g>
</g>
<!-- nd299 -->
<g id="node14" class="node"><title>nd299</title>
<g id="a_node14"><a xlink:title="nd299&#45;ContractGraph">
<ellipse fill="black" stroke="black" cx="243.4" cy="-86.5" rx="1.8" ry="1.8"/>
</a>
</g>
</g>
<!-- nd194&#45;&gt;nd299 -->
<g id="edge5" class="edge"><title>nd194:n&#45;&gt;nd299:w</title>
<path fill="none" stroke="black" d="M210.1,-87.5C210.1,-101.507 227.593,-86.5 241.6,-86.5"/>
</g>
<!-- nd300 -->
<g id="node15" class="node"><title>nd300</title>
<g id="a_node15"><a xlink:title="nd300&#45;ContractGraph">
<ellipse fill="black" stroke="black" cx="243.4" cy="-56.5" rx="1.8" ry="1.8"/>
</a>
</g>
</g>
<!-- nd194&#45;&gt;nd300 -->
<g id="edge6" class="edge"><title>nd194:s&#45;&gt;nd300:w</title>
<path fill="none" stroke="black" d="M210.1,-55.5C210.1,-41.4929 227.593,-56.5 241.6,-56.5"/>
</g>
<!-- nd237 -->
<g id="node9" class="node"><title>nd237</title>
<g id="a_node9"><a xlink:title="nd237&#45;RecurGraph">
<ellipse fill="none" stroke="#000000" cx="127.1" cy="-110.5" rx="11" ry="11"/>
<text text-anchor="middle" x="127.1" y="-106.8" font-family="Times,serif" font-size="14.00">rec</text>
</a>
</g>
</g>
<!-- ndcluster_nd241 -->
<g id="node10" class="node"><title>ndcluster_nd241</title>
<g id="a_node10"><a xlink:title="nd241">
<ellipse fill="orange" stroke="orange" cx="210.1" cy="-112.5" rx="1.8" ry="1.8"/>
</a>
</g>
</g>
<!-- nd237&#45;&gt;ndcluster_nd241 -->
<g id="edge15" class="edge"><title>nd237:n&#45;&gt;ndcluster_nd241:e</title>
<path fill="none" stroke="grey" d="M127.1,-122.5C127.1,-127.409 133.213,-121.96 138.1,-121.5 170.999,-118.404 184.466,-132.419 212.1,-114.3 212.865,-113.798 214.015,-112.5 213.1,-112.5"/>
</g>
<!-- nd237&#45;&gt;ndcluster_nd241 -->
<g id="edge16" class="edge"><title>nd237:e&#45;&gt;ndcluster_nd241:w</title>
<path fill="none" stroke="black" d="M139.1,-110.5C169.335,-110.5 176.865,-112.5 207.1,-112.5"/>
</g>
<!-- nd155 -->
<g id="node12" class="node"><title>nd155</title>
<g id="a_node12"><a xlink:title="nd155&#45;AppGraph">
<path fill="none" stroke="#000000" d="M73.5473,-111.554C73.5473,-111.554 69.6719,-105.946 69.6719,-105.946 68.136,-103.723 68.136,-99.2771 69.6719,-97.0543 69.6719,-97.0543 73.5473,-91.4457 73.5473,-91.4457 75.0833,-89.2229 79.3212,-87.0023 82.0231,-87.0045 82.0231,-87.0045 87.4269,-87.009 87.4269,-87.009 90.1288,-87.0113 92.8307,-89.7155 92.8307,-92.4174 92.8307,-92.4174 92.8307,-110.583 92.8307,-110.583 92.8307,-113.285 90.1288,-115.989 87.4269,-115.991 87.4269,-115.991 82.0231,-115.995 82.0231,-115.995 79.3212,-115.998 75.0833,-113.777 73.5473,-111.554"/>
<text text-anchor="middle" x="81.1" y="-97.8" font-family="Times,serif" font-size="14.00">@</text>
</a>
</g>
</g>
<!-- nd154&#45;&gt;nd155 -->
<g id="edge10" class="edge"><title>nd154:e&#45;&gt;nd155:w</title>
<path fill="none" stroke="#b70000" d="M48.1,-81.5C60.2086,-81.5 54.4914,-101.5 66.6,-101.5"/>
</g>
<!-- nd309 -->
<g id="node16" class="node"><title>nd309</title>
<g id="a_node16"><a xlink:title="nd309&#45;ConstGraph">
<path fill="none" stroke="purple" d="M76.2667,-74C76.2667,-74 85.9333,-74 85.9333,-74 90.7667,-74 95.6,-69.1667 95.6,-64.3333 95.6,-64.3333 95.6,-54.6667 95.6,-54.6667 95.6,-49.8333 90.7667,-45 85.9333,-45 85.9333,-45 76.2667,-45 76.2667,-45 71.4333,-45 66.6,-49.8333 66.6,-54.6667 66.6,-54.6667 66.6,-64.3333 66.6,-64.3333 66.6,-69.1667 71.4333,-74 76.2667,-74"/>
<text text-anchor="middle" x="81.1" y="-55.8" font-family="Times,serif" font-size="14.00">3</text>
</a>
</g>
</g>
<!-- nd154&#45;&gt;nd309 -->
<g id="edge11" class="edge"><title>nd154:s&#45;&gt;nd309:w</title>
<path fill="none" stroke="black" d="M35.1,-65.5C35.1,-51.2483 52.3483,-59.5 66.6,-59.5"/>
</g>
<!-- nd155&#45;&gt;nd237 -->
<g id="edge9" class="edge"><title>nd155:e&#45;&gt;nd237:w</title>
<path fill="none" stroke="black" d="M94.1,-101.5C104.254,-101.5 104.946,-110.5 115.1,-110.5"/>
</g>
<!-- nd162 -->
<g id="node17" class="node"><title>nd162</title>
<g id="a_node17"><a xlink:title="nd162&#45;UnOpGraph">
<ellipse fill="none" stroke="#000000" cx="127.1" cy="-71.5" rx="14.5" ry="14.5"/>
<text text-anchor="middle" x="127.1" y="-67.8" font-family="Times,serif" font-size="14.00">tl</text>
</a>
</g>
</g>
<!-- nd155&#45;&gt;nd162 -->
<g id="edge7" class="edge"><title>nd155:s&#45;&gt;nd162:w</title>
<path fill="none" stroke="red" d="M90.3869,-81.4777C92.1373,-81.4306 93.939,-81.2209 95.6,-80.5 103.442,-77.0963 104.051,-71.5 112.6,-71.5"/>
<polygon fill="red" stroke="red" points="88.8852,-78.3138 81.1,-85.5 91.6673,-84.7372 88.8852,-78.3138"/>
</g>
<!-- nd287 -->
<g id="node13" class="node"><title>nd287</title>
<g id="a_node13"><a xlink:title="nd287&#45;ContractGraph">
<ellipse fill="black" stroke="black" cx="276.7" cy="-56.5" rx="1.8" ry="1.8"/>
</a>
</g>
</g>
<!-- nd287&#45;&gt;nd188 -->
<g id="edge14" class="edge"><title>nd287:e&#45;&gt;nd188:w</title>
<path fill="none" stroke="black" d="M279.7,-56.5C292.367,-56.5 295.533,-56.5 308.2,-56.5"/>
</g>
<!-- nd299&#45;&gt;nd22 -->
<g id="edge13" class="edge"><title>nd299:e&#45;&gt;nd22:w</title>
<path fill="none" stroke="black" d="M245.2,-86.5C252.756,-86.5 254.644,-86.5 262.2,-86.5"/>
</g>
<!-- nd300&#45;&gt;nd287 -->
<g id="edge17" class="edge"><title>nd300:e&#45;&gt;nd287:w</title>
<path fill="none" stroke="black" d="M245.2,-56.5C257.867,-56.5 261.033,-56.5 273.7,-56.5"/>
</g>
<!-- nd162&#45;&gt;nd194 -->
<g id="edge8" class="edge"><title>nd162:e&#45;&gt;nd194:w</title>
<path fill="none" stroke="black" d="M141.6,-71.5C165.6,-71.5 171.6,-71.5 195.6,-71.5"/>
<text text-anchor="middle" x="168.6" y="-75.3" font-family="Times,serif" font-size="14.00">op_arg</text>
</g>
</g>
</svg>
