<?xml version="1.0" encoding="UTF-8" standalone="no"?>
<!DOCTYPE svg PUBLIC "-//W3C//DTD SVG 1.1//EN"
 "http://www.w3.org/Graphics/SVG/1.1/DTD/svg11.dtd">
<!-- Generated by graphviz version 2.38.0 (20140413.2041)
 -->
<!-- Title: G Pages: 1 -->
<svg width="427pt" height="266pt"
 viewBox="0.00 0.00 426.80 265.50" xmlns="http://www.w3.org/2000/svg" xmlns:xlink="http://www.w3.org/1999/xlink">
<g id="graph0" class="graph" transform="scale(1 1) rotate(0) translate(4 261.5)">
<title>G</title>
<polygon fill="white" stroke="none" points="-4,4 -4,-261.5 422.8,-261.5 422.8,4 -4,4"/>
<g id="clust1" class="cluster"><title>cluster_nd241</title>
<polygon fill="none" stroke="orange" points="163.3,-229.5 163.3,-249.5 182.9,-249.5 182.9,-229.5 163.3,-229.5"/>
</g>
<g id="clust2" class="cluster"><title>cluster_nd160</title>
<polygon fill="none" stroke="orange" points="161.3,-177.5 161.3,-220.5 184.9,-220.5 184.9,-177.5 161.3,-177.5"/>
<text text-anchor="middle" x="173.1" y="-205.3" font-family="Times,serif" font-size="14.00">tl</text>
</g>
<g id="clust3" class="cluster"><title>cluster_nd169</title>
<polygon fill="none" stroke="orange" points="210.3,-73.5 210.3,-116.5 239.9,-116.5 239.9,-73.5 210.3,-73.5"/>
<text text-anchor="middle" x="225.1" y="-101.3" font-family="Times,serif" font-size="14.00">hd</text>
</g>
<!-- nd1 -->
<g id="node1" class="node"><title>nd1</title>
<ellipse fill="black" stroke="black" cx="1.8" cy="-168.5" rx="1.8" ry="1.8"/>
</g>
<!-- nd154 -->
<g id="node12" class="node"><title>nd154</title>
<g id="a_node12"><a xlink:title="nd154&#45;AppGraph">
<path fill="none" stroke="#000000" d="M27.5473,-178.554C27.5473,-178.554 23.6719,-172.946 23.6719,-172.946 22.136,-170.723 22.136,-166.277 23.6719,-164.054 23.6719,-164.054 27.5473,-158.446 27.5473,-158.446 29.0833,-156.223 33.3212,-154.002 36.0231,-154.005 36.0231,-154.005 41.4269,-154.009 41.4269,-154.009 44.1288,-154.011 46.8307,-156.715 46.8307,-159.417 46.8307,-159.417 46.8307,-177.583 46.8307,-177.583 46.8307,-180.285 44.1288,-182.989 41.4269,-182.991 41.4269,-182.991 36.0231,-182.995 36.0231,-182.995 33.3212,-182.998 29.0833,-180.777 27.5473,-178.554"/>
<text text-anchor="middle" x="35.1" y="-164.8" font-family="Times,serif" font-size="14.00">@</text>
</a>
</g>
</g>
<!-- nd1&#45;&gt;nd154 -->
<g id="edge16" class="edge"><title>nd1:e&#45;&gt;nd154:w</title>
<path fill="none" stroke="#b70000" d="M3.6,-168.5C11.1556,-168.5 13.0444,-168.5 20.6,-168.5"/>
</g>
<!-- nd22 -->
<g id="node2" class="node"><title>nd22</title>
<g id="a_node2"><a xlink:title="nd22&#45;ConstGraph">
<path fill="none" stroke="purple" d="M307.467,-117C307.467,-117 317.133,-117 317.133,-117 321.967,-117 326.8,-112.167 326.8,-107.333 326.8,-107.333 326.8,-97.6667 326.8,-97.6667 326.8,-92.8333 321.967,-88 317.133,-88 317.133,-88 307.467,-88 307.467,-88 302.633,-88 297.8,-92.8333 297.8,-97.6667 297.8,-97.6667 297.8,-107.333 297.8,-107.333 297.8,-112.167 302.633,-117 307.467,-117"/>
<text text-anchor="middle" x="312.3" y="-98.8" font-family="Times,serif" font-size="14.00">2</text>
</a>
</g>
</g>
<!-- nd28 -->
<g id="node3" class="node"><title>nd28</title>
<g id="a_node3"><a xlink:title="nd28&#45;ConstGraph">
<path fill="none" stroke="purple" d="M353.467,-92C353.467,-92 363.133,-92 363.133,-92 367.967,-92 372.8,-87.1667 372.8,-82.3333 372.8,-82.3333 372.8,-72.6667 372.8,-72.6667 372.8,-67.8333 367.967,-63 363.133,-63 363.133,-63 353.467,-63 353.467,-63 348.633,-63 343.8,-67.8333 343.8,-72.6667 343.8,-72.6667 343.8,-82.3333 343.8,-82.3333 343.8,-87.1667 348.633,-92 353.467,-92"/>
<text text-anchor="middle" x="358.3" y="-73.8" font-family="Times,serif" font-size="14.00">3</text>
</a>
</g>
</g>
<!-- nd34 -->
<g id="node4" class="node"><title>nd34</title>
<g id="a_node4"><a xlink:title="nd34&#45;ConstGraph">
<path fill="none" stroke="purple" d="M399.467,-71C399.467,-71 409.133,-71 409.133,-71 413.967,-71 418.8,-66.1667 418.8,-61.3333 418.8,-61.3333 418.8,-51.6667 418.8,-51.6667 418.8,-46.8333 413.967,-42 409.133,-42 409.133,-42 399.467,-42 399.467,-42 394.633,-42 389.8,-46.8333 389.8,-51.6667 389.8,-51.6667 389.8,-61.3333 389.8,-61.3333 389.8,-66.1667 394.633,-71 399.467,-71"/>
<text text-anchor="middle" x="404.3" y="-52.8" font-family="Times,serif" font-size="14.00">4</text>
</a>
</g>
</g>
<!-- nd39 -->
<g id="node5" class="node"><title>nd39</title>
<g id="a_node5"><a xlink:title="nd39&#45;ConstEmptyGraph">
<path fill="none" stroke="purple" d="M399.467,-29C399.467,-29 409.133,-29 409.133,-29 413.967,-29 418.8,-24.1667 418.8,-19.3333 418.8,-19.3333 418.8,-9.66667 418.8,-9.66667 418.8,-4.83333 413.967,-1.77636e-15 409.133,-1.77636e-15 409.133,-1.77636e-15 399.467,-1.77636e-15 399.467,-1.77636e-15 394.633,-1.77636e-15 389.8,-4.83333 389.8,-9.66667 389.8,-9.66667 389.8,-19.3333 389.8,-19.3333 389.8,-24.1667 394.633,-29 399.467,-29"/>
<text text-anchor="middle" x="404.3" y="-10.8" font-family="Times,serif" font-size="14.00">[]</text>
</a>
</g>
</g>
<!-- nd182 -->
<g id="node6" class="node"><title>nd182</title>
<g id="a_node6"><a xlink:title="nd182&#45;ConstListGraph">
<path fill="none" stroke="purple" d="M353.467,-50C353.467,-50 363.133,-50 363.133,-50 367.967,-50 372.8,-45.1667 372.8,-40.3333 372.8,-40.3333 372.8,-30.6667 372.8,-30.6667 372.8,-25.8333 367.967,-21 363.133,-21 363.133,-21 353.467,-21 353.467,-21 348.633,-21 343.8,-25.8333 343.8,-30.6667 343.8,-30.6667 343.8,-40.3333 343.8,-40.3333 343.8,-45.1667 348.633,-50 353.467,-50"/>
<text text-anchor="middle" x="358.3" y="-31.8" font-family="Times,serif" font-size="14.00">::</text>
</a>
</g>
</g>
<!-- nd182&#45;&gt;nd34 -->
<g id="edge1" class="edge"><title>nd182:n&#45;&gt;nd34:w</title>
<path fill="none" stroke="purple" d="M358.3,-51.5C358.3,-55.0438 386.256,-56.5 389.8,-56.5"/>
</g>
<!-- nd182&#45;&gt;nd39 -->
<g id="edge2" class="edge"><title>nd182:s&#45;&gt;nd39:w</title>
<path fill="none" stroke="purple" d="M358.3,-19.5C358.3,-5.32473 375.625,-14.5 389.8,-14.5"/>
</g>
<!-- nd188 -->
<g id="node7" class="node"><title>nd188</title>
<g id="a_node7"><a xlink:title="nd188&#45;ConstListGraph">
<path fill="none" stroke="purple" d="M307.467,-71C307.467,-71 317.133,-71 317.133,-71 321.967,-71 326.8,-66.1667 326.8,-61.3333 326.8,-61.3333 326.8,-51.6667 326.8,-51.6667 326.8,-46.8333 321.967,-42 317.133,-42 317.133,-42 307.467,-42 307.467,-42 302.633,-42 297.8,-46.8333 297.8,-51.6667 297.8,-51.6667 297.8,-61.3333 297.8,-61.3333 297.8,-66.1667 302.633,-71 307.467,-71"/>
<text text-anchor="middle" x="312.3" y="-52.8" font-family="Times,serif" font-size="14.00">::</text>
</a>
</g>
</g>
<!-- nd188&#45;&gt;nd28 -->
<g id="edge3" class="edge"><title>nd188:n&#45;&gt;nd28:w</title>
<path fill="none" stroke="purple" d="M312.3,-72.5C312.3,-86.6753 329.625,-77.5 343.8,-77.5"/>
</g>
<!-- nd188&#45;&gt;nd182 -->
<g id="edge4" class="edge"><title>nd188:s&#45;&gt;nd182:w</title>
<path fill="none" stroke="purple" d="M312.3,-40.5C312.3,-26.3247 329.625,-35.5 343.8,-35.5"/>
</g>
<!-- nd194 -->
<g id="node8" class="node"><title>nd194</title>
<g id="a_node8"><a xlink:title="nd194&#45;ConstListGraph">
<path fill="none" stroke="purple" d="M220.267,-196C220.267,-196 229.933,-196 229.933,-196 234.767,-196 239.6,-191.167 239.6,-186.333 239.6,-186.333 239.6,-176.667 239.6,-176.667 239.6,-171.833 234.767,-167 229.933,-167 229.933,-167 220.267,-167 220.267,-167 215.433,-167 210.6,-171.833 210.6,-176.667 210.6,-176.667 210.6,-186.333 210.6,-186.333 210.6,-191.167 215.433,-196 220.267,-196"/>
<text text-anchor="middle" x="225.1" y="-177.8" font-family="Times,serif" font-size="14.00">::</text>
</a>
</g>
</g>
<!-- nd299 -->
<g id="node24" class="node"><title>nd299</title>
<g id="a_node24"><a xlink:title="nd299&#45;ContractGraph">
<ellipse fill="black" stroke="black" cx="258.4" cy="-102.5" rx="1.8" ry="1.8"/>
</a>
</g>
</g>
<!-- nd194&#45;&gt;nd299 -->
<g id="edge5" class="edge"><title>nd194:n&#45;&gt;nd299:w</title>
<path fill="none" stroke="black" d="M225.1,-197.5C225.1,-203.96 234.648,-200.648 239.6,-196.5 252.242,-185.909 245.469,-176.692 248.6,-160.5 251.07,-147.726 243.589,-102.5 256.6,-102.5"/>
</g>
<!-- nd300 -->
<g id="node25" class="node"><title>nd300</title>
<g id="a_node25"><a xlink:title="nd300&#45;ContractGraph">
<ellipse fill="black" stroke="black" cx="258.4" cy="-56.5" rx="1.8" ry="1.8"/>
</a>
</g>
</g>
<!-- nd194&#45;&gt;nd300 -->
<g id="edge6" class="edge"><title>nd194:s&#45;&gt;nd300:w</title>
<path fill="none" stroke="black" d="M225.1,-165.5C225.1,-158.557 235.416,-165.801 239.9,-160.5 255.017,-142.629 233.193,-56.5 256.6,-56.5"/>
</g>
<!-- nd232 -->
<g id="node9" class="node"><title>nd232</title>
<g id="a_node9"><a xlink:title="nd232&#45;ConstGraph">
<path fill="none" stroke="purple" d="M220.267,-154C220.267,-154 229.933,-154 229.933,-154 234.767,-154 239.6,-149.167 239.6,-144.333 239.6,-144.333 239.6,-134.667 239.6,-134.667 239.6,-129.833 234.767,-125 229.933,-125 229.933,-125 220.267,-125 220.267,-125 215.433,-125 210.6,-129.833 210.6,-134.667 210.6,-134.667 210.6,-144.333 210.6,-144.333 210.6,-149.167 215.433,-154 220.267,-154"/>
<text text-anchor="middle" x="225.1" y="-135.8" font-family="Times,serif" font-size="14.00">1</text>
</a>
</g>
</g>
<!-- nd237 -->
<g id="node10" class="node"><title>nd237</title>
<g id="a_node10"><a xlink:title="nd237&#45;RecurGraph">
<ellipse fill="none" stroke="#000000" cx="127.1" cy="-221.5" rx="11" ry="11"/>
<text text-anchor="middle" x="127.1" y="-217.8" font-family="Times,serif" font-size="14.00">rec</text>
</a>
</g>
</g>
<!-- ndcluster_nd241 -->
<g id="node11" class="node"><title>ndcluster_nd241</title>
<g id="a_node11"><a xlink:title="nd241">
<ellipse fill="orange" stroke="orange" cx="173.1" cy="-239.5" rx="1.8" ry="1.8"/>
</a>
</g>
</g>
<!-- nd237&#45;&gt;ndcluster_nd241 -->
<g id="edge22" class="edge"><title>nd237:n&#45;&gt;ndcluster_nd241:e</title>
<path fill="none" stroke="grey" d="M127.1,-233.5C127.1,-275.455 183.047,-239.5 176.1,-239.5"/>
</g>
<!-- nd237&#45;&gt;ndcluster_nd241 -->
<g id="edge23" class="edge"><title>nd237:e&#45;&gt;ndcluster_nd241:w</title>
<path fill="none" stroke="black" d="M139.1,-221.5C155.032,-221.5 154.168,-239.5 170.1,-239.5"/>
</g>
<!-- nd155 -->
<g id="node13" class="node"><title>nd155</title>
<g id="a_node13"><a xlink:title="nd155&#45;AppGraph">
<path fill="none" stroke="#000000" d="M73.5473,-207.554C73.5473,-207.554 69.6719,-201.946 69.6719,-201.946 68.136,-199.723 68.136,-195.277 69.6719,-193.054 69.6719,-193.054 73.5473,-187.446 73.5473,-187.446 75.0833,-185.223 79.3212,-183.002 82.0231,-183.005 82.0231,-183.005 87.4269,-183.009 87.4269,-183.009 90.1288,-183.011 92.8307,-185.715 92.8307,-188.417 92.8307,-188.417 92.8307,-206.583 92.8307,-206.583 92.8307,-209.285 90.1288,-211.989 87.4269,-211.991 87.4269,-211.991 82.0231,-211.995 82.0231,-211.995 79.3212,-211.998 75.0833,-209.777 73.5473,-207.554"/>
<text text-anchor="middle" x="81.1" y="-193.8" font-family="Times,serif" font-size="14.00">@</text>
</a>
</g>
</g>
<!-- nd154&#45;&gt;nd155 -->
<g id="edge12" class="edge"><title>nd154:e&#45;&gt;nd155:w</title>
<path fill="none" stroke="black" d="M48.1,-168.5C63.3882,-168.5 51.3118,-197.5 66.6,-197.5"/>
</g>
<!-- nd165 -->
<g id="node16" class="node"><title>nd165</title>
<g id="a_node16"><a xlink:title="nd165&#45;BinOpGraph">
<ellipse fill="none" stroke="#000000" cx="127.1" cy="-124.5" rx="14.5" ry="14.5"/>
<text text-anchor="middle" x="127.1" y="-120.8" font-family="Times,serif" font-size="14.00">+</text>
</a>
</g>
</g>
<!-- nd154&#45;&gt;nd165 -->
<g id="edge13" class="edge"><title>nd154:s&#45;&gt;nd165:w</title>
<path fill="none" stroke="#b70000" d="M35.1,-152.5C35.1,-115.876 75.9765,-124.5 112.6,-124.5"/>
</g>
<!-- nd155&#45;&gt;nd237 -->
<g id="edge8" class="edge"><title>nd155:e&#45;&gt;nd237:w</title>
<path fill="none" stroke="black" d="M94.1,-197.5C108.274,-197.5 100.926,-221.5 115.1,-221.5"/>
</g>
<!-- nd157 -->
<g id="node14" class="node"><title>nd157</title>
<g id="a_node14"><a xlink:title="nd157&#45;AppGraph">
<path fill="none" stroke="#000000" d="M119.547,-192.554C119.547,-192.554 115.672,-186.946 115.672,-186.946 114.136,-184.723 114.136,-180.277 115.672,-178.054 115.672,-178.054 119.547,-172.446 119.547,-172.446 121.083,-170.223 125.321,-168.002 128.023,-168.005 128.023,-168.005 133.427,-168.009 133.427,-168.009 136.129,-168.011 138.831,-170.715 138.831,-173.417 138.831,-173.417 138.831,-191.583 138.831,-191.583 138.831,-194.285 136.129,-196.989 133.427,-196.991 133.427,-196.991 128.023,-196.995 128.023,-196.995 125.321,-196.998 121.083,-194.777 119.547,-192.554"/>
<text text-anchor="middle" x="127.1" y="-178.8" font-family="Times,serif" font-size="14.00">@</text>
</a>
</g>
</g>
<!-- nd155&#45;&gt;nd157 -->
<g id="edge9" class="edge"><title>nd155:s&#45;&gt;nd157:w</title>
<path fill="none" stroke="black" d="M81.1,-181.5C81.1,-167.493 98.5929,-182.5 112.6,-182.5"/>
</g>
<!-- ndcluster_nd160 -->
<g id="node15" class="node"><title>ndcluster_nd160</title>
<g id="a_node15"><a xlink:title="nd160">
<ellipse fill="orange" stroke="orange" cx="173.1" cy="-187.5" rx="1.8" ry="1.8"/>
</a>
</g>
</g>
<!-- nd157&#45;&gt;ndcluster_nd160 -->
<g id="edge7" class="edge"><title>nd157:e&#45;&gt;ndcluster_nd160:w</title>
<path fill="none" stroke="black" d="M140.1,-182.5C153.617,-182.5 156.583,-187.5 170.1,-187.5"/>
</g>
<!-- nd173 -->
<g id="node19" class="node"><title>nd173</title>
<g id="a_node19"><a xlink:title="nd173&#45;ContractGraph">
<ellipse fill="black" stroke="black" cx="173.1" cy="-167.5" rx="1.8" ry="1.8"/>
</a>
</g>
</g>
<!-- nd157&#45;&gt;nd173 -->
<g id="edge15" class="edge"><title>nd157:s&#45;&gt;nd173:w</title>
<path fill="none" stroke="black" d="M127.1,-166.5C127.1,-147.384 150.984,-167.5 170.1,-167.5"/>
</g>
<!-- nd166 -->
<g id="node17" class="node"><title>nd166</title>
<g id="a_node17"><a xlink:title="nd166&#45;AppGraph">
<path fill="none" stroke="#000000" d="M165.547,-93.5543C165.547,-93.5543 161.672,-87.9457 161.672,-87.9457 160.136,-85.7229 160.136,-81.2771 161.672,-79.0543 161.672,-79.0543 165.547,-73.4457 165.547,-73.4457 167.083,-71.2229 171.321,-69.0023 174.023,-69.0045 174.023,-69.0045 179.427,-69.009 179.427,-69.009 182.129,-69.0113 184.831,-71.7155 184.831,-74.4174 184.831,-74.4174 184.831,-92.5826 184.831,-92.5826 184.831,-95.2845 182.129,-97.9887 179.427,-97.991 179.427,-97.991 174.023,-97.9955 174.023,-97.9955 171.321,-97.9977 167.083,-95.7771 165.547,-93.5543"/>
<text text-anchor="middle" x="173.1" y="-79.8" font-family="Times,serif" font-size="14.00">@</text>
</a>
</g>
</g>
<!-- nd165&#45;&gt;nd166 -->
<g id="edge11" class="edge"><title>nd165:s&#45;&gt;nd166:w</title>
<path fill="none" stroke="#b70000" d="M127.1,-108.5C127.1,-90.6266 140.727,-83.5 158.6,-83.5"/>
</g>
<!-- nd174 -->
<g id="node20" class="node"><title>nd174</title>
<g id="a_node20"><a xlink:title="nd174&#45;ContractGraph">
<ellipse fill="black" stroke="black" cx="173.1" cy="-139.5" rx="1.8" ry="1.8"/>
</a>
</g>
</g>
<!-- nd165&#45;&gt;nd174 -->
<g id="edge17" class="edge"><title>nd165:n&#45;&gt;nd174:w</title>
<path fill="none" stroke="black" d="M127.1,-140.5C127.1,-159.616 150.984,-139.5 170.1,-139.5"/>
</g>
<!-- ndcluster_nd169 -->
<g id="node18" class="node"><title>ndcluster_nd169</title>
<g id="a_node18"><a xlink:title="nd169">
<ellipse fill="orange" stroke="orange" cx="225.1" cy="-83.5" rx="1.8" ry="1.8"/>
</a>
</g>
</g>
<!-- nd166&#45;&gt;ndcluster_nd169 -->
<g id="edge10" class="edge"><title>nd166:e&#45;&gt;ndcluster_nd169:w</title>
<path fill="none" stroke="black" d="M186.1,-83.5C202.1,-83.5 206.1,-83.5 222.1,-83.5"/>
</g>
<!-- nd296 -->
<g id="node23" class="node"><title>nd296</title>
<g id="a_node23"><a xlink:title="nd296&#45;ConstListGraph">
<path fill="none" stroke="purple" d="M220.267,-65C220.267,-65 229.933,-65 229.933,-65 234.767,-65 239.6,-60.1667 239.6,-55.3333 239.6,-55.3333 239.6,-45.6667 239.6,-45.6667 239.6,-40.8333 234.767,-36 229.933,-36 229.933,-36 220.267,-36 220.267,-36 215.433,-36 210.6,-40.8333 210.6,-45.6667 210.6,-45.6667 210.6,-55.3333 210.6,-55.3333 210.6,-60.1667 215.433,-65 220.267,-65"/>
<text text-anchor="middle" x="225.1" y="-46.8" font-family="Times,serif" font-size="14.00">::</text>
</a>
</g>
</g>
<!-- nd166&#45;&gt;nd296 -->
<g id="edge14" class="edge"><title>nd166:s&#45;&gt;nd296:w</title>
<path fill="none" stroke="red" d="M175.979,-57.644C181.97,-49.8095 196.383,-50.5 210.3,-50.5"/>
<polygon fill="red" stroke="red" points="172.544,-56.9197 173.1,-67.5 179.264,-58.8825 172.544,-56.9197"/>
<text text-anchor="middle" x="199.1" y="-55.3" font-family="Times,serif" font-size="14.00">x</text>
</g>
<!-- nd173&#45;&gt;nd194 -->
<g id="edge19" class="edge"><title>nd173:e&#45;&gt;nd194:w</title>
<path fill="none" stroke="black" d="M176.1,-167.5C192.524,-167.5 193.876,-181.5 210.3,-181.5"/>
<text text-anchor="middle" x="199.1" y="-183.3" font-family="Times,serif" font-size="14.00">x</text>
</g>
<!-- nd174&#45;&gt;nd232 -->
<g id="edge18" class="edge"><title>nd174:e&#45;&gt;nd232:w</title>
<path fill="none" stroke="black" d="M176.1,-139.5C191.3,-139.5 195.1,-139.5 210.3,-139.5"/>
<text text-anchor="middle" x="199.1" y="-143.3" font-family="Times,serif" font-size="14.00">y</text>
</g>
<!-- nd286 -->
<g id="node21" class="node"><title>nd286</title>
<g id="a_node21"><a xlink:title="nd286&#45;ContractGraph">
<ellipse fill="black" stroke="black" cx="279" cy="-102.5" rx="1.8" ry="1.8"/>
</a>
</g>
</g>
<!-- nd286&#45;&gt;nd22 -->
<g id="edge20" class="edge"><title>nd286:e&#45;&gt;nd22:w</title>
<path fill="none" stroke="black" d="M280.8,-102.5C288.356,-102.5 290.244,-102.5 297.8,-102.5"/>
</g>
<!-- nd287 -->
<g id="node22" class="node"><title>nd287</title>
<g id="a_node22"><a xlink:title="nd287&#45;ContractGraph">
<ellipse fill="black" stroke="black" cx="279" cy="-56.5" rx="1.8" ry="1.8"/>
</a>
</g>
</g>
<!-- nd287&#45;&gt;nd188 -->
<g id="edge21" class="edge"><title>nd287:e&#45;&gt;nd188:w</title>
<path fill="none" stroke="black" d="M280.8,-56.5C288.356,-56.5 290.244,-56.5 297.8,-56.5"/>
</g>
<!-- nd296&#45;&gt;nd299 -->
<g id="edge26" class="edge"><title>nd296:n&#45;&gt;nd299:w</title>
<path fill="none" stroke="black" d="M225.1,-66.5C225.1,-73.3138 234.588,-66.2321 239.9,-70.5 252.406,-80.5485 240.558,-102.5 256.6,-102.5"/>
</g>
<!-- nd296&#45;&gt;nd300 -->
<g id="edge27" class="edge"><title>nd296:s&#45;&gt;nd300:w</title>
<path fill="none" stroke="black" d="M225.1,-34.5C225.1,-28.0402 233.869,-32.5195 239.6,-35.5 250.254,-41.0405 244.592,-56.5 256.6,-56.5"/>
</g>
<!-- nd299&#45;&gt;nd286 -->
<g id="edge24" class="edge"><title>nd299:e&#45;&gt;nd286:w</title>
<path fill="none" stroke="black" d="M260.2,-102.5C267.756,-102.5 269.644,-102.5 277.2,-102.5"/>
</g>
<!-- nd300&#45;&gt;nd287 -->
<g id="edge25" class="edge"><title>nd300:e&#45;&gt;nd287:w</title>
<path fill="none" stroke="black" d="M260.2,-56.5C267.756,-56.5 269.644,-56.5 277.2,-56.5"/>
</g>
</g>
</svg>
