<?xml version="1.0" encoding="UTF-8" standalone="no"?>
<!DOCTYPE svg PUBLIC "-//W3C//DTD SVG 1.1//EN"
 "http://www.w3.org/Graphics/SVG/1.1/DTD/svg11.dtd">
<!-- Generated by graphviz version 2.38.0 (20140413.2041)
 -->
<!-- Title: G Pages: 1 -->
<svg width="479pt" height="221pt"
 viewBox="0.00 0.00 478.80 220.78" xmlns="http://www.w3.org/2000/svg" xmlns:xlink="http://www.w3.org/1999/xlink">
<g id="graph0" class="graph" transform="scale(1 1) rotate(0) translate(4 216.775)">
<title>G</title>
<polygon fill="white" stroke="none" points="-4,4 -4,-216.775 474.8,-216.775 474.8,4 -4,4"/>
<g id="clust1" class="cluster"><title>cluster_nd140</title>
<polygon fill="none" stroke="orange" points="169.3,-184.5 169.3,-204.5 188.9,-204.5 188.9,-184.5 169.3,-184.5"/>
</g>
<g id="clust2" class="cluster"><title>cluster_nd91</title>
<polygon fill="none" stroke="orange" points="167.3,-132.5 167.3,-175.5 190.9,-175.5 190.9,-132.5 167.3,-132.5"/>
<text text-anchor="middle" x="179.1" y="-160.3" font-family="Times,serif" font-size="14.00">tl</text>
</g>
<!-- nd1 -->
<g id="node1" class="node"><title>nd1</title>
<ellipse fill="black" stroke="black" cx="1.8" cy="-129.5" rx="1.8" ry="1.8"/>
</g>
<!-- nd84 -->
<g id="node14" class="node"><title>nd84</title>
<g id="a_node14"><a xlink:title="nd84&#45;AppGraph">
<path fill="none" stroke="#000000" d="M27.5473,-139.554C27.5473,-139.554 23.6719,-133.946 23.6719,-133.946 22.136,-131.723 22.136,-127.277 23.6719,-125.054 23.6719,-125.054 27.5473,-119.446 27.5473,-119.446 29.0833,-117.223 33.3212,-115.002 36.0231,-115.005 36.0231,-115.005 41.4269,-115.009 41.4269,-115.009 44.1288,-115.011 46.8307,-117.715 46.8307,-120.417 46.8307,-120.417 46.8307,-138.583 46.8307,-138.583 46.8307,-141.285 44.1288,-143.989 41.4269,-143.991 41.4269,-143.991 36.0231,-143.995 36.0231,-143.995 33.3212,-143.998 29.0833,-141.777 27.5473,-139.554"/>
<text text-anchor="middle" x="35.1" y="-125.8" font-family="Times,serif" font-size="14.00">@</text>
</a>
</g>
</g>
<!-- nd1&#45;&gt;nd84 -->
<g id="edge16" class="edge"><title>nd1:e&#45;&gt;nd84:w</title>
<path fill="none" stroke="#b70000" d="M3.6,-129.5C11.1556,-129.5 13.0444,-129.5 20.6,-129.5"/>
</g>
<!-- nd136 -->
<g id="node2" class="node"><title>nd136</title>
<g id="a_node2"><a xlink:title="nd136&#45;RecurGraph">
<ellipse fill="none" stroke="#000000" cx="127.1" cy="-176.5" rx="11" ry="11"/>
<text text-anchor="middle" x="127.1" y="-172.8" font-family="Times,serif" font-size="14.00">rec</text>
</a>
</g>
</g>
<!-- ndcluster_nd140 -->
<g id="node3" class="node"><title>ndcluster_nd140</title>
<g id="a_node3"><a xlink:title="nd140">
<ellipse fill="orange" stroke="orange" cx="179.1" cy="-194.5" rx="1.8" ry="1.8"/>
</a>
</g>
</g>
<!-- nd136&#45;&gt;ndcluster_nd140 -->
<g id="edge20" class="edge"><title>nd136:n&#45;&gt;ndcluster_nd140:e</title>
<path fill="none" stroke="grey" d="M127.1,-188.5C127.1,-239.095 190.08,-194.5 182.1,-194.5"/>
</g>
<!-- nd136&#45;&gt;ndcluster_nd140 -->
<g id="edge21" class="edge"><title>nd136:e&#45;&gt;ndcluster_nd140:w</title>
<path fill="none" stroke="black" d="M139.1,-176.5C157.387,-176.5 157.813,-194.5 176.1,-194.5"/>
</g>
<!-- nd16 -->
<g id="node4" class="node"><title>nd16</title>
<g id="a_node4"><a xlink:title="nd16&#45;ConstGraph">
<path fill="none" stroke="purple" d="M313.467,-134C313.467,-134 323.133,-134 323.133,-134 327.967,-134 332.8,-129.167 332.8,-124.333 332.8,-124.333 332.8,-114.667 332.8,-114.667 332.8,-109.833 327.967,-105 323.133,-105 323.133,-105 313.467,-105 313.467,-105 308.633,-105 303.8,-109.833 303.8,-114.667 303.8,-114.667 303.8,-124.333 303.8,-124.333 303.8,-129.167 308.633,-134 313.467,-134"/>
<text text-anchor="middle" x="318.3" y="-115.8" font-family="Times,serif" font-size="14.00">1</text>
</a>
</g>
</g>
<!-- nd22 -->
<g id="node5" class="node"><title>nd22</title>
<g id="a_node5"><a xlink:title="nd22&#45;ConstGraph">
<path fill="none" stroke="purple" d="M359.467,-113C359.467,-113 369.133,-113 369.133,-113 373.967,-113 378.8,-108.167 378.8,-103.333 378.8,-103.333 378.8,-93.6667 378.8,-93.6667 378.8,-88.8333 373.967,-84 369.133,-84 369.133,-84 359.467,-84 359.467,-84 354.633,-84 349.8,-88.8333 349.8,-93.6667 349.8,-93.6667 349.8,-103.333 349.8,-103.333 349.8,-108.167 354.633,-113 359.467,-113"/>
<text text-anchor="middle" x="364.3" y="-94.8" font-family="Times,serif" font-size="14.00">2</text>
</a>
</g>
</g>
<!-- nd28 -->
<g id="node6" class="node"><title>nd28</title>
<g id="a_node6"><a xlink:title="nd28&#45;ConstGraph">
<path fill="none" stroke="purple" d="M405.467,-92C405.467,-92 415.133,-92 415.133,-92 419.967,-92 424.8,-87.1667 424.8,-82.3333 424.8,-82.3333 424.8,-72.6667 424.8,-72.6667 424.8,-67.8333 419.967,-63 415.133,-63 415.133,-63 405.467,-63 405.467,-63 400.633,-63 395.8,-67.8333 395.8,-72.6667 395.8,-72.6667 395.8,-82.3333 395.8,-82.3333 395.8,-87.1667 400.633,-92 405.467,-92"/>
<text text-anchor="middle" x="410.3" y="-73.8" font-family="Times,serif" font-size="14.00">3</text>
</a>
</g>
</g>
<!-- nd34 -->
<g id="node7" class="node"><title>nd34</title>
<g id="a_node7"><a xlink:title="nd34&#45;ConstGraph">
<path fill="none" stroke="purple" d="M451.467,-71C451.467,-71 461.133,-71 461.133,-71 465.967,-71 470.8,-66.1667 470.8,-61.3333 470.8,-61.3333 470.8,-51.6667 470.8,-51.6667 470.8,-46.8333 465.967,-42 461.133,-42 461.133,-42 451.467,-42 451.467,-42 446.633,-42 441.8,-46.8333 441.8,-51.6667 441.8,-51.6667 441.8,-61.3333 441.8,-61.3333 441.8,-66.1667 446.633,-71 451.467,-71"/>
<text text-anchor="middle" x="456.3" y="-52.8" font-family="Times,serif" font-size="14.00">4</text>
</a>
</g>
</g>
<!-- nd39 -->
<g id="node8" class="node"><title>nd39</title>
<g id="a_node8"><a xlink:title="nd39&#45;ConstEmptyGraph">
<path fill="none" stroke="purple" d="M451.467,-29C451.467,-29 461.133,-29 461.133,-29 465.967,-29 470.8,-24.1667 470.8,-19.3333 470.8,-19.3333 470.8,-9.66667 470.8,-9.66667 470.8,-4.83333 465.967,-1.77636e-15 461.133,-1.77636e-15 461.133,-1.77636e-15 451.467,-1.77636e-15 451.467,-1.77636e-15 446.633,-1.77636e-15 441.8,-4.83333 441.8,-9.66667 441.8,-9.66667 441.8,-19.3333 441.8,-19.3333 441.8,-24.1667 446.633,-29 451.467,-29"/>
<text text-anchor="middle" x="456.3" y="-10.8" font-family="Times,serif" font-size="14.00">[]</text>
</a>
</g>
</g>
<!-- nd50 -->
<g id="node9" class="node"><title>nd50</title>
<g id="a_node9"><a xlink:title="nd50&#45;ConstGraph">
<path fill="none" stroke="purple" d="M174.267,-108C174.267,-108 183.933,-108 183.933,-108 188.767,-108 193.6,-103.167 193.6,-98.3333 193.6,-98.3333 193.6,-88.6667 193.6,-88.6667 193.6,-83.8333 188.767,-79 183.933,-79 183.933,-79 174.267,-79 174.267,-79 169.433,-79 164.6,-83.8333 164.6,-88.6667 164.6,-88.6667 164.6,-98.3333 164.6,-98.3333 164.6,-103.167 169.433,-108 174.267,-108"/>
<text text-anchor="middle" x="179.1" y="-89.8" font-family="Times,serif" font-size="14.00">0</text>
</a>
</g>
</g>
<!-- nd182 -->
<g id="node10" class="node"><title>nd182</title>
<g id="a_node10"><a xlink:title="nd182&#45;ConstListGraph">
<path fill="none" stroke="purple" d="M405.467,-50C405.467,-50 415.133,-50 415.133,-50 419.967,-50 424.8,-45.1667 424.8,-40.3333 424.8,-40.3333 424.8,-30.6667 424.8,-30.6667 424.8,-25.8333 419.967,-21 415.133,-21 415.133,-21 405.467,-21 405.467,-21 400.633,-21 395.8,-25.8333 395.8,-30.6667 395.8,-30.6667 395.8,-40.3333 395.8,-40.3333 395.8,-45.1667 400.633,-50 405.467,-50"/>
<text text-anchor="middle" x="410.3" y="-31.8" font-family="Times,serif" font-size="14.00">::</text>
</a>
</g>
</g>
<!-- nd182&#45;&gt;nd34 -->
<g id="edge1" class="edge"><title>nd182:n&#45;&gt;nd34:w</title>
<path fill="none" stroke="purple" d="M410.3,-51.5C410.3,-55.0438 438.256,-56.5 441.8,-56.5"/>
</g>
<!-- nd182&#45;&gt;nd39 -->
<g id="edge2" class="edge"><title>nd182:s&#45;&gt;nd39:w</title>
<path fill="none" stroke="purple" d="M410.3,-19.5C410.3,-5.32473 427.625,-14.5 441.8,-14.5"/>
</g>
<!-- nd188 -->
<g id="node11" class="node"><title>nd188</title>
<g id="a_node11"><a xlink:title="nd188&#45;ConstListGraph">
<path fill="none" stroke="purple" d="M359.467,-71C359.467,-71 369.133,-71 369.133,-71 373.967,-71 378.8,-66.1667 378.8,-61.3333 378.8,-61.3333 378.8,-51.6667 378.8,-51.6667 378.8,-46.8333 373.967,-42 369.133,-42 369.133,-42 359.467,-42 359.467,-42 354.633,-42 349.8,-46.8333 349.8,-51.6667 349.8,-51.6667 349.8,-61.3333 349.8,-61.3333 349.8,-66.1667 354.633,-71 359.467,-71"/>
<text text-anchor="middle" x="364.3" y="-52.8" font-family="Times,serif" font-size="14.00">::</text>
</a>
</g>
</g>
<!-- nd188&#45;&gt;nd28 -->
<g id="edge3" class="edge"><title>nd188:n&#45;&gt;nd28:w</title>
<path fill="none" stroke="purple" d="M364.3,-72.5C364.3,-76.0438 392.256,-77.5 395.8,-77.5"/>
</g>
<!-- nd188&#45;&gt;nd182 -->
<g id="edge4" class="edge"><title>nd188:s&#45;&gt;nd182:w</title>
<path fill="none" stroke="purple" d="M364.3,-40.5C364.3,-26.3247 381.625,-35.5 395.8,-35.5"/>
</g>
<!-- nd194 -->
<g id="node12" class="node"><title>nd194</title>
<g id="a_node12"><a xlink:title="nd194&#45;ConstListGraph">
<path fill="none" stroke="purple" d="M313.467,-92C313.467,-92 323.133,-92 323.133,-92 327.967,-92 332.8,-87.1667 332.8,-82.3333 332.8,-82.3333 332.8,-72.6667 332.8,-72.6667 332.8,-67.8333 327.967,-63 323.133,-63 323.133,-63 313.467,-63 313.467,-63 308.633,-63 303.8,-67.8333 303.8,-72.6667 303.8,-72.6667 303.8,-82.3333 303.8,-82.3333 303.8,-87.1667 308.633,-92 313.467,-92"/>
<text text-anchor="middle" x="318.3" y="-73.8" font-family="Times,serif" font-size="14.00">::</text>
</a>
</g>
</g>
<!-- nd194&#45;&gt;nd22 -->
<g id="edge5" class="edge"><title>nd194:n&#45;&gt;nd22:w</title>
<path fill="none" stroke="purple" d="M318.3,-93.5C318.3,-97.0438 346.256,-98.5 349.8,-98.5"/>
</g>
<!-- nd194&#45;&gt;nd188 -->
<g id="edge6" class="edge"><title>nd194:s&#45;&gt;nd188:w</title>
<path fill="none" stroke="purple" d="M318.3,-61.5C318.3,-47.3247 335.625,-56.5 349.8,-56.5"/>
</g>
<!-- nd200 -->
<g id="node13" class="node"><title>nd200</title>
<g id="a_node13"><a xlink:title="nd200&#45;ConstListGraph">
<path fill="none" stroke="purple" d="M226.267,-112C226.267,-112 235.933,-112 235.933,-112 240.767,-112 245.6,-107.167 245.6,-102.333 245.6,-102.333 245.6,-92.6667 245.6,-92.6667 245.6,-87.8333 240.767,-83 235.933,-83 235.933,-83 226.267,-83 226.267,-83 221.433,-83 216.6,-87.8333 216.6,-92.6667 216.6,-92.6667 216.6,-102.333 216.6,-102.333 216.6,-107.167 221.433,-112 226.267,-112"/>
<text text-anchor="middle" x="231.1" y="-93.8" font-family="Times,serif" font-size="14.00">::</text>
</a>
</g>
</g>
<!-- nd222 -->
<g id="node23" class="node"><title>nd222</title>
<g id="a_node23"><a xlink:title="nd222&#45;ContractGraph">
<ellipse fill="black" stroke="black" cx="264.4" cy="-112.5" rx="1.8" ry="1.8"/>
</a>
</g>
</g>
<!-- nd200&#45;&gt;nd222 -->
<g id="edge7" class="edge"><title>nd200:n&#45;&gt;nd222:w</title>
<path fill="none" stroke="black" d="M231.1,-113.5C231.1,-127.507 248.593,-112.5 262.6,-112.5"/>
</g>
<!-- nd223 -->
<g id="node24" class="node"><title>nd223</title>
<g id="a_node24"><a xlink:title="nd223&#45;ContractGraph">
<ellipse fill="black" stroke="black" cx="264.4" cy="-78.5" rx="1.8" ry="1.8"/>
</a>
</g>
</g>
<!-- nd200&#45;&gt;nd223 -->
<g id="edge8" class="edge"><title>nd200:s&#45;&gt;nd223:w</title>
<path fill="none" stroke="black" d="M231.1,-81.5C231.1,-67.4367 248.537,-78.5 262.6,-78.5"/>
</g>
<!-- nd85 -->
<g id="node15" class="node"><title>nd85</title>
<g id="a_node15"><a xlink:title="nd85&#45;AppGraph">
<path fill="none" stroke="#000000" d="M73.5473,-162.554C73.5473,-162.554 69.6719,-156.946 69.6719,-156.946 68.136,-154.723 68.136,-150.277 69.6719,-148.054 69.6719,-148.054 73.5473,-142.446 73.5473,-142.446 75.0833,-140.223 79.3212,-138.002 82.0231,-138.005 82.0231,-138.005 87.4269,-138.009 87.4269,-138.009 90.1288,-138.011 92.8307,-140.715 92.8307,-143.417 92.8307,-143.417 92.8307,-161.583 92.8307,-161.583 92.8307,-164.285 90.1288,-166.989 87.4269,-166.991 87.4269,-166.991 82.0231,-166.995 82.0231,-166.995 79.3212,-166.998 75.0833,-164.777 73.5473,-162.554"/>
<text text-anchor="middle" x="81.1" y="-148.8" font-family="Times,serif" font-size="14.00">@</text>
</a>
</g>
</g>
<!-- nd84&#45;&gt;nd85 -->
<g id="edge13" class="edge"><title>nd84:e&#45;&gt;nd85:w</title>
<path fill="none" stroke="black" d="M48.1,-129.5C61.2186,-129.5 53.4814,-152.5 66.6,-152.5"/>
</g>
<!-- nd105 -->
<g id="node18" class="node"><title>nd105</title>
<g id="a_node18"><a xlink:title="nd105&#45;BinOpGraph">
<ellipse fill="none" stroke="#000000" cx="81.1" cy="-78.5" rx="14.5" ry="14.5"/>
<text text-anchor="middle" x="81.1" y="-74.8" font-family="Times,serif" font-size="14.00">+</text>
</a>
</g>
</g>
<!-- nd84&#45;&gt;nd105 -->
<g id="edge14" class="edge"><title>nd84:s&#45;&gt;nd105:w</title>
<path fill="none" stroke="#b70000" d="M35.1,-113.5C35.1,-92.5721 45.6721,-78.5 66.6,-78.5"/>
</g>
<!-- nd85&#45;&gt;nd136 -->
<g id="edge10" class="edge"><title>nd85:e&#45;&gt;nd136:w</title>
<path fill="none" stroke="black" d="M94.1,-152.5C108.274,-152.5 100.926,-176.5 115.1,-176.5"/>
</g>
<!-- nd89 -->
<g id="node16" class="node"><title>nd89</title>
<g id="a_node16"><a xlink:title="nd89&#45;AppGraph">
<path fill="none" stroke="#000000" d="M119.547,-147.554C119.547,-147.554 115.672,-141.946 115.672,-141.946 114.136,-139.723 114.136,-135.277 115.672,-133.054 115.672,-133.054 119.547,-127.446 119.547,-127.446 121.083,-125.223 125.321,-123.002 128.023,-123.005 128.023,-123.005 133.427,-123.009 133.427,-123.009 136.129,-123.011 138.831,-125.715 138.831,-128.417 138.831,-128.417 138.831,-146.583 138.831,-146.583 138.831,-149.285 136.129,-151.989 133.427,-151.991 133.427,-151.991 128.023,-151.995 128.023,-151.995 125.321,-151.998 121.083,-149.777 119.547,-147.554"/>
<text text-anchor="middle" x="127.1" y="-133.8" font-family="Times,serif" font-size="14.00">@</text>
</a>
</g>
</g>
<!-- nd85&#45;&gt;nd89 -->
<g id="edge11" class="edge"><title>nd85:s&#45;&gt;nd89:w</title>
<path fill="none" stroke="black" d="M81.1,-136.5C81.1,-122.493 98.5929,-137.5 112.6,-137.5"/>
</g>
<!-- ndcluster_nd91 -->
<g id="node17" class="node"><title>ndcluster_nd91</title>
<g id="a_node17"><a xlink:title="nd91">
<ellipse fill="orange" stroke="orange" cx="179.1" cy="-142.5" rx="1.8" ry="1.8"/>
</a>
</g>
</g>
<!-- nd89&#45;&gt;ndcluster_nd91 -->
<g id="edge9" class="edge"><title>nd89:e&#45;&gt;ndcluster_nd91:w</title>
<path fill="none" stroke="black" d="M140.1,-137.5C156.254,-137.5 159.946,-142.5 176.1,-142.5"/>
</g>
<!-- nd123 -->
<g id="node19" class="node"><title>nd123</title>
<g id="a_node19"><a xlink:title="nd123&#45;ContractGraph">
<ellipse fill="black" stroke="black" cx="179.1" cy="-122.5" rx="1.8" ry="1.8"/>
</a>
</g>
</g>
<!-- nd89&#45;&gt;nd123 -->
<g id="edge15" class="edge"><title>nd89:s&#45;&gt;nd123:w</title>
<path fill="none" stroke="black" d="M127.1,-121.5C127.1,-99.7177 154.318,-122.5 176.1,-122.5"/>
</g>
<!-- nd125 -->
<g id="node20" class="node"><title>nd125</title>
<g id="a_node20"><a xlink:title="nd125&#45;ContractGraph">
<ellipse fill="black" stroke="black" cx="127.1" cy="-93.5" rx="1.8" ry="1.8"/>
</a>
</g>
</g>
<!-- nd105&#45;&gt;nd125 -->
<g id="edge17" class="edge"><title>nd105:n&#45;&gt;nd125:w</title>
<path fill="none" stroke="black" d="M81.1,-94.5C81.1,-113.616 104.984,-93.5 124.1,-93.5"/>
</g>
<!-- nd105&#45;&gt;nd222 -->
<g id="edge12" class="edge"><title>nd105:s&#45;&gt;nd222:w</title>
<path fill="none" stroke="red" d="M81.1,-62.5C81.1,-42.4211 106.021,-58.5 126.1,-58.5 126.1,-58.5 126.1,-58.5 232.1,-58.5 255.357,-58.5 241.458,-96.9434 253.104,-108.957"/>
<polygon fill="red" stroke="red" points="252.007,-112.283 262.6,-112.5 254.454,-105.725 252.007,-112.283"/>
</g>
<!-- nd123&#45;&gt;nd200 -->
<g id="edge19" class="edge"><title>nd123:e&#45;&gt;nd200:w</title>
<path fill="none" stroke="black" d="M182.1,-122.5C201.036,-122.5 197.664,-97.5 216.6,-97.5"/>
<text text-anchor="middle" x="205.1" y="-109.3" font-family="Times,serif" font-size="14.00">x</text>
</g>
<!-- nd125&#45;&gt;nd50 -->
<g id="edge18" class="edge"><title>nd125:e&#45;&gt;nd50:w</title>
<path fill="none" stroke="black" d="M130.1,-93.5C145.433,-93.5 149.267,-93.5 164.6,-93.5"/>
<text text-anchor="middle" x="153.1" y="-97.3" font-family="Times,serif" font-size="14.00">y</text>
</g>
<!-- nd209 -->
<g id="node21" class="node"><title>nd209</title>
<g id="a_node21"><a xlink:title="nd209&#45;ContractGraph">
<ellipse fill="black" stroke="black" cx="285" cy="-118.5" rx="1.8" ry="1.8"/>
</a>
</g>
</g>
<!-- nd209&#45;&gt;nd16 -->
<g id="edge22" class="edge"><title>nd209:e&#45;&gt;nd16:w</title>
<path fill="none" stroke="black" d="M286.8,-118.5C294.369,-118.5 296.231,-119.5 303.8,-119.5"/>
</g>
<!-- nd210 -->
<g id="node22" class="node"><title>nd210</title>
<g id="a_node22"><a xlink:title="nd210&#45;ContractGraph">
<ellipse fill="black" stroke="black" cx="285" cy="-77.5" rx="1.8" ry="1.8"/>
</a>
</g>
</g>
<!-- nd210&#45;&gt;nd194 -->
<g id="edge23" class="edge"><title>nd210:e&#45;&gt;nd194:w</title>
<path fill="none" stroke="black" d="M286.8,-77.5C294.356,-77.5 296.244,-77.5 303.8,-77.5"/>
</g>
<!-- nd222&#45;&gt;nd209 -->
<g id="edge24" class="edge"><title>nd222:e&#45;&gt;nd209:w</title>
<path fill="none" stroke="black" d="M266.2,-112.5C274.212,-112.5 275.188,-118.5 283.2,-118.5"/>
</g>
<!-- nd223&#45;&gt;nd210 -->
<g id="edge25" class="edge"><title>nd223:e&#45;&gt;nd210:w</title>
<path fill="none" stroke="black" d="M266.2,-78.5C273.769,-78.5 275.631,-77.5 283.2,-77.5"/>
</g>
</g>
</svg>
