<?xml version="1.0" encoding="UTF-8" standalone="no"?>
<!DOCTYPE svg PUBLIC "-//W3C//DTD SVG 1.1//EN"
 "http://www.w3.org/Graphics/SVG/1.1/DTD/svg11.dtd">
<!-- Generated by graphviz version 2.38.0 (20140413.2041)
 -->
<!-- Title: G Pages: 1 -->
<svg width="335pt" height="234pt"
 viewBox="0.00 0.00 334.80 234.43" xmlns="http://www.w3.org/2000/svg" xmlns:xlink="http://www.w3.org/1999/xlink">
<g id="graph0" class="graph" transform="scale(1 1) rotate(0) translate(4 230.43)">
<title>G</title>
<polygon fill="white" stroke="none" points="-4,4 -4,-230.43 330.8,-230.43 330.8,4 -4,4"/>
<g id="clust1" class="cluster"><title>cluster_nd395</title>
<polygon fill="none" stroke="orange" points="163.3,-198.43 163.3,-218.43 182.9,-218.43 182.9,-198.43 163.3,-198.43"/>
</g>
<g id="clust2" class="cluster"><title>cluster_nd338</title>
<polygon fill="none" stroke="orange" points="161.3,-146.43 161.3,-189.43 184.9,-189.43 184.9,-146.43 161.3,-146.43"/>
<text text-anchor="middle" x="173.1" y="-174.23" font-family="Times,serif" font-size="14.00">tl</text>
</g>
<g id="clust3" class="cluster"><title>cluster_nd347</title>
<polygon fill="none" stroke="orange" points="210.3,-42.43 210.3,-85.43 239.9,-85.43 239.9,-42.43 210.3,-42.43"/>
<text text-anchor="middle" x="225.1" y="-70.23" font-family="Times,serif" font-size="14.00">hd</text>
</g>
<!-- nd1 -->
<g id="node1" class="node"><title>nd1</title>
<ellipse fill="black" stroke="black" cx="1.8" cy="-137.43" rx="1.8" ry="1.8"/>
</g>
<!-- nd332 -->
<g id="node8" class="node"><title>nd332</title>
<g id="a_node8"><a xlink:title="nd332&#45;AppGraph">
<path fill="none" stroke="#000000" d="M27.5473,-147.484C27.5473,-147.484 23.6719,-141.876 23.6719,-141.876 22.136,-139.653 22.136,-135.207 23.6719,-132.984 23.6719,-132.984 27.5473,-127.376 27.5473,-127.376 29.0833,-125.153 33.3212,-122.932 36.0231,-122.935 36.0231,-122.935 41.4269,-122.939 41.4269,-122.939 44.1288,-122.941 46.8307,-125.645 46.8307,-128.347 46.8307,-128.347 46.8307,-146.513 46.8307,-146.513 46.8307,-149.215 44.1288,-151.919 41.4269,-151.921 41.4269,-151.921 36.0231,-151.925 36.0231,-151.925 33.3212,-151.928 29.0833,-149.707 27.5473,-147.484"/>
<text text-anchor="middle" x="35.1" y="-133.73" font-family="Times,serif" font-size="14.00">@</text>
</a>
</g>
</g>
<!-- nd1&#45;&gt;nd332 -->
<g id="edge14" class="edge"><title>nd1:e&#45;&gt;nd332:w</title>
<path fill="none" stroke="#b70000" d="M3.6,-137.43C11.1556,-137.43 13.0444,-137.43 20.6,-137.43"/>
</g>
<!-- nd34 -->
<g id="node2" class="node"><title>nd34</title>
<g id="a_node2"><a xlink:title="nd34&#45;ConstGraph">
<path fill="none" stroke="purple" d="M307.467,-85.93C307.467,-85.93 317.133,-85.93 317.133,-85.93 321.967,-85.93 326.8,-81.0967 326.8,-76.2633 326.8,-76.2633 326.8,-66.5967 326.8,-66.5967 326.8,-61.7633 321.967,-56.93 317.133,-56.93 317.133,-56.93 307.467,-56.93 307.467,-56.93 302.633,-56.93 297.8,-61.7633 297.8,-66.5967 297.8,-66.5967 297.8,-76.2633 297.8,-76.2633 297.8,-81.0967 302.633,-85.93 307.467,-85.93"/>
<text text-anchor="middle" x="312.3" y="-67.73" font-family="Times,serif" font-size="14.00">4</text>
</a>
</g>
</g>
<!-- nd39 -->
<g id="node3" class="node"><title>nd39</title>
<g id="a_node3"><a xlink:title="nd39&#45;ConstEmptyGraph">
<path fill="none" stroke="purple" d="M307.467,-39.93C307.467,-39.93 317.133,-39.93 317.133,-39.93 321.967,-39.93 326.8,-35.0967 326.8,-30.2633 326.8,-30.2633 326.8,-20.5967 326.8,-20.5967 326.8,-15.7633 321.967,-10.93 317.133,-10.93 317.133,-10.93 307.467,-10.93 307.467,-10.93 302.633,-10.93 297.8,-15.7633 297.8,-20.5967 297.8,-20.5967 297.8,-30.2633 297.8,-30.2633 297.8,-35.0967 302.633,-39.93 307.467,-39.93"/>
<text text-anchor="middle" x="312.3" y="-21.73" font-family="Times,serif" font-size="14.00">[]</text>
</a>
</g>
</g>
<!-- nd182 -->
<g id="node4" class="node"><title>nd182</title>
<g id="a_node4"><a xlink:title="nd182&#45;ConstListGraph">
<path fill="none" stroke="purple" d="M220.267,-164.93C220.267,-164.93 229.933,-164.93 229.933,-164.93 234.767,-164.93 239.6,-160.097 239.6,-155.263 239.6,-155.263 239.6,-145.597 239.6,-145.597 239.6,-140.763 234.767,-135.93 229.933,-135.93 229.933,-135.93 220.267,-135.93 220.267,-135.93 215.433,-135.93 210.6,-140.763 210.6,-145.597 210.6,-145.597 210.6,-155.263 210.6,-155.263 210.6,-160.097 215.433,-164.93 220.267,-164.93"/>
<text text-anchor="middle" x="225.1" y="-146.73" font-family="Times,serif" font-size="14.00">::</text>
</a>
</g>
</g>
<!-- nd453 -->
<g id="node20" class="node"><title>nd453</title>
<g id="a_node20"><a xlink:title="nd453&#45;ContractGraph">
<ellipse fill="black" stroke="black" cx="258.4" cy="-71.43" rx="1.8" ry="1.8"/>
</a>
</g>
</g>
<!-- nd182&#45;&gt;nd453 -->
<g id="edge1" class="edge"><title>nd182:n&#45;&gt;nd453:w</title>
<path fill="none" stroke="black" d="M225.1,-166.43C225.1,-172.89 234.648,-169.578 239.6,-165.43 252.242,-154.839 245.469,-145.622 248.6,-129.43 251.07,-116.656 243.589,-71.43 256.6,-71.43"/>
</g>
<!-- nd454 -->
<g id="node21" class="node"><title>nd454</title>
<g id="a_node21"><a xlink:title="nd454&#45;ContractGraph">
<ellipse fill="black" stroke="black" cx="258.4" cy="-25.43" rx="1.8" ry="1.8"/>
</a>
</g>
</g>
<!-- nd182&#45;&gt;nd454 -->
<g id="edge2" class="edge"><title>nd182:s&#45;&gt;nd454:w</title>
<path fill="none" stroke="black" d="M225.1,-134.43C225.1,-127.487 235.416,-134.731 239.9,-129.43 255.017,-111.559 233.193,-25.43 256.6,-25.43"/>
</g>
<!-- nd386 -->
<g id="node5" class="node"><title>nd386</title>
<g id="a_node5"><a xlink:title="nd386&#45;ConstGraph">
<path fill="none" stroke="purple" d="M220.267,-122.93C220.267,-122.93 229.933,-122.93 229.933,-122.93 234.767,-122.93 239.6,-118.097 239.6,-113.263 239.6,-113.263 239.6,-103.597 239.6,-103.597 239.6,-98.7633 234.767,-93.93 229.933,-93.93 229.933,-93.93 220.267,-93.93 220.267,-93.93 215.433,-93.93 210.6,-98.7633 210.6,-103.597 210.6,-103.597 210.6,-113.263 210.6,-113.263 210.6,-118.097 215.433,-122.93 220.267,-122.93"/>
<text text-anchor="middle" x="225.1" y="-104.73" font-family="Times,serif" font-size="14.00">6</text>
</a>
</g>
</g>
<!-- nd391 -->
<g id="node6" class="node"><title>nd391</title>
<g id="a_node6"><a xlink:title="nd391&#45;RecurGraph">
<ellipse fill="none" stroke="#000000" cx="127.1" cy="-190.43" rx="11" ry="11"/>
<text text-anchor="middle" x="127.1" y="-186.73" font-family="Times,serif" font-size="14.00">rec</text>
</a>
</g>
</g>
<!-- ndcluster_nd395 -->
<g id="node7" class="node"><title>ndcluster_nd395</title>
<g id="a_node7"><a xlink:title="nd395">
<ellipse fill="orange" stroke="orange" cx="173.1" cy="-208.43" rx="1.8" ry="1.8"/>
</a>
</g>
</g>
<!-- nd391&#45;&gt;ndcluster_nd395 -->
<g id="edge18" class="edge"><title>nd391:n&#45;&gt;ndcluster_nd395:e</title>
<path fill="none" stroke="grey" d="M127.1,-202.43C127.1,-244.385 183.047,-208.43 176.1,-208.43"/>
</g>
<!-- nd391&#45;&gt;ndcluster_nd395 -->
<g id="edge19" class="edge"><title>nd391:e&#45;&gt;ndcluster_nd395:w</title>
<path fill="none" stroke="black" d="M139.1,-190.43C155.032,-190.43 154.168,-208.43 170.1,-208.43"/>
</g>
<!-- nd333 -->
<g id="node9" class="node"><title>nd333</title>
<g id="a_node9"><a xlink:title="nd333&#45;AppGraph">
<path fill="none" stroke="#000000" d="M73.5473,-176.484C73.5473,-176.484 69.6719,-170.876 69.6719,-170.876 68.136,-168.653 68.136,-164.207 69.6719,-161.984 69.6719,-161.984 73.5473,-156.376 73.5473,-156.376 75.0833,-154.153 79.3212,-151.932 82.0231,-151.935 82.0231,-151.935 87.4269,-151.939 87.4269,-151.939 90.1288,-151.941 92.8307,-154.645 92.8307,-157.347 92.8307,-157.347 92.8307,-175.513 92.8307,-175.513 92.8307,-178.215 90.1288,-180.919 87.4269,-180.921 87.4269,-180.921 82.0231,-180.925 82.0231,-180.925 79.3212,-180.928 75.0833,-178.707 73.5473,-176.484"/>
<text text-anchor="middle" x="81.1" y="-162.73" font-family="Times,serif" font-size="14.00">@</text>
</a>
</g>
</g>
<!-- nd332&#45;&gt;nd333 -->
<g id="edge10" class="edge"><title>nd332:e&#45;&gt;nd333:w</title>
<path fill="none" stroke="black" d="M48.1,-137.43C63.3882,-137.43 51.3118,-166.43 66.6,-166.43"/>
</g>
<!-- nd343 -->
<g id="node12" class="node"><title>nd343</title>
<g id="a_node12"><a xlink:title="nd343&#45;BinOpGraph">
<ellipse fill="none" stroke="#000000" cx="127.1" cy="-93.43" rx="14.5" ry="14.5"/>
<text text-anchor="middle" x="127.1" y="-89.73" font-family="Times,serif" font-size="14.00">+</text>
</a>
</g>
</g>
<!-- nd332&#45;&gt;nd343 -->
<g id="edge11" class="edge"><title>nd332:s&#45;&gt;nd343:w</title>
<path fill="none" stroke="#b70000" d="M35.1,-121.43C35.1,-84.8064 75.9765,-93.43 112.6,-93.43"/>
</g>
<!-- nd333&#45;&gt;nd391 -->
<g id="edge6" class="edge"><title>nd333:e&#45;&gt;nd391:w</title>
<path fill="none" stroke="black" d="M94.1,-166.43C108.274,-166.43 100.926,-190.43 115.1,-190.43"/>
</g>
<!-- nd335 -->
<g id="node10" class="node"><title>nd335</title>
<g id="a_node10"><a xlink:title="nd335&#45;AppGraph">
<path fill="none" stroke="#000000" d="M119.547,-161.484C119.547,-161.484 115.672,-155.876 115.672,-155.876 114.136,-153.653 114.136,-149.207 115.672,-146.984 115.672,-146.984 119.547,-141.376 119.547,-141.376 121.083,-139.153 125.321,-136.932 128.023,-136.935 128.023,-136.935 133.427,-136.939 133.427,-136.939 136.129,-136.941 138.831,-139.645 138.831,-142.347 138.831,-142.347 138.831,-160.513 138.831,-160.513 138.831,-163.215 136.129,-165.919 133.427,-165.921 133.427,-165.921 128.023,-165.925 128.023,-165.925 125.321,-165.928 121.083,-163.707 119.547,-161.484"/>
<text text-anchor="middle" x="127.1" y="-147.73" font-family="Times,serif" font-size="14.00">@</text>
</a>
</g>
</g>
<!-- nd333&#45;&gt;nd335 -->
<g id="edge7" class="edge"><title>nd333:s&#45;&gt;nd335:w</title>
<path fill="none" stroke="black" d="M81.1,-150.43C81.1,-136.423 98.5929,-151.43 112.6,-151.43"/>
</g>
<!-- ndcluster_nd338 -->
<g id="node11" class="node"><title>ndcluster_nd338</title>
<g id="a_node11"><a xlink:title="nd338">
<ellipse fill="orange" stroke="orange" cx="173.1" cy="-156.43" rx="1.8" ry="1.8"/>
</a>
</g>
</g>
<!-- nd335&#45;&gt;ndcluster_nd338 -->
<g id="edge5" class="edge"><title>nd335:e&#45;&gt;ndcluster_nd338:w</title>
<path fill="none" stroke="black" d="M140.1,-151.43C153.617,-151.43 156.583,-156.43 170.1,-156.43"/>
</g>
<!-- nd351 -->
<g id="node15" class="node"><title>nd351</title>
<g id="a_node15"><a xlink:title="nd351&#45;ContractGraph">
<ellipse fill="black" stroke="black" cx="173.1" cy="-136.43" rx="1.8" ry="1.8"/>
</a>
</g>
</g>
<!-- nd335&#45;&gt;nd351 -->
<g id="edge13" class="edge"><title>nd335:s&#45;&gt;nd351:w</title>
<path fill="none" stroke="black" d="M127.1,-135.43C127.1,-116.314 150.984,-136.43 170.1,-136.43"/>
</g>
<!-- nd344 -->
<g id="node13" class="node"><title>nd344</title>
<g id="a_node13"><a xlink:title="nd344&#45;AppGraph">
<path fill="none" stroke="#000000" d="M165.547,-62.4842C165.547,-62.4842 161.672,-56.8757 161.672,-56.8757 160.136,-54.6529 160.136,-50.2071 161.672,-47.9842 161.672,-47.9842 165.547,-42.3757 165.547,-42.3757 167.083,-40.1529 171.321,-37.9322 174.023,-37.9345 174.023,-37.9345 179.427,-37.939 179.427,-37.939 182.129,-37.9413 184.831,-40.6454 184.831,-43.3474 184.831,-43.3474 184.831,-61.5126 184.831,-61.5126 184.831,-64.2145 182.129,-66.9187 179.427,-66.921 179.427,-66.921 174.023,-66.9255 174.023,-66.9255 171.321,-66.9277 167.083,-64.7071 165.547,-62.4842"/>
<text text-anchor="middle" x="173.1" y="-48.73" font-family="Times,serif" font-size="14.00">@</text>
</a>
</g>
</g>
<!-- nd343&#45;&gt;nd344 -->
<g id="edge9" class="edge"><title>nd343:s&#45;&gt;nd344:w</title>
<path fill="none" stroke="#b70000" d="M127.1,-77.43C127.1,-59.5566 140.727,-52.43 158.6,-52.43"/>
</g>
<!-- nd352 -->
<g id="node16" class="node"><title>nd352</title>
<g id="a_node16"><a xlink:title="nd352&#45;ContractGraph">
<ellipse fill="black" stroke="black" cx="173.1" cy="-108.43" rx="1.8" ry="1.8"/>
</a>
</g>
</g>
<!-- nd343&#45;&gt;nd352 -->
<g id="edge15" class="edge"><title>nd343:n&#45;&gt;nd352:w</title>
<path fill="none" stroke="black" d="M127.1,-109.43C127.1,-128.546 150.984,-108.43 170.1,-108.43"/>
</g>
<!-- ndcluster_nd347 -->
<g id="node14" class="node"><title>ndcluster_nd347</title>
<g id="a_node14"><a xlink:title="nd347">
<ellipse fill="orange" stroke="orange" cx="225.1" cy="-52.43" rx="1.8" ry="1.8"/>
</a>
</g>
</g>
<!-- nd344&#45;&gt;ndcluster_nd347 -->
<g id="edge8" class="edge"><title>nd344:e&#45;&gt;ndcluster_nd347:w</title>
<path fill="none" stroke="red" d="M186.1,-52.43C198.1,-52.43 203.35,-52.43 211.975,-52.43"/>
<polygon fill="red" stroke="red" points="212.1,-55.9301 222.1,-52.43 212.1,-48.9301 212.1,-55.9301"/>
</g>
<!-- nd450 -->
<g id="node19" class="node"><title>nd450</title>
<g id="a_node19"><a xlink:title="nd450&#45;ConstListGraph">
<path fill="none" stroke="purple" d="M220.267,-33.93C220.267,-33.93 229.933,-33.93 229.933,-33.93 234.767,-33.93 239.6,-29.0967 239.6,-24.2633 239.6,-24.2633 239.6,-14.5967 239.6,-14.5967 239.6,-9.76332 234.767,-4.92999 229.933,-4.92999 229.933,-4.92999 220.267,-4.92999 220.267,-4.92999 215.433,-4.92999 210.6,-9.76332 210.6,-14.5967 210.6,-14.5967 210.6,-24.2633 210.6,-24.2633 210.6,-29.0967 215.433,-33.93 220.267,-33.93"/>
<text text-anchor="middle" x="225.1" y="-15.73" font-family="Times,serif" font-size="14.00">::</text>
</a>
</g>
</g>
<!-- nd344&#45;&gt;nd450 -->
<g id="edge12" class="edge"><title>nd344:s&#45;&gt;nd450:w</title>
<path fill="none" stroke="black" d="M173.1,-36.43C173.1,-18.2521 192.122,-19.43 210.3,-19.43"/>
<text text-anchor="middle" x="199.1" y="-24.23" font-family="Times,serif" font-size="14.00">x</text>
</g>
<!-- nd351&#45;&gt;nd182 -->
<g id="edge17" class="edge"><title>nd351:e&#45;&gt;nd182:w</title>
<path fill="none" stroke="black" d="M176.1,-136.43C192.524,-136.43 193.876,-150.43 210.3,-150.43"/>
<text text-anchor="middle" x="199.1" y="-153.23" font-family="Times,serif" font-size="14.00">x</text>
</g>
<!-- nd352&#45;&gt;nd386 -->
<g id="edge16" class="edge"><title>nd352:e&#45;&gt;nd386:w</title>
<path fill="none" stroke="black" d="M176.1,-108.43C191.3,-108.43 195.1,-108.43 210.3,-108.43"/>
<text text-anchor="middle" x="199.1" y="-112.23" font-family="Times,serif" font-size="14.00">y</text>
</g>
<!-- nd440 -->
<g id="node17" class="node"><title>nd440</title>
<g id="a_node17"><a xlink:title="nd440&#45;ContractGraph">
<ellipse fill="black" stroke="black" cx="279" cy="-71.43" rx="1.8" ry="1.8"/>
</a>
</g>
</g>
<!-- nd440&#45;&gt;nd34 -->
<g id="edge3" class="edge"><title>nd440:e&#45;&gt;nd34:w</title>
<path fill="none" stroke="black" d="M280.8,-71.43C288.356,-71.43 290.244,-71.43 297.8,-71.43"/>
</g>
<!-- nd441 -->
<g id="node18" class="node"><title>nd441</title>
<g id="a_node18"><a xlink:title="nd441&#45;ContractGraph">
<ellipse fill="black" stroke="black" cx="279" cy="-25.43" rx="1.8" ry="1.8"/>
</a>
</g>
</g>
<!-- nd441&#45;&gt;nd39 -->
<g id="edge4" class="edge"><title>nd441:e&#45;&gt;nd39:w</title>
<path fill="none" stroke="black" d="M280.8,-25.43C288.356,-25.43 290.244,-25.43 297.8,-25.43"/>
</g>
<!-- nd450&#45;&gt;nd453 -->
<g id="edge22" class="edge"><title>nd450:n&#45;&gt;nd453:w</title>
<path fill="none" stroke="black" d="M225.1,-35.43C225.1,-42.2438 234.588,-35.1621 239.9,-39.43 252.406,-49.4785 240.558,-71.43 256.6,-71.43"/>
</g>
<!-- nd450&#45;&gt;nd454 -->
<g id="edge23" class="edge"><title>nd450:s&#45;&gt;nd454:w</title>
<path fill="none" stroke="black" d="M225.1,-3.42999C225.1,3.02976 233.869,-1.4495 239.6,-4.42999 250.254,-9.97052 244.592,-25.43 256.6,-25.43"/>
</g>
<!-- nd453&#45;&gt;nd440 -->
<g id="edge20" class="edge"><title>nd453:e&#45;&gt;nd440:w</title>
<path fill="none" stroke="black" d="M260.2,-71.43C267.756,-71.43 269.644,-71.43 277.2,-71.43"/>
</g>
<!-- nd454&#45;&gt;nd441 -->
<g id="edge21" class="edge"><title>nd454:e&#45;&gt;nd441:w</title>
<path fill="none" stroke="black" d="M260.2,-25.43C267.756,-25.43 269.644,-25.43 277.2,-25.43"/>
</g>
</g>
</svg>
