<?xml version="1.0" encoding="UTF-8" standalone="no"?>
<!DOCTYPE svg PUBLIC "-//W3C//DTD SVG 1.1//EN"
 "http://www.w3.org/Graphics/SVG/1.1/DTD/svg11.dtd">
<!-- Generated by graphviz version 2.38.0 (20140413.2041)
 -->
<!-- Title: G Pages: 1 -->
<svg width="124pt" height="67pt"
 viewBox="0.00 0.00 124.20 67.00" xmlns="http://www.w3.org/2000/svg" xmlns:xlink="http://www.w3.org/1999/xlink">
<g id="graph0" class="graph" transform="scale(1 1) rotate(0) translate(4 63)">
<title>G</title>
<polygon fill="white" stroke="none" points="-4,4 -4,-63 120.2,-63 120.2,4 -4,4"/>
<g id="clust1" class="cluster"><title>cluster_nd4</title>
<polygon fill="none" stroke="orange" points="59.8,-31 59.8,-51 79.4,-51 79.4,-31 59.8,-31"/>
</g>
<g id="clust2" class="cluster"><title>cluster_nd60</title>
<polygon fill="none" stroke="orange" points="88.6,-8 88.6,-28 108.2,-28 108.2,-8 88.6,-8"/>
</g>
<!-- nd1 -->
<g id="node1" class="node"><title>nd1</title>
<ellipse fill="black" stroke="black" cx="1.8" cy="-34" rx="1.8" ry="1.8"/>
</g>
<!-- nd2 -->
<g id="node2" class="node"><title>nd2</title>
<g id="a_node2"><a xlink:title="nd2&#45;AppGraph">
<path fill="none" stroke="#000000" d="M23.5473,-44.0543C23.5473,-44.0543 19.6719,-38.4457 19.6719,-38.4457 18.136,-36.2229 18.136,-31.7771 19.6719,-29.5543 19.6719,-29.5543 23.5473,-23.9457 23.5473,-23.9457 25.0833,-21.7229 29.3212,-19.5023 32.0231,-19.5045 32.0231,-19.5045 37.4269,-19.509 37.4269,-19.509 40.1288,-19.5113 42.8307,-22.2155 42.8307,-24.9174 42.8307,-24.9174 42.8307,-43.0826 42.8307,-43.0826 42.8307,-45.7845 40.1288,-48.4887 37.4269,-48.491 37.4269,-48.491 32.0231,-48.4955 32.0231,-48.4955 29.3212,-48.4977 25.0833,-46.2771 23.5473,-44.0543"/>
<text text-anchor="middle" x="31.1" y="-30.3" font-family="Times,serif" font-size="14.00">@</text>
</a>
</g>
</g>
<!-- nd1&#45;&gt;nd2 -->
<g id="edge5" class="edge"><title>nd1:e&#45;&gt;nd2:w</title>
<path fill="none" stroke="red" d="M3.6,-34C4.68333,-34 5.61432,-34 6.4501,-34"/>
<polygon fill="red" stroke="red" points="6.60003,-37.5001 16.6,-34 6.59997,-30.5001 6.60003,-37.5001"/>
</g>
<!-- ndcluster_nd4 -->
<g id="node3" class="node"><title>ndcluster_nd4</title>
<g id="a_node3"><a xlink:title="nd4">
<ellipse fill="orange" stroke="orange" cx="69.6" cy="-41" rx="1.8" ry="1.8"/>
</a>
</g>
</g>
<!-- nd2&#45;&gt;ndcluster_nd4 -->
<g id="edge3" class="edge"><title>nd2:e&#45;&gt;ndcluster_nd4:w</title>
<path fill="none" stroke="black" d="M44.1,-34C54.5728,-34 56.1272,-41 66.6,-41"/>
</g>
<!-- nd58 -->
<g id="node5" class="node"><title>nd58</title>
<g id="a_node5"><a xlink:title="nd58&#45;RecurGraph">
<ellipse fill="none" stroke="#000000" cx="69.6" cy="-12" rx="11" ry="11"/>
<text text-anchor="middle" x="69.6" y="-8.3" font-family="Times,serif" font-size="14.00">rec</text>
</a>
</g>
</g>
<!-- nd2&#45;&gt;nd58 -->
<g id="edge4" class="edge"><title>nd2:s&#45;&gt;nd58:w</title>
<path fill="none" stroke="black" d="M31.1,-18C31.1,-5.49025 46.0903,-12 58.6,-12"/>
</g>
<!-- ndcluster_nd60 -->
<g id="node4" class="node"><title>ndcluster_nd60</title>
<g id="a_node4"><a xlink:title="nd60">
<ellipse fill="orange" stroke="orange" cx="98.4" cy="-18" rx="1.8" ry="1.8"/>
</a>
</g>
</g>
<!-- nd58&#45;&gt;ndcluster_nd60 -->
<g id="edge1" class="edge"><title>nd58:n&#45;&gt;ndcluster_nd60:e</title>
<path fill="none" stroke="grey" d="M69.6,-24C69.6,-28.909 75.7295,-23.6142 80.6,-23 89.4441,-21.8847 93.1035,-24.921 100.4,-19.8 101.149,-19.2743 102.315,-18 101.4,-18"/>
</g>
<!-- nd58&#45;&gt;ndcluster_nd60 -->
<g id="edge2" class="edge"><title>nd58:e&#45;&gt;ndcluster_nd60:w</title>
<path fill="none" stroke="black" d="M80.6,-12C87.6978,-12 88.3022,-18 95.4,-18"/>
</g>
</g>
</svg>
