<?xml version="1.0" encoding="UTF-8" standalone="no"?>
<!DOCTYPE svg PUBLIC "-//W3C//DTD SVG 1.1//EN"
 "http://www.w3.org/Graphics/SVG/1.1/DTD/svg11.dtd">
<!-- Generated by graphviz version 2.38.0 (20140413.2041)
 -->
<!-- Title: G Pages: 1 -->
<svg width="294pt" height="121pt"
 viewBox="0.00 0.00 293.60 121.00" xmlns="http://www.w3.org/2000/svg" xmlns:xlink="http://www.w3.org/1999/xlink">
<g id="graph0" class="graph" transform="scale(1 1) rotate(0) translate(4 117)">
<title>G</title>
<polygon fill="white" stroke="none" points="-4,4 -4,-117 289.6,-117 289.6,4 -4,4"/>
<g id="clust1" class="cluster"><title>cluster_nd241</title>
<polygon fill="none" stroke="orange" points="169.3,-11.5 169.3,-31.5 188.9,-31.5 188.9,-11.5 169.3,-11.5"/>
</g>
<g id="clust2" class="cluster"><title>cluster_nd144</title>
<polygon fill="none" stroke="orange" points="71.3,-43.5 71.3,-63.5 90.9,-63.5 90.9,-43.5 71.3,-43.5"/>
</g>
<!-- nd1 -->
<g id="node1" class="node"><title>nd1</title>
<ellipse fill="black" stroke="black" cx="1.8" cy="-40.5" rx="1.8" ry="1.8"/>
</g>
<!-- nd84 -->
<g id="node9" class="node"><title>nd84</title>
<g id="a_node9"><a xlink:title="nd84&#45;AppGraph">
<path fill="none" stroke="#000000" d="M27.5473,-50.5543C27.5473,-50.5543 23.6719,-44.9457 23.6719,-44.9457 22.136,-42.7229 22.136,-38.2771 23.6719,-36.0543 23.6719,-36.0543 27.5473,-30.4457 27.5473,-30.4457 29.0833,-28.2229 33.3212,-26.0023 36.0231,-26.0045 36.0231,-26.0045 41.4269,-26.009 41.4269,-26.009 44.1288,-26.0113 46.8307,-28.7155 46.8307,-31.4174 46.8307,-31.4174 46.8307,-49.5826 46.8307,-49.5826 46.8307,-52.2845 44.1288,-54.9887 41.4269,-54.991 41.4269,-54.991 36.0231,-54.9955 36.0231,-54.9955 33.3212,-54.9977 29.0833,-52.7771 27.5473,-50.5543"/>
<text text-anchor="middle" x="35.1" y="-36.8" font-family="Times,serif" font-size="14.00">@</text>
</a>
</g>
</g>
<!-- nd1&#45;&gt;nd84 -->
<g id="edge9" class="edge"><title>nd1:e&#45;&gt;nd84:w</title>
<path fill="none" stroke="#b70000" d="M3.6,-40.5C11.1556,-40.5 13.0444,-40.5 20.6,-40.5"/>
</g>
<!-- nd22 -->
<g id="node2" class="node"><title>nd22</title>
<g id="a_node2"><a xlink:title="nd22&#45;ConstGraph">
<path fill="none" stroke="purple" d="M174.267,-113C174.267,-113 183.933,-113 183.933,-113 188.767,-113 193.6,-108.167 193.6,-103.333 193.6,-103.333 193.6,-93.6667 193.6,-93.6667 193.6,-88.8333 188.767,-84 183.933,-84 183.933,-84 174.267,-84 174.267,-84 169.433,-84 164.6,-88.8333 164.6,-93.6667 164.6,-93.6667 164.6,-103.333 164.6,-103.333 164.6,-108.167 169.433,-113 174.267,-113"/>
<text text-anchor="middle" x="179.1" y="-94.8" font-family="Times,serif" font-size="14.00">2</text>
</a>
</g>
</g>
<!-- nd28 -->
<g id="node3" class="node"><title>nd28</title>
<g id="a_node3"><a xlink:title="nd28&#45;ConstGraph">
<path fill="none" stroke="purple" d="M220.267,-92C220.267,-92 229.933,-92 229.933,-92 234.767,-92 239.6,-87.1667 239.6,-82.3333 239.6,-82.3333 239.6,-72.6667 239.6,-72.6667 239.6,-67.8333 234.767,-63 229.933,-63 229.933,-63 220.267,-63 220.267,-63 215.433,-63 210.6,-67.8333 210.6,-72.6667 210.6,-72.6667 210.6,-82.3333 210.6,-82.3333 210.6,-87.1667 215.433,-92 220.267,-92"/>
<text text-anchor="middle" x="225.1" y="-73.8" font-family="Times,serif" font-size="14.00">3</text>
</a>
</g>
</g>
<!-- nd34 -->
<g id="node4" class="node"><title>nd34</title>
<g id="a_node4"><a xlink:title="nd34&#45;ConstGraph">
<path fill="none" stroke="purple" d="M266.267,-71C266.267,-71 275.933,-71 275.933,-71 280.767,-71 285.6,-66.1667 285.6,-61.3333 285.6,-61.3333 285.6,-51.6667 285.6,-51.6667 285.6,-46.8333 280.767,-42 275.933,-42 275.933,-42 266.267,-42 266.267,-42 261.433,-42 256.6,-46.8333 256.6,-51.6667 256.6,-51.6667 256.6,-61.3333 256.6,-61.3333 256.6,-66.1667 261.433,-71 266.267,-71"/>
<text text-anchor="middle" x="271.1" y="-52.8" font-family="Times,serif" font-size="14.00">4</text>
</a>
</g>
</g>
<!-- nd39 -->
<g id="node5" class="node"><title>nd39</title>
<g id="a_node5"><a xlink:title="nd39&#45;ConstEmptyGraph">
<path fill="none" stroke="purple" d="M266.267,-29C266.267,-29 275.933,-29 275.933,-29 280.767,-29 285.6,-24.1667 285.6,-19.3333 285.6,-19.3333 285.6,-9.66667 285.6,-9.66667 285.6,-4.83333 280.767,-1.77636e-15 275.933,-1.77636e-15 275.933,-1.77636e-15 266.267,-1.77636e-15 266.267,-1.77636e-15 261.433,-1.77636e-15 256.6,-4.83333 256.6,-9.66667 256.6,-9.66667 256.6,-19.3333 256.6,-19.3333 256.6,-24.1667 261.433,-29 266.267,-29"/>
<text text-anchor="middle" x="271.1" y="-10.8" font-family="Times,serif" font-size="14.00">[]</text>
</a>
</g>
</g>
<!-- nd182 -->
<g id="node6" class="node"><title>nd182</title>
<g id="a_node6"><a xlink:title="nd182&#45;ConstListGraph">
<path fill="none" stroke="purple" d="M220.267,-50C220.267,-50 229.933,-50 229.933,-50 234.767,-50 239.6,-45.1667 239.6,-40.3333 239.6,-40.3333 239.6,-30.6667 239.6,-30.6667 239.6,-25.8333 234.767,-21 229.933,-21 229.933,-21 220.267,-21 220.267,-21 215.433,-21 210.6,-25.8333 210.6,-30.6667 210.6,-30.6667 210.6,-40.3333 210.6,-40.3333 210.6,-45.1667 215.433,-50 220.267,-50"/>
<text text-anchor="middle" x="225.1" y="-31.8" font-family="Times,serif" font-size="14.00">::</text>
</a>
</g>
</g>
<!-- nd182&#45;&gt;nd34 -->
<g id="edge1" class="edge"><title>nd182:n&#45;&gt;nd34:w</title>
<path fill="none" stroke="purple" d="M225.1,-51.5C225.1,-55.0438 253.056,-56.5 256.6,-56.5"/>
</g>
<!-- nd182&#45;&gt;nd39 -->
<g id="edge2" class="edge"><title>nd182:s&#45;&gt;nd39:w</title>
<path fill="none" stroke="purple" d="M225.1,-19.5C225.1,-5.32473 242.425,-14.5 256.6,-14.5"/>
</g>
<!-- nd188 -->
<g id="node7" class="node"><title>nd188</title>
<g id="a_node7"><a xlink:title="nd188&#45;ConstListGraph">
<path fill="none" stroke="purple" d="M174.267,-71C174.267,-71 183.933,-71 183.933,-71 188.767,-71 193.6,-66.1667 193.6,-61.3333 193.6,-61.3333 193.6,-51.6667 193.6,-51.6667 193.6,-46.8333 188.767,-42 183.933,-42 183.933,-42 174.267,-42 174.267,-42 169.433,-42 164.6,-46.8333 164.6,-51.6667 164.6,-51.6667 164.6,-61.3333 164.6,-61.3333 164.6,-66.1667 169.433,-71 174.267,-71"/>
<text text-anchor="middle" x="179.1" y="-52.8" font-family="Times,serif" font-size="14.00">::</text>
</a>
</g>
</g>
<!-- nd188&#45;&gt;nd28 -->
<g id="edge3" class="edge"><title>nd188:n&#45;&gt;nd28:w</title>
<path fill="none" stroke="purple" d="M179.1,-72.5C179.1,-76.0438 207.056,-77.5 210.6,-77.5"/>
</g>
<!-- nd188&#45;&gt;nd182 -->
<g id="edge4" class="edge"><title>nd188:s&#45;&gt;nd182:w</title>
<path fill="none" stroke="purple" d="M179.1,-40.5C179.1,-33.4124 203.512,-35.5 210.6,-35.5"/>
</g>
<!-- nd194 -->
<g id="node8" class="node"><title>nd194</title>
<g id="a_node8"><a xlink:title="nd194&#45;ConstListGraph">
<path fill="none" stroke="purple" d="M128.267,-88C128.267,-88 137.933,-88 137.933,-88 142.767,-88 147.6,-83.1667 147.6,-78.3333 147.6,-78.3333 147.6,-68.6667 147.6,-68.6667 147.6,-63.8333 142.767,-59 137.933,-59 137.933,-59 128.267,-59 128.267,-59 123.433,-59 118.6,-63.8333 118.6,-68.6667 118.6,-68.6667 118.6,-78.3333 118.6,-78.3333 118.6,-83.1667 123.433,-88 128.267,-88"/>
<text text-anchor="middle" x="133.1" y="-69.8" font-family="Times,serif" font-size="14.00">::</text>
</a>
</g>
</g>
<!-- nd194&#45;&gt;nd22 -->
<g id="edge5" class="edge"><title>nd194:n&#45;&gt;nd22:w</title>
<path fill="none" stroke="purple" d="M133.1,-89.5C133.1,-104.06 150.04,-98.5 164.6,-98.5"/>
</g>
<!-- nd194&#45;&gt;nd188 -->
<g id="edge6" class="edge"><title>nd194:s&#45;&gt;nd188:w</title>
<path fill="none" stroke="purple" d="M133.1,-57.5C133.1,-43.4929 150.593,-56.5 164.6,-56.5"/>
</g>
<!-- nd232 -->
<g id="node10" class="node"><title>nd232</title>
<g id="a_node10"><a xlink:title="nd232&#45;ConstGraph">
<path fill="none" stroke="purple" d="M76.2667,-35C76.2667,-35 85.9333,-35 85.9333,-35 90.7667,-35 95.6,-30.1667 95.6,-25.3333 95.6,-25.3333 95.6,-15.6667 95.6,-15.6667 95.6,-10.8333 90.7667,-6 85.9333,-6 85.9333,-6 76.2667,-6 76.2667,-6 71.4333,-6 66.6,-10.8333 66.6,-15.6667 66.6,-15.6667 66.6,-25.3333 66.6,-25.3333 66.6,-30.1667 71.4333,-35 76.2667,-35"/>
<text text-anchor="middle" x="81.1" y="-16.8" font-family="Times,serif" font-size="14.00">1</text>
</a>
</g>
</g>
<!-- nd84&#45;&gt;nd232 -->
<g id="edge8" class="edge"><title>nd84:s&#45;&gt;nd232:w</title>
<path fill="none" stroke="black" d="M35.1,-24.5C35.1,-10.3876 52.4876,-20.5 66.6,-20.5"/>
</g>
<!-- ndcluster_nd144 -->
<g id="node13" class="node"><title>ndcluster_nd144</title>
<g id="a_node13"><a xlink:title="nd144">
<ellipse fill="orange" stroke="orange" cx="81.1" cy="-53.5" rx="1.8" ry="1.8"/>
</a>
</g>
</g>
<!-- nd84&#45;&gt;ndcluster_nd144 -->
<g id="edge7" class="edge"><title>nd84:e&#45;&gt;ndcluster_nd144:w</title>
<path fill="none" stroke="red" d="M48.1,-40.5C58.3174,-40.5 61.814,-46.927 68.041,-50.743"/>
<polygon fill="red" stroke="red" points="67.5305,-54.2321 78.1,-53.5 69.3809,-47.4811 67.5305,-54.2321"/>
</g>
<!-- nd237 -->
<g id="node11" class="node"><title>nd237</title>
<g id="a_node11"><a xlink:title="nd237&#45;RecurGraph">
<ellipse fill="none" stroke="#000000" cx="133.1" cy="-28.5" rx="11" ry="11"/>
<text text-anchor="middle" x="133.1" y="-24.8" font-family="Times,serif" font-size="14.00">rec</text>
</a>
</g>
</g>
<!-- ndcluster_nd241 -->
<g id="node12" class="node"><title>ndcluster_nd241</title>
<g id="a_node12"><a xlink:title="nd241">
<ellipse fill="orange" stroke="orange" cx="179.1" cy="-21.5" rx="1.8" ry="1.8"/>
</a>
</g>
</g>
<!-- nd237&#45;&gt;ndcluster_nd241 -->
<g id="edge12" class="edge"><title>nd237:n&#45;&gt;ndcluster_nd241:e</title>
<path fill="none" stroke="grey" d="M133.1,-40.5C133.1,-52.1788 193.779,-21.5 182.1,-21.5"/>
</g>
<!-- nd237&#45;&gt;ndcluster_nd241 -->
<g id="edge13" class="edge"><title>nd237:e&#45;&gt;ndcluster_nd241:w</title>
<path fill="none" stroke="black" d="M145.1,-28.5C159.225,-28.5 161.975,-21.5 176.1,-21.5"/>
</g>
<!-- ndcluster_nd144&#45;&gt;nd194 -->
<g id="edge11" class="edge"><title>ndcluster_nd144:e&#45;&gt;nd194:w</title>
<path fill="none" stroke="black" d="M84.1,-53.5C101.824,-53.5 100.876,-73.5 118.6,-73.5"/>
<text text-anchor="middle" x="107.1" y="-75.3" font-family="Times,serif" font-size="14.00">x</text>
</g>
<!-- ndcluster_nd144&#45;&gt;nd237 -->
<g id="edge10" class="edge"><title>ndcluster_nd144:e&#45;&gt;nd237:w</title>
<path fill="none" stroke="black" d="M84.1,-53.5C103.946,-53.5 101.254,-28.5 121.1,-28.5"/>
</g>
</g>
</svg>
