<?xml version="1.0" encoding="UTF-8" standalone="no"?>
<!DOCTYPE svg PUBLIC "-//W3C//DTD SVG 1.1//EN"
 "http://www.w3.org/Graphics/SVG/1.1/DTD/svg11.dtd">
<!-- Generated by graphviz version 2.38.0 (20140413.2041)
 -->
<!-- Title: G Pages: 1 -->
<svg width="445pt" height="172pt"
 viewBox="0.00 0.00 444.60 171.50" xmlns="http://www.w3.org/2000/svg" xmlns:xlink="http://www.w3.org/1999/xlink">
<g id="graph0" class="graph" transform="scale(1 1) rotate(0) translate(4 167.5)">
<title>G</title>
<polygon fill="white" stroke="none" points="-4,4 -4,-167.5 440.6,-167.5 440.6,4 -4,4"/>
<g id="clust1" class="cluster"><title>cluster_nd60</title>
<polygon fill="none" stroke="orange" points="71.3,-30.5 71.3,-50.5 90.9,-50.5 90.9,-30.5 71.3,-30.5"/>
</g>
<g id="clust2" class="cluster"><title>cluster_nd140</title>
<polygon fill="none" stroke="orange" points="182.3,-21.5 182.3,-41.5 201.9,-41.5 201.9,-21.5 182.3,-21.5"/>
</g>
<!-- nd1 -->
<g id="node1" class="node"><title>nd1</title>
<ellipse fill="black" stroke="black" cx="1.8" cy="-68.5" rx="1.8" ry="1.8"/>
</g>
<!-- nd2 -->
<g id="node2" class="node"><title>nd2</title>
<g id="a_node2"><a xlink:title="nd2&#45;AppGraph">
<path fill="none" stroke="#000000" d="M27.5473,-78.5543C27.5473,-78.5543 23.6719,-72.9457 23.6719,-72.9457 22.136,-70.7229 22.136,-66.2771 23.6719,-64.0543 23.6719,-64.0543 27.5473,-58.4457 27.5473,-58.4457 29.0833,-56.2229 33.3212,-54.0023 36.0231,-54.0045 36.0231,-54.0045 41.4269,-54.009 41.4269,-54.009 44.1288,-54.0113 46.8307,-56.7155 46.8307,-59.4174 46.8307,-59.4174 46.8307,-77.5826 46.8307,-77.5826 46.8307,-80.2845 44.1288,-82.9887 41.4269,-82.991 41.4269,-82.991 36.0231,-82.9955 36.0231,-82.9955 33.3212,-82.9977 29.0833,-80.7771 27.5473,-78.5543"/>
<text text-anchor="middle" x="35.1" y="-64.8" font-family="Times,serif" font-size="14.00">@</text>
</a>
</g>
</g>
<!-- nd1&#45;&gt;nd2 -->
<g id="edge17" class="edge"><title>nd1:e&#45;&gt;nd2:w</title>
<path fill="none" stroke="#b70000" d="M3.6,-68.5C11.1556,-68.5 13.0444,-68.5 20.6,-68.5"/>
</g>
<!-- ndcluster_nd60 -->
<g id="node3" class="node"><title>ndcluster_nd60</title>
<g id="a_node3"><a xlink:title="nd60">
<ellipse fill="orange" stroke="orange" cx="81.1" cy="-40.5" rx="1.8" ry="1.8"/>
</a>
</g>
</g>
<!-- nd2&#45;&gt;ndcluster_nd60 -->
<g id="edge15" class="edge"><title>nd2:s&#45;&gt;ndcluster_nd60:w</title>
<path fill="none" stroke="black" d="M35.1,-52.5C35.1,-32.6587 58.2587,-40.5 78.1,-40.5"/>
</g>
<!-- nd6 -->
<g id="node6" class="node"><title>nd6</title>
<g id="a_node6"><a xlink:title="nd6&#45;AbsGraph">
<ellipse fill="none" stroke="#000000" cx="81.1" cy="-78.5" rx="14.5" ry="14.5"/>
<text text-anchor="middle" x="81.1" y="-74.8" font-family="Times,serif" font-size="14.00">fun</text>
</a>
</g>
</g>
<!-- nd2&#45;&gt;nd6 -->
<g id="edge16" class="edge"><title>nd2:e&#45;&gt;nd6:w</title>
<path fill="none" stroke="red" d="M48.1,-68.5C52.7733,-68.5 55.0616,-71 57.35,-73.5"/>
<polygon fill="red" stroke="red" points="56.1386,-76.8238 66.6,-78.5 59.4673,-70.6658 56.1386,-76.8238"/>
</g>
<!-- nd136 -->
<g id="node4" class="node"><title>nd136</title>
<g id="a_node4"><a xlink:title="nd136&#45;RecurGraph">
<ellipse fill="none" stroke="#000000" cx="136.6" cy="-36.5" rx="11" ry="11"/>
<text text-anchor="middle" x="136.6" y="-32.8" font-family="Times,serif" font-size="14.00">rec</text>
</a>
</g>
</g>
<!-- ndcluster_nd60&#45;&gt;nd136 -->
<g id="edge14" class="edge"><title>ndcluster_nd60:e&#45;&gt;nd136:w</title>
<path fill="none" stroke="black" d="M84.1,-40.5C102.188,-40.5 106.512,-36.5 124.6,-36.5"/>
</g>
<!-- ndcluster_nd140 -->
<g id="node5" class="node"><title>ndcluster_nd140</title>
<g id="a_node5"><a xlink:title="nd140">
<ellipse fill="orange" stroke="orange" cx="192.1" cy="-31.5" rx="1.8" ry="1.8"/>
</a>
</g>
</g>
<!-- nd136&#45;&gt;ndcluster_nd140 -->
<g id="edge18" class="edge"><title>nd136:n&#45;&gt;ndcluster_nd140:e</title>
<path fill="none" stroke="grey" d="M136.6,-48.5C136.6,-62.0378 208.638,-31.5 195.1,-31.5"/>
</g>
<!-- nd136&#45;&gt;ndcluster_nd140 -->
<g id="edge19" class="edge"><title>nd136:e&#45;&gt;ndcluster_nd140:w</title>
<path fill="none" stroke="black" d="M148.6,-36.5C166.737,-36.5 170.963,-31.5 189.1,-31.5"/>
</g>
<!-- nd7 -->
<g id="node7" class="node"><title>nd7</title>
<g id="a_node7"><a xlink:title="nd7&#45;AppGraph">
<path fill="none" stroke="#000000" d="M129.047,-88.5543C129.047,-88.5543 125.172,-82.9457 125.172,-82.9457 123.636,-80.7229 123.636,-76.2771 125.172,-74.0543 125.172,-74.0543 129.047,-68.4457 129.047,-68.4457 130.583,-66.2229 134.821,-64.0023 137.523,-64.0045 137.523,-64.0045 142.927,-64.009 142.927,-64.009 145.629,-64.0113 148.331,-66.7155 148.331,-69.4174 148.331,-69.4174 148.331,-87.5826 148.331,-87.5826 148.331,-90.2845 145.629,-92.9887 142.927,-92.991 142.927,-92.991 137.523,-92.9955 137.523,-92.9955 134.821,-92.9977 130.583,-90.7771 129.047,-88.5543"/>
<text text-anchor="middle" x="136.6" y="-74.8" font-family="Times,serif" font-size="14.00">@</text>
</a>
</g>
</g>
<!-- nd6&#45;&gt;nd7 -->
<g id="edge13" class="edge"><title>nd6:e&#45;&gt;nd7:w</title>
<path fill="none" stroke="black" d="M95.6,-78.5C106.711,-78.5 109.489,-78.5 120.6,-78.5"/>
</g>
<!-- nd8 -->
<g id="node8" class="node"><title>nd8</title>
<g id="a_node8"><a xlink:title="nd8&#45;AppGraph">
<path fill="none" stroke="#000000" d="M184.547,-123.554C184.547,-123.554 180.672,-117.946 180.672,-117.946 179.136,-115.723 179.136,-111.277 180.672,-109.054 180.672,-109.054 184.547,-103.446 184.547,-103.446 186.083,-101.223 190.321,-99.0023 193.023,-99.0045 193.023,-99.0045 198.427,-99.009 198.427,-99.009 201.129,-99.0113 203.831,-101.715 203.831,-104.417 203.831,-104.417 203.831,-122.583 203.831,-122.583 203.831,-125.285 201.129,-127.989 198.427,-127.991 198.427,-127.991 193.023,-127.995 193.023,-127.995 190.321,-127.998 186.083,-125.777 184.547,-123.554"/>
<text text-anchor="middle" x="192.1" y="-109.8" font-family="Times,serif" font-size="14.00">@</text>
</a>
</g>
</g>
<!-- nd6&#45;&gt;nd8 -->
<g id="edge9" class="edge"><title>nd6:n&#45;&gt;nd8:e</title>
<path fill="none" stroke="grey" d="M81.1,-94.5C81.1,-151.158 162.681,-166.66 204.1,-128 208.822,-123.592 211.56,-113.5 205.1,-113.5"/>
<text text-anchor="middle" x="136.6" y="-152.3" font-family="Times,serif" font-size="14.00">sum_tail</text>
</g>
<!-- nd7&#45;&gt;nd8 -->
<g id="edge11" class="edge"><title>nd7:e&#45;&gt;nd8:w</title>
<path fill="none" stroke="black" d="M149.6,-78.5C159.56,-78.5 167.64,-113.5 177.6,-113.5"/>
</g>
<!-- nd50 -->
<g id="node18" class="node"><title>nd50</title>
<g id="a_node18"><a xlink:title="nd50&#45;ConstGraph">
<path fill="none" stroke="purple" d="M187.267,-81C187.267,-81 196.933,-81 196.933,-81 201.767,-81 206.6,-76.1667 206.6,-71.3333 206.6,-71.3333 206.6,-61.6667 206.6,-61.6667 206.6,-56.8333 201.767,-52 196.933,-52 196.933,-52 187.267,-52 187.267,-52 182.433,-52 177.6,-56.8333 177.6,-61.6667 177.6,-61.6667 177.6,-71.3333 177.6,-71.3333 177.6,-76.1667 182.433,-81 187.267,-81"/>
<text text-anchor="middle" x="192.1" y="-62.8" font-family="Times,serif" font-size="14.00">0</text>
</a>
</g>
</g>
<!-- nd7&#45;&gt;nd50 -->
<g id="edge12" class="edge"><title>nd7:s&#45;&gt;nd50:w</title>
<path fill="none" stroke="black" d="M136.6,-62.5C136.6,-56.0402 144.667,-62.9143 151.1,-63.5 162.904,-64.5747 165.747,-66.5 177.6,-66.5"/>
</g>
<!-- nd12 -->
<g id="node9" class="node"><title>nd12</title>
<g id="a_node9"><a xlink:title="nd12&#45;BinOpGraph">
<ellipse fill="none" stroke="#000000" cx="238.1" cy="-98.5" rx="14.5" ry="14.5"/>
<text text-anchor="middle" x="238.1" y="-94.8" font-family="Times,serif" font-size="14.00">::</text>
</a>
</g>
</g>
<!-- nd8&#45;&gt;nd12 -->
<g id="edge10" class="edge"><title>nd8:s&#45;&gt;nd12:w</title>
<path fill="none" stroke="black" d="M192.1,-97.5C192.1,-83.4929 209.593,-98.5 223.6,-98.5"/>
</g>
<!-- nd16 -->
<g id="node10" class="node"><title>nd16</title>
<g id="a_node10"><a xlink:title="nd16&#45;ConstGraph">
<path fill="none" stroke="purple" d="M279.267,-134C279.267,-134 288.933,-134 288.933,-134 293.767,-134 298.6,-129.167 298.6,-124.333 298.6,-124.333 298.6,-114.667 298.6,-114.667 298.6,-109.833 293.767,-105 288.933,-105 288.933,-105 279.267,-105 279.267,-105 274.433,-105 269.6,-109.833 269.6,-114.667 269.6,-114.667 269.6,-124.333 269.6,-124.333 269.6,-129.167 274.433,-134 279.267,-134"/>
<text text-anchor="middle" x="284.1" y="-115.8" font-family="Times,serif" font-size="14.00">1</text>
</a>
</g>
</g>
<!-- nd12&#45;&gt;nd16 -->
<g id="edge7" class="edge"><title>nd12:n&#45;&gt;nd16:w</title>
<path fill="none" stroke="black" d="M238.1,-114.5C238.1,-128.675 255.425,-119.5 269.6,-119.5"/>
</g>
<!-- nd18 -->
<g id="node11" class="node"><title>nd18</title>
<g id="a_node11"><a xlink:title="nd18&#45;BinOpGraph">
<ellipse fill="none" stroke="#000000" cx="284.1" cy="-77.5" rx="14.5" ry="14.5"/>
<text text-anchor="middle" x="284.1" y="-73.8" font-family="Times,serif" font-size="14.00">::</text>
</a>
</g>
</g>
<!-- nd12&#45;&gt;nd18 -->
<g id="edge8" class="edge"><title>nd12:s&#45;&gt;nd18:w</title>
<path fill="none" stroke="black" d="M238.1,-82.5C238.1,-68.3247 255.425,-77.5 269.6,-77.5"/>
</g>
<!-- nd22 -->
<g id="node12" class="node"><title>nd22</title>
<g id="a_node12"><a xlink:title="nd22&#45;ConstGraph">
<path fill="none" stroke="purple" d="M325.267,-113C325.267,-113 334.933,-113 334.933,-113 339.767,-113 344.6,-108.167 344.6,-103.333 344.6,-103.333 344.6,-93.6667 344.6,-93.6667 344.6,-88.8333 339.767,-84 334.933,-84 334.933,-84 325.267,-84 325.267,-84 320.433,-84 315.6,-88.8333 315.6,-93.6667 315.6,-93.6667 315.6,-103.333 315.6,-103.333 315.6,-108.167 320.433,-113 325.267,-113"/>
<text text-anchor="middle" x="330.1" y="-94.8" font-family="Times,serif" font-size="14.00">2</text>
</a>
</g>
</g>
<!-- nd18&#45;&gt;nd22 -->
<g id="edge5" class="edge"><title>nd18:n&#45;&gt;nd22:w</title>
<path fill="none" stroke="black" d="M284.1,-93.5C284.1,-97.0438 312.056,-98.5 315.6,-98.5"/>
</g>
<!-- nd24 -->
<g id="node13" class="node"><title>nd24</title>
<g id="a_node13"><a xlink:title="nd24&#45;BinOpGraph">
<ellipse fill="none" stroke="#000000" cx="330.1" cy="-56.5" rx="14.5" ry="14.5"/>
<text text-anchor="middle" x="330.1" y="-52.8" font-family="Times,serif" font-size="14.00">::</text>
</a>
</g>
</g>
<!-- nd18&#45;&gt;nd24 -->
<g id="edge6" class="edge"><title>nd18:s&#45;&gt;nd24:w</title>
<path fill="none" stroke="black" d="M284.1,-61.5C284.1,-47.3247 301.425,-56.5 315.6,-56.5"/>
</g>
<!-- nd28 -->
<g id="node14" class="node"><title>nd28</title>
<g id="a_node14"><a xlink:title="nd28&#45;ConstGraph">
<path fill="none" stroke="purple" d="M371.267,-92C371.267,-92 380.933,-92 380.933,-92 385.767,-92 390.6,-87.1667 390.6,-82.3333 390.6,-82.3333 390.6,-72.6667 390.6,-72.6667 390.6,-67.8333 385.767,-63 380.933,-63 380.933,-63 371.267,-63 371.267,-63 366.433,-63 361.6,-67.8333 361.6,-72.6667 361.6,-72.6667 361.6,-82.3333 361.6,-82.3333 361.6,-87.1667 366.433,-92 371.267,-92"/>
<text text-anchor="middle" x="376.1" y="-73.8" font-family="Times,serif" font-size="14.00">3</text>
</a>
</g>
</g>
<!-- nd24&#45;&gt;nd28 -->
<g id="edge3" class="edge"><title>nd24:n&#45;&gt;nd28:w</title>
<path fill="none" stroke="black" d="M330.1,-72.5C330.1,-76.0438 358.056,-77.5 361.6,-77.5"/>
</g>
<!-- nd30 -->
<g id="node15" class="node"><title>nd30</title>
<g id="a_node15"><a xlink:title="nd30&#45;BinOpGraph">
<ellipse fill="none" stroke="#000000" cx="376.1" cy="-35.5" rx="14.5" ry="14.5"/>
<text text-anchor="middle" x="376.1" y="-31.8" font-family="Times,serif" font-size="14.00">::</text>
</a>
</g>
</g>
<!-- nd24&#45;&gt;nd30 -->
<g id="edge4" class="edge"><title>nd24:s&#45;&gt;nd30:w</title>
<path fill="none" stroke="black" d="M330.1,-40.5C330.1,-26.3247 347.425,-35.5 361.6,-35.5"/>
</g>
<!-- nd34 -->
<g id="node16" class="node"><title>nd34</title>
<g id="a_node16"><a xlink:title="nd34&#45;ConstGraph">
<path fill="none" stroke="purple" d="M417.267,-71C417.267,-71 426.933,-71 426.933,-71 431.767,-71 436.6,-66.1667 436.6,-61.3333 436.6,-61.3333 436.6,-51.6667 436.6,-51.6667 436.6,-46.8333 431.767,-42 426.933,-42 426.933,-42 417.267,-42 417.267,-42 412.433,-42 407.6,-46.8333 407.6,-51.6667 407.6,-51.6667 407.6,-61.3333 407.6,-61.3333 407.6,-66.1667 412.433,-71 417.267,-71"/>
<text text-anchor="middle" x="422.1" y="-52.8" font-family="Times,serif" font-size="14.00">4</text>
</a>
</g>
</g>
<!-- nd30&#45;&gt;nd34 -->
<g id="edge1" class="edge"><title>nd30:n&#45;&gt;nd34:w</title>
<path fill="none" stroke="black" d="M376.1,-51.5C376.1,-55.0438 404.056,-56.5 407.6,-56.5"/>
</g>
<!-- nd39 -->
<g id="node17" class="node"><title>nd39</title>
<g id="a_node17"><a xlink:title="nd39&#45;ConstEmptyGraph">
<path fill="none" stroke="purple" d="M417.267,-29C417.267,-29 426.933,-29 426.933,-29 431.767,-29 436.6,-24.1667 436.6,-19.3333 436.6,-19.3333 436.6,-9.66667 436.6,-9.66667 436.6,-4.83333 431.767,-1.77636e-15 426.933,-1.77636e-15 426.933,-1.77636e-15 417.267,-1.77636e-15 417.267,-1.77636e-15 412.433,-1.77636e-15 407.6,-4.83333 407.6,-9.66667 407.6,-9.66667 407.6,-19.3333 407.6,-19.3333 407.6,-24.1667 412.433,-29 417.267,-29"/>
<text text-anchor="middle" x="422.1" y="-10.8" font-family="Times,serif" font-size="14.00">[]</text>
</a>
</g>
</g>
<!-- nd30&#45;&gt;nd39 -->
<g id="edge2" class="edge"><title>nd30:s&#45;&gt;nd39:w</title>
<path fill="none" stroke="black" d="M376.1,-19.5C376.1,-5.32473 393.425,-14.5 407.6,-14.5"/>
</g>
</g>
</svg>
