<?xml version="1.0" encoding="UTF-8" standalone="no"?>
<!DOCTYPE svg PUBLIC "-//W3C//DTD SVG 1.1//EN"
 "http://www.w3.org/Graphics/SVG/1.1/DTD/svg11.dtd">
<!-- Generated by graphviz version 2.38.0 (20140413.2041)
 -->
<!-- Title: G Pages: 1 -->
<svg width="609pt" height="269pt"
 viewBox="0.00 0.00 609.20 269.00" xmlns="http://www.w3.org/2000/svg" xmlns:xlink="http://www.w3.org/1999/xlink">
<g id="graph0" class="graph" transform="scale(1 1) rotate(0) translate(4 265)">
<title>G</title>
<polygon fill="white" stroke="none" points="-4,4 -4,-265 605.2,-265 605.2,4 -4,4"/>
<g id="clust1" class="cluster"><title>cluster_nd140</title>
<polygon fill="none" stroke="orange" points="320.3,-160 320.3,-180 339.9,-180 339.9,-160 320.3,-160"/>
</g>
<g id="clust2" class="cluster"><title>cluster_nd70</title>
<polygon fill="none" stroke="orange" points="196.3,-210 196.3,-253 246.9,-253 246.9,-210 196.3,-210"/>
<text text-anchor="middle" x="221.6" y="-237.8" font-family="Times,serif" font-size="14.00">empty</text>
</g>
<g id="clust3" class="cluster"><title>cluster_nd91</title>
<polygon fill="none" stroke="orange" points="318.3,-71 318.3,-114 341.9,-114 341.9,-71 318.3,-71"/>
<text text-anchor="middle" x="330.1" y="-98.8" font-family="Times,serif" font-size="14.00">tl</text>
</g>
<g id="clust4" class="cluster"><title>cluster_nd110</title>
<polygon fill="none" stroke="orange" points="315.3,-8 315.3,-51 344.9,-51 344.9,-8 315.3,-8"/>
<text text-anchor="middle" x="330.1" y="-35.8" font-family="Times,serif" font-size="14.00">hd</text>
</g>
<!-- nd1 -->
<g id="node1" class="node"><title>nd1</title>
<ellipse fill="black" stroke="black" cx="1.8" cy="-159" rx="1.8" ry="1.8"/>
</g>
<!-- nd67 -->
<g id="node14" class="node"><title>nd67</title>
<g id="a_node14"><a xlink:title="nd67&#45;IfGraph">
<ellipse fill="none" stroke="#000000" cx="35.1" cy="-159" rx="14.5" ry="14.5"/>
<text text-anchor="middle" x="35.1" y="-155.3" font-family="Times,serif" font-size="14.00">if</text>
</a>
</g>
</g>
<!-- nd1&#45;&gt;nd67 -->
<g id="edge25" class="edge"><title>nd1:e&#45;&gt;nd67:w</title>
<path fill="none" stroke="#b70000" d="M3.6,-159C11.1556,-159 13.0444,-159 20.6,-159"/>
</g>
<!-- nd136 -->
<g id="node2" class="node"><title>nd136</title>
<g id="a_node2"><a xlink:title="nd136&#45;RecurGraph">
<ellipse fill="none" stroke="#000000" cx="278.1" cy="-157" rx="11" ry="11"/>
<text text-anchor="middle" x="278.1" y="-153.3" font-family="Times,serif" font-size="14.00">rec</text>
</a>
</g>
</g>
<!-- ndcluster_nd140 -->
<g id="node3" class="node"><title>ndcluster_nd140</title>
<g id="a_node3"><a xlink:title="nd140">
<ellipse fill="orange" stroke="orange" cx="330.1" cy="-170" rx="1.8" ry="1.8"/>
</a>
</g>
</g>
<!-- nd136&#45;&gt;ndcluster_nd140 -->
<g id="edge28" class="edge"><title>nd136:n&#45;&gt;ndcluster_nd140:e</title>
<path fill="none" stroke="grey" d="M278.1,-169C278.1,-191.346 305.963,-171.178 328.3,-171.8 329.988,-171.847 330.644,-172.656 332.1,-171.8 332.889,-171.336 334.015,-170 333.1,-170"/>
</g>
<!-- nd136&#45;&gt;ndcluster_nd140 -->
<g id="edge29" class="edge"><title>nd136:e&#45;&gt;ndcluster_nd140:w</title>
<path fill="none" stroke="black" d="M290.1,-157C307.53,-157 309.67,-170 327.1,-170"/>
</g>
<!-- nd16 -->
<g id="node4" class="node"><title>nd16</title>
<g id="a_node4"><a xlink:title="nd16&#45;ConstGraph">
<path fill="none" stroke="purple" d="M443.867,-192.5C443.867,-192.5 453.533,-192.5 453.533,-192.5 458.367,-192.5 463.2,-187.667 463.2,-182.833 463.2,-182.833 463.2,-173.167 463.2,-173.167 463.2,-168.333 458.367,-163.5 453.533,-163.5 453.533,-163.5 443.867,-163.5 443.867,-163.5 439.033,-163.5 434.2,-168.333 434.2,-173.167 434.2,-173.167 434.2,-182.833 434.2,-182.833 434.2,-187.667 439.033,-192.5 443.867,-192.5"/>
<text text-anchor="middle" x="448.7" y="-174.3" font-family="Times,serif" font-size="14.00">1</text>
</a>
</g>
</g>
<!-- nd22 -->
<g id="node5" class="node"><title>nd22</title>
<g id="a_node5"><a xlink:title="nd22&#45;ConstGraph">
<path fill="none" stroke="purple" d="M489.867,-171.5C489.867,-171.5 499.533,-171.5 499.533,-171.5 504.367,-171.5 509.2,-166.667 509.2,-161.833 509.2,-161.833 509.2,-152.167 509.2,-152.167 509.2,-147.333 504.367,-142.5 499.533,-142.5 499.533,-142.5 489.867,-142.5 489.867,-142.5 485.033,-142.5 480.2,-147.333 480.2,-152.167 480.2,-152.167 480.2,-161.833 480.2,-161.833 480.2,-166.667 485.033,-171.5 489.867,-171.5"/>
<text text-anchor="middle" x="494.7" y="-153.3" font-family="Times,serif" font-size="14.00">2</text>
</a>
</g>
</g>
<!-- nd28 -->
<g id="node6" class="node"><title>nd28</title>
<g id="a_node6"><a xlink:title="nd28&#45;ConstGraph">
<path fill="none" stroke="purple" d="M535.867,-150.5C535.867,-150.5 545.533,-150.5 545.533,-150.5 550.367,-150.5 555.2,-145.667 555.2,-140.833 555.2,-140.833 555.2,-131.167 555.2,-131.167 555.2,-126.333 550.367,-121.5 545.533,-121.5 545.533,-121.5 535.867,-121.5 535.867,-121.5 531.033,-121.5 526.2,-126.333 526.2,-131.167 526.2,-131.167 526.2,-140.833 526.2,-140.833 526.2,-145.667 531.033,-150.5 535.867,-150.5"/>
<text text-anchor="middle" x="540.7" y="-132.3" font-family="Times,serif" font-size="14.00">3</text>
</a>
</g>
</g>
<!-- nd34 -->
<g id="node7" class="node"><title>nd34</title>
<g id="a_node7"><a xlink:title="nd34&#45;ConstGraph">
<path fill="none" stroke="purple" d="M581.867,-129.5C581.867,-129.5 591.533,-129.5 591.533,-129.5 596.367,-129.5 601.2,-124.667 601.2,-119.833 601.2,-119.833 601.2,-110.167 601.2,-110.167 601.2,-105.333 596.367,-100.5 591.533,-100.5 591.533,-100.5 581.867,-100.5 581.867,-100.5 577.033,-100.5 572.2,-105.333 572.2,-110.167 572.2,-110.167 572.2,-119.833 572.2,-119.833 572.2,-124.667 577.033,-129.5 581.867,-129.5"/>
<text text-anchor="middle" x="586.7" y="-111.3" font-family="Times,serif" font-size="14.00">4</text>
</a>
</g>
</g>
<!-- nd39 -->
<g id="node8" class="node"><title>nd39</title>
<g id="a_node8"><a xlink:title="nd39&#45;ConstEmptyGraph">
<path fill="none" stroke="purple" d="M581.867,-87.5C581.867,-87.5 591.533,-87.5 591.533,-87.5 596.367,-87.5 601.2,-82.6667 601.2,-77.8333 601.2,-77.8333 601.2,-68.1667 601.2,-68.1667 601.2,-63.3333 596.367,-58.5 591.533,-58.5 591.533,-58.5 581.867,-58.5 581.867,-58.5 577.033,-58.5 572.2,-63.3333 572.2,-68.1667 572.2,-68.1667 572.2,-77.8333 572.2,-77.8333 572.2,-82.6667 577.033,-87.5 581.867,-87.5"/>
<text text-anchor="middle" x="586.7" y="-69.3" font-family="Times,serif" font-size="14.00">[]</text>
</a>
</g>
</g>
<!-- nd50 -->
<g id="node9" class="node"><title>nd50</title>
<g id="a_node9"><a xlink:title="nd50&#45;ConstGraph">
<path fill="none" stroke="purple" d="M325.267,-151.5C325.267,-151.5 334.933,-151.5 334.933,-151.5 339.767,-151.5 344.6,-146.667 344.6,-141.833 344.6,-141.833 344.6,-132.167 344.6,-132.167 344.6,-127.333 339.767,-122.5 334.933,-122.5 334.933,-122.5 325.267,-122.5 325.267,-122.5 320.433,-122.5 315.6,-127.333 315.6,-132.167 315.6,-132.167 315.6,-141.833 315.6,-141.833 315.6,-146.667 320.433,-151.5 325.267,-151.5"/>
<text text-anchor="middle" x="330.1" y="-133.3" font-family="Times,serif" font-size="14.00">0</text>
</a>
</g>
</g>
<!-- nd182 -->
<g id="node10" class="node"><title>nd182</title>
<g id="a_node10"><a xlink:title="nd182&#45;ConstListGraph">
<path fill="none" stroke="purple" d="M535.867,-108.5C535.867,-108.5 545.533,-108.5 545.533,-108.5 550.367,-108.5 555.2,-103.667 555.2,-98.8333 555.2,-98.8333 555.2,-89.1667 555.2,-89.1667 555.2,-84.3333 550.367,-79.5 545.533,-79.5 545.533,-79.5 535.867,-79.5 535.867,-79.5 531.033,-79.5 526.2,-84.3333 526.2,-89.1667 526.2,-89.1667 526.2,-98.8333 526.2,-98.8333 526.2,-103.667 531.033,-108.5 535.867,-108.5"/>
<text text-anchor="middle" x="540.7" y="-90.3" font-family="Times,serif" font-size="14.00">::</text>
</a>
</g>
</g>
<!-- nd182&#45;&gt;nd34 -->
<g id="edge1" class="edge"><title>nd182:n&#45;&gt;nd34:w</title>
<path fill="none" stroke="purple" d="M540.7,-110C540.7,-113.544 568.656,-115 572.2,-115"/>
</g>
<!-- nd182&#45;&gt;nd39 -->
<g id="edge2" class="edge"><title>nd182:s&#45;&gt;nd39:w</title>
<path fill="none" stroke="purple" d="M540.7,-78C540.7,-63.8247 558.025,-73 572.2,-73"/>
</g>
<!-- nd188 -->
<g id="node11" class="node"><title>nd188</title>
<g id="a_node11"><a xlink:title="nd188&#45;ConstListGraph">
<path fill="none" stroke="purple" d="M489.867,-129.5C489.867,-129.5 499.533,-129.5 499.533,-129.5 504.367,-129.5 509.2,-124.667 509.2,-119.833 509.2,-119.833 509.2,-110.167 509.2,-110.167 509.2,-105.333 504.367,-100.5 499.533,-100.5 499.533,-100.5 489.867,-100.5 489.867,-100.5 485.033,-100.5 480.2,-105.333 480.2,-110.167 480.2,-110.167 480.2,-119.833 480.2,-119.833 480.2,-124.667 485.033,-129.5 489.867,-129.5"/>
<text text-anchor="middle" x="494.7" y="-111.3" font-family="Times,serif" font-size="14.00">::</text>
</a>
</g>
</g>
<!-- nd188&#45;&gt;nd28 -->
<g id="edge3" class="edge"><title>nd188:n&#45;&gt;nd28:w</title>
<path fill="none" stroke="purple" d="M494.7,-131C494.7,-134.544 522.656,-136 526.2,-136"/>
</g>
<!-- nd188&#45;&gt;nd182 -->
<g id="edge4" class="edge"><title>nd188:s&#45;&gt;nd182:w</title>
<path fill="none" stroke="purple" d="M494.7,-99C494.7,-84.8247 512.025,-94 526.2,-94"/>
</g>
<!-- nd194 -->
<g id="node12" class="node"><title>nd194</title>
<g id="a_node12"><a xlink:title="nd194&#45;ConstListGraph">
<path fill="none" stroke="purple" d="M443.867,-150.5C443.867,-150.5 453.533,-150.5 453.533,-150.5 458.367,-150.5 463.2,-145.667 463.2,-140.833 463.2,-140.833 463.2,-131.167 463.2,-131.167 463.2,-126.333 458.367,-121.5 453.533,-121.5 453.533,-121.5 443.867,-121.5 443.867,-121.5 439.033,-121.5 434.2,-126.333 434.2,-131.167 434.2,-131.167 434.2,-140.833 434.2,-140.833 434.2,-145.667 439.033,-150.5 443.867,-150.5"/>
<text text-anchor="middle" x="448.7" y="-132.3" font-family="Times,serif" font-size="14.00">::</text>
</a>
</g>
</g>
<!-- nd194&#45;&gt;nd22 -->
<g id="edge5" class="edge"><title>nd194:n&#45;&gt;nd22:w</title>
<path fill="none" stroke="purple" d="M448.7,-152C448.7,-155.544 476.656,-157 480.2,-157"/>
</g>
<!-- nd194&#45;&gt;nd188 -->
<g id="edge6" class="edge"><title>nd194:s&#45;&gt;nd188:w</title>
<path fill="none" stroke="purple" d="M448.7,-120C448.7,-105.825 466.025,-115 480.2,-115"/>
</g>
<!-- nd200 -->
<g id="node13" class="node"><title>nd200</title>
<g id="a_node13"><a xlink:title="nd200&#45;ConstListGraph">
<path fill="none" stroke="purple" d="M397.867,-171.5C397.867,-171.5 407.533,-171.5 407.533,-171.5 412.367,-171.5 417.2,-166.667 417.2,-161.833 417.2,-161.833 417.2,-152.167 417.2,-152.167 417.2,-147.333 412.367,-142.5 407.533,-142.5 407.533,-142.5 397.867,-142.5 397.867,-142.5 393.033,-142.5 388.2,-147.333 388.2,-152.167 388.2,-152.167 388.2,-161.833 388.2,-161.833 388.2,-166.667 393.033,-171.5 397.867,-171.5"/>
<text text-anchor="middle" x="402.7" y="-153.3" font-family="Times,serif" font-size="14.00">::</text>
</a>
</g>
</g>
<!-- nd200&#45;&gt;nd16 -->
<g id="edge7" class="edge"><title>nd200:n&#45;&gt;nd16:w</title>
<path fill="none" stroke="purple" d="M402.7,-173C402.7,-187.175 420.025,-178 434.2,-178"/>
</g>
<!-- nd200&#45;&gt;nd194 -->
<g id="edge8" class="edge"><title>nd200:s&#45;&gt;nd194:w</title>
<path fill="none" stroke="purple" d="M402.7,-141C402.7,-126.825 420.025,-136 434.2,-136"/>
</g>
<!-- nd68 -->
<g id="node15" class="node"><title>nd68</title>
<g id="a_node15"><a xlink:title="nd68&#45;AppGraph">
<path fill="none" stroke="#000000" d="M124.547,-220.054C124.547,-220.054 120.672,-214.446 120.672,-214.446 119.136,-212.223 119.136,-207.777 120.672,-205.554 120.672,-205.554 124.547,-199.946 124.547,-199.946 126.083,-197.723 130.321,-195.502 133.023,-195.505 133.023,-195.505 138.427,-195.509 138.427,-195.509 141.129,-195.511 143.831,-198.215 143.831,-200.917 143.831,-200.917 143.831,-219.083 143.831,-219.083 143.831,-221.785 141.129,-224.489 138.427,-224.491 138.427,-224.491 133.023,-224.495 133.023,-224.495 130.321,-224.498 126.083,-222.277 124.547,-220.054"/>
<text text-anchor="middle" x="132.1" y="-206.3" font-family="Times,serif" font-size="14.00">@</text>
</a>
</g>
</g>
<!-- nd67&#45;&gt;nd68 -->
<g id="edge19" class="edge"><title>nd67:n&#45;&gt;nd68:w</title>
<path fill="none" stroke="#b70000" d="M35.1,-175C35.1,-214.83 77.7701,-210 117.6,-210"/>
<text text-anchor="middle" x="83.6" y="-213.8" font-family="Times,serif" font-size="14.00">condition</text>
</g>
<!-- nd84 -->
<g id="node17" class="node"><title>nd84</title>
<g id="a_node17"><a xlink:title="nd84&#45;AppGraph">
<path fill="none" stroke="#000000" d="M124.547,-134.054C124.547,-134.054 120.672,-128.446 120.672,-128.446 119.136,-126.223 119.136,-121.777 120.672,-119.554 120.672,-119.554 124.547,-113.946 124.547,-113.946 126.083,-111.723 130.321,-109.502 133.023,-109.505 133.023,-109.505 138.427,-109.509 138.427,-109.509 141.129,-109.511 143.831,-112.215 143.831,-114.917 143.831,-114.917 143.831,-133.083 143.831,-133.083 143.831,-135.785 141.129,-138.489 138.427,-138.491 138.427,-138.491 133.023,-138.495 133.023,-138.495 130.321,-138.498 126.083,-136.277 124.547,-134.054"/>
<text text-anchor="middle" x="132.1" y="-120.3" font-family="Times,serif" font-size="14.00">@</text>
</a>
</g>
</g>
<!-- nd67&#45;&gt;nd84 -->
<g id="edge20" class="edge"><title>nd67:s&#45;&gt;nd84:w</title>
<path fill="none" stroke="grey" d="M35.1,-143C35.1,-126.977 69.9155,-124 117.6,-124"/>
<text text-anchor="middle" x="83.6" y="-130.8" font-family="Times,serif" font-size="14.00">is false</text>
</g>
<!-- nd125 -->
<g id="node25" class="node"><title>nd125</title>
<g id="a_node25"><a xlink:title="nd125&#45;ContractGraph">
<ellipse fill="black" stroke="black" cx="278.1" cy="-130" rx="1.8" ry="1.8"/>
</a>
</g>
</g>
<!-- nd67&#45;&gt;nd125 -->
<g id="edge22" class="edge"><title>nd67:e&#45;&gt;nd125:w</title>
<path fill="none" stroke="grey" d="M49.6,-159C137.509,-159 162.41,-169.281 246.9,-145 260.544,-141.079 260.904,-130 275.1,-130"/>
<text text-anchor="middle" x="171.6" y="-163.8" font-family="Times,serif" font-size="14.00">is true</text>
</g>
<!-- ndcluster_nd70 -->
<g id="node16" class="node"><title>ndcluster_nd70</title>
<g id="a_node16"><a xlink:title="nd70">
<ellipse fill="orange" stroke="orange" cx="221.1" cy="-220" rx="1.8" ry="1.8"/>
</a>
</g>
</g>
<!-- nd68&#45;&gt;ndcluster_nd70 -->
<g id="edge9" class="edge"><title>nd68:e&#45;&gt;ndcluster_nd70:w</title>
<path fill="none" stroke="black" d="M145.1,-210C177.847,-210 185.353,-220 218.1,-220"/>
</g>
<!-- nd126 -->
<g id="node26" class="node"><title>nd126</title>
<g id="a_node26"><a xlink:title="nd126&#45;ContractGraph">
<ellipse fill="black" stroke="black" cx="363.4" cy="-157" rx="1.8" ry="1.8"/>
</a>
</g>
</g>
<!-- nd68&#45;&gt;nd126 -->
<g id="edge23" class="edge"><title>nd68:s&#45;&gt;nd126:w</title>
<path fill="none" stroke="red" d="M132.1,-194C132.1,-154.886 180.986,-195 220.1,-195 220.1,-195 220.1,-195 331.1,-195 339.228,-195 339.584,-189.148 344.9,-183 350.655,-176.345 350.254,-167.546 352.833,-162.082"/>
<polygon fill="red" stroke="red" points="354.703,-165.043 361.6,-157 351.193,-158.987 354.703,-165.043"/>
</g>
<!-- nd85 -->
<g id="node18" class="node"><title>nd85</title>
<g id="a_node18"><a xlink:title="nd85&#45;AppGraph">
<path fill="none" stroke="#000000" d="M213.547,-134.054C213.547,-134.054 209.672,-128.446 209.672,-128.446 208.136,-126.223 208.136,-121.777 209.672,-119.554 209.672,-119.554 213.547,-113.946 213.547,-113.946 215.083,-111.723 219.321,-109.502 222.023,-109.505 222.023,-109.505 227.427,-109.509 227.427,-109.509 230.129,-109.511 232.831,-112.215 232.831,-114.917 232.831,-114.917 232.831,-133.083 232.831,-133.083 232.831,-135.785 230.129,-138.489 227.427,-138.491 227.427,-138.491 222.023,-138.495 222.023,-138.495 219.321,-138.498 215.083,-136.277 213.547,-134.054"/>
<text text-anchor="middle" x="221.1" y="-120.3" font-family="Times,serif" font-size="14.00">@</text>
</a>
</g>
</g>
<!-- nd84&#45;&gt;nd85 -->
<g id="edge15" class="edge"><title>nd84:e&#45;&gt;nd85:w</title>
<path fill="none" stroke="black" d="M145.1,-124C171.767,-124 178.433,-124 205.1,-124"/>
</g>
<!-- nd105 -->
<g id="node21" class="node"><title>nd105</title>
<g id="a_node21"><a xlink:title="nd105&#45;BinOpGraph">
<ellipse fill="none" stroke="#000000" cx="221.1" cy="-75" rx="14.5" ry="14.5"/>
<text text-anchor="middle" x="221.1" y="-71.3" font-family="Times,serif" font-size="14.00">+</text>
</a>
</g>
</g>
<!-- nd84&#45;&gt;nd105 -->
<g id="edge16" class="edge"><title>nd84:s&#45;&gt;nd105:w</title>
<path fill="none" stroke="black" d="M132.1,-108C132.1,-72.3945 169.494,-75 205.1,-75"/>
</g>
<!-- nd85&#45;&gt;nd136 -->
<g id="edge11" class="edge"><title>nd85:e&#45;&gt;nd136:w</title>
<path fill="none" stroke="black" d="M234.1,-124C254.53,-124 245.67,-157 266.1,-157"/>
</g>
<!-- nd89 -->
<g id="node19" class="node"><title>nd89</title>
<g id="a_node19"><a xlink:title="nd89&#45;AppGraph">
<path fill="none" stroke="#000000" d="M270.547,-102.054C270.547,-102.054 266.672,-96.4457 266.672,-96.4457 265.136,-94.2229 265.136,-89.7771 266.672,-87.5543 266.672,-87.5543 270.547,-81.9457 270.547,-81.9457 272.083,-79.7229 276.321,-77.5023 279.023,-77.5045 279.023,-77.5045 284.427,-77.509 284.427,-77.509 287.129,-77.5113 289.831,-80.2155 289.831,-82.9174 289.831,-82.9174 289.831,-101.083 289.831,-101.083 289.831,-103.785 287.129,-106.489 284.427,-106.491 284.427,-106.491 279.023,-106.495 279.023,-106.495 276.321,-106.498 272.083,-104.277 270.547,-102.054"/>
<text text-anchor="middle" x="278.1" y="-88.3" font-family="Times,serif" font-size="14.00">@</text>
</a>
</g>
</g>
<!-- nd85&#45;&gt;nd89 -->
<g id="edge12" class="edge"><title>nd85:s&#45;&gt;nd89:w</title>
<path fill="none" stroke="black" d="M221.1,-108C221.1,-102.954 258.554,-92 263.6,-92"/>
</g>
<!-- ndcluster_nd91 -->
<g id="node20" class="node"><title>ndcluster_nd91</title>
<g id="a_node20"><a xlink:title="nd91">
<ellipse fill="orange" stroke="orange" cx="330.1" cy="-81" rx="1.8" ry="1.8"/>
</a>
</g>
</g>
<!-- nd89&#45;&gt;ndcluster_nd91 -->
<g id="edge10" class="edge"><title>nd89:e&#45;&gt;ndcluster_nd91:w</title>
<path fill="none" stroke="black" d="M291.1,-92C307.83,-92 310.37,-81 327.1,-81"/>
</g>
<!-- nd123 -->
<g id="node24" class="node"><title>nd123</title>
<g id="a_node24"><a xlink:title="nd123&#45;ContractGraph">
<ellipse fill="black" stroke="black" cx="330.1" cy="-61" rx="1.8" ry="1.8"/>
</a>
</g>
</g>
<!-- nd89&#45;&gt;nd123 -->
<g id="edge18" class="edge"><title>nd89:s&#45;&gt;nd123:w</title>
<path fill="none" stroke="black" d="M278.1,-76C278.1,-75.2883 326.388,-61 327.1,-61"/>
</g>
<!-- nd108 -->
<g id="node22" class="node"><title>nd108</title>
<g id="a_node22"><a xlink:title="nd108&#45;AppGraph">
<path fill="none" stroke="#000000" d="M270.547,-60.0543C270.547,-60.0543 266.672,-54.4457 266.672,-54.4457 265.136,-52.2229 265.136,-47.7771 266.672,-45.5543 266.672,-45.5543 270.547,-39.9457 270.547,-39.9457 272.083,-37.7229 276.321,-35.5023 279.023,-35.5045 279.023,-35.5045 284.427,-35.509 284.427,-35.509 287.129,-35.5113 289.831,-38.2155 289.831,-40.9174 289.831,-40.9174 289.831,-59.0826 289.831,-59.0826 289.831,-61.7845 287.129,-64.4887 284.427,-64.491 284.427,-64.491 279.023,-64.4955 279.023,-64.4955 276.321,-64.4977 272.083,-62.2771 270.547,-60.0543"/>
<text text-anchor="middle" x="278.1" y="-46.3" font-family="Times,serif" font-size="14.00">@</text>
</a>
</g>
</g>
<!-- nd105&#45;&gt;nd108 -->
<g id="edge14" class="edge"><title>nd105:s&#45;&gt;nd108:w</title>
<path fill="none" stroke="black" d="M221.1,-59C221.1,-39.6922 244.292,-50 263.6,-50"/>
</g>
<!-- nd105&#45;&gt;nd125 -->
<g id="edge21" class="edge"><title>nd105:n&#45;&gt;nd125:w</title>
<path fill="none" stroke="black" d="M221.1,-91C221.1,-103.646 236.459,-95.8645 246.9,-103 261.226,-112.791 257.748,-130 275.1,-130"/>
</g>
<!-- ndcluster_nd110 -->
<g id="node23" class="node"><title>ndcluster_nd110</title>
<g id="a_node23"><a xlink:title="nd110">
<ellipse fill="orange" stroke="orange" cx="330.1" cy="-18" rx="1.8" ry="1.8"/>
</a>
</g>
</g>
<!-- nd108&#45;&gt;ndcluster_nd110 -->
<g id="edge13" class="edge"><title>nd108:e&#45;&gt;ndcluster_nd110:w</title>
<path fill="none" stroke="black" d="M291.1,-50C312.507,-50 305.693,-18 327.1,-18"/>
</g>
<!-- nd108&#45;&gt;nd123 -->
<g id="edge17" class="edge"><title>nd108:s&#45;&gt;nd123:w</title>
<path fill="none" stroke="black" d="M278.1,-34C278.1,-27.5402 286.608,-32.5867 292.6,-35 310.41,-42.173 307.9,-61 327.1,-61"/>
</g>
<!-- nd123&#45;&gt;nd126 -->
<g id="edge24" class="edge"><title>nd123:e&#45;&gt;nd126:w</title>
<path fill="none" stroke="black" d="M333.1,-61C339.198,-61 341.405,-63.0035 344.9,-68 356.435,-84.4888 341.477,-157 361.6,-157"/>
</g>
<!-- nd125&#45;&gt;nd50 -->
<g id="edge26" class="edge"><title>nd125:e&#45;&gt;nd50:w</title>
<path fill="none" stroke="black" d="M281.1,-130C292.911,-130 296.409,-128.222 307.6,-132 311.466,-133.305 311.22,-137 315.3,-137"/>
<text text-anchor="middle" x="304.1" y="-135.8" font-family="Times,serif" font-size="14.00">y</text>
</g>
<!-- nd126&#45;&gt;nd200 -->
<g id="edge27" class="edge"><title>nd126:e&#45;&gt;nd200:w</title>
<path fill="none" stroke="black" d="M365.2,-157C375.422,-157 377.978,-157 388.2,-157"/>
<text text-anchor="middle" x="376.7" y="-160.8" font-family="Times,serif" font-size="14.00">x</text>
</g>
</g>
</svg>
