<?xml version="1.0" encoding="UTF-8" standalone="no"?>
<!DOCTYPE svg PUBLIC "-//W3C//DTD SVG 1.1//EN"
 "http://www.w3.org/Graphics/SVG/1.1/DTD/svg11.dtd">
<!-- Generated by graphviz version 2.38.0 (20140413.2041)
 -->
<!-- Title: G Pages: 1 -->
<svg width="257pt" height="118pt"
 viewBox="0.00 0.00 256.60 117.50" xmlns="http://www.w3.org/2000/svg" xmlns:xlink="http://www.w3.org/1999/xlink">
<g id="graph0" class="graph" transform="scale(1 1) rotate(0) translate(4 113.5)">
<title>G</title>
<polygon fill="white" stroke="none" points="-4,4 -4,-113.5 252.6,-113.5 252.6,4 -4,4"/>
<g id="clust1" class="cluster"><title>cluster_nd241</title>
<polygon fill="none" stroke="orange" points="140.3,-81.5 140.3,-101.5 159.9,-101.5 159.9,-81.5 140.3,-81.5"/>
</g>
<!-- nd1 -->
<g id="node1" class="node"><title>nd1</title>
<ellipse fill="black" stroke="black" cx="1.8" cy="-63.5" rx="1.8" ry="1.8"/>
</g>
<!-- nd154 -->
<g id="node9" class="node"><title>nd154</title>
<g id="a_node9"><a xlink:title="nd154&#45;AppGraph">
<path fill="none" stroke="#000000" d="M23.5473,-73.5543C23.5473,-73.5543 19.6719,-67.9457 19.6719,-67.9457 18.136,-65.7229 18.136,-61.2771 19.6719,-59.0543 19.6719,-59.0543 23.5473,-53.4457 23.5473,-53.4457 25.0833,-51.2229 29.3212,-49.0023 32.0231,-49.0045 32.0231,-49.0045 37.4269,-49.009 37.4269,-49.009 40.1288,-49.0113 42.8307,-51.7155 42.8307,-54.4174 42.8307,-54.4174 42.8307,-72.5826 42.8307,-72.5826 42.8307,-75.2845 40.1288,-77.9887 37.4269,-77.991 37.4269,-77.991 32.0231,-77.9955 32.0231,-77.9955 29.3212,-77.9977 25.0833,-75.7771 23.5473,-73.5543"/>
<text text-anchor="middle" x="31.1" y="-59.8" font-family="Times,serif" font-size="14.00">@</text>
</a>
</g>
</g>
<!-- nd1&#45;&gt;nd154 -->
<g id="edge8" class="edge"><title>nd1:e&#45;&gt;nd154:w</title>
<path fill="none" stroke="#b70000" d="M3.6,-63.5C9.37778,-63.5 10.8222,-63.5 16.6,-63.5"/>
</g>
<!-- nd28 -->
<g id="node2" class="node"><title>nd28</title>
<g id="a_node2"><a xlink:title="nd28&#45;ConstGraph">
<path fill="none" stroke="purple" d="M187.267,-92C187.267,-92 196.933,-92 196.933,-92 201.767,-92 206.6,-87.1667 206.6,-82.3333 206.6,-82.3333 206.6,-72.6667 206.6,-72.6667 206.6,-67.8333 201.767,-63 196.933,-63 196.933,-63 187.267,-63 187.267,-63 182.433,-63 177.6,-67.8333 177.6,-72.6667 177.6,-72.6667 177.6,-82.3333 177.6,-82.3333 177.6,-87.1667 182.433,-92 187.267,-92"/>
<text text-anchor="middle" x="192.1" y="-73.8" font-family="Times,serif" font-size="14.00">3</text>
</a>
</g>
</g>
<!-- nd34 -->
<g id="node3" class="node"><title>nd34</title>
<g id="a_node3"><a xlink:title="nd34&#45;ConstGraph">
<path fill="none" stroke="purple" d="M229.267,-71C229.267,-71 238.933,-71 238.933,-71 243.767,-71 248.6,-66.1667 248.6,-61.3333 248.6,-61.3333 248.6,-51.6667 248.6,-51.6667 248.6,-46.8333 243.767,-42 238.933,-42 238.933,-42 229.267,-42 229.267,-42 224.433,-42 219.6,-46.8333 219.6,-51.6667 219.6,-51.6667 219.6,-61.3333 219.6,-61.3333 219.6,-66.1667 224.433,-71 229.267,-71"/>
<text text-anchor="middle" x="234.1" y="-52.8" font-family="Times,serif" font-size="14.00">4</text>
</a>
</g>
</g>
<!-- nd39 -->
<g id="node4" class="node"><title>nd39</title>
<g id="a_node4"><a xlink:title="nd39&#45;ConstEmptyGraph">
<path fill="none" stroke="purple" d="M229.267,-29C229.267,-29 238.933,-29 238.933,-29 243.767,-29 248.6,-24.1667 248.6,-19.3333 248.6,-19.3333 248.6,-9.66667 248.6,-9.66667 248.6,-4.83333 243.767,-1.77636e-15 238.933,-1.77636e-15 238.933,-1.77636e-15 229.267,-1.77636e-15 229.267,-1.77636e-15 224.433,-1.77636e-15 219.6,-4.83333 219.6,-9.66667 219.6,-9.66667 219.6,-19.3333 219.6,-19.3333 219.6,-24.1667 224.433,-29 229.267,-29"/>
<text text-anchor="middle" x="234.1" y="-10.8" font-family="Times,serif" font-size="14.00">[]</text>
</a>
</g>
</g>
<!-- nd182 -->
<g id="node5" class="node"><title>nd182</title>
<g id="a_node5"><a xlink:title="nd182&#45;ConstListGraph">
<path fill="none" stroke="purple" d="M187.267,-50C187.267,-50 196.933,-50 196.933,-50 201.767,-50 206.6,-45.1667 206.6,-40.3333 206.6,-40.3333 206.6,-30.6667 206.6,-30.6667 206.6,-25.8333 201.767,-21 196.933,-21 196.933,-21 187.267,-21 187.267,-21 182.433,-21 177.6,-25.8333 177.6,-30.6667 177.6,-30.6667 177.6,-40.3333 177.6,-40.3333 177.6,-45.1667 182.433,-50 187.267,-50"/>
<text text-anchor="middle" x="192.1" y="-31.8" font-family="Times,serif" font-size="14.00">::</text>
</a>
</g>
</g>
<!-- nd182&#45;&gt;nd34 -->
<g id="edge1" class="edge"><title>nd182:n&#45;&gt;nd34:w</title>
<path fill="none" stroke="purple" d="M192.1,-51.5C192.1,-54.6056 216.494,-56.5 219.6,-56.5"/>
</g>
<!-- nd182&#45;&gt;nd39 -->
<g id="edge2" class="edge"><title>nd182:s&#45;&gt;nd39:w</title>
<path fill="none" stroke="purple" d="M192.1,-19.5C192.1,-7.0774 207.177,-14.5 219.6,-14.5"/>
</g>
<!-- nd188 -->
<g id="node6" class="node"><title>nd188</title>
<g id="a_node6"><a xlink:title="nd188&#45;ConstListGraph">
<path fill="none" stroke="purple" d="M145.267,-71C145.267,-71 154.933,-71 154.933,-71 159.767,-71 164.6,-66.1667 164.6,-61.3333 164.6,-61.3333 164.6,-51.6667 164.6,-51.6667 164.6,-46.8333 159.767,-42 154.933,-42 154.933,-42 145.267,-42 145.267,-42 140.433,-42 135.6,-46.8333 135.6,-51.6667 135.6,-51.6667 135.6,-61.3333 135.6,-61.3333 135.6,-66.1667 140.433,-71 145.267,-71"/>
<text text-anchor="middle" x="150.1" y="-52.8" font-family="Times,serif" font-size="14.00">::</text>
</a>
</g>
</g>
<!-- nd188&#45;&gt;nd28 -->
<g id="edge3" class="edge"><title>nd188:n&#45;&gt;nd28:w</title>
<path fill="none" stroke="purple" d="M150.1,-72.5C150.1,-78.7113 171.389,-77.5 177.6,-77.5"/>
</g>
<!-- nd188&#45;&gt;nd182 -->
<g id="edge4" class="edge"><title>nd188:s&#45;&gt;nd182:w</title>
<path fill="none" stroke="purple" d="M150.1,-40.5C150.1,-28.0774 165.177,-35.5 177.6,-35.5"/>
</g>
<!-- nd237 -->
<g id="node7" class="node"><title>nd237</title>
<g id="a_node7"><a xlink:title="nd237&#45;RecurGraph">
<ellipse fill="none" stroke="#000000" cx="111.6" cy="-82.5" rx="11" ry="11"/>
<text text-anchor="middle" x="111.6" y="-78.8" font-family="Times,serif" font-size="14.00">rec</text>
</a>
</g>
</g>
<!-- ndcluster_nd241 -->
<g id="node8" class="node"><title>ndcluster_nd241</title>
<g id="a_node8"><a xlink:title="nd241">
<ellipse fill="orange" stroke="orange" cx="150.1" cy="-91.5" rx="1.8" ry="1.8"/>
</a>
</g>
</g>
<!-- nd237&#45;&gt;ndcluster_nd241 -->
<g id="edge10" class="edge"><title>nd237:n&#45;&gt;ndcluster_nd241:e</title>
<path fill="none" stroke="grey" d="M111.6,-94.5C111.6,-112.993 171.593,-91.5 153.1,-91.5"/>
</g>
<!-- nd237&#45;&gt;ndcluster_nd241 -->
<g id="edge11" class="edge"><title>nd237:e&#45;&gt;ndcluster_nd241:w</title>
<path fill="none" stroke="black" d="M122.6,-82.5C134.2,-82.5 135.5,-91.5 147.1,-91.5"/>
</g>
<!-- nd155 -->
<g id="node10" class="node"><title>nd155</title>
<g id="a_node10"><a xlink:title="nd155&#45;AppGraph">
<path fill="none" stroke="#000000" d="M65.5473,-87.5543C65.5473,-87.5543 61.6719,-81.9457 61.6719,-81.9457 60.136,-79.7229 60.136,-75.2771 61.6719,-73.0543 61.6719,-73.0543 65.5473,-67.4457 65.5473,-67.4457 67.0833,-65.2229 71.3212,-63.0023 74.0231,-63.0045 74.0231,-63.0045 79.4269,-63.009 79.4269,-63.009 82.1288,-63.0113 84.8307,-65.7155 84.8307,-68.4174 84.8307,-68.4174 84.8307,-86.5826 84.8307,-86.5826 84.8307,-89.2845 82.1288,-91.9887 79.4269,-91.991 79.4269,-91.991 74.0231,-91.9955 74.0231,-91.9955 71.3212,-91.9977 67.0833,-89.7771 65.5473,-87.5543"/>
<text text-anchor="middle" x="73.1" y="-73.8" font-family="Times,serif" font-size="14.00">@</text>
</a>
</g>
</g>
<!-- nd154&#45;&gt;nd155 -->
<g id="edge6" class="edge"><title>nd154:e&#45;&gt;nd155:w</title>
<path fill="none" stroke="#b70000" d="M44.1,-63.5C53.0581,-63.5 49.6419,-77.5 58.6,-77.5"/>
</g>
<!-- nd309 -->
<g id="node12" class="node"><title>nd309</title>
<g id="a_node12"><a xlink:title="nd309&#45;ConstGraph">
<path fill="none" stroke="purple" d="M68.2667,-50C68.2667,-50 77.9333,-50 77.9333,-50 82.7667,-50 87.6,-45.1667 87.6,-40.3333 87.6,-40.3333 87.6,-30.6667 87.6,-30.6667 87.6,-25.8333 82.7667,-21 77.9333,-21 77.9333,-21 68.2667,-21 68.2667,-21 63.4333,-21 58.6,-25.8333 58.6,-30.6667 58.6,-30.6667 58.6,-40.3333 58.6,-40.3333 58.6,-45.1667 63.4333,-50 68.2667,-50"/>
<text text-anchor="middle" x="73.1" y="-31.8" font-family="Times,serif" font-size="14.00">3</text>
</a>
</g>
</g>
<!-- nd154&#45;&gt;nd309 -->
<g id="edge7" class="edge"><title>nd154:s&#45;&gt;nd309:w</title>
<path fill="none" stroke="black" d="M31.1,-47.5C31.1,-34.1648 45.2648,-35.5 58.6,-35.5"/>
</g>
<!-- nd155&#45;&gt;nd237 -->
<g id="edge5" class="edge"><title>nd155:e&#45;&gt;nd237:w</title>
<path fill="none" stroke="black" d="M86.1,-77.5C92.9168,-77.5 93.7832,-82.5 100.6,-82.5"/>
</g>
<!-- nd287 -->
<g id="node11" class="node"><title>nd287</title>
<g id="a_node11"><a xlink:title="nd287&#45;ContractGraph">
<ellipse fill="black" stroke="black" cx="111.6" cy="-56.5" rx="1.8" ry="1.8"/>
</a>
</g>
</g>
<!-- nd155&#45;&gt;nd287 -->
<g id="edge12" class="edge"><title>nd155:s&#45;&gt;nd287:w</title>
<path fill="none" stroke="#b70000" d="M73.1,-61.5C73.1,-57.5166 104.617,-56.5 108.6,-56.5"/>
</g>
<!-- nd287&#45;&gt;nd188 -->
<g id="edge9" class="edge"><title>nd287:e&#45;&gt;nd188:w</title>
<path fill="none" stroke="red" d="M114.6,-56.5C119.413,-56.5 122.364,-56.5 125.373,-56.5"/>
<polygon fill="red" stroke="red" points="125.6,-60.0001 135.6,-56.5 125.6,-53.0001 125.6,-60.0001"/>
</g>
</g>
</svg>
