<?xml version="1.0" encoding="UTF-8" standalone="no"?>
<!DOCTYPE svg PUBLIC "-//W3C//DTD SVG 1.1//EN"
 "http://www.w3.org/Graphics/SVG/1.1/DTD/svg11.dtd">
<!-- Generated by graphviz version 2.38.0 (20140413.2041)
 -->
<!-- Title: G Pages: 1 -->
<svg width="251pt" height="148pt"
 viewBox="0.00 0.00 251.24 148.20" xmlns="http://www.w3.org/2000/svg" xmlns:xlink="http://www.w3.org/1999/xlink">
<g id="graph0" class="graph" transform="scale(1 1) rotate(0) translate(4 144.201)">
<title>G</title>
<polygon fill="white" stroke="none" points="-4,4 -4,-144.201 247.241,-144.201 247.241,4 -4,4"/>
<!-- r -->
<g id="node1" class="node"><title>r</title>
<ellipse fill="none" stroke="red" cx="27" cy="-18" rx="27" ry="18"/>
<text text-anchor="middle" x="27" y="-14.3" font-family="Times,serif" font-size="14.00">r</text>
</g>
<!-- b -->
<g id="node2" class="node"><title>b</title>
<ellipse fill="none" stroke="blue" cx="27" cy="-122.201" rx="27" ry="18"/>
<text text-anchor="middle" x="27" y="-118.501" font-family="Times,serif" font-size="14.00">b</text>
</g>
<!-- r&#45;&#45;b -->
<g id="edge1" class="edge"><title>r&#45;&#45;b</title>
<path fill="none" stroke="black" d="M27,-36.1505C27,-55.1593 27,-84.8474 27,-103.909"/>
</g>
<!-- g -->
<g id="node3" class="node"><title>g</title>
<ellipse fill="none" stroke="green" cx="117.241" cy="-70.1006" rx="27" ry="18"/>
<text text-anchor="middle" x="117.241" y="-66.4006" font-family="Times,serif" font-size="14.00">g</text>
</g>
<!-- r&#45;&#45;g -->
<g id="edge2" class="edge"><title>r&#45;&#45;g</title>
<path fill="none" stroke="black" d="M47.477,-29.8224C62.1415,-38.289 81.8157,-49.6479 96.5325,-58.1446"/>
</g>
<!-- b&#45;&#45;g -->
<g id="edge3" class="edge"><title>b&#45;&#45;g</title>
<path fill="none" stroke="black" d="M47.477,-110.379C62.1415,-101.912 81.8157,-90.5533 96.5325,-82.0566"/>
</g>
<!-- y -->
<g id="node4" class="node"><title>y</title>
<ellipse fill="none" stroke="yellow" cx="216.241" cy="-70.1006" rx="27" ry="18"/>
<text text-anchor="middle" x="216.241" y="-66.4006" font-family="Times,serif" font-size="14.00">y</text>
</g>
<!-- g&#45;&#45;y -->
<g id="edge4" class="edge"><title>g&#45;&#45;y</title>
<path fill="none" stroke="black" d="M144.293,-70.1006C158.262,-70.1006 175.257,-70.1006 189.221,-70.1006"/>
</g>
</g>
</svg>
