<?xml version="1.0" encoding="UTF-8" standalone="no"?>
<!DOCTYPE svg PUBLIC "-//W3C//DTD SVG 1.1//EN"
 "http://www.w3.org/Graphics/SVG/1.1/DTD/svg11.dtd">
<!-- Generated by graphviz version 2.38.0 (20140413.2041)
 -->
<!-- Title: G Pages: 1 -->
<svg width="222pt" height="204pt"
 viewBox="0.00 0.00 222.43 204.43" xmlns="http://www.w3.org/2000/svg" xmlns:xlink="http://www.w3.org/1999/xlink">
<g id="graph0" class="graph" transform="scale(1 1) rotate(0) translate(4 200.428)">
<title>G</title>
<polygon fill="white" stroke="none" points="-4,4 -4,-200.428 218.428,-200.428 218.428,4 -4,4"/>
<!-- r -->
<g id="node1" class="node"><title>r</title>
<ellipse fill="none" stroke="red" cx="107.214" cy="-18" rx="27" ry="18"/>
<text text-anchor="middle" x="107.214" y="-14.3" font-family="Times,serif" font-size="14.00">r</text>
</g>
<!-- b -->
<g id="node2" class="node"><title>b</title>
<ellipse fill="none" stroke="blue" cx="27" cy="-98.2141" rx="27" ry="18"/>
<text text-anchor="middle" x="27" y="-94.5141" font-family="Times,serif" font-size="14.00">b</text>
</g>
<!-- r&#45;&#45;b -->
<g id="edge1" class="edge"><title>r&#45;&#45;b</title>
<path fill="none" stroke="black" d="M92.1264,-33.0877C77.7854,-47.4287 56.3386,-68.8755 42.02,-83.1941"/>
</g>
<!-- g -->
<g id="node3" class="node"><title>g</title>
<ellipse fill="none" stroke="green" cx="187.428" cy="-98.2141" rx="27" ry="18"/>
<text text-anchor="middle" x="187.428" y="-94.5141" font-family="Times,serif" font-size="14.00">g</text>
</g>
<!-- r&#45;&#45;g -->
<g id="edge2" class="edge"><title>r&#45;&#45;g</title>
<path fill="none" stroke="black" d="M122.302,-33.0877C136.643,-47.4287 158.09,-68.8755 172.408,-83.1941"/>
</g>
<!-- b&#45;&#45;g -->
<g id="edge3" class="edge"><title>b&#45;&#45;g</title>
<path fill="none" stroke="black" d="M54.2145,-98.2141C83.8046,-98.2141 130.811,-98.2141 160.348,-98.2141"/>
</g>
<!-- y -->
<g id="node4" class="node"><title>y</title>
<ellipse fill="none" stroke="yellow" cx="107.214" cy="-178.428" rx="27" ry="18"/>
<text text-anchor="middle" x="107.214" y="-174.728" font-family="Times,serif" font-size="14.00">y</text>
</g>
<!-- b&#45;&#45;y -->
<g id="edge5" class="edge"><title>b&#45;&#45;y</title>
<path fill="none" stroke="black" d="M42.0877,-113.302C56.4287,-127.643 77.8755,-149.09 92.1941,-163.408"/>
</g>
<!-- g&#45;&#45;y -->
<g id="edge4" class="edge"><title>g&#45;&#45;y</title>
<path fill="none" stroke="black" d="M172.341,-113.302C158,-127.643 136.553,-149.09 122.234,-163.408"/>
</g>
</g>
</svg>
