<?xml version="1.0" encoding="UTF-8" standalone="no"?>
<!DOCTYPE svg PUBLIC "-//W3C//DTD SVG 1.1//EN"
 "http://www.w3.org/Graphics/SVG/1.1/DTD/svg11.dtd">
<!-- Generated by graphviz version 2.38.0 (20140413.2041)
 -->
<!-- Title: G Pages: 1 -->
<svg width="183pt" height="92pt"
 viewBox="0.00 0.00 183.20 91.50" xmlns="http://www.w3.org/2000/svg" xmlns:xlink="http://www.w3.org/1999/xlink">
<g id="graph0" class="graph" transform="scale(1 1) rotate(0) translate(4 87.5)">
<title>G</title>
<polygon fill="white" stroke="none" points="-4,4 -4,-87.5 179.2,-87.5 179.2,4 -4,4"/>
<g id="clust1" class="cluster"><title>cluster_nd44</title>
<polygon fill="none" stroke="orange" points="103.6,-55.5 103.6,-75.5 123.2,-75.5 123.2,-55.5 103.6,-55.5"/>
</g>
<g id="clust2" class="cluster"><title>cluster_nd107</title>
<polygon fill="none" stroke="orange" points="103.6,-27.5 103.6,-47.5 123.2,-47.5 123.2,-27.5 103.6,-27.5"/>
</g>
<!-- nd1 -->
<g id="node1" class="node"><title>nd1</title>
<ellipse fill="black" stroke="black" cx="1.8" cy="-58.5" rx="1.8" ry="1.8"/>
</g>
<!-- nd17 -->
<g id="node3" class="node"><title>nd17</title>
<g id="a_node3"><a xlink:title="nd17&#45;AppGraph">
<path fill="none" stroke="#000000" d="M27.5473,-68.5543C27.5473,-68.5543 23.6719,-62.9457 23.6719,-62.9457 22.136,-60.7229 22.136,-56.2771 23.6719,-54.0543 23.6719,-54.0543 27.5473,-48.4457 27.5473,-48.4457 29.0833,-46.2229 33.3212,-44.0023 36.0231,-44.0045 36.0231,-44.0045 41.4269,-44.009 41.4269,-44.009 44.1288,-44.0113 46.8307,-46.7155 46.8307,-49.4174 46.8307,-49.4174 46.8307,-67.5826 46.8307,-67.5826 46.8307,-70.2845 44.1288,-72.9887 41.4269,-72.991 41.4269,-72.991 36.0231,-72.9955 36.0231,-72.9955 33.3212,-72.9977 29.0833,-70.7771 27.5473,-68.5543"/>
<text text-anchor="middle" x="35.1" y="-54.8" font-family="Times,serif" font-size="14.00">@</text>
</a>
</g>
</g>
<!-- nd1&#45;&gt;nd17 -->
<g id="edge2" class="edge"><title>nd1:e&#45;&gt;nd17:w</title>
<path fill="none" stroke="#b70000" d="M3.6,-58.5C11.1556,-58.5 13.0444,-58.5 20.6,-58.5"/>
</g>
<!-- ndcluster_nd44 -->
<g id="node2" class="node"><title>ndcluster_nd44</title>
<g id="a_node2"><a xlink:title="nd44">
<ellipse fill="orange" stroke="orange" cx="113.4" cy="-65.5" rx="1.8" ry="1.8"/>
</a>
</g>
</g>
<!-- nd17&#45;&gt;ndcluster_nd44 -->
<g id="edge1" class="edge"><title>nd17:e&#45;&gt;ndcluster_nd44:w</title>
<path fill="none" stroke="black" d="M48.1,-58.5C75.9631,-58.5 82.5369,-65.5 110.4,-65.5"/>
<text text-anchor="middle" x="76.6" y="-69.3" font-family="Times,serif" font-size="14.00">second</text>
</g>
<!-- ndcluster_nd107 -->
<g id="node6" class="node"><title>ndcluster_nd107</title>
<g id="a_node6"><a xlink:title="nd107">
<ellipse fill="orange" stroke="orange" cx="113.4" cy="-37.5" rx="1.8" ry="1.8"/>
</a>
</g>
</g>
<!-- nd17&#45;&gt;ndcluster_nd107 -->
<g id="edge5" class="edge"><title>nd17:s&#45;&gt;ndcluster_nd107:w</title>
<path fill="none" stroke="red" d="M35.1,-42.5C35.1,-12.2351 69.1017,-32.5178 100.385,-36.7679"/>
<polygon fill="red" stroke="red" points="100.171,-40.2615 110.4,-37.5 100.682,-33.2801 100.171,-40.2615"/>
</g>
<!-- nd29 -->
<g id="node4" class="node"><title>nd29</title>
<g id="a_node4"><a xlink:title="nd29&#45;ConstGraph">
<path fill="none" stroke="purple" d="M155.867,-71C155.867,-71 165.533,-71 165.533,-71 170.367,-71 175.2,-66.1667 175.2,-61.3333 175.2,-61.3333 175.2,-51.6667 175.2,-51.6667 175.2,-46.8333 170.367,-42 165.533,-42 165.533,-42 155.867,-42 155.867,-42 151.033,-42 146.2,-46.8333 146.2,-51.6667 146.2,-51.6667 146.2,-61.3333 146.2,-61.3333 146.2,-66.1667 151.033,-71 155.867,-71"/>
<text text-anchor="middle" x="160.7" y="-52.8" font-family="Times,serif" font-size="14.00">1</text>
</a>
</g>
</g>
<!-- nd36 -->
<g id="node5" class="node"><title>nd36</title>
<g id="a_node5"><a xlink:title="nd36&#45;ConstGraph">
<path fill="none" stroke="purple" d="M155.867,-29C155.867,-29 165.533,-29 165.533,-29 170.367,-29 175.2,-24.1667 175.2,-19.3333 175.2,-19.3333 175.2,-9.66667 175.2,-9.66667 175.2,-4.83333 170.367,-1.77636e-15 165.533,-1.77636e-15 165.533,-1.77636e-15 155.867,-1.77636e-15 155.867,-1.77636e-15 151.033,-1.77636e-15 146.2,-4.83333 146.2,-9.66667 146.2,-9.66667 146.2,-19.3333 146.2,-19.3333 146.2,-24.1667 151.033,-29 155.867,-29"/>
<text text-anchor="middle" x="160.7" y="-10.8" font-family="Times,serif" font-size="14.00">2</text>
</a>
</g>
</g>
<!-- ndcluster_nd107&#45;&gt;nd29 -->
<g id="edge3" class="edge"><title>ndcluster_nd107:s&#45;&gt;nd29:w</title>
<path fill="none" stroke="black" d="M113.4,-34.5C113.4,-16.9468 128.647,-56.5 146.2,-56.5"/>
<text text-anchor="middle" x="134.7" y="-58.3" font-family="Times,serif" font-size="14.00">x</text>
</g>
<!-- ndcluster_nd107&#45;&gt;nd36 -->
<g id="edge4" class="edge"><title>ndcluster_nd107:s&#45;&gt;nd36:w</title>
<path fill="none" stroke="black" d="M113.4,-34.5C113.4,-17.4259 129.126,-14.5 146.2,-14.5"/>
<text text-anchor="middle" x="134.7" y="-20.3" font-family="Times,serif" font-size="14.00">y</text>
</g>
</g>
</svg>
