<?xml version="1.0" encoding="UTF-8" standalone="no"?>
<!DOCTYPE svg PUBLIC "-//W3C//DTD SVG 1.1//EN"
 "http://www.w3.org/Graphics/SVG/1.1/DTD/svg11.dtd">
<!-- Generated by graphviz version 2.38.0 (20140413.2041)
 -->
<!-- Title: G Pages: 1 -->
<svg width="165pt" height="92pt"
 viewBox="0.00 0.00 164.90 91.50" xmlns="http://www.w3.org/2000/svg" xmlns:xlink="http://www.w3.org/1999/xlink">
<g id="graph0" class="graph" transform="scale(1 1) rotate(0) translate(4 87.5)">
<title>G</title>
<polygon fill="white" stroke="none" points="-4,4 -4,-87.5 160.9,-87.5 160.9,4 -4,4"/>
<g id="clust1" class="cluster"><title>cluster_nd52</title>
<polygon fill="none" stroke="orange" points="129.3,-55.5 129.3,-75.5 148.9,-75.5 148.9,-55.5 129.3,-55.5"/>
</g>
<!-- nd1 -->
<g id="node1" class="node"><title>nd1</title>
<ellipse fill="black" stroke="black" cx="1.8" cy="-38.5" rx="1.8" ry="1.8"/>
</g>
<!-- nd110 -->
<g id="node5" class="node"><title>nd110</title>
<g id="a_node5"><a xlink:title="nd110&#45;AppGraph">
<path fill="none" stroke="#000000" d="M27.5473,-48.5543C27.5473,-48.5543 23.6719,-42.9457 23.6719,-42.9457 22.136,-40.7229 22.136,-36.2771 23.6719,-34.0543 23.6719,-34.0543 27.5473,-28.4457 27.5473,-28.4457 29.0833,-26.2229 33.3212,-24.0023 36.0231,-24.0045 36.0231,-24.0045 41.4269,-24.009 41.4269,-24.009 44.1288,-24.0113 46.8307,-26.7155 46.8307,-29.4174 46.8307,-29.4174 46.8307,-47.5826 46.8307,-47.5826 46.8307,-50.2845 44.1288,-52.9887 41.4269,-52.991 41.4269,-52.991 36.0231,-52.9955 36.0231,-52.9955 33.3212,-52.9977 29.0833,-50.7771 27.5473,-48.5543"/>
<text text-anchor="middle" x="35.1" y="-34.8" font-family="Times,serif" font-size="14.00">@</text>
</a>
</g>
</g>
<!-- nd1&#45;&gt;nd110 -->
<g id="edge3" class="edge"><title>nd1:e&#45;&gt;nd110:w</title>
<path fill="none" stroke="#b70000" d="M3.6,-38.5C11.1556,-38.5 13.0444,-38.5 20.6,-38.5"/>
</g>
<!-- nd29 -->
<g id="node2" class="node"><title>nd29</title>
<g id="a_node2"><a xlink:title="nd29&#45;ConstGraph">
<path fill="none" stroke="purple" d="M134.267,-47C134.267,-47 143.933,-47 143.933,-47 148.767,-47 153.6,-42.1667 153.6,-37.3333 153.6,-37.3333 153.6,-27.6667 153.6,-27.6667 153.6,-22.8333 148.767,-18 143.933,-18 143.933,-18 134.267,-18 134.267,-18 129.433,-18 124.6,-22.8333 124.6,-27.6667 124.6,-27.6667 124.6,-37.3333 124.6,-37.3333 124.6,-42.1667 129.433,-47 134.267,-47"/>
<text text-anchor="middle" x="139.1" y="-28.8" font-family="Times,serif" font-size="14.00">1</text>
</a>
</g>
</g>
<!-- nd36 -->
<g id="node3" class="node"><title>nd36</title>
<g id="a_node3"><a xlink:title="nd36&#45;ConstGraph">
<path fill="none" stroke="purple" d="M82.2667,-29C82.2667,-29 91.9333,-29 91.9333,-29 96.7667,-29 101.6,-24.1667 101.6,-19.3333 101.6,-19.3333 101.6,-9.66667 101.6,-9.66667 101.6,-4.83333 96.7667,-1.77636e-15 91.9333,-1.77636e-15 91.9333,-1.77636e-15 82.2667,-1.77636e-15 82.2667,-1.77636e-15 77.4333,-1.77636e-15 72.6,-4.83333 72.6,-9.66667 72.6,-9.66667 72.6,-19.3333 72.6,-19.3333 72.6,-24.1667 77.4333,-29 82.2667,-29"/>
<text text-anchor="middle" x="87.1" y="-10.8" font-family="Times,serif" font-size="14.00">2</text>
</a>
</g>
</g>
<!-- ndcluster_nd52 -->
<g id="node4" class="node"><title>ndcluster_nd52</title>
<g id="a_node4"><a xlink:title="nd52">
<ellipse fill="orange" stroke="orange" cx="139.1" cy="-65.5" rx="1.8" ry="1.8"/>
</a>
</g>
</g>
<!-- nd110&#45;&gt;nd36 -->
<g id="edge4" class="edge"><title>nd110:s&#45;&gt;nd36:w</title>
<path fill="none" stroke="black" d="M35.1,-22.5C35.1,-5.45829 55.5583,-14.5 72.6,-14.5"/>
<text text-anchor="middle" x="61.1" y="-18.3" font-family="Times,serif" font-size="14.00">y</text>
</g>
<!-- nd111 -->
<g id="node6" class="node"><title>nd111</title>
<g id="a_node6"><a xlink:title="nd111&#45;AppGraph">
<path fill="none" stroke="#000000" d="M79.5473,-66.5543C79.5473,-66.5543 75.6719,-60.9457 75.6719,-60.9457 74.136,-58.7229 74.136,-54.2771 75.6719,-52.0543 75.6719,-52.0543 79.5473,-46.4457 79.5473,-46.4457 81.0833,-44.2229 85.3212,-42.0023 88.0231,-42.0045 88.0231,-42.0045 93.4269,-42.009 93.4269,-42.009 96.1288,-42.0113 98.8307,-44.7155 98.8307,-47.4174 98.8307,-47.4174 98.8307,-65.5826 98.8307,-65.5826 98.8307,-68.2845 96.1288,-70.9887 93.4269,-70.991 93.4269,-70.991 88.0231,-70.9955 88.0231,-70.9955 85.3212,-70.9977 81.0833,-68.7771 79.5473,-66.5543"/>
<text text-anchor="middle" x="87.1" y="-52.8" font-family="Times,serif" font-size="14.00">@</text>
</a>
</g>
</g>
<!-- nd110&#45;&gt;nd111 -->
<g id="edge2" class="edge"><title>nd110:e&#45;&gt;nd111:w</title>
<path fill="none" stroke="red" d="M48.1,-38.5C57.1782,-38.5 59.0178,-46.6255 63.3457,-51.9578"/>
<polygon fill="red" stroke="red" points="62.0808,-55.2358 72.6,-56.5 65.1651,-48.9519 62.0808,-55.2358"/>
</g>
<!-- nd111&#45;&gt;nd29 -->
<g id="edge5" class="edge"><title>nd111:s&#45;&gt;nd29:w</title>
<path fill="none" stroke="black" d="M87.1,-40.5C87.1,-38.3698 122.47,-32.5 124.6,-32.5"/>
<text text-anchor="middle" x="113.1" y="-39.3" font-family="Times,serif" font-size="14.00">x</text>
</g>
<!-- nd111&#45;&gt;ndcluster_nd52 -->
<g id="edge1" class="edge"><title>nd111:e&#45;&gt;ndcluster_nd52:w</title>
<path fill="none" stroke="black" d="M100.1,-56.5C116.592,-56.5 119.608,-65.5 136.1,-65.5"/>
<text text-anchor="middle" x="113.1" y="-63.3" font-family="Times,serif" font-size="14.00">z</text>
</g>
</g>
</svg>
