<?xml version="1.0" encoding="UTF-8" standalone="no"?>
<!DOCTYPE svg PUBLIC "-//W3C//DTD SVG 1.1//EN"
 "http://www.w3.org/Graphics/SVG/1.1/DTD/svg11.dtd">
<!-- Generated by graphviz version 2.38.0 (20140413.2041)
 -->
<!-- Title: G Pages: 1 -->
<svg width="257pt" height="92pt"
 viewBox="0.00 0.00 256.90 91.50" xmlns="http://www.w3.org/2000/svg" xmlns:xlink="http://www.w3.org/1999/xlink">
<g id="graph0" class="graph" transform="scale(1 1) rotate(0) translate(4 87.5)">
<title>G</title>
<polygon fill="white" stroke="none" points="-4,4 -4,-87.5 252.9,-87.5 252.9,4 -4,4"/>
<g id="clust1" class="cluster"><title>cluster_nd99</title>
<polygon fill="none" stroke="orange" points="221.3,-55.5 221.3,-75.5 240.9,-75.5 240.9,-55.5 221.3,-55.5"/>
</g>
<g id="clust2" class="cluster"><title>cluster_nd44</title>
<polygon fill="none" stroke="orange" points="108.3,-54.5 108.3,-74.5 127.9,-74.5 127.9,-54.5 108.3,-54.5"/>
</g>
<!-- nd1 -->
<g id="node1" class="node"><title>nd1</title>
<ellipse fill="black" stroke="black" cx="1.8" cy="-56.5" rx="1.8" ry="1.8"/>
</g>
<!-- nd17 -->
<g id="node4" class="node"><title>nd17</title>
<g id="a_node4"><a xlink:title="nd17&#45;AppGraph">
<path fill="none" stroke="#000000" d="M27.5473,-66.5543C27.5473,-66.5543 23.6719,-60.9457 23.6719,-60.9457 22.136,-58.7229 22.136,-54.2771 23.6719,-52.0543 23.6719,-52.0543 27.5473,-46.4457 27.5473,-46.4457 29.0833,-44.2229 33.3212,-42.0023 36.0231,-42.0045 36.0231,-42.0045 41.4269,-42.009 41.4269,-42.009 44.1288,-42.0113 46.8307,-44.7155 46.8307,-47.4174 46.8307,-47.4174 46.8307,-65.5826 46.8307,-65.5826 46.8307,-68.2845 44.1288,-70.9887 41.4269,-70.991 41.4269,-70.991 36.0231,-70.9955 36.0231,-70.9955 33.3212,-70.9977 29.0833,-68.7771 27.5473,-66.5543"/>
<text text-anchor="middle" x="35.1" y="-52.8" font-family="Times,serif" font-size="14.00">@</text>
</a>
</g>
</g>
<!-- nd1&#45;&gt;nd17 -->
<g id="edge7" class="edge"><title>nd1:e&#45;&gt;nd17:w</title>
<path fill="none" stroke="#b70000" d="M3.6,-56.5C11.1556,-56.5 13.0444,-56.5 20.6,-56.5"/>
</g>
<!-- ndcluster_nd99 -->
<g id="node2" class="node"><title>ndcluster_nd99</title>
<g id="a_node2"><a xlink:title="nd99">
<ellipse fill="orange" stroke="orange" cx="231.1" cy="-65.5" rx="1.8" ry="1.8"/>
</a>
</g>
</g>
<!-- ndcluster_nd44 -->
<g id="node3" class="node"><title>ndcluster_nd44</title>
<g id="a_node3"><a xlink:title="nd44">
<ellipse fill="orange" stroke="orange" cx="118.1" cy="-64.5" rx="1.8" ry="1.8"/>
</a>
</g>
</g>
<!-- nd17&#45;&gt;ndcluster_nd44 -->
<g id="edge5" class="edge"><title>nd17:e&#45;&gt;ndcluster_nd44:w</title>
<path fill="none" stroke="black" d="M48.1,-56.5C78.0893,-56.5 85.1107,-64.5 115.1,-64.5"/>
<text text-anchor="middle" x="76.6" y="-66.3" font-family="Times,serif" font-size="14.00">second</text>
</g>
<!-- nd21 -->
<g id="node5" class="node"><title>nd21</title>
<g id="a_node5"><a xlink:title="nd21&#45;AppGraph">
<path fill="none" stroke="#000000" d="M110.547,-41.5543C110.547,-41.5543 106.672,-35.9457 106.672,-35.9457 105.136,-33.7229 105.136,-29.2771 106.672,-27.0543 106.672,-27.0543 110.547,-21.4457 110.547,-21.4457 112.083,-19.2229 116.321,-17.0023 119.023,-17.0045 119.023,-17.0045 124.427,-17.009 124.427,-17.009 127.129,-17.0113 129.831,-19.7155 129.831,-22.4174 129.831,-22.4174 129.831,-40.5826 129.831,-40.5826 129.831,-43.2845 127.129,-45.9887 124.427,-45.991 124.427,-45.991 119.023,-45.9955 119.023,-45.9955 116.321,-45.9977 112.083,-43.7771 110.547,-41.5543"/>
<text text-anchor="middle" x="118.1" y="-27.8" font-family="Times,serif" font-size="14.00">@</text>
</a>
</g>
</g>
<!-- nd17&#45;&gt;nd21 -->
<g id="edge6" class="edge"><title>nd17:s&#45;&gt;nd21:w</title>
<path fill="none" stroke="#b70000" d="M35.1,-40.5C35.1,-9.79391 72.8939,-31.5 103.6,-31.5"/>
</g>
<!-- nd22 -->
<g id="node6" class="node"><title>nd22</title>
<g id="a_node6"><a xlink:title="nd22&#45;AppGraph">
<path fill="none" stroke="#000000" d="M156.547,-66.5543C156.547,-66.5543 152.672,-60.9457 152.672,-60.9457 151.136,-58.7229 151.136,-54.2771 152.672,-52.0543 152.672,-52.0543 156.547,-46.4457 156.547,-46.4457 158.083,-44.2229 162.321,-42.0023 165.023,-42.0045 165.023,-42.0045 170.427,-42.009 170.427,-42.009 173.129,-42.0113 175.831,-44.7155 175.831,-47.4174 175.831,-47.4174 175.831,-65.5826 175.831,-65.5826 175.831,-68.2845 173.129,-70.9887 170.427,-70.991 170.427,-70.991 165.023,-70.9955 165.023,-70.9955 162.321,-70.9977 158.083,-68.7771 156.547,-66.5543"/>
<text text-anchor="middle" x="164.1" y="-52.8" font-family="Times,serif" font-size="14.00">@</text>
</a>
</g>
</g>
<!-- nd21&#45;&gt;nd22 -->
<g id="edge3" class="edge"><title>nd21:e&#45;&gt;nd22:w</title>
<path fill="none" stroke="#b70000" d="M131.1,-31.5C144.923,-31.5 135.777,-56.5 149.6,-56.5"/>
</g>
<!-- nd36 -->
<g id="node8" class="node"><title>nd36</title>
<g id="a_node8"><a xlink:title="nd36&#45;ConstGraph">
<path fill="none" stroke="purple" d="M159.267,-29C159.267,-29 168.933,-29 168.933,-29 173.767,-29 178.6,-24.1667 178.6,-19.3333 178.6,-19.3333 178.6,-9.66667 178.6,-9.66667 178.6,-4.83333 173.767,-1.77636e-15 168.933,-1.77636e-15 168.933,-1.77636e-15 159.267,-1.77636e-15 159.267,-1.77636e-15 154.433,-1.77636e-15 149.6,-4.83333 149.6,-9.66667 149.6,-9.66667 149.6,-19.3333 149.6,-19.3333 149.6,-24.1667 154.433,-29 159.267,-29"/>
<text text-anchor="middle" x="164.1" y="-10.8" font-family="Times,serif" font-size="14.00">2</text>
</a>
</g>
</g>
<!-- nd21&#45;&gt;nd36 -->
<g id="edge4" class="edge"><title>nd21:s&#45;&gt;nd36:w</title>
<path fill="none" stroke="black" d="M118.1,-15.5C118.1,-1.49295 135.593,-14.5 149.6,-14.5"/>
</g>
<!-- nd22&#45;&gt;ndcluster_nd99 -->
<g id="edge1" class="edge"><title>nd22:e&#45;&gt;ndcluster_nd99:w</title>
<path fill="none" stroke="black" d="M177.1,-56.5C200.117,-56.5 205.083,-65.5 228.1,-65.5"/>
<text text-anchor="middle" x="197.6" y="-66.3" font-family="Times,serif" font-size="14.00">pair</text>
</g>
<!-- nd29 -->
<g id="node7" class="node"><title>nd29</title>
<g id="a_node7"><a xlink:title="nd29&#45;ConstGraph">
<path fill="none" stroke="purple" d="M226.267,-47C226.267,-47 235.933,-47 235.933,-47 240.767,-47 245.6,-42.1667 245.6,-37.3333 245.6,-37.3333 245.6,-27.6667 245.6,-27.6667 245.6,-22.8333 240.767,-18 235.933,-18 235.933,-18 226.267,-18 226.267,-18 221.433,-18 216.6,-22.8333 216.6,-27.6667 216.6,-27.6667 216.6,-37.3333 216.6,-37.3333 216.6,-42.1667 221.433,-47 226.267,-47"/>
<text text-anchor="middle" x="231.1" y="-28.8" font-family="Times,serif" font-size="14.00">1</text>
</a>
</g>
</g>
<!-- nd22&#45;&gt;nd29 -->
<g id="edge2" class="edge"><title>nd22:s&#45;&gt;nd29:w</title>
<path fill="none" stroke="red" d="M173.719,-37.6715C188.286,-35.1087 214.479,-32.5 216.6,-32.5"/>
<polygon fill="red" stroke="red" points="172.706,-34.3211 164.1,-40.5 174.681,-41.0368 172.706,-34.3211"/>
</g>
</g>
</svg>
