<?xml version="1.0" encoding="UTF-8" standalone="no"?>
<!DOCTYPE svg PUBLIC "-//W3C//DTD SVG 1.1//EN"
 "http://www.w3.org/Graphics/SVG/1.1/DTD/svg11.dtd">
<!-- Generated by graphviz version 2.38.0 (20140413.2041)
 -->
<!-- Title: G Pages: 1 -->
<svg width="254pt" height="127pt"
 viewBox="0.00 0.00 253.60 127.00" xmlns="http://www.w3.org/2000/svg" xmlns:xlink="http://www.w3.org/1999/xlink">
<g id="graph0" class="graph" transform="scale(1 1) rotate(0) translate(4 123)">
<title>G</title>
<polygon fill="white" stroke="none" points="-4,4 -4,-123 249.6,-123 249.6,4 -4,4"/>
<g id="clust1" class="cluster"><title>cluster_nd52</title>
<polygon fill="none" stroke="orange" points="71.3,-8 71.3,-28 90.9,-28 90.9,-8 71.3,-8"/>
</g>
<!-- nd1 -->
<g id="node1" class="node"><title>nd1</title>
<ellipse fill="black" stroke="black" cx="1.8" cy="-43" rx="1.8" ry="1.8"/>
</g>
<!-- nd47 -->
<g id="node4" class="node"><title>nd47</title>
<g id="a_node4"><a xlink:title="nd47&#45;AppGraph">
<path fill="none" stroke="#000000" d="M27.5473,-53.0543C27.5473,-53.0543 23.6719,-47.4457 23.6719,-47.4457 22.136,-45.2229 22.136,-40.7771 23.6719,-38.5543 23.6719,-38.5543 27.5473,-32.9457 27.5473,-32.9457 29.0833,-30.7229 33.3212,-28.5023 36.0231,-28.5045 36.0231,-28.5045 41.4269,-28.509 41.4269,-28.509 44.1288,-28.5113 46.8307,-31.2155 46.8307,-33.9174 46.8307,-33.9174 46.8307,-52.0826 46.8307,-52.0826 46.8307,-54.7845 44.1288,-57.4887 41.4269,-57.491 41.4269,-57.491 36.0231,-57.4955 36.0231,-57.4955 33.3212,-57.4977 29.0833,-55.2771 27.5473,-53.0543"/>
<text text-anchor="middle" x="35.1" y="-39.3" font-family="Times,serif" font-size="14.00">@</text>
</a>
</g>
</g>
<!-- nd1&#45;&gt;nd47 -->
<g id="edge3" class="edge"><title>nd1:e&#45;&gt;nd47:w</title>
<path fill="none" stroke="#b70000" d="M3.6,-43C11.1556,-43 13.0444,-43 20.6,-43"/>
</g>
<!-- nd29 -->
<g id="node2" class="node"><title>nd29</title>
<g id="a_node2"><a xlink:title="nd29&#45;ConstGraph">
<path fill="none" stroke="purple" d="M226.267,-65.5C226.267,-65.5 235.933,-65.5 235.933,-65.5 240.767,-65.5 245.6,-60.6667 245.6,-55.8333 245.6,-55.8333 245.6,-46.1667 245.6,-46.1667 245.6,-41.3333 240.767,-36.5 235.933,-36.5 235.933,-36.5 226.267,-36.5 226.267,-36.5 221.433,-36.5 216.6,-41.3333 216.6,-46.1667 216.6,-46.1667 216.6,-55.8333 216.6,-55.8333 216.6,-60.6667 221.433,-65.5 226.267,-65.5"/>
<text text-anchor="middle" x="231.1" y="-47.3" font-family="Times,serif" font-size="14.00">1</text>
</a>
</g>
</g>
<!-- nd36 -->
<g id="node3" class="node"><title>nd36</title>
<g id="a_node3"><a xlink:title="nd36&#45;ConstGraph">
<path fill="none" stroke="purple" d="M174.267,-31.5C174.267,-31.5 183.933,-31.5 183.933,-31.5 188.767,-31.5 193.6,-26.6667 193.6,-21.8333 193.6,-21.8333 193.6,-12.1667 193.6,-12.1667 193.6,-7.33333 188.767,-2.5 183.933,-2.5 183.933,-2.5 174.267,-2.5 174.267,-2.5 169.433,-2.5 164.6,-7.33333 164.6,-12.1667 164.6,-12.1667 164.6,-21.8333 164.6,-21.8333 164.6,-26.6667 169.433,-31.5 174.267,-31.5"/>
<text text-anchor="middle" x="179.1" y="-13.3" font-family="Times,serif" font-size="14.00">2</text>
</a>
</g>
</g>
<!-- ndcluster_nd52 -->
<g id="node5" class="node"><title>ndcluster_nd52</title>
<g id="a_node5"><a xlink:title="nd52">
<ellipse fill="orange" stroke="orange" cx="81.1" cy="-18" rx="1.8" ry="1.8"/>
</a>
</g>
</g>
<!-- nd47&#45;&gt;ndcluster_nd52 -->
<g id="edge2" class="edge"><title>nd47:s&#45;&gt;ndcluster_nd52:w</title>
<path fill="none" stroke="black" d="M35.1,-27C35.1,-7.47477 58.5748,-18 78.1,-18"/>
</g>
<!-- nd109 -->
<g id="node6" class="node"><title>nd109</title>
<g id="a_node6"><a xlink:title="nd109&#45;AbsGraph">
<ellipse fill="none" stroke="#000000" cx="81.1" cy="-51" rx="14.5" ry="14.5"/>
<text text-anchor="middle" x="81.1" y="-47.3" font-family="Times,serif" font-size="14.00">fun</text>
</a>
</g>
</g>
<!-- nd47&#45;&gt;nd109 -->
<g id="edge1" class="edge"><title>nd47:e&#45;&gt;nd109:w</title>
<path fill="none" stroke="#b70000" d="M48.1,-43C57.0581,-43 57.6419,-51 66.6,-51"/>
</g>
<!-- nd110 -->
<g id="node7" class="node"><title>nd110</title>
<g id="a_node7"><a xlink:title="nd110&#45;AppGraph">
<path fill="none" stroke="#000000" d="M119.547,-42.0543C119.547,-42.0543 115.672,-36.4457 115.672,-36.4457 114.136,-34.2229 114.136,-29.7771 115.672,-27.5543 115.672,-27.5543 119.547,-21.9457 119.547,-21.9457 121.083,-19.7229 125.321,-17.5023 128.023,-17.5045 128.023,-17.5045 133.427,-17.509 133.427,-17.509 136.129,-17.5113 138.831,-20.2155 138.831,-22.9174 138.831,-22.9174 138.831,-41.0826 138.831,-41.0826 138.831,-43.7845 136.129,-46.4887 133.427,-46.491 133.427,-46.491 128.023,-46.4955 128.023,-46.4955 125.321,-46.4977 121.083,-44.2771 119.547,-42.0543"/>
<text text-anchor="middle" x="127.1" y="-28.3" font-family="Times,serif" font-size="14.00">@</text>
</a>
</g>
</g>
<!-- nd109&#45;&gt;nd110 -->
<g id="edge6" class="edge"><title>nd109:e&#45;&gt;nd110:w</title>
<path fill="none" stroke="red" d="M95.6,-51C102.328,-51 103.065,-44.3018 104.925,-38.8594"/>
<polygon fill="red" stroke="red" points="107.476,-41.2736 112.6,-32 102.812,-36.0543 107.476,-41.2736"/>
</g>
<!-- nd111 -->
<g id="node8" class="node"><title>nd111</title>
<g id="a_node8"><a xlink:title="nd111&#45;AppGraph">
<path fill="none" stroke="#000000" d="M171.547,-76.0543C171.547,-76.0543 167.672,-70.4457 167.672,-70.4457 166.136,-68.2229 166.136,-63.7771 167.672,-61.5543 167.672,-61.5543 171.547,-55.9457 171.547,-55.9457 173.083,-53.7229 177.321,-51.5023 180.023,-51.5045 180.023,-51.5045 185.427,-51.509 185.427,-51.509 188.129,-51.5113 190.831,-54.2155 190.831,-56.9174 190.831,-56.9174 190.831,-75.0826 190.831,-75.0826 190.831,-77.7845 188.129,-80.4887 185.427,-80.491 185.427,-80.491 180.023,-80.4955 180.023,-80.4955 177.321,-80.4977 173.083,-78.2771 171.547,-76.0543"/>
<text text-anchor="middle" x="179.1" y="-62.3" font-family="Times,serif" font-size="14.00">@</text>
</a>
</g>
</g>
<!-- nd109&#45;&gt;nd111 -->
<g id="edge4" class="edge"><title>nd109:n&#45;&gt;nd111:e</title>
<path fill="none" stroke="grey" d="M81.1,-67C81.1,-116.256 155.093,-114.11 191.1,-80.5 195.822,-76.0922 198.56,-66 192.1,-66"/>
<text text-anchor="middle" x="127.1" y="-107.8" font-family="Times,serif" font-size="14.00">z</text>
</g>
<!-- nd110&#45;&gt;nd36 -->
<g id="edge7" class="edge"><title>nd110:s&#45;&gt;nd36:w</title>
<path fill="none" stroke="black" d="M127.1,-16C127.1,0.672592 147.927,-17 164.6,-17"/>
<text text-anchor="middle" x="153.1" y="-19.8" font-family="Times,serif" font-size="14.00">y</text>
</g>
<!-- nd110&#45;&gt;nd111 -->
<g id="edge5" class="edge"><title>nd110:e&#45;&gt;nd111:w</title>
<path fill="none" stroke="black" d="M140.1,-32C158.726,-32 145.974,-66 164.6,-66"/>
</g>
<!-- nd111&#45;&gt;nd29 -->
<g id="edge8" class="edge"><title>nd111:s&#45;&gt;nd29:w</title>
<path fill="none" stroke="black" d="M179.1,-50C179.1,-33.3274 199.927,-51 216.6,-51"/>
<text text-anchor="middle" x="205.1" y="-53.8" font-family="Times,serif" font-size="14.00">x</text>
</g>
</g>
</svg>
