<?xml version="1.0" encoding="UTF-8" standalone="no"?>
<!DOCTYPE svg PUBLIC "-//W3C//DTD SVG 1.1//EN"
 "http://www.w3.org/Graphics/SVG/1.1/DTD/svg11.dtd">
<!-- Generated by graphviz version 2.38.0 (20140413.2041)
 -->
<!-- Title: G Pages: 1 -->
<svg width="281pt" height="103pt"
 viewBox="0.00 0.00 281.20 102.50" xmlns="http://www.w3.org/2000/svg" xmlns:xlink="http://www.w3.org/1999/xlink">
<g id="graph0" class="graph" transform="scale(1 1) rotate(0) translate(4 98.5)">
<title>G</title>
<polygon fill="white" stroke="none" points="-4,4 -4,-98.5 277.2,-98.5 277.2,4 -4,4"/>
<g id="clust1" class="cluster"><title>cluster_nd44</title>
<polygon fill="none" stroke="orange" points="108.3,-66.5 108.3,-86.5 127.9,-86.5 127.9,-66.5 108.3,-66.5"/>
</g>
<g id="clust2" class="cluster"><title>cluster_nd107</title>
<polygon fill="none" stroke="orange" points="201.6,-63.5 201.6,-83.5 221.2,-83.5 221.2,-63.5 201.6,-63.5"/>
</g>
<!-- nd1 -->
<g id="node1" class="node"><title>nd1</title>
<ellipse fill="black" stroke="black" cx="1.8" cy="-68.5" rx="1.8" ry="1.8"/>
</g>
<!-- nd17 -->
<g id="node3" class="node"><title>nd17</title>
<g id="a_node3"><a xlink:title="nd17&#45;AppGraph">
<path fill="none" stroke="#000000" d="M27.5473,-78.5543C27.5473,-78.5543 23.6719,-72.9457 23.6719,-72.9457 22.136,-70.7229 22.136,-66.2771 23.6719,-64.0543 23.6719,-64.0543 27.5473,-58.4457 27.5473,-58.4457 29.0833,-56.2229 33.3212,-54.0023 36.0231,-54.0045 36.0231,-54.0045 41.4269,-54.009 41.4269,-54.009 44.1288,-54.0113 46.8307,-56.7155 46.8307,-59.4174 46.8307,-59.4174 46.8307,-77.5826 46.8307,-77.5826 46.8307,-80.2845 44.1288,-82.9887 41.4269,-82.991 41.4269,-82.991 36.0231,-82.9955 36.0231,-82.9955 33.3212,-82.9977 29.0833,-80.7771 27.5473,-78.5543"/>
<text text-anchor="middle" x="35.1" y="-64.8" font-family="Times,serif" font-size="14.00">@</text>
</a>
</g>
</g>
<!-- nd1&#45;&gt;nd17 -->
<g id="edge5" class="edge"><title>nd1:e&#45;&gt;nd17:w</title>
<path fill="none" stroke="#b70000" d="M3.6,-68.5C11.1556,-68.5 13.0444,-68.5 20.6,-68.5"/>
</g>
<!-- ndcluster_nd44 -->
<g id="node2" class="node"><title>ndcluster_nd44</title>
<g id="a_node2"><a xlink:title="nd44">
<ellipse fill="orange" stroke="orange" cx="118.1" cy="-76.5" rx="1.8" ry="1.8"/>
</a>
</g>
</g>
<!-- nd17&#45;&gt;ndcluster_nd44 -->
<g id="edge3" class="edge"><title>nd17:e&#45;&gt;ndcluster_nd44:w</title>
<path fill="none" stroke="black" d="M48.1,-68.5C78.0893,-68.5 85.1107,-76.5 115.1,-76.5"/>
<text text-anchor="middle" x="76.6" y="-79.3" font-family="Times,serif" font-size="14.00">second</text>
</g>
<!-- nd21 -->
<g id="node4" class="node"><title>nd21</title>
<g id="a_node4"><a xlink:title="nd21&#45;AppGraph">
<path fill="none" stroke="#000000" d="M110.547,-53.5543C110.547,-53.5543 106.672,-47.9457 106.672,-47.9457 105.136,-45.7229 105.136,-41.2771 106.672,-39.0543 106.672,-39.0543 110.547,-33.4457 110.547,-33.4457 112.083,-31.2229 116.321,-29.0023 119.023,-29.0045 119.023,-29.0045 124.427,-29.009 124.427,-29.009 127.129,-29.0113 129.831,-31.7155 129.831,-34.4174 129.831,-34.4174 129.831,-52.5826 129.831,-52.5826 129.831,-55.2845 127.129,-57.9887 124.427,-57.991 124.427,-57.991 119.023,-57.9955 119.023,-57.9955 116.321,-57.9977 112.083,-55.7771 110.547,-53.5543"/>
<text text-anchor="middle" x="118.1" y="-39.8" font-family="Times,serif" font-size="14.00">@</text>
</a>
</g>
</g>
<!-- nd17&#45;&gt;nd21 -->
<g id="edge4" class="edge"><title>nd17:s&#45;&gt;nd21:w</title>
<path fill="none" stroke="#b70000" d="M35.1,-52.5C35.1,-21.7939 72.8939,-43.5 103.6,-43.5"/>
</g>
<!-- nd36 -->
<g id="node6" class="node"><title>nd36</title>
<g id="a_node6"><a xlink:title="nd36&#45;ConstGraph">
<path fill="none" stroke="purple" d="M159.267,-29C159.267,-29 168.933,-29 168.933,-29 173.767,-29 178.6,-24.1667 178.6,-19.3333 178.6,-19.3333 178.6,-9.66667 178.6,-9.66667 178.6,-4.83333 173.767,-1.77636e-15 168.933,-1.77636e-15 168.933,-1.77636e-15 159.267,-1.77636e-15 159.267,-1.77636e-15 154.433,-1.77636e-15 149.6,-4.83333 149.6,-9.66667 149.6,-9.66667 149.6,-19.3333 149.6,-19.3333 149.6,-24.1667 154.433,-29 159.267,-29"/>
<text text-anchor="middle" x="164.1" y="-10.8" font-family="Times,serif" font-size="14.00">2</text>
</a>
</g>
</g>
<!-- nd21&#45;&gt;nd36 -->
<g id="edge2" class="edge"><title>nd21:s&#45;&gt;nd36:w</title>
<path fill="none" stroke="black" d="M118.1,-27.5C118.1,-12.3546 134.455,-14.5 149.6,-14.5"/>
</g>
<!-- nd105 -->
<g id="node7" class="node"><title>nd105</title>
<g id="a_node7"><a xlink:title="nd105&#45;AbsGraph">
<ellipse fill="none" stroke="#000000" cx="164.1" cy="-56.5" rx="14.5" ry="14.5"/>
<text text-anchor="middle" x="164.1" y="-52.8" font-family="Times,serif" font-size="14.00">fun</text>
</a>
</g>
</g>
<!-- nd21&#45;&gt;nd105 -->
<g id="edge1" class="edge"><title>nd21:e&#45;&gt;nd105:w</title>
<path fill="none" stroke="red" d="M131.1,-43.5C136.596,-43.5 138.608,-47.3879 140.947,-50.9114"/>
<polygon fill="red" stroke="red" points="139.301,-54.0149 149.6,-56.5 143.098,-48.1346 139.301,-54.0149"/>
</g>
<!-- nd29 -->
<g id="node5" class="node"><title>nd29</title>
<g id="a_node5"><a xlink:title="nd29&#45;ConstGraph">
<path fill="none" stroke="purple" d="M253.867,-86C253.867,-86 263.533,-86 263.533,-86 268.367,-86 273.2,-81.1667 273.2,-76.3333 273.2,-76.3333 273.2,-66.6667 273.2,-66.6667 273.2,-61.8333 268.367,-57 263.533,-57 263.533,-57 253.867,-57 253.867,-57 249.033,-57 244.2,-61.8333 244.2,-66.6667 244.2,-66.6667 244.2,-76.3333 244.2,-76.3333 244.2,-81.1667 249.033,-86 253.867,-86"/>
<text text-anchor="middle" x="258.7" y="-67.8" font-family="Times,serif" font-size="14.00">1</text>
</a>
</g>
</g>
<!-- ndcluster_nd107 -->
<g id="node8" class="node"><title>ndcluster_nd107</title>
<g id="a_node8"><a xlink:title="nd107">
<ellipse fill="orange" stroke="orange" cx="211.4" cy="-73.5" rx="1.8" ry="1.8"/>
</a>
</g>
</g>
<!-- nd105&#45;&gt;ndcluster_nd107 -->
<g id="edge7" class="edge"><title>nd105:n&#45;&gt;ndcluster_nd107:s</title>
<path fill="none" stroke="grey" d="M164.1,-72.5C164.1,-78.9598 172.287,-72.8707 178.6,-71.5 182.311,-70.6943 182.864,-69.1775 186.6,-68.5 193.411,-67.2649 211.4,-70.3537 211.4,-70.5"/>
<text text-anchor="middle" x="190.1" y="-72.3" font-family="Times,serif" font-size="14.00">y</text>
</g>
<!-- nd105&#45;&gt;ndcluster_nd107 -->
<g id="edge8" class="edge"><title>nd105:e&#45;&gt;ndcluster_nd107:w</title>
<path fill="none" stroke="black" d="M178.6,-56.5C190.69,-56.5 176.875,-75.3172 186.6,-82.5 194.05,-88.0027 207.082,-73.5 208.4,-73.5"/>
</g>
<!-- ndcluster_nd107&#45;&gt;nd29 -->
<g id="edge6" class="edge"><title>ndcluster_nd107:s&#45;&gt;nd29:w</title>
<path fill="none" stroke="black" d="M211.4,-70.5C211.4,-55.9154 229.615,-71.5 244.2,-71.5"/>
<text text-anchor="middle" x="232.7" y="-74.3" font-family="Times,serif" font-size="14.00">x</text>
</g>
</g>
</svg>
