<?xml version="1.0" encoding="UTF-8" standalone="no"?>
<!DOCTYPE svg PUBLIC "-//W3C//DTD SVG 1.1//EN"
 "http://www.w3.org/Graphics/SVG/1.1/DTD/svg11.dtd">
<!-- Generated by graphviz version 2.38.0 (20140413.2041)
 -->
<!-- Title: G Pages: 1 -->
<svg width="200pt" height="154pt"
 viewBox="0.00 0.00 200.20 153.50" xmlns="http://www.w3.org/2000/svg" xmlns:xlink="http://www.w3.org/1999/xlink">
<g id="graph0" class="graph" transform="scale(1 1) rotate(0) translate(4 149.5)">
<title>G</title>
<polygon fill="white" stroke="none" points="-4,4 -4,-149.5 196.2,-149.5 196.2,4 -4,4"/>
<g id="clust1" class="cluster"><title>cluster_nd107</title>
<polygon fill="none" stroke="orange" points="71.3,-44.5 71.3,-64.5 90.9,-64.5 90.9,-44.5 71.3,-44.5"/>
</g>
<g id="clust2" class="cluster"><title>cluster_nd52</title>
<polygon fill="none" stroke="orange" points="164.6,-79.5 164.6,-99.5 184.2,-99.5 184.2,-79.5 164.6,-79.5"/>
</g>
<!-- nd1 -->
<g id="node1" class="node"><title>nd1</title>
<ellipse fill="black" stroke="black" cx="1.8" cy="-79.5" rx="1.8" ry="1.8"/>
</g>
<!-- nd17 -->
<g id="node2" class="node"><title>nd17</title>
<g id="a_node2"><a xlink:title="nd17&#45;AppGraph">
<path fill="none" stroke="#000000" d="M27.5473,-89.5543C27.5473,-89.5543 23.6719,-83.9457 23.6719,-83.9457 22.136,-81.7229 22.136,-77.2771 23.6719,-75.0543 23.6719,-75.0543 27.5473,-69.4457 27.5473,-69.4457 29.0833,-67.2229 33.3212,-65.0023 36.0231,-65.0045 36.0231,-65.0045 41.4269,-65.009 41.4269,-65.009 44.1288,-65.0113 46.8307,-67.7155 46.8307,-70.4174 46.8307,-70.4174 46.8307,-88.5826 46.8307,-88.5826 46.8307,-91.2845 44.1288,-93.9887 41.4269,-93.991 41.4269,-93.991 36.0231,-93.9955 36.0231,-93.9955 33.3212,-93.9977 29.0833,-91.7771 27.5473,-89.5543"/>
<text text-anchor="middle" x="35.1" y="-75.8" font-family="Times,serif" font-size="14.00">@</text>
</a>
</g>
</g>
<!-- nd1&#45;&gt;nd17 -->
<g id="edge2" class="edge"><title>nd1:e&#45;&gt;nd17:w</title>
<path fill="none" stroke="#b70000" d="M3.6,-79.5C11.1556,-79.5 13.0444,-79.5 20.6,-79.5"/>
</g>
<!-- ndcluster_nd107 -->
<g id="node5" class="node"><title>ndcluster_nd107</title>
<g id="a_node5"><a xlink:title="nd107">
<ellipse fill="orange" stroke="orange" cx="81.1" cy="-54.5" rx="1.8" ry="1.8"/>
</a>
</g>
</g>
<!-- nd17&#45;&gt;ndcluster_nd107 -->
<g id="edge8" class="edge"><title>nd17:s&#45;&gt;ndcluster_nd107:w</title>
<path fill="none" stroke="black" d="M35.1,-63.5C35.1,-43.9748 58.5748,-54.5 78.1,-54.5"/>
</g>
<!-- nd46 -->
<g id="node6" class="node"><title>nd46</title>
<g id="a_node6"><a xlink:title="nd46&#45;AbsGraph">
<ellipse fill="none" stroke="#000000" cx="81.1" cy="-87.5" rx="14.5" ry="14.5"/>
<text text-anchor="middle" x="81.1" y="-83.8" font-family="Times,serif" font-size="14.00">fun</text>
</a>
</g>
</g>
<!-- nd17&#45;&gt;nd46 -->
<g id="edge1" class="edge"><title>nd17:e&#45;&gt;nd46:w</title>
<path fill="none" stroke="red" d="M48.1,-79.5C52.579,-79.5 54.9645,-81.5 57.35,-83.5"/>
<polygon fill="red" stroke="red" points="56.0322,-86.7433 66.6,-87.5 58.8106,-80.3183 56.0322,-86.7433"/>
</g>
<!-- nd29 -->
<g id="node3" class="node"><title>nd29</title>
<g id="a_node3"><a xlink:title="nd29&#45;ConstGraph">
<path fill="none" stroke="purple" d="M128.267,-71C128.267,-71 137.933,-71 137.933,-71 142.767,-71 147.6,-66.1667 147.6,-61.3333 147.6,-61.3333 147.6,-51.6667 147.6,-51.6667 147.6,-46.8333 142.767,-42 137.933,-42 137.933,-42 128.267,-42 128.267,-42 123.433,-42 118.6,-46.8333 118.6,-51.6667 118.6,-51.6667 118.6,-61.3333 118.6,-61.3333 118.6,-66.1667 123.433,-71 128.267,-71"/>
<text text-anchor="middle" x="133.1" y="-52.8" font-family="Times,serif" font-size="14.00">1</text>
</a>
</g>
</g>
<!-- nd36 -->
<g id="node4" class="node"><title>nd36</title>
<g id="a_node4"><a xlink:title="nd36&#45;ConstGraph">
<path fill="none" stroke="purple" d="M128.267,-29C128.267,-29 137.933,-29 137.933,-29 142.767,-29 147.6,-24.1667 147.6,-19.3333 147.6,-19.3333 147.6,-9.66667 147.6,-9.66667 147.6,-4.83333 142.767,-1.77636e-15 137.933,-1.77636e-15 137.933,-1.77636e-15 128.267,-1.77636e-15 128.267,-1.77636e-15 123.433,-1.77636e-15 118.6,-4.83333 118.6,-9.66667 118.6,-9.66667 118.6,-19.3333 118.6,-19.3333 118.6,-24.1667 123.433,-29 128.267,-29"/>
<text text-anchor="middle" x="133.1" y="-10.8" font-family="Times,serif" font-size="14.00">2</text>
</a>
</g>
</g>
<!-- ndcluster_nd107&#45;&gt;nd29 -->
<g id="edge6" class="edge"><title>ndcluster_nd107:s&#45;&gt;nd29:w</title>
<path fill="none" stroke="black" d="M81.1,-51.5C81.1,-34.6858 101.786,-56.5 118.6,-56.5"/>
<text text-anchor="middle" x="107.1" y="-59.3" font-family="Times,serif" font-size="14.00">x</text>
</g>
<!-- ndcluster_nd107&#45;&gt;nd36 -->
<g id="edge7" class="edge"><title>ndcluster_nd107:s&#45;&gt;nd36:w</title>
<path fill="none" stroke="black" d="M81.1,-51.5C81.1,-28.0864 95.1864,-14.5 118.6,-14.5"/>
<text text-anchor="middle" x="107.1" y="-21.3" font-family="Times,serif" font-size="14.00">y</text>
</g>
<!-- nd47 -->
<g id="node7" class="node"><title>nd47</title>
<g id="a_node7"><a xlink:title="nd47&#45;AppGraph">
<path fill="none" stroke="#000000" d="M125.547,-114.554C125.547,-114.554 121.672,-108.946 121.672,-108.946 120.136,-106.723 120.136,-102.277 121.672,-100.054 121.672,-100.054 125.547,-94.4457 125.547,-94.4457 127.083,-92.2229 131.321,-90.0023 134.023,-90.0045 134.023,-90.0045 139.427,-90.009 139.427,-90.009 142.129,-90.0113 144.831,-92.7155 144.831,-95.4174 144.831,-95.4174 144.831,-113.583 144.831,-113.583 144.831,-116.285 142.129,-118.989 139.427,-118.991 139.427,-118.991 134.023,-118.995 134.023,-118.995 131.321,-118.998 127.083,-116.777 125.547,-114.554"/>
<text text-anchor="middle" x="133.1" y="-100.8" font-family="Times,serif" font-size="14.00">@</text>
</a>
</g>
</g>
<!-- nd46&#45;&gt;nd47 -->
<g id="edge3" class="edge"><title>nd46:n&#45;&gt;nd47:e</title>
<path fill="none" stroke="grey" d="M81.1,-103.5C81.1,-132.767 123.705,-138.97 145.1,-119 149.822,-114.592 152.56,-104.5 146.1,-104.5"/>
<text text-anchor="middle" x="107.1" y="-134.3" font-family="Times,serif" font-size="14.00">p</text>
</g>
<!-- nd46&#45;&gt;nd47 -->
<g id="edge5" class="edge"><title>nd46:e&#45;&gt;nd47:w</title>
<path fill="none" stroke="black" d="M95.6,-87.5C108.311,-87.5 105.889,-104.5 118.6,-104.5"/>
</g>
<!-- ndcluster_nd52 -->
<g id="node8" class="node"><title>ndcluster_nd52</title>
<g id="a_node8"><a xlink:title="nd52">
<ellipse fill="orange" stroke="orange" cx="174.4" cy="-89.5" rx="1.8" ry="1.8"/>
</a>
</g>
</g>
<!-- nd47&#45;&gt;ndcluster_nd52 -->
<g id="edge4" class="edge"><title>nd47:s&#45;&gt;ndcluster_nd52:w</title>
<path fill="none" stroke="black" d="M133.1,-88.5C133.1,-71.472 154.372,-89.5 171.4,-89.5"/>
</g>
</g>
</svg>
