<?xml version="1.0" encoding="UTF-8" standalone="no"?>
<!DOCTYPE svg PUBLIC "-//W3C//DTD SVG 1.1//EN"
 "http://www.w3.org/Graphics/SVG/1.1/DTD/svg11.dtd">
<!-- Generated by graphviz version 2.38.0 (20140413.2041)
 -->
<!-- Title: G Pages: 1 -->
<svg width="194pt" height="91pt"
 viewBox="0.00 0.00 194.20 91.00" xmlns="http://www.w3.org/2000/svg" xmlns:xlink="http://www.w3.org/1999/xlink">
<g id="graph0" class="graph" transform="scale(1 1) rotate(0) translate(4 87)">
<title>G</title>
<polygon fill="white" stroke="none" points="-4,4 -4,-87 190.2,-87 190.2,4 -4,4"/>
<g id="clust1" class="cluster"><title>cluster_nd99</title>
<polygon fill="none" stroke="orange" points="71.3,-10 71.3,-30 90.9,-30 90.9,-10 71.3,-10"/>
</g>
<g id="clust2" class="cluster"><title>cluster_nd9</title>
<polygon fill="none" stroke="orange" points="158.6,-45 158.6,-65 178.2,-65 178.2,-45 158.6,-45"/>
</g>
<g id="clust3" class="cluster"><title>cluster_nd72</title>
<polygon fill="none" stroke="orange" points="158.6,-8 158.6,-28 178.2,-28 178.2,-8 158.6,-8"/>
</g>
<!-- nd1 -->
<g id="node1" class="node"><title>nd1</title>
<ellipse fill="black" stroke="black" cx="1.8" cy="-45" rx="1.8" ry="1.8"/>
</g>
<!-- nd2 -->
<g id="node2" class="node"><title>nd2</title>
<g id="a_node2"><a xlink:title="nd2&#45;AppGraph">
<path fill="none" stroke="#000000" d="M27.5473,-55.0543C27.5473,-55.0543 23.6719,-49.4457 23.6719,-49.4457 22.136,-47.2229 22.136,-42.7771 23.6719,-40.5543 23.6719,-40.5543 27.5473,-34.9457 27.5473,-34.9457 29.0833,-32.7229 33.3212,-30.5023 36.0231,-30.5045 36.0231,-30.5045 41.4269,-30.509 41.4269,-30.509 44.1288,-30.5113 46.8307,-33.2155 46.8307,-35.9174 46.8307,-35.9174 46.8307,-54.0826 46.8307,-54.0826 46.8307,-56.7845 44.1288,-59.4887 41.4269,-59.491 41.4269,-59.491 36.0231,-59.4955 36.0231,-59.4955 33.3212,-59.4977 29.0833,-57.2771 27.5473,-55.0543"/>
<text text-anchor="middle" x="35.1" y="-41.3" font-family="Times,serif" font-size="14.00">@</text>
</a>
</g>
</g>
<!-- nd1&#45;&gt;nd2 -->
<g id="edge7" class="edge"><title>nd1:e&#45;&gt;nd2:w</title>
<path fill="none" stroke="#b70000" d="M3.6,-45C11.1556,-45 13.0444,-45 20.6,-45"/>
</g>
<!-- ndcluster_nd99 -->
<g id="node3" class="node"><title>ndcluster_nd99</title>
<g id="a_node3"><a xlink:title="nd99">
<ellipse fill="orange" stroke="orange" cx="81.1" cy="-20" rx="1.8" ry="1.8"/>
</a>
</g>
</g>
<!-- nd2&#45;&gt;ndcluster_nd99 -->
<g id="edge6" class="edge"><title>nd2:s&#45;&gt;ndcluster_nd99:w</title>
<path fill="none" stroke="black" d="M35.1,-29C35.1,-9.47477 58.5748,-20 78.1,-20"/>
</g>
<!-- nd6 -->
<g id="node4" class="node"><title>nd6</title>
<g id="a_node4"><a xlink:title="nd6&#45;AbsGraph">
<ellipse fill="none" stroke="#000000" cx="81.1" cy="-53" rx="14.5" ry="14.5"/>
<text text-anchor="middle" x="81.1" y="-49.3" font-family="Times,serif" font-size="14.00">fun</text>
</a>
</g>
</g>
<!-- nd2&#45;&gt;nd6 -->
<g id="edge5" class="edge"><title>nd2:e&#45;&gt;nd6:w</title>
<path fill="none" stroke="red" d="M48.1,-45C52.579,-45 54.9645,-47 57.35,-49"/>
<polygon fill="red" stroke="red" points="56.0322,-52.2433 66.6,-53 58.8106,-45.8183 56.0322,-52.2433"/>
</g>
<!-- nd7 -->
<g id="node5" class="node"><title>nd7</title>
<g id="a_node5"><a xlink:title="nd7&#45;AppGraph">
<path fill="none" stroke="#000000" d="M119.547,-43.0543C119.547,-43.0543 115.672,-37.4457 115.672,-37.4457 114.136,-35.2229 114.136,-30.7771 115.672,-28.5543 115.672,-28.5543 119.547,-22.9457 119.547,-22.9457 121.083,-20.7229 125.321,-18.5023 128.023,-18.5045 128.023,-18.5045 133.427,-18.509 133.427,-18.509 136.129,-18.5113 138.831,-21.2155 138.831,-23.9174 138.831,-23.9174 138.831,-42.0826 138.831,-42.0826 138.831,-44.7845 136.129,-47.4887 133.427,-47.491 133.427,-47.491 128.023,-47.4955 128.023,-47.4955 125.321,-47.4977 121.083,-45.2771 119.547,-43.0543"/>
<text text-anchor="middle" x="127.1" y="-29.3" font-family="Times,serif" font-size="14.00">@</text>
</a>
</g>
</g>
<!-- nd6&#45;&gt;nd7 -->
<g id="edge4" class="edge"><title>nd6:e&#45;&gt;nd7:w</title>
<path fill="none" stroke="black" d="M95.6,-53C107.266,-53 100.934,-33 112.6,-33"/>
</g>
<!-- ndcluster_nd9 -->
<g id="node6" class="node"><title>ndcluster_nd9</title>
<g id="a_node6"><a xlink:title="nd9">
<ellipse fill="orange" stroke="orange" cx="168.4" cy="-55" rx="1.8" ry="1.8"/>
</a>
</g>
</g>
<!-- nd6&#45;&gt;ndcluster_nd9 -->
<g id="edge1" class="edge"><title>nd6:n&#45;&gt;ndcluster_nd9:e</title>
<path fill="none" stroke="grey" d="M81.1,-69C81.1,-75.4598 89.1784,-68.7011 95.6,-68 129.016,-64.3518 142.774,-75.9511 170.4,-56.8 171.152,-56.2786 172.315,-55 171.4,-55"/>
<text text-anchor="middle" x="127.1" y="-71.8" font-family="Times,serif" font-size="14.00">pair</text>
</g>
<!-- nd7&#45;&gt;ndcluster_nd9 -->
<g id="edge2" class="edge"><title>nd7:e&#45;&gt;ndcluster_nd9:w</title>
<path fill="none" stroke="black" d="M140.1,-33C155.001,-33 150.499,-55 165.4,-55"/>
</g>
<!-- ndcluster_nd72 -->
<g id="node7" class="node"><title>ndcluster_nd72</title>
<g id="a_node7"><a xlink:title="nd72">
<ellipse fill="orange" stroke="orange" cx="168.4" cy="-18" rx="1.8" ry="1.8"/>
</a>
</g>
</g>
<!-- nd7&#45;&gt;ndcluster_nd72 -->
<g id="edge3" class="edge"><title>nd7:s&#45;&gt;ndcluster_nd72:w</title>
<path fill="none" stroke="black" d="M127.1,-17C127.1,0.0280234 148.372,-18 165.4,-18"/>
</g>
</g>
</svg>
