<?xml version="1.0" encoding="UTF-8" standalone="no"?>
<!DOCTYPE svg PUBLIC "-//W3C//DTD SVG 1.1//EN"
 "http://www.w3.org/Graphics/SVG/1.1/DTD/svg11.dtd">
<!-- Generated by graphviz version 2.38.0 (20140413.2041)
 -->
<!-- Title: G Pages: 1 -->
<svg width="213pt" height="131pt"
 viewBox="0.00 0.00 213.20 130.50" xmlns="http://www.w3.org/2000/svg" xmlns:xlink="http://www.w3.org/1999/xlink">
<g id="graph0" class="graph" transform="scale(1 1) rotate(0) translate(4 126.5)">
<title>G</title>
<polygon fill="white" stroke="none" points="-4,4 -4,-126.5 209.2,-126.5 209.2,4 -4,4"/>
<g id="clust1" class="cluster"><title>cluster_nd56</title>
<polygon fill="none" stroke="orange" points="177.6,-49.5 177.6,-69.5 197.2,-69.5 197.2,-49.5 177.6,-49.5"/>
</g>
<!-- nd1 -->
<g id="node1" class="node"><title>nd1</title>
<ellipse fill="black" stroke="black" cx="1.8" cy="-38.5" rx="1.8" ry="1.8"/>
</g>
<!-- nd110 -->
<g id="node4" class="node"><title>nd110</title>
<g id="a_node4"><a xlink:title="nd110&#45;AppGraph">
<path fill="none" stroke="#000000" d="M27.5473,-48.5543C27.5473,-48.5543 23.6719,-42.9457 23.6719,-42.9457 22.136,-40.7229 22.136,-36.2771 23.6719,-34.0543 23.6719,-34.0543 27.5473,-28.4457 27.5473,-28.4457 29.0833,-26.2229 33.3212,-24.0023 36.0231,-24.0045 36.0231,-24.0045 41.4269,-24.009 41.4269,-24.009 44.1288,-24.0113 46.8307,-26.7155 46.8307,-29.4174 46.8307,-29.4174 46.8307,-47.5826 46.8307,-47.5826 46.8307,-50.2845 44.1288,-52.9887 41.4269,-52.991 41.4269,-52.991 36.0231,-52.9955 36.0231,-52.9955 33.3212,-52.9977 29.0833,-50.7771 27.5473,-48.5543"/>
<text text-anchor="middle" x="35.1" y="-34.8" font-family="Times,serif" font-size="14.00">@</text>
</a>
</g>
</g>
<!-- nd1&#45;&gt;nd110 -->
<g id="edge5" class="edge"><title>nd1:e&#45;&gt;nd110:w</title>
<path fill="none" stroke="#b70000" d="M3.6,-38.5C11.1556,-38.5 13.0444,-38.5 20.6,-38.5"/>
</g>
<!-- nd29 -->
<g id="node2" class="node"><title>nd29</title>
<g id="a_node2"><a xlink:title="nd29&#45;ConstGraph">
<path fill="none" stroke="purple" d="M134.267,-46C134.267,-46 143.933,-46 143.933,-46 148.767,-46 153.6,-41.1667 153.6,-36.3333 153.6,-36.3333 153.6,-26.6667 153.6,-26.6667 153.6,-21.8333 148.767,-17 143.933,-17 143.933,-17 134.267,-17 134.267,-17 129.433,-17 124.6,-21.8333 124.6,-26.6667 124.6,-26.6667 124.6,-36.3333 124.6,-36.3333 124.6,-41.1667 129.433,-46 134.267,-46"/>
<text text-anchor="middle" x="139.1" y="-27.8" font-family="Times,serif" font-size="14.00">1</text>
</a>
</g>
</g>
<!-- nd36 -->
<g id="node3" class="node"><title>nd36</title>
<g id="a_node3"><a xlink:title="nd36&#45;ConstGraph">
<path fill="none" stroke="purple" d="M82.2667,-29C82.2667,-29 91.9333,-29 91.9333,-29 96.7667,-29 101.6,-24.1667 101.6,-19.3333 101.6,-19.3333 101.6,-9.66667 101.6,-9.66667 101.6,-4.83333 96.7667,-1.77636e-15 91.9333,-1.77636e-15 91.9333,-1.77636e-15 82.2667,-1.77636e-15 82.2667,-1.77636e-15 77.4333,-1.77636e-15 72.6,-4.83333 72.6,-9.66667 72.6,-9.66667 72.6,-19.3333 72.6,-19.3333 72.6,-24.1667 77.4333,-29 82.2667,-29"/>
<text text-anchor="middle" x="87.1" y="-10.8" font-family="Times,serif" font-size="14.00">2</text>
</a>
</g>
</g>
<!-- nd110&#45;&gt;nd36 -->
<g id="edge6" class="edge"><title>nd110:s&#45;&gt;nd36:w</title>
<path fill="none" stroke="black" d="M35.1,-22.5C35.1,-5.45829 55.5583,-14.5 72.6,-14.5"/>
<text text-anchor="middle" x="61.1" y="-18.3" font-family="Times,serif" font-size="14.00">y</text>
</g>
<!-- nd111 -->
<g id="node5" class="node"><title>nd111</title>
<g id="a_node5"><a xlink:title="nd111&#45;AppGraph">
<path fill="none" stroke="#000000" d="M79.5473,-66.5543C79.5473,-66.5543 75.6719,-60.9457 75.6719,-60.9457 74.136,-58.7229 74.136,-54.2771 75.6719,-52.0543 75.6719,-52.0543 79.5473,-46.4457 79.5473,-46.4457 81.0833,-44.2229 85.3212,-42.0023 88.0231,-42.0045 88.0231,-42.0045 93.4269,-42.009 93.4269,-42.009 96.1288,-42.0113 98.8307,-44.7155 98.8307,-47.4174 98.8307,-47.4174 98.8307,-65.5826 98.8307,-65.5826 98.8307,-68.2845 96.1288,-70.9887 93.4269,-70.991 93.4269,-70.991 88.0231,-70.9955 88.0231,-70.9955 85.3212,-70.9977 81.0833,-68.7771 79.5473,-66.5543"/>
<text text-anchor="middle" x="87.1" y="-52.8" font-family="Times,serif" font-size="14.00">@</text>
</a>
</g>
</g>
<!-- nd110&#45;&gt;nd111 -->
<g id="edge4" class="edge"><title>nd110:e&#45;&gt;nd111:w</title>
<path fill="none" stroke="#b70000" d="M48.1,-38.5C61.6118,-38.5 59.0882,-56.5 72.6,-56.5"/>
</g>
<!-- nd111&#45;&gt;nd29 -->
<g id="edge7" class="edge"><title>nd111:s&#45;&gt;nd29:w</title>
<path fill="none" stroke="black" d="M87.1,-40.5C87.1,-38.3575 122.458,-31.5 124.6,-31.5"/>
<text text-anchor="middle" x="113.1" y="-38.3" font-family="Times,serif" font-size="14.00">x</text>
</g>
<!-- nd54 -->
<g id="node6" class="node"><title>nd54</title>
<g id="a_node6"><a xlink:title="nd54&#45;AbsGraph">
<ellipse fill="none" stroke="#000000" cx="139.1" cy="-73.5" rx="14.5" ry="14.5"/>
<text text-anchor="middle" x="139.1" y="-69.8" font-family="Times,serif" font-size="14.00">fun</text>
</a>
</g>
</g>
<!-- nd111&#45;&gt;nd54 -->
<g id="edge3" class="edge"><title>nd111:e&#45;&gt;nd54:w</title>
<path fill="none" stroke="red" d="M100.1,-56.5C109.005,-56.5 111.021,-64.1741 115.404,-69.2102"/>
<polygon fill="red" stroke="red" points="114.058,-72.4441 124.6,-73.5 117.017,-66.1004 114.058,-72.4441"/>
</g>
<!-- ndcluster_nd56 -->
<g id="node7" class="node"><title>ndcluster_nd56</title>
<g id="a_node7"><a xlink:title="nd56">
<ellipse fill="orange" stroke="orange" cx="187.4" cy="-59.5" rx="1.8" ry="1.8"/>
</a>
</g>
</g>
<!-- nd54&#45;&gt;ndcluster_nd56 -->
<g id="edge1" class="edge"><title>nd54:e&#45;&gt;ndcluster_nd56:w</title>
<path fill="none" stroke="black" d="M153.6,-73.5C168.637,-73.5 169.363,-59.5 184.4,-59.5"/>
</g>
<!-- nd62 -->
<g id="node8" class="node"><title>nd62</title>
<g id="a_node8"><a xlink:title="nd62&#45;WeakGraph">
<ellipse fill="#000000" stroke="#000000" cx="187.4" cy="-88.5" rx="10.8" ry="10.8"/>
</a>
</g>
</g>
<!-- nd54&#45;&gt;nd62 -->
<g id="edge2" class="edge"><title>nd54:n&#45;&gt;nd62:ne</title>
<path fill="none" stroke="grey" d="M139.1,-89.5C139.1,-114.274 211.918,-114.018 194.4,-96.5"/>
<text text-anchor="middle" x="165.1" y="-111.3" font-family="Times,serif" font-size="14.00">x</text>
</g>
</g>
</svg>
