<?xml version="1.0" encoding="UTF-8" standalone="no"?>
<!DOCTYPE svg PUBLIC "-//W3C//DTD SVG 1.1//EN"
 "http://www.w3.org/Graphics/SVG/1.1/DTD/svg11.dtd">
<!-- Generated by graphviz version 2.38.0 (20140413.2041)
 -->
<!-- Title: G Pages: 1 -->
<svg width="152pt" height="88pt"
 viewBox="0.00 0.00 152.20 87.50" xmlns="http://www.w3.org/2000/svg" xmlns:xlink="http://www.w3.org/1999/xlink">
<g id="graph0" class="graph" transform="scale(1 1) rotate(0) translate(4 83.5)">
<title>G</title>
<polygon fill="white" stroke="none" points="-4,4 -4,-83.5 148.2,-83.5 148.2,4 -4,4"/>
<g id="clust1" class="cluster"><title>cluster_nd107</title>
<polygon fill="none" stroke="orange" points="72.6,-36 72.6,-56 92.2,-56 92.2,-36 72.6,-36"/>
</g>
<g id="clust2" class="cluster"><title>cluster_nd52</title>
<polygon fill="none" stroke="orange" points="72.6,-8 72.6,-28 92.2,-28 92.2,-8 72.6,-8"/>
</g>
<!-- nd1 -->
<g id="node1" class="node"><title>nd1</title>
<ellipse fill="black" stroke="black" cx="1.8" cy="-39" rx="1.8" ry="1.8"/>
</g>
<!-- nd47 -->
<g id="node5" class="node"><title>nd47</title>
<g id="a_node5"><a xlink:title="nd47&#45;AppGraph">
<path fill="none" stroke="#000000" d="M27.5473,-49.0543C27.5473,-49.0543 23.6719,-43.4457 23.6719,-43.4457 22.136,-41.2229 22.136,-36.7771 23.6719,-34.5543 23.6719,-34.5543 27.5473,-28.9457 27.5473,-28.9457 29.0833,-26.7229 33.3212,-24.5023 36.0231,-24.5045 36.0231,-24.5045 41.4269,-24.509 41.4269,-24.509 44.1288,-24.5113 46.8307,-27.2155 46.8307,-29.9174 46.8307,-29.9174 46.8307,-48.0826 46.8307,-48.0826 46.8307,-50.7845 44.1288,-53.4887 41.4269,-53.491 41.4269,-53.491 36.0231,-53.4955 36.0231,-53.4955 33.3212,-53.4977 29.0833,-51.2771 27.5473,-49.0543"/>
<text text-anchor="middle" x="35.1" y="-35.3" font-family="Times,serif" font-size="14.00">@</text>
</a>
</g>
</g>
<!-- nd1&#45;&gt;nd47 -->
<g id="edge3" class="edge"><title>nd1:e&#45;&gt;nd47:w</title>
<path fill="none" stroke="#b70000" d="M3.6,-39C11.1556,-39 13.0444,-39 20.6,-39"/>
</g>
<!-- nd29 -->
<g id="node2" class="node"><title>nd29</title>
<g id="a_node2"><a xlink:title="nd29&#45;ConstGraph">
<path fill="none" stroke="purple" d="M124.867,-79.5C124.867,-79.5 134.533,-79.5 134.533,-79.5 139.367,-79.5 144.2,-74.6667 144.2,-69.8333 144.2,-69.8333 144.2,-60.1667 144.2,-60.1667 144.2,-55.3333 139.367,-50.5 134.533,-50.5 134.533,-50.5 124.867,-50.5 124.867,-50.5 120.033,-50.5 115.2,-55.3333 115.2,-60.1667 115.2,-60.1667 115.2,-69.8333 115.2,-69.8333 115.2,-74.6667 120.033,-79.5 124.867,-79.5"/>
<text text-anchor="middle" x="129.7" y="-61.3" font-family="Times,serif" font-size="14.00">1</text>
</a>
</g>
</g>
<!-- nd36 -->
<g id="node3" class="node"><title>nd36</title>
<g id="a_node3"><a xlink:title="nd36&#45;ConstGraph">
<path fill="none" stroke="purple" d="M124.867,-37.5C124.867,-37.5 134.533,-37.5 134.533,-37.5 139.367,-37.5 144.2,-32.6667 144.2,-27.8333 144.2,-27.8333 144.2,-18.1667 144.2,-18.1667 144.2,-13.3333 139.367,-8.5 134.533,-8.5 134.533,-8.5 124.867,-8.5 124.867,-8.5 120.033,-8.5 115.2,-13.3333 115.2,-18.1667 115.2,-18.1667 115.2,-27.8333 115.2,-27.8333 115.2,-32.6667 120.033,-37.5 124.867,-37.5"/>
<text text-anchor="middle" x="129.7" y="-19.3" font-family="Times,serif" font-size="14.00">2</text>
</a>
</g>
</g>
<!-- ndcluster_nd107 -->
<g id="node4" class="node"><title>ndcluster_nd107</title>
<g id="a_node4"><a xlink:title="nd107">
<ellipse fill="orange" stroke="orange" cx="82.4" cy="-46" rx="1.8" ry="1.8"/>
</a>
</g>
</g>
<!-- ndcluster_nd107&#45;&gt;nd29 -->
<g id="edge4" class="edge"><title>ndcluster_nd107:s&#45;&gt;nd29:w</title>
<path fill="none" stroke="black" d="M82.4,-43C82.4,-25.4468 97.6468,-65 115.2,-65"/>
<text text-anchor="middle" x="103.7" y="-66.8" font-family="Times,serif" font-size="14.00">x</text>
</g>
<!-- ndcluster_nd107&#45;&gt;nd36 -->
<g id="edge5" class="edge"><title>ndcluster_nd107:s&#45;&gt;nd36:w</title>
<path fill="none" stroke="black" d="M82.4,-43C82.4,-34.463 106.663,-23 115.2,-23"/>
<text text-anchor="middle" x="103.7" y="-31.8" font-family="Times,serif" font-size="14.00">y</text>
</g>
<!-- nd47&#45;&gt;ndcluster_nd107 -->
<g id="edge1" class="edge"><title>nd47:e&#45;&gt;ndcluster_nd107:w</title>
<path fill="none" stroke="black" d="M48.1,-39C62.3548,-39 65.1452,-46 79.4,-46"/>
<text text-anchor="middle" x="61.1" y="-46.8" font-family="Times,serif" font-size="14.00">p</text>
</g>
<!-- ndcluster_nd52 -->
<g id="node6" class="node"><title>ndcluster_nd52</title>
<g id="a_node6"><a xlink:title="nd52">
<ellipse fill="orange" stroke="orange" cx="82.4" cy="-18" rx="1.8" ry="1.8"/>
</a>
</g>
</g>
<!-- nd47&#45;&gt;ndcluster_nd52 -->
<g id="edge2" class="edge"><title>nd47:s&#45;&gt;ndcluster_nd52:w</title>
<path fill="none" stroke="red" d="M39.2355,-13.8598C47.051,-9.66718 64.5396,-18 79.4,-18"/>
<polygon fill="red" stroke="red" points="36.0335,-12.4464 35.1,-23 42.4111,-15.332 36.0335,-12.4464"/>
</g>
</g>
</svg>
