<?xml version="1.0" encoding="UTF-8" standalone="no"?>
<!DOCTYPE svg PUBLIC "-//W3C//DTD SVG 1.1//EN"
 "http://www.w3.org/Graphics/SVG/1.1/DTD/svg11.dtd">
<!-- Generated by graphviz version 2.38.0 (20140413.2041)
 -->
<!-- Title: G Pages: 1 -->
<svg width="349pt" height="120pt"
 viewBox="0.00 0.00 348.90 120.00" xmlns="http://www.w3.org/2000/svg" xmlns:xlink="http://www.w3.org/1999/xlink">
<g id="graph0" class="graph" transform="scale(1 1) rotate(0) translate(4 116)">
<title>G</title>
<polygon fill="white" stroke="none" points="-4,4 -4,-116 344.9,-116 344.9,4 -4,4"/>
<g id="clust1" class="cluster"><title>cluster_nd99</title>
<polygon fill="none" stroke="orange" points="313.3,-69 313.3,-89 332.9,-89 332.9,-69 313.3,-69"/>
</g>
<g id="clust2" class="cluster"><title>cluster_nd44</title>
<polygon fill="none" stroke="orange" points="71.3,-8 71.3,-28 90.9,-28 90.9,-8 71.3,-8"/>
</g>
<!-- nd1 -->
<g id="node1" class="node"><title>nd1</title>
<ellipse fill="black" stroke="black" cx="1.8" cy="-43" rx="1.8" ry="1.8"/>
</g>
<!-- nd12 -->
<g id="node3" class="node"><title>nd12</title>
<g id="a_node3"><a xlink:title="nd12&#45;AppGraph">
<path fill="none" stroke="#000000" d="M27.5473,-53.0543C27.5473,-53.0543 23.6719,-47.4457 23.6719,-47.4457 22.136,-45.2229 22.136,-40.7771 23.6719,-38.5543 23.6719,-38.5543 27.5473,-32.9457 27.5473,-32.9457 29.0833,-30.7229 33.3212,-28.5023 36.0231,-28.5045 36.0231,-28.5045 41.4269,-28.509 41.4269,-28.509 44.1288,-28.5113 46.8307,-31.2155 46.8307,-33.9174 46.8307,-33.9174 46.8307,-52.0826 46.8307,-52.0826 46.8307,-54.7845 44.1288,-57.4887 41.4269,-57.491 41.4269,-57.491 36.0231,-57.4955 36.0231,-57.4955 33.3212,-57.4977 29.0833,-55.2771 27.5473,-53.0543"/>
<text text-anchor="middle" x="35.1" y="-39.3" font-family="Times,serif" font-size="14.00">@</text>
</a>
</g>
</g>
<!-- nd1&#45;&gt;nd12 -->
<g id="edge10" class="edge"><title>nd1:e&#45;&gt;nd12:w</title>
<path fill="none" stroke="#b70000" d="M3.6,-43C11.1556,-43 13.0444,-43 20.6,-43"/>
</g>
<!-- ndcluster_nd99 -->
<g id="node2" class="node"><title>ndcluster_nd99</title>
<g id="a_node2"><a xlink:title="nd99">
<ellipse fill="orange" stroke="orange" cx="323.1" cy="-79" rx="1.8" ry="1.8"/>
</a>
</g>
</g>
<!-- ndcluster_nd44 -->
<g id="node4" class="node"><title>ndcluster_nd44</title>
<g id="a_node4"><a xlink:title="nd44">
<ellipse fill="orange" stroke="orange" cx="81.1" cy="-18" rx="1.8" ry="1.8"/>
</a>
</g>
</g>
<!-- nd12&#45;&gt;ndcluster_nd44 -->
<g id="edge9" class="edge"><title>nd12:s&#45;&gt;ndcluster_nd44:w</title>
<path fill="none" stroke="black" d="M35.1,-27C35.1,-7.47477 58.5748,-18 78.1,-18"/>
</g>
<!-- nd16 -->
<g id="node5" class="node"><title>nd16</title>
<g id="a_node5"><a xlink:title="nd16&#45;AbsGraph">
<ellipse fill="none" stroke="#000000" cx="81.1" cy="-51" rx="14.5" ry="14.5"/>
<text text-anchor="middle" x="81.1" y="-47.3" font-family="Times,serif" font-size="14.00">fun</text>
</a>
</g>
</g>
<!-- nd12&#45;&gt;nd16 -->
<g id="edge8" class="edge"><title>nd12:e&#45;&gt;nd16:w</title>
<path fill="none" stroke="#b70000" d="M48.1,-43C57.0581,-43 57.6419,-51 66.6,-51"/>
</g>
<!-- nd17 -->
<g id="node6" class="node"><title>nd17</title>
<g id="a_node6"><a xlink:title="nd17&#45;AppGraph">
<path fill="none" stroke="#000000" d="M156.547,-68.0543C156.547,-68.0543 152.672,-62.4457 152.672,-62.4457 151.136,-60.2229 151.136,-55.7771 152.672,-53.5543 152.672,-53.5543 156.547,-47.9457 156.547,-47.9457 158.083,-45.7229 162.321,-43.5023 165.023,-43.5045 165.023,-43.5045 170.427,-43.509 170.427,-43.509 173.129,-43.5113 175.831,-46.2155 175.831,-48.9174 175.831,-48.9174 175.831,-67.0826 175.831,-67.0826 175.831,-69.7845 173.129,-72.4887 170.427,-72.491 170.427,-72.491 165.023,-72.4955 165.023,-72.4955 162.321,-72.4977 158.083,-70.2771 156.547,-68.0543"/>
<text text-anchor="middle" x="164.1" y="-54.3" font-family="Times,serif" font-size="14.00">@</text>
</a>
</g>
</g>
<!-- nd16&#45;&gt;nd17 -->
<g id="edge5" class="edge"><title>nd16:n&#45;&gt;nd17:e</title>
<path fill="none" stroke="grey" d="M81.1,-67C81.1,-109.293 145.183,-101.358 176.1,-72.5 180.822,-68.0922 183.56,-58 177.1,-58"/>
<text text-anchor="middle" x="122.6" y="-100.8" font-family="Times,serif" font-size="14.00">second</text>
</g>
<!-- nd16&#45;&gt;nd17 -->
<g id="edge7" class="edge"><title>nd16:e&#45;&gt;nd17:w</title>
<path fill="none" stroke="red" d="M95.6,-51C116.019,-51 123.196,-55.9834 139.476,-57.5407"/>
<polygon fill="red" stroke="red" points="139.452,-61.0431 149.6,-58 139.769,-54.0503 139.452,-61.0431"/>
</g>
<!-- nd21 -->
<g id="node7" class="node"><title>nd21</title>
<g id="a_node7"><a xlink:title="nd21&#45;AppGraph">
<path fill="none" stroke="#000000" d="M202.547,-53.0543C202.547,-53.0543 198.672,-47.4457 198.672,-47.4457 197.136,-45.2229 197.136,-40.7771 198.672,-38.5543 198.672,-38.5543 202.547,-32.9457 202.547,-32.9457 204.083,-30.7229 208.321,-28.5023 211.023,-28.5045 211.023,-28.5045 216.427,-28.509 216.427,-28.509 219.129,-28.5113 221.831,-31.2155 221.831,-33.9174 221.831,-33.9174 221.831,-52.0826 221.831,-52.0826 221.831,-54.7845 219.129,-57.4887 216.427,-57.491 216.427,-57.491 211.023,-57.4955 211.023,-57.4955 208.321,-57.4977 204.083,-55.2771 202.547,-53.0543"/>
<text text-anchor="middle" x="210.1" y="-39.3" font-family="Times,serif" font-size="14.00">@</text>
</a>
</g>
</g>
<!-- nd17&#45;&gt;nd21 -->
<g id="edge6" class="edge"><title>nd17:s&#45;&gt;nd21:w</title>
<path fill="none" stroke="black" d="M164.1,-42C164.1,-27.9929 181.593,-43 195.6,-43"/>
</g>
<!-- nd22 -->
<g id="node8" class="node"><title>nd22</title>
<g id="a_node8"><a xlink:title="nd22&#45;AppGraph">
<path fill="none" stroke="#000000" d="M248.547,-78.0543C248.547,-78.0543 244.672,-72.4457 244.672,-72.4457 243.136,-70.2229 243.136,-65.7771 244.672,-63.5543 244.672,-63.5543 248.547,-57.9457 248.547,-57.9457 250.083,-55.7229 254.321,-53.5023 257.023,-53.5045 257.023,-53.5045 262.427,-53.509 262.427,-53.509 265.129,-53.5113 267.831,-56.2155 267.831,-58.9174 267.831,-58.9174 267.831,-77.0826 267.831,-77.0826 267.831,-79.7845 265.129,-82.4887 262.427,-82.491 262.427,-82.491 257.023,-82.4955 257.023,-82.4955 254.321,-82.4977 250.083,-80.2771 248.547,-78.0543"/>
<text text-anchor="middle" x="256.1" y="-64.3" font-family="Times,serif" font-size="14.00">@</text>
</a>
</g>
</g>
<!-- nd21&#45;&gt;nd22 -->
<g id="edge3" class="edge"><title>nd21:e&#45;&gt;nd22:w</title>
<path fill="none" stroke="black" d="M223.1,-43C236.923,-43 227.777,-68 241.6,-68"/>
</g>
<!-- nd36 -->
<g id="node10" class="node"><title>nd36</title>
<g id="a_node10"><a xlink:title="nd36&#45;ConstGraph">
<path fill="none" stroke="purple" d="M251.267,-40.5C251.267,-40.5 260.933,-40.5 260.933,-40.5 265.767,-40.5 270.6,-35.6667 270.6,-30.8333 270.6,-30.8333 270.6,-21.1667 270.6,-21.1667 270.6,-16.3333 265.767,-11.5 260.933,-11.5 260.933,-11.5 251.267,-11.5 251.267,-11.5 246.433,-11.5 241.6,-16.3333 241.6,-21.1667 241.6,-21.1667 241.6,-30.8333 241.6,-30.8333 241.6,-35.6667 246.433,-40.5 251.267,-40.5"/>
<text text-anchor="middle" x="256.1" y="-22.3" font-family="Times,serif" font-size="14.00">2</text>
</a>
</g>
</g>
<!-- nd21&#45;&gt;nd36 -->
<g id="edge4" class="edge"><title>nd21:s&#45;&gt;nd36:w</title>
<path fill="none" stroke="black" d="M210.1,-27C210.1,-12.9929 227.593,-26 241.6,-26"/>
</g>
<!-- nd22&#45;&gt;ndcluster_nd99 -->
<g id="edge1" class="edge"><title>nd22:e&#45;&gt;ndcluster_nd99:w</title>
<path fill="none" stroke="black" d="M269.1,-68C292.288,-68 296.912,-79 320.1,-79"/>
<text text-anchor="middle" x="289.6" y="-79.8" font-family="Times,serif" font-size="14.00">pair</text>
</g>
<!-- nd29 -->
<g id="node9" class="node"><title>nd29</title>
<g id="a_node9"><a xlink:title="nd29&#45;ConstGraph">
<path fill="none" stroke="purple" d="M318.267,-60.5C318.267,-60.5 327.933,-60.5 327.933,-60.5 332.767,-60.5 337.6,-55.6667 337.6,-50.8333 337.6,-50.8333 337.6,-41.1667 337.6,-41.1667 337.6,-36.3333 332.767,-31.5 327.933,-31.5 327.933,-31.5 318.267,-31.5 318.267,-31.5 313.433,-31.5 308.6,-36.3333 308.6,-41.1667 308.6,-41.1667 308.6,-50.8333 308.6,-50.8333 308.6,-55.6667 313.433,-60.5 318.267,-60.5"/>
<text text-anchor="middle" x="323.1" y="-42.3" font-family="Times,serif" font-size="14.00">1</text>
</a>
</g>
</g>
<!-- nd22&#45;&gt;nd29 -->
<g id="edge2" class="edge"><title>nd22:s&#45;&gt;nd29:w</title>
<path fill="none" stroke="black" d="M256.1,-52C256.1,-46.1287 302.729,-46 308.6,-46"/>
</g>
</g>
</svg>
