<?xml version="1.0" encoding="UTF-8" standalone="no"?>
<!DOCTYPE svg PUBLIC "-//W3C//DTD SVG 1.1//EN"
 "http://www.w3.org/Graphics/SVG/1.1/DTD/svg11.dtd">
<!-- Generated by graphviz version 2.38.0 (20140413.2041)
 -->
<!-- Title: G Pages: 1 -->
<svg width="273pt" height="123pt"
 viewBox="0.00 0.00 272.80 123.00" xmlns="http://www.w3.org/2000/svg" xmlns:xlink="http://www.w3.org/1999/xlink">
<g id="graph0" class="graph" transform="scale(1 1) rotate(0) translate(4 119)">
<title>G</title>
<polygon fill="white" stroke="none" points="-4,4 -4,-119 268.8,-119 268.8,4 -4,4"/>
<g id="clust1" class="cluster"><title>cluster_nd99</title>
<polygon fill="none" stroke="orange" points="237.2,-36 237.2,-56 256.8,-56 256.8,-36 237.2,-36"/>
</g>
<g id="clust2" class="cluster"><title>cluster_nd72</title>
<polygon fill="none" stroke="orange" points="71.3,-14 71.3,-34 90.9,-34 90.9,-14 71.3,-14"/>
</g>
<g id="clust3" class="cluster"><title>cluster_nd14</title>
<polygon fill="none" stroke="orange" points="179.6,-36 179.6,-56 199.2,-56 199.2,-36 179.6,-36"/>
</g>
<g id="clust4" class="cluster"><title>cluster_nd44</title>
<polygon fill="none" stroke="orange" points="179.6,-8 179.6,-28 199.2,-28 199.2,-8 179.6,-8"/>
</g>
<!-- nd1 -->
<g id="node1" class="node"><title>nd1</title>
<ellipse fill="black" stroke="black" cx="1.8" cy="-49" rx="1.8" ry="1.8"/>
</g>
<!-- nd7 -->
<g id="node3" class="node"><title>nd7</title>
<g id="a_node3"><a xlink:title="nd7&#45;AppGraph">
<path fill="none" stroke="#000000" d="M27.5473,-59.0543C27.5473,-59.0543 23.6719,-53.4457 23.6719,-53.4457 22.136,-51.2229 22.136,-46.7771 23.6719,-44.5543 23.6719,-44.5543 27.5473,-38.9457 27.5473,-38.9457 29.0833,-36.7229 33.3212,-34.5023 36.0231,-34.5045 36.0231,-34.5045 41.4269,-34.509 41.4269,-34.509 44.1288,-34.5113 46.8307,-37.2155 46.8307,-39.9174 46.8307,-39.9174 46.8307,-58.0826 46.8307,-58.0826 46.8307,-60.7845 44.1288,-63.4887 41.4269,-63.491 41.4269,-63.491 36.0231,-63.4955 36.0231,-63.4955 33.3212,-63.4977 29.0833,-61.2771 27.5473,-59.0543"/>
<text text-anchor="middle" x="35.1" y="-45.3" font-family="Times,serif" font-size="14.00">@</text>
</a>
</g>
</g>
<!-- nd1&#45;&gt;nd7 -->
<g id="edge8" class="edge"><title>nd1:e&#45;&gt;nd7:w</title>
<path fill="none" stroke="#b70000" d="M3.6,-49C11.1556,-49 13.0444,-49 20.6,-49"/>
</g>
<!-- ndcluster_nd99 -->
<g id="node2" class="node"><title>ndcluster_nd99</title>
<g id="a_node2"><a xlink:title="nd99">
<ellipse fill="orange" stroke="orange" cx="247" cy="-46" rx="1.8" ry="1.8"/>
</a>
</g>
</g>
<!-- ndcluster_nd72 -->
<g id="node4" class="node"><title>ndcluster_nd72</title>
<g id="a_node4"><a xlink:title="nd72">
<ellipse fill="orange" stroke="orange" cx="81.1" cy="-24" rx="1.8" ry="1.8"/>
</a>
</g>
</g>
<!-- nd7&#45;&gt;ndcluster_nd72 -->
<g id="edge7" class="edge"><title>nd7:s&#45;&gt;ndcluster_nd72:w</title>
<path fill="none" stroke="black" d="M35.1,-33C35.1,-13.4748 58.5748,-24 78.1,-24"/>
</g>
<!-- nd11 -->
<g id="node5" class="node"><title>nd11</title>
<g id="a_node5"><a xlink:title="nd11&#45;AbsGraph">
<ellipse fill="none" stroke="#000000" cx="81.1" cy="-57" rx="14.5" ry="14.5"/>
<text text-anchor="middle" x="81.1" y="-53.3" font-family="Times,serif" font-size="14.00">fun</text>
</a>
</g>
</g>
<!-- nd7&#45;&gt;nd11 -->
<g id="edge6" class="edge"><title>nd7:e&#45;&gt;nd11:w</title>
<path fill="none" stroke="red" d="M48.1,-49C52.579,-49 54.9645,-51 57.35,-53"/>
<polygon fill="red" stroke="red" points="56.0322,-56.2433 66.6,-57 58.8106,-49.8183 56.0322,-56.2433"/>
</g>
<!-- nd12 -->
<g id="node6" class="node"><title>nd12</title>
<g id="a_node6"><a xlink:title="nd12&#45;AppGraph">
<path fill="none" stroke="#000000" d="M140.547,-50.0543C140.547,-50.0543 136.672,-44.4457 136.672,-44.4457 135.136,-42.2229 135.136,-37.7771 136.672,-35.5543 136.672,-35.5543 140.547,-29.9457 140.547,-29.9457 142.083,-27.7229 146.321,-25.5023 149.023,-25.5045 149.023,-25.5045 154.427,-25.509 154.427,-25.509 157.129,-25.5113 159.831,-28.2155 159.831,-30.9174 159.831,-30.9174 159.831,-49.0826 159.831,-49.0826 159.831,-51.7845 157.129,-54.4887 154.427,-54.491 154.427,-54.491 149.023,-54.4955 149.023,-54.4955 146.321,-54.4977 142.083,-52.2771 140.547,-50.0543"/>
<text text-anchor="middle" x="148.1" y="-36.3" font-family="Times,serif" font-size="14.00">@</text>
</a>
</g>
</g>
<!-- nd11&#45;&gt;nd12 -->
<g id="edge4" class="edge"><title>nd11:e&#45;&gt;nd12:w</title>
<path fill="none" stroke="black" d="M95.6,-57C114.102,-57 115.098,-40 133.6,-40"/>
</g>
<!-- nd67 -->
<g id="node9" class="node"><title>nd67</title>
<g id="a_node9"><a xlink:title="nd67&#45;WeakGraph">
<ellipse fill="#000000" stroke="#000000" cx="148.1" cy="-78" rx="10.8" ry="10.8"/>
</a>
</g>
</g>
<!-- nd11&#45;&gt;nd67 -->
<g id="edge5" class="edge"><title>nd11:n&#45;&gt;nd67:ne</title>
<path fill="none" stroke="grey" d="M81.1,-73C81.1,-106.393 178.712,-109.612 155.1,-86"/>
<text text-anchor="middle" x="114.6" y="-103.8" font-family="Times,serif" font-size="14.00">first</text>
</g>
<!-- ndcluster_nd14 -->
<g id="node7" class="node"><title>ndcluster_nd14</title>
<g id="a_node7"><a xlink:title="nd14">
<ellipse fill="orange" stroke="orange" cx="189.4" cy="-46" rx="1.8" ry="1.8"/>
</a>
</g>
</g>
<!-- nd12&#45;&gt;ndcluster_nd14 -->
<g id="edge2" class="edge"><title>nd12:e&#45;&gt;ndcluster_nd14:w</title>
<path fill="none" stroke="black" d="M161.1,-40C172.656,-40 174.844,-46 186.4,-46"/>
</g>
<!-- ndcluster_nd44 -->
<g id="node8" class="node"><title>ndcluster_nd44</title>
<g id="a_node8"><a xlink:title="nd44">
<ellipse fill="orange" stroke="orange" cx="189.4" cy="-18" rx="1.8" ry="1.8"/>
</a>
</g>
</g>
<!-- nd12&#45;&gt;ndcluster_nd44 -->
<g id="edge3" class="edge"><title>nd12:s&#45;&gt;ndcluster_nd44:w</title>
<path fill="none" stroke="black" d="M148.1,-24C148.1,-6.77017 169.17,-18 186.4,-18"/>
</g>
<!-- ndcluster_nd14&#45;&gt;ndcluster_nd99 -->
<g id="edge1" class="edge"><title>ndcluster_nd14:e&#45;&gt;ndcluster_nd99:w</title>
<path fill="none" stroke="black" d="M192.4,-46C215.333,-46 221.067,-46 244,-46"/>
<text text-anchor="middle" x="218.2" y="-50.8" font-family="Times,serif" font-size="14.00">pair</text>
</g>
</g>
</svg>
