<?xml version="1.0" encoding="UTF-8" standalone="no"?>
<!DOCTYPE svg PUBLIC "-//W3C//DTD SVG 1.1//EN"
 "http://www.w3.org/Graphics/SVG/1.1/DTD/svg11.dtd">
<!-- Generated by graphviz version 2.38.0 (20140413.2041)
 -->
<!-- Title: G Pages: 1 -->
<svg width="160pt" height="72pt"
 viewBox="0.00 0.00 159.80 72.00" xmlns="http://www.w3.org/2000/svg" xmlns:xlink="http://www.w3.org/1999/xlink">
<g id="graph0" class="graph" transform="scale(1 1) rotate(0) translate(4 68)">
<title>G</title>
<polygon fill="white" stroke="none" points="-4,4 -4,-68 155.8,-68 155.8,4 -4,4"/>
<g id="clust1" class="cluster"><title>cluster_nd99</title>
<polygon fill="none" stroke="orange" points="124.2,-36 124.2,-56 143.8,-56 143.8,-36 124.2,-36"/>
</g>
<g id="clust2" class="cluster"><title>cluster_nd9</title>
<polygon fill="none" stroke="orange" points="66.6,-36 66.6,-56 86.2,-56 86.2,-36 66.6,-36"/>
</g>
<g id="clust3" class="cluster"><title>cluster_nd72</title>
<polygon fill="none" stroke="orange" points="66.6,-8 66.6,-28 86.2,-28 86.2,-8 66.6,-8"/>
</g>
<!-- nd1 -->
<g id="node1" class="node"><title>nd1</title>
<ellipse fill="black" stroke="black" cx="1.8" cy="-40" rx="1.8" ry="1.8"/>
</g>
<!-- nd7 -->
<g id="node3" class="node"><title>nd7</title>
<g id="a_node3"><a xlink:title="nd7&#45;AppGraph">
<path fill="none" stroke="#000000" d="M27.5473,-50.0543C27.5473,-50.0543 23.6719,-44.4457 23.6719,-44.4457 22.136,-42.2229 22.136,-37.7771 23.6719,-35.5543 23.6719,-35.5543 27.5473,-29.9457 27.5473,-29.9457 29.0833,-27.7229 33.3212,-25.5023 36.0231,-25.5045 36.0231,-25.5045 41.4269,-25.509 41.4269,-25.509 44.1288,-25.5113 46.8307,-28.2155 46.8307,-30.9174 46.8307,-30.9174 46.8307,-49.0826 46.8307,-49.0826 46.8307,-51.7845 44.1288,-54.4887 41.4269,-54.491 41.4269,-54.491 36.0231,-54.4955 36.0231,-54.4955 33.3212,-54.4977 29.0833,-52.2771 27.5473,-50.0543"/>
<text text-anchor="middle" x="35.1" y="-36.3" font-family="Times,serif" font-size="14.00">@</text>
</a>
</g>
</g>
<!-- nd1&#45;&gt;nd7 -->
<g id="edge4" class="edge"><title>nd1:e&#45;&gt;nd7:w</title>
<path fill="none" stroke="#b70000" d="M3.6,-40C11.1556,-40 13.0444,-40 20.6,-40"/>
</g>
<!-- ndcluster_nd99 -->
<g id="node2" class="node"><title>ndcluster_nd99</title>
<g id="a_node2"><a xlink:title="nd99">
<ellipse fill="orange" stroke="orange" cx="134" cy="-46" rx="1.8" ry="1.8"/>
</a>
</g>
</g>
<!-- ndcluster_nd9 -->
<g id="node4" class="node"><title>ndcluster_nd9</title>
<g id="a_node4"><a xlink:title="nd9">
<ellipse fill="orange" stroke="orange" cx="76.4" cy="-46" rx="1.8" ry="1.8"/>
</a>
</g>
</g>
<!-- nd7&#45;&gt;ndcluster_nd9 -->
<g id="edge2" class="edge"><title>nd7:e&#45;&gt;ndcluster_nd9:w</title>
<path fill="none" stroke="red" d="M48.1,-40C55.3227,-40 58.8857,-42.3438 63.3635,-44.1016"/>
<polygon fill="red" stroke="red" points="62.9237,-47.5804 73.4,-46 64.2248,-40.7023 62.9237,-47.5804"/>
</g>
<!-- ndcluster_nd72 -->
<g id="node5" class="node"><title>ndcluster_nd72</title>
<g id="a_node5"><a xlink:title="nd72">
<ellipse fill="orange" stroke="orange" cx="76.4" cy="-18" rx="1.8" ry="1.8"/>
</a>
</g>
</g>
<!-- nd7&#45;&gt;ndcluster_nd72 -->
<g id="edge3" class="edge"><title>nd7:s&#45;&gt;ndcluster_nd72:w</title>
<path fill="none" stroke="black" d="M35.1,-24C35.1,-6.77017 56.1702,-18 73.4,-18"/>
</g>
<!-- ndcluster_nd9&#45;&gt;ndcluster_nd99 -->
<g id="edge1" class="edge"><title>ndcluster_nd9:e&#45;&gt;ndcluster_nd99:w</title>
<path fill="none" stroke="black" d="M79.4,-46C102.333,-46 108.067,-46 131,-46"/>
<text text-anchor="middle" x="105.2" y="-49.8" font-family="Times,serif" font-size="14.00">pair</text>
</g>
</g>
</svg>
